<?xml version="1.0" encoding="utf-8"?>
<!-- Generator: Adobe Illustrator 24.3.0, SVG Export Plug-In . SVG Version: 6.00 Build 0)  -->
<svg version="1.1" xmlns="http://www.w3.org/2000/svg" xmlns:xlink="http://www.w3.org/1999/xlink" x="0px" y="0px"
	 viewBox="0 0 500 500" style="enable-background:new 0 0 500 500;" xml:space="preserve">
<style type="text/css">
	.st0{fill:#F5F5F5;}
	.st1{fill:#EBEBEB;}
	.st2{display:none;}
	.st3{display:inline;fill:#F5F5F5;}
	.st4{fill:#263238;}
	.st5{fill:#455A64;}
	.st6{fill:#FAFAFA;}
	.st7{fill:#E0E0E0;}
	.st8{fill:#FFFFFF;}
	.st9{fill:#FF725E;}
	.st10{opacity:0.3;}
	.st11{fill:#AE7461;}
	.st12{fill:#6F4439;}
</style>
<g id="Background_Complete">
	<rect x="44.8" y="277.6" class="st0" width="53" height="199.5"/>
	<rect x="331.9" y="344" class="st0" width="53" height="132"/>
	<rect x="412.8" y="240.2" class="st0" width="53" height="235.8"/>
	<rect x="242.1" y="248.8" class="st0" width="53" height="227.2"/>
	<rect x="135.9" y="184.4" class="st0" width="53" height="291.6"/>
	<g>
		<g>
			<g>
				<path class="st1" d="M412.8,54.1c0,0-0.3,0.3-0.8,0.8c-0.5,0.5-1.3,1.3-2.3,2.3c-2,2-5.1,5-8.9,8.8
					c-7.8,7.6-19.1,18.7-33.3,32.5c-28.3,27.6-67.9,66.1-112.8,109.8l-0.2,0.2l-0.2-0.2c-8.9-10.6-18.1-21.7-27.6-33
					c-25.4-30.4-49.4-59.3-70.8-84.8l0.4,0C131.2,128,110,159.9,95,182.4c-7.5,11.2-13.4,20.1-17.4,26.2c-2,3-3.6,5.3-4.6,6.9
					c-0.5,0.8-0.9,1.4-1.2,1.8c-0.3,0.4-0.4,0.6-0.4,0.6s0.1-0.2,0.4-0.6c0.3-0.4,0.7-1,1.2-1.8c1-1.6,2.6-3.9,4.6-7
					c4-6.1,9.9-15,17.3-26.2c14.9-22.5,36.1-54.4,61.1-92.2l0.2-0.3l0.2,0.2c21.4,25.6,45.4,54.4,70.8,84.8
					c9.4,11.3,18.7,22.4,27.6,33l-0.4,0c44.9-43.7,84.5-82.1,112.9-109.6c14.2-13.7,25.6-24.8,33.4-32.4c3.9-3.8,6.9-6.7,9-8.7
					c1-1,1.8-1.7,2.3-2.2C412.5,54.4,412.8,54.1,412.8,54.1z"/>
			</g>
			<circle class="st1" cx="156.1" cy="90.1" r="9.8"/>
			
				<ellipse transform="matrix(0.9248 -0.3804 0.3804 0.9248 -77.5023 43.5099)" class="st1" cx="71.3" cy="217.8" rx="9.8" ry="9.8"/>
			<ellipse transform="matrix(0.1597 -0.9872 0.9872 0.1597 8.5249 426.0266)" class="st1" cx="254.5" cy="208" rx="9.8" ry="9.8"/>
		</g>
		
			<ellipse transform="matrix(0.2195 -0.9756 0.9756 0.2195 276.9308 446.9384)" class="st1" cx="417.8" cy="50.4" rx="9.8" ry="9.8"/>
	</g>
	<g>
		<g>
			<path class="st1" d="M58,69.9c2.4-1.5,5-2.6,7.6-3.3l1.6-7.5l12.7-0.2l1.8,7.5c2.7,0.7,5.3,1.7,7.7,3l6.4-4.2L105,74l-4,6.6
				c1.5,2.4,2.6,5,3.3,7.6l7.5,1.6l0.2,12.7l-7.5,1.8c-0.7,2.7-1.7,5.3-3,7.7l4.2,6.4l-8.8,9.2l-6.6-4c-2.4,1.5-5,2.6-7.6,3.3
				l-1.6,7.5l-12.7,0.2l-1.8-7.5c-2.7-0.7-5.3-1.7-7.7-3l-6.4,4.2l-9.2-8.8l4-6.6c-1.5-2.4-2.6-5-3.3-7.6l-7.5-1.6l-0.2-12.7
				l7.5-1.8c0.7-2.7,1.7-5.3,3-7.7l-4.2-6.4l8.8-9.2L58,69.9L58,69.9z M64.8,86.9c-5.2,5.4-5.1,14.1,0.3,19.3
				c5.4,5.2,14.1,5.1,19.3-0.3c5.2-5.4,5.1-14.1-0.3-19.3C78.6,81.3,70,81.4,64.8,86.9z"/>
		</g>
	</g>
	<g>
		<g>
			<path class="st0" d="M267.9,46.9c3-1.8,6.2-3.2,9.5-4.1l1.9-9.4l15.8-0.3l2.3,9.3c3.3,0.8,6.5,2.1,9.6,3.8l8-5.2l11.4,11l-5,8.2
				c1.8,3,3.2,6.2,4.1,9.5l9.4,1.9l0.3,15.8l-9.3,2.3c-0.8,3.3-2.1,6.5-3.8,9.6l5.2,8l-11,11.4l-8.2-5c-3,1.8-6.2,3.2-9.5,4.1
				l-1.9,9.4l-15.8,0.3l-2.3-9.3c-3.3-0.8-6.5-2.1-9.6-3.8l-8,5.2l-11.4-11l5-8.2c-1.8-3-3.2-6.2-4.1-9.5l-9.4-1.9l-0.3-15.8
				l9.3-2.3c0.8-3.3,2.1-6.5,3.8-9.6l-5.2-8l11-11.4L267.9,46.9L267.9,46.9z M276.3,68c-6.5,6.7-6.3,17.5,0.4,24
				c6.7,6.5,17.5,6.3,24-0.4c6.5-6.7,6.3-17.5-0.4-24C293.5,61.1,282.8,61.3,276.3,68z"/>
		</g>
	</g>
	<g>
		<g>
			<path class="st0" d="M118.8,38.5c1.3-0.8,2.6-1.3,4-1.7l0.8-3.9l6.7-0.1l1,3.9c1.4,0.3,2.8,0.9,4,1.6l3.4-2.2l4.8,4.6l-2.1,3.4
				c0.8,1.3,1.3,2.6,1.7,4l3.9,0.8l0.1,6.7l-3.9,1c-0.3,1.4-0.9,2.8-1.6,4l2.2,3.4l-4.6,4.8l-3.4-2.1c-1.3,0.8-2.6,1.3-4,1.7
				l-0.8,3.9l-6.7,0.1l-1-3.9c-1.4-0.3-2.8-0.9-4-1.6l-3.4,2.2l-4.8-4.6l2.1-3.4c-0.8-1.3-1.3-2.6-1.7-4l-3.9-0.8l-0.1-6.7l3.9-1
				c0.3-1.4,0.9-2.8,1.6-4l-2.2-3.4l4.6-4.8L118.8,38.5L118.8,38.5z M122.3,47.4c-2.7,2.8-2.7,7.4,0.2,10.1
				c2.8,2.7,7.4,2.7,10.1-0.2c2.7-2.8,2.7-7.4-0.2-10.1C129.6,44.5,125.1,44.5,122.3,47.4z"/>
		</g>
	</g>
	<g>
		<g>
			<path class="st0" d="M428.9,108.4c1.7-1,3.5-1.8,5.4-2.3l1.1-5.3l9-0.2l1.3,5.3c1.9,0.5,3.7,1.2,5.5,2.1l4.5-3l6.5,6.3l-2.8,4.7
				c1,1.7,1.8,3.5,2.3,5.4l5.3,1.1l0.2,9l-5.3,1.3c-0.5,1.9-1.2,3.7-2.1,5.5l3,4.6l-6.3,6.5l-4.7-2.8c-1.7,1-3.5,1.8-5.4,2.3
				l-1.1,5.3l-9,0.2l-1.3-5.3c-1.9-0.5-3.7-1.2-5.5-2.1l-4.5,3l-6.5-6.3l2.8-4.7c-1-1.7-1.8-3.5-2.3-5.4l-5.3-1.1l-0.2-9l5.3-1.3
				c0.5-1.9,1.2-3.7,2.1-5.5l-3-4.6l6.3-6.5L428.9,108.4L428.9,108.4z M433.7,120.4c-3.7,3.8-3.6,10,0.2,13.7
				c3.8,3.7,10,3.6,13.7-0.2c3.7-3.8,3.6-10-0.2-13.7C443.5,116.4,437.4,116.6,433.7,120.4z"/>
		</g>
	</g>
</g>
<g id="Background_Simple" class="st2">
	<path class="st3" d="M448.3,95.8l-2.5-4.1c-20.9-34.5-58.8-55.3-98.7-52.8c-5.1,0.3-10.2,1-15.3,2.1c-36.3,7.8-67.9,35.2-81,70.4
		c-7.7,20.7-9.9,44.5-24.5,60.9c-19,21.4-51.3,22-79.7,21.1c-28.4-0.9-60.7-0.1-79.6,21.3c-11.9,13.4-15.6,32.5-14.7,50.5
		c2.5,47.6,35.7,90.2,77.9,111.4c42.2,21.2,91.9,23.1,138.1,13.7c64.7-13,126.2-48.9,163.2-104.2
		C468.5,230.8,477.9,155.5,448.3,95.8z"/>
</g>
<g id="Floor">
	<g>
		<path class="st4" d="M483.2,477.4c0,0.1-104.4,0.3-233.2,0.3c-128.8,0-233.2-0.1-233.2-0.3c0-0.1,104.4-0.3,233.2-0.3
			C378.8,477.1,483.2,477.2,483.2,477.4z"/>
	</g>
</g>
<g id="Briefcase">
	<g>
		<g>
			<g>
				<g>
					<path class="st4" d="M322.1,477.4h82.1c1.6,0,2.8-1.3,2.7-2.9l-4.1-58.1c-0.1-1.4-1.3-2.5-2.7-2.5l-75.4-0.1
						c-1.4,0-2.6,1.1-2.7,2.6l-2.6,58.2C319.3,476.1,320.6,477.4,322.1,477.4z"/>
				</g>
			</g>
		</g>
		<g>
			<g>
				<g>
					<g>
						<path class="st5" d="M333.4,477.4c0.1,0,0.2-14.2,0.2-31.7c0-17.5-0.1-31.7-0.2-31.7c-0.1,0-0.2,14.2-0.2,31.7
							C333.2,463.2,333.3,477.4,333.4,477.4z"/>
					</g>
				</g>
			</g>
		</g>
		<g>
			<g>
				<g>
					<g>
						<path class="st5" d="M334.4,415.4c0,0,0,0.1,0.1,0.2c0.1,0.2,0.2,0.4,0.4,0.7c0.4,0.6,0.9,1.4,1.6,2.5c1.4,2.2,3.4,5.3,6.2,9
							c2.8,3.7,6.2,7.9,10.9,11.9c2.3,2,5,3.8,7.9,5.4c2.9,1.5,6.2,2.8,9.8,3.1c3.5,0.3,7-0.5,10.1-1.7c3.1-1.3,5.8-3,8.2-4.9
							c4.7-3.9,7.9-8.6,9.8-12.7c1.9-4.2,2.6-7.9,2.9-10.5c0.1-0.6,0.1-1.2,0.1-1.7c0-0.5,0-0.9,0-1.3c0-0.3,0-0.6,0-0.8
							c0-0.2,0-0.3,0-0.3c0,0,0,0.1,0,0.3c0,0.2,0,0.5,0,0.8c0,0.3,0,0.8-0.1,1.2c0,0.5-0.1,1.1-0.2,1.7c-0.3,2.5-1.1,6.2-3,10.3
							c-1.9,4.1-5.1,8.7-9.8,12.5c-2.3,1.9-5.1,3.6-8.1,4.8c-3,1.2-6.4,2-9.9,1.7c-3.5-0.3-6.7-1.5-9.6-3c-2.9-1.6-5.5-3.4-7.8-5.3
							c-4.6-3.9-8.1-8.1-10.9-11.8c-2.8-3.7-4.8-6.7-6.3-8.9c-0.7-1-1.3-1.9-1.7-2.4c-0.2-0.3-0.3-0.5-0.4-0.6
							C334.5,415.4,334.4,415.4,334.4,415.4z"/>
					</g>
				</g>
			</g>
		</g>
		<g>
			<g>
				<g>
					<path class="st5" d="M368.4,448.1c0,2.1,1.7,3.8,3.8,3.8s3.8-1.7,3.8-3.8c0-2.1-1.7-3.8-3.8-3.8S368.4,446,368.4,448.1z"/>
				</g>
			</g>
		</g>
		<g>
			<g>
				<g>
					<path class="st4" d="M346.3,402c1.6-1.5,3.8-2,5.9-2.2c5.2-0.5,10.8,0.6,15.3,3.1c4.5,2.6,7.8,6.8,10,11.5l-3,3.1
						c-1.2-4.9-3.9-9.1-8.1-11.9c-4.2-2.8-8.6-4-13.6-3.2c-1.1,0.2-2.8,0.6-3.7,1.3c-1.9,1.4-2.2,2.9-1.9,4.9c0.5,3,1.3,4.3,2.5,5.9
						c-2.2,0.1-2.7,0.1-4.9,0.1c-0.6-2.1-1.1-4.3-1.1-6.5C344,405.8,344.7,403.5,346.3,402z"/>
				</g>
			</g>
		</g>
	</g>
</g>
<g id="Books">
	<g>
		<g>
			<g>
				<rect x="232.8" y="446.9" class="st6" width="31.1" height="12.3"/>
			</g>
			<g>
				<rect x="231.5" y="444.8" class="st5" width="97.7" height="2.6"/>
			</g>
			<g>
				<rect x="231.9" y="458.6" class="st5" width="97.3" height="2.6"/>
			</g>
			<g>
				<polygon class="st5" points="263.9,445.4 264.1,460.7 329.2,460.7 329.2,445.4 				"/>
			</g>
			<g>
				<path class="st4" d="M279.7,453c0,2.1-1.6,3.8-3.5,3.8s-3.5-1.7-3.5-3.8c0-2.1,1.6-3.8,3.5-3.8S279.7,450.9,279.7,453z"/>
				<path class="st7" d="M276.2,457.4c-2.2,0-4.1-2-4.1-4.4c0-2.4,1.8-4.4,4.1-4.4c2.2,0,4.1,2,4.1,4.4
					C280.3,455.4,278.5,457.4,276.2,457.4z M276.2,449.8c-1.6,0-3,1.5-3,3.3c0,1.8,1.3,3.3,3,3.3c1.6,0,3-1.5,3-3.3
					C279.2,451.2,277.9,449.8,276.2,449.8z"/>
			</g>
			<g>
				<g>
					<path class="st4" d="M261.6,456.1c0,0.2-6.4,0.3-14.3,0.3c-7.9,0-14.3-0.1-14.3-0.3c0-0.2,6.4-0.3,14.3-0.3
						C255.2,455.9,261.6,456,261.6,456.1z"/>
				</g>
			</g>
			<g>
				<g>
					<path class="st4" d="M261.6,454c0,0.2-6.4,0.3-14.3,0.3c-7.9,0-14.3-0.1-14.3-0.3c0-0.2,6.4-0.3,14.3-0.3
						C255.2,453.7,261.6,453.8,261.6,454z"/>
				</g>
			</g>
			<g>
				<g>
					<path class="st4" d="M261.6,451.9c0,0.2-6.4,0.3-14.3,0.3c-7.9,0-14.3-0.1-14.3-0.3c0-0.2,6.4-0.3,14.3-0.3
						C255.2,451.6,261.6,451.7,261.6,451.9z"/>
				</g>
			</g>
			<g>
				<g>
					<path class="st4" d="M261.6,449.7c0,0.2-6.4,0.3-14.3,0.3c-7.9,0-14.3-0.1-14.3-0.3c0-0.2,6.4-0.3,14.3-0.3
						C255.2,449.4,261.6,449.6,261.6,449.7z"/>
				</g>
			</g>
			<g>
				<g>
					<rect x="292.6" y="448.6" class="st8" width="29.4" height="8.2"/>
				</g>
				<g>
					<g>
						<path class="st7" d="M297.2,456c-0.2,0-0.3-1.5-0.3-3.3c0-1.8,0.1-3.3,0.3-3.3c0.2,0,0.3,1.5,0.3,3.3
							C297.5,454.5,297.4,456,297.2,456z"/>
					</g>
				</g>
				<g>
					<g>
						<path class="st7" d="M301.1,456c-0.2,0-0.3-1.5-0.3-3.3c0-1.8,0.1-3.3,0.3-3.3c0.2,0,0.3,1.5,0.3,3.3
							C301.4,454.5,301.2,456,301.1,456z"/>
					</g>
				</g>
				<g>
					<g>
						<path class="st7" d="M305,456c-0.2,0-0.3-1.5-0.3-3.3c0-1.8,0.1-3.3,0.3-3.3c0.2,0,0.3,1.5,0.3,3.3
							C305.2,454.5,305.1,456,305,456z"/>
					</g>
				</g>
				<g>
					<g>
						<path class="st7" d="M308.8,456c-0.2,0-0.3-1.5-0.3-3.3c0-1.8,0.1-3.3,0.3-3.3c0.2,0,0.3,1.5,0.3,3.3
							C309.1,454.5,309,456,308.8,456z"/>
					</g>
				</g>
				<g>
					<g>
						<path class="st7" d="M312.7,456c-0.2,0-0.3-1.5-0.3-3.3c0-1.8,0.1-3.3,0.3-3.3c0.2,0,0.3,1.5,0.3,3.3
							C313,454.5,312.9,456,312.7,456z"/>
					</g>
				</g>
				<g>
					<g>
						<path class="st7" d="M316.6,456c-0.2,0-0.3-1.5-0.3-3.3c0-1.8,0.1-3.3,0.3-3.3c0.2,0,0.3,1.5,0.3,3.3
							C316.9,454.5,316.8,456,316.6,456z"/>
					</g>
				</g>
			</g>
		</g>
		<g>
			<g>
				<rect x="236.9" y="462.8" class="st6" width="31.1" height="12.3"/>
			</g>
			<g>
				<rect x="235.6" y="460.7" class="st9" width="97.7" height="2.6"/>
			</g>
			<g>
				<rect x="236.1" y="474.5" class="st9" width="97.3" height="2.6"/>
			</g>
			<g>
				<polygon class="st9" points="268,461.3 268.2,476.6 333.4,476.6 333.4,461.3 				"/>
			</g>
			<g>
				<path class="st4" d="M283.9,469c0,2.1-1.6,3.8-3.5,3.8c-1.9,0-3.5-1.7-3.5-3.8c0-2.1,1.6-3.8,3.5-3.8
					C282.3,465.2,283.9,466.9,283.9,469z"/>
				<path class="st7" d="M280.4,473.3c-2.2,0-4.1-2-4.1-4.4c0-2.4,1.8-4.4,4.1-4.4c2.2,0,4.1,2,4.1,4.4
					C284.4,471.4,282.6,473.3,280.4,473.3z M280.4,465.7c-1.6,0-3,1.5-3,3.3c0,1.8,1.3,3.3,3,3.3c1.6,0,3-1.5,3-3.3
					C283.3,467.2,282,465.7,280.4,465.7z"/>
			</g>
			<g>
				<g>
					<path class="st4" d="M265.7,472.1c0,0.2-6.4,0.3-14.3,0.3c-7.9,0-14.3-0.1-14.3-0.3c0-0.2,6.4-0.3,14.3-0.3
						C259.3,471.8,265.7,471.9,265.7,472.1z"/>
				</g>
			</g>
			<g>
				<g>
					<path class="st4" d="M265.7,469.9c0,0.2-6.4,0.3-14.3,0.3c-7.9,0-14.3-0.1-14.3-0.3c0-0.2,6.4-0.3,14.3-0.3
						C259.3,469.7,265.7,469.8,265.7,469.9z"/>
				</g>
			</g>
			<g>
				<g>
					<path class="st4" d="M265.7,467.8c0,0.2-6.4,0.3-14.3,0.3c-7.9,0-14.3-0.1-14.3-0.3c0-0.2,6.4-0.3,14.3-0.3
						C259.3,467.5,265.7,467.6,265.7,467.8z"/>
				</g>
			</g>
			<g>
				<g>
					<path class="st4" d="M265.7,465.7c0,0.2-6.4,0.3-14.3,0.3c-7.9,0-14.3-0.1-14.3-0.3s6.4-0.3,14.3-0.3
						C259.3,465.4,265.7,465.5,265.7,465.7z"/>
				</g>
			</g>
			<g>
				<g>
					<rect x="296.8" y="464.6" class="st8" width="29.4" height="8.2"/>
				</g>
				<g>
					<g>
						<path class="st7" d="M301.3,471.9c-0.2,0-0.3-1.5-0.3-3.3c0-1.8,0.1-3.3,0.3-3.3c0.2,0,0.3,1.5,0.3,3.3
							C301.6,470.5,301.5,471.9,301.3,471.9z"/>
					</g>
				</g>
				<g>
					<g>
						<path class="st7" d="M305.2,471.9c-0.2,0-0.3-1.5-0.3-3.3c0-1.8,0.1-3.3,0.3-3.3s0.3,1.5,0.3,3.3
							C305.5,470.5,305.4,471.9,305.2,471.9z"/>
					</g>
				</g>
				<g>
					<g>
						<path class="st7" d="M309.1,471.9c-0.2,0-0.3-1.5-0.3-3.3c0-1.8,0.1-3.3,0.3-3.3c0.2,0,0.3,1.5,0.3,3.3
							C309.4,470.5,309.3,471.9,309.1,471.9z"/>
					</g>
				</g>
				<g>
					<g>
						<path class="st7" d="M313,471.9c-0.2,0-0.3-1.5-0.3-3.3c0-1.8,0.1-3.3,0.3-3.3c0.2,0,0.3,1.5,0.3,3.3
							C313.3,470.5,313.1,471.9,313,471.9z"/>
					</g>
				</g>
				<g>
					<g>
						<path class="st7" d="M316.9,471.9c-0.2,0-0.3-1.5-0.3-3.3c0-1.8,0.1-3.3,0.3-3.3c0.2,0,0.3,1.5,0.3,3.3
							C317.1,470.5,317,471.9,316.9,471.9z"/>
					</g>
				</g>
				<g>
					<g>
						<path class="st7" d="M320.7,471.9c-0.2,0-0.3-1.5-0.3-3.3c0-1.8,0.1-3.3,0.3-3.3c0.2,0,0.3,1.5,0.3,3.3
							C321,470.5,320.9,471.9,320.7,471.9z"/>
					</g>
				</g>
			</g>
		</g>
	</g>
</g>
<g id="Speech_Bubble">
	<g>
		<g>
			<g>
				<g>
					<g>
						<g>
							<g>
								<g>
									<g>
										<g>
											<g>
												<g>
													<g>
														<g>
															<g>
																<g>
																	<g>
																		<path class="st8" d="M204.5,168.9l-8.1-1.6c-5.4,3-11.8,4.5-18.5,3.8c-15.9-1.6-28.1-15.3-28-31.3
																			c0.1-18.4,16.1-32.8,34.6-30.9c15.7,1.6,27.9,15,28,30.8c0.1,7.8-2.7,14.9-7.4,20.4l0,0L204.5,168.9z"/>
																	</g>
																</g>
															</g>
														</g>
													</g>
													<g>
														<g>
															<g>
																<g>
																	<g>
																		<g>
																			<path class="st4" d="M204.5,168.9c0,0,0-0.2,0-0.6c0-0.4,0.1-1,0.1-1.7c0.1-1.5,0.2-3.7,0.4-6.5l0.2,0.1
																				c0,0,0,0,0,0c-0.1,0-0.1,0-0.2,0c0,0,0-0.1,0-0.1c2.5-3,5.3-7.4,6.6-13.5c0.6-3,0.9-6.3,0.5-9.9
																				c-0.4-3.5-1.4-7.2-3.2-10.7c-1.8-3.5-4.4-6.9-7.7-9.7c-3.3-2.8-7.3-5.1-11.8-6.2c-4.5-1.2-9.4-1.4-14.2-0.5
																				c-4.8,0.9-9.5,3.1-13.4,6.3c-2,1.6-3.8,3.5-5.3,5.5c-0.7,1-1.4,2.1-2.1,3.2l-0.9,1.7L153,127l-0.3,0.9
																				c-1.9,4.6-2.7,9.5-2.4,14.1c0.3,4.7,1.7,9.1,3.8,12.9c2.1,3.8,4.9,7,8.1,9.5c3.1,2.5,6.6,4.2,10,5.2
																				c0.9,0.2,1.7,0.4,2.5,0.7c0.8,0.2,1.7,0.3,2.5,0.4c1.6,0.3,3.2,0.3,4.8,0.3c6.2-0.1,11.1-2.1,14.4-3.9
																				c0,0,0.1,0,0.1,0c2.6,0.5,4.6,1,5.9,1.3c0.7,0.1,1.2,0.3,1.6,0.3C204.3,168.8,204.5,168.9,204.5,168.9
																				s-0.2,0-0.5-0.1c-0.4-0.1-0.9-0.2-1.5-0.3c-1.4-0.3-3.4-0.6-6-1.1l0.1,0c-3.3,1.9-8.3,3.9-14.5,4.1
																				c-1.6,0-3.2,0-4.8-0.3c-0.8-0.1-1.7-0.2-2.5-0.4c-0.8-0.2-1.7-0.4-2.6-0.6c-3.5-1-6.9-2.8-10.2-5.3
																				c-3.2-2.5-6.1-5.7-8.2-9.6c-2.1-3.9-3.7-8.4-3.9-13.1c-0.3-4.8,0.4-9.7,2.4-14.4l0.4-0.9l0.4-0.8
																				c0.3-0.6,0.6-1.1,0.9-1.7c0.6-1.1,1.4-2.2,2.1-3.2c1.6-2,3.3-4,5.4-5.6c4-3.3,8.8-5.5,13.7-6.4
																				c4.9-0.9,9.9-0.7,14.4,0.5c4.6,1.2,8.6,3.5,12,6.4c3.4,2.8,6,6.3,7.8,9.8c1.8,3.6,2.8,7.3,3.2,10.9
																				c0.3,3.6,0.1,7-0.6,10c-1.3,6.1-4.2,10.6-6.7,13.5L205,160c0,0,0,0,0,0c0.1,0,0.1,0,0.2,0c0,0,0,0,0,0.1
																				c-0.2,2.8-0.4,5-0.5,6.6c-0.1,0.7-0.1,1.3-0.1,1.7C204.5,168.7,204.5,168.9,204.5,168.9z"/>
																		</g>
																	</g>
																</g>
															</g>
														</g>
													</g>
												</g>
											</g>
										</g>
									</g>
								</g>
							</g>
						</g>
					</g>
				</g>
			</g>
		</g>
		<g>
			<g>
				<g>
					<g>
						<g>
							<g>
								<g>
									<g>
										<g>
											<g>
												<g>
													<g>
														<g>
															<polygon class="st9" points="167.3,142 171.2,137.8 179.3,144.5 194.1,129.2 198,133.1 178.9,152.3 															
																"/>
														</g>
													</g>
												</g>
											</g>
										</g>
									</g>
								</g>
							</g>
						</g>
					</g>
				</g>
			</g>
		</g>
	</g>
</g>
<g id="Character">
	<g>
		<g>
			<path class="st9" d="M421.7,116.3h-25.5L322,161c0.3,0.4,9,6.8,20.5,14.9L234.9,374l-90-39.8L65.1,477.6h43.6l54.9-100.3
				l82.6,38.3l35,4.2l94.8-219.8c11.9,8.4,21.1,14.9,21.1,14.9h25.5c0,0-7.4-62.3-7.4-62.8C415.2,151.5,421.7,116.3,421.7,116.3z"/>
			<path class="st10" d="M421.7,116.3h-25.5L322,161c0.3,0.4,9,6.8,20.5,14.9L234.9,374l-90-39.8L65.1,477.6h43.6l54.9-100.3
				l82.6,38.3l35,4.2l94.8-219.8c11.9,8.4,21.1,14.9,21.1,14.9h25.5c0,0-7.4-62.3-7.4-62.8C415.2,151.5,421.7,116.3,421.7,116.3z"/>
			<polygon class="st9" points="90.9,477.6 171,333 260.7,374 376.4,161 410.8,179.1 281.3,419.7 189.4,377.2 134.5,477.6 			"/>
			<path class="st9" d="M347.4,161c0.8,1.2,75.2,53.8,75.2,53.8l-0.9-98.5L347.4,161z"/>
			<g>
				<path class="st4" d="M347.4,161c0,0.1-5.7,0.3-12.7,0.3c-7,0-12.7-0.1-12.7-0.3s5.7-0.3,12.7-0.3
					C341.7,160.8,347.4,160.9,347.4,161z"/>
			</g>
			<g>
				<path class="st4" d="M367.3,176.4c0,0.1-5.7,0.3-12.7,0.3c-7,0-12.7-0.1-12.7-0.3c0-0.1,5.7-0.3,12.7-0.3
					C361.6,176.1,367.3,176.2,367.3,176.4z"/>
			</g>
		</g>
		<g>
			<g>
				<g>
					<path class="st11" d="M176.1,265.6c0,0-1.5,0.7-1.8-1.4c-0.2-2.1,4.1-6.4,5.4-7.7c1.4-1.4,3.3-1.1,5.1-0.7
						c1.7,0.4,8.9,1.1,11.2,2.6c2.4,1.5,6,9.1,6.7,9.5c0.8,0.4,23,1.5,23,1.5l-1,18.2c0,0-21.9-4.2-26.2-6.9c-4.3-2.7-3.8-3.8-5-6.3
						c-1.2-2.5-2.6-5.2-2.6-5.2l-2-0.3l-3.3,1.8c0,0-0.4,4.6-3.6,4.5l-1.6-0.8c0,0-1.1,1.2-2.3-0.7s-1-2.3-1-2.3s-1.3,1.6-2.6-0.4
						C173.4,269.2,176.1,265.6,176.1,265.6z"/>
					<g>
						<path class="st12" d="M200.1,273.3c0,0-0.1,0-0.2,0.1c-0.2,0-0.4,0.1-0.7,0.1c-0.6,0-1.6-0.1-2.6-0.7c-1-0.6-2.1-1.6-2.8-3.1
							c-0.7-1.4-1.1-3.2-1.2-5.1l0.4,0.2c-1.5,0.7-3.2,1.1-5,1.2c-1.3,0-2.5-0.1-3.7-0.4c-0.6-0.2-1.2-0.2-1.7-0.8
							c-0.3-0.3-0.3-0.8-0.1-1.1c0.2-0.3,0.5-0.4,0.8-0.5c2-0.8,3.8-1.4,5.4-1.9c1.6-0.5,2.8-0.8,3.7-1c0.9-0.2,1.4-0.3,1.4-0.2
							c0,0-0.5,0.2-1.3,0.4c-0.9,0.3-2.1,0.6-3.7,1.2c-1.5,0.5-3.4,1.2-5.3,2c-0.2,0.1-0.5,0.2-0.6,0.4c-0.1,0.1-0.1,0.3,0,0.5
							c0.3,0.3,0.9,0.5,1.4,0.6c1.1,0.3,2.3,0.4,3.5,0.4c1.7-0.1,3.4-0.5,4.8-1.1l0.3-0.2l0,0.4c0.1,1.8,0.4,3.6,1,5
							c0.6,1.4,1.6,2.4,2.6,3c1,0.6,1.9,0.8,2.5,0.8C199.8,273.3,200.1,273.3,200.1,273.3z"/>
					</g>
					<g>
						<path class="st12" d="M188.8,260.8c0,0.1-0.8,0.5-2.1,0.4c-0.7,0-1.4-0.1-2.3-0.1c-0.8,0-1.6,0.4-2.3,1.1
							c-1.4,1.5-3,2.5-4.2,3c-1.2,0.5-2.1,0.6-2.1,0.6c0-0.1,0.8-0.3,1.9-0.9c1.2-0.6,2.6-1.6,4-3c0.3-0.4,0.7-0.7,1.2-0.9
							c0.5-0.2,1-0.3,1.4-0.3c0.9,0,1.7,0.1,2.3,0.2C188,261,188.8,260.7,188.8,260.8z"/>
					</g>
					<g>
						<path class="st12" d="M184.2,265.7c0.1,0-0.8,2.1-2.8,3.8c-2,1.8-4.2,2.3-4.2,2.2c-0.1-0.1,1.9-0.9,3.9-2.6
							C183,267.4,184.1,265.6,184.2,265.7z"/>
					</g>
					<g>
						<path class="st12" d="M185,268.5c0.1,0-0.2,1.8-1.5,3.6c-1.3,1.8-2.9,2.6-3,2.5c-0.1-0.1,1.3-1.1,2.5-2.8
							C184.4,270.1,184.9,268.4,185,268.5z"/>
					</g>
				</g>
				<polygon class="st7" points="252.3,230 232.4,266 201.4,265.4 199.1,284 231,291.8 244.2,277.4 				"/>
				<g>
					<path class="st4" d="M234.9,272.1c-0.2,0-0.3-1.5-1-3.1c-0.7-1.7-1.6-2.9-1.4-3c0.1-0.1,1.2,1,1.9,2.8
						C235,270.5,235,272.1,234.9,272.1z"/>
				</g>
			</g>
			<g>
				<g>
					<g>
						<g>
							<g>
								<g>
									<g>
										<g>
											<path class="st4" d="M259.9,166.4c-2.5,0.3-5.1-1.5-5.7-3.9c-0.6-2.5,0.9-5.3,3.4-6.1c-1.6-1.6-2-4.2-1-6.2
												c1-2,3.4-3.3,5.6-3c0.1-2.2,1.3-4.4,3.3-5.5c1.9-1.1,4.4-1.1,6.4,0c2.4-2.1,6.4-2.3,8.9-0.3c2.1-0.4,4.5,0.7,5.6,2.6
												c1,1.9,0.7,4.5-0.9,6.1"/>
										</g>
									</g>
								</g>
							</g>
						</g>
						<g>
							<g>
								<g>
									<g>
										<path class="st11" d="M281.8,146.4l-1.1,0c-11.5,0.2-20.9,9.2-21.6,20.7c-0.7,10.7-1.2,22.4-1.1,28.1
											c0.4,11.8,12.2,13.4,12.2,13.4l-0.7,14.2l1.4,10.8l27.3-12.3l1.5-51.5C300.6,157.6,294.1,146.9,281.8,146.4z"/>
									</g>
								</g>
								<g>
									<g>
										<g>
											<g>
												<g>
													<g>
														<g>
															<g>
																<path class="st12" d="M270.2,208.7c0,0,7.6,0.3,15.4-4.8c0,0-3.7,9.1-15.5,8.3L270.2,208.7z"/>
															</g>
														</g>
													</g>
												</g>
											</g>
										</g>
									</g>
								</g>
								<g>
									<g>
										<g>
											<g>
												<g>
													<g>
														<g>
															<g>
																<g>
																	<g>
																		<g>
																			<path class="st4" d="M263,179.2c0,0.9,0.7,1.6,1.7,1.7c0.9,0,1.7-0.7,1.7-1.6c0-0.9-0.7-1.6-1.7-1.7
																				C263.7,177.6,263,178.3,263,179.2z"/>
																		</g>
																	</g>
																</g>
															</g>
														</g>
													</g>
												</g>
											</g>
										</g>
									</g>
								</g>
								<g>
									<g>
										<g>
											<g>
												<g>
													<g>
														<g>
															<g>
																<g>
																	<g>
																		<g>
																			<g>
																				<path class="st4" d="M261.8,172.8c0.2,0.2,1.5-0.8,3.3-0.8c1.8-0.1,3.2,0.9,3.4,0.6c0.1-0.1-0.1-0.5-0.7-0.9
																					c-0.6-0.4-1.6-0.8-2.7-0.8c-1.1,0-2.1,0.5-2.6,0.9C261.9,172.3,261.7,172.7,261.8,172.8z"/>
																			</g>
																		</g>
																	</g>
																</g>
															</g>
														</g>
													</g>
												</g>
											</g>
										</g>
									</g>
								</g>
								<g>
									<g>
										<g>
											<g>
												<g>
													<g>
														<g>
															<g>
																<g>
																	<g>
																		<g>
																			<path class="st4" d="M278.3,178.8c0,0.9,0.7,1.6,1.7,1.7c0.9,0,1.7-0.7,1.7-1.6c0-0.9-0.7-1.6-1.7-1.7
																				C279.1,177.2,278.4,177.9,278.3,178.8z"/>
																		</g>
																	</g>
																</g>
															</g>
														</g>
													</g>
												</g>
											</g>
										</g>
									</g>
								</g>
								<g>
									<g>
										<g>
											<g>
												<g>
													<g>
														<g>
															<g>
																<g>
																	<g>
																		<g>
																			<g>
																				<path class="st4" d="M279.6,172.8c0.2,0.2,1.5-0.8,3.3-0.8c1.8-0.1,3.2,0.9,3.4,0.6c0.1-0.1-0.1-0.5-0.7-0.9
																					c-0.6-0.4-1.6-0.8-2.7-0.8c-1.1,0-2.1,0.5-2.6,0.9C279.7,172.3,279.5,172.7,279.6,172.8z"/>
																			</g>
																		</g>
																	</g>
																</g>
															</g>
														</g>
													</g>
												</g>
											</g>
										</g>
									</g>
								</g>
								<g>
									<g>
										<g>
											<g>
												<g>
													<g>
														<g>
															<g>
																<g>
																	<g>
																		<g>
																			<path class="st4" d="M273.3,186.4c0-0.1-1.1-0.3-3-0.5c-0.5,0-0.9-0.1-1-0.4c-0.1-0.3,0.1-0.8,0.3-1.4
																				c0.4-1.1,0.8-2.3,1.3-3.6c1.8-5.1,3.1-9.2,2.9-9.3c-0.2-0.1-1.8,4-3.6,9c-0.4,1.2-0.9,2.4-1.2,3.6
																				c-0.2,0.5-0.5,1.1-0.2,1.8c0.1,0.3,0.5,0.6,0.8,0.7c0.3,0.1,0.6,0.1,0.8,0.1
																				C272.2,186.5,273.3,186.5,273.3,186.4z"/>
																		</g>
																	</g>
																</g>
															</g>
														</g>
													</g>
												</g>
											</g>
										</g>
									</g>
								</g>
								<g>
									<g>
										<g>
											<g>
												<g>
													<g>
														<g>
															<path class="st4" d="M277.9,165.9c0.2,0.5,1.8-0.1,3.7-0.2c1.9-0.1,3.5,0.2,3.7-0.3c0.1-0.2-0.3-0.6-1-1
																c-0.7-0.4-1.7-0.6-2.9-0.5c-1.1,0.1-2.1,0.5-2.8,0.9C278.1,165.2,277.8,165.7,277.9,165.9z"/>
														</g>
													</g>
												</g>
											</g>
										</g>
									</g>
								</g>
								<g>
									<g>
										<g>
											<g>
												<g>
													<g>
														<g>
															<path class="st4" d="M261.6,165.4c0.4,0.4,1.9-0.1,3.7-0.1c1.8-0.1,3.3,0.2,3.7-0.2c0.1-0.2-0.1-0.6-0.8-1
																c-0.7-0.4-1.8-0.7-3-0.6c-1.2,0.1-2.3,0.5-2.9,0.9C261.6,164.7,261.4,165.2,261.6,165.4z"/>
														</g>
													</g>
												</g>
											</g>
										</g>
									</g>
								</g>
								<g>
									<g>
										<g>
											<g>
												<g>
													<g>
														<path class="st4" d="M260.2,161.7c0,0,3-7.5,6.5-9.3c4.3-2.2,6.2,2.5,10.3,1.3c4.1-1.2,8.2-3.3,12.4-0.2
															c4.7,3.4,2.6,5.9,2.9,11.1c1.6,21.2,5.6,27.2,6.5,17.1c0.1-1.1,3.1-2,3.5-6.7c0.5-6,0.6-13.3-0.9-17.6
															c-1.2-3.6-3.3-6-7-8.7c-5.9-4.2-13.9-4.1-19.3-3.5C269.8,146,259.5,152.4,260.2,161.7z"/>
													</g>
												</g>
											</g>
										</g>
									</g>
								</g>
								<g>
									<g>
										<g>
											<g>
												<g>
													<g>
														<path class="st11" d="M298.1,181.4c0-1.8,1.6-3.3,3.4-3.2c2.2,0.2,4.7,1.4,4.6,5.9c-0.1,8.1-8.2,6.3-8.2,6.1
															C297.9,190.1,298,184.8,298.1,181.4z"/>
													</g>
												</g>
											</g>
										</g>
									</g>
								</g>
								<g>
									<g>
										<g>
											<g>
												<g>
													<g>
														<path class="st12" d="M299.7,187.3c0,0,0.1,0.1,0.4,0.2c0.2,0.1,0.6,0.2,1.1,0c0.9-0.3,1.6-1.6,1.7-3.1
															c0-0.7-0.1-1.4-0.4-2c-0.2-0.6-0.6-1-1-1.1c-0.4-0.1-0.7,0.1-0.8,0.4c-0.1,0.2-0.1,0.4-0.1,0.4c0,0-0.2-0.1-0.1-0.5
															c0-0.2,0.1-0.3,0.3-0.5c0.2-0.2,0.5-0.2,0.8-0.2c0.6,0.1,1.2,0.6,1.5,1.3c0.3,0.6,0.5,1.4,0.5,2.3
															c-0.1,1.6-0.9,3.1-2.1,3.5c-0.6,0.1-1,0-1.3-0.2C299.7,187.5,299.7,187.3,299.7,187.3z"/>
													</g>
												</g>
											</g>
										</g>
									</g>
								</g>
							</g>
							<g>
								<g>
									<g>
										<g>
											<g>
												<path class="st4" d="M297.6,165.8c-1,0.7-2.1,1.5-3.4,1.6c-1.3,0.1-2.7-0.5-3-1.8c-0.1-0.6,0-1.2-0.4-1.6
													c-0.5-0.5-1.3-0.3-1.9-0.2c-2.3,0.3-5.1-2.2-5.8-4.5c-0.6,0.9-1.9,1.2-2.8,0.6c-0.9-0.6-1.3-0.9-2-1.7
													c-0.7-0.8-1.7-1.5-2.8-1.3c-0.6,0.1-1.1,0.5-1.7,0.4c-1.1-0.1-1.6-1.3-1.8-2.4c-0.2-1-0.3-2.3-1.2-2.8
													c-0.8-0.5-1.9-0.2-2.9,0c-1,0.2-2.2,0-2.5-1c-0.1-0.5,0.1-1,0.3-1.5c1.2-2,3.9-2.9,6.1-2.1c0.7-2.7,3.2-4.8,6-5.2
													c2.8-0.3,5.7,1.1,7,3.5c1.7-1.6,4.1-2.3,6.4-1.8c2.3,0.5,4.2,2.1,5.2,4.2c2-0.6,4.2,0.2,5.5,1.7
													c1.3,1.6,1.5,3.9,0.5,5.7c1.5,0.8,2.7,2.2,2.8,3.9c0.1,1.7-1.5,3.4-3.2,3c0.7,1.3,0.2,3.1-1.1,3.8
													c-1.2,0.8-3.1,0.4-3.9-0.8"/>
											</g>
										</g>
									</g>
								</g>
							</g>
							<g>
								<g>
									<g>
										<g>
											<g>
												<g>
													<path class="st5" d="M271.4,149.9c0,0,0,0.1,0,0.1c0,0.1,0,0.2,0.1,0.4c0.1,0.4,0.2,0.9,0.6,1.5c0.4,0.6,1,1.3,1.8,1.9
														c0.9,0.6,2,1,3.3,0.9l-0.1-0.2c-0.2,0.7-0.2,1.5,0.2,2.2c0.3,0.7,0.9,1.3,1.4,2c0.3,0.3,0.5,0.6,0.9,0.9
														c0.4,0.3,0.8,0.4,1.3,0.5c0.9,0.1,1.9-0.2,2.6-1l-0.3-0.1c0.2,1.6,1.2,3.2,2.7,4.1c0.8,0.5,1.7,0.9,2.7,0.8
														c0.9,0,1.8-0.3,2.6-0.6l-0.2-0.1c0.5,1,1.1,1.8,2,2.5c0.8,0.6,1.9,1,2.8,0.7c1.9-0.4,3.1-2.1,3.4-3.5l-0.2,0.1
														c1,0.5,2,0.5,2.8,0.4c0.8-0.2,1.5-0.5,1.9-0.9c0.5-0.4,0.7-0.7,0.9-1c0.1-0.3,0.2-0.4,0.2-0.4c0,0-0.3,0.6-1.2,1.3
														c-0.5,0.3-1.1,0.7-1.9,0.8c-0.8,0.1-1.7,0.1-2.6-0.4l-0.2-0.1l0,0.2c-0.2,1.4-1.4,2.9-3.2,3.3
														c-0.9,0.2-1.8-0.1-2.6-0.7c-0.8-0.6-1.4-1.4-1.8-2.3l-0.1-0.1l-0.2,0.1c-0.8,0.3-1.6,0.6-2.5,0.6
														c-0.9,0-1.7-0.2-2.5-0.8c-1.4-0.9-2.3-2.4-2.5-3.9l-0.1-0.4l-0.2,0.3c-0.5,0.7-1.5,1-2.3,0.9c-0.4,0-0.8-0.2-1.1-0.4
														c-0.3-0.2-0.6-0.6-0.9-0.9c-0.6-0.6-1.1-1.2-1.4-1.9c-0.3-0.7-0.4-1.4-0.2-2l0.1-0.2l-0.2,0c-1.2,0.1-2.4-0.3-3.2-0.8
														c-0.9-0.5-1.4-1.2-1.8-1.8C271.4,150.7,271.4,149.9,271.4,149.9z"/>
												</g>
											</g>
										</g>
									</g>
								</g>
							</g>
						</g>
					</g>
				</g>
				<g>
					<g>
						<g>
							<g>
								<g>
									<g>
										<g>
											<g>
												<g>
													<g>
														<g>
															<g>
																<g>
																	<path class="st4" d="M273.8,192.6c0-0.3,2,0.1,3.8-1.4c1.7-1.4,1.9-3.6,2.2-3.6c0.1,0,0.3,0.5,0.2,1.4
																		c-0.1,0.9-0.7,2.1-1.7,3c-1.1,0.9-2.3,1.1-3.1,1C274.2,193.1,273.8,192.8,273.8,192.6z"/>
																</g>
															</g>
														</g>
													</g>
												</g>
											</g>
										</g>
									</g>
								</g>
							</g>
						</g>
					</g>
				</g>
			</g>
			<g>
				<path class="st7" d="M216.2,307l15.4-17l12.9-38.9c2.6-6.7,4.9-15.3,8.1-21.7c1.6-3.1,4.2-5.6,7.4-7.1l5.5-2.4l3.3-5.2
					c-1.9,11.8,14.6,13.2,32.2-1.4c0,0,5.8,3.9,14,10.7c3.6,3,6.8,6.2,8.2,11.1c2.5,8.9-8.1,35.2-19.6,60
					c-3.4,7.4-19.8,40.6-19.8,40.6l-5.9,4.3c0,0-52.1-15.8-56.8-24.5C216.2,307,216.2,307,216.2,307z"/>
				<g>
					<path class="st4" d="M224.8,296.9c0,0,0.1-0.2,0.4-0.5c0.3-0.4,0.8-0.8,1.3-1.4c1.2-1.2,2.9-3,5-5.1l0,0.1
						c1-3,2.1-6.5,3.4-10.4c1.3-3.9,2.7-8.3,4-13c2.6-9.1,5.1-17.3,7.4-23.1c1.1-2.9,2.2-5.2,2.9-6.8c0.4-0.7,0.7-1.3,0.9-1.8
						c0.2-0.4,0.3-0.6,0.3-0.6s-0.1,0.2-0.2,0.7c-0.2,0.5-0.5,1.1-0.8,1.8c-0.7,1.6-1.7,3.9-2.7,6.8c-2.2,5.8-4.6,14-7.3,23.1
						c-1.4,4.6-2.7,9-4.1,13c-1.3,3.9-2.5,7.5-3.5,10.4l0,0l0,0c-2.1,2.1-3.8,3.8-5.1,5c-0.6,0.5-1,1-1.4,1.3
						C225,296.8,224.8,296.9,224.8,296.9z"/>
				</g>
				<g>
					<g>
						<polygon class="st9" points="272.6,232.1 254.6,306.1 235.9,315.4 235.9,297.3 268.3,230.5 						"/>
					</g>
				</g>
				<g class="st10">
					<path d="M238.2,299.4c5.1,1.9,9.7,5,14.2,8c4.5,3.1,9,6.2,14,8.4c5,2.2,10.6,3.3,16,2.2c5.3-1.1,10.3-4.8,12.1-9.9L238.2,299.4
						z"/>
				</g>
				<polygon class="st7" points="265.4,219.7 270,212.7 271.9,222.4 276.4,217.2 299.2,206.5 303.2,215 278,229.9 271,229.3 
					265.9,223.3 				"/>
				<g>
					<path class="st4" d="M265.4,219.7c0.1,0,0.2,0.5,0.3,1.5c0.2,1.1,0.5,2.3,0.8,3.7l-0.5-0.1c0.4-0.7,0.8-1.5,1.2-2.3
						c0.7-1.2,1.3-2.4,1.9-3.4l0.2-0.4l0.2,0.5c0.4,1.2,0.6,2.1,0.8,2.8c0.2,0.7,0.3,1.1,0.2,1.1c0,0-0.2-0.3-0.5-1
						c-0.3-0.7-0.5-1.6-1-2.7l0.4,0c-0.6,1-1.2,2.2-1.9,3.4c-0.4,0.8-0.9,1.5-1.3,2.3l-0.3,0.6l-0.1-0.7
						C265.5,222,265.3,219.8,265.4,219.7z"/>
				</g>
				<path class="st9" d="M273.1,223.3l-2.9-0.4c-0.8,0.9-2.7,2.7-3.5,3.6l0,0.1c0.3,1.9,0.7,3.9,1,5.8c1.6-0.1,3.3,0.1,4.8,0.4
					c1-1.7,1.7-3,2.7-4.7L273.1,223.3z"/>
				<g>
					<path class="st4" d="M278.1,332.3c-0.1,0.1-0.9-0.9-2.3-2.3c-1.4-1.4-3.5-3.3-5.8-5.2c-2.4-1.9-4.7-3.5-6.4-4.6
						c-1.7-1.1-2.8-1.7-2.7-1.8c0,0,0.3,0.1,0.8,0.3c0.5,0.2,1.2,0.6,2.1,1.1c1.7,1,4.1,2.5,6.5,4.5c2.4,1.9,4.4,3.9,5.8,5.4
						c0.7,0.7,1.2,1.4,1.6,1.8C277.9,332.1,278.1,332.3,278.1,332.3z"/>
				</g>
				<polygon class="st9" points="273.3,223.9 276.6,222.3 277.6,228 275,228.2 				"/>
				<polygon class="st10" points="276.1,220.1 276.1,232.8 299.9,217.1 277.8,230 				"/>
				<g>
					<path class="st4" d="M303.2,215c0,0-0.5,0.4-1.4,1c-0.9,0.6-2.3,1.5-4,2.5c-3.4,2.1-8.3,4.6-13.5,7.7c-2.2,1.3-4.3,2.6-6.2,3.9
						l-0.3,0.2l-0.1-0.4c-0.7-3.9-1.3-7.3-1.8-9.8l0.3,0.1c-1,1-1.9,1.7-2.5,2.3c-0.6,0.5-0.9,0.8-0.9,0.8c0,0,0.3-0.3,0.8-0.9
						c0.6-0.6,1.4-1.4,2.4-2.4l0.2-0.2l0.1,0.3c0.5,2.5,1.2,5.9,2,9.8l-0.4-0.2c1.9-1.3,4-2.6,6.2-3.9c5.3-3,10.2-5.5,13.6-7.5
						c1.7-1,3.1-1.8,4-2.4C302.6,215.3,303.2,214.9,303.2,215z"/>
				</g>
				<polygon class="st9" points="270.2,224 268.9,220.8 266.7,224.8 267.7,226.3 				"/>
				<g>
					<path class="st4" d="M273.9,223.6c0.1,0.1-1.5,1.9-3.2,4.4c-1.7,2.4-2.9,4.6-3,4.5c-0.1-0.1,0.9-2.3,2.6-4.8
						C272,225.2,273.8,223.5,273.9,223.6z"/>
				</g>
				<g>
					<path class="st4" d="M272.3,232.9c0,0.1-1.1,0-2.5-0.2c-1.3-0.2-2.4-0.4-2.4-0.6c0-0.1,1.1-0.2,2.5,0.1
						C271.3,232.4,272.3,232.8,272.3,232.9z"/>
				</g>
			</g>
			<g>
				<g>
					<path class="st5" d="M152.6,278.9L152.6,278.9l-15-42.5c-0.3-0.9,0.3-1.9,1.2-2.1l34.7-9.1c0.9-0.2,1.7,0.3,2,1.1l15.8,47.8
						l49,32.2l-2.4,2.4l-12.5-3.1L152.6,278.9z"/>
					<g>
						<path class="st4" d="M237.9,308.8c0,0-0.1,0-0.3-0.1c-0.2-0.1-0.4-0.3-0.7-0.5c-0.7-0.4-1.6-1-2.7-1.8
							c-2.4-1.6-5.8-3.8-9.9-6.6c-8.4-5.6-19.9-13.4-32.7-22c-0.9-0.6-1.8-1.2-2.6-1.8l-0.1,0l0-0.1c-4.6-13.9-8.7-26.4-11.7-35.4
							c-1.5-4.5-2.6-8.1-3.5-10.6c-0.4-1.2-0.7-2.2-0.9-2.9c-0.1-0.3-0.2-0.6-0.2-0.8c0-0.2-0.1-0.3-0.1-0.3c0,0,0,0.1,0.1,0.2
							c0.1,0.2,0.2,0.4,0.3,0.7c0.2,0.7,0.6,1.6,1,2.9c0.9,2.5,2.1,6.1,3.6,10.6c3,9,7.2,21.5,11.9,35.4l-0.1-0.1
							c0.8,0.6,1.7,1.2,2.6,1.8c12.7,8.6,24.2,16.4,32.6,22.1c4.1,2.8,7.5,5.1,9.8,6.8c1.1,0.8,2,1.4,2.7,1.9
							c0.3,0.2,0.5,0.4,0.7,0.5C237.8,308.8,237.9,308.8,237.9,308.8z"/>
					</g>
					<g>
						<path class="st4" d="M158.6,278c0-0.1,6.8-0.6,15.2-1c8.4-0.4,15.3-0.6,15.3-0.5c0,0.1-6.8,0.6-15.2,1
							C165.4,277.9,158.6,278.1,158.6,278z"/>
					</g>
				</g>
				<path class="st7" d="M164.1,253.8c0.6,1.9,0.3,3.7-0.8,4.1c-1,0.3-2.3-1-2.9-2.9c-0.6-1.9-0.3-3.7,0.8-4.1
					C162.2,250.5,163.5,251.8,164.1,253.8z"/>
			</g>
			<g>
				<g>
					<path class="st11" d="M206.9,268.9c0,0-1.3,0.6-1.5-1.4c-0.2-1.8,4.2-4.5,5.9-5.6c1.6-1,5.1-0.3,6.9-0.1c2.4,0.3,8,2.8,9.7,4.9
						c1.8,2.2,3,7.7,3.7,8.2c0.7,0.5,22.8,9.2,22.8,9.2l-5,17.6c0,0-20.4-9-24-12.6c-3.6-3.6-2.8-4.5-3.4-7.3
						c-0.6-2.7-1.3-5.6-1.3-5.6l-1.9-0.8l-3.6,1c0,0-0.4,1.4-1.4,2.4c-1.1,1.3-3.1,1.2-4.2-0.1l0,0c0,0-1.8,0.6-2.7-1.4
						c-0.4-0.8-0.1-2.1-0.1-2.1s-1.6,0.3-1.7-1.7C205,271.4,206.9,268.9,206.9,268.9z"/>
					<g>
						<path class="st12" d="M218.4,271.2c0,0.1-0.7,0.1-1.9,0.3c-1.1,0.2-2.7,0.8-4,2c-1.3,1.2-2.1,2.6-2.5,3.7
							c-0.4,1.1-0.5,1.8-0.5,1.8c-0.1,0-0.1-0.8,0.2-1.9c0.3-1.2,1.1-2.7,2.5-4c1.4-1.2,3.1-1.8,4.3-2
							C217.7,271,218.4,271.2,218.4,271.2z"/>
					</g>
					<g>
						<path class="st12" d="M216.8,267.5c0,0.1-0.8,0-2,0.2c-1.2,0.3-2.8,1-4.2,2.4c-1.4,1.3-2.3,2.9-3,3.9
							c-0.7,1.1-1.1,1.8-1.2,1.7c-0.1,0,0.2-0.8,0.8-1.9c0.6-1.1,1.5-2.7,2.9-4.1c1.4-1.4,3.2-2.2,4.5-2.4
							C216,267.1,216.8,267.4,216.8,267.5z"/>
					</g>
					<g>
						<path class="st12" d="M216.4,263.3c0,0.1-0.7,0-1.8,0.2c-1.1,0.2-2.5,0.7-3.8,1.7c-1.3,1-2.4,2.1-3.1,2.9
							c-0.8,0.8-1.2,1.3-1.3,1.3c-0.1,0,0.3-0.6,1-1.5c0.7-0.9,1.7-2.1,3.1-3.1c1.4-1,2.9-1.6,4.1-1.7
							C215.8,263,216.5,263.3,216.4,263.3z"/>
					</g>
				</g>
				<g>
					<g>
						<path class="st7" d="M311.1,223.4c6.2,1.2,10.3,6.7,11.6,13.5c1.8,9.7-20.5,55.6-24.6,65.6c-4.4,10.6-14,12.9-19.7,12.7
							c-5.6-0.1-45.1-18.6-45.1-18.6l5.8-20l35.1,10.4L288,248"/>
						<g>
							<path class="st4" d="M288,248c0,0-0.1,0.2-0.2,0.7c-0.2,0.5-0.4,1.2-0.7,2c-0.6,1.8-1.5,4.4-2.7,7.8
								c-2.4,6.8-5.8,16.6-10.1,28.6l-0.1,0.2l-0.2-0.1c-10.1-3-22-6.5-35.1-10.4l0.3-0.2c-1.8,6.4-3.8,13.1-5.8,20l-0.1-0.3
								c9.2,4.3,19.1,8.8,29.3,13.1c4.2,1.7,8.3,3.5,12.5,4.8l1.6,0.5c0.5,0.1,1,0.2,1.6,0.3c1.1,0,2.2,0,3.2-0.2
								c2.1-0.3,4.2-0.9,6.1-1.7c3.8-1.7,7-4.7,9-8.3c1-1.8,1.7-3.7,2.5-5.5c0.8-1.8,1.6-3.6,2.4-5.4c6.5-14.3,12.2-27.2,16.3-38.3
								c2-5.6,3.8-10.7,4.5-15.3c0.2-1.2,0.2-2.3,0.1-3.4c-0.2-1.1-0.4-2.1-0.8-3c-0.6-1.9-1.5-3.6-2.4-4.9
								c-1.9-2.7-4.2-4.1-5.7-4.8c-0.8-0.3-1.4-0.5-1.9-0.6c-0.4-0.1-0.7-0.2-0.7-0.2s0.2,0,0.7,0.1c0.4,0.1,1.1,0.3,1.9,0.6
								c1.6,0.7,3.9,2,5.9,4.8c1,1.4,1.8,3,2.5,5c0.3,1,0.6,2,0.8,3.1c0.2,1.1,0.1,2.3-0.1,3.4c-0.7,4.7-2.4,9.8-4.4,15.4
								c-4.1,11.1-9.8,24.1-16.3,38.4c-0.8,1.8-1.6,3.6-2.4,5.4c-0.8,1.8-1.5,3.7-2.5,5.6c-2,3.7-5.2,6.7-9.2,8.5
								c-2,0.9-4.1,1.5-6.3,1.8c-1.1,0.1-2.2,0.2-3.3,0.2c-0.6-0.1-1.1-0.2-1.7-0.3l-1.6-0.5c-4.2-1.3-8.4-3.1-12.5-4.8
								c-10.3-4.3-20.1-8.8-29.4-13.1l-0.2-0.1l0.1-0.2c2-6.9,3.9-13.6,5.8-20l0.1-0.2l0.2,0.1c13.1,3.9,25,7.5,35.1,10.5l-0.2,0.1
								c4.3-12.1,7.8-21.8,10.2-28.6c1.2-3.4,2.2-6,2.8-7.8c0.3-0.9,0.6-1.5,0.7-2C287.9,248.2,288,248,288,248z"/>
						</g>
					</g>
					<g>
						<path class="st4" d="M279.7,301.8c-0.2,0-0.7-3.5-2.3-7.5c-1.5-4.1-3.5-7.1-3.3-7.1c0.1,0,0.6,0.7,1.4,1.9
							c0.8,1.2,1.7,3,2.5,5.1c0.8,2.1,1.3,4,1.5,5.4C279.7,300.9,279.8,301.8,279.7,301.8z"/>
					</g>
					<g>
						<path class="st4" d="M308.6,223.5c0,0.1-1.3,0.5-3.3,1.5c-1,0.5-2.1,1.2-3.3,2c-1.2,0.8-2.5,1.9-3.7,3
							c-1.2,1.2-2.2,2.4-3.1,3.6c-0.9,1.2-1.6,2.3-2.1,3.3c-1,2-1.5,3.3-1.6,3.2c0,0,0.1-0.3,0.3-0.9c0.2-0.6,0.5-1.4,1-2.5
							c0.5-1,1.2-2.2,2-3.4c0.9-1.2,1.9-2.5,3.1-3.7c1.2-1.2,2.5-2.2,3.8-3.1c1.2-0.8,2.4-1.5,3.5-1.9c1-0.5,1.9-0.8,2.5-1
							C308.3,223.6,308.6,223.5,308.6,223.5z"/>
					</g>
				</g>
			</g>
			<g>
				<path class="st4" d="M89.8,367.6l-19-23.7c0,0,73.3-60.4,80.2-64.7c5.2-3.3,15.9-7.6,26-4.2c10.1,3.4,27.2,15.2,33.5,19
					c6.3,3.8,61.2,37.8,67.1,46.1c0,0-11.9,21.6-19.8,25.2c-6.1,2.8-23.8-1.4-34.1-7.7c-10.3-6.3-57.6-46.8-57.6-46.8L89.8,367.6z"
					/>
				<path class="st4" d="M96.9,395.3l25.6,18.4l49.3-80.3l49.8,22.7l-33.5-55.9c0,0-27,0.3-31.2-0.2c-5.4-0.6-15.4,8-20.8,18.5
					C131.3,327.6,96.9,395.3,96.9,395.3z"/>
				<g>
					<path class="st5" d="M205.4,349.5c-0.1,0.1-11.3-11.4-25.1-25.6c-13.8-14.2-24.8-25.9-24.7-26c0.1-0.1,11.3,11.4,25.1,25.6
						C194.5,337.8,205.5,349.4,205.4,349.5z"/>
				</g>
				<path class="st10" d="M111.3,351.7c0,0,22-41.2,32.4-43.9c0,0-15,20.4-20.1,34.8L111.3,351.7z"/>
				<g>
					<path class="st5" d="M160.3,302.8c0,0.1-1-0.4-2.9-0.6c-1.9-0.2-4.7,0.1-7.7,1.6c-3.1,1.5-6.1,4.3-8.7,7.9
						c-2.6,3.6-5.3,7.8-7.8,12.4c-5,9.1-8.9,17.8-11.9,23.9c-1.5,3.1-2.8,5.5-3.7,7.2c-0.4,0.8-0.8,1.4-1.1,1.9
						c-0.3,0.4-0.4,0.7-0.4,0.7c0,0,0.1-0.2,0.3-0.7c0.2-0.5,0.6-1.1,1-2c0.8-1.7,2.1-4.2,3.6-7.3c3-6.1,6.8-14.8,11.8-24
						c2.5-4.6,5.2-8.8,7.9-12.4c2.7-3.6,5.8-6.5,9-8c3.1-1.5,6-1.8,7.9-1.5C159.4,302.3,160.3,302.8,160.3,302.8z"/>
				</g>
				<g>
					<g>
						<g>
							<g>
								<g>
									<g>
										<g>
											<g>
												<g>
													<g>
														<g>
															<g>
																<g>
																	<g>
																		<g>
																			<g>
																				<g>
																					<path class="st4" d="M109.5,380.4l-14,25.8c0,0-31.3-3.7-34,1l50.8,26l21.1-40.7L109.5,380.4z"/>
																				</g>
																			</g>
																		</g>
																	</g>
																</g>
															</g>
														</g>
													</g>
												</g>
											</g>
										</g>
									</g>
								</g>
							</g>
						</g>
						<g>
							<g>
								<g>
									<g>
										<g>
											<g>
												<g>
													<g>
														<g>
															<g>
																<g>
																	<g>
																		<g>
																			<g>
																				<g>
																					<g>
																						<path class="st7" d="M112.3,412.1c2.1,1.9-0.7,5.2-2.8,3.4c-2.3-2.1,1-5.4,3-3.2"/>
																					</g>
																				</g>
																			</g>
																		</g>
																	</g>
																</g>
															</g>
														</g>
													</g>
												</g>
											</g>
										</g>
									</g>
								</g>
							</g>
						</g>
						<g>
							<g>
								<g>
									<g>
										<g>
											<g>
												<g>
													<g>
														<g>
															<g>
																<g>
																	<g>
																		<g>
																			<g>
																				<g>
																					<path class="st5" d="M112.2,433.2l2-4.2l-49.4-23.3c0,0-2.8-0.2-3.3,1.6L112.2,433.2z"/>
																				</g>
																			</g>
																		</g>
																	</g>
																</g>
															</g>
														</g>
													</g>
												</g>
											</g>
										</g>
									</g>
								</g>
							</g>
						</g>
						<g>
							<g>
								<g>
									<g>
										<g>
											<g>
												<g>
													<g>
														<g>
															<g>
																<g>
																	<g>
																		<g>
																			<g>
																				<g>
																					<g>
																						<path class="st8" d="M94.8,405.6c-0.1,0.3,1.1,1,1.9,2.4c0.9,1.4,0.9,2.8,1.2,2.8
																							C99.3,410,96.2,404.8,94.8,405.6z"/>
																					</g>
																				</g>
																			</g>
																		</g>
																	</g>
																</g>
															</g>
														</g>
													</g>
												</g>
											</g>
										</g>
									</g>
								</g>
							</g>
						</g>
						<g>
							<g>
								<g>
									<g>
										<g>
											<g>
												<g>
													<g>
														<g>
															<g>
																<g>
																	<g>
																		<g>
																			<g>
																				<g>
																					<g>
																						<path class="st8" d="M88.3,405.1c-0.2,0.2,0.7,1.2,1,2.7c0.3,1.5,0,2.7,0.2,2.8
																							C91.1,410.2,89.9,404.7,88.3,405.1z"/>
																					</g>
																				</g>
																			</g>
																		</g>
																	</g>
																</g>
															</g>
														</g>
													</g>
												</g>
											</g>
										</g>
									</g>
								</g>
							</g>
						</g>
						<g>
							<g>
								<g>
									<g>
										<g>
											<g>
												<g>
													<g>
														<g>
															<g>
																<g>
																	<g>
																		<g>
																			<g>
																				<g>
																					<g>
																						<path class="st8" d="M82,409.9c1.4,0.2,1.6-5.3,0.2-5.2C82.3,404.8,82.1,409.7,82,409.9z"/>
																					</g>
																				</g>
																			</g>
																		</g>
																	</g>
																</g>
															</g>
														</g>
													</g>
												</g>
											</g>
										</g>
									</g>
								</g>
							</g>
						</g>
						<g>
							<g>
								<g>
									<g>
										<g>
											<g>
												<g>
													<g>
														<g>
															<g>
																<g>
																	<g>
																		<g>
																			<g>
																				<g>
																					<g>
																						<path class="st8" d="M98.3,399.8c0.2,0,5,2.8,5.1,3C104.2,401.7,98.9,398.6,98.3,399.8z"/>
																					</g>
																				</g>
																			</g>
																		</g>
																	</g>
																</g>
															</g>
														</g>
													</g>
												</g>
											</g>
										</g>
									</g>
								</g>
							</g>
						</g>
					</g>
				</g>
				<g>
					<g>
						<g>
							<g>
								<g>
									<g>
										<g>
											<g>
												<g>
													<g>
														<g>
															<g>
																<g>
																	<g>
																		<g>
																			<g>
																				<g>
																					<path class="st4" d="M90.4,334.3l-24,16.9c0,0-26.4-17.2-31-14.2l34,45.8l36-28.4L90.4,334.3z"/>
																				</g>
																			</g>
																		</g>
																	</g>
																</g>
															</g>
														</g>
													</g>
												</g>
											</g>
										</g>
									</g>
								</g>
							</g>
						</g>
						<g>
							<g>
								<g>
									<g>
										<g>
											<g>
												<g>
													<g>
														<g>
															<g>
																<g>
																	<g>
																		<g>
																			<g>
																				<g>
																					<g>
																						<path class="st7" d="M78.9,364c1,2.6-2.9,4.3-4,1.7c-1.1-2.9,3.3-4.4,4.1-1.5"/>
																					</g>
																				</g>
																			</g>
																		</g>
																	</g>
																</g>
															</g>
														</g>
													</g>
												</g>
											</g>
										</g>
									</g>
								</g>
							</g>
						</g>
						<g>
							<g>
								<g>
									<g>
										<g>
											<g>
												<g>
													<g>
														<g>
															<g>
																<g>
																	<g>
																		<g>
																			<g>
																				<g>
																					<path class="st5" d="M69.4,382.9L73,380l-34-42.8c0,0-2.4-1.4-3.7-0.1L69.4,382.9z"/>
																				</g>
																			</g>
																		</g>
																	</g>
																</g>
															</g>
														</g>
													</g>
												</g>
											</g>
										</g>
									</g>
								</g>
							</g>
						</g>
						<g>
							<g>
								<g>
									<g>
										<g>
											<g>
												<g>
													<g>
														<g>
															<g>
																<g>
																	<g>
																		<g>
																			<g>
																				<g>
																					<g>
																						<path class="st8" d="M66,350.4c-0.2,0.2,0.5,1.4,0.6,3c0.1,1.6-0.4,2.9-0.2,3.1
																							C68.1,356.3,67.7,350.3,66,350.4z"/>
																					</g>
																				</g>
																			</g>
																		</g>
																	</g>
																</g>
															</g>
														</g>
													</g>
												</g>
											</g>
										</g>
									</g>
								</g>
							</g>
						</g>
						<g>
							<g>
								<g>
									<g>
										<g>
											<g>
												<g>
													<g>
														<g>
															<g>
																<g>
																	<g>
																		<g>
																			<g>
																				<g>
																					<g>
																						<path class="st8" d="M60.5,347c-0.3,0.1,0.1,1.4-0.3,2.8c-0.3,1.5-1.2,2.4-1,2.6
																							C60.8,352.9,62.1,347.4,60.5,347z"/>
																					</g>
																				</g>
																			</g>
																		</g>
																	</g>
																</g>
															</g>
														</g>
													</g>
												</g>
											</g>
										</g>
									</g>
								</g>
							</g>
						</g>
						<g>
							<g>
								<g>
									<g>
										<g>
											<g>
												<g>
													<g>
														<g>
															<g>
																<g>
																	<g>
																		<g>
																			<g>
																				<g>
																					<g>
																						<path class="st8" d="M52.7,348.6c1.1,0.8,3.8-4.1,2.5-4.6C55.2,344.2,52.8,348.5,52.7,348.6z"/>
																					</g>
																				</g>
																			</g>
																		</g>
																	</g>
																</g>
															</g>
														</g>
													</g>
												</g>
											</g>
										</g>
									</g>
								</g>
							</g>
						</g>
					</g>
				</g>
				<path class="st10" d="M201.7,345.6c0,0-28-21.3-34.7-29.6c-6.6-8.1-10.1-16-10.1-16L201.7,345.6z"/>
			</g>
		</g>
	</g>
</g>
</svg>
