<?xml version="1.0" encoding="utf-8"?>
<!-- Generator: Adobe Illustrator 24.3.0, SVG Export Plug-In . SVG Version: 6.00 Build 0)  -->
<svg version="1.1" xmlns="http://www.w3.org/2000/svg" xmlns:xlink="http://www.w3.org/1999/xlink" x="0px" y="0px"
	 viewBox="0 0 500 500" style="enable-background:new 0 0 500 500;" xml:space="preserve">
<g id="Background_Complete">
	<g>
		<path style="fill:#EBEBEB;" d="M259.79,49.04c-5.63-2.66-11.89-2.96-15.87-2.35c-3.73,0.57-9.12,1.99-13.66,5.54
			c-2.82,2.21-4.92,4.96-6.24,8.17c-1.56,3.81-2.04,8.3-1.42,13.35c0.09,0.76,0.48,1.43,1.09,1.89c0.61,0.46,1.37,0.66,2.13,0.54
			l9.77-1.49c1.38-0.21,2.41-1.42,2.39-2.81c-0.03-3.13,1-8.57,8.29-9.81c5.56-0.94,8.47,2.74,9.46,4.37
			c1.62,2.65,1.83,6.05,0.56,9.1c-1.95,4.68-6.63,6.07-9.25,6.47c-3.01,0.47-5.09,3.29-4.63,6.28l1.6,10.51
			c0.23,1.54,1.67,2.59,3.21,2.36l9.52-1.45c1.54-0.23,2.59-1.67,2.36-3.21l-0.34-2.21c-0.01-0.05,0.02-0.1,0.07-0.13
			c2.04-1.08,5.94-3.55,9.14-7.87c4.08-5.51,5.58-12.05,4.45-19.44C270.83,56.31,264.67,51.35,259.79,49.04z"/>
		<path style="fill:#EBEBEB;" d="M252.87,103.03l-0.83,0.13c-3.98,0.61-6.73,4.34-6.12,8.32c0.61,3.98,4.34,6.73,8.32,6.12
			l0.83-0.13c3.98-0.61,6.73-4.34,6.12-8.32C260.58,105.17,256.85,102.43,252.87,103.03z"/>
	</g>
	<g>
		<path style="fill:#EBEBEB;" d="M63.67,218.78c-2.83-3.54-6.82-5.73-9.61-6.61c-2.62-0.82-6.6-1.62-10.7-0.75
			c-2.55,0.54-4.8,1.67-6.69,3.35c-2.24,1.99-3.99,4.77-5.19,8.27c-0.18,0.52-0.14,1.09,0.11,1.58c0.25,0.5,0.68,0.87,1.22,1.03
			l6.86,2.15c0.97,0.3,2.03-0.16,2.46-1.07c0.98-2.06,3.39-5.28,8.56-3.75c3.93,1.16,4.66,4.5,4.79,5.88
			c0.21,2.25-0.74,4.54-2.54,6.12c-2.77,2.44-6.27,1.84-8.11,1.27c-2.12-0.66-4.38,0.52-5.04,2.62l-2.32,7.38
			c-0.34,1.08,0.26,2.23,1.34,2.57l6.68,2.1c1.08,0.34,2.23-0.26,2.57-1.34l0.49-1.55c0.01-0.04,0.04-0.06,0.08-0.06
			c1.68-0.06,5.02-0.42,8.49-2.22c4.43-2.3,7.5-6.09,9.13-11.28C68.56,227.07,66.12,221.85,63.67,218.78z"/>
		<path style="fill:#EBEBEB;" d="M41.88,251.85l-0.58-0.18c-2.8-0.88-5.78,0.68-6.66,3.48c-0.88,2.8,0.68,5.78,3.48,6.66l0.58,0.18
			c2.8,0.88,5.78-0.68,6.66-3.48C46.24,255.71,44.68,252.73,41.88,251.85z"/>
	</g>
	<g>
		<g>
			<g>
				<g>
					<path style="fill:#EBEBEB;" d="M360.05,458.38c24.34-1.06,55.21-8.83,74.09-24.71C408.08,434.34,381.73,443.13,360.05,458.38"
						/>
				</g>
			</g>
		</g>
		<g>
			<g>
				<g>
					<path style="fill:#EBEBEB;" d="M376.98,429.6c24.34-1.06,55.21-8.83,74.09-24.71C425.01,405.56,398.66,414.35,376.98,429.6"/>
				</g>
			</g>
		</g>
		<g>
			<g>
				<g>
					<path style="fill:#EBEBEB;" d="M395.18,402.18c24.34-1.06,55.21-8.83,74.09-24.71C443.22,378.14,416.86,386.93,395.18,402.18"
						/>
				</g>
			</g>
		</g>
		<g>
			<g>
				<g>
					<path style="fill:#EBEBEB;" d="M415.49,373.9c24.21-4.03,54.05-15.47,70.8-33.4C460.31,344.36,435.13,356.24,415.49,373.9"/>
				</g>
			</g>
		</g>
		<g>
			<g>
				<g>
					<path style="fill:#EBEBEB;" d="M433.35,353.03c21.5-12.3,45.45-33.29,54.37-55.45C464.47,310.37,445.13,330.09,433.35,353.03"
						/>
				</g>
			</g>
		</g>
		<g>
			<g>
				<g>
					<path style="fill:#EBEBEB;" d="M424.69,362.89c6.62-24.14,8.68-56.6-1.04-79.62C416.11,308.99,416.48,337.31,424.69,362.89"/>
				</g>
			</g>
		</g>
		<g>
			<g>
				<g>
					<path style="fill:#EBEBEB;" d="M407.47,385.96c4.69-25.61,3.86-59.51-8.4-82.67C393.56,330.61,396.55,360.02,407.47,385.96"/>
				</g>
			</g>
		</g>
		<g>
			<g>
				<g>
					<path style="fill:#EBEBEB;" d="M386.95,414.26c4.69-25.61,3.86-59.51-8.4-82.67C373.04,358.91,376.03,388.32,386.95,414.26"/>
				</g>
			</g>
		</g>
		<g>
			<g>
				<g>
					<path style="fill:#EBEBEB;" d="M365.07,450.11c4.69-25.61,3.86-59.51-8.4-82.67C351.16,394.76,354.15,424.17,365.07,450.11"/>
				</g>
			</g>
		</g>
		<g>
			<g>
				<g>
					<g>
						<path style="fill:#E0E0E0;" d="M356.73,463.35c-3.53,6.51-6.29,11.83-8.12,15.54c-0.89,1.8-1.59,3.23-2.1,4.28
							c-0.21,0.45-0.38,0.82-0.53,1.12c-0.11,0.26-0.16,0.39-0.15,0.4c0.01,0.01,0.09-0.11,0.23-0.35c0.16-0.29,0.36-0.65,0.61-1.08
							c0.55-1.03,1.3-2.43,2.25-4.2c1.92-3.66,4.77-8.93,8.37-15.39c3.58-6.47,8-14.09,13.03-22.48
							c5.07-8.36,10.8-17.46,17.04-26.86c12.51-18.78,24.75-35.16,33.89-46.78c4.57-5.82,8.32-10.48,10.94-13.68
							c1.26-1.56,2.26-2.8,2.99-3.71c0.31-0.39,0.56-0.72,0.76-0.98c0.17-0.22,0.25-0.34,0.24-0.35c-0.01-0.01-0.12,0.09-0.31,0.29
							c-0.22,0.25-0.5,0.55-0.83,0.92c-0.77,0.88-1.81,2.08-3.13,3.6c-2.71,3.13-6.54,7.74-11.18,13.5
							c-9.28,11.53-21.62,27.87-34.15,46.68"/>
					</g>
				</g>
			</g>
		</g>
	</g>
	<g>
		<g>
			<g>
				<g>
					<path style="fill:#EBEBEB;" d="M314.73,294.99c8.88-21.93,14.47-52.34,8.06-75.43C312.87,242.86,310,269.69,314.73,294.99"/>
				</g>
			</g>
		</g>
		<g>
			<g>
				<g>
					<path style="fill:#EBEBEB;" d="M296.13,268.42c8.88-21.93,14.47-52.34,8.05-75.43C294.26,216.28,291.4,243.11,296.13,268.42"/>
				</g>
			</g>
		</g>
		<g>
			<g>
				<g>
					<path style="fill:#EBEBEB;" d="M279.24,241.28c8.88-21.93,14.47-52.34,8.05-75.43C277.38,189.14,274.52,215.97,279.24,241.28"
						/>
				</g>
			</g>
		</g>
		<g>
			<g>
				<g>
					<path style="fill:#EBEBEB;" d="M262.45,211.92c6.2-23.02,8.13-54-0.95-76.03C254.43,160.41,254.77,187.46,262.45,211.92"/>
				</g>
			</g>
		</g>
		<g>
			<g>
				<g>
					<path style="fill:#EBEBEB;" d="M251.21,187.73c-2.2-23.96-11.08-53.59-27.06-70.41C226.07,143.03,235.7,168.07,251.21,187.73"
						/>
				</g>
			</g>
		</g>
		<g>
			<g>
				<g>
					<path style="fill:#EBEBEB;" d="M256.44,199.36c-18.66-15.59-46.51-30.5-70.77-31.2C205.35,185.19,230.53,196.29,256.44,199.36"
						/>
				</g>
			</g>
		</g>
		<g>
			<g>
				<g>
					<path style="fill:#EBEBEB;" d="M269.87,223.88c-20.73-14.48-51.02-27.41-76.43-25.93
						C215.36,213.84,242.55,223.06,269.87,223.88"/>
				</g>
			</g>
		</g>
		<g>
			<g>
				<g>
					<path style="fill:#EBEBEB;" d="M286.6,253.43c-20.73-14.48-51.02-27.41-76.43-25.93C232.08,243.39,259.27,252.61,286.6,253.43"
						/>
				</g>
			</g>
		</g>
		<g>
			<g>
				<g>
					<path style="fill:#EBEBEB;" d="M309.44,287.22c-20.73-14.48-51.02-27.41-76.43-25.93C254.93,277.18,282.12,286.4,309.44,287.22
						"/>
				</g>
			</g>
		</g>
		<g>
			<g>
				<g>
					<g>
						<path style="fill:#E0E0E0;" d="M317.78,299.92c4.33,5.74,7.91,10.33,10.46,13.44c1.24,1.51,2.21,2.7,2.93,3.58
							c0.31,0.37,0.57,0.67,0.78,0.92c0.18,0.2,0.28,0.3,0.29,0.29c0.01-0.01-0.06-0.13-0.22-0.35c-0.19-0.26-0.42-0.58-0.71-0.97
							c-0.69-0.9-1.62-2.13-2.8-3.68c-2.46-3.18-5.96-7.82-10.22-13.6c-4.28-5.77-9.23-12.75-14.61-20.58
							c-5.34-7.85-11.07-16.58-16.86-25.89c-11.55-18.63-21.08-36.05-27.66-48.82c-3.3-6.38-5.91-11.58-7.67-15.19
							c-0.87-1.74-1.56-3.13-2.07-4.14c-0.22-0.43-0.41-0.78-0.56-1.07c-0.13-0.24-0.2-0.36-0.22-0.35
							c-0.01,0.01,0.03,0.14,0.14,0.39c0.13,0.3,0.29,0.66,0.48,1.11c0.47,1.03,1.11,2.44,1.92,4.21c1.67,3.66,4.2,8.9,7.42,15.33
							c6.45,12.85,15.9,30.35,27.47,49"/>
					</g>
				</g>
			</g>
		</g>
	</g>
	<g>
		<path style="fill:#EBEBEB;" d="M484.16,209.14c-4.1-4.87-9.78-7.82-13.74-8.95c-3.7-1.06-9.32-2.04-15.05-0.67
			c-3.56,0.85-6.68,2.51-9.28,4.93c-3.08,2.87-5.43,6.84-7.01,11.8c-0.24,0.74-0.16,1.53,0.21,2.22c0.37,0.69,0.99,1.19,1.75,1.41
			l9.71,2.78c1.37,0.39,2.84-0.29,3.42-1.59c1.3-2.92,4.58-7.53,11.89-5.57c5.57,1.5,6.7,6.16,6.93,8.09
			c0.37,3.15-0.88,6.4-3.36,8.69c-3.81,3.52-8.75,2.81-11.35,2.07c-3-0.85-6.13,0.88-6.98,3.86l-3,10.45
			c-0.44,1.53,0.45,3.12,1.97,3.56l9.46,2.71c1.53,0.44,3.12-0.45,3.56-1.97l0.63-2.2c0.02-0.05,0.06-0.09,0.12-0.09
			c2.36-0.14,7.04-0.76,11.84-3.41c6.14-3.38,10.32-8.82,12.43-16.16C491.31,220.6,487.71,213.36,484.16,209.14z"/>
		<path style="fill:#EBEBEB;" d="M454.71,256.35l-0.83-0.24c-3.96-1.13-8.1,1.16-9.24,5.12c-1.13,3.96,1.16,8.1,5.12,9.24l0.83,0.24
			c3.96,1.13,8.1-1.16,9.24-5.12C460.96,261.62,458.67,257.48,454.71,256.35z"/>
	</g>
	<g>
		<path style="fill:#EBEBEB;" d="M163.68,294.65c-4.72-3.53-10.46-4.99-14.27-5.18c-3.56-0.18-8.83,0.12-13.71,2.56
			c-3.03,1.51-5.5,3.67-7.33,6.4c-2.17,3.24-3.46,7.31-3.84,12.11c-0.06,0.72,0.18,1.42,0.65,1.96c0.48,0.55,1.14,0.87,1.87,0.9
			l9.34,0.47c1.32,0.07,2.5-0.86,2.75-2.15c0.56-2.91,2.55-7.75,9.55-7.52c5.33,0.18,7.33,4.14,7.95,5.84c1,2.76,0.55,5.95-1.2,8.54
			c-2.69,3.97-7.3,4.37-9.8,4.25c-2.88-0.13-5.34,2.09-5.49,4.95l-0.51,10.05c-0.07,1.47,1.06,2.72,2.53,2.8l9.1,0.46
			c1.47,0.07,2.72-1.06,2.8-2.53l0.11-2.11c0-0.05,0.04-0.09,0.09-0.11c2.1-0.62,6.18-2.17,9.96-5.56
			c4.82-4.34,7.45-10.12,7.81-17.18C172.54,303.48,167.77,297.71,163.68,294.65z"/>
		<path style="fill:#EBEBEB;" d="M147.05,343.4l-0.8-0.04c-3.81-0.19-7.06,2.75-7.25,6.56c-0.19,3.81,2.75,7.06,6.56,7.25l0.8,0.04
			c3.81,0.19,7.06-2.75,7.25-6.56C153.8,346.84,150.86,343.59,147.05,343.4z"/>
	</g>
	<g>
		<path style="fill:#EBEBEB;" d="M115.11,472.68h8.64c5.09-18.12,7.53-38.28,4.2-55.14C120.15,434.44,115.78,453.47,115.11,472.68z"
			/>
		<path style="fill:#EBEBEB;" d="M113.47,388.59c-10.62,23.02-14.91,49.99-12.1,75.97c0.1,0.2,0.19,0.41,0.29,0.61
			C111.27,443.22,118.21,412.56,113.47,388.59z"/>
		<path style="fill:#EBEBEB;" d="M90.68,356.2c-7.79,23.73-9.23,50.26-4.15,74.98c0.31,0.75,0.63,1.52,0.96,2.29
			C94.51,410.29,97.95,379.1,90.68,356.2z"/>
		<path style="fill:#EBEBEB;" d="M75.82,404.75c-0.08-0.26-0.12-0.4-0.11-0.41c0.01-0.01,0.08,0.12,0.19,0.37
			c0.13,0.31,0.28,0.68,0.47,1.13c0.15,0.38,0.33,0.84,0.52,1.32c0.34,0.55,0.67,1.12,1.03,1.66c-0.71-24.76-7.44-55.77-21.66-74.04
			c0.33,25.48,7.46,50.76,20.08,71.48c-0.04-0.11-0.09-0.24-0.12-0.35C76.05,405.45,75.92,405.06,75.82,404.75z"/>
		<path style="fill:#EBEBEB;" d="M81.78,421.01c-0.07-0.19-0.14-0.37-0.22-0.56c-16.84-16.96-42.09-33.62-64.81-35.82
			C34.37,403.26,57.49,416.18,81.78,421.01z"/>
		<path style="fill:#EBEBEB;" d="M93.57,447.15c-0.09-0.08-0.19-0.16-0.28-0.24c0.03,0.07,0.06,0.15,0.1,0.22
			C93.44,447.13,93.51,447.14,93.57,447.15z"/>
		<path style="fill:#EBEBEB;" d="M22.42,415.74c19.64,17.45,44.51,28.53,70.05,31.28c-0.18-0.42-0.36-0.83-0.54-1.24
			C73.11,430.13,45.97,415.8,22.42,415.74z"/>
		<path style="fill:#EBEBEB;" d="M36.61,447.15c12.86,11.43,27.97,20.11,44.05,25.53h19.76C82.07,458.89,57.88,447.2,36.61,447.15z"
			/>
		<path style="fill:#E0E0E0;" d="M83.96,426.58c2.23,5.63,4.91,12.12,7.98,19.2c0.18,0.41,0.36,0.82,0.54,1.24
			c3.47,7.96,7.44,16.63,11.83,25.66h0.96c-1.24-2.53-2.44-5.03-3.61-7.5c-0.1-0.2-0.19-0.41-0.29-0.61
			c-2.87-6.08-5.54-11.93-7.99-17.44c-0.03-0.07-0.07-0.15-0.1-0.22c-2.11-4.77-4.05-9.27-5.8-13.44c-0.33-0.77-0.65-1.54-0.96-2.29
			c-0.7-1.68-1.37-3.31-2.01-4.86c-2.76-6.77-4.95-12.27-6.42-16.09c-0.47-1.19-0.86-2.19-1.21-3.06c-0.19-0.48-0.37-0.94-0.52-1.32
			c-0.19-0.45-0.34-0.83-0.47-1.13c-0.11-0.25-0.17-0.38-0.19-0.37c-0.01,0.01,0.02,0.14,0.11,0.41c0.11,0.31,0.23,0.7,0.39,1.17
			c0.04,0.11,0.08,0.24,0.12,0.35c0.37,1.05,0.85,2.41,1.45,4.1c0.93,2.63,2.21,6.04,3.78,10.09c0.07,0.18,0.14,0.37,0.22,0.56
			C82.46,422.76,83.18,424.61,83.96,426.58z"/>
	</g>
</g>
<g id="Background_Simple" style="display:none;">
	<path style="display:inline;fill:#F5F5F5;" d="M73.32,99.43l1.75-4.04c14.74-34.05,46.61-57.73,83.28-60.43
		c4.71-0.35,9.45-0.36,14.18,0c34.02,2.53,66.22,23.56,82.54,53.93c9.6,17.86,14.54,39.26,29.9,52.37
		c19.99,17.06,49.46,13.63,75.2,9.27c25.73-4.36,55.24-7.72,75.15,9.43c12.47,10.74,18.29,27.66,19.68,44.15
		c3.66,43.67-21.21,86.58-56.98,111.14c-35.76,24.55-80.76,32.5-123.97,29.81c-60.53-3.77-121.03-28.67-161.63-74.39
		C71.82,224.93,53.86,157.49,73.32,99.43z"/>
	
		<ellipse transform="matrix(0.7071 -0.7071 0.7071 0.7071 -254.9051 181.2093)" style="display:inline;fill:#F5F5F5;" cx="91.29" cy="398.3" rx="32.58" ry="32.58"/>
</g>
<g id="Floor">
	<g>
		<path style="fill:#263238;" d="M470.39,472.29c0,0.15-98.68,0.27-220.37,0.27c-121.74,0-220.4-0.12-220.4-0.27
			c0-0.15,98.66-0.27,220.4-0.27C371.71,472.01,470.39,472.14,470.39,472.29z"/>
	</g>
</g>
<g id="Speech_Bubble_2">
	<g>
		<g>
			<g>
				
					<ellipse transform="matrix(0.9325 -0.3612 0.3612 0.9325 -39.3947 33.5073)" style="fill:#FFFFFF;" cx="69.94" cy="122.14" rx="32.21" ry="32.21"/>
				<g>
					<path style="fill:#263238;" d="M102.15,122.14c0,0-0.02-0.18-0.05-0.52c-0.02-0.36-0.06-0.87-0.1-1.53
						c-0.02-0.34-0.04-0.71-0.07-1.13c-0.04-0.41-0.13-0.86-0.2-1.35c-0.08-0.49-0.16-1.01-0.25-1.57
						c-0.07-0.56-0.28-1.14-0.42-1.76c-0.57-2.49-1.73-5.43-3.57-8.54c-1.85-3.1-4.52-6.35-8.16-9.1c-0.46-0.34-0.92-0.68-1.39-1.03
						c-0.49-0.32-1-0.61-1.51-0.92c-0.52-0.29-1.01-0.65-1.56-0.9c-0.55-0.26-1.1-0.53-1.66-0.8c-0.28-0.13-0.56-0.27-0.85-0.4
						c-0.29-0.11-0.59-0.22-0.89-0.32c-0.6-0.22-1.2-0.44-1.8-0.66c-0.61-0.2-1.25-0.33-1.89-0.51c-0.64-0.15-1.27-0.37-1.94-0.44
						c-1.32-0.19-2.66-0.46-4.05-0.47c-0.69-0.02-1.39-0.09-2.09-0.08c-0.7,0.04-1.41,0.07-2.12,0.11
						c-0.36,0.02-0.71,0.02-1.07,0.07l-1.07,0.16c-0.71,0.12-1.44,0.2-2.15,0.35c-1.41,0.38-2.88,0.67-4.27,1.25
						c-1.44,0.46-2.79,1.17-4.18,1.84c-0.68,0.37-1.32,0.79-1.99,1.19c-0.33,0.21-0.68,0.39-0.99,0.63l-0.94,0.71
						c-1.3,0.89-2.44,2.01-3.63,3.09c-0.54,0.59-1.08,1.19-1.63,1.79l-0.41,0.45l-0.37,0.49l-0.73,0.98l-0.74,0.98l-0.64,1.05
						l-0.64,1.06l-0.32,0.53l-0.27,0.56c-0.36,0.75-0.72,1.5-1.09,2.26c-0.29,0.79-0.58,1.58-0.87,2.37
						c-1.04,3.21-1.61,6.62-1.65,10.1c0.05,3.47,0.61,6.89,1.65,10.1c0.29,0.79,0.58,1.58,0.87,2.37c0.36,0.76,0.73,1.51,1.09,2.26
						l0.27,0.56l0.32,0.53l0.64,1.06l0.64,1.05l0.74,0.99l0.73,0.98l0.37,0.49l0.41,0.45c0.55,0.6,1.09,1.2,1.63,1.79
						c1.19,1.08,2.33,2.19,3.63,3.09l0.94,0.71c0.31,0.24,0.66,0.42,0.99,0.63c0.67,0.4,1.32,0.82,1.99,1.19
						c1.39,0.67,2.74,1.38,4.18,1.84c1.39,0.58,2.86,0.87,4.27,1.25c0.72,0.15,1.44,0.23,2.15,0.35l1.07,0.16
						c0.36,0.05,0.71,0.04,1.07,0.07c0.71,0.04,1.42,0.07,2.12,0.11c0.7,0.01,1.4-0.06,2.09-0.08c1.39-0.01,2.73-0.28,4.05-0.47
						c0.67-0.07,1.3-0.29,1.94-0.44c0.63-0.17,1.28-0.3,1.89-0.51c0.61-0.22,1.21-0.44,1.8-0.66c0.3-0.11,0.59-0.22,0.89-0.32
						c0.28-0.13,0.57-0.27,0.85-0.4c0.56-0.27,1.12-0.53,1.66-0.8c0.56-0.25,1.05-0.61,1.56-0.9c0.51-0.31,1.02-0.6,1.51-0.92
						c0.47-0.35,0.93-0.69,1.39-1.03c3.64-2.75,6.31-5.99,8.16-9.1c1.84-3.12,3-6.06,3.57-8.54c0.14-0.62,0.35-1.19,0.42-1.76
						c0.09-0.56,0.17-1.08,0.25-1.57c0.07-0.49,0.16-0.93,0.2-1.35c0.02-0.41,0.05-0.79,0.07-1.13c0.04-0.66,0.07-1.17,0.1-1.53
						C102.13,122.32,102.15,122.14,102.15,122.14s0.01,0.18-0.01,0.52c-0.01,0.36-0.03,0.87-0.06,1.53
						c-0.01,0.34-0.03,0.72-0.05,1.13c-0.04,0.41-0.12,0.86-0.18,1.35c-0.07,0.49-0.15,1.01-0.23,1.58
						c-0.06,0.57-0.26,1.14-0.4,1.77c-0.55,2.51-1.69,5.47-3.52,8.62c-1.84,3.14-4.52,6.42-8.18,9.21
						c-0.46,0.35-0.92,0.69-1.39,1.05c-0.49,0.32-1.01,0.62-1.52,0.94c-0.52,0.3-1.02,0.66-1.58,0.92
						c-0.55,0.27-1.11,0.54-1.68,0.81c-0.28,0.14-0.57,0.27-0.85,0.41c-0.3,0.11-0.6,0.22-0.9,0.33c-0.6,0.22-1.21,0.44-1.82,0.67
						c-0.62,0.21-1.27,0.34-1.91,0.52c-0.65,0.15-1.28,0.38-1.96,0.45c-1.34,0.19-2.69,0.47-4.09,0.48c-0.7,0.03-1.4,0.1-2.11,0.09
						c-0.71-0.04-1.42-0.07-2.14-0.11c-0.36-0.02-0.72-0.02-1.08-0.07l-1.08-0.16c-0.72-0.12-1.45-0.2-2.18-0.35
						c-1.43-0.39-2.91-0.67-4.32-1.26c-1.45-0.46-2.82-1.18-4.23-1.85c-0.68-0.37-1.34-0.8-2.02-1.2c-0.33-0.21-0.69-0.39-1-0.63
						l-0.96-0.71c-1.32-0.9-2.47-2.03-3.68-3.12c-0.55-0.6-1.1-1.21-1.65-1.81l-0.41-0.46l-0.37-0.49l-0.74-0.99l-0.75-1l-0.65-1.07
						l-0.65-1.07l-0.33-0.54l-0.28-0.57c-0.37-0.76-0.73-1.52-1.1-2.29c-0.29-0.8-0.59-1.6-0.88-2.4
						c-1.06-3.25-1.63-6.71-1.67-10.23c0.05-3.52,0.62-6.97,1.67-10.22c0.29-0.8,0.59-1.6,0.88-2.4c0.37-0.76,0.74-1.53,1.1-2.29
						l0.28-0.57l0.33-0.54l0.65-1.07l0.65-1.07l0.75-1l0.74-0.99l0.37-0.49l0.41-0.46c0.55-0.61,1.1-1.21,1.65-1.81
						c1.21-1.09,2.36-2.22,3.68-3.12l0.95-0.71c0.32-0.24,0.67-0.42,1-0.63c0.68-0.4,1.33-0.83,2.02-1.2
						c1.41-0.67,2.77-1.39,4.23-1.85c1.41-0.59,2.89-0.87,4.32-1.26c0.73-0.15,1.46-0.23,2.18-0.35l1.08-0.16
						c0.36-0.05,0.72-0.04,1.08-0.07c0.72-0.04,1.43-0.07,2.14-0.11c0.71-0.01,1.41,0.06,2.11,0.09c1.4,0.01,2.75,0.29,4.09,0.48
						c0.67,0.07,1.31,0.3,1.96,0.45c0.64,0.18,1.29,0.31,1.91,0.52c0.61,0.23,1.22,0.45,1.82,0.67c0.3,0.11,0.6,0.22,0.9,0.33
						c0.29,0.14,0.57,0.27,0.85,0.41c0.56,0.27,1.12,0.54,1.68,0.81c0.56,0.26,1.05,0.62,1.58,0.92c0.51,0.32,1.03,0.61,1.52,0.94
						c0.47,0.35,0.94,0.7,1.4,1.05c3.66,2.79,6.33,6.07,8.18,9.21c1.83,3.15,2.98,6.12,3.52,8.62c0.14,0.63,0.34,1.2,0.4,1.77
						c0.08,0.56,0.16,1.09,0.23,1.58c0.07,0.49,0.15,0.94,0.19,1.35c0.02,0.41,0.03,0.79,0.05,1.13c0.02,0.66,0.04,1.17,0.06,1.53
						C102.16,121.97,102.15,122.14,102.15,122.14z"/>
				</g>
			</g>
			<g>
				<path style="fill:#FF725E;" d="M58.49,116.62h6.12c0,0,0-5.14,5.34-5.23c2.77-0.05,4.21,1.77,4.79,3.16
					c0.68,1.62,0.47,3.46-0.44,4.96c-1.04,1.71-3.31,3.27-7.44,2.54v8.98h6.05v-3.26c0,0,8.49-2.19,8.49-11.54
					c0-8.95-8.02-11.03-11.46-11.03C67.32,105.19,58.37,105.83,58.49,116.62z"/>
				<rect x="66.85" y="133.36" style="fill:#FF725E;" width="6.14" height="5.73"/>
			</g>
		</g>
		<g>
			<path style="fill:#FFFFFF;" d="M103.61,152.28c0,2.72-2.2,4.92-4.92,4.92s-4.92-2.2-4.92-4.92c0-2.72,2.2-4.92,4.92-4.92
				S103.61,149.56,103.61,152.28z"/>
			<g>
				<path style="fill:#263238;" d="M103.61,152.28c-0.04,0-0.03-0.44-0.23-1.18c-0.2-0.73-0.7-1.79-1.8-2.61
					c-1.06-0.82-2.81-1.28-4.5-0.65c-0.83,0.3-1.62,0.87-2.19,1.65c-0.58,0.77-0.9,1.76-0.91,2.79c0.01,1.02,0.33,2.01,0.91,2.79
					c0.56,0.78,1.36,1.35,2.19,1.65c1.69,0.63,3.44,0.17,4.5-0.65c1.1-0.82,1.6-1.88,1.8-2.61
					C103.58,152.72,103.57,152.28,103.61,152.28c0.01,0,0.02,0.11,0.02,0.32c0.01,0.21-0.02,0.52-0.1,0.9
					c-0.16,0.76-0.64,1.9-1.78,2.8c-1.1,0.9-2.97,1.43-4.8,0.77c-0.9-0.32-1.77-0.92-2.38-1.77c-0.63-0.84-0.99-1.91-1-3.02
					c0.01-1.11,0.37-2.19,1-3.02c0.62-0.85,1.48-1.45,2.38-1.77c1.83-0.66,3.7-0.13,4.8,0.77c1.14,0.9,1.62,2.04,1.78,2.8
					c0.08,0.39,0.11,0.7,0.1,0.9C103.63,152.17,103.62,152.28,103.61,152.28z"/>
			</g>
		</g>
	</g>
</g>
<g id="Speech_Bubble_1">
	<g>
		<g>
			<g>
				
					<ellipse transform="matrix(0.7071 -0.7071 0.7071 0.7071 53.1105 332.5085)" style="fill:#FFFFFF;" cx="427.93" cy="102.14" rx="33.85" ry="33.85"/>
				<g>
					<path style="fill:#263238;" d="M461.77,102.14c0,0-0.02-0.19-0.05-0.55c-0.02-0.38-0.06-0.91-0.1-1.61
						c-0.02-0.35-0.04-0.75-0.07-1.18c-0.05-0.43-0.14-0.9-0.21-1.41c-0.08-0.51-0.17-1.06-0.26-1.65
						c-0.07-0.59-0.29-1.19-0.44-1.85c-0.6-2.61-1.82-5.7-3.75-8.98c-1.94-3.26-4.75-6.67-8.57-9.56c-0.48-0.36-0.97-0.72-1.46-1.09
						c-0.51-0.34-1.05-0.64-1.58-0.97c-0.54-0.31-1.06-0.69-1.64-0.95c-0.58-0.28-1.16-0.56-1.75-0.84
						c-0.3-0.14-0.59-0.28-0.89-0.42c-0.31-0.11-0.62-0.23-0.93-0.34c-0.63-0.23-1.26-0.46-1.89-0.69
						c-0.64-0.21-1.32-0.35-1.98-0.53c-0.67-0.15-1.34-0.39-2.04-0.46c-1.39-0.2-2.8-0.48-4.26-0.49c-0.73-0.02-1.46-0.1-2.19-0.08
						c-0.74,0.04-1.48,0.08-2.23,0.12c-0.37,0.03-0.75,0.02-1.12,0.07l-1.12,0.17c-0.75,0.12-1.51,0.21-2.26,0.37
						c-1.49,0.4-3.02,0.71-4.49,1.32c-1.51,0.48-2.93,1.23-4.39,1.93c-0.71,0.39-1.39,0.83-2.1,1.25c-0.34,0.22-0.71,0.41-1.04,0.66
						l-0.99,0.74c-1.37,0.94-2.56,2.11-3.82,3.24c-0.57,0.62-1.14,1.25-1.71,1.88L402,80.72l-0.39,0.51l-0.77,1.03l-0.77,1.04
						l-0.68,1.11l-0.68,1.11l-0.34,0.56l-0.29,0.59c-0.38,0.79-0.76,1.58-1.14,2.37c-0.3,0.83-0.61,1.66-0.91,2.49
						c-1.1,3.38-1.69,6.96-1.74,10.61c0.05,3.65,0.64,7.24,1.73,10.61c0.31,0.83,0.61,1.66,0.91,2.49c0.38,0.79,0.76,1.59,1.14,2.37
						l0.29,0.59l0.34,0.56l0.68,1.11l0.68,1.11l0.77,1.04l0.77,1.03l0.39,0.51l0.43,0.47c0.57,0.63,1.14,1.26,1.71,1.88
						c1.25,1.13,2.45,2.31,3.82,3.24l0.99,0.74c0.33,0.25,0.7,0.44,1.04,0.66c0.7,0.42,1.38,0.87,2.1,1.25
						c1.46,0.7,2.88,1.45,4.39,1.93c1.46,0.61,3,0.91,4.49,1.32c0.75,0.16,1.52,0.24,2.26,0.37l1.12,0.17
						c0.37,0.05,0.75,0.05,1.12,0.07c0.75,0.04,1.49,0.08,2.23,0.12c0.74,0.01,1.47-0.06,2.19-0.08c1.46-0.01,2.86-0.3,4.26-0.49
						c0.7-0.07,1.36-0.31,2.04-0.46c0.67-0.18,1.34-0.32,1.98-0.53c0.64-0.23,1.27-0.46,1.9-0.69c0.31-0.11,0.62-0.23,0.93-0.34
						c0.3-0.14,0.59-0.28,0.89-0.42c0.59-0.28,1.17-0.56,1.75-0.84c0.58-0.26,1.1-0.64,1.64-0.95c0.53-0.33,1.07-0.64,1.58-0.97
						c0.49-0.37,0.98-0.73,1.46-1.09c3.82-2.89,6.63-6.3,8.57-9.56c1.93-3.27,3.15-6.36,3.75-8.98c0.15-0.65,0.37-1.25,0.44-1.85
						c0.09-0.59,0.18-1.14,0.26-1.65c0.08-0.51,0.17-0.98,0.21-1.41c0.03-0.43,0.05-0.83,0.07-1.18c0.04-0.7,0.08-1.23,0.1-1.61
						C461.75,102.33,461.77,102.14,461.77,102.14s0.01,0.19-0.01,0.55c-0.01,0.38-0.03,0.91-0.06,1.61
						c-0.01,0.36-0.03,0.75-0.05,1.19c-0.04,0.44-0.12,0.91-0.19,1.42c-0.08,0.51-0.16,1.07-0.24,1.66c-0.06,0.6-0.28,1.2-0.42,1.86
						c-0.57,2.63-1.78,5.75-3.7,9.06c-1.94,3.3-4.75,6.74-8.59,9.68c-0.48,0.36-0.97,0.73-1.47,1.1c-0.51,0.34-1.06,0.65-1.59,0.99
						c-0.55,0.31-1.07,0.7-1.66,0.96c-0.58,0.28-1.17,0.57-1.76,0.85c-0.3,0.14-0.6,0.29-0.9,0.43c-0.31,0.11-0.63,0.23-0.94,0.35
						c-0.63,0.23-1.27,0.47-1.91,0.7c-0.65,0.22-1.33,0.36-2,0.54c-0.68,0.16-1.35,0.4-2.06,0.47c-1.41,0.2-2.83,0.5-4.3,0.51
						c-0.73,0.03-1.47,0.1-2.22,0.09c-0.75-0.04-1.5-0.07-2.25-0.11c-0.38-0.03-0.76-0.02-1.14-0.07l-1.14-0.17
						c-0.76-0.12-1.53-0.21-2.29-0.37c-1.5-0.4-3.06-0.71-4.54-1.32c-1.53-0.49-2.97-1.24-4.44-1.95c-0.72-0.39-1.41-0.84-2.12-1.26
						c-0.35-0.22-0.72-0.41-1.05-0.66l-1-0.75c-1.39-0.95-2.6-2.14-3.87-3.28c-0.58-0.63-1.15-1.27-1.73-1.9l-0.44-0.48l-0.39-0.52
						l-0.78-1.04l-0.78-1.05l-0.69-1.12l-0.69-1.13l-0.34-0.57l-0.29-0.6c-0.38-0.8-0.77-1.6-1.16-2.4
						c-0.31-0.84-0.62-1.68-0.93-2.52c-1.11-3.42-1.71-7.05-1.76-10.75c0.05-3.69,0.65-7.33,1.76-10.75
						c0.31-0.84,0.62-1.68,0.93-2.52c0.39-0.8,0.77-1.6,1.16-2.4l0.29-0.6l0.34-0.57l0.69-1.13l0.69-1.12l0.78-1.05l0.78-1.04
						l0.39-0.52l0.44-0.48c0.58-0.64,1.16-1.27,1.73-1.9c1.27-1.14,2.48-2.33,3.87-3.28l1-0.75c0.33-0.25,0.7-0.44,1.05-0.66
						c0.71-0.42,1.4-0.87,2.12-1.26c1.48-0.71,2.92-1.46,4.44-1.94c1.48-0.61,3.04-0.92,4.54-1.32c0.76-0.16,1.53-0.24,2.29-0.37
						l1.14-0.17c0.38-0.05,0.76-0.05,1.14-0.07c0.76-0.04,1.51-0.07,2.25-0.11c0.74-0.01,1.48,0.06,2.22,0.09
						c1.47,0.01,2.89,0.3,4.3,0.51c0.71,0.07,1.38,0.32,2.06,0.47c0.67,0.18,1.35,0.33,2,0.54c0.64,0.24,1.28,0.47,1.91,0.7
						c0.32,0.12,0.63,0.23,0.94,0.35c0.3,0.14,0.6,0.29,0.9,0.43c0.59,0.29,1.18,0.57,1.76,0.85c0.59,0.27,1.11,0.65,1.66,0.96
						c0.54,0.33,1.08,0.65,1.59,0.99c0.49,0.37,0.98,0.74,1.47,1.1c3.84,2.93,6.66,6.38,8.59,9.68c1.92,3.31,3.13,6.43,3.7,9.06
						c0.15,0.66,0.36,1.26,0.42,1.86c0.09,0.59,0.17,1.14,0.24,1.66c0.07,0.51,0.16,0.99,0.19,1.42c0.02,0.44,0.03,0.83,0.05,1.19
						c0.03,0.7,0.05,1.23,0.06,1.61C461.78,101.96,461.77,102.14,461.77,102.14z"/>
				</g>
			</g>
			<g>
				<path style="fill:#FF725E;" d="M415.89,96.34h6.43c0,0,0-5.4,5.61-5.5c2.91-0.05,4.42,1.86,5.04,3.32
					c0.71,1.7,0.5,3.63-0.46,5.21c-1.09,1.8-3.48,3.43-7.81,2.67v9.44h6.36v-3.43c0,0,8.92-2.31,8.92-12.13
					c0-9.4-8.43-11.59-12.04-11.59C425.17,84.33,415.77,85,415.89,96.34z"/>
				<rect x="424.68" y="113.93" style="fill:#FF725E;" width="6.45" height="6.03"/>
			</g>
		</g>
		<g>
			<path style="fill:#FFFFFF;" d="M396.44,131.31c0,2.85-2.31,5.17-5.17,5.17c-2.85,0-5.17-2.31-5.17-5.17
				c0-2.85,2.31-5.17,5.17-5.17C394.12,126.14,396.44,128.45,396.44,131.31z"/>
			<g>
				<path style="fill:#263238;" d="M396.44,131.31c-0.05,0-0.03-0.46-0.24-1.24c-0.21-0.77-0.74-1.89-1.89-2.75
					c-1.12-0.86-2.95-1.34-4.73-0.68c-0.87,0.32-1.71,0.91-2.3,1.74c-0.61,0.81-0.95,1.85-0.96,2.93c0.01,1.08,0.35,2.12,0.96,2.93
					c0.59,0.82,1.43,1.42,2.3,1.74c1.78,0.66,3.61,0.18,4.73-0.68c1.15-0.86,1.68-1.98,1.89-2.75
					C396.41,131.77,396.39,131.31,396.44,131.31c0.01,0,0.02,0.11,0.03,0.33c0.01,0.22-0.02,0.54-0.11,0.95
					c-0.17,0.8-0.67,2-1.87,2.95c-1.16,0.95-3.12,1.51-5.05,0.81c-0.95-0.33-1.86-0.97-2.5-1.86c-0.66-0.88-1.04-2.01-1.05-3.18
					c0.01-1.17,0.39-2.3,1.05-3.18c0.65-0.89,1.55-1.53,2.5-1.86c1.93-0.69,3.89-0.13,5.05,0.81c1.2,0.94,1.7,2.14,1.87,2.95
					c0.09,0.41,0.11,0.73,0.11,0.95C396.46,131.19,396.45,131.31,396.44,131.31z"/>
			</g>
		</g>
	</g>
</g>
<g id="Character_1">
	<g>
		<g>
			<path style="fill:#263238;" d="M208.32,379.87c-10.79-27.04-18.89-45.82-18.89-45.82l-98.69,15c0,0-17.74,45.48-16.2,66.11
				c1.54,20.63,8.76,56.97,8.76,56.97h119.43C202.71,472.13,219.11,406.91,208.32,379.87z"/>
			<g>
				<g>
					<path style="fill:#263238;" d="M172.7,154.35c0.77-7.8,1.94-15.65,4.8-22.95c2.85-7.3,7.53-14.08,14.14-18.3l1.7,1.58
						c1.17-3.35,4.29-5.94,7.8-6.48c3.51-0.54,7.26,1,9.38,3.85c3.79-1.02,8.13,0.53,10.42,3.71c2.29,3.18,2.37,7.79,0.2,11.06
						c3.55,0.45,6.68,3.24,7.53,6.71c0.85,3.47-0.63,7.4-3.56,9.44c3.91,3.38,5.47,9.23,3.75,14.1c-1.71,4.88-6.58,8.47-11.75,8.66
						c1.15,4.49-1.19,9.63-5.33,11.7c-4.14,2.08-9.66,0.88-12.57-2.72c0.36,4.67-3.37,9.09-7.92,10.2
						c-4.55,1.11-9.51-0.73-12.82-4.03c-3.32-3.3-5.14-7.88-5.85-12.51C171.91,163.73,172.24,159.01,172.7,154.35z"/>
					<g>
						<g>
							<g>
								<path style="fill:#FF725E;" d="M193.7,119.78c4.54,1.47,5.47,5.15,6.41,8.21c2.03,6.59-0.25,16.35-3.94,22.18
									c-3.69,5.83-7.74,8.79-14.56,9.78c-0.22-10.47-0.44-20.93-0.67-31.4L193.7,119.78z"/>
							</g>
							<g>
								<g>
									<g>
										<g>
											<path style="fill:#263238;" d="M196.26,137.81c3.1-4.03,2.66-10.35-0.97-13.91c1.99-2.5,1.27-6.35-0.75-8.82
												c-2.02-2.47-5.02-3.89-7.92-5.23c-1.59-7.3-9.79-12.44-17.06-10.69c-3.79-5.57-11.85-6.44-18.31-4.56
												c-1.58,0.46-3.16,1.05-4.8,1.05c-1.21-0.01-2.38-0.33-3.58-0.5c-6.57-0.88-13.1,3.74-15.66,9.86
												c-0.41,0.98-0.75,2.01-1.4,2.85c-0.85,1.1-2.15,1.75-3.25,2.6c-2.38,1.84-3.9,4.76-4.02,7.76
												c-0.11,2.55,0.71,5.26-0.37,7.58c-0.54,1.16-1.51,2.1-1.93,3.31c-1.22,3.51,2.67,7.09,1.95,10.73
												c-0.15,0.74-0.48,1.43-0.69,2.16c-0.42,1.49-0.28,3.13,0.39,4.53c0.52,1.08,1.36,2.06,1.43,3.26
												c0.05,0.91-0.35,1.77-0.53,2.66c-0.44,2.17,4.25,10.56,6.12,11.74l56.13,0.5c4.25-0.87,7.71-4.72,8.12-9.03
												c0.07-0.72,0.08-1.5,0.52-2.06c0.38-0.48,0.99-0.71,1.53-1c3.61-1.94,4.05-6.9,3.67-10.99
												c-0.05-0.57-0.11-1.16,0.03-1.71C195.15,139.1,195.75,138.47,196.26,137.81z"/>
										</g>
									</g>
									<g>
										<g>
											<path style="fill:#FFBF9D;" d="M180.18,137.89c0.17-9.93-6.06-21.35-15.93-26.21c-6.22-3.06-11.07-3.08-14.34-3.46
												c-7.33-0.85-13.24,2.78-13.24,2.78c-3.09,0.73-14.43,11.11-15.02,22.37c-0.65,12.52-0.96,27.82,0.62,37.14
												c3.18,18.73,17.59,20.97,17.59,20.97c0-0.03-1.34,31.14-1.34,31.14l27.69,22.69l8.46-37.26L180.18,137.89z"/>
										</g>
									</g>
									<g>
										<g>
											<g>
												<g>
													<g>
														<g>
															<path style="fill:#FF9A6C;" d="M139.86,191.47c0,0,12.72,0.68,25.14-6.97c0,0-6.55,13.3-25.35,11.74L139.86,191.47z"
																/>
														</g>
													</g>
												</g>
											</g>
										</g>
									</g>
									<g>
										<g>
											<g>
												<g>
													<g>
														<g>
															<path style="fill:#FFBF9D;" d="M177.35,155.7c-0.01-1.4,1.57-4.71,2.95-4.94c3.68-0.61,10.32-0.39,10.49,8.97
																c0.22,12.79-12.34,9.94-12.7,10.01C176.05,170.16,177.39,160.53,177.35,155.7z"/>
														</g>
													</g>
												</g>
											</g>
										</g>
									</g>
									<g>
										<g>
											<g>
												<g>
													<g>
														<g>
															<g>
																<path style="fill:#FF9A6C;" d="M181.53,165.01c0.06-0.04,0.23,0.15,0.6,0.32c0.37,0.16,1,0.27,1.67,0.01
																	c1.34-0.52,2.44-2.68,2.47-4.99c0.01-1.17-0.25-2.27-0.68-3.18c-0.41-0.93-1.02-1.57-1.71-1.68
																	c-0.68-0.15-1.15,0.27-1.3,0.63c-0.17,0.36-0.08,0.62-0.15,0.64c-0.04,0.03-0.28-0.21-0.18-0.74
																	c0.05-0.26,0.19-0.56,0.49-0.81c0.3-0.25,0.75-0.39,1.23-0.35c0.99,0.05,1.89,0.94,2.36,1.94
																	c0.53,1,0.85,2.24,0.83,3.55c-0.04,2.58-1.31,5.01-3.16,5.58c-0.9,0.25-1.65-0.01-2.04-0.3
																	C181.56,165.32,181.49,165.03,181.53,165.01z"/>
															</g>
														</g>
													</g>
												</g>
											</g>
										</g>
									</g>
									<path style="fill:#263238;" d="M118.9,131.47c0.41-4.65,2.26-9.05,4.5-13.14c1.55-2.83,3.34-5.59,5.78-7.71
										c2.04-1.76,4.47-3.01,6.91-4.17c6.41-3.04,13.56-5.62,20.48-4.06c3.71,0.84,7.06,2.81,10.31,4.79
										c2.49,1.52,5,3.07,7.09,5.11c1.83,1.79,3.31,3.91,4.6,6.12c3.1,5.26,5.28,11.14,5.7,17.23c0.42,6.09,5.03,11.47,1.46,16.42
										c-0.28,0.38-6.63,1.7-7.07,1.87c-1.03,0.41-2.17-0.71-2.16-1.82c0.01-1.11,0.77-2.07,1.6-2.82
										c-1.58-0.05-2.67-1.82-2.57-3.4c0.1-1.58,1.04-2.97,1.98-4.25c0.12-0.17,0.25-0.34,0.28-0.55
										c0.07-0.54-0.54-0.87-1.01-1.15c-2.28-1.35-2.53-5.1-0.46-6.74c-3.05-0.71-5.03-4.38-3.94-7.31
										c0.17-0.46,0.41-0.99,0.18-1.43c-0.21-0.43-0.74-0.56-1.2-0.69c-3.38-1-5.65-4.82-4.91-8.26
										c-1.78,0.09-3.58,0.18-5.31-0.24c-1.73-0.42-3.4-1.43-4.19-3.02c-1.13,2.04-3.36,3.43-5.69,3.56
										c-2.33,0.13-4.69-1.02-6.03-2.93c-2.98,0.28-6.03-0.19-8.78-1.36c-0.68,2.78-2.87,5.13-5.58,6.01
										c-0.53,0.17-1.13,0.34-1.39,0.83c-0.16,0.31-0.14,0.69-0.12,1.04c0.09,1.79-1.12,2.55-2.11,4.04
										c-0.98,1.49-2.7,3.72-4.42,3.22c0.19,3.04-1.44,5.26-4,6.9L118.9,131.47z"/>
									<g>
										<g>
											<path style="fill:#455A64;" d="M116.25,129.12c0,0,0.12-0.53,0.68-1.38c0.27-0.43,0.65-0.93,1-1.57
												c0.35-0.64,0.62-1.45,0.7-2.4c0.09-0.94,0.01-2.01-0.08-3.16c-0.09-1.16-0.19-2.44,0.07-3.8
												c0.24-1.35,0.78-2.75,1.65-4.05c0.43-0.65,0.95-1.26,1.56-1.83c0.6-0.57,1.3-1.04,2.01-1.52c0.7-0.48,1.41-1,1.93-1.69
												c0.52-0.7,0.85-1.55,1.19-2.42c0.69-1.75,1.71-3.46,3.06-4.97c1.35-1.51,2.99-2.88,4.92-3.86c0.95-0.52,2-0.87,3.07-1.18
												c1.09-0.24,2.21-0.44,3.36-0.41c0.57-0.01,1.15,0.07,1.72,0.12c0.57,0.08,1.14,0.2,1.7,0.3
												c1.13,0.21,2.28,0.24,3.42-0.03c1.14-0.24,2.26-0.66,3.44-0.96c1.17-0.33,2.39-0.53,3.62-0.67
												c1.23-0.14,2.49-0.14,3.75-0.07c1.26,0.09,2.52,0.32,3.76,0.66c2.45,0.73,4.84,2.08,6.48,4.19
												c0.16,0.21,0.32,0.42,0.48,0.63l-0.2-0.08c3.86-0.93,7.91,0.08,11.03,2.13c3.15,2.04,5.49,5.21,6.25,8.7l-0.1-0.13
												c1.55,0.72,3.09,1.44,4.51,2.33c1.41,0.88,2.71,1.94,3.69,3.24c0.97,1.31,1.56,2.85,1.7,4.4
												c0.15,1.55-0.24,3.15-1.19,4.34l-0.01-0.21c1.84,1.82,2.78,4.24,3,6.54c0.22,2.31-0.25,4.57-1.28,6.37
												c-0.23,0.46-0.55,0.87-0.84,1.27c-0.31,0.39-0.62,0.76-0.87,1.15c-0.25,0.39-0.41,0.82-0.44,1.26
												c-0.04,0.44,0.01,0.89,0.05,1.33c0.15,1.76,0.12,3.4-0.1,4.86c-0.22,1.45-0.63,2.73-1.23,3.71
												c-0.58,0.99-1.32,1.67-1.97,2.09c-0.66,0.44-1.24,0.62-1.56,0.85c-0.33,0.22-0.45,0.4-0.46,0.39c0,0,0.1-0.19,0.43-0.43
												c0.32-0.26,0.9-0.45,1.54-0.9c0.64-0.43,1.35-1.11,1.9-2.08c0.57-0.97,0.96-2.23,1.17-3.66c0.2-1.44,0.22-3.06,0.05-4.81
												c-0.04-0.44-0.1-0.89-0.06-1.37c0.03-0.48,0.21-0.95,0.47-1.37c0.26-0.42,0.58-0.79,0.88-1.18
												c0.28-0.4,0.58-0.79,0.81-1.25c0.99-1.76,1.44-3.96,1.21-6.21c-0.22-2.24-1.15-4.6-2.93-6.34l-0.1-0.1l0.09-0.11
												c0.89-1.11,1.25-2.62,1.1-4.11c-0.14-1.49-0.71-2.97-1.65-4.22c-0.94-1.25-2.21-2.28-3.6-3.15
												c-1.39-0.87-2.92-1.58-4.47-2.3l-0.08-0.04l-0.02-0.09c-0.74-3.39-3.02-6.47-6.1-8.46c-3.05-2-7-2.97-10.74-2.08
												l-0.12,0.03l-0.08-0.11c-0.15-0.2-0.31-0.4-0.46-0.6c-1.57-2.04-3.89-3.36-6.28-4.07c-1.21-0.34-2.44-0.55-3.68-0.65
												c-1.24-0.07-2.47-0.07-3.68,0.06c-1.21,0.14-2.41,0.33-3.56,0.66c-1.16,0.3-2.29,0.72-3.47,0.96
												c-0.59,0.12-1.19,0.2-1.79,0.2c-0.6,0-1.19-0.08-1.77-0.18c-0.57-0.1-1.14-0.21-1.7-0.3c-0.56-0.05-1.12-0.13-1.68-0.12
												c-1.12-0.03-2.21,0.16-3.27,0.39c-1.04,0.3-2.07,0.64-3,1.15c-1.9,0.95-3.51,2.29-4.84,3.77
												c-1.34,1.48-2.34,3.16-3.03,4.87c-0.35,0.86-0.68,1.74-1.24,2.48c-0.56,0.74-1.3,1.27-2,1.75
												c-0.71,0.48-1.4,0.94-1.99,1.49c-0.59,0.54-1.1,1.14-1.53,1.77c-0.86,1.26-1.39,2.63-1.64,3.95
												c-0.26,1.32-0.18,2.59-0.1,3.75c0.08,1.16,0.16,2.23,0.05,3.19c-0.08,0.96-0.38,1.79-0.75,2.44
												c-0.37,0.64-0.76,1.13-1.04,1.55c-0.28,0.41-0.47,0.75-0.58,0.98C116.31,129,116.26,129.13,116.25,129.12z"/>
										</g>
									</g>
									<g>
										<g>
											<path style="fill:#455A64;" d="M163.55,96.4c-0.02,0.03-0.34-0.19-0.96-0.49c-0.62-0.29-1.57-0.66-2.8-0.79
												c-1.22-0.14-2.72-0.02-4.2,0.65c-1.47,0.66-2.89,1.87-3.8,3.5c-0.26,0.47-0.48,0.97-0.62,1.45
												c-0.13,0.48-0.15,1,0.1,1.35l0.32,0.43l-0.52-0.14c-1.42-0.39-2.88-0.11-3.95,0.5c-1.09,0.61-1.78,1.55-2.15,2.38
												c-0.38,0.85-0.47,1.6-0.48,2.11c-0.01,0.51,0.03,0.79,0,0.8c-0.01,0-0.03-0.07-0.06-0.2c-0.03-0.13-0.06-0.33-0.07-0.6
												c-0.02-0.52,0.03-1.31,0.39-2.21c0.36-0.89,1.06-1.9,2.21-2.57c1.13-0.67,2.68-0.99,4.21-0.58l-0.2,0.29
												c-0.36-0.5-0.31-1.14-0.17-1.67c0.15-0.54,0.38-1.04,0.66-1.54c0.95-1.71,2.45-2.96,3.99-3.63
												c1.56-0.68,3.13-0.77,4.38-0.59c1.26,0.17,2.22,0.59,2.83,0.93c0.31,0.17,0.54,0.32,0.68,0.44
												C163.48,96.33,163.56,96.39,163.55,96.4z"/>
										</g>
									</g>
									<g>
										<g>
											<path style="fill:#455A64;" d="M184.42,110.93c0.02,0.02-0.13,0.19-0.44,0.46c-0.31,0.27-0.78,0.65-1.44,1.02
												c-0.66,0.36-1.52,0.72-2.55,0.79c-1.01,0.07-2.22-0.15-3.18-0.94l0.28-0.05c-0.12,0.17-0.25,0.35-0.37,0.53
												c-0.14,0.17-0.29,0.34-0.43,0.51c-0.93,0.98-2.07,1.66-3.18,2.01c-1.11,0.37-2.17,0.47-3.05,0.41
												c-0.88-0.06-1.56-0.27-2.02-0.44c-0.45-0.2-0.68-0.33-0.67-0.35c0.03-0.08,0.99,0.46,2.7,0.52
												c0.85,0.03,1.86-0.1,2.92-0.47c1.05-0.36,2.13-1.01,3.02-1.94c0.14-0.16,0.28-0.32,0.41-0.48
												c0.12-0.17,0.24-0.34,0.35-0.5l0.12-0.18l0.16,0.13c0.86,0.71,1.97,0.94,2.92,0.89c0.96-0.04,1.8-0.35,2.45-0.67
												C183.72,111.51,184.38,110.87,184.42,110.93z"/>
										</g>
									</g>
									<g>
										<g>
											<path style="fill:#455A64;" d="M191.28,122.74c0.01,0,0,0.08-0.03,0.24c-0.04,0.15-0.12,0.37-0.28,0.62
												c-0.31,0.5-1.01,1.12-2.05,1.39c-1.05,0.28-2.36,0.08-3.66-0.37c-0.65-0.23-1.33-0.46-2.03-0.78
												c-0.68-0.32-1.41-0.79-1.78-1.6c-0.03-0.07-0.06-0.14-0.08-0.21l0.3,0.09c-1.22,0.97-2.49,1.82-3.78,2.31
												c-1.28,0.51-2.57,0.6-3.59,0.4c-1.03-0.19-1.79-0.61-2.22-0.99c-0.22-0.18-0.38-0.35-0.47-0.47
												c-0.09-0.12-0.14-0.19-0.13-0.19c0.03-0.02,0.23,0.22,0.68,0.55c0.45,0.33,1.19,0.7,2.17,0.84
												c0.98,0.15,2.19,0.04,3.42-0.46c1.23-0.49,2.45-1.32,3.67-2.28l0.2-0.16l0.1,0.25c0.02,0.05,0.04,0.11,0.07,0.17
												c0.3,0.66,0.95,1.1,1.59,1.41c0.65,0.31,1.34,0.55,1.98,0.78c1.27,0.46,2.5,0.67,3.48,0.44
												c0.99-0.22,1.66-0.76,1.99-1.21C191.19,123.06,191.24,122.73,191.28,122.74z"/>
										</g>
									</g>
								</g>
							</g>
						</g>
						<g>
							<g>
								<g>
									<g>
										<g>
											<g>
												<g>
													<g>
														<g>
															<path style="fill:#263238;" d="M149.97,148.72c-0.08,1.25,0.9,2.35,2.2,2.46c1.3,0.11,2.42-0.81,2.51-2.05
																c0.08-1.25-0.9-2.35-2.2-2.46C151.18,146.55,150.05,147.47,149.97,148.72z"/>
														</g>
													</g>
												</g>
											</g>
										</g>
									</g>
								</g>
							</g>
						</g>
						<g>
							<g>
								<g>
									<g>
										<g>
											<g>
												<g>
													<g>
														<g>
															<path style="fill:#263238;" d="M127.04,148.09c-0.08,1.25,0.9,2.35,2.2,2.46c1.3,0.11,2.42-0.81,2.51-2.05
																c0.08-1.25-0.9-2.35-2.2-2.46C128.25,145.92,127.12,146.84,127.04,148.09z"/>
														</g>
													</g>
												</g>
											</g>
										</g>
									</g>
								</g>
							</g>
						</g>
						<g>
							<g>
								<g>
									<g>
										<g>
											<g>
												<g>
													<g>
														<g>
															<g>
																<path style="fill:#263238;" d="M126.11,140.24c0.28,0.32,2.12-0.95,4.66-0.86c2.54,0.05,4.37,1.42,4.66,1.12
																	c0.14-0.13-0.14-0.7-0.93-1.32c-0.78-0.62-2.13-1.23-3.72-1.28c-1.59-0.04-2.94,0.5-3.72,1.07
																	C126.25,139.55,125.97,140.1,126.11,140.24z"/>
															</g>
														</g>
													</g>
												</g>
											</g>
										</g>
									</g>
								</g>
							</g>
						</g>
						<g>
							<g>
								<g>
									<g>
										<g>
											<g>
												<g>
													<g>
														<g>
															<g>
																<path style="fill:#263238;" d="M151.42,141.51c0.32,0.29,2.01-1.16,4.55-1.34c2.54-0.21,4.49,0.96,4.75,0.63
																	c0.12-0.15-0.21-0.68-1.07-1.22c-0.84-0.53-2.24-1.01-3.83-0.89c-1.58,0.12-2.87,0.8-3.6,1.45
																	C151.5,140.81,151.27,141.38,151.42,141.51z"/>
															</g>
														</g>
													</g>
												</g>
											</g>
										</g>
									</g>
								</g>
							</g>
						</g>
						<g>
							<g>
								<g>
									<g>
										<g>
											<g>
												<g>
													<g>
														<g>
															<path style="fill:#263238;" d="M141.93,160.62c0.02-0.14-1.56-0.47-4.11-0.88c-0.65-0.09-1.26-0.24-1.35-0.68
																c-0.14-0.47,0.16-1.17,0.5-1.91c0.66-1.55,1.35-3.18,2.08-4.89c2.9-6.96,5.02-12.7,4.73-12.81
																c-0.28-0.11-2.86,5.44-5.75,12.4c-0.7,1.72-1.37,3.35-2,4.92c-0.27,0.73-0.72,1.56-0.42,2.54
																c0.16,0.49,0.63,0.86,1.04,0.99c0.41,0.14,0.78,0.16,1.1,0.19C140.31,160.7,141.91,160.77,141.93,160.62z"/>
														</g>
													</g>
												</g>
											</g>
										</g>
									</g>
								</g>
							</g>
						</g>
						<path style="fill:#FF9A6C;" d="M145.87,164.41c0.95,0.13,1.91,0.63,2.46,1.43c0.56,0.8,0.96,2.67,0.41,3.39
							c-0.47,0.62-2.57,0.62-4.02,0.44c-0.67-0.08-1.23-0.55-1.45-1.19l-0.57-1.64c-0.33-0.94,0.16-1.99,1.11-2.28
							C144.45,164.35,145.16,164.31,145.87,164.41z"/>
						<g>
							<g>
								<g>
									<g>
										<g>
											<path style="fill:#263238;" d="M150.26,132.22c0.38,0.63,2.81-0.18,5.81-0.39c3-0.28,5.53,0.12,5.8-0.57
												c0.12-0.33-0.42-0.88-1.5-1.36c-1.08-0.47-2.71-0.8-4.51-0.66c-1.8,0.15-3.36,0.74-4.34,1.39
												C150.53,131.27,150.1,131.91,150.26,132.22z"/>
										</g>
									</g>
								</g>
							</g>
						</g>
						<g>
							<g>
								<g>
									<g>
										<g>
											<path style="fill:#263238;" d="M126.73,136.06c0.53,0.56,2.55-0.09,4.99-0.18c2.44-0.17,4.52,0.27,4.98-0.35
												c0.2-0.3-0.14-0.87-1.06-1.39c-0.91-0.52-2.41-0.93-4.08-0.84c-1.68,0.09-3.12,0.65-3.95,1.27
												C126.76,135.18,126.5,135.78,126.73,136.06z"/>
										</g>
									</g>
								</g>
							</g>
						</g>
					</g>
				</g>
				<g>
					<g>
						<path style="fill:#455A64;" d="M214.47,241.79l-24.02,87.13l8.43,24.97c-31.72,13.98-77.57,18.42-113.72,0.91
							c0,0,12.28-36.02,12.69-43.04c0.42-7.01-2.6-47.98,0.74-61.72c3.34-13.74,12.91-43.18,12.91-43.18l28.14-4.47
							c12.9,6.93,21.16,7.96,35.03-0.07l26.21,5.72L214.47,241.79z"/>
					</g>
					<g>
						<path style="fill:#455A64;" d="M111.92,206.82c0,0-15.11,1.6-21.19,14.03c-6.01,12.28-22.69,66.61-23.6,75.69
							c-0.91,9.08,6.46,21.3,12.88,22.98l19.47-19.41l16.15,1.44l21.27-99.22L111.92,206.82z"/>
					</g>
					<g style="opacity:0.3;">
						<g>
							<path d="M100.52,240.19c-4.7,12.19-6.03,25.65-3.8,38.52c-3.55-1.32-7.09-2.65-10.64-3.97c2.9,4,6.71,7.34,11.05,9.69
								c-2.87-0.83-5.81-1.67-8.79-1.47c-2.98,0.19-6.06,1.63-7.4,4.3c3.48-0.64,7.02-1.27,10.53-0.86
								c3.51,0.41,7.05,2.03,8.94,5.02c-2.62-11.32-3.63-23.01-2.99-34.61"/>
						</g>
					</g>
				</g>
				<g>
					<g style="opacity:0.3;">
						<g>
							<path d="M96.1,314.92l79.29,7.86c-5.72-0.12-10.11,4.72-15.06,7.58c-9.16,5.3-20.57,3.82-31.03,2.17
								c-8.66-1.36-17.33-2.73-25.99-4.09c-2.19-0.34-4.52-0.76-6.13-2.27C94.3,323.45,95.09,318.75,96.1,314.92z"/>
						</g>
					</g>
					<g>
						<path style="fill:#FFBF9D;" d="M156.66,308.4l13.28-12.82c1.29-1.24,3.05-1.86,4.84-1.7c3.79,0.36,10.21,1.02,11.53,1.54
							c1.9,0.74,3.69,1.79,4.22,2.74c0.53,0.95,2.32,6.65,2.43,7.49c0.05,0.41-0.07,1.59-0.21,2.7c-0.17,1.31-1.61,2.08-2.75,1.43
							c-0.52-0.29-0.99-0.68-1.25-1.18c-0.84-1.58-0.74-2.22-0.74-2.22s0.42,5.7-4.22,5.8c0,0,2.14,4.85-3.84,6.86
							c0,0,0.22,3.16-4.78,3.59c-5,0.42-9.53,0-9.53,0s-9.13,6.56-15.57,6.98c-6.44,0.42-20.84-2.39-20.84-2.39l-1.74-26.54
							L156.66,308.4z"/>
					</g>
					<g>
						<g>
							<path style="fill:#FF9A6C;" d="M174.65,300.27c-0.02,0.05,0.79,0.39,2.13,0.89c1.33,0.5,3.19,1.16,5.29,1.72
								c1.04,0.3,2.09,0.46,2.97,0.7c0.89,0.24,1.42,0.9,1.81,1.48c0.39,0.59,0.69,1.09,0.96,1.39c0.26,0.31,0.45,0.44,0.46,0.42
								c0.02-0.02-0.13-0.18-0.35-0.51c-0.23-0.32-0.49-0.83-0.86-1.44c-0.19-0.31-0.41-0.64-0.72-0.95
								c-0.31-0.31-0.73-0.56-1.2-0.71c-0.93-0.27-1.93-0.44-2.98-0.74c-2.09-0.56-3.95-1.18-5.3-1.62
								C175.51,300.48,174.66,300.22,174.65,300.27z"/>
						</g>
					</g>
					<g>
						<g>
							<path style="fill:#FF9A6C;" d="M172.94,308.4c-0.02,0.05,0.55,0.31,1.48,0.68c0.93,0.37,2.23,0.86,3.68,1.34
								c1.45,0.49,2.78,0.88,3.75,1.14c0.97,0.26,1.58,0.39,1.59,0.34c0.01-0.05-0.57-0.26-1.52-0.58
								c-1.08-0.36-2.33-0.78-3.71-1.24c-1.38-0.46-2.63-0.88-3.71-1.24C173.55,308.53,172.96,308.36,172.94,308.4z"/>
						</g>
					</g>
					<g>
						<g>
							<path style="fill:#FF9A6C;" d="M169.66,315.97c-0.01,0.11,2.31,0.35,5.07,1.1c2.77,0.74,4.9,1.7,4.94,1.6
								c0.02-0.04-0.49-0.34-1.35-0.72c-0.87-0.39-2.09-0.85-3.49-1.23c-1.4-0.38-2.69-0.59-3.63-0.7
								C170.25,315.92,169.66,315.92,169.66,315.97z"/>
						</g>
					</g>
					<g>
						<path style="fill:#455A64;" d="M138.91,328.92l-58.9-9.4c0,0,7.08-29.54,17.4-29.54c1.51,0,53.83,17,53.83,17L138.91,328.92z"
							/>
					</g>
					<g>
						<g>
							<path style="fill:#FF9A6C;" d="M149.21,316.05c0.04,0.03,0.55-0.46,1.38-1.26c0.91-0.89,2.01-1.97,3.22-3.16
								c1.25-1.24,2.37-2.39,3.15-3.24c0.78-0.85,1.24-1.41,1.2-1.44c-0.04-0.03-0.55,0.46-1.38,1.26
								c-0.91,0.89-2.01,1.97-3.22,3.16c-1.25,1.24-2.36,2.39-3.15,3.24C149.63,315.47,149.18,316.02,149.21,316.05z"/>
						</g>
					</g>
				</g>
				<g>
					<path style="fill:#263238;" d="M151.24,306.97c-0.01,0.03-0.27-0.02-0.75-0.14c-0.58-0.15-1.27-0.34-2.1-0.56
						c-1.94-0.56-4.53-1.3-7.67-2.21c-6.47-1.9-15.39-4.58-25.23-7.59c-5.45-1.68-10.61-3.27-15.19-4.69l-0.12-0.04l-0.09-0.12
						c-1.8-2.43-4.47-3.91-6.86-4.64c-2.44-0.74-4.72-0.83-6.57-0.67c-1.85,0.15-3.28,0.56-4.24,0.85
						c-0.96,0.31-1.46,0.53-1.48,0.49c-0.02-0.04,0.45-0.33,1.39-0.72c0.95-0.37,2.38-0.85,4.28-1.07c1.88-0.24,4.24-0.21,6.79,0.51
						c2.53,0.74,5.3,2.16,7.32,4.83l-0.21-0.16c4.59,1.39,9.76,2.96,15.21,4.61c9.84,3.01,18.73,5.78,25.15,7.83
						c3.11,1.01,5.67,1.84,7.6,2.46c0.81,0.28,1.49,0.52,2.05,0.71C151.01,306.84,151.25,306.94,151.24,306.97z"/>
				</g>
			</g>
			<g>
				<g>
					<g>
						<g>
							<path style="fill:#FFBF9D;" d="M135.64,212.54c0.49-1.64,3.26-16.77,4.38-20.29c1.59-4.97,14.49-13.84,14.49-13.84
								s-2.02-4.66-7.52-2.24c-6.5,2.87-9.72,7.7-11.36,6.71c-1.64-0.98-11.85-11.38-14.64-11.05c-2.78,0.33-3.4,3.19-2.41,4.33
								c0.98,1.15,2.09,3.04,2.09,3.04s-5.9-1.77-4.75,4.68c0,0-6.72-4.19-6.06,4.66c0,0-4.42-1.8-5.41,1.31
								c-0.98,3.11,1.93,6.72,3.41,9.17c1.47,2.46,6.26,16.71,6.26,16.71l0.06,12.57l23.49-4.83L135.64,212.54z"/>
							<g>
								<path style="fill:#FF9A6C;" d="M135.64,212.54c0.02,0,0.08,0.25,0.19,0.72c0.11,0.53,0.26,1.22,0.44,2.11
									c0.38,1.9,0.91,4.61,1.59,8.07l0.04,0.19l-0.19,0.04c-5.8,1.22-13.82,2.92-23.46,4.95l-0.39,0.08l0-0.4
									c-0.03-3.87-0.06-8.1-0.09-12.57l0.02,0.11c-1.68-4.83-3.42-10.03-5.61-15.29c-1.07-2.53-3.3-4.73-4.1-7.8
									c-0.2-0.76-0.29-1.58-0.16-2.4c0.12-0.79,0.5-1.69,1.27-2.19c0.76-0.5,1.65-0.61,2.46-0.55c0.82,0.06,1.6,0.24,2.38,0.53
									l-0.57,0.42c-0.03-0.86-0.07-1.74,0.06-2.65c0.16-0.88,0.36-1.87,1.12-2.61c0.74-0.78,1.9-0.95,2.84-0.78
									c0.97,0.16,1.84,0.5,2.68,1l-0.64,0.43c-0.16-1.19-0.36-2.63,0.44-3.94c0.5-0.82,1.43-1.29,2.29-1.41
									c0.88-0.13,1.72-0.04,2.56,0.18l-0.49,0.62c-0.59-0.98-1.22-1.97-1.92-2.84c-0.45-0.45-0.69-1.24-0.66-1.88
									c0.03-0.66,0.26-1.3,0.64-1.84c0.38-0.54,0.92-0.95,1.52-1.18c0.3-0.11,0.61-0.2,0.92-0.24c0.3-0.04,0.72,0,1.02,0.09
									c1.21,0.39,2.13,1.07,3.06,1.72c3.66,2.68,6.8,5.75,9.97,8.52c0.38,0.31,0.84,0.75,1.12,0.82c0.28,0.09,0.76-0.13,1.16-0.37
									c0.84-0.52,1.64-1.19,2.44-1.81c1.6-1.27,3.26-2.46,5-3.44c1.73-0.91,3.55-1.92,5.6-1.84c2.06,0.04,3.83,1.41,4.65,3.14
									l0.12,0.25l-0.24,0.17c-5.03,3.57-9.55,7.09-12.74,10.88c-0.8,0.95-1.42,1.96-1.77,3.03c-0.33,1.1-0.58,2.2-0.83,3.25
									c-0.46,2.1-0.89,4.04-1.27,5.78c-0.74,3.45-1.32,6.17-1.73,8.09c-0.21,0.93-0.37,1.64-0.5,2.11
									C135.74,212.3,135.64,212.54,135.64,212.54c-0.02,0,0.04-0.25,0.13-0.73c0.1-0.53,0.23-1.24,0.4-2.13
									c0.37-1.93,0.88-4.66,1.54-8.13c0.36-1.76,0.76-3.7,1.19-5.81c0.23-1.06,0.47-2.16,0.8-3.29c0.36-1.16,1.03-2.25,1.83-3.22
									c3.24-3.91,7.74-7.46,12.79-11.1l-0.12,0.42c-0.72-1.48-2.28-2.68-4.04-2.7c-1.77-0.08-3.51,0.86-5.2,1.77
									c-1.69,0.96-3.29,2.12-4.88,3.4c-0.81,0.63-1.59,1.3-2.52,1.88c-0.47,0.25-1,0.62-1.77,0.46c-0.72-0.27-0.99-0.65-1.44-0.99
									c-3.2-2.79-6.34-5.84-9.93-8.45c-0.89-0.63-1.84-1.28-2.81-1.59c-0.24-0.05-0.41-0.09-0.66-0.06
									c-0.25,0.03-0.5,0.11-0.73,0.19c-0.46,0.18-0.87,0.49-1.15,0.9c-0.57,0.79-0.71,1.99-0.02,2.69c0.76,0.94,1.39,1.92,2,2.95
									l0.53,0.89l-1.02-0.27c-1.37-0.37-3.17-0.33-3.89,0.87c-0.6,0.92-0.48,2.23-0.32,3.33l0.13,0.88l-0.77-0.45
									c-0.72-0.42-1.56-0.75-2.36-0.88c-0.81-0.14-1.62,0-2.12,0.54c-1.04,1.12-1.01,3.02-0.94,4.6l0.03,0.64l-0.6-0.22
									c-1.32-0.48-2.98-0.77-4.05-0.07c-0.53,0.34-0.81,0.96-0.93,1.64c-0.11,0.67-0.04,1.38,0.14,2.06
									c0.36,1.37,1.08,2.65,1.84,3.88c0.75,1.22,1.65,2.43,2.2,3.81c2.2,5.33,3.91,10.51,5.57,15.37l0.02,0.06l0,0.06
									c0.01,4.46,0.01,8.7,0.02,12.57l-0.39-0.32c9.66-1.93,17.7-3.54,23.51-4.7l-0.15,0.23c-0.6-3.49-1.08-6.22-1.41-8.14
									c-0.14-0.89-0.26-1.59-0.34-2.11C135.65,212.78,135.62,212.54,135.64,212.54z"/>
							</g>
						</g>
					</g>
					<g>
						<g>
							<path style="fill:#FF9A6C;" d="M120.69,179.36c-0.06,0.08,1.26,1.21,2.85,2.66c1.59,1.44,2.84,2.66,2.92,2.59
								c0.07-0.06-1.08-1.4-2.68-2.85C122.18,180.3,120.75,179.28,120.69,179.36z"/>
						</g>
					</g>
					<g>
						<g>
							<path style="fill:#FF9A6C;" d="M115.44,183.52c-0.08,0.04,0.42,1.31,1.45,2.62c1.02,1.32,2.13,2.13,2.18,2.05
								c0.07-0.08-0.91-0.98-1.9-2.27C116.17,184.65,115.53,183.48,115.44,183.52z"/>
						</g>
					</g>
					<g>
						<g>
							<path style="fill:#FF9A6C;" d="M109.95,188.21c-0.08,0.06,0.47,0.96,1.23,2.01c0.76,1.06,1.44,1.86,1.52,1.81
								c0.08-0.06-0.47-0.96-1.23-2.01C110.71,188.96,110.03,188.15,109.95,188.21z"/>
						</g>
					</g>
				</g>
			</g>
			<path style="fill:#455A64;" d="M200.87,208.04l-25.26,25.2l-25.91,32.56l-10.31-43.39l-26.33,5.41c0,0,1.86,49.01,9.96,71.22
				c1.54,4.23,6.1,7.37,8.14,8.34c12.73,6.05,25.16-3.31,25.16-3.31s53.11-35.65,58.87-59.51c2.72-11.27,1.63-24.67-3-30.18
				C208.11,209.54,200.87,208.04,200.87,208.04z"/>
			<g>
				<path style="fill:#263238;" d="M215.19,244.57c0,0-0.06,0.26-0.2,0.77c-0.17,0.5-0.3,1.28-0.71,2.23
					c-0.67,1.95-2.04,4.69-4.17,7.97c-2.14,3.28-5.09,7.07-8.84,11.18c-3.76,4.09-8.27,8.54-13.51,13.18
					c-5.22,4.65-11.15,9.51-17.69,14.5c-3.27,2.49-6.69,5.02-10.27,7.55c-0.9,0.63-1.8,1.26-2.72,1.89
					c-0.9,0.62-1.85,1.28-2.83,1.83c-1.97,1.12-4.08,2.06-6.31,2.75c-4.42,1.43-9.42,1.72-14.11,0.27c-0.6-0.14-1.15-0.43-1.72-0.64
					c-0.57-0.23-1.15-0.44-1.69-0.76c-1.09-0.6-2.1-1.33-3.07-2.12c-1.9-1.6-3.63-3.56-4.56-5.98c-1.68-4.77-2.89-9.76-3.95-14.85
					c-0.97-5.11-1.86-10.31-2.54-15.6c-1.86-14.12-2.91-27.88-3.51-40.9l-0.01-0.21l0.21-0.04c9.19-1.88,18-3.69,26.34-5.4
					l0.22-0.05l0.05,0.22c3.89,16.48,7.36,31.15,10.25,43.4l-0.3-0.08c8.89-9.57,16.03-17.25,20.96-22.55
					c2.46-2.63,4.37-4.67,5.67-6.06c0.64-0.68,1.13-1.2,1.48-1.56c0.33-0.35,0.51-0.52,0.51-0.52s-0.16,0.19-0.48,0.55
					c-0.33,0.37-0.81,0.9-1.44,1.59c-1.29,1.41-3.17,3.47-5.6,6.12c-4.9,5.33-12,13.04-20.84,22.66l-0.23,0.25l-0.08-0.33
					c-2.92-12.24-6.43-26.9-10.36-43.37l0.27,0.17c-8.34,1.72-17.14,3.53-26.33,5.43l0.2-0.26c0.61,13.01,1.67,26.76,3.52,40.85
					c0.67,5.29,1.56,10.47,2.53,15.57c1.06,5.07,2.26,10.05,3.92,14.77c0.88,2.3,2.55,4.21,4.4,5.77c0.94,0.77,1.93,1.49,2.98,2.07
					c0.51,0.3,1.09,0.5,1.64,0.73c0.56,0.2,1.1,0.49,1.68,0.63c4.58,1.42,9.47,1.15,13.82-0.25c2.19-0.68,4.27-1.6,6.22-2.7
					c0.98-0.55,1.87-1.17,2.8-1.81c0.91-0.63,1.82-1.26,2.71-1.88c3.58-2.52,7-5.03,10.27-7.52c6.54-4.97,12.48-9.8,17.71-14.43
					c5.25-4.61,9.77-9.03,13.54-13.1c3.76-4.08,6.72-7.84,8.88-11.09c2.14-3.26,3.54-5.97,4.24-7.9c0.43-0.94,0.57-1.71,0.76-2.21
					C215.09,244.83,215.19,244.57,215.19,244.57z"/>
			</g>
			<g>
				<path style="fill:#263238;" d="M154.49,285.73c-0.09-0.02,0.22-1.27,0.38-3.33c0.1-1.03,0.08-2.26,0.01-3.61
					c-0.11-1.36-0.34-2.84-0.73-4.36c-0.78-3.05-2.09-5.61-3.14-7.38c-1.07-1.76-1.87-2.78-1.8-2.83c0.03-0.02,0.25,0.21,0.63,0.66
					c0.39,0.44,0.89,1.12,1.48,1.98c1.15,1.74,2.54,4.33,3.34,7.44c0.4,1.55,0.61,3.07,0.7,4.46c0.05,1.39,0.02,2.64-0.12,3.68
					c-0.13,1.04-0.29,1.87-0.45,2.43C154.62,285.43,154.52,285.74,154.49,285.73z"/>
			</g>
			<g>
				<path style="fill:#263238;" d="M150.89,167.71c-0.05,0.14-0.59,0.08-1.42-0.09c-0.83-0.16-1.95-0.42-3.18-0.51
					c-1.24-0.1-2.35-0.01-3.11,0.19c-0.78,0.18-1.11,0.5-1.24,0.45c-0.06-0.03-0.06-0.2,0.1-0.43c0.15-0.23,0.46-0.49,0.87-0.7
					c0.83-0.43,2.11-0.65,3.46-0.54c1.36,0.11,2.53,0.5,3.32,0.85C150.49,167.27,150.94,167.57,150.89,167.71z"/>
			</g>
		</g>
		<g style="opacity:0.3;">
			<path d="M191.02,328.36c0,0-11.56-1.42-17.78-2.38c-3.4-0.53-8.58-1.07-9.56-2.02c-1.22-1.18-1.21-3.15-1.34-4.84
				c-2.21-28.85,7.71-60.05,38.37-78.66l7.82,2.06l-0.51,18.79L191.02,328.36z"/>
		</g>
	</g>
</g>
<g id="Character_2">
	<g>
		<g>
			<g>
				<g>
					<g>
						<g>
							<g>
								<g>
									<g>
										<g>
											<g>
												<g>
													<g>
														<path style="fill:#263238;" d="M371.74,103.54c3.92,0.35,7.87-2.62,8.61-6.49c0.74-3.87-1.82-8.09-5.59-9.22
															c2.37-2.55,2.88-6.66,1.21-9.71c-1.68-3.06-5.41-4.83-8.84-4.2c-0.23-3.43-2.36-6.68-5.42-8.25
															c-3.06-1.57-6.94-1.4-9.86,0.42c-3.88-3.17-10.01-3.14-13.86,0.06c-3.35-0.54-6.95,1.33-8.45,4.38
															c-1.49,3.05-0.76,7.04,1.72,9.36"/>
													</g>
												</g>
											</g>
										</g>
									</g>
								</g>
							</g>
						</g>
						<g>
							<g>
								<g>
									<g>
										<g>
											<g>
												<g>
													<path style="fill:#FFBF9D;" d="M336.45,74.12l1.77-0.04c17.77-0.41,32.87,12.88,34.72,30.56
														c1.71,16.44,3.39,34.63,3.49,43.47c0.2,18.3-18.03,21.57-18.03,21.57l2.06,21.95l-44.44-0.34l-5.79-79.63
														C308.14,92.69,317.44,75.68,336.45,74.12z"/>
												</g>
											</g>
										</g>
									</g>
								</g>
								<g>
									<g>
										<g>
											<g>
												<g>
													<g>
														<g>
															<g>
																<g>
																	<g>
																		<g>
																			<path style="fill:#FF9A6C;" d="M358.41,169.68c0,0-12.76,0.95-25.23-6.48c0,0,7.43,13.34,25.65,11.27
																				L358.41,169.68z"/>
																		</g>
																	</g>
																</g>
															</g>
														</g>
													</g>
												</g>
											</g>
										</g>
									</g>
								</g>
								<g>
									<g>
										<g>
											<g>
												<g>
													<g>
														<g>
															<g>
																<g>
																	<g>
																		<g>
																			<g>
																				<g>
																					<g>
																						<path style="fill:#263238;" d="M367.34,124.5c0.08,1.38-1.02,2.58-2.46,2.7c-1.44,0.11-2.67-0.91-2.75-2.29
																							c-0.08-1.38,1.02-2.59,2.45-2.7C366.03,122.09,367.26,123.12,367.34,124.5z"/>
																					</g>
																				</g>
																			</g>
																		</g>
																	</g>
																</g>
															</g>
														</g>
													</g>
												</g>
											</g>
										</g>
									</g>
								</g>
								<g>
									<g>
										<g>
											<g>
												<g>
													<g>
														<g>
															<g>
																<g>
																	<g>
																		<g>
																			<g>
																				<g>
																					<g>
																						<g>
																							<path style="fill:#263238;" d="M369.21,113.68c-0.32,0.35-2.33-1.07-5.14-1c-2.81,0.03-4.84,1.53-5.15,1.19
																								c-0.15-0.15,0.16-0.77,1.04-1.45c0.87-0.67,2.36-1.34,4.12-1.37c1.75-0.03,3.24,0.58,4.1,1.22
																								C369.06,112.92,369.36,113.53,369.21,113.68z"/>
																						</g>
																					</g>
																				</g>
																			</g>
																		</g>
																	</g>
																</g>
															</g>
														</g>
													</g>
												</g>
											</g>
										</g>
									</g>
								</g>
								<g>
									<g>
										<g>
											<g>
												<g>
													<g>
														<g>
															<g>
																<g>
																	<g>
																		<g>
																			<g>
																				<g>
																					<g>
																						<path style="fill:#263238;" d="M343.13,124.5c0.08,1.38-1.02,2.58-2.46,2.69c-1.44,0.11-2.67-0.91-2.75-2.29
																							c-0.08-1.38,1.02-2.58,2.46-2.7C341.82,122.09,343.05,123.12,343.13,124.5z"/>
																					</g>
																				</g>
																			</g>
																		</g>
																	</g>
																</g>
															</g>
														</g>
													</g>
												</g>
											</g>
										</g>
									</g>
								</g>
								<g>
									<g>
										<g>
											<g>
												<g>
													<g>
														<g>
															<g>
																<g>
																	<g>
																		<g>
																			<g>
																				<g>
																					<g>
																						<g>
																							<path style="fill:#263238;" d="M341.58,114.85c-0.32,0.35-2.33-1.07-5.14-1c-2.81,0.03-4.84,1.53-5.15,1.19
																								c-0.15-0.15,0.16-0.77,1.05-1.45c0.87-0.67,2.36-1.34,4.11-1.37c1.75-0.03,3.24,0.58,4.1,1.22
																								C341.43,114.09,341.74,114.7,341.58,114.85z"/>
																						</g>
																					</g>
																				</g>
																			</g>
																		</g>
																	</g>
																</g>
															</g>
														</g>
													</g>
												</g>
											</g>
										</g>
									</g>
								</g>
								<g>
									<g>
										<g>
											<g>
												<g>
													<g>
														<g>
															<g>
																<g>
																	<g>
																		<g>
																			<g>
																				<g>
																					<g>
																						<path style="fill:#263238;" d="M352.27,135.47c-0.02-0.16,1.72-0.5,4.55-0.93c0.72-0.09,1.39-0.25,1.5-0.74
																							c0.16-0.52-0.16-1.29-0.53-2.12c-0.72-1.72-1.46-3.53-2.25-5.42c-3.13-7.72-5.41-14.07-5.1-14.19
																							c0.31-0.12,3.1,6.03,6.23,13.75c0.75,1.9,1.48,3.72,2.16,5.45c0.29,0.81,0.78,1.72,0.44,2.81
																							c-0.18,0.54-0.7,0.94-1.16,1.08c-0.46,0.15-0.86,0.17-1.22,0.2C354.05,135.57,352.29,135.63,352.27,135.47z"
																							/>
																					</g>
																				</g>
																			</g>
																		</g>
																	</g>
																</g>
															</g>
														</g>
													</g>
												</g>
											</g>
										</g>
									</g>
								</g>
								<g>
									<g>
										<g>
											<g>
												<g>
													<g>
														<g>
															<g>
																<g>
																	<g>
																		<path style="fill:#263238;" d="M342.18,109.05c-0.35,0.72-2.78,0-5.75-0.02c-2.97-0.09-5.45,0.52-5.74-0.21
																			c-0.13-0.35,0.39-1,1.44-1.6c1.05-0.6,2.65-1.07,4.43-1.04c1.78,0.04,3.34,0.58,4.33,1.22
																			C341.88,108.03,342.33,108.7,342.18,109.05z"/>
																	</g>
																</g>
															</g>
														</g>
													</g>
												</g>
											</g>
										</g>
									</g>
								</g>
								<g>
									<g>
										<g>
											<g>
												<g>
													<g>
														<g>
															<g>
																<g>
																	<g>
																		<path style="fill:#263238;" d="M369.07,102.09c-0.58,0.65-2.91,0.04-5.7,0.08c-2.79-0.05-5.14,0.55-5.7-0.11
																			c-0.25-0.32,0.11-0.97,1.13-1.6c1-0.63,2.69-1.16,4.61-1.15c1.92,0.01,3.59,0.55,4.58,1.18
																			C368.99,101.12,369.33,101.77,369.07,102.09z"/>
																	</g>
																</g>
															</g>
														</g>
													</g>
												</g>
											</g>
										</g>
									</g>
								</g>
								<g>
									<g>
										<g>
											<g>
												<g>
													<g>
														<g>
															<g>
																<g>
																	<path style="fill:#263238;" d="M370.98,96.29c0,0-5.09-11.35-10.68-13.89c-6.76-3.08-9.47,4.33-15.89,2.69
																		c-6.42-1.63-12.87-4.59-19.27,0.49c-7,5.56-3.58,9.27-3.83,17.39c-1.02,32.96-6.81,42.4-8.88,26.94
																		c-0.23-1.69-4.97-2.94-5.84-10.09c-1.12-9.28-1.74-20.58,0.18-27.23c1.62-5.61,4.7-9.53,10.3-13.9
																		c8.83-6.9,21.16-7.33,29.56-6.69C355.02,72.66,371.41,81.93,370.98,96.29z"/>
																</g>
															</g>
														</g>
													</g>
												</g>
											</g>
										</g>
									</g>
								</g>
								<g>
									<g>
										<g>
											<g>
												<g>
													<g>
														<g>
															<g>
																<g>
																	<path style="fill:#FFBF9D;" d="M313.58,129.39c-0.18-2.82-2.67-4.99-5.47-4.66c-3.4,0.4-7.16,2.43-6.77,9.48
																		c0.69,12.5,13.1,9.23,13.1,8.87C314.44,142.83,313.91,134.62,313.58,129.39z"/>
																</g>
															</g>
														</g>
													</g>
												</g>
											</g>
										</g>
									</g>
								</g>
								<g>
									<g>
										<g>
											<g>
												<g>
													<g>
														<g>
															<g>
																<g>
																	<path style="fill:#FF9A6C;" d="M311.46,138.52c-0.06-0.04-0.21,0.16-0.57,0.35c-0.35,0.18-0.96,0.33-1.63,0.12
																		c-1.35-0.41-2.58-2.45-2.76-4.7c-0.09-1.14,0.08-2.23,0.44-3.15c0.33-0.94,0.89-1.61,1.54-1.76
																		c0.65-0.19,1.15,0.18,1.32,0.53c0.19,0.34,0.12,0.59,0.19,0.61c0.04,0.03,0.26-0.22,0.13-0.74
																		c-0.07-0.25-0.23-0.53-0.54-0.76c-0.31-0.23-0.76-0.33-1.22-0.25c-0.96,0.12-1.78,1.05-2.17,2.06
																		c-0.44,1.02-0.67,2.25-0.56,3.53c0.22,2.51,1.64,4.8,3.47,5.22c0.89,0.18,1.61-0.12,1.97-0.44
																		C311.45,138.83,311.5,138.54,311.46,138.52z"/>
																</g>
															</g>
														</g>
													</g>
												</g>
											</g>
										</g>
									</g>
								</g>
							</g>
							<g>
								<g>
									<g>
										<g>
											<g>
												<g>
													<g>
														<g>
															<path style="fill:#263238;" d="M313.26,105.15c1.65,1.07,3.39,2.17,5.36,2.32c1.96,0.15,4.17-1.03,4.46-2.98
																c0.13-0.87-0.11-1.88,0.45-2.57c0.66-0.82,1.93-0.6,2.98-0.51c3.65,0.3,7.8-3.82,8.65-7.38
																c0.96,1.37,3,1.74,4.38,0.8c1.38-0.94,1.88-1.47,2.95-2.75c1.07-1.28,2.58-2.44,4.24-2.25
																c0.93,0.11,1.81,0.64,2.73,0.54c1.64-0.18,2.4-2.13,2.61-3.76c0.21-1.64,0.36-3.54,1.73-4.46
																c1.27-0.85,2.95-0.42,4.47-0.23c1.52,0.19,3.46-0.21,3.81-1.7c0.19-0.78-0.17-1.59-0.61-2.26
																c-2.02-3.02-6.3-4.28-9.64-2.84c-1.32-4.11-5.26-7.23-9.56-7.58c-4.3-0.35-8.69,2.09-10.67,5.93
																c-2.7-2.34-6.56-3.25-10.03-2.38c-3.46,0.88-6.43,3.52-7.69,6.86c-3.06-0.73-6.5,0.53-8.37,3.06
																c-1.87,2.53-2.06,6.19-0.46,8.9c-2.22,1.34-4.09,3.62-4.08,6.21c0.01,2.59,2.6,5.11,5.08,4.37
																c-0.96,2.04-0.08,4.76,1.9,5.84c1.98,1.08,4.74,0.36,5.94-1.56"/>
														</g>
													</g>
												</g>
											</g>
										</g>
									</g>
								</g>
							</g>
							<g>
								<g>
									<g>
										<g>
											<g>
												<g>
													<g>
														<g>
															<g>
																<path style="fill:#455A64;" d="M352.85,78.79c0.01,0,0.01,0.08,0,0.23c-0.01,0.15-0.02,0.38-0.06,0.67
																	c-0.1,0.58-0.31,1.44-0.85,2.43c-0.54,0.98-1.39,2.11-2.7,3.02c-1.29,0.92-3.06,1.64-5.09,1.58l0.21-0.28
																	c0.41,1.06,0.34,2.35-0.17,3.46c-0.48,1.13-1.25,2.14-2.07,3.13c-0.42,0.47-0.78,1.03-1.37,1.47
																	c-0.57,0.42-1.26,0.68-1.97,0.78c-1.41,0.21-3.01-0.19-4.06-1.35l0.46-0.14c-0.26,2.49-1.62,5.02-3.83,6.58
																	c-1.17,0.89-2.63,1.45-4.08,1.44c-1.45,0.02-2.8-0.37-4.07-0.79l0.33-0.16c-0.64,1.57-1.64,2.92-2.87,3.93
																	c-1.21,1.01-2.84,1.62-4.33,1.29c-2.97-0.56-4.98-2.97-5.43-5.27l0.29,0.13c-1.45,0.83-3.02,0.95-4.28,0.73
																	c-1.28-0.2-2.3-0.74-3.03-1.27c-0.73-0.54-1.17-1.11-1.43-1.5c-0.24-0.41-0.35-0.63-0.33-0.64
																	c0.06-0.05,0.44,0.94,1.89,1.96c0.72,0.49,1.72,0.97,2.95,1.14c1.22,0.18,2.71,0.04,4.04-0.76l0.23-0.14l0.06,0.26
																	c0.45,2.15,2.39,4.4,5.14,4.88c1.35,0.28,2.78-0.26,3.93-1.21c1.15-0.95,2.11-2.25,2.7-3.73l0.09-0.23l0.24,0.08
																	c1.25,0.41,2.55,0.78,3.89,0.76c1.34,0,2.65-0.5,3.76-1.34c2.09-1.48,3.36-3.84,3.62-6.21l0.06-0.59l0.4,0.45
																	c0.89,1,2.32,1.38,3.59,1.19c0.63-0.09,1.25-0.31,1.74-0.68c0.48-0.35,0.86-0.9,1.29-1.38
																	c0.82-0.97,1.57-1.94,2.02-2.99c0.48-1.04,0.55-2.17,0.2-3.13l-0.11-0.3l0.31,0.01c1.91,0.08,3.62-0.57,4.88-1.44
																	c1.28-0.86,2.13-1.93,2.69-2.86C352.83,80.09,352.76,78.77,352.85,78.79z"/>
															</g>
														</g>
													</g>
												</g>
											</g>
										</g>
									</g>
								</g>
							</g>
						</g>
					</g>
				</g>
			</g>
			<path style="fill:#FFBF9D;" d="M262.87,189.67c0,0-47.02,16.56-60.62,23.4c-10.63,5.34-17.36,24.73-1.01,32.81
				c12.19,6.03,78.2-5.49,78.2-5.49L262.87,189.67z"/>
			<g>
				<g>
					<g>
						<g>
							<path style="fill:#263238;" d="M406.42,354.3l-119.47-4.52l-4.33,40.67l-4.79,81.58l60.99,0.26
								c0.03-0.35,7.61-45.86,7.61-45.86l3.45-0.9l-0.32,46.76h57.16c3-38.69,4.72-71.2,4.82-74.25
								C412.37,373.86,406.42,354.3,406.42,354.3z"/>
							<g>
								<g>
									<g>
										<g>
											<g>
												<g>
													<g>
														<g>
															<g>
																<g>
																	<path style="fill:#455A64;" d="M342.13,401.08c-0.02,0.06,0.62,0.39,1.81,0.92c1.2,0.51,2.97,1.28,5.34,1.62
																		c1.18,0.16,2.52,0.17,3.91-0.14c1.38-0.31,2.85-0.96,4.01-2.14c1.16-1.18,1.87-2.79,2.3-4.44
																		c0.43-1.67,0.64-3.4,0.92-5.16c1.06-7.05,1.7-13.48,2.04-18.14c0.17-2.33,0.27-4.22,0.31-5.52
																		c0.04-1.31,0.03-2.03-0.03-2.03c-0.06,0-0.17,0.71-0.32,2.01c-0.16,1.49-0.36,3.32-0.59,5.49
																		c-0.5,4.64-1.24,11.03-2.3,18.06c-0.54,3.48-0.86,7.01-2.92,9.16c-2.07,2.11-5.05,2.45-7.25,2.22
																		c-2.27-0.24-4.05-0.91-5.29-1.31C342.84,401.25,342.15,401.02,342.13,401.08z"/>
																</g>
															</g>
														</g>
													</g>
												</g>
											</g>
										</g>
									</g>
								</g>
							</g>
							<g>
								<g>
									<g>
										<g>
											<g>
												<g>
													<g>
														<g>
															<g>
																<g>
																	<path style="fill:#455A64;" d="M353.52,367.66c0.01-0.04-0.28-0.21-0.88-0.22c-0.59-0.02-1.48,0.2-2.34,0.86
																		c-0.82,0.66-1.68,1.82-1.65,3.36c0,1.56,1.27,3.03,2.88,3.53c1.59,0.55,3.49,0.11,4.41-1.15
																		c0.93-1.22,0.93-2.66,0.65-3.68c-0.3-1.05-0.89-1.75-1.38-2.08c-0.49-0.35-0.83-0.38-0.84-0.34
																		c-0.11,0.12,1.23,0.66,1.6,2.57c0.17,0.9,0.07,2.11-0.68,3.02c-0.72,0.92-2.17,1.25-3.48,0.81
																		c-1.32-0.43-2.29-1.54-2.33-2.72c-0.07-1.17,0.57-2.21,1.24-2.83C352.14,367.47,353.54,367.83,353.52,367.66z"/>
																</g>
															</g>
														</g>
													</g>
												</g>
											</g>
										</g>
									</g>
								</g>
							</g>
							<g>
								<g>
									<g>
										<g>
											<g>
												<g>
													<g>
														<g>
															<g>
																<g>
																	<path style="fill:#455A64;" d="M286.95,388c0,0.06,0.51,0.12,1.46,0.16c0.94,0.06,2.31,0.03,3.99-0.12
																		c3.36-0.29,7.98-1.31,12.66-3.51c4.68-2.22,8.4-5.15,10.76-7.55c1.18-1.2,2.08-2.23,2.63-3
																		c0.56-0.76,0.85-1.19,0.8-1.23c-0.12-0.1-1.42,1.52-3.87,3.77c-2.43,2.25-6.13,5.03-10.7,7.2
																		c-4.58,2.15-9.07,3.24-12.36,3.69C289.02,387.87,286.95,387.84,286.95,388z"/>
																</g>
															</g>
														</g>
													</g>
												</g>
											</g>
										</g>
									</g>
								</g>
							</g>
						</g>
					</g>
				</g>
			</g>
			<g>
				<g>
					<path style="fill:#455A64;" d="M408.83,347.67c-2.34-5.34-1.91-5.83-1.91-5.83l-6.64-58.13l-6.38-56.55l-5.17-41.85l-29.89-6.4
						c0,0-3.44,9.53-17.89,9.82c-16.64,0.33-26.18-14.55-26.18-14.55l-47.79,10.26l17.97,123.26l2.15,33.2c0,0-3.57,5.37-3.57,11.14
						c0,5.76-0.23,9.6-0.23,9.6c44.36,12.19,88.38,22.74,128.88,10.94C412.18,372.59,411.17,353,408.83,347.67z"/>
					<g>
						<path style="fill:#455A64;" d="M377.82,183.13c0,0,17.23,1.92,23.34,8.41c6.11,6.49,25.65,38.59,25.65,38.59l-28.38,38.82
							l-13.15-17.94L377.82,183.13z"/>
					</g>
					<g>
						<g>
							<g>
								<path style="fill:#263238;" d="M390.95,203.22c0.24-0.02,2.95,21.31,6.06,47.65c3.11,26.35,5.44,47.72,5.2,47.74
									c-0.24,0.02-2.95-21.31-6.06-47.66C393.04,224.62,390.71,203.24,390.95,203.22z"/>
							</g>
						</g>
					</g>
				</g>
			</g>
			<polygon style="fill:#455A64;" points="266.98,184.45 228.71,201.43 242.56,240.16 279.44,246.01 			"/>
			<g>
				<path style="fill:#263238;" d="M272.24,210.12c0.25-0.03,2.08,15.08,4.08,33.75c2,18.67,3.41,33.82,3.15,33.85
					c-0.25,0.03-2.08-15.08-4.08-33.75C273.4,225.3,271.99,210.15,272.24,210.12z"/>
			</g>
			<g style="opacity:0.3;">
				<path d="M281.68,406.52c20.78-7.47,32.29-22.19,41.58-37.8c9.29-15.61,10.62-37.59,4.67-54.76c0,0-42.93,41.53-43.24,42.45
					C284.38,357.33,281.68,406.52,281.68,406.52z"/>
			</g>
			<g style="opacity:0.3;">
				<path d="M340.12,188.2c-0.51,4.22,1.84,8.28,4.73,11.4c2.89,3.11,6.39,5.65,9.02,8.99c3.01,3.8,4.73,8.44,6.4,12.99
					c3.5,9.5,6.99,19.01,10.49,28.51c3.01,8.18,6.06,16.45,10.84,23.75c4.77,7.3,11.5,13.65,19.8,16.32l-6.3-53.54l-33.25-53.48
					L340.12,188.2z"/>
			</g>
			<g>
				<g>
					<path style="fill:#FFBF9D;" d="M374.57,188.66c0-0.67,0.53-25.47-1.13-28.17c-1.66-2.69-2.99-5.22-3.33-7.74
						c0,0,0.91-1.47-0.75-2.4c-1.65-0.92-4.27,1.33-4.33,5.31s0.4,10.79,0.4,10.79s-18.3-10.38-23.31-10.67
						c-5.02-0.29-12.54-1.21-12.94,1.21c-0.4,2.42-0.06,3,2.56,3.92c2.62,0.92,6.78,1.56,10.89,2.94c4.1,1.38,5.98,2.33,5.98,2.33
						s-9.35-2.75-11.4,0c-2.05,2.75-1.77,5.23-0.46,6.56c0,0-2.79,1.15-2.51,4.21c0.28,3.06,1.65,3.81,1.65,3.81
						s-2.74,2.08-1.42,4.73c1.31,2.65,4.39,0.98,7.3,3.98c2.91,3,10.15,10.04,12.94,11.6c2.79,1.56,9.18,2.19,9.18,2.19
						L374.57,188.66z"/>
					<g>
						<path style="fill:#FF9A6C;" d="M374.57,188.66c0.01,0-0.05,0.09-0.16,0.25c-0.13,0.18-0.3,0.42-0.52,0.74
							c-0.48,0.66-1.16,1.62-2.05,2.86c-1.82,2.52-4.47,6.18-7.83,10.82l-0.05,0.06l-0.08-0.01c-1.26-0.13-2.58-0.32-3.95-0.58
							c-1.37-0.26-2.79-0.58-4.21-1.11c-0.72-0.26-1.41-0.65-2.04-1.11c-0.65-0.45-1.26-0.95-1.89-1.46
							c-1.24-1.03-2.49-2.14-3.75-3.31c-1.26-1.16-2.54-2.38-3.84-3.65c-0.64-0.64-1.3-1.29-1.96-1.94
							c-0.65-0.68-1.29-1.33-2.11-1.78c-0.8-0.47-1.72-0.69-2.67-0.9c-0.92-0.21-2.04-0.43-2.73-1.3c-0.68-0.81-0.97-1.96-0.71-3.02
							c0.27-1.06,0.93-1.94,1.76-2.64l0.03,0.36c-0.72-0.5-1.08-1.23-1.36-1.98c-0.26-0.76-0.4-1.55-0.43-2.38
							c-0.03-0.84,0.22-1.69,0.7-2.41c0.49-0.71,1.15-1.27,1.95-1.65l-0.07,0.37c-1.17-1.17-1.35-3.04-0.81-4.53
							c0.25-0.76,0.64-1.48,1.11-2.13c0.21-0.33,0.55-0.68,0.93-0.87c0.37-0.21,0.77-0.34,1.17-0.44c1.62-0.34,3.25-0.2,4.87,0.01
							c1.62,0.23,3.22,0.57,4.82,1.02l-0.17,0.44c-2.4-1.1-5-2.04-7.65-2.84c-2.66-0.79-5.44-1.31-8.21-2.1
							c-0.99-0.31-1.98-0.6-2.9-1.19c-0.46-0.3-0.84-0.83-0.91-1.4c-0.08-0.56-0.02-1.08,0.05-1.59c0.04-0.23,0.06-0.55,0.23-0.82
							c0.16-0.26,0.39-0.45,0.63-0.6c0.48-0.28,0.99-0.41,1.5-0.51c1.02-0.19,2.03-0.22,3.03-0.23c2.01,0,3.98,0.16,5.93,0.29
							c0.98,0.08,1.93,0.09,2.93,0.28c0.48,0.11,0.95,0.25,1.42,0.38l1.37,0.48c3.6,1.37,6.97,3.03,10.22,4.67
							c3.25,1.66,6.37,3.34,9.37,5.03l-0.32,0.2c-0.22-3.93-0.46-7.69-0.36-11.33c0.14-1.81,0.83-3.68,2.34-4.73
							c0.38-0.25,0.82-0.42,1.29-0.44c0.47-0.03,0.94,0.17,1.29,0.44c0.36,0.27,0.66,0.67,0.73,1.13c0.08,0.46-0.03,0.91-0.25,1.31
							l0.03-0.12c0.39,2.77,1.78,5.16,3.07,7.33c0.16,0.26,0.35,0.56,0.44,0.88c0.11,0.31,0.16,0.62,0.23,0.93
							c0.11,0.62,0.19,1.23,0.25,1.83c0.13,1.2,0.2,2.37,0.26,3.49c0.22,4.51,0.21,8.4,0.21,11.58c-0.01,3.18-0.05,5.66-0.09,7.34
							c-0.02,0.83-0.04,1.46-0.05,1.91C374.59,188.44,374.57,188.66,374.57,188.66s-0.02-0.22-0.02-0.65c0-0.45,0-1.09,0-1.91
							c0-1.7,0-4.17-0.01-7.33c-0.03-3.18-0.06-7.07-0.3-11.56c-0.07-1.12-0.15-2.28-0.28-3.47c-0.06-0.6-0.15-1.2-0.26-1.8
							c-0.13-0.62-0.25-1.17-0.63-1.7c-1.31-2.18-2.72-4.58-3.15-7.45l-0.01-0.06l0.03-0.06c0.17-0.31,0.26-0.7,0.2-1.05
							c-0.06-0.36-0.29-0.67-0.6-0.9c-0.61-0.51-1.47-0.43-2.14,0.02c-1.36,0.94-2.03,2.71-2.15,4.44
							c-0.09,3.57,0.15,7.36,0.39,11.27l0.02,0.39l-0.34-0.19c-2.99-1.68-6.11-3.35-9.36-5c-3.25-1.64-6.62-3.29-10.18-4.64
							l-1.35-0.47c-0.46-0.12-0.92-0.26-1.38-0.37c-0.9-0.18-1.9-0.2-2.87-0.27c-1.95-0.13-3.92-0.28-5.9-0.29
							c-0.99,0.01-1.98,0.04-2.95,0.22c-0.92,0.19-2,0.52-1.97,1.53c-0.07,0.49-0.12,0.99-0.05,1.44c0.07,0.46,0.32,0.82,0.71,1.08
							c0.8,0.52,1.81,0.82,2.77,1.12c2.73,0.77,5.52,1.3,8.21,2.1c2.68,0.82,5.26,1.74,7.72,2.88l-0.17,0.44
							c-1.57-0.44-3.16-0.78-4.75-1.01c-1.58-0.21-3.2-0.34-4.7-0.02c-0.74,0.18-1.44,0.48-1.82,1.12c-0.44,0.62-0.81,1.3-1.05,2.01
							c-0.5,1.4-0.33,3.05,0.69,4.07l0.23,0.23l-0.3,0.14c-0.69,0.32-1.33,0.85-1.76,1.48c-0.43,0.64-0.65,1.39-0.63,2.15
							c0.02,0.76,0.16,1.54,0.4,2.24c0.24,0.69,0.63,1.39,1.15,1.75l0.25,0.17l-0.23,0.19c-0.75,0.62-1.38,1.47-1.61,2.39
							c-0.23,0.92,0.03,1.94,0.62,2.65c0.58,0.74,1.57,0.96,2.5,1.17c0.95,0.21,1.93,0.45,2.78,0.95c0.86,0.47,1.56,1.19,2.19,1.85
							c0.66,0.66,1.31,1.31,1.95,1.95c1.29,1.27,2.56,2.49,3.82,3.66c1.26,1.17,2.49,2.28,3.72,3.31c1.25,1,2.44,2.04,3.83,2.54
							c1.39,0.53,2.8,0.86,4.15,1.12c1.36,0.26,2.67,0.46,3.92,0.6l-0.12,0.05c3.4-4.6,6.08-8.22,7.92-10.72
							c0.92-1.23,1.62-2.18,2.11-2.83c0.24-0.31,0.42-0.55,0.55-0.72C374.5,188.74,374.57,188.66,374.57,188.66z"/>
					</g>
				</g>
				<path style="fill:#FFBF9D;" d="M433.87,246.56c-1.83-3.49-5.96-10.77-7.95-15.22l-13.08,4.75c0,0-37.05-50.04-38.23-50.04
					c-1.18,0-17.27,14.92-17.27,14.92c0.71,0.71,34.07,77.16,46.84,85.44c12.78,8.28,22.3,13.54,29.16,1.71
					C440.2,276.29,441.91,261.94,433.87,246.56z"/>
				<g>
					<path style="fill:#FF9A6C;" d="M429.59,258.56c-0.03,0.02-0.25-0.33-0.61-0.97c-0.36-0.64-0.9-1.56-1.58-2.68
						c-1.36-2.25-3.38-5.28-5.82-8.46c-2.45-3.18-4.82-5.94-6.55-7.93c-0.81-0.94-1.5-1.73-2.05-2.36c-0.48-0.56-0.73-0.88-0.71-0.9
						c0.02-0.02,0.32,0.25,0.85,0.78c0.52,0.52,1.26,1.29,2.16,2.26c1.79,1.93,4.22,4.66,6.68,7.86c2.46,3.2,4.44,6.27,5.73,8.58
						c0.65,1.15,1.14,2.1,1.46,2.77C429.46,258.17,429.62,258.54,429.59,258.56z"/>
				</g>
			</g>
			<g>
				<path style="fill:#263238;" d="M354.23,147.12c-0.33,0.25-1.71-1.18-3.9-1.94c-2.17-0.82-4.14-0.62-4.24-1.02
					c-0.04-0.18,0.43-0.5,1.3-0.66c0.87-0.17,2.14-0.13,3.42,0.34c1.28,0.47,2.28,1.26,2.84,1.94
					C354.22,146.46,354.38,147.01,354.23,147.12z"/>
			</g>
			<g>
				<path style="fill:#263238;" d="M387.67,347.33c0.01,0.01-0.15,0.11-0.46,0.27c-0.31,0.15-0.76,0.42-1.37,0.66
					c-1.22,0.52-3.05,1.12-5.4,1.45c-2.35,0.33-5.19,0.36-8.3-0.04c-3.11-0.39-6.46-1.18-9.91-2.21c-6.89-2.11-12.98-4.41-17.35-6.2
					c-2.18-0.89-3.93-1.66-5.13-2.2c-0.56-0.26-1.01-0.47-1.38-0.64c-0.31-0.15-0.47-0.24-0.47-0.25c0.01-0.02,0.18,0.04,0.5,0.17
					c0.37,0.15,0.84,0.33,1.41,0.56c1.28,0.51,3.04,1.21,5.18,2.06c4.39,1.7,10.49,3.96,17.36,6.05c3.43,1.03,6.76,1.82,9.83,2.24
					c3.07,0.42,5.88,0.42,8.2,0.14c2.32-0.28,4.15-0.83,5.38-1.29C387,347.6,387.65,347.29,387.67,347.33z"/>
			</g>
		</g>
		<g>
			<g>
				<path style="fill:#FF725E;" d="M297.19,251.92c-16.7-11.25-36.56-15.27-49.58-15.28c-12.19-0.01-30.14,1.9-46.39,11.05
					c-10.09,5.68-18.14,13.45-23.94,23.09c-6.86,11.42-10.58,25.54-11.05,41.99c-0.07,2.47,0.84,4.8,2.56,6.58
					c1.73,1.78,4.06,2.77,6.54,2.77l31.97,0.02c4.51,0,8.39-3.36,9.03-7.82c1.42-10.03,7.39-26.9,31.31-27.3
					c18.24-0.29,25.74,12.9,28.12,18.59c3.88,9.26,2.89,20.24-2.66,29.36c-8.52,14.02-24.17,16.16-32.74,16.18
					c-9.86,0.03-17.88,8.03-17.89,17.83l-0.02,34.4c0,5.02,4.08,9.11,9.11,9.12l31.15,0.02c5.02,0,9.11-4.08,9.12-9.11l0-7.23
					c0-0.17,0.11-0.32,0.28-0.38c7.06-2.47,20.74-8.44,33.07-20.69c15.74-15.63,23.73-35.8,23.74-59.97
					C328.94,280.57,311.68,261.67,297.19,251.92z"/>
				<path style="fill:#FF725E;" d="M248.68,421.18l-2.73,0c-13.03-0.01-23.63,10.58-23.64,23.61s10.58,23.63,23.61,23.64l2.73,0
					c13.03,0.01,23.63-10.58,23.64-23.61C272.3,431.8,261.71,421.19,248.68,421.18z"/>
			</g>
			<g style="opacity:0.3;">
				<path d="M327.72,293.06c-0.42-3.52-1.34-6.89-2.63-10.13c-6.24-15.56-20.87-26.17-37.53-28.06l-80.39-9.14
					c8.74,8.93,20.15,10.71,32.25,13.85c12.1,3.14,25.12,7.84,37.35,10.44c3.92,0.83,7.98,1.88,11.03,4.48
					c2.98,2.54,4.64,6.25,6.21,9.84c2.32,5.31,4.65,10.63,6.97,15.94c2.65,6.07,6.18,12.92,13.33,13.31c2.88,0.16,5.71-0.92,7.9-2.8
					C327.38,306.34,328.47,299.43,327.72,293.06z"/>
			</g>
			<g>
				<path style="fill:#FFBF9D;" d="M326.58,271.53c-0.62-1.09-12.84-16.03-18.91-21.82c-3.92-3.74-9.83-6.32-13.54-7.68
					c0,0-61.17-22.09-65.41-24.24l-27.47,28.11c9.56,2.66,74.5,18.29,90.52,21.81c2.8,3.27,5.62,5.95,5.62,5.95l4.66,10.94
					c0,0,0.54,3.98,0.2,8.25c-0.34,4.27,3.13,2.61,3.13,2.61s-0.16,2.65,0.06,6.48c0,0.04,0,0.08,0.01,0.11
					c0.23,2.86,4.34,3.21,5.21,0.48l3.16-9.86c0,0-0.41,8.98-0.58,13.97c-0.03,0.91,0.13,1.65,0.41,2.26
					c1.21,2.65,5.15,2.15,5.82-0.68l3.7-15.6l-1.2-9.56l3.1,8.73c0,0,0.86,4.67,0.68,11.22c-0.07,2.62,0.82,3.74,1.9,4.13
					c1.82,0.66,3.74-0.79,3.9-2.72l1.18-14.46C332.71,289.96,327.2,272.62,326.58,271.53z"/>
				<g>
					<path style="fill:#FF9A6C;" d="M224.77,216.68c0.03-0.11,1.76,0.16,4.5,0.92c2.74,0.75,6.45,2.03,10.46,3.62
						c4.01,1.6,7.6,3.13,10.2,4.24c2.6,1.11,4.2,1.8,4.15,1.93c-0.04,0.12-1.73-0.36-4.39-1.32c-2.67-0.95-6.3-2.39-10.3-3.99
						c-4-1.59-7.64-2.95-10.31-3.86C226.41,217.32,224.73,216.82,224.77,216.68z"/>
				</g>
			</g>
		</g>
	</g>
</g>
</svg>
