<?xml version="1.0" encoding="utf-8"?>
<!-- Generator: Adobe Illustrator 24.3.0, SVG Export Plug-In . SVG Version: 6.00 Build 0)  -->
<svg version="1.1" id="Layer_1" xmlns="http://www.w3.org/2000/svg" xmlns:xlink="http://www.w3.org/1999/xlink" x="0px" y="0px"
	 viewBox="0 0 200 200" style="enable-background:new 0 0 200 200;" xml:space="preserve">
<style type="text/css">
	.st0{fill:#273540;}
	.st1{fill:#1B86BE;}
	.st2{fill:#F58840;}
	.st3{fill:#BEFF12;}
	.st4{fill:#009FE9;}
	.st5{fill:#003399;}
</style>
<g>
	<path d="M17.6,174.5V140H0v57c0,1.6,1.3,3,3,3h57v-17.6H25.5C21.1,182.4,17.6,178.9,17.6,174.5z M3,0C1.3,0,0,1.3,0,3v57h17.6V25.4
		c0-4.3,3.5-7.8,7.8-7.8H60V0H3z M182.4,174.5c0,4.4-3.5,7.9-7.9,7.9H140V200h57c1.6,0,3-1.3,3-3v-57h-17.6V174.5z M197,0h-57v17.6
		h34.6c4.3,0,7.8,3.5,7.8,7.8V60H200V3C200,1.3,198.7,0,197,0z"/>
	<g>
		<rect x="36" y="36" class="st2" width="128" height="128"/>
		<g>
			<g>
				<g id="Uni_22_">
					<g>
						<polygon points="104.7,66.5 67.7,66.5 82.4,52.3 119.5,52.3 						"/>
						<path d="M37.2,71.8c0,0,0.9,0.6,2.5,1.9c10.9,8.4,54.3,44.3,57.9,84.2c0,0,22.9-81.4,65.2-115.8c0,0-42,15.8-66.6,60
							C96.2,102.1,65,74.3,37.2,71.8z"/>
						<circle cx="96.1" cy="72.4" r="15.2"/>
						<polygon points="72.5,66.5 73.2,82.5 75.8,79.6 79.1,82.5 						"/>
					</g>
				</g>
			</g>
		</g>
	</g>
</g>
</svg>
