<svg width="67" height="68" viewBox="0 0 67 68" fill="none" xmlns="http://www.w3.org/2000/svg">
<circle cx="33.5" cy="34.5" r="33.5" fill="#F58840"/>
<path d="M35.3972 20.8494H20.4616L26.3955 15.1174H41.3715L35.3972 20.8494Z" fill="black"/>
<path d="M8.14981 22.9889C8.14981 22.9889 8.51311 23.2311 9.15897 23.7558C13.5589 27.1466 31.078 41.6382 32.5312 57.7444C32.5312 57.7444 41.7751 24.8861 58.8502 11C58.8502 11 41.8962 17.3779 31.9661 35.2199C31.9661 35.2199 19.3717 23.998 8.14981 22.9889Z" fill="black"/>
<path d="M31.9257 29.3668C35.3144 29.3668 38.0614 26.6197 38.0614 23.2311C38.0614 19.8424 35.3144 17.0954 31.9257 17.0954C28.5371 17.0954 25.79 19.8424 25.79 23.2311C25.79 26.6197 28.5371 29.3668 31.9257 29.3668Z" fill="black"/>
<path d="M22.3992 20.8494L22.6818 27.3081L23.7313 26.1374L25.0634 27.3081L22.3992 20.8494Z" fill="black"/>
</svg>
