<?xml version="1.0" encoding="utf-8"?>
<!-- Generator: Adobe Illustrator 24.3.0, SVG Export Plug-In . SVG Version: 6.00 Build 0)  -->
<svg version="1.1" id="Layer_1" xmlns="http://www.w3.org/2000/svg" xmlns:xlink="http://www.w3.org/1999/xlink" x="0px" y="0px"
	 viewBox="0 0 400 400" style="enable-background:new 0 0 400 400;" xml:space="preserve">
<path style="fill:#2E2C2D;" d="M231.48,354.53c1.38,1.36,2.3,2.92,5,1.65c4.25-2,7.58-2.39,11.48,2.78c2.11,2.8,6.44,7.27,12.37,7.1
	c7.91-0.22,15.4,0.25,23.33,4.1c7.6,3.69,17.53,2.78,26.56,2.6c2.83-0.05,8.23-1.45,8.09,0.94c-0.22,3.87-5.27,1.98-8.07,2.02
	c-14.09,0.23-28.19,0.09-42.24-1.33c-0.77-0.08-2.08-0.47-2.25-0.19c-4.48,7.54-11.56,3.46-16.84,2.75
	c-11.03-1.48-22-1.5-32.99-1.25c-15.98,0.36-31.69-1.59-47-5.68c-10.77-2.87-21.42-6.56-31.41-11.77c-3.54-1.85-6.79-3.59-7.31-8.26
	c-0.29-2.62-3.48-3.37-4.85-5.64c-4.54-7.52-7.3-15.53-7.79-24.25c-0.89-15.84,2.11-30.92,6.76-46.16
	c6.12-20.06,15.48-38.43,25.55-56.5c4.75-8.53,9.27-17.35,15.66-24.91c1.16-1.37,2.72-2.7,3.15-4.31c0.75-2.8,3.03-5.31-2.48-7.62
	c-25.01-10.48-49.5-22.2-74.47-32.8c-6.54-2.78-13.21-5.64-20.09-7.6c-7.2-2.06-12.38,2.94-17.28,6.74
	c-3.01,2.33-4.23,2.34-7.49,0.67c-5.14-2.63-10.01-6.86-17.04-3.86c-4.09,1.75-8.45-2.88-13.24-1.94c-1.51,0.3-1.64-1.42-1.26-2.7
	c0.34-1.16,0.84-2.28,1.12-3.45c0.58-2.41-2.54-3.54-2.13-5.92c-1.6,0.14-3.08,0.5-4.32,1.66c-3.16,2.97-4.95,0.04-6.61-1.86
	c-2.38-2.72,0.14-4.17,1.98-5.55c1.74-1.3,3.55-2.54,5.46-3.54c2.39-1.24,6.25-2.16,6.3-4.5c0.08-4.25,2.21-8.77-0.5-12.91
	c-1.19-1.81-3.6-4.09-0.24-5.33c3.41-1.26,2.95,2.13,3.24,4.2c0.2,1.42,1.37,1.21,2.32,1.35c-0.64,3.63,1.81,5.4,4.83,8.31
	c-0.31-5.15-1.97-8.33-4.74-11.06c-0.13-4.35,3.74-2.87,4.21-1.81c2.1,4.83,7.49,4.65,10.15,7.19c3.68,3.51,7.89,3.44,11.66,5.31
	c0.71,0.35,1.51,0.93,2.2,0.85c10.81-1.33,10.48,8.01,13.08,14.08c1.87,4.38,3.41,7.59,8.58,9.62
	c27.46,10.76,54.66,22.18,81.12,35.29c5.85,2.9,12.03,5.13,18.02,7.78c4.73,2.09,5.06-2.43,6.92-4.55c0.88-1,0.39-0.79-2.85-3.09
	c-14.76-10.48-30.27-19.87-44.53-31.08c-11.54-9.07-23.47-17.67-35.2-26.5c-1.41-1.06-3-0.91-4.58-1.06
	c-7.94-0.77-16.45,2.44-23.59-4.28c-1.54-1.45-5.52-0.3-8.37-0.34c-0.28-1.31-0.12-2.85,1.47-2.52c5.46,1.13,9.49-2.9,14.47-3.81
	c-7.01-0.51-14,0.17-20.89-1.04c-1.2-3.56-5.22-4.34-7.38-4.31c-6.81,0.11-10.31-4.11-14.11-8.39c-0.65-0.74-1.52-1.34-2.38-1.82
	c-1.96-1.1-5.69-1.08-4.94-4.03c0.51-2.01,3.89-0.68,5.99-0.86c2.12-0.18,5.93,0.87,6-0.96c0.14-3.44,1.55-7.41-1.18-10.65
	c-1.25-1.49-2.8-2.83-3.67-4.52c-0.54-1.04-1.03-2.69,0.45-3.88c1.46-1.17,2.6-0.48,3.77,0.4c-0.29,3.52,0.98,6.06,4.87,7.61
	c0.23-2.74,0.43-5.11,0.63-7.47c3.59,7.82,11.45,3.45,17.04,5.74c2.53,1.04,4.61,1.3,4.5,4.36c-0.15,4.04,2.21,5.23,5.44,4.28
	c3.19-0.93,5.06,0.94,6,2.84c1.78,3.58,7,4.76,6.6,9.8c-0.05,0.61,1.71,2.07,2.06,1.9c6.08-2.84,5.67,3.1,6.13,5.36
	c1.92,9.34,7.98,14.75,15.38,19.92c13.61,9.5,26.62,19.85,39.98,29.7c8.4,6.19,16.98,12.13,25.49,18.17
	c7.74,5.49,11.19,4.9,18.28-3.16c1.69-1.92,3.23-3.97,4.84-5.97c0.82-0.03,1.64-0.06,2.46-0.09c-0.03,1.64-0.07,3.27-0.1,4.91
	c-13.38,10.63-13.27,12.19,1.4,19.83c0.35,0.18,0.84,0.25,1.03,0.53c0.98,1.47,1.44,0.82,2.64-0.05c5.31-3.86,6.13-6.86,2.89-12.27
	c-1.08-1.81-2.12-3.64-3.18-5.46c0.05-1.66,0.78-2.59,2.56-2.41c6.58,9.66,6.44,9.56,12.99,1c4.45-5.8,8.82-11.87,13.85-16.99
	c8.83-8.99,17.47-18.26,28.72-24.82c9.32-5.43,17.95-11.26,28.85-13.92c13.95-3.4,26.61-3.28,38.47,5.46
	c-2.94,7.69-2.58,8.21,6.58,9.74c0.19,0.03,0.37,0.16,0.56,0.24c0.25,1.99,0.01,3.99,1.04,5.94c2.34,4.4,1.86,9.32,0.86,13.78
	c-2.47,11.02-5.93,21.7-11.51,31.72c-8.23,14.78-16.68,29.45-27.26,42.6c-19.02,23.63-39.08,46.43-61.36,67.06
	c-18.1,16.76-35.63,34.26-59.81,43.11c-16.75,6.13-29.86-4.1-30.7-19.38c-0.99-17.96,2.82-34.83,9.51-51.42
	c7.77-19.28,17.94-36.97,31.37-52.82c2.01-2.38,5.28-5.25,5.04-7.6c-0.31-3.05-4.69-3.82-7.77-4.86c-0.65-0.22-0.98-1.45-1.62-1.62
	c-2.79-0.76-5.13-2.07-7.97,1.34c-7.03,8.43-11.93,18.08-17.54,27.34c-6.71,11.07-13.01,22.42-18.12,34.25
	c-5.55,12.85-10.69,25.88-13.21,39.94c-2.64,14.7-4.14,29.08,0.36,43.57c4.01,12.92,13.74,18.42,24.71,19.79
	c13.89,1.74,26.65-3.07,39.06-8.07c3.99-1.61,8.49-3.08,12.11-5.99c3.24-2.6,8.7-2.11,9.89-7.66c1.3-6.09,6.99-1.04,10.65-3.95
	c5.63-4.47,11.43-8.97,17.25-13.3c26.16-19.45,48.14-43.15,67.81-68.97c7.05-9.25,12.63-19.6,19.42-29.06
	c6.87-9.57,8.65-21.5,15.21-31.15c0.58-0.85,0.95-2.38-0.38-3.29c-4.6-3.18-1.35-4.66,1.37-6.14c1.85-1,3.27-1.71,4.32-4.17
	c4.07-9.57,5.44-19.88,6.36-29.8c1.3-13.9,2.14-27.98-5.91-41.42c-6.16-10.29-14.47-15.5-25.17-16.24
	c-17.39-1.19-31.67,8.49-46.58,15.72c-10.86,5.27-19.27,15.69-32.68,15.67c-0.62,0-1.33,0.73-1.83,1.27
	c-4.98,5.27-11.7,8.36-16.74,13.62c-7.66,8-16.38,14.98-22.81,24.14c-1.57,0.13-3.15,0.26-4.72,0.39c-0.29-2.2,3.14-2.61,2.42-5.01
	c9.06-9.45,17.98-18.98,28.19-27.33c4.1-3.35,7.94-7.05,12.33-10.19c12.61-9.05,25.69-17.34,39.52-24.33
	c4.22-2.14,8.43-7.71,14.64-2.16c1.38,1.23,5.63-1.99,8.73-2.85c16.53-4.63,31.61-2.29,46.34,6.78c9.09,5.6,15.57,14.31,25.28,19.09
	c5.88,2.89,4.47,8.92,3.29,14.03c-0.64,2.78-1.45,5.46-1.5,8.36c-0.31,15.95-3.35,31.39-6.96,46.96
	c-5.53,23.84-15.72,45.29-29.16,65.31c-6.14,9.14-7.13,17.94-4.5,28.39c3.59,14.26,5.04,29.09,9.01,43.23
	c3.66,13.04,6.24,26.29,9.46,39.4c0.53,2.14,2.08,1.5,3.36,1.63c7.57,0.79,15.39-0.23,22.61,3.22c5.17,2.47,10.39,4.71,16.41,3.4
	c0.71-0.15,2.18,0.6,2.03,1.82c-0.17,1.42-1.63,1.91-2.77,1.95c-5.29,0.21-10.6,0.47-15.88,0.28c-12.01-0.43-23.98-1.9-36.03-1.16
	c-2.38,0.15-4.09-0.65-4.1-3.3c-0.01-1.9-1.33-3.53-1.41-5.08c-0.5-9.58-5.09-18.11-6.56-27.5c-1.6-10.23-5.21-20.17-8.17-30.17
	c-1.82-6.12-4.27-12.06-6.04-18.19c-0.92-3.16-1.93-2.49-3.52-0.76c-5.15,5.55-9.96,11.22-9.11,19.61
	c0.59,5.8-1.49,11.42-2.95,16.73c-2.51,9.17-1.05,18.62-3.61,27.74c-1.83,6.54-0.07,7.61,7.47,8.77c2,0.31,8.18-3.55,5.65,4.01
	c-0.32,0.97,1.55,0.8,2.47,0.85c2.04,0.11,4.08,0.19,6.12,0.17c2.08-0.03,3.21,1.53,3.24,2.97c0.04,1.67-1.83,1.74-3.32,1.81
	c-11.04,0.46-21.89-1.89-32.9-2.24c-4.8-0.16-4.3-4.46-3.64-8.07c2.27-12.29,5.04-24.53,4.66-37.15c-0.05-1.49,1.08-3.54-0.92-4.36
	c-1.8-0.74-2.84,1.03-3.98,2.13c-9.13,8.77-19.68,15.88-29.18,24.26c-4.58,4.05-11.34,7.79-17.72,10.53
	c-2.29,0.99-4.34,2.1-5.18,4.63c-1.8,0.16-3.81-0.14-4.91,2.39C227.61,355.36,229.68,356.6,231.48,354.53z M262.43,306.52
	c2.62,4.14,5.86,1.38,8.78,2.17c0.04-0.5,0.09-1.01,0.13-1.51c-3-0.19-6-0.38-9.01-0.56c0.05-1.49,0.09-2.98,0.14-4.46
	c5.92-0.08,12.13-1.35,17.69,0.03c7.53,1.87,10.46-2.67,14.16-7.32c-9.6,0.54-19.01,2.22-28.55,2.32c-1.12,0.01-2.22,1.45-3.33,2.22
	c-3.13,1.38-4.92,4.14-7.67,6.6C257.76,307.02,260.08,307.01,262.43,306.52z M223.03,210.79c4.17-1.7,2.23-6.32,4.21-9.33
	c1.16-1.77-4.01-2.64-5.66-4.83c-0.39-0.51-3.1-0.25-2.79,1.07c0.71,3.09-3.05,3.46-3.01,5.9c-7.58,12-18.24,22.03-23.93,35.11
	c-3,6.89-6.74,14-5.66,22.31c0.88,6.77,5.25,11.46,11.98,11.28c6.02-0.16,10.62-3.45,15.05-7.08
	c20.33-16.67,34.38-38.52,49.39-59.62c6.56-9.22,9.68-20.39,16.71-29.17c7.06-8.81,9.5-18.48,8.31-29.4
	c-0.24-2.17,0.13-4.59-3.19-4.83c-8.09-0.6-16.43,0.66-22.11,5.89c-13.01,12-24.8,25.27-34.64,40.17c-2.98,4.51,1.93,4.59,2.92,6.76
	c1.2,2.64,3,0.6,4.19-0.59c3.77-3.76,8.07-6.76,12.54-9.62c4.68-2.98,8.46,0.25,11.41,2.41c2.74,2,1.09,5.87-1.05,8.53
	c-4.01,4.99-8.47,9.68-12.03,14.98c-4.77,7.1-10.86,12.42-18.51,15.98c-3.92,1.82-6.06-0.21-6.38-4.05
	C220.41,218.56,220.18,214.34,223.03,210.79z M324.99,237.95c-7.5-3.09-11.45,3.02-15.14,8.58c-1.39,2.1-4.7,4.45-3.23,7.17
	c1.6,2.95,3.93-1.38,6.4-0.6c2.25,0.71,6.17-1.08,6.06,2.86c-0.09,3.22-3.6,1.53-5.5,1.62c-5.6,0.28-11.3,0.62-15.41,4.78
	c-5.04,5.11-9.52,10.77-14.23,16.21c-0.81,0.94-2.95,1.33-1.73,3.18c0.76,1.14,2.24,0.47,3.41,0.59c6.38,0.66,12.31-2.13,18.44-2.46
	c3.47-0.18,5.59-1.41,7.24-3.62c7.17-9.63,14.28-19.32,20.98-29.28c1.61-2.39,5.44-4.95,3.56-8.07c-1.37-2.28-5.27-0.57-8.01-0.96
	C327.23,237.87,326.61,237.95,324.99,237.95z M349.76,191.38c-2.81,0.19-6.06-0.71-7.75,2.21c-2.23,3.85-4.02,7.95-5.93,11.98
	c-0.75,1.58-0.39,3.37,1.56,2.61c2.22-0.86,4.33,1.05,6.39-0.43c1.2-0.87,2.6-2.45,4.08-0.44c0.41,0.56,0.52,1.64,0.3,2.33
	c-0.71,2.25-2.72,1.19-4.14,1.26c-5.6,0.27-11.7,0.01-14.76,5.68c-2.35,4.36-4.95,8.51-7.58,12.68c-1.13,1.79-2.02,3.84,1.69,4
	c5.41,0.24,11.68,1.98,15.98,0.52c3.82-1.3,6.56-8.18,8.15-13.11c2.44-7.55,11.88-13.57,5.73-23.23c-0.08-0.12-0.01-0.42,0.09-0.55
	C359,190.27,353.12,191.7,349.76,191.38z M332.28,285.69c-1.48,2.42-0.85,6.92-5.27,4.38c0.23,1.72-3.38,1.07-1.8,4.51
	c2.86,6.22,4.17,13.17,5.9,19.87c3.33,12.86,6.66,25.72,9.64,38.67c0.9,3.9,3.6,2.91,5.59,2.62c3.3-0.47,2.04-3.65,1.05-4.61
	c-1.87-1.81-1.19-3.7-1.34-5.6c-0.29-3.65,0.62-7.91-0.96-10.84c-4.28-7.97-3.65-17.02-6.68-25.2
	C335.67,302.07,336.87,293.64,332.28,285.69z M277.7,311.66c-4.64,0-8.62-0.35-12.52,0.09c-4.44,0.5-8.04-2.15-12.22-2.53
	c-2.24-0.2-2.6,1.01-3.35,2.5c-1.37,2.72,1.17,1.58,1.96,2.11c0.83,0.55,1.77,0.93,2.6,1.47c5.26,3.47,11.87-0.9,17.29,2.79
	C271.84,318.35,275.1,314.38,277.7,311.66z M301.84,284.64c-0.39-1.28-2.98-0.45-4.38,0.06c-6.63,2.43-13.45,2.69-20.33,2.28
	c-2.12-0.13-2.63,1.54-3.95,2.26c-0.79,0.43-1.3,0.94-0.99,1.9c0.32,1,1.2,0.86,1.97,0.97c8.23,1.16,16.2-2.17,24.45-1.47
	C299.52,290.72,302.25,288.88,301.84,284.64z M295.61,316.95c-1.38,4.43-4.58,7.99-5.73,12.19c-1.21,4.44-0.87,9.29-1.27,13.96
	c-0.18,2.14-1.38,4.72,2.18,5.14c4.18,0.5,3.08-2.72,3.27-4.93c0.48-5.46-0.48-11.15,1.53-16.33
	C296.94,323.54,296.86,320.41,295.61,316.95z M183.72,176.25c-2.75-0.08-3.98,2.21-4.77,3.83c-0.83,1.73,0.79,3.59,2.84,3.81
	c3.61,0.37,6.49,2.19,9.33,4.14c1.67,1.15,3.33,1.22,4.58-0.39c1.2-1.54,1.46-4.01,0.03-4.95
	C191.94,180.21,187.73,178.34,183.72,176.25z M255.27,320.32c-3.8-1.46-6.88-4.68-11.13-4c-1.24,0.2-3.28-0.11-3.24,1.79
	c0.02,1.3,1.19,2.82,2.66,2.99C247.44,321.55,251.37,322,255.27,320.32z M22.07,132.47c3.37-1.71,6.98-3.55,10.6-5.36
	c1.13-0.56,0.84-1.3,0.12-1.79c-0.92-0.61-1.8-2.98-2.55-1.8c-2.36,3.69-7.12,3.19-9.71,6.27c-0.58,0.69-1.07,1.26-0.79,2.01
	C20.07,132.67,20.97,132.66,22.07,132.47z M85.14,107.56c-4.93-5.08-4.93-5.08-10.88-0.17C77.89,108.39,81.49,108.14,85.14,107.56z
	 M214.8,342.63c-1.11-2.51-1.9-5.36-5.64-4.12c-0.83,0.28-2.2,0.43-1.5,1.93C209.18,343.76,211.75,343.83,214.8,342.63z
	 M231.05,337.35c4.62,0.45,9.42,3.05,15.14-0.59C240.18,335.83,235.59,335.82,231.05,337.35z M160.86,284.87
	c-2.26,2.27-0.53,6.04-3.65,7.87c-0.26,0.15-0.11,1.68,0.32,2.18c0.97,1.14,1.77,0.03,2.45-0.59
	C163.05,291.54,161.42,288.15,160.86,284.87z M59.38,96.95c3.75,1.28,7.48,2.17,12.14-0.28C66.73,95.19,63.04,95.61,59.38,96.95z
	 M200.87,350.07c-2.05-1.82-2.85-4.64-6.09-3.94c-1.36,0.29-1.16,1.48-0.74,2.43C195.4,351.68,197.86,350.8,200.87,350.07z
	 M148.36,294.95c-1.37,3.42-1.19,6.79-0.06,10.15C149.55,301.71,149.69,298.34,148.36,294.95z M75.65,88.64
	c-1.58-2.24-2.05-4.93-3.89-8.15C70.96,84.93,70.52,88.03,75.65,88.64z M227.05,330.32c3.37,0.46,4.5,3.42,8.5,2.24
	C232.87,330.97,232.02,327.42,227.05,330.32z M223.27,345.18c3.24,0.9,6.29,1.35,9.39,0.27c0.23-0.08,0.32-1.39,0.22-1.42
	c-3.04-1.07-6.13-1.21-9.21-0.14C223.57,343.92,223.56,344.21,223.27,345.18z M180.94,352.12c2.7,0.6,3.08,4.14,6.48,2.62
	C186.41,352.04,185.37,349.67,180.94,352.12z M48.32,89.51c5.9,1.81,5.9,1.81,9.35-0.58C54.76,87.95,52.1,87.97,48.32,89.51z
	 M11.5,124.1c4.62,1.61,5.26-1.29,6.45-3.4C16.13,121.65,14.31,122.61,11.5,124.1z"/>
<path style="fill:#2E2C2D;" d="M186.33,144.78c-15.31-20.21-30.74-40.34-45.84-60.7c-3.43-4.63-8.14-2.53-12.15-3.34
	c-3.18-0.64-6.19-1.74-9.3-2.49c-1.22-0.29-3.24-1.83-3.11-2.38c1.45-6.14-6.58-7.29-6.46-12.67c0.03-1.41-1.6-1.51-2.68-2.05
	c-3.79-1.89-7.12-3.83-6.33-9.31c0.57-3.97-4.02-5.11-6.43-6.91c-2.19-1.64-2.63-3.15-1.8-4.86c0.71-1.47,2.46-1.44,4.47-1.11
	c4.61,0.76,7.59,3.88,11.07,6.3c2.2,1.52,5.13,4.73,6.76,3.29c1.88-1.67,3.99-4.82,2.82-8.61c-1.12-3.65-0.86-7.73-2.03-11.36
	c-1.78-5.5,4.95-3.92,5.48-7.26c3.21,0.54,2.49,3.45,3.51,5.42c2.29,4.37,2.53,9.88,7.04,13.08c0.53,0.38,0.71,1.41,0.83,2.17
	c0.52,3.14-1.54,7.78,4.56,7.54c-0.27,4.96,5.78,8.09,4.95,12.33c-3.28,16.82,7.51,27.39,16.32,38.74
	c10.63,13.68,21.06,27.5,31.21,41.54C189.45,144.31,188.55,145.27,186.33,144.78z"/>
<path style="fill:#B6B7BB;" d="M53.93,100.52c6.89,1.22,13.89,0.54,20.89,1.04c-4.98,0.91-9.01,4.93-14.47,3.81
	c-1.59-0.33-1.76,1.21-1.47,2.52C54.57,107.22,56.08,102.64,53.93,100.52z"/>
<path style="fill:#2E2C2D;" d="M186.33,144.78c2.23,0.5,3.13-0.47,2.92-2.65c4.06,1.28,4.92,6.53,9.25,7.47
	c0.72,2.41-2.71,2.81-2.42,5.01c0,0,0.1-0.1,0.1-0.1c-0.82,0.03-1.64,0.06-2.46,0.09C191.27,151.31,187.13,149.3,186.33,144.78z"/>
<path style="fill:#B6B7BB;" d="M41.99,61.64c-0.2,2.36-0.4,4.73-0.63,7.47c-3.9-1.55-5.16-4.09-4.87-7.61
	C38.32,61.55,40.16,61.6,41.99,61.64z"/>
<path style="fill:#B6B7BB;" d="M22.07,100.51c2.76,2.72,4.43,5.91,4.74,11.06c-3.02-2.91-5.48-4.69-4.83-8.31
	C22,102.34,22.03,101.43,22.07,100.51z"/>
<path style="fill:#F1F2F5;" d="M200.81,154.22c6.43-9.16,15.15-16.14,22.81-24.14c5.04-5.26,11.76-8.35,16.74-13.62
	c0.51-0.54,1.22-1.27,1.83-1.27c13.41,0.03,21.82-10.4,32.68-15.67c14.91-7.23,29.19-16.92,46.58-15.72
	c10.7,0.73,19.01,5.94,25.17,16.24c8.04,13.45,7.2,27.52,5.91,41.42c-0.92,9.92-2.29,20.22-6.36,29.8
	c-1.05,2.46-2.47,3.17-4.32,4.17c-2.72,1.48-5.97,2.96-1.37,6.14c1.33,0.92,0.96,2.44,0.38,3.29c-6.57,9.65-8.35,21.58-15.21,31.15
	c-6.79,9.46-12.38,19.81-19.42,29.06c-19.67,25.82-41.65,49.52-67.81,68.97c-5.82,4.33-11.63,8.83-17.25,13.3
	c-3.66,2.91-9.35-2.14-10.65,3.95c-1.18,5.55-6.65,5.07-9.89,7.66c-3.63,2.91-8.13,4.38-12.11,5.99c-12.41,5-25.17,9.81-39.06,8.07
	c-10.97-1.37-20.7-6.87-24.71-19.79c-4.5-14.49-3-28.87-0.36-43.57c2.52-14.06,7.66-27.08,13.21-39.94
	c5.11-11.84,11.41-23.18,18.12-34.25c5.62-9.26,10.52-18.92,17.54-27.34c2.84-3.41,5.18-2.1,7.97-1.34c0.64,0.17,0.97,1.4,1.62,1.62
	c3.08,1.04,7.46,1.81,7.77,4.86c0.24,2.35-3.03,5.22-5.04,7.6c-13.43,15.85-23.6,33.55-31.37,52.82
	c-6.68,16.59-10.5,33.46-9.51,51.42c0.84,15.28,13.95,25.51,30.7,19.38c24.18-8.85,41.71-26.35,59.81-43.11
	c22.27-20.62,42.34-43.43,61.36-67.06c10.58-13.15,19.03-27.83,27.26-42.6c5.58-10.02,9.04-20.7,11.51-31.72
	c1-4.46,1.47-9.38-0.86-13.78c-1.03-1.95-0.79-3.95-1.04-5.94c-2.14-3.5-2.13-8.54-7.14-9.99c-11.85-8.74-24.52-8.86-38.47-5.46
	c-10.89,2.65-19.53,8.48-28.85,13.92c-11.25,6.56-19.89,15.83-28.72,24.82c-5.03,5.12-9.4,11.19-13.85,16.99
	c-6.56,8.55-6.42,8.66-12.99-1C203.67,157.25,200.82,156.43,200.81,154.22z"/>
<path style="fill:#F1F2F5;" d="M223.03,210.79c-2.86,3.56-2.62,7.78-2.27,11.89c0.33,3.84,2.47,5.87,6.38,4.05
	c7.65-3.56,13.74-8.88,18.51-15.98c3.56-5.29,8.02-9.98,12.03-14.98c2.14-2.66,3.78-6.52,1.05-8.53c-2.95-2.16-6.73-5.4-11.41-2.41
	c-4.47,2.85-8.77,5.86-12.54,9.62c-1.19,1.18-2.98,3.22-4.19,0.59c-0.99-2.17-5.9-2.25-2.92-6.76c9.84-14.9,21.63-28.17,34.64-40.17
	c5.67-5.24,14.02-6.49,22.11-5.89c3.31,0.25,2.95,2.66,3.19,4.83c1.19,10.92-1.25,20.58-8.31,29.4
	c-7.03,8.78-10.15,19.96-16.71,29.17c-15.01,21.09-29.06,42.94-49.39,59.62c-4.42,3.63-9.03,6.92-15.05,7.08
	c-6.73,0.18-11.1-4.51-11.98-11.28c-1.08-8.32,2.66-15.42,5.66-22.31c5.7-13.08,16.36-23.11,23.93-35.11
	C220.34,203.83,223.47,205.5,223.03,210.79z"/>
<path style="fill:#F1F2F5;" d="M324.99,237.95c1.62,0,2.24-0.07,2.84,0.01c2.74,0.39,6.63-1.32,8.01,0.96
	c1.88,3.12-1.96,5.68-3.56,8.07c-6.69,9.96-13.81,19.65-20.98,29.28c-1.64,2.21-3.77,3.44-7.24,3.62
	c-6.13,0.32-12.06,3.12-18.44,2.46c-1.17-0.12-2.65,0.55-3.41-0.59c-1.22-1.84,0.91-2.24,1.73-3.18c4.71-5.43,9.18-11.1,14.23-16.21
	c4.11-4.17,9.81-4.5,15.41-4.78c1.9-0.09,5.41,1.59,5.5-1.62c0.11-3.95-3.81-2.15-6.06-2.86c-2.46-0.78-4.8,3.55-6.4,0.6
	c-1.47-2.72,1.84-5.07,3.23-7.17C313.54,240.97,317.48,234.86,324.99,237.95z"/>
<path style="fill:#F1F2F5;" d="M349.76,191.38c3.36,0.33,9.23-1.11,3.81,5.5c-0.11,0.13-0.17,0.43-0.09,0.55
	c6.15,9.66-3.29,15.68-5.73,23.23c-1.6,4.94-4.33,11.82-8.15,13.11c-4.3,1.46-10.57-0.28-15.98-0.52c-3.7-0.16-2.81-2.22-1.69-4
	c2.63-4.17,5.23-8.32,7.58-12.68c3.07-5.67,9.16-5.41,14.76-5.68c1.42-0.07,3.43,1,4.14-1.26c0.22-0.69,0.11-1.77-0.3-2.33
	c-1.48-2.01-2.89-0.43-4.08,0.44c-2.05,1.49-4.17-0.43-6.39,0.43c-1.95,0.76-2.31-1.03-1.56-2.61c1.91-4.03,3.7-8.13,5.93-11.98
	C343.7,190.67,346.95,191.57,349.76,191.38z"/>
<path style="fill:#F1F2F5;" d="M332.28,285.69c4.59,7.95,3.4,16.37,6.14,23.78c3.03,8.18,2.4,17.23,6.68,25.2
	c1.58,2.94,0.67,7.19,0.96,10.84c0.15,1.9-0.53,3.79,1.34,5.6c0.99,0.96,2.25,4.14-1.05,4.61c-2,0.29-4.7,1.28-5.59-2.62
	c-2.98-12.94-6.31-25.81-9.64-38.67c-1.73-6.7-3.04-13.66-5.9-19.87c-1.58-3.43,2.04-2.79,1.8-4.51
	C331.43,292.62,330.8,288.11,332.28,285.69z"/>
<path style="fill:#F1F2F5;" d="M200.87,161.99c1.06,1.82,2.1,3.65,3.18,5.46c3.24,5.41,2.41,8.41-2.89,12.27
	c-1.2,0.87-1.67,1.53-2.64,0.05c-0.18-0.28-0.68-0.35-1.03-0.53c-14.67-7.64-14.78-9.2-1.4-19.83
	C198.31,159.11,198.54,162.49,200.87,161.99z"/>
<path style="fill:#F1F2F5;" d="M262.45,299.41c1.11-0.78,2.21-2.21,3.33-2.22c9.54-0.1,18.95-1.78,28.55-2.32
	c-3.7,4.65-6.63,9.19-14.16,7.32c-5.56-1.38-11.77-0.12-17.69-0.03C262.47,301.24,262.46,300.32,262.45,299.41z"/>
<path style="fill:#F1F2F5;" d="M277.7,311.66c-2.6,2.72-5.86,6.69-6.23,6.44c-5.43-3.7-12.03,0.67-17.29-2.79
	c-0.83-0.55-1.78-0.92-2.6-1.47c-0.79-0.53-3.33,0.62-1.96-2.11c0.75-1.49,1.11-2.71,3.35-2.5c4.18,0.38,7.78,3.03,12.22,2.53
	C269.07,311.31,273.06,311.66,277.7,311.66z"/>
<path style="fill:#F1F2F5;" d="M301.84,284.64c0.41,4.24-2.33,6.08-3.22,6c-8.25-0.7-16.23,2.63-24.45,1.47
	c-0.77-0.11-1.65,0.03-1.97-0.97c-0.31-0.96,0.2-1.47,0.99-1.9c1.32-0.72,1.83-2.38,3.95-2.26c6.87,0.41,13.7,0.15,20.33-2.28
	C298.86,284.18,301.45,283.36,301.84,284.64z"/>
<path style="fill:#B6B7BB;" d="M295.61,316.95c1.25,3.46,1.33,6.59-0.01,10.03c-2.02,5.19-1.05,10.87-1.53,16.33
	c-0.2,2.21,0.91,5.43-3.27,4.93c-3.56-0.43-2.36-3.01-2.18-5.14c0.4-4.67,0.06-9.52,1.27-13.96
	C291.03,324.93,294.23,321.38,295.61,316.95z"/>
<path style="fill:#F1F2F5;" d="M183.72,176.25c4.01,2.09,8.21,3.96,12.02,6.44c1.44,0.94,1.17,3.41-0.03,4.95
	c-1.25,1.61-2.9,1.53-4.58,0.39c-2.85-1.95-5.72-3.77-9.33-4.14c-2.06-0.21-3.67-2.08-2.84-3.81
	C179.74,178.45,180.97,176.17,183.72,176.25z"/>
<path style="fill:#B6B7BB;" d="M223.03,210.79c0.44-5.28-2.69-6.96-7.26-7.18c-0.05-2.44,3.71-2.8,3.01-5.9
	c-0.3-1.33,2.41-1.59,2.79-1.07c1.65,2.18,6.82,3.06,5.66,4.83C225.26,204.46,227.21,209.09,223.03,210.79z"/>
<path style="fill:#B6B7BB;" d="M326.31,110.32c5.01,1.45,5,6.49,7.14,9.99c-0.19-0.08-0.36-0.21-0.56-0.24
	C323.72,118.54,323.37,118.01,326.31,110.32z"/>
<path style="fill:#F1F2F5;" d="M255.27,320.32c-3.9,1.68-7.84,1.23-11.72,0.79c-1.46-0.17-2.63-1.69-2.66-2.99
	c-0.03-1.89,2-1.59,3.24-1.79C248.4,315.63,251.48,318.85,255.27,320.32z"/>
<path style="fill:#B6B7BB;" d="M22.07,132.47c-1.1,0.19-2.01,0.2-2.33-0.67c-0.28-0.75,0.21-1.32,0.79-2.01
	c2.59-3.08,7.36-2.58,9.71-6.27c0.75-1.17,1.63,1.19,2.55,1.8c0.73,0.49,1.01,1.23-0.12,1.79
	C29.05,128.92,25.44,130.76,22.07,132.47z"/>
<path style="fill:#B6B7BB;" d="M85.14,107.56c-3.65,0.58-7.25,0.83-10.88-0.17C80.22,102.48,80.22,102.48,85.14,107.56z"/>
<path style="fill:#B6B7BB;" d="M200.87,161.99c-2.32,0.5-2.56-2.88-4.78-2.58c0.03-1.64,0.07-3.27,0.1-4.91c0,0-0.1,0.1-0.1,0.1
	c1.57-0.13,3.15-0.26,4.72-0.39c0.01,2.21,2.86,3.03,2.62,5.36C201.65,159.4,200.91,160.33,200.87,161.99z"/>
<path style="fill:#B6B7BB;" d="M214.8,342.63c-3.05,1.19-5.62,1.13-7.14-2.19c-0.69-1.5,0.67-1.65,1.5-1.93
	C212.91,337.28,213.7,340.12,214.8,342.63z"/>
<path style="fill:#B6B7BB;" d="M231.05,337.35c4.54-1.53,9.13-1.52,15.14-0.59C240.48,340.4,235.67,337.8,231.05,337.35z"/>
<path style="fill:#B6B7BB;" d="M262.45,299.41c0.01,0.91,0.02,1.83,0.03,2.74c-0.05,1.49-0.09,2.98-0.14,4.46l0.09-0.1
	c-2.35,0.5-4.67,0.5-7.65-0.51C257.53,303.55,259.32,300.78,262.45,299.41z"/>
<path style="fill:#B6B7BB;" d="M160.86,284.87c0.55,3.27,2.18,6.67-0.88,9.46c-0.68,0.62-1.48,1.73-2.45,0.59
	c-0.42-0.5-0.58-2.03-0.32-2.18C160.33,290.92,158.6,287.14,160.86,284.87z"/>
<path style="fill:#B6B7BB;" d="M59.38,96.95c3.66-1.33,7.35-1.76,12.14-0.28C66.87,99.12,63.13,98.22,59.38,96.95z"/>
<path style="fill:#B6B7BB;" d="M200.87,350.07c-3.02,0.72-5.48,1.61-6.84-1.51c-0.42-0.95-0.62-2.14,0.74-2.43
	C198.03,345.44,198.82,348.26,200.87,350.07z"/>
<path style="fill:#B6B7BB;" d="M148.36,294.95c1.33,3.39,1.19,6.77-0.06,10.15C147.17,301.74,146.99,298.36,148.36,294.95z"/>
<path style="fill:#B6B7BB;" d="M75.65,88.64c-5.14-0.6-4.69-3.71-3.89-8.15C73.6,83.7,74.08,86.4,75.65,88.64z"/>
<path style="fill:#B6B7BB;" d="M227.05,330.32c4.98-2.9,5.83,0.65,8.5,2.24C231.55,333.74,230.42,330.78,227.05,330.32z"/>
<path style="fill:#B6B7BB;" d="M223.27,345.18c0.28-0.96,0.29-1.26,0.39-1.29c3.08-1.07,6.17-0.94,9.21,0.14
	c0.09,0.03,0.01,1.34-0.22,1.42C229.57,346.52,226.51,346.08,223.27,345.18z"/>
<path style="fill:#B6B7BB;" d="M180.94,352.12c4.43-2.45,5.47-0.08,6.48,2.62C184.02,356.26,183.64,352.72,180.94,352.12z"/>
<path style="fill:#B6B7BB;" d="M48.32,89.51c3.78-1.53,6.44-1.55,9.35-0.58C54.22,91.32,54.22,91.32,48.32,89.51z"/>
<path style="fill:#B6B7BB;" d="M11.5,124.1c2.81-1.48,4.63-2.44,6.45-3.4C16.77,122.81,16.13,125.7,11.5,124.1z"/>
<path style="fill:#B6B7BB;" d="M262.34,306.62c3,0.19,6,0.38,9.01,0.56c-0.04,0.5-0.09,1.01-0.13,1.51
	c-2.92-0.79-6.16,1.96-8.78-2.17C262.43,306.52,262.34,306.62,262.34,306.62z"/>
<path style="fill:#F1F2F5;" d="M231.48,354.53c-1.8,2.07-3.87,0.83-6.24,0.66c1.1-2.54,3.12-2.24,4.91-2.39
	C230.6,353.38,231.04,353.96,231.48,354.53z"/>
</svg>
