<?xml version="1.0" encoding="utf-8"?>
<!-- Generator: Adobe Illustrator 24.3.0, SVG Export Plug-In . SVG Version: 6.00 Build 0)  -->
<svg version="1.1" xmlns="http://www.w3.org/2000/svg" xmlns:xlink="http://www.w3.org/1999/xlink" x="0px" y="0px"
	 viewBox="0 0 500 500" style="enable-background:new 0 0 500 500;" xml:space="preserve">
<style type="text/css">
	.st0{fill:#FFFFFF;}
	.st1{fill:#E0E0E0;}
	.st2{fill:#F5F5F5;}
	.st3{display:none;}
	.st4{display:inline;fill:#F5F5F5;}
	.st5{fill:#263238;}
	.st6{fill:#455A64;}
	.st7{fill:#EBEBEB;}
	.st8{fill:#E8505B;}
	.st9{opacity:0.3;}
	.st10{opacity:0.3;fill:#FFFFFF;}
	.st11{opacity:0.2;}
	.st12{fill:#FFBE9D;}
	.st13{opacity:0.4;fill:#FFFFFF;}
	.st14{opacity:0.4;}
	.st15{fill:#EB996E;}
</style>
<g id="Background_Complete">
	<g>
		<g>
			<g>
				
					<rect x="389.66" y="123.02" transform="matrix(1 -4.083923e-03 4.083923e-03 1 -0.6402 1.7046)" class="st0" width="54.81" height="69.2"/>
				<g>
					<path class="st1" d="M389.8,192.33c0,0,0.36-0.02,1.02-0.03c0.68-0.01,1.66-0.02,2.94-0.04c2.58-0.02,6.33-0.06,11.12-0.1
						c9.57-0.07,23.25-0.16,39.74-0.27l-0.22,0.22c-0.09-19.76-0.21-43.57-0.33-69.19l0-0.01l0.26,0.26
						c-19.78,0.07-38.48,0.14-54.81,0.2l0.23-0.23c0.04,20.52,0.07,37.79,0.09,49.94c0,6.08,0,10.88,0,14.18
						c-0.01,1.63-0.01,2.89-0.01,3.77c0,0.42-0.01,0.74-0.01,0.97C389.81,192.22,389.8,192.33,389.8,192.33c0,0-0.01-0.1-0.01-0.31
						c0-0.23-0.01-0.54-0.02-0.95c-0.01-0.86-0.02-2.11-0.04-3.72c-0.03-3.29-0.07-8.07-0.12-14.12
						c-0.08-12.19-0.19-29.51-0.32-50.09l0-0.23l0.23,0c16.33-0.07,35.03-0.16,54.81-0.25l0.26,0v0.26v0.01
						c0.09,25.62,0.17,49.43,0.24,69.19l0,0.22l-0.22,0c-16.55,0.02-30.27,0.04-39.88,0.05c-4.76,0-8.5-0.01-11.07-0.01
						c-1.26-0.01-2.22-0.01-2.9-0.01C390.13,192.35,389.8,192.33,389.8,192.33z"/>
				</g>
			</g>
		</g>
		<g>
			
				<rect x="413.75" y="190.67" transform="matrix(1 -4.117644e-03 4.117644e-03 1 -0.7854 1.721)" class="st1" width="7.6" height="1.85"/>
		</g>
		<g>
			
				<rect x="409.11" y="147.23" transform="matrix(1 -4.084054e-03 4.084054e-03 1 -0.6469 1.7061)" class="st1" width="16.63" height="24.01"/>
		</g>
		<g>
			
				<rect x="414.54" y="122.08" transform="matrix(1 -4.114150e-03 4.114150e-03 1 -0.502 1.7222)" class="st1" width="7.6" height="1.58"/>
		</g>
	</g>
	<g>
		<g>
			<g>
				<polygon class="st1" points="136.41,78.91 86.88,78.91 86.88,143.5 136.41,144.74 				"/>
			</g>
		</g>
		<g>
			<g>
				<polygon class="st0" points="133.15,81.21 89.81,81.21 89.81,139.79 133.15,141.25 				"/>
			</g>
		</g>
		<g>
			<g>
				<polygon class="st1" points="125.56,91.85 96.8,90.76 96.8,131.7 125.56,131.7 				"/>
			</g>
		</g>
		<g>
			<g>
				<polygon class="st2" points="96.8,131.7 125.56,110.67 96.8,90.76 				"/>
			</g>
		</g>
	</g>
	<g>
		<g>
			<g>
				<polygon class="st1" points="96.8,178.26 62.99,178.26 62.99,222.34 96.8,223.19 				"/>
			</g>
		</g>
		<g>
			<g>
				<polygon class="st0" points="94.57,179.83 64.99,179.83 64.99,219.81 94.57,220.81 				"/>
			</g>
		</g>
		<g>
			<g>
				<polygon class="st1" points="89.39,187.1 69.76,186.35 69.76,214.29 89.39,214.29 				"/>
			</g>
		</g>
		<g>
			<g>
				<polygon class="st2" points="69.76,214.29 89.39,199.94 69.76,186.35 				"/>
			</g>
		</g>
	</g>
	<g>
		<path class="st2" d="M388.47,422.32c-1.33-1.13-4.29-4.73-2.01-8.91c0.84-1.53,2.62-2.29,4.23-2.97c1.61-0.68,3.3-1.26,4.64-2.39
			c2.51-2.13,3.21-5.67,4.88-8.51c1.92-3.26,5.49-5.7,9.27-5.53c4.33,0.2,7.93,3.71,9.57,7.72c1.64,4.01,1.69,8.46,1.73,12.79
			c0.02,2.39-0.09,5.09-1.85,6.71c-1.63,1.49-4.08,1.51-6.29,1.44c-7.88-0.24-15.76-0.48-23.64-0.72"/>
		<path class="st1" d="M429.88,366.18h-56.52l10.18,60.43c0.45,2.64,2.36,4.67,4.83,5.38c0.07,0.02,0.13,0.04,0.2,0.05
			c0.17,0.04,0.33,0.1,0.5,0.13c0.37,0.08,0.76,0.12,1.15,0.13c0,0.02,0.01,0.04,0.01,0.06l0.28-0.04c0,0,0,0,0,0h25.19
			c0.47,0,0.94-0.05,1.38-0.14c2.98-0.46,5.36-2.83,5.72-5.91l4.91-41.64l0.22-1.66h-0.03l1.94-16.49L429.88,366.18z M419.21,404.73
			h-5.8l0.59-17.54h6.72L419.21,404.73z M421.28,387.19h5.55l-2.07,17.54h-4.99L421.28,387.19z M404.71,424.17l-0.35-15.24h8.35
			l-0.51,15.24H404.71z M395.68,408.94h8.12l0.35,15.24h-7.28L395.68,408.94z M396.31,424.17h-6.81c-0.65-4.11-1.49-9.46-2.4-15.24
			h8.01L396.31,424.17z M395.35,404.73l-1.37-17.54h9.31l0.41,17.54H395.35z M404.26,404.73l-0.41-17.54h9.58l-0.59,17.54H404.26z
			 M403.76,382.98l-0.38-16.24h10.74l-0.54,16.24H403.76z M403.2,382.98h-9.54l-1.27-16.24h10.43L403.2,382.98z M393.09,382.98H383
			c-0.36-2.24-0.7-4.37-1-6.28c-1.05-6.57-1.45-9.04-1.67-9.97h11.5L393.09,382.98z M393.42,387.19l1.37,17.54h-8.35
			c-0.28-1.78-0.57-3.58-0.85-5.38c-0.65-4.14-1.31-8.28-1.93-12.16H393.42z M385.87,404.73h-5.45l-2.96-17.54h5.63
			C383.96,392.61,384.91,398.64,385.87,404.73z M386.54,408.94c0.83,5.27,1.65,10.47,2.4,15.24h-5.24l-2.57-15.24H386.54z
			 M412.77,424.17l0.51-15.24h5.58l-1.31,15.24H412.77z M414.14,382.98l0.54-16.24h7.79l-1.39,16.24H414.14z M379.79,366.74
			c0.22,1.17,1.26,7.57,2.64,16.24h-5.67l-2.74-16.24H379.79z M422.48,424.17h-4.37l1.31-15.24h4.86L422.48,424.17z M427.33,382.98
			h-5.69l1.39-16.24h6.21L427.33,382.98z"/>
	</g>
</g>
<g id="Background_Simple" class="st3">
	<path class="st4" d="M99.02,114.89c-23.13,51.27-17.25,113.73,14.28,160.3c31.53,46.58,83.99,76.73,139.16,87.71
		c39.38,7.84,81.74,6.24,117.72-11.58c35.98-17.82,64.27-53.67,66.43-93.76c0.81-15.14-2.4-31.22-12.5-42.53
		c-16.14-18.06-43.68-18.69-67.89-17.95c-24.2,0.75-51.73,0.18-67.95-17.8c-12.46-13.82-14.29-33.86-20.86-51.27
		c-11.16-29.6-38.1-52.72-69.05-59.26c-30.95-6.54-64.94,3.7-87.12,26.25C111.24,95,103.56,104.83,99.02,114.89z"/>
</g>
<g id="Floor">
	<g>
		<g>
			<path class="st5" d="M468.49,432.75c0,0.21-95.65,0.38-213.61,0.38c-118,0-213.63-0.17-213.63-0.38
				c0-0.21,95.63-0.38,213.63-0.38C372.84,432.37,468.49,432.54,468.49,432.75z"/>
		</g>
	</g>
</g>
<g id="Sketches">
	<g>
		
			<rect x="179.87" y="107.81" transform="matrix(1 3.759712e-03 -3.759712e-03 1 0.569 -0.7914)" class="st2" width="61.84" height="86.29"/>
		<g>
			<path class="st5" d="M193.89,168.31c0,0,0.09-0.01,0.24-0.01c0.17,0,0.4-0.01,0.68-0.01c0.62-0.01,1.5-0.01,2.62-0.03
				c2.3-0.01,5.63-0.03,9.86-0.05l-0.14,0.14c-0.02-4.36-0.05-9.76-0.08-15.94l0-0.19l0.2,0c2.99-0.05,6.23-0.11,9.64-0.17l0.22,0
				l0,0.22c0.1,4.92,0.21,10.34,0.33,16.05l-0.24-0.24c4.41,0.03,9.01,0.06,13.74,0.09l-0.26,0.26c-0.12-4.67-0.25-9.53-0.38-14.5
				c-0.1-3.75-0.19-7.45-0.28-11.06l0.1,0.2c-6.78-5.23-13.23-10.2-19.17-14.78l0.3-0.01c-6.63,6.01-12.59,11.4-17.67,16l0.06-0.14
				c0.09,7.44,0.16,13.45,0.21,17.64c0.02,2.08,0.03,3.7,0.04,4.83c0,0.54,0,0.96,0,1.27C193.9,168.16,193.9,168.31,193.89,168.31
				c-0.01,0.01-0.01-0.13-0.03-0.41c-0.01-0.3-0.02-0.71-0.04-1.23c-0.03-1.12-0.07-2.73-0.13-4.78c-0.1-4.21-0.24-10.27-0.41-17.75
				l0-0.08l0.06-0.06c5.05-4.62,10.99-10.04,17.6-16.07l0.15-0.13l0.16,0.12c5.95,4.57,12.4,9.53,19.2,14.74l0.1,0.07l0,0.12
				c0.09,3.61,0.19,7.31,0.29,11.06c0.13,4.97,0.25,9.83,0.37,14.5l0.01,0.27l-0.27,0c-4.74-0.04-9.33-0.08-13.74-0.12l-0.24,0
				l0-0.24c-0.1-5.71-0.19-11.13-0.28-16.05l0.22,0.22c-3.41,0.05-6.65,0.09-9.64,0.13l0.19-0.2c-0.01,6.18-0.02,11.58-0.03,15.94
				l0,0.14l-0.14,0c-4.26-0.05-7.62-0.08-9.94-0.11c-1.12-0.02-1.98-0.03-2.59-0.04c-0.27-0.01-0.49-0.01-0.66-0.02
				C193.96,168.32,193.89,168.32,193.89,168.31z"/>
		</g>
		<g>
			<path class="st5" d="M183.74,110.43c0,0,0.32-0.01,0.96-0.01c0.66,0,1.62,0.01,2.86,0.01c2.54,0.02,6.25,0.04,10.98,0.08
				c9.55,0.09,23.25,0.21,39.92,0.36l0.21,0l0,0.21c0.01,21.95,0.03,49.39,0.05,79.11l0,0.26l-0.26,0c-0.13,0-0.27,0-0.41,0
				c-19.31,0.12-37.66,0.23-54.16,0.33l-0.24,0v-0.24c0-23.64,0-43.68,0-57.84c0.01-7.04,0.02-12.61,0.03-16.44
				c0.01-1.89,0.02-3.34,0.02-4.35c0.01-0.48,0.01-0.85,0.01-1.11C183.74,110.55,183.74,110.43,183.74,110.43s0.01,0.14,0.01,0.39
				c0,0.27,0.01,0.65,0.02,1.14c0.01,1.01,0.02,2.49,0.04,4.39c0.02,3.84,0.06,9.43,0.1,16.49c0.06,14.12,0.14,34.11,0.23,57.69
				l-0.24-0.24c16.49-0.11,34.85-0.24,54.16-0.37c0.14,0,0.28,0,0.41,0l-0.26,0.26c0.02-29.72,0.04-57.16,0.05-79.11l0.21,0.21
				c-16.61-0.24-30.27-0.44-39.79-0.58c-4.76-0.08-8.48-0.14-11.03-0.18c-1.26-0.03-2.23-0.04-2.9-0.06
				C184.09,110.45,183.74,110.43,183.74,110.43z"/>
		</g>
		<polygon class="st6" points="230.92,104.67 243.94,117.59 246.22,114.64 233.12,102.9 		"/>
		<polygon class="st6" points="175.14,186.43 188.16,199.35 190.45,196.4 177.34,184.66 		"/>
		<g>
			<path class="st5" d="M238.47,186.2c0,0.07-1.34,0.15-3.5,0.21c-2.16,0.06-5.14,0.12-8.44,0.14c-3.08,0.02-5.88,0.02-7.97-0.01
				l0.19-0.2c0.02,1.22,0.03,2.22,0.02,2.9c-0.01,0.69-0.03,1.07-0.07,1.07c-0.04,0-0.09-0.38-0.15-1.06
				c-0.06-0.68-0.12-1.67-0.19-2.9l-0.01-0.19l0.2-0.01c2.09-0.06,4.89-0.11,7.97-0.13c3.3-0.03,6.28-0.02,8.44,0.01
				C237.13,186.07,238.47,186.12,238.47,186.2z"/>
		</g>
	</g>
	<g>
		
			<rect x="283.13" y="127.11" transform="matrix(0.9786 -0.2057 0.2057 0.9786 -25.835 66.0411)" class="st7" width="43.27" height="60.37"/>
		<g>
			<path class="st5" d="M295.75,171.65c0-0.01,0.06-0.02,0.17-0.05c0.13-0.03,0.28-0.07,0.47-0.11c0.44-0.1,1.04-0.24,1.79-0.41
				c1.59-0.35,3.85-0.86,6.72-1.5l-0.11,0.17c-0.66-2.98-1.47-6.67-2.41-10.89l-0.04-0.19l0.19-0.04c2.04-0.48,4.25-0.99,6.57-1.54
				l0.21-0.05l0.05,0.21c0.79,3.35,1.66,7.04,2.58,10.93l-0.29-0.18c3.02-0.63,6.17-1.28,9.41-1.95l-0.2,0.31
				c-0.77-3.17-1.57-6.48-2.38-9.86c-0.62-2.55-1.22-5.07-1.81-7.52l0.14,0.17c-5.41-2.59-10.54-5.04-15.28-7.31l0.29-0.08
				c-3.66,5.07-6.95,9.63-9.76,13.52l0.03-0.15c1.13,5.06,2.05,9.16,2.69,12.03c0.31,1.41,0.55,2.51,0.72,3.31
				c0.08,0.36,0.14,0.65,0.18,0.87C295.74,171.54,295.75,171.64,295.75,171.65c0,0.01-0.03-0.08-0.08-0.27
				c-0.06-0.21-0.13-0.49-0.21-0.83c-0.19-0.78-0.46-1.86-0.8-3.25c-0.7-2.89-1.69-7.01-2.91-12.09l-0.02-0.08l0.05-0.07
				c2.78-3.9,6.04-8.49,9.67-13.58l0.11-0.16l0.18,0.09c4.74,2.25,9.88,4.7,15.3,7.27l0.11,0.05l0.03,0.12
				c0.59,2.46,1.2,4.97,1.82,7.52c0.81,3.38,1.61,6.69,2.38,9.86l0.06,0.26l-0.26,0.05c-3.25,0.67-6.4,1.31-9.42,1.93l-0.23,0.05
				l-0.05-0.23c-0.9-3.89-1.76-7.59-2.53-10.94l0.26,0.16c-2.33,0.53-4.54,1.03-6.58,1.49l0.15-0.23c0.89,4.23,1.67,7.92,2.3,10.91
				l0.03,0.14l-0.14,0.03c-2.91,0.58-5.22,1.04-6.83,1.36c-0.75,0.14-1.34,0.26-1.78,0.34
				C295.94,171.63,295.74,171.66,295.75,171.65z"/>
		</g>
		<g>
			<path class="st5" d="M280.33,133.54c0,0,0.21-0.06,0.65-0.15c0.46-0.1,1.11-0.24,1.95-0.42c1.75-0.37,4.28-0.9,7.52-1.57
				c6.56-1.35,15.95-3.28,27.38-5.64l0.2-0.04l0.04,0.2c3.23,15.02,7.26,33.79,11.63,54.11l0.05,0.25l-0.25,0.06
				c-0.09,0.02-0.18,0.04-0.28,0.06c-13.19,2.91-25.73,5.67-37.01,8.15l-0.23,0.05l-0.05-0.23c-3.45-16.18-6.37-29.9-8.44-39.6
				c-1.01-4.81-1.81-8.62-2.37-11.25c-0.26-1.28-0.47-2.27-0.61-2.97c-0.06-0.32-0.11-0.57-0.15-0.76
				C280.34,133.62,280.33,133.53,280.33,133.54c0.01,0,0.03,0.1,0.07,0.27c0.05,0.2,0.11,0.45,0.18,0.78
				c0.16,0.71,0.39,1.71,0.68,3.01c0.59,2.64,1.43,6.46,2.5,11.27c2.12,9.66,5.11,23.31,8.64,39.4l-0.28-0.18
				c11.27-2.5,23.81-5.27,37-8.19c0.1-0.02,0.19-0.04,0.28-0.06l-0.2,0.31c-4.33-20.33-8.33-39.11-11.54-54.14l0.25,0.16
				c-11.39,2.25-20.75,4.1-27.29,5.4c-3.26,0.63-5.82,1.13-7.58,1.48c-0.86,0.16-1.53,0.29-2,0.38
				C280.58,133.5,280.33,133.54,280.33,133.54z"/>
		</g>
		<polygon class="st6" points="311.76,122.68 322.56,129.61 323.69,127.26 313.01,121.15 		"/>
		<polygon class="st6" points="285.58,186.79 296.38,193.72 297.51,191.37 286.82,185.26 		"/>
		<g>
			<path class="st5" d="M328.87,177.36c0.02,0.07-0.88,0.34-2.35,0.71c-1.47,0.37-3.5,0.86-5.75,1.36c-2.1,0.47-4.02,0.87-5.46,1.14
				l0.15-0.24c0.37,1.67,0.57,2.72,0.49,2.74c-0.07,0.02-0.4-1-0.87-2.64l-0.05-0.19l0.2-0.05c1.42-0.36,3.33-0.81,5.43-1.28
				c2.25-0.5,4.3-0.92,5.78-1.21C327.93,177.43,328.85,177.29,328.87,177.36z"/>
		</g>
	</g>
	<g>
		
			<rect x="292.5" y="55.82" transform="matrix(0.1639 -0.9865 0.9865 0.1639 179.4327 375.2502)" class="st7" width="37.19" height="51.89"/>
		<g>
			<path class="st5" d="M301.34,90.86c0.01-0.01,0.16,0,0.45,0.04c0.32,0.04,0.74,0.08,1.25,0.14c1.12,0.14,2.68,0.33,4.63,0.58
				l-0.16,0.12c0.27-2.07,0.6-4.61,0.97-7.52l0.03-0.19l0.2,0.02c1.42,0.17,2.95,0.35,4.56,0.54l0.22,0.03l-0.03,0.22
				c-0.27,2.33-0.57,4.89-0.88,7.58l-0.21-0.27c2.08,0.3,4.24,0.61,6.47,0.94l-0.29,0.22c0.25-2.21,0.5-4.51,0.77-6.85
				c0.2-1.77,0.4-3.52,0.59-5.23l0.07,0.21c-2.85-2.91-5.56-5.67-8.06-8.23l0.3,0.03c-3.52,2.38-6.68,4.53-9.39,6.36l0.08-0.13
				c-0.46,3.46-0.84,6.28-1.1,8.29c-0.13,0.95-0.24,1.71-0.32,2.28C301.4,90.57,301.35,90.85,301.34,90.86
				c-0.01,0.01,0.01-0.25,0.05-0.76c0.06-0.56,0.13-1.31,0.23-2.25c0.22-2.04,0.54-4.9,0.92-8.42l0.01-0.08l0.07-0.05
				c2.69-1.86,5.83-4.03,9.33-6.44l0.16-0.11l0.14,0.14c2.51,2.54,5.23,5.3,8.09,8.19l0.09,0.09l-0.01,0.12
				c-0.19,1.71-0.39,3.45-0.59,5.23c-0.27,2.35-0.53,4.65-0.78,6.85l-0.03,0.26l-0.26-0.04c-2.23-0.33-4.39-0.65-6.47-0.96
				l-0.24-0.04l0.03-0.24c0.33-2.69,0.65-5.25,0.93-7.58l0.19,0.24c-1.61-0.21-3.14-0.4-4.55-0.58l0.22-0.17
				c-0.42,2.9-0.79,5.44-1.09,7.5l-0.02,0.14l-0.14-0.02c-1.98-0.31-3.55-0.57-4.69-0.75c-0.5-0.08-0.89-0.15-1.21-0.21
				C301.46,90.9,301.33,90.87,301.34,90.86z"/>
		</g>
		<g>
			<path class="st5" d="M284.43,93.92c0,0,0.02-0.19,0.08-0.57c0.07-0.41,0.16-0.97,0.27-1.69c0.25-1.52,0.62-3.71,1.08-6.51
				c0.97-5.69,2.34-13.81,4.02-23.7l0.03-0.2l0.21,0.03c13.04,2.1,29.33,4.73,46.97,7.57l0.26,0.04l-0.04,0.26
				c-0.01,0.08-0.02,0.16-0.04,0.24c-1.79,11.47-3.5,22.38-5.03,32.18l-0.04,0.24l-0.24-0.04c-14.03-2.3-25.93-4.25-34.36-5.63
				c-4.16-0.69-7.45-1.24-9.74-1.63c-1.1-0.19-1.96-0.34-2.57-0.44c-0.27-0.05-0.48-0.09-0.65-0.12
				C284.5,93.94,284.43,93.92,284.43,93.92c0.01,0,0.09,0,0.24,0.02c0.18,0.02,0.4,0.06,0.68,0.1c0.62,0.09,1.5,0.22,2.62,0.39
				c2.3,0.35,5.63,0.86,9.82,1.51c8.4,1.32,20.26,3.18,34.24,5.37l-0.27,0.2c1.52-9.8,3.21-20.71,4.99-32.19
				c0.01-0.08,0.03-0.17,0.04-0.24l0.22,0.3c-17.64-2.88-33.92-5.54-46.95-7.67l0.24-0.17c-1.76,9.81-3.2,17.88-4.22,23.53
				c-0.51,2.81-0.91,5.01-1.19,6.54c-0.14,0.74-0.25,1.31-0.32,1.72C284.49,93.71,284.43,93.92,284.43,93.92z"/>
		</g>
		<polygon class="st6" points="285.56,65.36 294.48,58.87 292.95,57.23 284.72,63.88 		"/>
		<polygon class="st6" points="328.72,106.35 337.65,99.86 336.11,98.22 327.88,104.87 		"/>
		<g>
			<path class="st5" d="M334.68,68.73c0.14,0.02-0.23,3.22-0.84,7.14c-0.28,1.83-0.57,3.49-0.8,4.73l-0.17-0.22
				c1.45,0.23,2.35,0.41,2.34,0.49c-0.01,0.08-0.92,0.03-2.39-0.1l-0.19-0.02l0.02-0.2c0.15-1.25,0.38-2.92,0.67-4.75
				C333.94,71.87,334.54,68.71,334.68,68.73z"/>
		</g>
	</g>
</g>
<g id="Desk">
	<g>
		<path class="st6" d="M192.6,277.19c-0.18,0.99,0,155.56,0,155.56h-6.86V277.19H192.6z"/>
		<path class="st6" d="M311.36,290.78c-0.18,0.99,0,141.69,0,141.69h-6.86V290.78H311.36z"/>
		<path class="st6" d="M345.86,264.96c-0.18,0.99,0,167.51,0,167.51H339V264.96H345.86z"/>
		<path class="st6" d="M343.38,219.13c0.56-0.93,0,50.31,0,50.31l-6.32,0.97l1.5-50.67L343.38,219.13z"/>
		<path class="st5" d="M307.7,293.84c-0.47,1.42,51-94.19,51-94.19l-0.95-4.32l-125.17-7.23l-47.63,90.57L307.7,293.84z"/>
		<path class="st6" d="M307.18,290.43c-0.13-2.4,50.57-95.45,50.57-95.45l-127.8-11.73l-46.85,91.7L307.18,290.43z"/>
		<g>
			<polygon class="st2" points="247.81,264.43 291.87,269.03 320.12,197.67 256.75,189.87 225,261.59 			"/>
			<g>
				<g>
					<path class="st8" d="M288.26,208.08c0,0,0.37,0.05,1.05,0.28c0.67,0.22,1.65,0.64,2.76,1.42c1.1,0.78,2.34,1.94,3.35,3.59
						c1.01,1.64,1.75,3.83,1.62,6.28c-0.11,2.43-1.04,5.09-2.9,7.29c-0.93,1.08-2.09,2.1-3.51,2.71c-1.39,0.65-2.87,1.12-4.36,1.65
						c-0.75,0.26-1.5,0.53-2.24,0.84c-0.37,0.15-0.74,0.32-1.1,0.5l-0.54,0.28c-0.13,0.08-0.28,0.22-0.42,0.36
						c-0.55,0.58-1.02,1.26-1.4,1.99c-0.39,0.72-0.6,1.56-1.01,2.36c-0.4,0.78-0.94,1.59-1.79,2.06c-0.86,0.46-1.85,0.47-2.74,0.39
						c-1.78-0.21-3.58-0.42-5.4-0.63c-0.91-0.12-1.82-0.25-2.72-0.43c-0.9-0.2-1.82-0.46-2.58-1.11c-0.37-0.33-0.64-0.88-0.54-1.41
						c0.09-0.53,0.31-0.9,0.5-1.31c0.39-0.8,0.82-1.56,1.24-2.32c0.42-0.76,0.83-1.51,1.23-2.25l0.29-0.56l0.14-0.28
						c0.03-0.09,0.05-0.12,0.05-0.21c0.03-0.34-0.07-0.76-0.17-1.15c-0.41-1.59-0.97-3.13-1.29-4.71c-0.65-3.22,0.29-6.38,1.81-8.79
						c1.53-2.43,3.6-4.25,5.76-5.37c2.14-1.13,4.26-1.8,6.18-2.05c1.91-0.26,3.58-0.13,4.91,0.01c1.34,0.15,2.37,0.33,3.07,0.45
						c0.32,0.06,0.58,0.11,0.79,0.15c0.18,0.04,0.27,0.06,0.27,0.07c0,0.01-0.09,0-0.27-0.02c-0.21-0.03-0.47-0.06-0.8-0.1
						c-0.7-0.08-1.73-0.23-3.07-0.35c-1.33-0.1-2.98-0.2-4.85,0.08c-1.87,0.27-3.95,0.96-6.04,2.08c-2.09,1.11-4.1,2.9-5.57,5.27
						c-1.46,2.34-2.34,5.4-1.71,8.46c0.31,1.54,0.87,3.06,1.3,4.69c0.1,0.42,0.21,0.82,0.18,1.32c0,0.11-0.05,0.29-0.1,0.39
						l-0.14,0.28l-0.29,0.57c-0.41,0.75-0.82,1.5-1.23,2.26c-0.42,0.76-0.84,1.52-1.22,2.3c-0.18,0.38-0.4,0.8-0.45,1.15
						c-0.06,0.36,0.1,0.7,0.39,0.96c0.6,0.53,1.48,0.8,2.33,0.98c0.88,0.17,1.78,0.3,2.68,0.42c1.82,0.21,3.61,0.42,5.38,0.63
						c0.87,0.08,1.74,0.06,2.45-0.32c0.71-0.39,1.2-1.09,1.58-1.84c0.39-0.74,0.6-1.58,1.02-2.36c0.4-0.77,0.89-1.49,1.49-2.11
						c0.16-0.15,0.3-0.3,0.53-0.44l0.56-0.29c0.38-0.18,0.75-0.35,1.14-0.51c0.76-0.31,1.52-0.58,2.27-0.84
						c1.5-0.52,2.98-0.99,4.33-1.61c1.36-0.59,2.45-1.54,3.37-2.58c1.81-2.12,2.73-4.68,2.86-7.03c0.15-2.37-0.54-4.5-1.5-6.11
						c-0.96-1.63-2.15-2.79-3.22-3.58c-1.07-0.8-2.02-1.23-2.68-1.49C288.62,208.2,288.26,208.1,288.26,208.08z"/>
				</g>
				<g>
					<path class="st8" d="M279.61,236.9c0.03,0.02-0.15,0.48-0.52,1.31c-0.36,0.83-0.9,2.03-1.51,3.52
						c-0.31,0.75-0.63,1.57-0.95,2.47c-0.33,0.89-0.68,1.92-1.5,2.73c-0.82,0.81-1.95,1.25-3.11,1.5c-1.16,0.25-2.4,0.36-3.66,0.29
						c-1.26-0.07-2.48-0.32-3.6-0.7c-1.12-0.38-2.19-0.87-3.02-1.65c-0.82-0.77-1.33-1.84-1.26-2.88c0.08-1.03,0.57-1.84,0.93-2.55
						c0.73-1.36,1.34-2.5,1.82-3.38c0.44-0.79,0.7-1.22,0.73-1.21c0.03,0.02-0.17,0.48-0.55,1.3c-0.44,0.91-1,2.07-1.67,3.46
						c-0.35,0.72-0.78,1.52-0.83,2.41c-0.05,0.88,0.4,1.82,1.15,2.5c0.75,0.69,1.78,1.15,2.86,1.52c1.09,0.36,2.26,0.6,3.47,0.67
						c1.21,0.07,2.4-0.03,3.52-0.27c1.11-0.23,2.15-0.65,2.88-1.35c0.73-0.7,1.09-1.66,1.43-2.54c0.34-0.89,0.68-1.72,1.01-2.46
						c0.66-1.49,1.25-2.66,1.67-3.47C279.33,237.33,279.58,236.89,279.61,236.9z"/>
				</g>
				<g>
					<path class="st8" d="M277.74,241.42c-0.01,0.07-0.91,0.09-2.36,0.06c-1.45-0.03-3.45-0.1-5.66-0.21
						c-2.21-0.11-4.2-0.25-5.65-0.37c-1.45-0.12-2.34-0.23-2.34-0.3c0-0.07,0.9-0.09,2.35-0.06c1.45,0.03,3.45,0.1,5.66,0.21
						c2.21,0.11,4.21,0.25,5.66,0.37C276.85,241.23,277.74,241.34,277.74,241.42z"/>
				</g>
				<g>
					<path class="st8" d="M276.2,244.61c0,0.14-3.44,0.25-7.67,0.24c-4.24-0.01-7.67-0.13-7.67-0.28s3.44-0.25,7.67-0.24
						C272.76,244.34,276.2,244.46,276.2,244.61z"/>
				</g>
				<g>
					<path class="st8" d="M270.09,248.43c0.06,0.02-0.07,0.51-0.69,0.99c-0.6,0.5-1.69,0.79-2.82,0.69
						c-0.56-0.04-1.12-0.12-1.59-0.35c-0.48-0.21-0.84-0.62-0.96-1.01c-0.14-0.38-0.08-0.74,0.02-0.94c0.1-0.2,0.22-0.27,0.24-0.25
						c0.07,0.03-0.22,0.45,0.08,1.04c0.25,0.61,1.17,0.94,2.25,0.97c1.06,0.09,2-0.12,2.58-0.48
						C269.78,248.77,270.02,248.38,270.09,248.43z"/>
				</g>
				<g>
					<path class="st8" d="M272.34,239.48c-0.03-0.02,0.18-0.43,0.58-1.16c0.47-0.82,1.05-1.85,1.75-3.07
						c0.78-1.32,1.67-2.84,2.66-4.52c0.47-0.85,1.18-1.72,1.17-2.67c-0.01-0.94-0.93-1.8-1.96-1.85c-1.05-0.08-2.05,0.46-2.76,1.19
						c-0.73,0.73-1.28,1.61-1.83,2.42c-1.09,1.64-1.96,3.18-2.66,4.49c-0.69,1.32-1.2,2.41-1.55,3.17
						c-0.35,0.76-0.54,1.18-0.58,1.16c-0.03-0.01,0.1-0.46,0.39-1.24c0.29-0.78,0.76-1.91,1.41-3.25c0.66-1.35,1.51-2.92,2.59-4.59
						c0.55-0.82,1.09-1.72,1.88-2.52c0.77-0.79,1.9-1.43,3.16-1.34c1.25,0.07,2.4,1.1,2.43,2.36c0.01,0.61-0.23,1.16-0.48,1.62
						c-0.26,0.47-0.53,0.88-0.79,1.31c-1.02,1.66-1.95,3.16-2.75,4.46c-0.76,1.19-1.39,2.19-1.9,2.99
						C272.63,239.12,272.37,239.49,272.34,239.48z"/>
				</g>
				<g>
					<path class="st8" d="M274.75,219.9c0.14-0.01,0.39,1.38,0.56,3.1c0.16,1.73,0.18,3.14,0.04,3.15c-0.14,0.01-0.39-1.38-0.56-3.1
						C274.62,221.33,274.6,219.92,274.75,219.9z"/>
				</g>
				<g>
					<path class="st8" d="M274.28,219.33c0.06,0.05,0.03,0.19,0.12,0.35c0.11,0.17,0.26,0.23,0.42,0.08
						c0.16-0.16,0.09-0.31-0.07-0.42c-0.15-0.1-0.3-0.07-0.34-0.13c-0.05-0.04,0.09-0.27,0.45-0.23c0.16,0.03,0.38,0.12,0.5,0.37
						c0.13,0.25,0.04,0.59-0.16,0.78c-0.19,0.2-0.53,0.28-0.78,0.15c-0.24-0.12-0.34-0.34-0.36-0.5
						C274.01,219.41,274.24,219.27,274.28,219.33z"/>
				</g>
				<g>
					<path class="st8" d="M285.01,222.44c0.09,0.11-1.24,1.3-3.06,2.53c-1.82,1.23-3.42,2.02-3.49,1.9c-0.07-0.13,1.4-1.11,3.2-2.33
						C283.46,223.32,284.92,222.32,285.01,222.44z"/>
				</g>
				<g>
					<path class="st8" d="M285.32,221.66c-0.05-0.04,0.16-0.3,0.6-0.18c0.2,0.05,0.46,0.28,0.5,0.6c0.04,0.3-0.09,0.68-0.46,0.85
						c-0.36,0.15-0.73,0.04-0.95-0.2c-0.22-0.25-0.24-0.58-0.1-0.79c0.15-0.23,0.37-0.25,0.49-0.22c0.13,0.03,0.16,0.11,0.14,0.13
						c-0.03,0.05-0.25,0.06-0.3,0.25c-0.02,0.08,0.02,0.22,0.11,0.3c0.09,0.08,0.27,0.12,0.39,0.06c0.11-0.04,0.2-0.2,0.19-0.34
						c0-0.13-0.06-0.24-0.17-0.31C285.56,221.67,285.35,221.73,285.32,221.66z"/>
				</g>
				<g>
					<path class="st8" d="M285.23,221.77c-0.03,0.14-2.32-0.23-5.12-0.82c-2.8-0.59-5.04-1.19-5.01-1.33
						c0.03-0.14,2.32,0.23,5.12,0.82C283.02,221.03,285.26,221.63,285.23,221.77z"/>
				</g>
			</g>
			<g>
				<path class="st5" d="M253.25,233.99c0.06,0.13-0.8,0.62-1.91,1.08c-1.11,0.47-2.05,0.74-2.11,0.6c-0.06-0.13,0.8-0.62,1.91-1.08
					C252.25,234.13,253.2,233.86,253.25,233.99z"/>
			</g>
			<g>
				<g>
					<path class="st5" d="M265.08,203.08c0.13,0.06-4.36,10.54-10.03,23.42c-5.67,12.88-10.37,23.27-10.51,23.21
						c-0.13-0.06,4.36-10.54,10.03-23.42C260.25,213.42,264.95,203.03,265.08,203.08z"/>
				</g>
				<g>
					<path class="st5" d="M285.96,204.7c0.13,0.06-4.6,11.09-10.56,24.63c-5.97,13.55-10.91,24.48-11.04,24.42
						c-0.13-0.06,4.6-11.08,10.56-24.63C280.88,215.58,285.83,204.64,285.96,204.7z"/>
				</g>
				<g>
					<path class="st5" d="M279.35,251.56c-0.02,0.14-8.15-0.76-18.16-2.01c-10.01-1.25-18.11-2.39-18.1-2.53s8.15,0.76,18.16,2.01
						C271.27,250.28,279.37,251.41,279.35,251.56z"/>
				</g>
				<g>
					<path class="st5" d="M284.97,239.11c0,0.04-0.52,0.01-1.44-0.08c-1.02-0.11-2.33-0.24-3.9-0.4c-3.29-0.36-7.82-0.9-12.83-1.53
						c-5.01-0.63-9.54-1.22-12.81-1.68c-1.56-0.23-2.86-0.42-3.87-0.57c-0.91-0.15-1.42-0.24-1.41-0.28c0-0.04,0.52-0.01,1.44,0.08
						c1.02,0.11,2.33,0.24,3.9,0.4c3.29,0.36,7.82,0.9,12.83,1.53c5.01,0.63,9.53,1.22,12.81,1.68c1.56,0.23,2.86,0.42,3.87,0.57
						C284.47,238.98,284.98,239.07,284.97,239.11z"/>
				</g>
				<g>
					<path class="st5" d="M298.88,209.24c0,0.04-0.52,0.01-1.44-0.08c-1.02-0.11-2.33-0.24-3.9-0.4c-3.29-0.36-7.82-0.9-12.83-1.53
						c-5.01-0.63-9.54-1.22-12.81-1.68c-1.56-0.23-2.86-0.42-3.87-0.57c-0.91-0.15-1.42-0.24-1.41-0.28c0-0.04,0.52-0.01,1.44,0.08
						c1.02,0.11,2.33,0.24,3.9,0.4c3.29,0.36,7.82,0.9,12.83,1.53c5.01,0.63,9.53,1.22,12.81,1.68c1.56,0.23,2.86,0.42,3.87,0.57
						C298.38,209.11,298.88,209.21,298.88,209.24z"/>
				</g>
				<g>
					<path class="st5" d="M266.28,203.79c0.07,0.13-0.61,0.64-1.52,1.16c-0.91,0.52-1.7,0.83-1.77,0.71
						c-0.07-0.12,0.61-0.64,1.52-1.16C265.42,203.98,266.21,203.66,266.28,203.79z"/>
				</g>
				<g>
					<path class="st5" d="M247.98,246.29c0.06,0.13-0.94,0.69-2.24,1.24c-1.29,0.55-2.38,0.89-2.44,0.76
						c-0.06-0.13,0.94-0.69,2.24-1.24C246.83,246.5,247.93,246.16,247.98,246.29z"/>
				</g>
				<g>
					<path class="st5" d="M266.69,250.86c-0.04-0.08,0.05-0.79,0.25-1.66l0.18,0.29c-0.46-0.05-1-0.11-1.58-0.19l0.29-0.18
						l-0.01,0.02c-0.18,0.58-0.36,1.12-0.53,1.57l-0.18-0.29C265.97,250.58,266.63,250.79,266.69,250.86c0.06,0.07-0.56,0.09-1.63,0
						l-0.25-0.02l0.07-0.27c0.12-0.47,0.28-1.01,0.46-1.59l0.01-0.02l0.07-0.21l0.22,0.03c0.57,0.08,1.11,0.17,1.57,0.26l0.27,0.05
						l-0.08,0.24C267.01,250.36,266.73,250.94,266.69,250.86z"/>
				</g>
			</g>
		</g>
		<polygon class="st5" points="307.7,293.84 358.7,263.51 324.25,263.51 		"/>
		<polygon class="st5" points="309.78,193.88 320.92,207.56 323.05,203.44 314.29,192.53 		"/>
		<polygon class="st5" points="358.7,263.51 358.7,258.12 327.52,257.46 313.48,283.37 		"/>
	</g>
</g>
<g id="Character">
	<g>
		<g>
			<rect x="218.08" y="370.46" class="st6" width="5.48" height="98.07"/>
			<path class="st5" d="M263.98,362.71c0,7.22-18.1,13.08-40.42,13.08c-22.32,0-40.42-5.86-40.42-13.08c0-2.26-1.05-7.02,0.44-11.55
				c2.49-7.57,24.65-1.53,39.98-1.53c16.46,0,37.21-3.04,39.84,4.29C264.58,357.21,263.98,360.82,263.98,362.71z"/>
			<ellipse class="st6" cx="223.56" cy="353.1" rx="40.42" ry="13.08"/>
			<path class="st6" d="M223.46,419.21c0,0,30.64-2.09,32.04,40.62h-4.96c0,0,2.5-35.05-27.08-36.06v-3.79"/>
			<path class="st6" d="M219.8,419.21c0,0-30.64-2.09-32.04,40.62h4.96c0,0-2.5-35.05,27.08-36.06v-3.79"/>
		</g>
		
			<rect x="244.33" y="203.85" transform="matrix(0.9915 -0.1301 0.1301 0.9915 -24.6018 36.6894)" class="st8" width="48.39" height="5.59"/>
		<g>
			<g>
				<g>
					<g>
						<g>
							<g>
								<path class="st8" d="M258.98,417.84l4.66-9.75l-18.21-8.85l-6.97,14.19l1.09,0.62c4.89,2.72,25.05,13.5,28.91,14.11
									C272.76,428.85,258.98,417.84,258.98,417.84z"/>
							</g>
						</g>
						<g class="st9">
							<g>
								<path class="st0" d="M245.13,416.5c0.48-1.65,0.32-3.47-0.44-5.01c-0.76-1.54-2.01-2.77-3.61-3.39l-2.48,5.09L245.13,416.5z
									"/>
							</g>
						</g>
					</g>
					<g>
						<g>
							<path class="st10" d="M265.58,423.49c0,0,4.66,4.2,3.55,4.77c-1.11,0.56-21.9-9.56-30.67-14.82l0.23-0.39l24.14,12.01
								C262.83,425.05,264.5,423.02,265.58,423.49z"/>
						</g>
					</g>
					<g>
						<g>
							<g>
								<path class="st5" d="M238.4,412.89c0,0.01,0.1,0.07,0.3,0.19c0.26,0.15,0.55,0.31,0.87,0.49c0.88,0.48,1.96,1.06,3.24,1.75
									c2.75,1.46,6.57,3.43,10.83,5.51c4.27,2.08,8.17,3.88,11.01,5.14c1.33,0.58,2.46,1.07,3.38,1.47
									c0.34,0.14,0.65,0.27,0.92,0.38c0.21,0.09,0.33,0.13,0.33,0.12c0-0.01-0.1-0.06-0.31-0.16c-0.27-0.13-0.57-0.27-0.91-0.43
									c-0.91-0.42-2.02-0.94-3.34-1.54c-2.82-1.3-6.71-3.13-10.98-5.21c-4.26-2.08-8.09-4.02-10.86-5.44
									c-1.29-0.66-2.38-1.23-3.27-1.68c-0.33-0.17-0.63-0.32-0.89-0.45C238.52,412.93,238.41,412.88,238.4,412.89z"/>
							</g>
						</g>
					</g>
					<g>
						<g>
							<g>
								<path class="st5" d="M262.68,425.33c0.06,0.04,0.5-0.72,1.39-1.28c0.88-0.57,1.76-0.64,1.74-0.72
									c0.01-0.06-0.93-0.1-1.88,0.51C262.99,424.44,262.62,425.32,262.68,425.33z"/>
							</g>
						</g>
					</g>
					<g>
						<g>
							<g>
								<path class="st5" d="M258.64,419.99c0.04,0.06,0.44-0.13,0.91-0.42c0.47-0.29,0.82-0.57,0.79-0.63
									c-0.04-0.06-0.44,0.13-0.91,0.42C258.96,419.65,258.6,419.93,258.64,419.99z"/>
							</g>
						</g>
					</g>
					<g>
						<g>
							<g>
								<path class="st5" d="M257.55,418.49c0.02,0.07,0.4,0.01,0.85-0.12c0.45-0.13,0.8-0.29,0.78-0.35
									c-0.02-0.07-0.4-0.01-0.85,0.12C257.88,418.27,257.53,418.43,257.55,418.49z"/>
							</g>
						</g>
					</g>
					<g>
						<g>
							<g>
								<path class="st5" d="M257.45,416.32c-0.03,0.06,0.37,0.32,0.89,0.58c0.52,0.26,0.97,0.42,1,0.36
									c0.03-0.06-0.37-0.32-0.89-0.58C257.93,416.42,257.48,416.26,257.45,416.32z"/>
							</g>
						</g>
					</g>
					<g>
						<g>
							<g>
								<path class="st5" d="M257.72,414.95c-0.05,0.04,0.31,0.48,0.91,0.82c0.59,0.35,1.15,0.45,1.17,0.39
									c0.02-0.07-0.48-0.27-1.04-0.6C258.19,415.24,257.77,414.9,257.72,414.95z"/>
							</g>
						</g>
					</g>
					<g>
						<g>
							<g>
								<path class="st5" d="M260.03,418.7c-0.01,0.02,0.41,0.3,1.17,0.56c0.38,0.13,0.85,0.25,1.38,0.33
									c0.27,0.03,0.54,0.09,0.86,0.05c0.15-0.02,0.33-0.07,0.47-0.22c0.13-0.15,0.14-0.39,0.05-0.55
									c-0.84-1.12-2.26-1.04-2.96-0.66c-0.37,0.18-0.62,0.42-0.76,0.59c-0.14,0.18-0.2,0.29-0.18,0.3
									c0.03,0.04,0.3-0.42,1.02-0.74c0.35-0.15,0.82-0.25,1.32-0.16c0.47,0.08,1.08,0.33,1.35,0.77c0.12,0.23-0.06,0.41-0.33,0.43
									c-0.25,0.03-0.54-0.02-0.79-0.04c-0.52-0.06-0.98-0.16-1.36-0.27C260.5,418.88,260.05,418.67,260.03,418.7z"/>
							</g>
						</g>
					</g>
					<g>
						<g>
							<g>
								<path class="st5" d="M260.31,418.91c0.01,0.02,0.33-0.19,0.53-0.75c0.1-0.27,0.15-0.62,0.1-1.01
									c-0.08-0.36-0.17-0.85-0.68-1.07c-0.29-0.1-0.57,0.15-0.62,0.36c-0.08,0.22-0.07,0.44-0.06,0.62
									c0.03,0.38,0.11,0.71,0.21,0.98c0.19,0.54,0.42,0.82,0.44,0.8c0.03-0.02-0.13-0.32-0.27-0.85
									c-0.07-0.26-0.13-0.58-0.15-0.94c-0.04-0.33,0.07-0.82,0.39-0.73c0.31,0.11,0.46,0.55,0.53,0.87
									c0.06,0.34,0.03,0.66-0.04,0.92C260.53,418.63,260.27,418.88,260.31,418.91z"/>
							</g>
						</g>
					</g>
					<g>
						<g>
							<g>
								<path class="st5" d="M241.2,408.09c-0.02,0.04,0.55,0.2,1.32,0.7c0.77,0.49,1.74,1.37,2.35,2.64
									c0.6,1.27,0.68,2.58,0.57,3.48c-0.1,0.92-0.33,1.45-0.29,1.47c0.01,0.01,0.08-0.12,0.18-0.37c0.1-0.24,0.21-0.61,0.28-1.08
									c0.15-0.92,0.11-2.29-0.52-3.61c-0.63-1.32-1.66-2.22-2.48-2.68c-0.41-0.24-0.76-0.38-1.01-0.46
									C241.35,408.1,241.2,408.07,241.2,408.09z"/>
							</g>
						</g>
					</g>
					<g>
						<g>
							<g>
								<path class="st5" d="M246.78,401.43c-0.06-0.03-0.95,1.61-1.98,3.66c-1.03,2.05-1.82,3.74-1.76,3.77
									c0.06,0.03,0.95-1.61,1.98-3.66C246.05,403.15,246.84,401.46,246.78,401.43z"/>
							</g>
						</g>
					</g>
					<g>
						<g>
							<g>
								<path class="st5" d="M248.28,415.84c-0.04,0.05,1.06,0.83,2.53,1.56c1.47,0.74,2.74,1.14,2.77,1.08
									c0.03-0.07-1.2-0.57-2.66-1.3C249.46,416.45,248.32,415.78,248.28,415.84z"/>
							</g>
						</g>
					</g>
					<g>
						<g>
							<g>
								<path class="st5" d="M244.72,414.1c-0.07,0.02-0.03,0.3-0.04,0.63c-0.01,0.33-0.06,0.61,0,0.63
									c0.06,0.03,0.23-0.24,0.24-0.63C244.94,414.35,244.78,414.07,244.72,414.1z"/>
							</g>
						</g>
					</g>
					<g>
						<g>
							<g>
								<path class="st5" d="M244.19,411.77c-0.06,0.02-0.04,0.27,0.06,0.55c0.1,0.28,0.22,0.49,0.29,0.47
									c0.06-0.02,0.04-0.27-0.06-0.55C244.38,411.96,244.25,411.75,244.19,411.77z"/>
							</g>
						</g>
					</g>
					<g>
						<g>
							<g>
								<path class="st5" d="M242.64,410.07c-0.02,0.07,0.23,0.18,0.45,0.41c0.23,0.22,0.35,0.46,0.41,0.44
									c0.07-0.01,0.04-0.34-0.24-0.62C242.98,410.03,242.65,410,242.64,410.07z"/>
							</g>
						</g>
					</g>
					<g>
						<g>
							<g>
								<path class="st5" d="M241.44,409.04c-0.05,0.05,0.01,0.19,0.13,0.32c0.12,0.13,0.26,0.2,0.31,0.16
									c0.05-0.05-0.01-0.19-0.13-0.32C241.63,409.06,241.49,408.99,241.44,409.04z"/>
							</g>
						</g>
					</g>
				</g>
			</g>
			<g>
				<g>
					<g>
						<g>
							<g>
								<g>
									<path class="st8" d="M259.51,428.03l5.86-9.08l-16.95-11.08l-8.71,13.2l1.01,0.75c4.51,3.32,23.15,16.55,26.89,17.65
										C271.79,440.69,259.51,428.03,259.51,428.03z"/>
								</g>
							</g>
							<g class="st9">
								<g>
									<path class="st0" d="M245.94,424.95c0.68-1.57,0.76-3.4,0.2-5.03c-0.56-1.62-1.65-3-3.16-3.82l-3.1,4.73L245.94,424.95z"/>
								</g>
							</g>
						</g>
						<g>
							<g>
								<path class="st10" d="M265.35,434.46c0,0,4.1,4.76,2.92,5.18c-1.17,0.42-20.52-12.24-28.56-18.57l0.27-0.36l22.44,14.96
									C262.42,435.67,264.33,433.86,265.35,434.46z"/>
							</g>
						</g>
						<g>
							<g>
								<g>
									<path class="st5" d="M239.72,420.52c0,0.01,0.09,0.08,0.27,0.22c0.24,0.18,0.51,0.38,0.8,0.6c0.81,0.58,1.81,1.3,2.99,2.15
										c2.54,1.8,6.08,4.23,10.05,6.83c3.97,2.6,7.62,4.88,10.27,6.49c1.25,0.74,2.3,1.37,3.16,1.89c0.32,0.18,0.61,0.35,0.87,0.5
										c0.2,0.11,0.31,0.17,0.31,0.16s-0.09-0.08-0.29-0.2c-0.25-0.16-0.53-0.34-0.84-0.54c-0.85-0.53-1.89-1.18-3.12-1.95
										c-2.64-1.65-6.26-3.95-10.23-6.55c-3.97-2.6-7.52-5.01-10.08-6.77c-1.2-0.82-2.21-1.52-3.04-2.08
										c-0.31-0.21-0.58-0.39-0.83-0.56C239.83,420.57,239.73,420.51,239.72,420.52z"/>
								</g>
							</g>
						</g>
						<g>
							<g>
								<g>
									<path class="st5" d="M262.24,435.93c0.06,0.05,0.59-0.65,1.54-1.09c0.94-0.46,1.82-0.42,1.82-0.49
										c0.02-0.06-0.91-0.22-1.93,0.27C262.66,435.08,262.18,435.9,262.24,435.93z"/>
								</g>
							</g>
						</g>
						<g>
							<g>
								<g>
									<path class="st5" d="M258.9,430.12c0.03,0.06,0.46-0.07,0.96-0.3c0.5-0.23,0.89-0.46,0.86-0.52
										c-0.03-0.06-0.46,0.07-0.96,0.3C259.26,429.82,258.88,430.06,258.9,430.12z"/>
								</g>
							</g>
						</g>
						<g>
							<g>
								<g>
									<path class="st5" d="M258.01,428.49c0.01,0.07,0.39,0.06,0.86-0.01c0.46-0.07,0.83-0.18,0.82-0.25
										c-0.01-0.07-0.39-0.06-0.86,0.01C258.36,428.31,258,428.43,258.01,428.49z"/>
								</g>
							</g>
						</g>
						<g>
							<g>
								<g>
									<path class="st5" d="M258.19,426.33c-0.04,0.06,0.32,0.37,0.81,0.69c0.49,0.33,0.91,0.54,0.95,0.49
										c0.04-0.06-0.33-0.37-0.81-0.69C258.65,426.49,258.22,426.27,258.19,426.33z"/>
								</g>
							</g>
						</g>
						<g>
							<g>
								<g>
									<path class="st5" d="M258.63,425c-0.05,0.04,0.25,0.51,0.8,0.93c0.54,0.42,1.08,0.59,1.11,0.53
										c0.03-0.06-0.44-0.33-0.96-0.73C259.06,425.35,258.68,424.96,258.63,425z"/>
								</g>
							</g>
						</g>
						<g>
							<g>
								<g>
									<path class="st5" d="M260.45,429.02c-0.02,0.02,0.37,0.35,1.09,0.71c0.36,0.18,0.81,0.36,1.33,0.5
										c0.26,0.06,0.52,0.15,0.84,0.16c0.15,0,0.34-0.02,0.49-0.16c0.15-0.13,0.18-0.37,0.12-0.54c-0.69-1.22-2.11-1.32-2.85-1.03
										c-0.39,0.14-0.66,0.34-0.83,0.49c-0.17,0.16-0.23,0.27-0.22,0.28c0.03,0.04,0.35-0.38,1.1-0.6c0.37-0.11,0.84-0.14,1.33,0
										c0.46,0.14,1.03,0.47,1.24,0.94c0.09,0.24-0.11,0.4-0.38,0.39c-0.25,0-0.53-0.08-0.78-0.14c-0.5-0.13-0.95-0.29-1.31-0.44
										C260.88,429.25,260.47,428.98,260.45,429.02z"/>
								</g>
							</g>
						</g>
						<g>
							<g>
								<g>
									<path class="st5" d="M260.69,429.25c0.01,0.02,0.35-0.15,0.62-0.67c0.13-0.26,0.23-0.6,0.22-0.99
										c-0.03-0.37-0.06-0.86-0.54-1.15c-0.27-0.13-0.58,0.07-0.66,0.28c-0.11,0.2-0.13,0.42-0.13,0.61
										c-0.02,0.38,0.02,0.72,0.08,1c0.12,0.56,0.31,0.86,0.33,0.85c0.04-0.01-0.09-0.34-0.16-0.88
										c-0.04-0.27-0.06-0.59-0.03-0.95c0-0.33,0.17-0.81,0.47-0.68c0.29,0.15,0.39,0.61,0.41,0.93c0.02,0.35-0.05,0.66-0.16,0.91
										C260.95,429.01,260.66,429.22,260.69,429.25z"/>
								</g>
							</g>
						</g>
						<g>
							<g>
								<g>
									<path class="st5" d="M243.1,416.11c-0.02,0.04,0.52,0.27,1.22,0.86c0.7,0.58,1.55,1.58,1.99,2.91
										c0.44,1.33,0.35,2.64,0.13,3.53c-0.22,0.9-0.51,1.4-0.47,1.42c0.01,0.01,0.1-0.11,0.22-0.34c0.13-0.23,0.28-0.58,0.41-1.03
										c0.27-0.9,0.39-2.26-0.06-3.65c-0.46-1.39-1.37-2.41-2.12-2.97c-0.38-0.29-0.71-0.48-0.95-0.59
										C243.25,416.14,243.11,416.1,243.1,416.11z"/>
								</g>
							</g>
						</g>
						<g>
							<g>
								<g>
									<path class="st5" d="M249.48,410.21c-0.06-0.04-1.14,1.48-2.42,3.38c-1.28,1.91-2.28,3.48-2.22,3.52
										c0.06,0.04,1.14-1.48,2.42-3.38C248.54,411.82,249.53,410.25,249.48,410.21z"/>
								</g>
							</g>
						</g>
						<g>
							<g>
								<g>
									<path class="st5" d="M249.15,424.69c-0.04,0.05,0.94,0.95,2.31,1.86c1.37,0.92,2.58,1.48,2.61,1.42
										c0.03-0.06-1.12-0.72-2.47-1.63C250.25,425.45,249.2,424.64,249.15,424.69z"/>
								</g>
							</g>
						</g>
						<g>
							<g>
								<g>
									<path class="st5" d="M245.84,422.51c-0.07,0.01-0.06,0.29-0.12,0.62c-0.05,0.33-0.14,0.59-0.08,0.63
										c0.06,0.04,0.26-0.21,0.32-0.59C246.02,422.79,245.9,422.5,245.84,422.51z"/>
								</g>
							</g>
						</g>
						<g>
							<g>
								<g>
									<path class="st5" d="M245.6,420.14c-0.07,0.01-0.07,0.26-0.01,0.55c0.06,0.29,0.16,0.52,0.23,0.51
										c0.07-0.01,0.07-0.26,0.01-0.55C245.77,420.35,245.67,420.12,245.6,420.14z"/>
								</g>
							</g>
						</g>
						<g>
							<g>
								<g>
									<path class="st5" d="M244.28,418.25c-0.03,0.07,0.2,0.21,0.39,0.46c0.2,0.25,0.28,0.5,0.35,0.49
										c0.07,0,0.08-0.34-0.16-0.64C244.63,418.26,244.3,418.19,244.28,418.25z"/>
								</g>
							</g>
						</g>
						<g>
							<g>
								<g>
									<path class="st5" d="M243.23,417.08c-0.06,0.04-0.01,0.19,0.09,0.34c0.1,0.15,0.23,0.23,0.29,0.19
										c0.06-0.04,0.01-0.19-0.09-0.34C243.41,417.13,243.28,417.04,243.23,417.08z"/>
								</g>
							</g>
						</g>
					</g>
				</g>
				<polygon class="st11" points="243.89,414.73 260.98,425.74 262.02,424.13 244.93,412.79 				"/>
			</g>
			<g>
				<polygon class="st5" points="261.42,339.51 241.43,405.19 259.16,412.07 284.83,353.1 				"/>
				<path class="st5" d="M219.92,355.69c0,0,69.38-17.29,71.27-18.12c0,0,7.73-22.41-8.5-30.9c-15.45-8.08-66.79,19.26-66.79,19.26
					L219.92,355.69z"/>
				<path class="st5" d="M197.9,351.23c7.92,1.21,16.84,3.99,22.02,4.47c14.02,1.28,20.67-4.45,32.31-1.33
					c0.06-8.5-0.57-24.25-0.57-24.25l-64.77-8.59C186.89,321.52,188.07,344.09,197.9,351.23z"/>
				<path class="st5" d="M315.86,350.15l-0.04-0.01c1.87-3.48,3.26-7.62,2.48-11.57c-1.55-7.86-10.95-8.71-20.76-9.89
					c-22.04-2.66-50.67-6.43-50.67-6.43l5.36,32.11l26.11,1.89l-35.69,55.07l25.45,17.07l46.37-75.97c0.29-0.44,0.57-0.91,0.84-1.38
					L315.86,350.15z"/>
				<g>
					<path class="st6" d="M295.54,328.44c0,0.04-0.64,0.01-1.79-0.06c-1.15-0.07-2.8-0.2-4.85-0.4c-4.09-0.38-9.73-1.06-15.94-1.88
						c-6.21-0.82-11.84-1.55-15.91-2.03c-1.97-0.23-3.6-0.42-4.83-0.56c-1.14-0.13-1.77-0.22-1.77-0.26c0-0.04,0.64-0.01,1.79,0.06
						c1.15,0.07,2.8,0.2,4.85,0.4c4.09,0.38,9.73,1.06,15.94,1.88c6.21,0.82,11.83,1.55,15.91,2.03c1.97,0.23,3.6,0.42,4.83,0.56
						C294.92,328.31,295.55,328.4,295.54,328.44z"/>
				</g>
				<g>
					<path class="st6" d="M279.24,325.34c0.07,0.12-0.14,0.39-0.42,0.66c-0.28,0.27-0.56,0.47-0.68,0.38
						c-0.12-0.08-0.01-0.45,0.32-0.76C278.79,325.31,279.17,325.22,279.24,325.34z"/>
				</g>
				<g>
					<path class="st6" d="M279.56,353.37c0.01,0.01-0.1,0.21-0.34,0.57c-0.27,0.41-0.62,0.93-1.05,1.58
						c-0.96,1.42-2.28,3.38-3.9,5.79c-3.29,4.89-7.79,11.67-12.62,19.24c-4.84,7.58-9.09,14.51-12.14,19.55
						c-1.5,2.48-2.72,4.51-3.61,5.97c-0.41,0.66-0.74,1.2-0.99,1.62c-0.23,0.37-0.36,0.55-0.38,0.55s0.08-0.21,0.29-0.6
						c0.23-0.43,0.54-0.98,0.91-1.67c0.8-1.44,1.98-3.51,3.47-6.06c2.97-5.09,7.18-12.06,12.02-19.65
						c4.84-7.58,9.39-14.33,12.76-19.17c1.68-2.42,3.06-4.36,4.04-5.7c0.46-0.63,0.84-1.13,1.13-1.53
						C279.4,353.54,279.55,353.36,279.56,353.37z"/>
				</g>
				<g>
					<path class="st6" d="M277.58,356.2c0,0.07-1.33,0.06-3.48,0c-2.15-0.06-5.11-0.17-8.39-0.36c-3.28-0.19-6.24-0.48-8.37-0.76
						c-1.07-0.14-1.93-0.27-2.52-0.38c-0.59-0.11-0.92-0.18-0.91-0.22c0.01-0.08,1.33,0.04,3.47,0.23c2.14,0.19,5.09,0.42,8.36,0.61
						c3.27,0.19,6.23,0.35,8.38,0.51C276.26,355.99,277.59,356.13,277.58,356.2z"/>
				</g>
			</g>
			<g>
				<g>
					<path class="st12" d="M297.41,228.97c0,0,1.16-1.55,2.49-0.55c1.33,1,7.19,5.73,7.19,5.73l4.01,10.84l-5.69,10.39l-9.82-4.21
						c0,0,1.08-4.9,2.14-7.12c0,0-6.59-5.1-4.54-7.11c0,0,0.55-0.98,3.34,1.33c2.79,2.31,2.79,2.31,2.79,2.31s-4.9-6.84-4.59-8.39
						c0-0.02,0,0.02,0,0c0.27-1.31,1.11-1.93,2.43-1.7l0,0L297.41,228.97z"/>
					<path class="st8" d="M291.24,231.68l4.06,1.03l17.6,15.56c0.64,0.56,0.7,1.53,0.15,2.17l0,0c-0.56,0.65-1.54,0.73-2.19,0.17
						l-17.54-15.13L291.24,231.68z"/>
					<path class="st13" d="M310.54,250.29l1.93-2.44l0.66,0.66c0.56,0.56,0.6,1.46,0.09,2.07l0,0c-0.56,0.67-1.56,0.74-2.21,0.15
						L310.54,250.29z"/>
					<path class="st13" d="M291.91,232.8l0.68-0.8l2.76,0.7c0,0,0.31,0.53,0,0.93c-0.26,0.35-0.78,0.06-0.78,0.06s0.29,0.57-0.01,1
						c-0.25,0.36-0.86,0.2-0.86,0.2s0.39,0.43-0.07,0.79l-0.26-0.22L291.91,232.8z"/>
					<path class="st14" d="M294.51,233.7l17.5,14.66l-0.92,1.16l-17.45-14.62c0,0,0.61,0.17,0.89-0.29
						C294.81,234.17,294.51,233.7,294.51,233.7z"/>
					<path class="st12" d="M296.2,248.21c0,0,1.65-3.67,1.87-4.88c0.22-1.2-1.88-9.08,1.27-9.7l1.02,0.47l2.61,12.66l-5.23,5.03
						L296.2,248.21z"/>
				</g>
				<g>
					<path class="st15" d="M303.64,239.14c-0.08,0.02-0.26-0.73-0.8-1.83c-0.55-1.08-1.45-2.57-2.93-3.67
						c-0.75-0.55-1.54-1.05-2.11-1.72c-0.57-0.65-0.87-1.47-0.77-2.15c0.09-0.68,0.46-1.14,0.77-1.34c0.32-0.21,0.54-0.19,0.54-0.17
						c0.01,0.04-0.18,0.1-0.41,0.33c-0.23,0.22-0.5,0.64-0.53,1.21c-0.04,0.56,0.24,1.23,0.77,1.81c0.52,0.58,1.28,1.05,2.06,1.62
						c1.59,1.18,2.47,2.78,2.95,3.94C303.64,238.34,303.69,239.13,303.64,239.14z"/>
				</g>
				<g>
					<path class="st15" d="M302.37,244.81c-0.04,0-0.11-0.36-0.26-1c-0.15-0.65-0.43-1.56-0.73-2.71c-0.15-0.58-0.29-1.22-0.38-1.93
						c-0.09-0.7-0.13-1.45-0.25-2.21c-0.06-0.38-0.14-0.76-0.26-1.13c-0.14-0.35-0.26-0.83-0.44-1.09c-0.1-0.13-0.18-0.17-0.33-0.16
						c-0.14,0.01-0.35,0.09-0.52,0.18c-0.35,0.16-0.6,0.48-0.83,0.84c-0.43,0.72-0.56,1.59-0.56,2.41c0,0.83,0.14,1.62,0.3,2.39
						c0.15,0.77,0.29,1.53,0.26,2.26c-0.02,0.74-0.29,1.39-0.53,1.93c-0.52,1.08-0.88,1.94-0.92,2.59c-0.06,0.65,0.1,0.99,0.05,1.01
						c-0.02,0.02-0.25-0.32-0.25-1.02c-0.03-0.69,0.31-1.66,0.78-2.73c0.22-0.55,0.43-1.14,0.44-1.8c0.01-0.67-0.13-1.39-0.29-2.15
						c-0.17-0.76-0.34-1.6-0.34-2.49c-0.01-0.87,0.12-1.83,0.62-2.68c0.13-0.21,0.27-0.41,0.44-0.58c0.15-0.18,0.4-0.36,0.6-0.45
						c0.22-0.11,0.43-0.2,0.72-0.23c0.29-0.04,0.64,0.15,0.78,0.38c0.29,0.46,0.34,0.82,0.5,1.23c0.13,0.41,0.21,0.82,0.26,1.22
						c0.11,0.79,0.14,1.54,0.21,2.23c0.07,0.68,0.18,1.32,0.31,1.89c0.26,1.15,0.49,2.09,0.58,2.76
						C302.4,244.44,302.4,244.81,302.37,244.81z"/>
				</g>
			</g>
			<g>
				<polygon class="st8" points="204.94,235.28 231.92,209.16 245.7,219.5 217.57,252.98 				"/>
				<polygon class="st14" points="204.94,235.28 231.92,209.16 245.7,219.5 217.57,252.98 				"/>
				<g>
					<path class="st12" d="M248.19,206.48l12.23-1.6c-0.89-0.76-3.8-2.73-11.04-3.98c-9.1-1.58-16.81,8.76-16.81,8.76l11.18,8.46
						l4.17-4.16c0,0,6.46-0.94,9.99-1.75c0.96-0.22,1.59-0.84,2.03-1.62l-0.17,0.02C254.51,210.19,249.81,208.78,248.19,206.48z"/>
					<g>
						<path class="st15" d="M253.11,209.46c-0.03,0.13-1.7-0.29-3.35-1.56c-1.66-1.26-2.51-2.76-2.39-2.82
							c0.13-0.09,1.12,1.21,2.71,2.41C251.64,208.7,253.16,209.32,253.11,209.46z"/>
					</g>
				</g>
			</g>
			<g>
				<path class="st12" d="M204.06,179.93l-0.15,47.72l20.47,0.98l0.59-11.61c0,0,7.27,1.44,9.15-5.31c1.2-4.31,0.9-37.65,0.9-37.65
					L204.06,179.93z"/>
				<path class="st5" d="M233.85,166.66c-6.23,2.02-7.73,2.69-10.52,2.91c-2.68,0.22-21.75,0.23-23.48,10.92l-0.13,1.31l0-0.05
					c0,0.05-4.09-1.65-3.02,5.75c0.56,3.86,2.14,7.42,3.61,11.66c1.01,6.28-2.58,7.85-5.52,9.93c-0.72,0.51-1.61,1.16-1.48,2.03
					c0.11,0.8,1.01,1.22,1.81,1.35c1.71,0.28,3.52-0.14,4.92-1.14c-0.29,0.97-1,1.75-1.4,2.68c-0.4,0.93-0.35,2.22,0.53,2.7
					c0.49,0.27,1.09,0.2,1.63,0.07c1.65-0.39,3.17-1.3,4.28-2.57c-0.47,0.76-0.05,1.82,0.69,2.32c0.74,0.5,1.68,0.57,2.57,0.56
					c4.05-0.07,8.92,0,12.66-4.15c3.45-3.83,4.27-6.3,4.63-11.61c0,0-4.07-0.66-3.59-3.93c0.65-4.53,4.11-4.64,6.69-2.63l2.97-7.95
					c0,0,7.52-4.93,7.94-8.07C240.07,175.62,240.07,164.64,233.85,166.66z"/>
			</g>
			<g>
				<g>
					<path class="st8" d="M258.6,287.98c-6.16-7.54-11.87-14.3-11.87-14.3c0.26,9.85,1.28,18.4,1.28,18.4l2.93,30.51
						c0.43,4.44-2.49,8.51-6.83,9.55c-19.13,4.62-41.51,5.93-54.06-2.68c-3.29-2.26-5.19-6.05-5.19-10.03v-26.03l-3.29-34.94
						c-0.32-5.39,0.34-12.52,1.49-16.38c2.74-9.2,10.96-15.69,20.55-16.23c6.91-0.39,14.67-0.97,21.6-1.08
						c8.18-0.14,16.15,2.47,22.67,7.41c10.22,7.76,17.93,25.57,25.16,36.93l19.77-23.85l16.35,10.44l-22.33,32.96
						C279.18,297.13,265.81,296.81,258.6,287.98z"/>
				</g>
				<g>
					<path class="st5" d="M196.37,248.88c-0.13-0.05,0.53-2.09,1.47-4.55c0.95-2.46,1.83-4.42,1.96-4.36
						c0.13,0.05-0.53,2.09-1.47,4.55C197.38,246.98,196.5,248.93,196.37,248.88z"/>
				</g>
				<g>
					<path class="st5" d="M219.12,260.28c-0.11,0.09-1.23-1.14-2.49-2.74c-1.26-1.6-2.2-2.97-2.08-3.06
						c0.11-0.09,1.23,1.14,2.49,2.74C218.3,258.82,219.23,260.19,219.12,260.28z"/>
				</g>
				<g>
					<path class="st5" d="M232.43,241.67c0.04,0.14-1.27,0.68-2.94,1.21c-1.67,0.53-3.05,0.85-3.1,0.72
						c-0.04-0.14,1.27-0.68,2.94-1.21C231,241.85,232.38,241.53,232.43,241.67z"/>
				</g>
				<g>
					<path class="st5" d="M198.66,273.32c-0.13-0.06,0.48-1.67,1.36-3.6c0.88-1.93,1.7-3.44,1.83-3.38c0.13,0.06-0.48,1.67-1.36,3.6
						C199.61,271.87,198.79,273.38,198.66,273.32z"/>
				</g>
				<g>
					<path class="st5" d="M197.38,292.89c-0.12,0.08-1.25-1.36-2.52-3.23c-1.27-1.86-2.21-3.44-2.09-3.52
						c0.12-0.08,1.25,1.36,2.52,3.23C196.56,291.23,197.5,292.8,197.38,292.89z"/>
				</g>
				<g>
					<path class="st5" d="M228.1,285.67c0.05,0.13-1.92,1.03-4.4,1.99c-2.48,0.97-4.53,1.64-4.59,1.51
						c-0.05-0.13,1.92-1.03,4.4-1.99C225.99,286.21,228.05,285.53,228.1,285.67z"/>
				</g>
				<g>
					<path class="st5" d="M210.45,281.51c-0.13,0.03-0.52-1.37-0.52-3.14c0-1.77,0.38-3.17,0.52-3.14c0.15,0.03,0,1.42,0,3.14
						C210.45,280.09,210.6,281.49,210.45,281.51z"/>
				</g>
				<g>
					<path class="st5" d="M237.29,274.74c-0.12,0.06-1.18-2.09-2.02-4.9c-0.85-2.81-1.15-5.18-1.02-5.21
						c0.15-0.03,0.68,2.27,1.52,5.06C236.6,272.47,237.43,274.68,237.29,274.74z"/>
				</g>
				<g>
					<path class="st5" d="M256.09,257.85c-0.06,0.14-1.63-0.4-3.61-0.83c-1.98-0.44-3.63-0.6-3.63-0.75c0-0.14,1.7-0.2,3.74,0.25
						C254.63,256.96,256.15,257.73,256.09,257.85z"/>
				</g>
				<g>
					<path class="st5" d="M264.81,270.96c0.04,0.14-1.6,0.77-3.68,1.42c-2.07,0.65-3.79,1.06-3.83,0.93
						c-0.04-0.14,1.6-0.77,3.68-1.42C263.05,271.24,264.77,270.82,264.81,270.96z"/>
				</g>
				<g>
					<path class="st5" d="M273.02,287.31c-0.13,0.02-0.53-2-0.35-4.52c0.18-2.52,0.87-4.47,0.99-4.43c0.15,0.04-0.3,2-0.47,4.46
						C273.01,285.28,273.17,287.29,273.02,287.31z"/>
				</g>
				<g>
					<path class="st5" d="M288.17,274.3c-0.12,0.1-1.24-1.07-2.82-2.27c-1.57-1.21-2.99-2-2.92-2.14c0.05-0.12,1.62,0.47,3.24,1.73
						C287.3,272.86,288.28,274.22,288.17,274.3z"/>
				</g>
				<g>
					<path class="st5" d="M297.88,257.86c0.07,0.13-1.6,1.2-3.74,2.4c-2.13,1.2-3.92,2.07-3.99,1.95c-0.07-0.13,1.6-1.2,3.74-2.4
						C296.03,258.61,297.81,257.74,297.88,257.86z"/>
				</g>
				<g>
					<path class="st5" d="M237.25,307.35c-0.14-0.04,0.39-2.03,1.17-4.44c0.78-2.41,1.53-4.32,1.66-4.28
						c0.14,0.04-0.39,2.03-1.17,4.44C238.13,305.48,237.38,307.4,237.25,307.35z"/>
				</g>
				<g>
					<path class="st5" d="M213.09,311.54c-0.12,0.08-1.37-1.48-2.8-3.48c-0.95-1.34-1.74-2.54-2.12-3.2l-0.49-0.86l0.68,0.68
						c0.29,0.29,0.43,0.46,0.4,0.5c-0.03,0.04-0.23-0.07-0.57-0.3l0.19-0.18c0.5,0.57,1.38,1.71,2.33,3.05
						C212.15,309.76,213.21,311.46,213.09,311.54z"/>
				</g>
				<g>
					<path class="st5" d="M225.26,310.24c0.14-0.03,0.64,2.12,1.11,4.78c0.47,2.67,0.74,4.85,0.6,4.87
						c-0.14,0.03-0.64-2.12-1.11-4.78C225.38,312.45,225.11,310.27,225.26,310.24z"/>
				</g>
				<g>
					<path class="st5" d="M199.36,320.13c-0.1,0.1-1.38-1.06-2.84-2.6c-1.47-1.53-2.57-2.86-2.47-2.96c0.1-0.1,1.38,1.06,2.84,2.6
						C198.36,318.71,199.47,320.03,199.36,320.13z"/>
				</g>
				<g>
					<path class="st5" d="M219.63,330.15c0,0.14-1.57,0.26-3.5,0.26c-1.93,0-3.5-0.12-3.5-0.26c0-0.14,1.57-0.26,3.5-0.26
						C218.06,329.89,219.63,330.01,219.63,330.15z"/>
				</g>
				<g>
					<path class="st5" d="M243.96,319.6c0.09,0.11-1.31,1.42-3.14,2.93c-1.82,1.51-3.38,2.64-3.47,2.53
						c-0.09-0.11,1.31-1.42,3.14-2.93C242.31,320.62,243.87,319.49,243.96,319.6z"/>
				</g>
			</g>
		</g>
	</g>
</g>
<g id="Plant">
	<g>
		<g>
			<g>
				<path class="st8" d="M110.11,384.44c1.37-3.58,0.38-7.83-2.12-10.74c-2.5-2.9-6.32-4.5-10.14-4.72
					c-1.77-0.1-3.73,0.16-4.92,1.47c-1.12,1.22-1.26,3.12-0.7,4.67c0.57,1.56,1.74,2.82,3.01,3.88
					C99.6,382.63,104.5,385.34,110.11,384.44"/>
				<path class="st8" d="M119.1,389.71c2.28-7.75,8.55-14.2,16.22-16.72c1.95-0.64,4.43-0.9,5.77,0.66
					c1.34,1.57,0.68,3.98-0.31,5.79c-4.12,7.52-13.13,12.03-21.62,10.82"/>
				<path class="st10" d="M119.1,389.71c2.28-7.75,8.55-14.2,16.22-16.72c1.95-0.64,4.43-0.9,5.77,0.66
					c1.34,1.57,0.68,3.98-0.31,5.79c-4.12,7.52-13.13,12.03-21.62,10.82"/>
				<path class="st8" d="M121.71,338.51c-3.3,0.94-5.98,3.51-7.56,6.56c-1.58,3.05-2.15,6.53-2.22,9.95
					c-0.13,6.63,2.7,13.73,6,19.48c6.14-4.07,8.53-12.28,9.48-16.52C128.92,351.29,127.56,338.26,121.71,338.51"/>
				<g>
					<path class="st5" d="M114.77,404.05c-0.04-0.89,0.28-1.73,0.13-3.33c-0.31-3.17-0.83-7.63-2.58-12.26
						c-1.75-4.63-4.66-8.25-7.25-10.19c-1.29-0.99-2.44-1.62-3.27-1.97c-0.83-0.35-1.31-0.48-1.33-0.44
						c-0.07,0.14,1.85,0.78,4.27,2.82c2.43,1.99,5.17,5.54,6.88,10.05c1.71,4.52,2.31,8.91,2.75,12.06"/>
				</g>
				<g>
					<path class="st5" d="M114.75,404.16c0.18-1.6,0.43-3.69,0.72-6.22c0.59-5.25,1.43-12.5,2.46-20.5
						c1.03-7.99,2.06-15.22,2.82-20.45c0.36-2.52,0.66-4.6,0.88-6.2c0.2-1.46,0.29-2.28,0.24-2.29c-0.05-0.01-0.23,0.79-0.52,2.24
						c-0.29,1.45-0.67,3.56-1.12,6.16c-0.89,5.21-2.01,12.43-3.04,20.43c-1.03,8-1.79,15.27-2.25,20.54
						c-0.23,2.63-0.39,4.77-0.48,6.24"/>
				</g>
				<g>
					<path class="st5" d="M133.65,379.1c-0.02-0.05-0.47,0.07-1.29,0.33c-0.41,0.12-0.91,0.29-1.47,0.55
						c-0.56,0.25-1.21,0.49-1.88,0.88c-1.38,0.69-2.92,1.7-4.52,2.98c-1.57,1.31-3.17,2.89-4.62,4.76
						c-1.43,1.88-2.55,3.84-3.41,5.69c-0.82,1.87-1.4,3.62-1.71,5.14c-0.2,0.74-0.27,1.44-0.37,2.05c-0.1,0.6-0.14,1.13-0.15,1.56
						c-0.04,0.86,0.19,1.11,0.24,1.11c0.15,0.01,0.01-1.67,0.78-4.59c0.37-1.47,0.99-3.16,1.83-4.97c0.87-1.79,1.98-3.69,3.38-5.53
						c1.42-1.82,2.96-3.38,4.47-4.68c1.54-1.27,3.02-2.31,4.34-3.04C131.89,379.81,133.7,379.24,133.65,379.1z"/>
				</g>
				<path class="st11" d="M110.11,384.44c1.37-3.58,0.38-7.83-2.12-10.74c-2.5-2.9-6.32-4.5-10.14-4.72
					c-1.77-0.1-3.73,0.16-4.92,1.47c-1.12,1.22-1.26,3.12-0.7,4.67c0.57,1.56,1.74,2.82,3.01,3.88
					C99.6,382.63,104.5,385.34,110.11,384.44"/>
			</g>
			<path class="st6" d="M97.34,402.83h34.25v12.79c0,9.46-7.67,17.12-17.12,17.12l0,0c-9.46,0-17.12-7.67-17.12-17.12V402.83z"/>
		</g>
		<g>
			<path class="st5" d="M131.56,411.07c0,0.04-0.48,0.04-1.34,0.02c-0.96-0.03-2.19-0.07-3.65-0.11c-3.08-0.1-7.33-0.23-12.03-0.31
				c-4.7-0.08-8.96-0.09-12.04-0.09c-1.46-0.01-2.69-0.01-3.65-0.01c-0.86-0.01-1.34-0.03-1.34-0.07c0-0.04,0.47-0.08,1.34-0.13
				c0.86-0.05,2.11-0.11,3.65-0.15c3.08-0.09,7.35-0.14,12.05-0.06c4.71,0.08,8.96,0.27,12.04,0.47c1.54,0.1,2.78,0.19,3.64,0.27
				C131.09,410.97,131.56,411.03,131.56,411.07z"/>
		</g>
		<g>
			<path class="st5" d="M131.55,413.02c0,0.04-0.48,0.04-1.34,0.02c-0.96-0.03-2.19-0.07-3.65-0.11c-3.08-0.1-7.33-0.23-12.03-0.31
				c-4.7-0.08-8.96-0.09-12.04-0.09c-1.46-0.01-2.69-0.01-3.65-0.01c-0.86-0.01-1.34-0.03-1.34-0.07c0-0.04,0.47-0.08,1.34-0.13
				c0.86-0.05,2.11-0.11,3.65-0.15c3.08-0.09,7.35-0.14,12.05-0.06c4.71,0.08,8.96,0.27,12.04,0.47c1.54,0.1,2.78,0.19,3.64,0.27
				C131.08,412.92,131.55,412.98,131.55,413.02z"/>
		</g>
	</g>
</g>
</svg>
