<svg width="171" height="46" viewBox="0 0 171 46" fill="none" xmlns="http://www.w3.org/2000/svg">
<path d="M24.3281 2.1178C26.6982 6.33034 29.0888 10.5305 31.4332 14.759C27.6438 21.6749 23.9092 28.6244 19.9916 35.4643C18.4885 38.0898 17.0264 40.7401 15.5404 43.3745C10.7217 43.4046 5.90289 43.4028 1.08411 43.3957C1.23117 43.0543 1.37652 42.711 1.55436 42.3855C9.14163 28.9606 16.758 15.5533 24.3281 2.1178Z" fill="#AE285D"/>
<path d="M129.184 12.4731C131.848 17.6109 134.51 22.747 137.171 27.8866C136.232 27.9061 135.293 27.8565 134.356 27.8902C133.727 26.7579 133.182 25.5778 132.566 24.4384C130.199 24.3659 127.831 24.4154 125.463 24.4101C124.892 25.5831 124.269 26.726 123.664 27.8778C122.739 27.8689 121.814 27.8972 120.89 27.8884C123.616 22.7275 126.35 17.5702 129.184 12.4731ZM126.648 22.2127C128.262 22.2357 129.878 22.2322 131.494 22.2463C130.685 20.6894 129.957 19.0882 129.09 17.5649C128.259 19.1059 127.445 20.654 126.648 22.2127Z" fill="#AE285D"/>
<path d="M138.724 12.413C142.746 16.0293 146.768 19.6473 150.74 23.3238C150.849 20.0065 150.726 16.6892 150.824 13.3719C151.684 13.3896 152.544 13.4037 153.404 13.4197C153.377 18.5292 153.39 23.6405 153.385 28.75C150.743 26.4766 148.206 24.0757 145.596 21.7598C144.144 20.4753 142.706 19.1767 141.32 17.8197C141.285 21.1795 141.335 24.541 141.265 27.9008C140.41 27.9043 139.555 27.8813 138.702 27.8884C138.708 22.7293 138.666 17.572 138.724 12.413Z" fill="#AE285D"/>
<path d="M53.7179 27.8672C56.4966 22.7346 59.2036 17.5614 62.0456 12.4678C64.6927 17.6109 67.3551 22.747 70.033 27.8725C69.0805 27.8955 68.1298 27.8937 67.1773 27.8742C66.5993 26.726 66.0077 25.5848 65.4553 24.4225C63.0801 24.3906 60.7067 24.4172 58.3315 24.4172C57.7125 25.576 57.1533 26.772 56.4847 27.9025C55.5613 27.876 54.6396 27.8955 53.7179 27.8672ZM59.4857 22.2268C61.1085 22.2198 62.733 22.2428 64.3575 22.2375C63.5401 20.6894 62.8219 19.0865 61.9447 17.572C61.1188 19.1219 60.3031 20.6735 59.4857 22.2268Z" fill="#AE285D"/>
<path d="M93.2617 13.7983C94.6195 13.1065 96.2097 13.0163 97.6786 13.3224C98.9509 13.6001 99.9735 14.536 100.75 15.5728C100.061 15.9337 99.3767 16.3 98.6995 16.6839C97.7864 15.2066 95.613 14.736 94.2877 15.8877C93.5849 16.4079 93.6413 17.6888 94.4348 18.0851C96.2132 19.0989 98.3763 19.3165 99.9529 20.7195C101.56 22.1296 101.499 24.948 100.009 26.427C98.4105 28.1043 95.878 28.4687 93.7525 27.8407C91.9724 27.3754 90.6334 25.6822 90.3958 23.821C91.2559 23.6264 92.1246 23.4654 92.995 23.3256C93.0993 24.1978 93.419 25.1585 94.2142 25.5973C95.4727 26.2961 97.2973 26.121 98.166 24.8595C98.7782 24.0014 98.5969 22.6834 97.7607 22.0553C96.0131 20.8434 93.6926 20.769 92.1246 19.2422C91.2969 18.5133 90.9532 17.296 91.2354 16.215C91.4594 15.1128 92.3298 14.2972 93.2617 13.7983Z" fill="#AE285D"/>
<path d="M70.864 13.4727C71.8404 13.34 72.8271 13.386 73.8086 13.3966C74.8586 15.0137 75.9068 16.6308 76.9585 18.2461C78.0648 16.6503 79.1404 15.0314 80.2314 13.4249C81.2386 13.3913 82.2458 13.3736 83.253 13.4055C81.6558 15.7037 80.0484 17.9966 78.4479 20.2931C80.0775 22.8496 81.8559 25.3053 83.4479 27.8884C82.4886 27.8937 81.5293 27.8849 80.57 27.876C79.3491 26.059 78.1367 24.2349 76.9157 22.4179C75.6537 24.242 74.3815 26.0573 73.1349 27.8919C72.1636 27.9114 71.1906 27.8973 70.2194 27.899C71.9088 25.3372 73.6872 22.8408 75.4434 20.3267C73.9335 18.0303 72.3945 15.755 70.864 13.4727Z" fill="#AE285D"/>
<path d="M85.6197 13.409C86.4849 13.3825 87.3485 13.3843 88.2137 13.4037C88.2189 18.232 88.2154 23.0602 88.2154 27.8884C87.3365 27.8902 86.4593 27.8884 85.5803 27.8884C85.6128 23.062 85.5974 18.2355 85.6197 13.409Z" fill="#AE285D"/>
<path d="M110.866 13.3967C113.086 13.4957 115.48 13.08 117.525 14.2052C119.519 15.3092 119.979 18.5841 118.14 20.0667C119.298 20.5391 120.418 21.429 120.723 22.74C121.21 24.3482 120.35 26.1281 118.99 26.9614C116.513 28.3697 113.594 27.7133 110.904 27.9044C110.82 23.0691 110.873 18.2337 110.866 13.3967ZM113.441 15.4808C113.447 16.8608 113.443 18.2391 113.435 19.6173C114.399 19.5766 115.468 19.6367 116.29 19.0211C117.13 18.2479 117.099 16.6467 116.172 15.9585C115.362 15.4277 114.361 15.4879 113.441 15.4808ZM113.457 21.5121C113.447 22.9187 113.452 24.327 113.477 25.7335C114.772 25.6627 116.165 25.9104 117.359 25.247C118.418 24.7091 118.612 22.9505 117.629 22.2322C116.444 21.2804 114.854 21.5422 113.457 21.5121Z" fill="#AE285D"/>
<path d="M156.393 13.3967C157.255 13.3896 158.117 13.3931 158.98 13.3949C158.984 15.3021 158.963 17.2111 159.003 19.1201C161.126 17.1864 163.291 15.3021 165.427 13.3843C166.607 13.3914 167.787 13.3967 168.967 13.3931C166.419 15.5551 163.892 17.7401 161.388 19.9552C163.851 22.6444 166.402 25.2434 168.921 27.876C167.751 27.8637 166.58 27.9592 165.415 27.8194C163.411 25.7034 161.421 23.575 159.435 21.4414C159.29 21.6395 159.146 21.8377 159.004 22.0358C158.953 23.9873 158.999 25.937 158.967 27.8884C158.1 27.8831 157.233 27.9061 156.368 27.9008C156.374 23.0673 156.386 18.232 156.393 13.3967Z" fill="#AE285D"/>
<path d="M24.3298 27.7999C29.1657 27.7982 34.0016 27.7628 38.8375 27.8459C41.7171 33.0404 44.6891 38.1782 47.5431 43.3869C42.7072 43.4116 37.873 43.3922 33.0372 43.3886C30.1592 38.1765 27.153 33.0439 24.3298 27.7999Z" fill="#AE285D"/>
</svg>
