<?xml version="1.0" encoding="utf-8"?>
<!-- Generator: Adobe Illustrator 24.3.0, SVG Export Plug-In . SVG Version: 6.00 Build 0)  -->
<svg version="1.1" xmlns="http://www.w3.org/2000/svg" xmlns:xlink="http://www.w3.org/1999/xlink" x="0px" y="0px"
	 viewBox="0 0 398.17 358.47" style="enable-background:new 0 0 398.17 358.47;" xml:space="preserve">
<g id="Background_Complete">
</g>
<g id="Background_Simple" style="display:none;">
	<g style="display:inline;">
		<path style="fill:#407BFF;" d="M43.52,28.72c27.92-59.45,127.06-51.06,165.32-9.26c38.26,41.81,50.7,68.6,85.21,52.98
			c34.51-15.62,78.52-11.44,81.04,38.16S337.17,218.88,273,236.23c-64.18,17.35-64.16,78.76-149.1,66.37
			c-46.31-6.76-47.37-56.86-40.83-98.3C89.61,162.86,11.14,97.67,43.52,28.72z"/>
		<path style="opacity:0.9;fill:#FFFFFF;" d="M43.52,28.72c27.92-59.45,127.06-51.06,165.32-9.26c38.26,41.81,50.7,68.6,85.21,52.98
			c34.51-15.62,78.52-11.44,81.04,38.16S337.17,218.88,273,236.23c-64.18,17.35-64.16,78.76-149.1,66.37
			c-46.31-6.76-47.37-56.86-40.83-98.3C89.61,162.86,11.14,97.67,43.52,28.72z"/>
	</g>
</g>
<g id="Shadow_1_">
</g>
<g id="Book">
</g>
<g id="Plant">
</g>
<g id="Plane">
</g>
<g id="Character">
</g>
<g id="Speech_bubble">
	<g>
		<rect x="1.54" y="323.83" style="fill:#EBEBEB;" width="33.12" height="0.25"/>
		<rect x="120.23" y="326.55" style="fill:#EBEBEB;" width="8.69" height="0.25"/>
		<rect x="35.67" y="314.55" style="fill:#EBEBEB;" width="19.19" height="0.25"/>
		<rect x="355.79" y="316.23" style="fill:#EBEBEB;" width="43.19" height="0.25"/>
		<rect x="340.56" y="316.23" style="fill:#EBEBEB;" width="6.33" height="0.25"/>
		<rect x="226.3" y="320.45" style="fill:#EBEBEB;" width="93.68" height="0.25"/>
		<g>
			
				<path style="fill:none;stroke:#E0E0E0;stroke-width:1.9163;stroke-linecap:round;stroke-linejoin:round;stroke-miterlimit:10;" d="
				M370.48,87.42c13.42,35.39-51.24,92.72-144.42,128.04c-93.18,35.32-179.59,35.27-193-0.12"/>
			
				<path style="fill:none;stroke:#E0E0E0;stroke-width:1.9163;stroke-linecap:round;stroke-linejoin:round;stroke-miterlimit:10;" d="
				M309.11,301.19c-30.42,22.52-103.14-24.16-162.43-104.25S64.01,33.66,94.43,11.15"/>
			<g>
				<g>
					<path style="fill:#EBEBEB;" d="M62.11,167.83c-0.03-4.66,0.16-9.27,0.57-13.81c3.51-38.9,22.91-73.28,51.69-96.52
						c23.85-19.27,54.16-30.9,87.21-31.13c0.86-0.01,1.71,0,2.56,0c17.66,0.19,34.53,3.65,50.05,9.78h0.01
						c47.44,18.77,82.29,62.63,88.02,115.33c0.51,4.72,0.79,9.51,0.82,14.36c0.08,11.71-1.27,23.09-3.9,33.98
						c-7.76,32.26-26.66,60.22-52.44,79.53c-23.19,17.36-51.93,27.73-83.13,27.95c-16.71,0.12-32.77-2.69-47.67-7.94
						C101.63,280.24,62.54,228.69,62.11,167.83z"/>
				</g>
				<g>
					<path style="opacity:0.4;fill:#F5F5F5;enable-background:new    ;" d="M160.49,269.16c-2.64,0.26-3.82,3.5-4.36,6.14
						c-0.8,3.97-1.6,7.94-2.4,11.9c4.83,2.27,4.43,8.16,2.18,12.16c-54.29-19.12-93.37-70.67-93.8-131.53
						c-0.03-4.66,0.16-9.27,0.57-13.81c0.11-0.07,0.24-0.14,0.36-0.2c3.83-1.81,6.85,1.46,9.74,3.31c0.65,0.42,9.07,4.51,9.18,3.37
						c-0.35,3.67-0.16,7.4,0.59,11.02c0.06,0.27,0.13,0.57,0.36,0.73c0.55,0.38,1.17-0.38,1.37-1.01c0.51-1.62,0.73-3.33,1.34-4.91
						c0.61-1.59,1.72-3.11,3.34-3.62c1.63-0.51,3.4,0.09,5.09-0.15c2.06-0.29,3.78-1.82,4.83-3.62c1-1.74,1.47-3.75,1.98-5.67
						c1.99,4.41,7.02,1.69,9.98,5.25c0.95,1.14,2.09,2.79,3.47,2.24c1.31-0.53,1.46-2.77,2.87-2.94c0.98-0.12,1.7,0.96,1.85,1.94
						c0.15,0.98-0.01,2.03,0.4,2.92c0.58,1.26,2.34,1.8,3.53,1.08c1.07-0.65,1.48-1.96,2.15-3.02c0.67-1.06,2.1-1.94,3.11-1.2
						c0.24,0.17,0.41,0.42,0.55,0.68c0.97,1.88-0.13,4.15-1.44,5.82c-1.31,1.66-2.92,3.33-3.05,5.44c0.76,0.54,1.96,0.29,2.43-0.51
						c0.17-0.28,0.26-0.61,0.51-0.82c0.54-0.45,1.34-0.02,1.93,0.36c2.79,1.8,6.31,2.43,9.55,1.69c0.24-4.28,0.48-8.56,0.72-12.84
						c0.97-0.03,1.55-0.1,1.92-1.09c3.21,3.13,6.15,6.49,9.69,9.31c0.42,0.34,0.88,0.71,1.02,1.23c0.15,0.55-0.08,1.12-0.04,1.69
						c0.11,1.87,2.62,2.36,4.49,2.31c0.54,0.3,0.23,1.19-0.31,1.5c-0.54,0.3-1.22,0.33-1.71,0.71c-0.73,0.57-0.75,1.69-0.48,2.58
						c0.93,3.09,4.71,4.98,7.74,3.86c0.36-0.13,0.72-0.32,0.94-0.63c0.47-0.7,0.03-1.63-0.06-2.47c-0.34-3.32,3.24-2.54,4.89-1.63
						c2.24,1.24,3.49,4.54,3.91,6.9c0.49,2.76,2.57,21.05,8.68,18.52c0.57-0.24,0.99-0.75,1.28-1.3c0.88-1.66,0.82-3.66,1.47-5.43
						c0.65-1.77,2.66-3.38,4.3-2.46c0.66,0.37,1.08,1.06,1.71,1.47c1.75,1.16,4.25-0.23,6.16,0.64c0.88,0.4,1.49,1.22,2.29,1.77
						c0.8,0.55,2.05,0.72,2.61-0.06c0.63-0.88-0.11-2.21,0.41-3.16c0.54-1,2.23-0.79,2.8,0.19c0.57,0.98,0.23,2.28-0.48,3.17
						c-0.37,0.47-0.84,0.89-0.97,1.48c-0.22,1.04,0.77,1.91,1.64,2.52c1.39,0.96,2.79,1.93,4.18,2.89c-0.09,0.96-1.03,1.64-1.96,1.9
						c-0.93,0.26-1.93,0.25-2.86,0.56c-4.46,1.49-4.44,8.1-10.29,6.8c0.35-1.76-1.53-3.55-3.26-3.12c-2.14,0.53-3.53,3.58-5.65,2.98
						c-0.74-0.21-1.3-0.85-2.05-1.03c-2.06-0.49-3.07,2.68-3.65,4.03c-1.92,4.48,1.07,5.02,0.95,9.02
						c-0.06,1.83-1.41,3.37-1.75,5.17c-0.31,1.66,0.27,3.37,0.05,5.04c-0.62,4.59-6.69,1.81-9.38,1.27c1.46,2.6-0.71,5.76-3.08,7.57
						c-3.64,2.77-3.02,2.53-3.47,6.53c-0.12,1.06-0.73,2.13-1.73,2.48c-1.74,0.62-3.44-1.1-5.28-1.28
						c-0.88-0.09-1.78,0.19-2.65,0.04c-2.3-0.39-3.1-3.2-4.59-4.99c-1.31-1.56-3.42-2.41-5.44-2.2c-0.16,1.18-0.17,2.38-0.02,3.56
						c1.29,0.79,2.57,1.59,3.86,2.38c1.14,0.7,2.32,1.44,3.02,2.58c0.39,0.64,0.64,1.39,1.21,1.88c1.13,0.96,2.83,0.38,4.32,0.29
						c3.6-0.23,9.47,2.01,12.94,3.15c3.7,1.21,4.99,3.83,8.4,5c0.6,0.21,0.74,1.08,0.38,1.61c-0.35,0.53-1.01,0.76-1.64,0.87
						c-1.45,0.26-2.99,0-4.29-0.71c1.7,0.93-3.26,5.03-4.16,5.23c-1.47,0.33-3.45-0.78-4.95-0.85c-3.71-0.19-5.86,0.55-3.42,4.59
						c0.93,1.54,2.02,3.51,1,4.99c-0.98-0.41-2.17,0.18-2.72,1.09c-0.55,0.91-0.59,2.04-0.47,3.1c0.08,0.71,0.25,1.47,0.78,1.96
						c0.28,0.26,0.65,0.44,0.86,0.76c0.69,1.04-0.73,2.18-1.89,2.63"/>
					<path style="opacity:0.4;fill:#F5F5F5;enable-background:new    ;" d="M283.42,108.25c-1.15-0.87-2.8-0.17-4,0.63
						c-1.2,0.8-2.62,1.73-3.97,1.24c-0.03-1.67-0.05-3.35-0.08-5.02c0-0.31-0.02-0.67-0.25-0.88c-0.23-0.22-0.59-0.22-0.91-0.2
						c-1.08,0.05-2.15,0.1-3.23,0.15c-0.9,0.99,1.61,2.19,1.25,3.48c-0.16,0.57-0.8,0.82-1.32,1.1c-4.44,2.38-1.62,7.33,0.39,10.02
						c2.33,3.12,2.18,7.37,1.93,11.26c-0.09,1.38-0.26,2.93-1.32,3.84c-1.04,0.89-2.56,0.83-3.89,1.22c-2.3,0.67-3.92,2.7-6.07,3.76
						c-7.51,3.7-12.46-4.34-10.01-10.68c1.27-3.28,1.81-2.66,1.08-6.17c-0.3-1.46,0.18-3.19-1.34-4.19
						c-1.61-1.06-3.94,0.08-4.07,2.04c-0.13,1.93-0.57,3.76,0.22,5.57c-2.22-0.82-4.87-0.3-7.29-0.3c0.35,2.24-2.54,4.21-4.5,3.07
						c0.07-1.1-0.23-2.6-1.33-2.6c-0.32,0-0.62,0.16-0.89,0.32c-1.15,0.68-2.17,1.58-3.38,2.15c-1.87,0.87-7.23,0.46-8.06,2.97
						c-0.15,0.44-0.15,0.93-0.32,1.36c-0.37,0.92-1.54,1.37-2.49,1.08c-0.95-0.29-1.63-1.2-1.81-2.18
						c-0.12-0.65-0.05-1.33-0.22-1.97c-0.9-3.4-4.39-0.74-5.95-1.65c-0.75-0.44-3.83-6.24-3.9-6.94c-1.48,1.85-3.7,3.4-6.17,3.29
						c-2.7-0.13-3.85-2.27-4.46-4.9c-0.64-2.77-0.67-6.07-1.28-8.08c-0.33-1.08-0.6-2.39,0.16-3.22c0.95-1.04,2.99-0.64,3.68-1.87
						c0.22-0.39,0.24-0.86,0.31-1.3c0.44-2.58,3.34-4.46,5.88-3.8c0.83-0.54,0.84-1.72,0.89-2.71c0.05-0.99,0.47-2.22,1.46-2.29
						c1.14-0.08,1.65,1.41,1.64,2.55c-0.02,1.16-0.2,2.32-0.54,3.44c-0.25,0.83-0.59,1.72-0.3,2.54c0.22,0.62,0.77,1.06,1.3,1.44
						c1.28,0.92,2.75,1.76,4.33,1.75c1.58-0.01,3.25-1.16,3.31-2.74c0.02-0.42-0.08-0.86,0.02-1.27c0.26-1.06,1.61-1.43,2.69-1.28
						c1.08,0.15,2.16,0.6,3.23,0.38c1.07-0.22,1.96-1.61,1.2-2.4c1.44-0.5,3.49-0.75,4.06,0.66c0.18,0.45,0.13,0.96,0.14,1.45
						c0.06,3.02,3.81,7.37,6.37,4.22c1.68-2.07-1.22-5.85,1.8-7.55c1.44-0.82,3.4-0.1,4.83-0.94c0.45-0.53-0.32-1.24-0.99-1.42
						c-2.12-0.56-4.51,0.09-6.05,1.64c-0.86-1.76,0.47-4.34-1.03-5.6c-1.47-1.25-4.31,0.22-5.41-1.36
						c-0.32-0.45-0.37-1.03-0.41-1.59c-0.2-2.72,0.64-7.72-3.2-8.18c-0.47-0.06-0.95-0.02-1.39-0.19c-1.33-0.52-1.32-2.37-1.07-3.78
						c1.45-0.62,3,0.45,4.39,1.19c1.39,0.74,3.6,0.86,4.07-0.64c0.34-1.07-0.5-2.42,0.21-3.29c0.33-0.4,0.91-0.56,1.19-1
						c0.68-1.07-0.97-2.14-1.26-3.37c-0.4-1.69,1.86-2.78,3.6-2.65c1.74,0.13,3.68,0.71,5.08-0.32c0.44-0.33,0.77-0.79,1.19-1.15
						c1.27-1.13,3.12-1.23,4.82-1.27c2.71-0.07-3.46-11.22-3.52-11.9c-0.47-5.17,4.84-7.93,7.87-11.21
						c1.59-1.73,2.75-3.79,3.91-5.84c45.68,18.08,79.46,60.02,87.12,108.58c0.34,2.18,0.75,4.43,0.77,6.6
						c-3.21-0.9-8.19-3.3-11.45-1.35c-4.13,2.48-1.14,8.61-5.91,10.42c-1.18-0.02-0.84-1.96-1.52-2.92
						c-0.38-0.53-1.08-0.71-1.66-1.01c-0.59-0.3-1.15-0.93-0.91-1.54c-1.03-0.81-2.45,0.22-3.41,1.12
						c-1.13,1.05-2.41,2.02-3.92,2.34c-3.14,0.66-6.05-1.59-8.88-3.11c-2.34-1.25-4.89-2.05-7.43-2.85
						c1.23,0.07,1.85-1.62,1.38-2.76c-0.47-1.13-1.54-1.89-2.32-2.83c-1.33-1.62-0.31-3.5-1.42-5.22c-1.38-2.14-4.03-3.63-4.25-6.16
						c-0.28-3.06,3.11-5.02,5.96-6.15c-1.51-3.46-5.6-5.83-5.6-9.61c0-1.45,0.65-2.81,1.28-4.12c1.29-2.67,2.58-5.34,3.87-8
						c0.54-1.11,1.09-2.33,0.76-3.51c-0.37-1.4-1.8-2.21-3.08-2.85c-1.4-0.7-2.8-1.4-4.19-2.11c-0.58-0.28-1.21-0.58-1.84-0.47
						c-0.68,0.12-1.18,0.66-1.6,1.21c-2.28,2.96-3.37,6.8-2.99,10.53c-4.96-0.74-9.83-2.09-14.45-4.02
						c0.51,2.86-0.67,6.03,0.22,8.71"/>
					<path style="opacity:0.4;fill:#F5F5F5;enable-background:new    ;" d="M167.28,131.69c-1.33,0.96-2.41,2.42-2.49,4.06
						c-0.05,1.01,0.27,2,0.34,3.01c0.07,1.01-0.22,2.17-1.11,2.65c-1.13,0.62-2.5-0.15-3.55-0.9c-0.86-0.61-1.78-1.31-1.99-2.34
						c-0.15-0.75,0.11-1.53,0.05-2.3c-0.13-1.51-1.47-2.58-2.54-3.66s-1.98-2.78-1.14-4.05c0.56-0.83,1.68-1.12,2.28-1.93
						c1.45-1.96-1.18-4.71,0.03-6.49c1.43-2.12,4.97-1.03,6.92,0.04c1.98,1.08,3.42,3.09,4.84,4.79
						C172.92,129.38,171.52,128.64,167.28,131.69z"/>
					<path style="opacity:0.4;fill:#F5F5F5;enable-background:new    ;" d="M114.49,57.45c23.5-20.39,56.3-30.87,87.09-31.09
						c0.86-0.01,1.71,0,2.56,0c4.06,4.58,6.22,13.26-1.83,14.88c0,0.88,0.5,1.1,0.95,1.8c0.7,1.1-0.47,2.49-1.67,2.99
						c-3.95,1.63-8.75,1.54-8.12,6.89c0.75,6.39,3.77,2.32,7.08,4.63c0.48,0.33,0.76,0.88,1.15,1.32c1.41,1.62,3.88,1.61,6.02,1.46
						c-0.54-1.25,0.3-2.9,1.63-3.2c0.5-0.12,1.07-0.08,1.48-0.38c0.9-0.65,0.22-2.18-0.8-2.6c-1.02-0.42-2.2-0.25-3.26-0.56
						c-1.06-0.31-2.03-1.57-1.39-2.47c0.27-0.38,0.74-0.55,1.19-0.65c1.89-0.43,3.98,0.15,5.38,1.49c0.35-1.02,1.45-1.72,2.52-1.61
						c1.07,0.1,2.01,1.01,2.16,2.07c0.22,1.56-0.85,3.68,0.54,4.41c-1.24-0.32-2.64,0.12-3.47,1.09
						c-3.26,3.84-1.32,13.18-9.91,11.61c-1.38-0.25-2.7-0.84-4.1-0.91c-1.4-0.07-3,0.58-3.38,1.93c-1.8-2.62-6.43-2.06-7.97-4.84
						c-0.72-1.31-0.39-3.11,0.75-4.08c0.19-0.16,0.41-0.31,0.5-0.54c0.19-0.47-0.23-0.95-0.3-1.46c-0.12-0.87,0.83-1.55,0.94-2.42
						c0.16-1.22-1.25-1.99-2.44-2.3c-1.19-0.31-2.64-0.74-2.88-1.95c-0.08-0.41,0.01-0.84-0.08-1.25c-0.17-0.83-1.01-1.38-1.85-1.49
						s-1.68,0.13-2.49,0.37c-0.55,0.47-0.31,1.4,0.19,1.93c0.49,0.53,1.18,0.88,1.58,1.48c0.23,0.34-0.89,7.62-0.34,7.43
						c-2.6,0.9-8.16,1.03-7.04,4.92c0.4,1.37,1.2,2.8,0.69,4.14c1.83-0.52,3.67-1.01,5.51-1.48c0.45,0.59-0.29,1.4-1.01,1.58
						c-0.72,0.18-1.57,0.16-2.06,0.71c-0.34,0.39-0.39,0.95-0.42,1.47c-0.09,1.69-0.19,3.38-0.28,5.08
						c-0.1,1.84-0.35,3.94-1.87,4.97c-1.73,1.18-4.17,0.24-5.63-1.26c-0.35-0.36-0.73-0.78-1.23-0.79c-0.45,0-0.82,0.34-1.16,0.65
						c-1.78,1.59-4.28,2.55-6.61,2c-2.33-0.55-4.25-2.89-3.86-5.25c0.15-0.91,0.54-2.02-0.16-2.61c-0.41-0.35-1.12-0.39-1.3-0.9
						c-0.23-0.64,0.58-1.1,1.13-1.51c0.99-0.73,1.34-2.2,0.79-3.3c-0.28-0.56-5.36-2.65-6.14-2.26c-1.81,0.88-1.49,5.73-1.71,7.6
						c-0.09,0.72-0.22,1.53-0.8,1.96c-0.91,0.68-2.23-0.03-2.93-0.92c-0.71-0.89-1.22-2.02-2.25-2.51
						c-0.59-0.29-1.28-0.31-1.94-0.33c-1.34-0.04-2.84-0.02-3.78,0.93c-0.44,0.44-0.7,1.04-1.14,1.49
						c-1.01,1.01-2.68,0.96-4.03,0.48c-1.34-0.48-2.55-1.31-3.93-1.68c-2.94-0.78-6.29,0.61-8.99-0.79
						c-1.3-0.67-2.24-2.54-1.21-3.58c0.89-0.9,2.83-0.75,3.06-1.99c0.23-1.19-2.7-2.91-3.21-3.96c-0.41-0.83,0.48-2.36-0.46-3.9
						C117.19,59.17,115.32,58.79,114.49,57.45z"/>
					<path style="opacity:0.4;fill:#F5F5F5;enable-background:new    ;" d="M286.99,258.6c1.67-1.12,3.54-1.76,4.12-4.06
						c0.79-3.13-0.89-4.46-4-3.3c-0.28,0.1-0.58,0.21-0.86,0.12c-0.9-0.29-0.26-1.61,0.32-2.35c1.37-1.73,1.46-4.05,0.75-6.06
						c-0.17-0.48,8.59-0.68,9.55-0.15c3.38,1.85,1.18,9.05,5.09,7.83c0.26-2.74,0.12-5.57,0.13-8.34c1.33-0.05,2.67-0.1,4-0.15
						c-0.99,0.04-0.4-5.07-0.07-5.63c1.31-2.17,5.37-1.25,5.01-5.34c-0.46-5.18-10.5-6.24-9.29-0.29c-3.06,1.17-6.63,1.43-9.9,1.34
						c-0.08,1.05-0.14,2.12-0.2,3.17c-0.76,0.47-1.76,0.55-2.59,0.19c-1.59-2.66-1.34-6.31,0.58-8.74
						c-1.15-1.76,0.25-4.02,1.59-5.63c-3.67-2.69-2.62-9.52,1.7-10.97c4.32-1.45,9.29,3.35,7.99,7.71c2.11,0.24,4.13,1.17,5.68,2.6
						c0.23-5.51,4.38-10.64,9.73-12c2.69-0.69,5.88-0.65,7.71-2.74c0.82-0.92,1.22-2.14,1.98-3.12c1.72-2.18,4.79-2.62,7.56-2.78
						c1.86-0.1,3.71-0.13,5.57-0.1c-7.76,32.26-26.66,60.22-52.44,79.53c-0.98,0.04-1.99,0.02-2.84-0.42
						c-1.57-0.85-2.06-2.83-2.39-4.6c-1.27-6.85-0.56-11.12,5.02-15.38C286.66,258.82,286.83,258.71,286.99,258.6z"/>
				</g>
				<g>
					<path style="fill:#F5F5F5;enable-background:new    ;" d="M160.49,269.16c-2.64,0.26-3.82,3.5-4.36,6.14
						c-0.8,3.97-1.6,7.94-2.4,11.9c4.83,2.27,4.43,8.16,2.18,12.16c-54.29-19.12-93.37-70.67-93.8-131.53
						c-0.03-4.66,0.16-9.27,0.57-13.81c0.11-0.07,0.24-0.14,0.36-0.2c3.83-1.81,6.85,1.46,9.74,3.31c0.65,0.42,9.07,4.51,9.18,3.37
						c-0.35,3.67-0.16,7.4,0.59,11.02c0.06,0.27,0.13,0.57,0.36,0.73c0.55,0.38,1.17-0.38,1.37-1.01c0.51-1.62,0.73-3.33,1.34-4.91
						c0.61-1.59,1.72-3.11,3.34-3.62c1.63-0.51,3.4,0.09,5.09-0.15c2.06-0.29,3.78-1.82,4.83-3.62c1-1.74,1.47-3.75,1.98-5.67
						c1.99,4.41,7.02,1.69,9.98,5.25c0.95,1.14,2.09,2.79,3.47,2.24c1.31-0.53,1.46-2.77,2.87-2.94c0.98-0.12,1.7,0.96,1.85,1.94
						c0.15,0.98-0.01,2.03,0.4,2.92c0.58,1.26,2.34,1.8,3.53,1.08c1.07-0.65,1.48-1.96,2.15-3.02c0.67-1.06,2.1-1.94,3.11-1.2
						c0.24,0.17,0.41,0.42,0.55,0.68c0.97,1.88-0.13,4.15-1.44,5.82c-1.31,1.66-2.92,3.33-3.05,5.44c0.76,0.54,1.96,0.29,2.43-0.51
						c0.17-0.28,0.26-0.61,0.51-0.82c0.54-0.45,1.34-0.02,1.93,0.36c2.79,1.8,6.31,2.43,9.55,1.69c0.24-4.28,0.48-8.56,0.72-12.84
						c0.97-0.03,1.55-0.1,1.92-1.09c3.21,3.13,6.15,6.49,9.69,9.31c0.42,0.34,0.88,0.71,1.02,1.23c0.15,0.55-0.08,1.12-0.04,1.69
						c0.11,1.87,2.62,2.36,4.49,2.31c0.54,0.3,0.23,1.19-0.31,1.5c-0.54,0.3-1.22,0.33-1.71,0.71c-0.73,0.57-0.75,1.69-0.48,2.58
						c0.93,3.09,4.71,4.98,7.74,3.86c0.36-0.13,0.72-0.32,0.94-0.63c0.47-0.7,0.03-1.63-0.06-2.47c-0.34-3.32,3.24-2.54,4.89-1.63
						c2.24,1.24,3.49,4.54,3.91,6.9c0.49,2.76,2.57,21.05,8.68,18.52c0.57-0.24,0.99-0.75,1.28-1.3c0.88-1.66,0.82-3.66,1.47-5.43
						c0.65-1.77,2.66-3.38,4.3-2.46c0.66,0.37,1.08,1.06,1.71,1.47c1.75,1.16,4.25-0.23,6.16,0.64c0.88,0.4,1.49,1.22,2.29,1.77
						c0.8,0.55,2.05,0.72,2.61-0.06c0.63-0.88-0.11-2.21,0.41-3.16c0.54-1,2.23-0.79,2.8,0.19c0.57,0.98,0.23,2.28-0.48,3.17
						c-0.37,0.47-0.84,0.89-0.97,1.48c-0.22,1.04,0.77,1.91,1.64,2.52c1.39,0.96,2.79,1.93,4.18,2.89c-0.09,0.96-1.03,1.64-1.96,1.9
						c-0.93,0.26-1.93,0.25-2.86,0.56c-4.46,1.49-4.44,8.1-10.29,6.8c0.35-1.76-1.53-3.55-3.26-3.12c-2.14,0.53-3.53,3.58-5.65,2.98
						c-0.74-0.21-1.3-0.85-2.05-1.03c-2.06-0.49-3.07,2.68-3.65,4.03c-1.92,4.48,1.07,5.02,0.95,9.02
						c-0.06,1.83-1.41,3.37-1.75,5.17c-0.31,1.66,0.27,3.37,0.05,5.04c-0.62,4.59-6.69,1.81-9.38,1.27c1.46,2.6-0.71,5.76-3.08,7.57
						c-3.64,2.77-3.02,2.53-3.47,6.53c-0.12,1.06-0.73,2.13-1.73,2.48c-1.74,0.62-3.44-1.1-5.28-1.28
						c-0.88-0.09-1.78,0.19-2.65,0.04c-2.3-0.39-3.1-3.2-4.59-4.99c-1.31-1.56-3.42-2.41-5.44-2.2c-0.16,1.18-0.17,2.38-0.02,3.56
						c1.29,0.79,2.57,1.59,3.86,2.38c1.14,0.7,2.32,1.44,3.02,2.58c0.39,0.64,0.64,1.39,1.21,1.88c1.13,0.96,2.83,0.38,4.32,0.29
						c3.6-0.23,9.47,2.01,12.94,3.15c3.7,1.21,4.99,3.83,8.4,5c0.6,0.21,0.74,1.08,0.38,1.61c-0.35,0.53-1.01,0.76-1.64,0.87
						c-1.45,0.26-2.99,0-4.29-0.71c1.7,0.93-3.26,5.03-4.16,5.23c-1.47,0.33-3.45-0.78-4.95-0.85c-3.71-0.19-5.86,0.55-3.42,4.59
						c0.93,1.54,2.02,3.51,1,4.99c-0.98-0.41-2.17,0.18-2.72,1.09c-0.55,0.91-0.59,2.04-0.47,3.1c0.08,0.71,0.25,1.47,0.78,1.96
						c0.28,0.26,0.65,0.44,0.86,0.76c0.69,1.04-0.73,2.18-1.89,2.63"/>
					<path style="fill:#F5F5F5;enable-background:new    ;" d="M283.42,108.25c-1.15-0.87-2.8-0.17-4,0.63
						c-1.2,0.8-2.62,1.73-3.97,1.24c-0.03-1.67-0.05-3.35-0.08-5.02c0-0.31-0.02-0.67-0.25-0.88c-0.23-0.22-0.59-0.22-0.91-0.2
						c-1.08,0.05-2.15,0.1-3.23,0.15c-0.9,0.99,1.61,2.19,1.25,3.48c-0.16,0.57-0.8,0.82-1.32,1.1c-4.44,2.38-1.62,7.33,0.39,10.02
						c2.33,3.12,2.18,7.37,1.93,11.26c-0.09,1.38-0.26,2.93-1.32,3.84c-1.04,0.89-2.56,0.83-3.89,1.22c-2.3,0.67-3.92,2.7-6.07,3.76
						c-7.51,3.7-12.46-4.34-10.01-10.68c1.27-3.28,1.81-2.66,1.08-6.17c-0.3-1.46,0.18-3.19-1.34-4.19
						c-1.61-1.06-3.94,0.08-4.07,2.04c-0.13,1.93-0.57,3.76,0.22,5.57c-2.22-0.82-4.87-0.3-7.29-0.3c0.35,2.24-2.54,4.21-4.5,3.07
						c0.07-1.1-0.23-2.6-1.33-2.6c-0.32,0-0.62,0.16-0.89,0.32c-1.15,0.68-2.17,1.58-3.38,2.15c-1.87,0.87-7.23,0.46-8.06,2.97
						c-0.15,0.44-0.15,0.93-0.32,1.36c-0.37,0.92-1.54,1.37-2.49,1.08c-0.95-0.29-1.63-1.2-1.81-2.18
						c-0.12-0.65-0.05-1.33-0.22-1.97c-0.9-3.4-4.39-0.74-5.95-1.65c-0.75-0.44-3.83-6.24-3.9-6.94c-1.48,1.85-3.7,3.4-6.17,3.29
						c-2.7-0.13-3.85-2.27-4.46-4.9c-0.64-2.77-0.67-6.07-1.28-8.08c-0.33-1.08-0.6-2.39,0.16-3.22c0.95-1.04,2.99-0.64,3.68-1.87
						c0.22-0.39,0.24-0.86,0.31-1.3c0.44-2.58,3.34-4.46,5.88-3.8c0.83-0.54,0.84-1.72,0.89-2.71c0.05-0.99,0.47-2.22,1.46-2.29
						c1.14-0.08,1.65,1.41,1.64,2.55c-0.02,1.16-0.2,2.32-0.54,3.44c-0.25,0.83-0.59,1.72-0.3,2.54c0.22,0.62,0.77,1.06,1.3,1.44
						c1.28,0.92,2.75,1.76,4.33,1.75c1.58-0.01,3.25-1.16,3.31-2.74c0.02-0.42-0.08-0.86,0.02-1.27c0.26-1.06,1.61-1.43,2.69-1.28
						c1.08,0.15,2.16,0.6,3.23,0.38c1.07-0.22,1.96-1.61,1.2-2.4c1.44-0.5,3.49-0.75,4.06,0.66c0.18,0.45,0.13,0.96,0.14,1.45
						c0.06,3.02,3.81,7.37,6.37,4.22c1.68-2.07-1.22-5.85,1.8-7.55c1.44-0.82,3.4-0.1,4.83-0.94c0.45-0.53-0.32-1.24-0.99-1.42
						c-2.12-0.56-4.51,0.09-6.05,1.64c-0.86-1.76,0.47-4.34-1.03-5.6c-1.47-1.25-4.31,0.22-5.41-1.36
						c-0.32-0.45-0.37-1.03-0.41-1.59c-0.2-2.72,0.64-7.72-3.2-8.18c-0.47-0.06-0.95-0.02-1.39-0.19c-1.33-0.52-1.32-2.37-1.07-3.78
						c1.45-0.62,3,0.45,4.39,1.19c1.39,0.74,3.6,0.86,4.07-0.64c0.34-1.07-0.5-2.42,0.21-3.29c0.33-0.4,0.91-0.56,1.19-1
						c0.68-1.07-0.97-2.14-1.26-3.37c-0.4-1.69,1.86-2.78,3.6-2.65c1.74,0.13,3.68,0.71,5.08-0.32c0.44-0.33,0.77-0.79,1.19-1.15
						c1.27-1.13,3.12-1.23,4.82-1.27c2.71-0.07-3.46-11.22-3.52-11.9c-0.47-5.17,4.84-7.93,7.87-11.21
						c1.59-1.73,2.75-3.79,3.91-5.84c45.68,18.08,79.46,60.02,87.12,108.58c0.34,2.18,0.75,4.43,0.77,6.6
						c-3.21-0.9-8.19-3.3-11.45-1.35c-4.13,2.48-1.14,8.61-5.91,10.42c-1.18-0.02-0.84-1.96-1.52-2.92
						c-0.38-0.53-1.08-0.71-1.66-1.01c-0.59-0.3-1.15-0.93-0.91-1.54c-1.03-0.81-2.45,0.22-3.41,1.12
						c-1.13,1.05-2.41,2.02-3.92,2.34c-3.14,0.66-6.05-1.59-8.88-3.11c-2.34-1.25-4.89-2.05-7.43-2.85
						c1.23,0.07,1.85-1.62,1.38-2.76c-0.47-1.13-1.54-1.89-2.32-2.83c-1.33-1.62-0.31-3.5-1.42-5.22c-1.38-2.14-4.03-3.63-4.25-6.16
						c-0.28-3.06,3.11-5.02,5.96-6.15c-1.51-3.46-5.6-5.83-5.6-9.61c0-1.45,0.65-2.81,1.28-4.12c1.29-2.67,2.58-5.34,3.87-8
						c0.54-1.11,1.09-2.33,0.76-3.51c-0.37-1.4-1.8-2.21-3.08-2.85c-1.4-0.7-2.8-1.4-4.19-2.11c-0.58-0.28-1.21-0.58-1.84-0.47
						c-0.68,0.12-1.18,0.66-1.6,1.21c-2.28,2.96-3.37,6.8-2.99,10.53c-4.96-0.74-9.83-2.09-14.45-4.02
						c0.51,2.86-0.67,6.03,0.22,8.71"/>
					<path style="fill:#F5F5F5;enable-background:new    ;" d="M167.28,131.69c-1.33,0.96-2.41,2.42-2.49,4.06
						c-0.05,1.01,0.27,2,0.34,3.01c0.07,1.01-0.22,2.17-1.11,2.65c-1.13,0.62-2.5-0.15-3.55-0.9c-0.86-0.61-1.78-1.31-1.99-2.34
						c-0.15-0.75,0.11-1.53,0.05-2.3c-0.13-1.51-1.47-2.58-2.54-3.66s-1.98-2.78-1.14-4.05c0.56-0.83,1.68-1.12,2.28-1.93
						c1.45-1.96-1.18-4.71,0.03-6.49c1.43-2.12,4.97-1.03,6.92,0.04c1.98,1.08,3.42,3.09,4.84,4.79
						C172.92,129.38,171.52,128.64,167.28,131.69z"/>
					<path style="fill:#F5F5F5;enable-background:new    ;" d="M114.49,57.45c23.5-20.39,56.3-30.87,87.09-31.09
						c0.86-0.01,1.71,0,2.56,0c4.06,4.58,6.22,13.26-1.83,14.88c0,0.88,0.5,1.1,0.95,1.8c0.7,1.1-0.47,2.49-1.67,2.99
						c-3.95,1.63-8.75,1.54-8.12,6.89c0.75,6.39,3.77,2.32,7.08,4.63c0.48,0.33,0.76,0.88,1.15,1.32c1.41,1.62,3.88,1.61,6.02,1.46
						c-0.54-1.25,0.3-2.9,1.63-3.2c0.5-0.12,1.07-0.08,1.48-0.38c0.9-0.65,0.22-2.18-0.8-2.6c-1.02-0.42-2.2-0.25-3.26-0.56
						c-1.06-0.31-2.03-1.57-1.39-2.47c0.27-0.38,0.74-0.55,1.19-0.65c1.89-0.43,3.98,0.15,5.38,1.49c0.35-1.02,1.45-1.72,2.52-1.61
						c1.07,0.1,2.01,1.01,2.16,2.07c0.22,1.56-0.85,3.68,0.54,4.41c-1.24-0.32-2.64,0.12-3.47,1.09
						c-3.26,3.84-1.32,13.18-9.91,11.61c-1.38-0.25-2.7-0.84-4.1-0.91c-1.4-0.07-3,0.58-3.38,1.93c-1.8-2.62-6.43-2.06-7.97-4.84
						c-0.72-1.31-0.39-3.11,0.75-4.08c0.19-0.16,0.41-0.31,0.5-0.54c0.19-0.47-0.23-0.95-0.3-1.46c-0.12-0.87,0.83-1.55,0.94-2.42
						c0.16-1.22-1.25-1.99-2.44-2.3c-1.19-0.31-2.64-0.74-2.88-1.95c-0.08-0.41,0.01-0.84-0.08-1.25c-0.17-0.83-1.01-1.38-1.85-1.49
						s-1.68,0.13-2.49,0.37c-0.55,0.47-0.31,1.4,0.19,1.93c0.49,0.53,1.18,0.88,1.58,1.48c0.23,0.34-0.89,7.62-0.34,7.43
						c-2.6,0.9-8.16,1.03-7.04,4.92c0.4,1.37,1.2,2.8,0.69,4.14c1.83-0.52,3.67-1.01,5.51-1.48c0.45,0.59-0.29,1.4-1.01,1.58
						c-0.72,0.18-1.57,0.16-2.06,0.71c-0.34,0.39-0.39,0.95-0.42,1.47c-0.09,1.69-0.19,3.38-0.28,5.08
						c-0.1,1.84-0.35,3.94-1.87,4.97c-1.73,1.18-4.17,0.24-5.63-1.26c-0.35-0.36-0.73-0.78-1.23-0.79c-0.45,0-0.82,0.34-1.16,0.65
						c-1.78,1.59-4.28,2.55-6.61,2c-2.33-0.55-4.25-2.89-3.86-5.25c0.15-0.91,0.54-2.02-0.16-2.61c-0.41-0.35-1.12-0.39-1.3-0.9
						c-0.23-0.64,0.58-1.1,1.13-1.51c0.99-0.73,1.34-2.2,0.79-3.3c-0.28-0.56-5.36-2.65-6.14-2.26c-1.81,0.88-1.49,5.73-1.71,7.6
						c-0.09,0.72-0.22,1.53-0.8,1.96c-0.91,0.68-2.23-0.03-2.93-0.92c-0.71-0.89-1.22-2.02-2.25-2.51
						c-0.59-0.29-1.28-0.31-1.94-0.33c-1.34-0.04-2.84-0.02-3.78,0.93c-0.44,0.44-0.7,1.04-1.14,1.49
						c-1.01,1.01-2.68,0.96-4.03,0.48c-1.34-0.48-2.55-1.31-3.93-1.68c-2.94-0.78-6.29,0.61-8.99-0.79
						c-1.3-0.67-2.24-2.54-1.21-3.58c0.89-0.9,2.83-0.75,3.06-1.99c0.23-1.19-2.7-2.91-3.21-3.96c-0.41-0.83,0.48-2.36-0.46-3.9
						C117.19,59.17,115.32,58.79,114.49,57.45z"/>
					<path style="fill:#F5F5F5;enable-background:new    ;" d="M286.99,258.6c1.67-1.12,3.54-1.76,4.12-4.06
						c0.79-3.13-0.89-4.46-4-3.3c-0.28,0.1-0.58,0.21-0.86,0.12c-0.9-0.29-0.26-1.61,0.32-2.35c1.37-1.73,1.46-4.05,0.75-6.06
						c-0.17-0.48,8.59-0.68,9.55-0.15c3.38,1.85,1.18,9.05,5.09,7.83c0.26-2.74,0.12-5.57,0.13-8.34c1.33-0.05,2.67-0.1,4-0.15
						c-0.99,0.04-0.4-5.07-0.07-5.63c1.31-2.17,5.37-1.25,5.01-5.34c-0.46-5.18-10.5-6.24-9.29-0.29c-3.06,1.17-6.63,1.43-9.9,1.34
						c-0.08,1.05-0.14,2.12-0.2,3.17c-0.76,0.47-1.76,0.55-2.59,0.19c-1.59-2.66-1.34-6.31,0.58-8.74
						c-1.15-1.76,0.25-4.02,1.59-5.63c-3.67-2.69-2.62-9.52,1.7-10.97c4.32-1.45,9.29,3.35,7.99,7.71c2.11,0.24,4.13,1.17,5.68,2.6
						c0.23-5.51,4.38-10.64,9.73-12c2.69-0.69,5.88-0.65,7.71-2.74c0.82-0.92,1.22-2.14,1.98-3.12c1.72-2.18,4.79-2.62,7.56-2.78
						c1.86-0.1,3.71-0.13,5.57-0.1c-7.76,32.26-26.66,60.22-52.44,79.53c-0.98,0.04-1.99,0.02-2.84-0.42
						c-1.57-0.85-2.06-2.83-2.39-4.6c-1.27-6.85-0.56-11.12,5.02-15.38C286.66,258.82,286.83,258.71,286.99,258.6z"/>
				</g>
			</g>
			<path style="fill:#FAFAFA;" d="M368.2,92.14c0-4.48-3.64-8.12-8.12-8.12c-0.81,0-1.59,0.12-2.33,0.34
				c0.12-0.81,0.18-1.65,0.18-2.49c0-9.5-7.7-17.2-17.2-17.2c-1.08,0-2.14,0.1-3.17,0.3c-2.64-4.33-7.39-7.22-12.83-7.22
				c-8.23,0-14.91,6.62-15.03,14.82c-0.08,0-0.17-0.01-0.25-0.01c-7.65,0-13.85,6.2-13.85,13.85c0,7.65,6.2,13.85,13.85,13.85h50.87
				l-0.01-0.01C364.68,100.12,368.2,96.54,368.2,92.14z"/>
			<path style="fill:#FAFAFA;" d="M93.22,118.17c0-3.85-3.12-6.96-6.96-6.96c-0.7,0-1.37,0.1-2,0.29c0.1-0.7,0.16-1.41,0.16-2.14
				c0-8.15-6.6-14.75-14.75-14.75c-0.93,0-1.84,0.09-2.72,0.25c-2.27-3.71-6.34-6.19-11.01-6.19c-7.06,0-12.79,5.67-12.89,12.71
				c-0.07,0-0.14-0.01-0.21-0.01c-6.56,0-11.88,5.32-11.88,11.88c0,6.56,5.32,11.88,11.88,11.88h43.63l-0.01-0.01
				C90.21,125.02,93.22,121.95,93.22,118.17z"/>
			<path style="fill:#FAFAFA;" d="M251.34,181.62c0-4.48-3.64-8.12-8.12-8.12c-0.81,0-1.59,0.12-2.33,0.34
				c0.12-0.81,0.18-1.65,0.18-2.49c0-9.5-7.7-17.2-17.2-17.2c-1.08,0-2.14,0.1-3.17,0.3c-2.64-4.33-7.39-7.22-12.83-7.22
				c-8.23,0-14.91,6.62-15.03,14.82c-0.08,0-0.17-0.01-0.25-0.01c-7.65,0-13.85,6.2-13.85,13.85c0,7.65,6.2,13.85,13.85,13.85h50.87
				l-0.01-0.01C247.82,189.61,251.34,186.03,251.34,181.62z"/>
			<path style="fill:#FAFAFA;" d="M376.71,257.05c0-3.11-2.52-5.63-5.63-5.63c-0.56,0-1.1,0.08-1.62,0.24
				c0.08-0.56,0.13-1.14,0.13-1.73c0-6.58-5.34-11.92-11.92-11.92c-0.75,0-1.48,0.07-2.2,0.21c-1.83-3-5.13-5.01-8.9-5.01
				c-5.71,0-10.34,4.59-10.42,10.27c-0.06,0-0.12-0.01-0.17-0.01c-5.3,0-9.6,4.3-9.6,9.6c0,5.3,4.3,9.6,9.6,9.6h35.27l-0.01-0.01
				C374.27,262.59,376.71,260.11,376.71,257.05z"/>
			<path style="fill:#FAFAFA;" d="M73.27,261.12c0-2.91-2.36-5.27-5.27-5.27c-0.53,0-1.03,0.08-1.51,0.22
				c0.08-0.53,0.12-1.07,0.12-1.62c0-6.16-4.99-11.15-11.15-11.15c-0.7,0-1.39,0.07-2.05,0.19c-1.71-2.81-4.8-4.68-8.32-4.68
				c-5.34,0-9.67,4.29-9.75,9.61c-0.05,0-0.11-0.01-0.16-0.01c-4.96,0-8.98,4.02-8.98,8.98c0,4.96,4.02,8.98,8.98,8.98h32.99
				l-0.01-0.01C70.99,266.29,73.27,263.97,73.27,261.12z"/>
			
				<path style="fill:none;stroke:#E0E0E0;stroke-width:1.9163;stroke-linecap:round;stroke-linejoin:round;stroke-miterlimit:10;" d="
				M33.06,215.33C19.64,179.94,84.3,122.62,177.48,87.29c93.18-35.32,179.59-35.27,193,0.12"/>
			
				<path style="fill:none;stroke:#E0E0E0;stroke-width:1.9163;stroke-linecap:round;stroke-linejoin:round;stroke-miterlimit:10;" d="
				M94.43,11.15C124.85-11.37,197.57,35.3,256.85,115.4c59.28,80.09,82.68,163.28,52.26,185.79"/>
		</g>
		<ellipse id="_x3C_Path_x3E__359_" style="fill:#F5F5F5;" cx="201.45" cy="341.58" rx="193.89" ry="11.32"/>
		<g>
			<g>
				<path style="fill:#263238;" d="M179.26,90.12c0,0,88.45-13.79,135.41-6.96v186.93c0,0-98.32-8.5-130.17,2.22l-5.24-3.63V90.12z"
					/>
				<path style="opacity:0.6;fill:#FFFFFF;" d="M179.26,90.12c0,0,88.45-13.79,135.41-6.96v186.93c0,0-98.32-8.5-130.17,2.22
					l-5.24-3.63V90.12z"/>
				<path style="fill:#263238;" d="M179.26,90.12c0,0-88.45-13.79-135.41-6.96v186.93c0,0,98.32-8.5,130.17,2.22l5.24-3.63V90.12z"
					/>
				<path style="opacity:0.6;fill:#FFFFFF;" d="M179.26,90.12c0,0-88.45-13.79-135.41-6.96v186.93c0,0,98.32-8.5,130.17,2.22
					l5.24-3.63V90.12z"/>
				<path style="fill:#407BFF;" d="M179.26,269.27V90.72c0,0,47.97-26.52,131.35-10.26v185.6
					C310.6,266.06,238.74,254.04,179.26,269.27z"/>
				<path style="opacity:0.8;fill:#FFFFFF;" d="M179.26,269.27V90.72c0,0,47.97-26.52,131.35-10.26v185.6
					C310.6,266.06,238.74,254.04,179.26,269.27z"/>
				<path style="fill:#407BFF;" d="M179.26,269.27V90.72c0,0,47.16-28.76,129.13-16.43v185.6
					C308.39,259.89,237.73,251.25,179.26,269.27z"/>
				<path style="opacity:0.7;fill:#FFFFFF;" d="M179.26,269.27V90.72c0,0,47.16-28.76,129.13-16.43v185.6
					C308.39,259.89,237.73,251.25,179.26,269.27z"/>
				<path style="fill:#407BFF;" d="M179.26,269.2V90.64c0,0,46.84-30.29,126.8-20.63v185.6C306.05,255.62,236.3,249.27,179.26,269.2
					z"/>
				<path style="opacity:0.8;fill:#FFFFFF;" d="M179.26,269.2V90.64c0,0,46.84-30.29,126.8-20.63v185.6
					C306.05,255.62,236.3,249.27,179.26,269.2z"/>
				<path style="fill:#407BFF;" d="M179.26,268.67V90.12c0,0,45.57-31.24,124.2-23.23v185.6
					C303.45,252.49,235.35,247.56,179.26,268.67z"/>
				<path style="opacity:0.7;fill:#FFFFFF;" d="M179.26,268.67V90.12c0,0,45.57-31.24,124.2-23.23v185.6
					C303.45,252.49,235.35,247.56,179.26,268.67z"/>
				<path style="fill:#407BFF;" d="M179.26,269.27V90.72c0,0-47.97-26.52-131.35-10.26v185.6
					C47.91,266.06,119.78,254.04,179.26,269.27z"/>
				<path style="opacity:0.7;fill:#FFFFFF;" d="M179.26,269.27V90.72c0,0-47.97-26.52-131.35-10.26v185.6
					C47.91,266.06,119.78,254.04,179.26,269.27z"/>
				<path style="fill:#407BFF;" d="M179.26,269.27V90.72c0,0-47.16-28.76-129.13-16.43v185.6
					C50.13,259.89,120.78,251.25,179.26,269.27z"/>
				<path style="opacity:0.8;fill:#FFFFFF;" d="M179.26,269.27V90.72c0,0-47.16-28.76-129.13-16.43v185.6
					C50.13,259.89,120.78,251.25,179.26,269.27z"/>
				<path style="fill:#407BFF;" d="M179.26,269.2V90.64c0,0-46.84-30.29-126.8-20.63v185.6C52.46,255.62,122.22,249.27,179.26,269.2
					z"/>
				<path style="opacity:0.7;fill:#FFFFFF;" d="M179.26,269.2V90.64c0,0-46.84-30.29-126.8-20.63v185.6
					C52.46,255.62,122.22,249.27,179.26,269.2z"/>
				<path style="fill:#407BFF;" d="M179.26,268.67V90.12c0,0-45.57-31.24-124.2-23.23v185.6
					C55.06,252.49,123.17,247.56,179.26,268.67z"/>
				<path style="opacity:0.8;fill:#FFFFFF;" d="M179.26,268.67V90.12c0,0-45.57-31.24-124.2-23.23v185.6
					C55.06,252.49,123.17,247.56,179.26,268.67z"/>
			</g>
			<g>
				<path style="fill:#F58840;" d="M141.72,224.72l11.57,11.57l11.57-11.57c6.4-6.4,6.4-16.76,0-23.16
					c-3.2-3.19-7.39-4.79-11.57-4.79c-4.19,0-8.37,1.61-11.57,4.79C135.31,207.96,135.31,218.32,141.72,224.72z M147.93,207.79
					c1.48-1.48,3.42-2.23,5.36-2.23c1.94,0,3.87,0.75,5.36,2.23c2.95,2.95,2.95,7.75,0,10.7c-1.48,1.47-3.42,2.22-5.36,2.22
					c-1.94,0-3.87-0.75-5.36-2.22C144.98,215.54,144.98,210.74,147.93,207.79z"/>
				<path style="fill:#F59758;" d="M158.65,207.79c2.95,2.95,2.95,7.75,0,10.7c-1.48,1.47-3.42,2.22-5.36,2.22v15.59l11.57-11.57
					c6.4-6.4,6.4-16.76,0-23.16c-3.2-3.19-7.39-4.79-11.57-4.79v8.79C155.23,205.56,157.16,206.31,158.65,207.79z"/>
			</g>
			<g>
				<path style="fill:#F58840;" d="M71.57,111.51l12.23,12.23l12.23-12.23c6.77-6.77,6.77-17.71,0-24.47
					c-3.38-3.37-7.81-5.07-12.23-5.07c-4.42,0-8.84,1.7-12.23,5.07C64.8,93.81,64.8,104.75,71.57,111.51z M78.14,93.62
					c1.57-1.57,3.61-2.36,5.66-2.36c2.05,0,4.09,0.79,5.66,2.36c3.12,3.12,3.12,8.18,0,11.3c-1.57,1.55-3.61,2.34-5.66,2.34
					c-2.05,0-4.09-0.79-5.66-2.34C75.02,101.81,75.02,96.74,78.14,93.62z"/>
				<path style="opacity:0.3;fill:#FFFFFF;" d="M89.46,93.62c3.12,3.12,3.12,8.18,0,11.3c-1.57,1.55-3.61,2.34-5.66,2.34v16.47
					l12.23-12.23c6.77-6.77,6.77-17.71,0-24.47c-3.38-3.37-7.81-5.07-12.23-5.07v9.29C85.84,91.26,87.89,92.06,89.46,93.62z"/>
			</g>
			
				<path style="opacity:0.4;fill:none;stroke:#000000;stroke-width:0.9724;stroke-linecap:round;stroke-linejoin:round;stroke-miterlimit:10;stroke-dasharray:1.9448,4.862;" d="
				M149.72,238.33c-18.94,4.39-40.19,6.67-57.69-3.79c-8.54-5.11-15.18-13.13-19.28-22.2c-3.55-7.85-5.27-16.66-4.02-25.18
				c3.26-22.08,24.25-31.2,43.73-21.88c6.16,2.95,12.17,6.5,18.88,7.72c10.02,1.83,20.85-1.93,27.1-10.05
				c5.12-6.65,7.19-15.37,6.54-23.73c-1.01-13.01-7.34-26.57-20.32-31.13c-7.28-2.56-16.72-1.17-21.18,5.6
				c-4.49,6.81-3.52,15.98-9.06,22.26c-2.87,3.26-6.9,5.39-11.13,6.33c-10.47,2.33-24.12-2.71-21.28-15.53"/>
			<g style="opacity:0.2;">
				
					<path style="fill:none;stroke:#000000;stroke-width:0.9724;stroke-linecap:round;stroke-linejoin:round;stroke-miterlimit:10;" d="
					M287.07,89.36c0,0-49.49-2.7-95.74,17.29"/>
				
					<path style="fill:none;stroke:#000000;stroke-width:0.9724;stroke-linecap:round;stroke-linejoin:round;stroke-miterlimit:10;" d="
					M287.07,109.74c0,0-49.2-3.03-95.74,16.18"/>
				
					<path style="fill:none;stroke:#000000;stroke-width:0.9724;stroke-linecap:round;stroke-linejoin:round;stroke-miterlimit:10;" d="
					M287.07,130.11c0,0-48.91-3.35-95.74,15.07"/>
				
					<path style="fill:none;stroke:#000000;stroke-width:0.9724;stroke-linecap:round;stroke-linejoin:round;stroke-miterlimit:10;" d="
					M287.07,150.49c0,0-48.62-3.68-95.74,13.95"/>
				
					<path style="fill:none;stroke:#000000;stroke-width:0.9724;stroke-linecap:round;stroke-linejoin:round;stroke-miterlimit:10;" d="
					M287.07,170.87c0,0-48.34-4-95.74,12.84"/>
				
					<path style="fill:none;stroke:#000000;stroke-width:0.9724;stroke-linecap:round;stroke-linejoin:round;stroke-miterlimit:10;" d="
					M287.07,191.24c0,0-48.05-4.32-95.74,11.73"/>
				
					<path style="fill:none;stroke:#000000;stroke-width:0.9724;stroke-linecap:round;stroke-linejoin:round;stroke-miterlimit:10;" d="
					M287.07,211.62c0,0-47.76-4.65-95.74,10.62"/>
				
					<path style="fill:none;stroke:#000000;stroke-width:0.9724;stroke-linecap:round;stroke-linejoin:round;stroke-miterlimit:10;" d="
					M287.07,232c0,0-47.47-4.97-95.74,9.51"/>
			</g>
			<path style="fill:#FFFFFF;" d="M261.74,143.97c0-2.66,2.16-4.82,4.82-4.82c0.48,0,0.95,0.07,1.38,0.2
				c-0.07-0.48-0.11-0.98-0.11-1.48c0-5.64,4.57-10.21,10.21-10.21c0.64,0,1.27,0.06,1.88,0.18c1.57-2.57,4.39-4.29,7.62-4.29
				c4.89,0,8.86,3.93,8.93,8.8c0.05,0,0.1-0.01,0.15-0.01c4.54,0,8.23,3.68,8.23,8.23c0,4.54-3.68,8.23-8.23,8.23h-30.21l0.01-0.01
				C263.83,148.72,261.74,146.59,261.74,143.97z"/>
			<path style="fill:#FFFFFF;" d="M171.55,131.35c0-2.66,2.16-4.82,4.82-4.82c0.48,0,0.95,0.07,1.38,0.2
				c-0.07-0.48-0.11-0.98-0.11-1.48c0-5.64,4.57-10.21,10.21-10.21c0.64,0,1.27,0.06,1.88,0.18c1.57-2.57,4.39-4.29,7.62-4.29
				c4.89,0,8.86,3.93,8.93,8.8c0.05,0,0.1-0.01,0.15-0.01c4.54,0,8.23,3.68,8.23,8.23c0,4.54-3.68,8.23-8.23,8.23h-30.21l0.01-0.01
				C173.63,136.09,171.55,133.97,171.55,131.35z"/>
			<path style="fill:#FFFFFF;" d="M198.8,202.22c0-2.66,2.16-4.82,4.82-4.82c0.48,0,0.95,0.07,1.38,0.2
				c-0.07-0.48-0.11-0.98-0.11-1.48c0-5.64,4.57-10.21,10.21-10.21c0.64,0,1.27,0.06,1.88,0.18c1.57-2.57,4.39-4.29,7.62-4.29
				c4.89,0,8.86,3.93,8.93,8.8c0.05,0,0.1-0.01,0.15-0.01c4.54,0,8.23,3.68,8.23,8.23c0,4.54-3.68,8.23-8.23,8.23h-30.21l0.01-0.01
				C200.89,206.97,198.8,204.84,198.8,202.22z"/>
			<path d="M184.5,272.31c0,0-3.71,1.81-10.49,0c0,0,1.13-3.63,5.24-3.63C183.37,268.67,184.5,272.31,184.5,272.31z"/>
			<path style="opacity:0.5;fill:#FFFFFF;" d="M184.5,272.31c0,0-3.71,1.81-10.49,0c0,0,1.13-3.63,5.24-3.63
				C183.37,268.67,184.5,272.31,184.5,272.31z"/>
		</g>
		<g>
			<path style="fill:#407BFF;" d="M84.16,319.37c0,0-4.75-10.36,0.68-20.58c5.43-10.22,7-12.62,3.54-14.72s-5.05,8.17-5.05,8.17
				s-2.92-7.06-0.51-14.45c2.41-7.39,3.92-19.43,0.63-20.72c-3.29-1.29-0.63,15.02-3.48,20.58c0,0-2.4-6.19-2.79-12.13
				c-0.39-5.94,0.22-15.42-2.38-17.85s-4.26-0.75-1.71,12.35c2.55,13.1,2.53,23.75,2.53,23.75s-5.64-17.19-9.42-17.69
				c-3.78-0.5-3.78,5.06-0.54,9.89c3.24,4.83,9.48,13.48,10.51,17.93c0,0-6.19-12.93-11.75-8.97c-5.57,3.96,4.84,11.78,9.48,14.6
				c4.64,2.82,7.86,20.52,7.86,20.52L84.16,319.37z"/>
			<path style="fill:#F58840;" d="M84.16,319.37c0,0-4.75-10.36,0.68-20.58c5.43-10.22,7-12.62,3.54-14.72s-5.05,8.17-5.05,8.17
				s-2.92-7.06-0.51-14.45c2.41-7.39,3.92-19.43,0.63-20.72c-3.29-1.29-0.63,15.02-3.48,20.58c0,0-2.4-6.19-2.79-12.13
				c-0.39-5.94,0.22-15.42-2.38-17.85s-4.26-0.75-1.71,12.35c2.55,13.1,2.53,23.75,2.53,23.75s-5.64-17.19-9.42-17.69
				c-3.78-0.5-3.78,5.06-0.54,9.89c3.24,4.83,9.48,13.48,10.51,17.93c0,0-6.19-12.93-11.75-8.97c-5.57,3.96,4.84,11.78,9.48,14.6
				c4.64,2.82,7.86,20.52,7.86,20.52L84.16,319.37z"/>
			<path style="fill:#F59758;" d="M80.41,323.62c0,0,4.63-10.43-0.92-20.57c-5.55-10.14-7.15-12.52-3.72-14.66
				c3.43-2.14,5.14,8.1,5.14,8.1s2.83-7.11,0.33-14.46c-2.5-7.36-4.15-19.37-0.88-20.71c3.27-1.34,0.81,15.01,3.73,20.52
				c0,0,2.32-6.22,2.65-12.17c0.32-5.94-0.41-15.41,2.16-17.88c2.57-2.47,4.25-0.81,1.86,12.33c-2.39,13.14-2.25,23.79-2.25,23.79
				s5.43-17.27,9.21-17.83c3.78-0.56,3.84,5.01,0.66,9.88c-3.18,4.88-9.32,13.62-10.29,18.08c0,0,6.03-13.02,11.64-9.14
				c5.61,3.88-4.7,11.85-9.31,14.74c-4.61,2.89-7.61,20.63-7.61,20.63L80.41,323.62z"/>
			<g>
				<polygon style="fill:#263238;" points="101.75,316.19 63.54,316.19 66.63,343.53 98.66,343.53 				"/>
			</g>
		</g>
		<g>
			<g>
				<path style="fill:#F58840;" d="M236.84,113.48l0.5,0.31l0.83,0.51l18.53-1.71h0.01l-6.54-5.23L237,112.01
					C236.35,112.24,236.26,113.12,236.84,113.48z"/>
				<path style="opacity:0.2;" d="M237.34,113.79l0.83,0.51l18.53-1.71l-5.71-4.56l-13.17,4.65
					C237.33,112.86,237.16,113.38,237.34,113.79z"/>
				<path style="fill:#F58840;" d="M252.95,104.9l10.92,7.11l0.1-0.24l6.04-14.98l-2.89-1.42c-0.03-0.02-0.06-0.03-0.1-0.04
					c-1.33-0.6-2.9-0.37-4,0.61L252.95,104.9z"/>
				<path style="fill:#F58840;" d="M253.83,105.17l10.14,6.6l6.04-14.98l-2.89-1.42c-0.03-0.02-0.06-0.03-0.1-0.04
					c-1.1-0.2-2.26,0.11-3.13,0.88L253.83,105.17z"/>
			</g>
			<g>
				<path style="fill:#F58840;" d="M127.95,83.38c0.03,0.03,0.05,0.05,0.08,0.07l4.49,3.63h63.24l-7.98-8.01l-6.5-6.52l-6.19,0.87
					L129,79.95C127.32,80.19,126.71,82.27,127.95,83.38z"/>
				<path style="opacity:0.9;fill:#FFFFFF;" d="M153.45,87.07h42.31l-7.98-8.01l-6.5-6.52l-6.19,0.87c-2.77,1.03-5.08,2.1-6.23,2.7
					C167.02,77.1,158.3,83.49,153.45,87.07z"/>
				<path style="opacity:0.2;" d="M127.95,83.38c0.03,0.03,0.05,0.05,0.08,0.07l4.49,3.63h62.6l-13.2-13.24l-52.29,7.4
					C128.5,81.39,127.86,82.4,127.95,83.38z"/>
				<g>
					<path style="fill:#407BFF;" d="M159.22,80.77c-0.5-0.61-0.79-1.46-0.78-2.44c0.03-2.16,1.52-4.16,3.33-4.46
						c0.79-0.13,1.51,0.09,2.07,0.55c3.42,2.22,15,10.44,16.84,14.73c1.15,2.69-2.92,1.25-5.74,0.68
						c-2.76-0.56-10.74-5.27-15.07-8.48c-0.1-0.06-0.19-0.13-0.28-0.2c0,0,0,0,0,0C159.44,81.04,159.32,80.91,159.22,80.77z"/>
					<path style="opacity:0.9;fill:#FFFFFF;" d="M158.44,78.33c-0.01,0.99,0.28,1.84,0.78,2.45c0.1,0.13,0.22,0.26,0.37,0.37
						c0.09,0.08,0.19,0.14,0.28,0.21c0.59,0.44,1.25,0.9,1.95,1.38c4.46,3.03,10.73,6.62,13.12,7.1c2.82,0.57,6.89,2.02,5.74-0.68
						c-1.5-3.49-9.45-9.6-14.2-12.94c-1.08-0.76-2-1.39-2.64-1.8c-0.56-0.46-1.28-0.67-2.07-0.55
						C159.96,74.17,158.47,76.17,158.44,78.33z"/>
					<path style="fill:#F58840;" d="M158.44,78.33c-0.01,0.99,0.28,1.84,0.78,2.45c0.1,0.13,0.22,0.26,0.37,0.37
						c0.09,0.08,0.19,0.14,0.28,0.21c0.59,0.44,1.25,0.9,1.95,1.38c0.91-0.01,1.75-0.19,2.43-0.59c2.38-1.4,2.68-3.97,2.23-5.93
						c-1.08-0.76-2-1.39-2.64-1.8c-0.56-0.46-1.28-0.67-2.07-0.55C159.96,74.17,158.47,76.17,158.44,78.33z"/>
					<path style="opacity:0.2;" d="M158.68,77.65c-0.02,1.62,1.06,2.75,2.42,2.53c1.35-0.22,2.47-1.71,2.49-3.33
						c0.02-1.62-1.06-2.75-2.42-2.53C159.81,74.54,158.7,76.03,158.68,77.65z"/>
					<path style="fill:#F59758;" d="M161.84,76.41c-0.25-0.34-1.79-0.41-1.82,0.01c-0.08,1.2,0.65,2.03,1.24,1.93
						C161.35,78.33,162.72,77.59,161.84,76.41z"/>
					<path style="opacity:0.2;" d="M179.77,90.73c1.79,0.35-16.1-11.79-16.1-11.79s-1.14,2.47-3.66,1.64
						C160.02,80.59,168.86,88.59,179.77,90.73z"/>
				</g>
				<g>
					<path style="fill:#407BFF;" d="M142.47,82.37c-0.37-0.45-0.59-1.07-0.58-1.8c0.02-1.6,1.12-3.07,2.46-3.29
						c0.58-0.1,1.11,0.06,1.53,0.41c2.53,1.64,11.07,7.7,12.42,10.87c0.85,1.99-2.16,0.92-4.24,0.5c-2.04-0.41-7.93-3.89-11.12-6.26
						c-0.07-0.05-0.14-0.1-0.21-0.15c0,0,0,0,0,0C142.63,82.56,142.54,82.47,142.47,82.37z"/>
					<path style="opacity:0.9;fill:#FFFFFF;" d="M141.9,80.57c-0.01,0.73,0.21,1.35,0.57,1.8c0.08,0.1,0.16,0.19,0.27,0.27
						c0.07,0.06,0.14,0.1,0.21,0.15c0.44,0.32,0.92,0.66,1.43,1.02c3.29,2.24,7.92,4.88,9.68,5.24c2.08,0.42,5.09,1.49,4.23-0.5
						c-1.1-2.58-6.97-7.08-10.48-9.54c-0.8-0.56-1.48-1.02-1.95-1.33c-0.41-0.34-0.94-0.5-1.53-0.4
						C143.01,77.5,141.92,78.97,141.9,80.57z"/>
					<path style="fill:#F58840;" d="M141.9,80.57c-0.01,0.73,0.21,1.35,0.57,1.8c0.08,0.1,0.16,0.19,0.27,0.27
						c0.07,0.06,0.14,0.1,0.21,0.15c0.44,0.32,0.92,0.66,1.43,1.02c0.67,0,1.29-0.14,1.8-0.44c1.76-1.03,1.98-2.93,1.64-4.37
						c-0.8-0.56-1.48-1.02-1.95-1.33c-0.41-0.34-0.94-0.5-1.53-0.4C143.01,77.5,141.92,78.97,141.9,80.57z"/>
					<path style="fill:#F58840;" d="M142.07,80.07c-0.01,1.19,0.78,2.03,1.78,1.87c1-0.16,1.82-1.26,1.84-2.46
						c0.01-1.19-0.78-2.03-1.78-1.87C142.91,77.77,142.08,78.87,142.07,80.07z"/>
					<path style="fill:#F59758;" d="M144.4,79.15c-0.18-0.25-1.32-0.3-1.34,0.01c-0.06,0.89,0.48,1.5,0.91,1.42
						C144.04,80.57,145.05,80.02,144.4,79.15z"/>
					<path style="opacity:0.2;" d="M157.23,89.5c1.28,0.25-11.57-8.47-11.57-8.47s-0.82,1.77-2.63,1.18
						C143.03,82.21,149.39,87.96,157.23,89.5z"/>
				</g>
			</g>
			<g>
				<path style="fill:#407BFF;" d="M147.22,53.28c0.2,0.72,0.57,1.58,1.22,2.52c0.92,1.35,2.41,2.89,4.81,4.47
					c0.36,0.24,0.73,0.48,1.09,0.72h0.01c1.98,1.3,3.9,2.5,5.06,3.22l50.52,32.06c8.71,5.53,18.24,9.66,28.24,12.22l3.26,0.84
					l17.22,4.42c1.27,0.33,2.62,0.08,3.69-0.68l0,0l2.52-1.78l-13.62-9.63c-2.63-1.86-5.32-3.62-8.07-5.28L175.45,55.4
					c-10.1-5.67-12.9-5.45-18.67-4.48c-3.03-0.64-5.84-0.56-7.65-0.39c-0.79,0.08-1.44,0.56-1.77,1.21
					C147.14,52.2,147.06,52.74,147.22,53.28z"/>
				<path style="opacity:0.9;fill:#FFFFFF;" d="M147.22,53.28c0.2,0.72,0.57,1.58,1.22,2.52c0.92,1.35,2.41,2.89,4.81,4.47
					c0.36,0.24,0.73,0.48,1.09,0.72h0.01c0.04,0.03,0.07,0.05,0.11,0.08c0.01,0,0.01,0,0.01,0c1.95,1.26,3.81,2.43,4.95,3.14
					l15.13,9.6l35.39,22.46c0.29,0.19,0.58,0.37,0.87,0.55c8.47,5.26,17.7,9.2,27.37,11.68l3.26,0.84l17.22,4.42
					c1.27,0.33,2.62,0.08,3.69-0.68l2.52-1.78l-13.62-9.63c-2.63-1.86-5.32-3.62-8.07-5.28l-7.95-4.81l-36.1-21.85L175.45,55.4
					c-10.1-5.67-12.9-5.45-18.67-4.48c-0.22-0.04-0.44-0.09-0.65-0.13c-2.78-0.49-5.32-0.42-7-0.26c-0.79,0.08-1.44,0.56-1.77,1.21
					C147.14,52.2,147.06,52.74,147.22,53.28z"/>
				<path style="fill:#F58840;" d="M147.22,53.28c0.2,0.72,0.57,1.58,1.22,2.52c0.92,1.35,2.41,2.89,4.81,4.47
					c0.36,0.24,0.73,0.48,1.09,0.72h0.01c0.04,0.03,0.07,0.05,0.11,0.08c0.01,0,0.01,0,0.01,0c2.12-0.73,3.79-2.48,3.98-5.25
					c0.15-2.23-0.99-3.89-2.32-5.03c-2.78-0.49-5.32-0.42-7-0.26c-0.79,0.08-1.44,0.56-1.77,1.21
					C147.14,52.2,147.06,52.74,147.22,53.28z"/>
				<g>
					<g>
						<path style="fill:none;stroke:#263238;stroke-width:1.9259;stroke-linecap:round;stroke-linejoin:round;" d="M245.84,100.56
							c-0.18-0.11-0.36-0.22-0.55-0.33"/>
						
							<path style="fill:none;stroke:#263238;stroke-width:1.9259;stroke-linecap:round;stroke-linejoin:round;stroke-dasharray:1.2666,3.1665;" d="
							M242.58,98.59c-19.87-12.03-52.45-31.76-66.91-40.51"/>
						<path style="fill:none;stroke:#263238;stroke-width:1.9259;stroke-linecap:round;stroke-linejoin:round;" d="M174.32,57.25
							c-0.19-0.11-0.37-0.22-0.55-0.33"/>
					</g>
				</g>
				<g>
					<path style="fill:#263238;" d="M168.85,55.07l0.02-2.24c-2.06-1.03-5.05-2.82-9.63-2.27l-2.46,0.36
						c3.88-0.32,7.76,1.54,11.09,3.56L168.85,55.07z"/>
				</g>
				<path style="opacity:0.2;" d="M147.22,53.28c0.2,0.72,0.57,1.58,1.22,2.52c1.41,1.05,3.19,2.25,5.25,3.55
					c6.43,4.06,52.65,33.07,58.75,37.44c4.44,3.17,13.96,7.97,29,12.54c5.12,1.55,10.88,3.08,17.3,4.51
					c1.23,0.27,2.51,0.01,3.54-0.72l0.08-0.05c0,0-20.29-6.82-24.86-9.37c-4.57-2.54-70.27-43.13-76.95-46.79
					c-5.28-2.89-10.3-4.76-13.17-5.18C147.14,52.2,147.06,52.74,147.22,53.28z"/>
			</g>
			<g>
				<path style="fill:#F58840;" d="M193.52,74.2l0.3,0.19l3.44,2.21l14.95,9.58c0.9,0.58,1.95,0.89,3.01,0.89h70.71l-2.63-2.88
					c-2.24-2.45-5.31-3.97-8.62-4.28l-61.33-5.6l-19.27-1.76C193.15,72.46,192.73,73.7,193.52,74.2z"/>
				<path style="opacity:0.9;fill:#FFFFFF;" d="M193.52,74.2l0.3,0.19l3.44,2.21l14.95,9.58c0.9,0.58,1.95,0.89,3.01,0.89h48.59
					c-16.6-3.14-42.44-8.5-50.45-12.76l-19.27-1.76C193.15,72.46,192.73,73.7,193.52,74.2z"/>
				<path style="opacity:0.2;" d="M193.82,74.4l18.39,11.79c0.9,0.58,1.95,0.89,3.01,0.89h70.18l-1.46-1.6
					c-2.24-2.45-5.31-3.97-8.62-4.28l-80.6-7.36C194.28,73.8,193.95,74.06,193.82,74.4z"/>
				<g>
					<path style="fill:#407BFF;" d="M217.04,80.77c-0.5-0.61-0.79-1.46-0.78-2.44c0.03-2.16,1.52-4.16,3.33-4.46
						c0.79-0.13,1.51,0.09,2.07,0.55c3.42,2.22,15,10.44,16.84,14.73c1.15,2.69-2.92,1.25-5.74,0.68
						c-2.76-0.56-10.74-5.27-15.07-8.48c-0.1-0.06-0.19-0.13-0.28-0.2c0,0,0,0,0,0C217.26,81.03,217.14,80.91,217.04,80.77z"/>
					<path style="opacity:0.9;fill:#FFFFFF;" d="M216.26,78.33c-0.01,0.99,0.28,1.84,0.78,2.45c0.1,0.13,0.22,0.26,0.37,0.37
						c0.09,0.08,0.19,0.14,0.28,0.21c0.59,0.44,1.25,0.9,1.95,1.38c4.46,3.03,10.73,6.62,13.12,7.1c2.82,0.57,6.89,2.02,5.74-0.68
						c-1.5-3.49-9.45-9.6-14.2-12.94c-1.08-0.76-2-1.39-2.64-1.8c-0.56-0.46-1.28-0.67-2.07-0.55
						C217.77,74.17,216.28,76.16,216.26,78.33z"/>
					<path style="fill:#F58840;" d="M216.26,78.33c-0.01,0.99,0.28,1.84,0.78,2.45c0.1,0.13,0.22,0.26,0.37,0.37
						c0.09,0.08,0.19,0.14,0.28,0.21c0.59,0.44,1.25,0.9,1.95,1.38c0.91-0.01,1.75-0.19,2.43-0.59c2.38-1.4,2.68-3.97,2.23-5.93
						c-1.08-0.76-2-1.39-2.64-1.8c-0.56-0.46-1.28-0.67-2.07-0.55C217.77,74.17,216.28,76.16,216.26,78.33z"/>
					
						<ellipse transform="matrix(0.3296 -0.9441 0.9441 0.3296 73.8437 258.4955)" style="fill:#F58840;" cx="218.95" cy="77.25" rx="3.02" ry="2.38"/>
					<path style="fill:#F59758;" d="M219.66,76.4c-0.25-0.34-1.79-0.41-1.82,0.01c-0.08,1.2,0.65,2.03,1.24,1.93
						C219.17,78.33,220.54,77.59,219.66,76.4z"/>
					<path style="opacity:0.2;" d="M237.59,90.73c1.79,0.35-16.1-11.79-16.1-11.79s-1.14,2.47-3.66,1.64
						C217.83,80.58,226.68,88.59,237.59,90.73z"/>
				</g>
				<g>
					<path style="fill:#407BFF;" d="M245.25,82.37c-0.37-0.45-0.59-1.07-0.58-1.8c0.02-1.6,1.12-3.07,2.46-3.29
						c0.58-0.1,1.11,0.06,1.53,0.41c2.53,1.64,11.07,7.7,12.42,10.87c0.85,1.99-2.16,0.92-4.24,0.5c-2.04-0.41-7.93-3.89-11.12-6.26
						c-0.07-0.05-0.14-0.1-0.21-0.15c0,0,0,0,0,0C245.41,82.56,245.32,82.47,245.25,82.37z"/>
					<path style="opacity:0.9;fill:#FFFFFF;" d="M244.68,80.57c-0.01,0.73,0.21,1.35,0.57,1.8c0.08,0.1,0.16,0.19,0.27,0.27
						c0.07,0.06,0.14,0.1,0.21,0.15c0.44,0.32,0.92,0.66,1.44,1.02c3.29,2.24,7.92,4.88,9.68,5.24c2.08,0.42,5.09,1.49,4.23-0.5
						c-1.1-2.58-6.97-7.08-10.48-9.54c-0.8-0.56-1.48-1.02-1.95-1.33c-0.41-0.34-0.94-0.5-1.53-0.4
						C245.79,77.5,244.7,78.97,244.68,80.57z"/>
					<path style="fill:#F58840;" d="M244.68,80.57c-0.01,0.73,0.21,1.35,0.57,1.8c0.08,0.1,0.16,0.19,0.27,0.27
						c0.07,0.06,0.14,0.1,0.21,0.15c0.44,0.32,0.92,0.66,1.44,1.02c0.67,0,1.29-0.14,1.8-0.44c1.76-1.03,1.97-2.93,1.64-4.37
						c-0.8-0.56-1.48-1.02-1.95-1.33c-0.41-0.34-0.94-0.5-1.53-0.4C245.79,77.5,244.7,78.97,244.68,80.57z"/>
					<path style="fill:#F58840;" d="M244.85,80.07c-0.01,1.19,0.78,2.03,1.78,1.87c1-0.16,1.82-1.26,1.84-2.46
						c0.01-1.19-0.78-2.03-1.78-1.87C245.69,77.77,244.86,78.87,244.85,80.07z"/>
					<path style="fill:#F59758;" d="M247.18,79.15c-0.18-0.25-1.32-0.3-1.34,0.01c-0.06,0.89,0.48,1.5,0.91,1.42
						C246.82,80.57,247.83,80.02,247.18,79.15z"/>
					<path style="opacity:0.2;" d="M260.01,89.5c1.28,0.25-11.57-8.47-11.57-8.47s-0.82,1.77-2.63,1.18
						C245.81,82.21,252.16,87.96,260.01,89.5z"/>
				</g>
			</g>
			<g>
				<path style="fill:#F58840;" d="M284.32,114.37l-23.09-1.68l-11.06-5.34l29.2,3.55c1.02,0.12,1.97,0.58,2.71,1.29L284.32,114.37z
					"/>
				<path style="fill:#F58840;" d="M253.24,108.82c0.03,0.03,0.07,0.06,0.12,0.08l7.87,3.8l22.07,1.6l1.02,0.08l-2.25-2.18
					c-0.74-0.71-1.69-1.16-2.7-1.29l-25.68-3.12C253.07,107.71,252.8,108.49,253.24,108.82z"/>
				<path style="opacity:0.2;" d="M253.24,108.82c0.03,0.03,0.07,0.06,0.12,0.08l7.87,3.8l22.07,1.6l-1.23-1.18
					c-0.74-0.71-1.69-1.17-2.7-1.29l-25.68-3.13C253.51,108.68,253.35,108.73,253.24,108.82z"/>
			</g>
		</g>
		<g>
			
				<rect x="285.84" y="196.55" transform="matrix(-1 -4.487223e-11 4.487223e-11 -1 583.9294 448.2853)" style="fill:none;stroke:#263238;stroke-width:2.9172;stroke-miterlimit:10;" width="12.24" height="55.19"/>
			<g>
				<path style="fill:#263238;" d="M295.57,335.75c0.34,0,1.61,0,1.95,0c2.19,0,3.96,1.7,3.96,3.89c0,2.19-1.77,3.89-3.96,3.89
					c-0.34,0-1.61,0-1.95,0c-2.19,0-3.96-1.7-3.96-3.89C291.61,337.45,293.38,335.75,295.57,335.75z"/>
				<path style="opacity:0.1;fill:#FFFFFF;enable-background:new    ;" d="M291.61,339.57c0,2.19,1.77,3.96,3.96,3.96
					c2.19,0,3.96-1.77,3.96-3.96c0-2.19-1.77-3.96-3.96-3.96C293.38,335.61,291.61,337.38,291.61,339.57z"/>
			</g>
			<g>
				<path style="fill:#263238;" d="M284.87,335.75c0.34,0,1.61,0,1.95,0c2.19,0,3.96,1.7,3.96,3.89c0,2.19-1.77,3.89-3.96,3.89
					c-0.34,0-1.61,0-1.95,0c-2.19,0-3.96-1.7-3.96-3.89C280.91,337.45,282.68,335.75,284.87,335.75z"/>
				<path style="opacity:0.2;fill:#FFFFFF;enable-background:new    ;" d="M280.91,339.57c0,2.19,1.77,3.96,3.96,3.96
					c2.19,0,3.96-1.77,3.96-3.96c0-2.19-1.77-3.96-3.96-3.96C282.68,335.61,280.91,337.38,280.91,339.57z"/>
			</g>
			<path style="fill:#F59758;" d="M249.22,253.93v68.8c0,6.85,5.55,13.03,12.4,13.03h34.28v-94.32h-34.28
				c-4.76,0-8.89,2.73-10.97,6.66C249.74,249.82,249.22,251.83,249.22,253.93z"/>
			<path style="fill:#263238;" d="M283.18,337.06h15.18c1.45,0,2.62-1.17,2.62-2.62v-92.15c0-1.45-1.17-2.62-2.62-2.62h-15.18
				c-1.45,0-2.62,1.17-2.62,2.62v92.15C280.56,335.88,281.73,337.06,283.18,337.06z"/>
			<path style="opacity:0.2;fill:#FFFFFF;enable-background:new    ;" d="M290.74,337.06h7.62c1.45,0,2.62-1.17,2.62-2.62v-92.15
				c0-1.45-1.17-2.62-2.62-2.62h-7.62c-1.45,0-2.62,1.17-2.62,2.62v92.15C288.12,335.88,289.29,337.06,290.74,337.06z"/>
			<path style="fill:#F58840;" d="M249.22,253.93v68.8c0,6.85,5.55,13.03,12.4,13.03h13.77c0.53-0.97,1.06-2.72,1.06-3.9v-76.81
				c0-3.81-3.34-6.81-7.15-6.81h-18.65C249.74,250.18,249.22,251.83,249.22,253.93z"/>
			<path style="opacity:0.2;enable-background:new    ;" d="M292.58,334.59h5.13c1,0,1.82-0.81,1.82-1.82v-88.7
				c0-1-0.81-1.82-1.82-1.82h-5.13c-1,0-1.82,0.81-1.82,1.82v88.7C290.77,333.77,291.58,334.59,292.58,334.59z"/>
			<path style="fill:#263238;" d="M285.69,198.37h12.76c1.07,0,1.94-0.87,1.94-1.94v-1.22c0-1.07-0.87-1.94-1.94-1.94h-12.76
				c-1.07,0-1.94,0.87-1.94,1.94v1.22C283.74,197.5,284.61,198.37,285.69,198.37z"/>
			<path style="opacity:0.2;fill:#FFFFFF;enable-background:new    ;" d="M285.69,198.37h12.76c1.07,0,1.94-0.87,1.94-1.94v-1.22
				c0-1.07-0.87-1.94-1.94-1.94h-12.76c-1.07,0-1.94,0.87-1.94,1.94v1.22C283.74,197.5,284.61,198.37,285.69,198.37z"/>
			<path style="opacity:0.2;enable-background:new    ;" d="M285.69,198.37h1.09c1.07,0,1.94-0.87,1.94-1.94v-1.22
				c0-1.07-0.87-1.94-1.94-1.94h-1.09c-1.07,0-1.94,0.87-1.94,1.94v1.22C283.74,197.5,284.61,198.37,285.69,198.37z"/>
		</g>
		<g>
			<g>
				<path style="fill:#263238;" d="M329.32,138.13c9.68-1.26,19.06-3.05,19.06-3.05l0.81,0.93c0,0,16.88,3.36,19.5,6.44
					s1.85,16.48,1.85,16.48l-1.09,0.94c0,0,0.32,28.45-3.33,33.4c-3.65,4.96-19.88,5.58-32.25,2.19
					C321.5,192.07,319.64,139.39,329.32,138.13z"/>
				<path style="opacity:0.4;fill:#FFFFFF;" d="M333.88,195.45c2.02,0.55,4.15,1,6.3,1.33c11.05,1.74,22.89,0.63,25.95-3.52
					c3.65-4.96,3.33-33.4,3.33-33.4l1.09-0.94c0,0,0.78-13.4-1.85-16.47c-2.18-2.56-14.19-5.31-18.19-6.17
					c-0.82-0.18-1.3-0.27-1.3-0.27l-0.82-0.93c0,0-9.37,1.79-19.06,3.05C319.64,139.39,321.51,192.07,333.88,195.45z"/>
				<path style="opacity:0.2;" d="M333.88,195.45c2.02,0.55,4.15,1,6.3,1.33c7.55-0.15,14.32-1.17,15.51-3.52
					c2.1-4.2-0.4-21.32,1.22-33.4c1.61-12.08-1.1-21.27-6.42-23.47l0.02-0.11c-0.82-0.18-1.3-0.27-1.3-0.27l-0.82-0.93
					c0,0-9.37,1.79-19.06,3.05C319.64,139.39,321.51,192.07,333.88,195.45z"/>
			</g>
			<path style="fill:#CE7A63;" d="M297,186.19l-7,2.98l-4.06,4.85l5.32,1.44l2.86-1.82c0,0,4.99-0.16,6.28-4.12L297,186.19z"/>
			<path style="fill:#407BFF;" d="M299.76,190.82c1.23-0.61,6.44-4.03,11.43-7.61c4.44-3.19,8.7-6.52,9.84-8.14
				c1.41-2.01,3-8.02,4.2-14.3c1.53-7.83,2.46-16.06,1.76-17.45c-1.25-2.5-5.96-3.92-5.96-3.92c-5.68,3.34-8.37,25.4-9.53,29.57
				c0,0-15.4,15.08-15.98,16.81C294.95,187.51,299.76,190.82,299.76,190.82z"/>
			<path style="fill:#F77C7C;" d="M299.76,190.82c1.23-0.61,6.44-4.03,11.43-7.61c4.44-3.19,8.7-6.52,9.84-8.14
				c1.41-2.01,3-8.02,4.2-14.3c1.53-7.83,2.46-16.06,1.76-17.45c-1.25-2.5-5.96-3.92-5.96-3.92c-5.68,3.34-8.37,25.4-9.53,29.57
				c0,0-15.4,15.08-15.98,16.81C294.95,187.51,299.76,190.82,299.76,190.82z"/>
			<path style="fill:#407BFF;" d="M288.44,343.52c5.92,0,6.7-0.09,10.03-0.2c2.85-0.1,3.53,0.25,5.82,0.2
				c1.91-0.04,1.84-1.87,1.25-3.98c-0.29-1.06-0.75-3.29-1.16-5l-8.67-0.63c-1.22,2.33-3.97,5.65-7.31,6.1
				C285.21,340.44,286.08,343.52,288.44,343.52z"/>
			<path style="fill:#407BFF;" d="M332.22,343.52c5.92,0,6.7-0.09,10.03-0.2c2.85-0.1,3.53,0.25,5.82,0.2
				c1.91-0.04,1.84-1.87,1.25-3.98c-0.3-1.06-0.75-3.29-1.16-5l-8.67-0.63c-1.22,2.33-3.97,5.65-7.31,6.1
				C329,340.44,329.87,343.52,332.22,343.52z"/>
			<path style="fill:#F77C7C;" d="M288.44,343.52c5.92,0,6.7-0.09,10.03-0.2c2.85-0.1,3.53,0.25,5.82,0.2
				c1.91-0.04,1.84-1.87,1.25-3.98c-0.29-1.06-0.75-3.29-1.16-5l-8.67-0.63c-1.22,2.33-3.97,5.65-7.31,6.1
				C285.21,340.44,286.08,343.52,288.44,343.52z"/>
			<path style="fill:#F77C7C;" d="M332.22,343.52c5.92,0,6.7-0.09,10.03-0.2c2.85-0.1,3.53,0.25,5.82,0.2
				c1.91-0.04,1.84-1.87,1.25-3.98c-0.3-1.06-0.75-3.29-1.16-5l-8.67-0.63c-1.22,2.33-3.97,5.65-7.31,6.1
				C329,340.44,329.87,343.52,332.22,343.52z"/>
			<path style="opacity:0.2;" d="M311.19,183.21c4.44-3.19,8.7-6.52,9.84-8.14c1.41-2.01,3-8.02,4.2-14.3
				c-1.63-3.31-2.88-5.51-2.88-5.51S314.99,165,311.19,183.21z"/>
			<g>
				<path style="fill:#407BFF;" d="M349.89,98.41c3.03-3.98,7.21-5.65,12.41-2.96c5.19,2.69,5.22,7.86,2.51,13.16
					c-2.71,5.3,5.37,7.1,3.64,12.39c-0.68,2.09-2.2,2.65-2.24,6.18c-0.02,2.11,2.76,5.73,0.95,7.12c-2.33,1.77-9.9-1.85-8.54-5.35
					c1.37-3.5-4.02-3.05-4.21-6.41c-0.21-3.63,2.38-4.84,1.39-7.52c-1.16-3.13-4.44-3.01-5.91-7.48
					C348.64,103.72,348.92,99.69,349.89,98.41z"/>
				<path style="fill:#F77C7C;" d="M349.89,98.41c3.03-3.98,7.21-5.65,12.41-2.96c5.19,2.69,5.22,7.86,2.51,13.16
					c-2.71,5.3,5.37,7.1,3.64,12.39c-0.68,2.09-2.2,2.65-2.24,6.18c-0.02,2.11,2.76,5.73,0.95,7.12c-2.33,1.77-9.9-1.85-8.54-5.35
					c1.37-3.5-4.02-3.05-4.21-6.41c-0.21-3.63,2.38-4.84,1.39-7.52c-1.16-3.13-4.44-3.01-5.91-7.48
					C348.64,103.72,348.92,99.69,349.89,98.41z"/>
			</g>
			<g>
				<path style="fill:#263238;" d="M317.65,183.9c0,0-7.66,46.16-8.92,69.97c-1.33,25.01-9.35,65.06-13.58,80.71
					c1.19,1.07,6.8,1.52,9.45,0.2c0,0,23.14-46.19,20.13-75.07c19.34-54.47,14.67-74.85,14.67-74.85L317.65,183.9z"/>
			</g>
			<path style="opacity:0.2;" d="M330.45,242.38c2.75-9.07,4.74-16.93,6.14-23.67c-1.39-5.27-3.36-9.78-6.05-12.5
				C330.54,206.21,326.68,220.9,330.45,242.38z"/>
			<g>
				<path style="fill:#263238;" d="M325.94,181.48c0,0,6.33,48.97,9.96,72.54c3.81,24.75,4.29,64.47,3.34,80.66
					c1.39,0.81,6.44,1.78,9.17,0.93c0,0,12.91-50.06,4.33-79.14c7.81-57.27-3.49-71.3-3.49-71.3L325.94,181.48z"/>
			</g>
			<path style="fill:#407BFF;" d="M317.23,178.58c-0.35-7.17-0.49-12.2-0.52-17.29c-0.18-7.51,0.3-9.89,0.5-13.02
				c0.37-5.62,4.77-11.97,10.43-12.56c1.57-0.16,3.21-0.31,4.79-0.4c4.77-0.27,9.15,0.05,14.5,0.49c1.37,0.11,2.71,0.27,3.97,0.44
				c4.72,0.64,7.53,5.25,6.04,9.9c-4.58,14.3-6.61,23.6-7.27,31.03c0.81,2.28,5.11,14.58,3.35,15.97c-1.94,1.54-34.22,2.69-36.72,0
				C314.37,191.04,316.28,182.36,317.23,178.58z"/>
			<path style="fill:#F77C7C;" d="M316.3,193.14c2.51,2.68,34.79,1.54,36.73,0c1.76-1.4-2.54-13.7-3.35-15.98
				c0.32-3.55,0.94-7.54,2.02-12.28c0.76-3.37,1.74-7.15,3-11.43c0.67-2.29,1.42-4.73,2.25-7.32c1.49-4.65-1.32-9.26-6.04-9.9
				c-1.26-0.17-2.6-0.32-3.98-0.44c-5.34-0.44-9.72-0.76-14.5-0.5c-1.58,0.09-3.22,0.23-4.78,0.4c-5.67,0.59-10.07,6.94-10.43,12.56
				c-0.2,3.13-0.68,5.51-0.51,13.02c0.03,5.09,0.18,10.12,0.53,17.29C316.28,182.35,314.37,191.05,316.3,193.14z"/>
			<g>
				<path style="fill:#263238;" d="M344.97,156.69c0,0,2.21,11.2,7.12,18.39l-1.04,1.72c0,0-5.02-6.24-8-20.11H344.97z"/>
				<path style="opacity:0.2;fill:#FFFFFF;" d="M344.97,156.69c0,0,2.21,11.2,7.12,18.39l-1.04,1.72c0,0-5.02-6.24-8-20.11H344.97z"
					/>
				<path style="fill:#263238;" d="M354.2,136.97c0,0-9.36,3.38-8.31,19.91c0.07,1.09-0.79,2.01-1.88,2.01l0,0
					c-0.87,0-1.63-0.59-1.83-1.44c-1.02-4.3-3.14-17.09,6.2-22.38C348.38,135.08,353.32,135.71,354.2,136.97z"/>
			</g>
			<g>
				<path style="fill:#263238;" d="M318.62,156.69c0,0-0.65,8-1.67,15.21l-0.7-1.34c0,0,0.43-6.79,0.9-13.87H318.62z"/>
				<path style="opacity:0.2;fill:#FFFFFF;" d="M318.62,156.69c0,0-0.65,8-1.67,15.21l-0.7-1.34c0,0,0.43-6.79,0.9-13.87H318.62z"/>
				<path style="fill:#263238;" d="M328.05,135.66c0,0-7.35,4.94-8.86,21.3c-0.06,0.66-0.61,1.17-1.27,1.17l0,0
					c-0.71,0-1.28-0.57-1.28-1.28c0-3.36,0.52-12.67,5.72-19.41C322.36,137.45,326.43,134.83,328.05,135.66z"/>
			</g>
			<g style="opacity:0.2;">
				<path d="M326.59,193.76c0.02,0,0.05,0,0.07-0.01c0.13-0.04,0.2-0.17,0.16-0.3c-1.62-5.39,1.12-13.69,1.14-13.78
					c0.01-0.03,0.01-0.07,0.01-0.11c-0.02-0.15-1.8-15.46,0-26.66c1.35-8.42,4.35-12.28,4.38-12.32c0.08-0.11,0.07-0.26-0.04-0.34
					c-0.1-0.08-0.26-0.07-0.34,0.04c-0.13,0.16-3.1,3.99-4.48,12.55c-1.76,10.93-0.12,25.72-0.01,26.74
					c-0.25,0.78-2.74,8.65-1.13,14.02C326.39,193.69,326.48,193.76,326.59,193.76z"/>
			</g>
			<path style="fill:#B85252;" d="M347.56,130.33c0,0-10,2.69-16.64,0.87c-6.64-1.83-4.14,9.04,2.02,8.85
				C339.1,139.86,351.22,133.32,347.56,130.33z"/>
			<path style="fill:#CE7A63;" d="M346.48,119.44c-1.42,4.62-3.26,13.12-0.34,16.33c0,0-4.4-0.81-13.98,4.67
				c-2.58-3.99-0.52-5.16-0.52-5.16c5.34-1.06,5.62-4.92,5.11-8.56L346.48,119.44z"/>
			<path style="opacity:0.2;" d="M342.51,122.41l-5.76,4.3c0.12,0.86,0.2,1.74,0.17,2.58c2.02-0.22,4.99-2.3,5.42-4.37
				C342.56,123.89,342.63,122.89,342.51,122.41z"/>
			<g>
				<path style="fill:#CE7A63;" d="M350.78,110.21c-1.67,7.49-2.22,10.68-6.64,14.15c-6.65,5.21-15.44,2.04-16.02-5.67
					c-0.53-6.94,2.3-18.01,10.14-20.24C345.99,96.26,352.45,102.72,350.78,110.21z"/>
				<g>
					<path style="fill:#407BFF;" d="M340.31,94.73c-5.56,0.69-13.08,6.82-5.81,7.46c0.21,2.29,4.4,1.96,7.34,0.51
						c-0.3,1.71,2.8,4.8,6.53,3.47c-2.1,1.38-1.8,7.12,0.89,7.24s8.41,1.16,6.74-8.18C354.33,95.89,346.26,94,340.31,94.73z"/>
					<path style="fill:#B85252;" d="M340.31,94.73c-5.56,0.69-13.08,6.82-5.81,7.46c0.21,2.29,4.4,1.96,7.34,0.51
						c-0.3,1.71,2.8,4.8,6.53,3.47c-2.1,1.38-1.8,7.12,0.89,7.24s8.41,1.16,6.74-8.18C354.33,95.89,346.26,94,340.31,94.73z"/>
				</g>
				<path style="fill:#263238;" d="M341.12,111.13c-0.11,0.63-0.54,1.11-0.94,1.07c-0.41-0.04-0.65-0.59-0.53-1.23
					c0.11-0.63,0.54-1.11,0.94-1.07S341.23,110.5,341.12,111.13z"/>
				<path style="fill:#263238;" d="M333.22,110.03c-0.11,0.63-0.54,1.11-0.94,1.07c-0.41-0.04-0.65-0.59-0.53-1.23
					c0.11-0.63,0.54-1.11,0.94-1.07C333.09,108.85,333.33,109.4,333.22,110.03z"/>
				<path style="fill:#263238;" d="M332.86,108.86l-1.42-0.6C331.44,108.26,332,109.53,332.86,108.86z"/>
				<path style="fill:#BA4D3C;" d="M335.39,111.69c0,0-1.54,2.62-2.94,3.81c0.68,0.87,2.14,0.66,2.14,0.66L335.39,111.69z"/>
				<path style="fill:#263238;" d="M337.75,118.89c-0.33,0.02-0.69,0.02-1.06-0.02c-0.1-0.01-0.17-0.1-0.15-0.21
					c0.02-0.1,0.11-0.18,0.22-0.17c2.73,0.3,4.36-1.51,4.37-1.53c0.07-0.08,0.19-0.09,0.26-0.03c0.07,0.07,0.08,0.18,0.01,0.26
					C341.34,117.28,340.03,118.73,337.75,118.89z"/>
				<path style="fill:#CE7A63;" d="M352.28,116.68c-1.1,1.44-2.68,2.23-4.05,2.39c-2.07,0.24-2.66-1.85-1.72-3.77
					c0.85-1.73,2.95-3.94,4.85-3.29C353.23,112.64,353.53,115.03,352.28,116.68z"/>
				<path style="fill:#263238;" d="M343,107.29c-0.1,0-0.19-0.04-0.26-0.12c-1.03-1.23-2.39-1.02-2.41-1.02
					c-0.2,0.03-0.38-0.1-0.4-0.31c-0.02-0.2,0.13-0.4,0.34-0.43c0.07-0.01,1.78-0.28,3.06,1.25c0.13,0.15,0.1,0.39-0.06,0.53
					C343.18,107.26,343.09,107.29,343,107.29z"/>
				<path style="fill:#263238;" d="M330.71,105.51c-0.09,0.01-0.19-0.01-0.26-0.07c-0.15-0.13-0.17-0.36-0.03-0.53
					c1.37-1.65,3.07-1.54,3.14-1.53c0.2,0.02,0.34,0.19,0.31,0.4c-0.03,0.21-0.22,0.36-0.42,0.35c-0.07-0.01-1.39-0.07-2.47,1.24
					C330.91,105.45,330.81,105.5,330.71,105.51z"/>
				<path style="fill:#263238;" d="M340.76,109.96l-1.42-0.6C339.34,109.36,339.9,110.63,340.76,109.96z"/>
			</g>
			<path style="fill:#407BFF;" d="M332.16,140.44c0,0,14.92-14.82,22.42-9.62c4.27,2.96,1.73,6.15-0.38,6.15c-2.15,0-5-0.96-5-0.96
				S344.17,139.48,332.16,140.44z"/>
			<path style="fill:#407BFF;" d="M332.16,140.44c0,0-2.68-5.97-1.43-8.37c1.25-2.4-6.83-2.12-7.41,2.69
				C322.75,139.57,332.16,140.44,332.16,140.44z"/>
			<path style="fill:#F77C7C;" d="M332.16,140.44c0,0,14.92-14.82,22.42-9.62c4.27,2.96,1.73,6.15-0.38,6.15c-2.15,0-5-0.96-5-0.96
				S344.17,139.48,332.16,140.44z"/>
			<path style="fill:#F77C7C;" d="M332.16,140.44c0,0-2.68-5.97-1.43-8.37c1.25-2.4-6.83-2.12-7.41,2.69
				C322.75,139.57,332.16,140.44,332.16,140.44z"/>
			<g>
				<path style="fill:#407BFF;" d="M325.1,166.63l11.24,22.04l13.94-5.65l-0.08-0.15l1.12-1.29l0.79-0.3l-11.76-22.78
					c0,0-12.21,5.04-13.53,5.81C325.52,165.07,325.1,166.63,325.1,166.63z"/>
				<path style="fill:#F58840;" d="M325.1,166.63l11.24,22.04l13.94-5.65l-0.08-0.15l1.12-1.29l0.79-0.3l-11.76-22.78
					c0,0-12.21,5.04-13.53,5.81c-0.07,0.04-0.14,0.09-0.19,0.14C325.49,165.22,325.1,166.63,325.1,166.63z"/>
				<path style="opacity:0.2;" d="M325.1,166.63l11.24,22.04l13.94-5.65l-0.08-0.15l1.12-1.29l-13.71,5.14l-10.98-22.29
					C325.49,165.22,325.1,166.63,325.1,166.63z"/>
				<path style="opacity:0.6;fill:#FFFFFF;" d="M336.83,188.32l13.37-5.45l1.12-1.29l-13.67,5.27
					C336.65,187.72,336.83,188.32,336.83,188.32z"/>
				<g>
					<polygon style="fill:#FFFFFF;" points="343.76,177.22 332.96,160.61 327.47,163.92 338.03,180.41 					"/>
					<polygon style="opacity:0.1;" points="343.76,177.22 332.96,160.61 327.47,163.92 338.03,180.41 					"/>
					<polygon style="fill:#FFFFFF;" points="343.62,177.14 333.93,159.86 328.23,162.81 337.69,179.95 					"/>
					<polygon style="fill:#F59758;" points="342.38,176.5 338.2,163.97 328.84,166.21 332.69,178.79 					"/>
					<g>
						<path style="fill:none;stroke:#FFFFFF;stroke-width:0.2431;stroke-miterlimit:10;" d="M332.9,171.8
							c0.43,1.46,1.97,2.35,3.43,1.99c1.47-0.36,2.3-1.83,1.87-3.29c-0.43-1.46-1.97-2.35-3.43-1.99
							C333.31,168.87,332.47,170.34,332.9,171.8z"/>
						
							<line style="fill:none;stroke:#FFFFFF;stroke-width:0.2431;stroke-miterlimit:10;" x1="334.78" y1="168.51" x2="336.34" y2="173.79"/>
						<path style="fill:none;stroke:#FFFFFF;stroke-width:0.2582;stroke-miterlimit:10;" d="M334.06,171.52
							c0.43,1.46,1.45,2.48,2.28,2.28c0.83-0.2,1.15-1.55,0.72-3.01c-0.43-1.46-1.45-2.48-2.28-2.28
							C333.95,168.71,333.63,170.06,334.06,171.52z"/>
						
							<line style="fill:none;stroke:#FFFFFF;stroke-width:0.2582;stroke-miterlimit:10;" x1="338.21" y1="170.5" x2="332.9" y2="171.8"/>
					</g>
				</g>
			</g>
			<path style="fill:#CE7A63;" d="M329.87,176.61l1.43-1.91c0.54-0.72,1.39-1.13,2.28-1.11l4.19,0.09c1.67,0.04,3.23,0.88,4.17,2.27
				l0.58,0.86c-2.15,3.33-6.93,5.34-6.93,5.34l-1.3,0.72c-1.16,0.64-2.54,0.29-3.18-0.82l-1.47-2.55
				C329.14,178.62,329.23,177.47,329.87,176.61z"/>
			<path style="opacity:0.2;" d="M351.7,164.88c0.76-3.37,1.74-7.15,3-11.43c-1.04-0.79-2.28-0.83-3.66,0.34
				C351.05,153.8,350.18,159.82,351.7,164.88z"/>
			<path style="fill:#407BFF;" d="M354.34,138.22c3.14-1.78,16.69,24.7,14.96,33.72c-1.73,9.02-29.59,7.7-29.59,7.7
				s-1.72-3.79-1.26-6.14c0,0,12.96-5.21,18.92-6.48l-7-13.19C350.38,153.84,349,141.25,354.34,138.22z"/>
			<path style="fill:#F77C7C;" d="M354.34,138.22c3.14-1.78,16.69,24.7,14.96,33.72c-1.73,9.02-29.59,7.7-29.59,7.7
				s-1.72-3.79-1.26-6.14c0,0,12.96-5.21,18.92-6.48l-7-13.19C350.38,153.84,349,141.25,354.34,138.22z"/>
		</g>
		<g>
			<g>
				<path style="fill:#407BFF;" d="M315.61,52.85c0-14.63,11.86-26.49,26.49-26.49c14.63,0,26.49,11.86,26.49,26.49
					c0,13.62-10.28,24.83-23.5,26.32l-2.99,10l-2.99-10C325.89,77.68,315.61,66.47,315.61,52.85z"/>
				<path style="opacity:0.8;fill:#FFFFFF;" d="M315.61,52.85c0-14.63,11.86-26.49,26.49-26.49c14.63,0,26.49,11.86,26.49,26.49
					c0,13.62-10.28,24.83-23.5,26.32l-2.99,10l-2.99-10C325.89,77.68,315.61,66.47,315.61,52.85z"/>
			</g>
			<g>
				<path style="fill:#F59758;" d="M331.27,47.09v14.93c0,1.31,4.85,2.37,10.82,2.37c5.98,0,10.82-1.06,10.82-2.37V47.09H331.27z"/>
				<polygon style="opacity:0.2;" points="331.27,47.09 331.27,52.43 342.09,56.07 352.91,52.43 352.91,47.09 				"/>
				<polygon style="fill:#F59758;" points="342.1,40.45 361.77,47.08 342.1,53.72 322.42,47.08 				"/>
				
					<polyline style="fill:none;stroke:#263238;stroke-width:0.8434;stroke-linecap:round;stroke-linejoin:round;stroke-miterlimit:10;" points="
					329.42,58.24 329.42,49.45 342.09,45.16 				"/>
				<path style="fill:#263238;" d="M329.42,57.35c0.4,0,0.72,0.36,0.72,0.8l0,1.89h-1.45v-1.89
					C328.7,57.71,329.02,57.35,329.42,57.35z"/>
			</g>
		</g>
	</g>
</g>
</svg>
