<?xml version="1.0" encoding="utf-8"?>
<!-- Generator: Adobe Illustrator 24.3.0, SVG Export Plug-In . SVG Version: 6.00 Build 0)  -->
<svg version="1.1" xmlns="http://www.w3.org/2000/svg" xmlns:xlink="http://www.w3.org/1999/xlink" x="0px" y="0px"
	 viewBox="0 0 500 500" style="enable-background:new 0 0 500 500;" xml:space="preserve">
<style type="text/css">
	.st0{opacity:0.22;}
	.st1{fill:url(#SVGID_1_);}
	.st2{opacity:0.56;fill:url(#SVGID_2_);}
	.st3{fill:#F69A2B;}
	.st4{fill:url(#SVGID_3_);}
	.st5{fill:#FFFFFF;}
	.st6{fill:url(#SVGID_4_);}
	.st7{opacity:0.6;}
	.st8{fill:url(#SVGID_5_);}
	.st9{fill:url(#SVGID_6_);}
	.st10{fill:#FF94A9;}
	.st11{fill:#F46969;}
	.st12{fill:#1C3077;}
	.st13{fill:#E1EBF9;}
	.st14{fill:#EA871B;}
	.st15{fill:#1D3078;}
	.st16{opacity:0.56;fill:#FFFFFF;}
	.st17{fill:#FF8181;}
	.st18{fill:#F5F7FD;}
	.st19{fill:#1131C6;}
	.st20{fill:#DFE4EF;}
	.st21{fill:#11215E;}
	.st22{fill:#0F1E57;}
	.st23{fill:#1133A2;}
	.st24{clip-path:url(#SVGID_8_);fill:#AEB1F8;}
	.st25{clip-path:url(#SVGID_8_);fill:#ADB0F8;}
	.st26{clip-path:url(#SVGID_8_);fill:#ADAFF7;}
	.st27{clip-path:url(#SVGID_8_);fill:#ACAEF7;}
	.st28{clip-path:url(#SVGID_8_);fill:#ABADF6;}
	.st29{clip-path:url(#SVGID_8_);fill:#AAACF6;}
	.st30{clip-path:url(#SVGID_8_);fill:#A9ABF5;}
	.st31{clip-path:url(#SVGID_8_);fill:#A8AAF4;}
	.st32{clip-path:url(#SVGID_8_);fill:#A7A9F4;}
	.st33{clip-path:url(#SVGID_8_);fill:#A6A8F3;}
	.st34{clip-path:url(#SVGID_8_);fill:#A5A7F3;}
	.st35{clip-path:url(#SVGID_8_);fill:#A4A6F2;}
	.st36{clip-path:url(#SVGID_8_);fill:#A4A5F2;}
	.st37{clip-path:url(#SVGID_8_);fill:#A3A4F1;}
	.st38{clip-path:url(#SVGID_8_);fill:#A2A3F0;}
	.st39{clip-path:url(#SVGID_8_);fill:#A1A2F0;}
	.st40{clip-path:url(#SVGID_8_);fill:#A0A1EF;}
	.st41{clip-path:url(#SVGID_8_);fill:#9FA0EF;}
	.st42{clip-path:url(#SVGID_8_);fill:#9E9FEE;}
	.st43{clip-path:url(#SVGID_8_);fill:#9D9EEE;}
	.st44{clip-path:url(#SVGID_8_);fill:#9C9DED;}
	.st45{clip-path:url(#SVGID_8_);fill:#9C9CED;}
	.st46{clip-path:url(#SVGID_8_);fill:#9B9BEC;}
	.st47{clip-path:url(#SVGID_8_);fill:#9A9AEB;}
	.st48{clip-path:url(#SVGID_8_);fill:#9999EB;}
	.st49{clip-path:url(#SVGID_8_);fill:#9898EA;}
	.st50{clip-path:url(#SVGID_8_);fill:#9797EA;}
	.st51{clip-path:url(#SVGID_8_);fill:#9696E9;}
	.st52{clip-path:url(#SVGID_8_);fill:#9595E9;}
	.st53{clip-path:url(#SVGID_8_);fill:#9494E8;}
	.st54{clip-path:url(#SVGID_8_);fill:#9493E8;}
	.st55{clip-path:url(#SVGID_8_);fill:#9392E7;}
	.st56{clip-path:url(#SVGID_8_);fill:#9291E6;}
	.st57{clip-path:url(#SVGID_8_);fill:#9190E6;}
	.st58{clip-path:url(#SVGID_8_);fill:#908FE5;}
	.st59{clip-path:url(#SVGID_8_);fill:#8F8EE5;}
	.st60{clip-path:url(#SVGID_8_);fill:#8E8DE4;}
	.st61{clip-path:url(#SVGID_8_);fill:#8D8CE4;}
	.st62{clip-path:url(#SVGID_8_);fill:#8C8BE3;}
	.st63{clip-path:url(#SVGID_8_);fill:#8C8AE3;}
	.st64{clip-path:url(#SVGID_8_);fill:#8B89E2;}
	.st65{clip-path:url(#SVGID_8_);fill:#8A88E1;}
	.st66{clip-path:url(#SVGID_8_);fill:#8987E1;}
	.st67{clip-path:url(#SVGID_8_);fill:#8886E0;}
	.st68{clip-path:url(#SVGID_8_);fill:#8784E0;}
	.st69{clip-path:url(#SVGID_8_);fill:#8683DF;}
	.st70{clip-path:url(#SVGID_8_);fill:#8582DF;}
	.st71{clip-path:url(#SVGID_8_);fill:#8481DE;}
	.st72{clip-path:url(#SVGID_8_);fill:#8380DD;}
	.st73{clip-path:url(#SVGID_8_);fill:#837FDD;}
	.st74{clip-path:url(#SVGID_8_);fill:#827EDC;}
	.st75{clip-path:url(#SVGID_10_);fill:#B0B3F9;}
	.st76{clip-path:url(#SVGID_10_);fill:#AFB2F9;}
	.st77{clip-path:url(#SVGID_10_);fill:#AEB1F8;}
	.st78{clip-path:url(#SVGID_10_);fill:#ADB0F8;}
	.st79{clip-path:url(#SVGID_10_);fill:#ADAFF7;}
	.st80{clip-path:url(#SVGID_10_);fill:#ACAEF7;}
	.st81{clip-path:url(#SVGID_10_);fill:#ABADF6;}
	.st82{clip-path:url(#SVGID_10_);fill:#AAACF6;}
	.st83{clip-path:url(#SVGID_10_);fill:#A9ABF5;}
	.st84{clip-path:url(#SVGID_10_);fill:#A8AAF4;}
	.st85{clip-path:url(#SVGID_10_);fill:#A7A9F4;}
	.st86{clip-path:url(#SVGID_10_);fill:#A6A8F3;}
	.st87{fill:#091847;}
	.st88{fill:#5067B2;}
	.st89{fill:#ADC3EF;}
	.st90{opacity:0.24;fill:#FFFFFF;}
</style>
<g id="BACKGROUND">
</g>
<g id="OBJECTS">
	<g>
		<g class="st0">
			<linearGradient id="SVGID_1_" gradientUnits="userSpaceOnUse" x1="318.1371" y1="133.0321" x2="126.7865" y2="605.5301">
				<stop  offset="0" style="stop-color:#B9BDFF"/>
				<stop  offset="1" style="stop-color:#564DC1"/>
			</linearGradient>
			<path class="st1" d="M264.39,412.96c-42.82,4.43-128.98-2.92-169.97-14.78c-39.62-11.47-64.81-35.11-77.88-61.7
				c-13.07-26.59-11.7-61.89,9.47-82.62c14.78-14.48,37.66-21.13,46.97-39.61c5.46-10.84,5-23.54,6.05-35.63
				c2.5-28.83,15.26-57.56,38.23-75.16c22.97-17.59,56.68-21.96,81.37-6.87c21.43,13.1,36.82,39.63,61.93,40.27
				c17.38,0.44,31.88-12.17,46.94-20.85c23.65-13.63,53.26-18.16,78.77-8.45c25.51,9.71,45.41,34.92,45.33,62.21
				c-0.03,12.61-3.91,26.05,1.73,37.33c2.77,5.55,7.54,9.79,12.21,13.88c12.47,10.95,25.2,22.09,33.74,36.32
				c15.75,26.24,14.77,60.71,0.69,87.89c-14.07,27.18-39.95,47.19-68.68,57.74C382.57,413.48,304.6,411.21,264.39,412.96"/>
		</g>
		<linearGradient id="SVGID_2_" gradientUnits="userSpaceOnUse" x1="79.7753" y1="416.0067" x2="422.2472" y2="416.0067">
			<stop  offset="0" style="stop-color:#B9BDFF"/>
			<stop  offset="1" style="stop-color:#564DC1"/>
		</linearGradient>
		<ellipse class="st2" cx="251.01" cy="416.01" rx="171.24" ry="8.05"/>
		<g>
			<g>
				<g>
					<path class="st3" d="M198.08,202.48c-0.28-4.61,0.1-9.28,0.93-13.87c0.41-2.3,0.97-4.59,1.68-6.84
						c0.72-2.25,1.6-4.46,2.62-6.62c1.06-2.14,2.31-4.21,3.72-6.19c1.44-1.96,3.1-3.77,4.91-5.44l1.42-1.19
						c0.24-0.19,0.47-0.4,0.72-0.58l0.76-0.53c0.51-0.35,1.01-0.72,1.53-1.05l1.6-0.94c0.53-0.33,1.09-0.59,1.65-0.86
						c0.56-0.26,1.11-0.55,1.68-0.79l1.73-0.67l0.87-0.33l0.89-0.26l1.78-0.52c0.6-0.16,1.2-0.27,1.81-0.4
						c0.6-0.12,1.2-0.27,1.82-0.37c0.61-0.08,1.23-0.2,1.84-0.26c2.46-0.28,4.92-0.33,7.35-0.23c4.86,0.2,9.58,1.03,14.18,2.06
						c4.6,1.03,9.08,2.34,13.52,3.64c4.43,1.33,8.8,2.7,13.17,3.96c4.36,1.28,8.72,2.46,13.09,3.36c4.36,0.93,8.74,1.57,13.09,1.77
						c4.35,0.21,8.67-0.09,12.85-1.02c4.17-0.94,8.17-2.54,11.86-4.78c1.84-1.12,3.61-2.38,5.3-3.76l1.25-1.06
						c0.41-0.36,0.81-0.74,1.21-1.11l0.3-0.28l0.12-0.11l0.12-0.12c0.17-0.18,0.35-0.37,0.53-0.57c0.36-0.39,0.71-0.8,1.06-1.22
						c1.39-1.68,2.66-3.5,3.84-5.38c1.19-1.88,2.25-3.85,3.21-5.86c1.94-4.03,3.44-8.31,4.53-12.71c1.07-4.41,1.68-8.96,1.94-13.57
						c0.25,2.29,0.37,4.61,0.39,6.93c-0.02,2.32-0.16,4.65-0.43,6.98c-0.54,4.65-1.65,9.26-3.27,13.7
						c-1.64,4.44-3.78,8.72-6.56,12.68c-0.35,0.5-0.71,0.99-1.09,1.48c-0.19,0.24-0.39,0.49-0.6,0.74l-0.17,0.19l-0.18,0.19
						l-0.31,0.33c-0.42,0.44-0.83,0.88-1.25,1.31l-1.3,1.26c-1.77,1.65-3.65,3.2-5.68,4.57c-2.02,1.38-4.16,2.61-6.39,3.65
						c-2.24,1.03-4.57,1.86-6.95,2.5c-4.76,1.3-9.7,1.74-14.53,1.66c-4.85-0.09-9.61-0.74-14.26-1.63
						c-4.65-0.93-9.19-2.13-13.66-3.42c-4.46-1.32-8.86-2.71-13.23-4.07c-4.36-1.38-8.71-2.68-13.05-3.8
						c-8.66-2.19-17.48-3.61-25.76-1.44c-4.15,0.97-8,2.89-11.42,5.45c-1.68,1.33-3.25,2.82-4.69,4.45
						c-1.42,1.65-2.71,3.43-3.87,5.32c-1.15,1.89-2.16,3.89-3.07,5.94c-0.92,2.05-1.67,4.19-2.36,6.35
						c-0.68,2.16-1.25,4.38-1.71,6.62C198.68,197.92,198.32,200.18,198.08,202.48z"/>
				</g>
				<g>
					<path class="st3" d="M333.06,95.94c-2.29-0.25-4.59-0.37-6.88-0.36c-2.29-0.02-4.57,0.07-6.83,0.29
						c-2.26,0.23-4.5,0.51-6.7,0.98c-2.2,0.46-4.36,1.04-6.45,1.76c-2.09,0.75-4.1,1.64-6.01,2.68c-1.9,1.07-3.68,2.29-5.33,3.65
						c-3.23,2.81-5.9,6.17-7.72,10.03c-3.84,7.64-4.3,16.56-3.97,25.49c0.18,4.48,0.55,9,0.99,13.56c0.42,4.56,0.87,9.15,1.22,13.79
						c0.32,4.64,0.55,9.33,0.49,14.07c-0.1,4.74-0.45,9.53-1.38,14.29c-0.93,4.75-2.4,9.48-4.66,13.86c-1.12,2.19-2.42,4.3-3.9,6.28
						c-1.48,1.97-3.13,3.81-4.9,5.49c-1.77,1.69-3.68,3.21-5.66,4.59l-1.5,1.01c-0.51,0.32-1.03,0.63-1.54,0.95l-0.39,0.24
						l-0.22,0.13l-0.23,0.12c-0.29,0.15-0.57,0.3-0.85,0.43c-0.56,0.27-1.11,0.52-1.67,0.76c-4.46,1.89-9.09,3.09-13.78,3.77
						c-4.69,0.66-9.42,0.78-14.08,0.34c-2.33-0.23-4.64-0.58-6.91-1.04c-2.27-0.5-4.51-1.1-6.7-1.83c4.56,0.71,9.14,1.07,13.67,0.94
						c4.54-0.14,9.03-0.71,13.38-1.77c2.17-0.53,4.32-1.15,6.4-1.92c2.08-0.76,4.13-1.62,6.06-2.63c0.48-0.25,0.96-0.51,1.42-0.78
						c0.23-0.13,0.45-0.27,0.66-0.4l0.15-0.09l0.14-0.1l0.34-0.24c0.45-0.32,0.9-0.63,1.34-0.95l1.3-1c1.71-1.36,3.3-2.84,4.79-4.4
						c2.96-3.13,5.37-6.71,7.15-10.59c1.78-3.89,2.98-8.05,3.68-12.35c0.71-4.3,1-8.72,1-13.17c0.03-4.46-0.22-8.97-0.55-13.5
						c-0.31-4.54-0.75-9.1-1.12-13.71c-0.35-4.61-0.69-9.26-0.73-13.98c-0.04-4.71,0.13-9.51,0.95-14.3
						c0.41-2.39,0.97-4.79,1.76-7.14c0.18-0.59,0.42-1.17,0.64-1.75c0.23-0.58,0.49-1.13,0.74-1.7c0.26-0.56,0.48-1.13,0.77-1.68
						l0.88-1.63l0.44-0.81l0.5-0.78l1.02-1.56c0.35-0.51,0.75-0.99,1.13-1.48c0.38-0.49,0.75-0.99,1.18-1.43l1.26-1.37
						c0.43-0.45,0.9-0.85,1.35-1.28l0.68-0.63c0.23-0.21,0.48-0.39,0.72-0.58l1.46-1.14c2.02-1.42,4.13-2.66,6.35-3.66
						c2.23-0.97,4.51-1.76,6.83-2.34c2.33-0.55,4.67-0.95,7.02-1.18c2.35-0.23,4.7-0.29,7.04-0.22
						C323.97,94.1,328.61,94.7,333.06,95.94z"/>
				</g>
				<g>
					<g>
						
							<rect x="337.54" y="88.21" transform="matrix(0.7075 -0.7067 0.7067 0.7075 20.4633 271.4208)" class="st3" width="1.16" height="45.56"/>
					</g>
					<g>
						
							<rect x="329.01" y="86.04" transform="matrix(0.7075 -0.7067 0.7067 0.7075 13.5615 267.2179)" class="st3" width="1.16" height="62.37"/>
					</g>
					<g>
						
							<rect x="322.83" y="91.21" transform="matrix(0.7011 -0.7131 0.7131 0.7011 7.881 267.8436)" class="st3" width="1.16" height="66.62"/>
					</g>
					<g>
						
							<rect x="315.99" y="97.12" transform="matrix(0.7019 -0.7122 0.7122 0.7019 -0.2149 265.0486)" class="st3" width="1.16" height="71.33"/>
					</g>
					<g>
						
							<rect x="308.16" y="105.31" transform="matrix(0.7005 -0.7136 0.7136 0.7005 -7.7667 262.3734)" class="st3" width="1.16" height="70.26"/>
					</g>
					<g>
						
							<rect x="302.6" y="118.11" transform="matrix(0.7075 -0.7067 0.7067 0.7075 -16.8256 257.9376)" class="st3" width="1.16" height="62.37"/>
					</g>
					<g>
						
							<rect x="296.71" y="133.52" transform="matrix(0.6911 -0.7228 0.7228 0.6911 -22.058 263.5656)" class="st3" width="1.16" height="48.13"/>
					</g>
				</g>
				<g>
					<g>
						
							<rect x="215.08" y="189.88" transform="matrix(0.729 -0.6845 0.6845 0.729 -88.6895 205.8663)" class="st3" width="1.16" height="50.12"/>
					</g>
					<g>
						
							<rect x="222.81" y="176.23" transform="matrix(0.7233 -0.6905 0.6905 0.7233 -81.9564 211.8761)" class="st3" width="1.16" height="63.95"/>
					</g>
					<g>
						
							<rect x="230.02" y="164.91" transform="matrix(0.7224 -0.6915 0.6915 0.7224 -75.299 215.393)" class="st3" width="1.16" height="73.13"/>
					</g>
					<g>
						
							<rect x="238.25" y="156.39" transform="matrix(0.728 -0.6856 0.6856 0.728 -68.1131 216.5519)" class="st3" width="1.16" height="75.44"/>
					</g>
					<g>
						
							<rect x="246.59" y="151.57" transform="matrix(0.726 -0.6877 0.6877 0.726 -61.3737 221.44)" class="st3" width="1.16" height="72.33"/>
					</g>
					<g>
						
							<rect x="254.92" y="150.25" transform="matrix(0.7161 -0.698 0.698 0.7161 -54.1024 229.8485)" class="st3" width="1.16" height="62.37"/>
					</g>
					<g>
						
							<rect x="263.29" y="151.58" transform="matrix(0.7319 -0.6814 0.6814 0.7319 -48.9509 226.8746)" class="st3" width="1.16" height="48.13"/>
					</g>
				</g>
			</g>
			<g>
				<g>
					<path class="st3" d="M214.97,155.21c2.47,1.52,3.24,4.76,1.72,7.24c-1.52,2.47-4.76,3.24-7.24,1.72
						c-2.47-1.52-3.24-4.76-1.72-7.24C209.26,154.46,212.5,153.69,214.97,155.21z"/>
				</g>
				<g>
					
						<ellipse transform="matrix(0.6508 -0.7592 0.7592 0.6508 -87.0552 197.9283)" class="st3" cx="171.66" cy="193.61" rx="5.26" ry="5.26"/>
				</g>
				<g>
					<path class="st3" d="M193.24,206.91c2.47,1.52,3.24,4.76,1.72,7.24c-1.52,2.47-4.76,3.24-7.24,1.72
						c-2.47-1.52-3.24-4.76-1.72-7.24C187.53,206.16,190.77,205.39,193.24,206.91z"/>
				</g>
				<g>
					<path class="st3" d="M78.43,131.75c0.5-2.86,3.23-4.77,6.09-4.27c2.86,0.5,4.77,3.23,4.27,6.09s-3.23,4.77-6.09,4.27
						C79.84,137.33,77.92,134.61,78.43,131.75z"/>
				</g>
				<g>
					<path class="st3" d="M182.2,162.89c2.47,1.52,3.24,4.76,1.72,7.24c-1.52,2.47-4.76,3.24-7.24,1.72
						c-2.47-1.52-3.24-4.76-1.72-7.24C176.49,162.13,179.73,161.36,182.2,162.89z"/>
				</g>
				<g>
					<path class="st3" d="M163.32,141.11c2.47,1.52,3.24,4.76,1.72,7.24c-1.52,2.47-4.76,3.24-7.24,1.72
						c-2.47-1.52-3.24-4.76-1.72-7.24C157.61,140.35,160.85,139.58,163.32,141.11z"/>
				</g>
				<g>
					
						<ellipse transform="matrix(0.7292 -0.6843 0.6843 0.7292 -35.7236 148.8069)" class="st3" cx="170.15" cy="119.54" rx="5.26" ry="5.26"/>
				</g>
				<g>
					<path class="st3" d="M127.9,178.52c2.47,1.52,3.24,4.76,1.72,7.24c-1.52,2.47-4.76,3.24-7.24,1.72
						c-2.47-1.52-3.24-4.76-1.72-7.24C122.19,177.76,125.43,176.99,127.9,178.52z"/>
				</g>
				<g>
					<path class="st3" d="M132.54,150.96c2.47,1.52,3.24,4.76,1.72,7.24c-1.52,2.47-4.76,3.24-7.24,1.72
						c-2.47-1.52-3.24-4.76-1.72-7.24C126.83,150.2,130.07,149.44,132.54,150.96z"/>
				</g>
				<g>
					<path class="st3" d="M145.8,195.73c2.47,1.52,3.24,4.76,1.72,7.24c-1.52,2.47-4.76,3.24-7.24,1.72
						c-2.47-1.52-3.24-4.76-1.72-7.24C140.09,194.97,143.33,194.2,145.8,195.73z"/>
				</g>
				<g>
					<path class="st3" d="M106.15,128.92c0.5-2.86,3.23-4.77,6.09-4.27c2.86,0.5,4.77,3.23,4.27,6.09c-0.5,2.86-3.23,4.77-6.09,4.27
						C107.57,134.51,105.65,131.78,106.15,128.92z"/>
				</g>
				<g>
					<path class="st3" d="M233.28,175.37c2.47,1.52,3.24,4.76,1.72,7.24c-1.52,2.47-4.76,3.24-7.24,1.72
						c-2.47-1.52-3.24-4.76-1.72-7.24C227.57,174.61,230.8,173.84,233.28,175.37z"/>
				</g>
				<g>
					<path class="st3" d="M222.82,202.34c2.47,1.52,3.24,4.76,1.72,7.24c-1.52,2.47-4.76,3.24-7.24,1.72
						c-2.47-1.52-3.24-4.76-1.72-7.24C217.11,201.59,220.35,200.82,222.82,202.34z"/>
				</g>
				<g>
					<path class="st3" d="M172.06,194.03l-29.15,6.71l-0.19-0.17l-18.83-16.25l5.45-29.28l31.38-10.04L180,167.24L172.06,194.03z
						 M143.18,199.66l28.09-6.47l7.62-25.7l-18.49-21.32l-30.18,9.66l-5.23,28.13L143.18,199.66z"/>
				</g>
				<g>
					<polygon class="st3" points="220.43,207.27 190.31,211.92 173.15,195.1 173.85,194.39 190.65,210.86 219.7,206.37 
						229.94,179.95 212.04,160.24 182.3,167.01 182.07,166.03 212.39,159.14 231.1,179.74 					"/>
				</g>
				<g>
					<polygon class="st3" points="111.58,129.3 130.2,156.29 129.38,156.86 111.09,130.35 83.66,133.15 83.55,132.16 					"/>
				</g>
				<g>
					
						<rect x="153.2" y="130.98" transform="matrix(0.3371 -0.9415 0.9415 0.3371 -13.8259 243.3191)" class="st3" width="25.36" height="1"/>
				</g>
			</g>
			<g>
				<g>
					<g>
						<linearGradient id="SVGID_3_" gradientUnits="userSpaceOnUse" x1="413.7839" y1="168.6388" x2="275.5845" y2="305.2029">
							<stop  offset="0" style="stop-color:#B9BDFF"/>
							<stop  offset="1" style="stop-color:#564DC1"/>
						</linearGradient>
						<path class="st4" d="M280.34,325.08c-5.61-27.99-5.04-63.48,6.15-89.74s32.02-48.71,58.3-59.84
							c14.59-6.18,30.4-8.83,45.46-13.76c11.67-3.82,22.88-9.01,33.34-15.43c1.15-0.71,7.19-5.34,7.19-5.34
							c1.19-0.01-0.23,8.45-0.59,11.3c-2.86,22.37-5.76,44.92-13.16,66.23c-7.39,21.3-19.71,41.54-38.12,54.57
							c-15.34,10.86-33.82,16.06-51.5,22.44C309.73,301.88,291.77,310.16,280.34,325.08"/>
					</g>
					<g>
						<g>
							<path class="st5" d="M285.85,315.98c2.69-13.59,8.15-26.46,15.25-38.31c7.18-11.99,15.97-22.95,25.48-33.17
								c10.47-11.24,21.78-21.71,33.75-31.33c11.02-8.86,22.73-16.8,33.95-25.39c10.84-8.3,21.29-17.28,29.68-28.11
								c1-1.29,1.97-2.61,2.91-3.94c0.43-0.61-0.58-1.19-1-0.59c-7.94,11.32-18.22,20.7-29.04,29.21
								c-10.98,8.63-22.56,16.45-33.57,25.04c-12.25,9.56-23.81,19.99-34.57,31.2c-9.64,10.04-18.62,20.8-26.14,32.54
								c-7.43,11.6-13.4,24.23-16.73,37.63c-0.41,1.63-0.77,3.28-1.1,4.93C284.58,316.4,285.7,316.72,285.85,315.98L285.85,315.98z"
								/>
						</g>
						<g>
							<path class="st5" d="M302.13,275.95c4.92-6.13,10.78-11.43,17.19-15.96c6.41-4.52,13.31-8.3,20.4-11.63
								c3.72-1.75,7.48-3.41,11.31-4.9c4.27-1.67,8.61-3.12,12.95-4.58c8.15-2.73,16.36-5.46,23.99-9.46
								c6.79-3.57,13.21-8.16,18.01-14.21c0.59-0.75,1.16-1.51,1.7-2.29c0.43-0.62-0.58-1.2-1-0.59
								c-4.42,6.37-10.63,11.25-17.34,15.03c-7.41,4.16-15.45,6.98-23.47,9.67c-4.34,1.46-8.69,2.89-12.98,4.49
								c-3.93,1.47-7.79,3.12-11.61,4.86c-7.12,3.24-14.07,6.89-20.56,11.26c-6.43,4.33-12.41,9.36-17.5,15.23
								c-0.65,0.74-1.28,1.5-1.89,2.27C300.84,275.7,301.66,276.53,302.13,275.95L302.13,275.95z"/>
						</g>
						<g>
							<path class="st5" d="M314.53,258.24c0.16-5.38,0.79-10.74,1.81-16.02c1.07-5.57,2.56-11.05,4.42-16.41
								c1.88-5.42,4.14-10.7,6.81-15.78c2.62-4.99,5.62-9.79,9.05-14.27c3.25-4.23,6.92-8.17,11.01-11.6
								c0.49-0.41,0.99-0.81,1.49-1.21c0.25-0.2,0.2-0.62,0-0.82c-0.24-0.25-0.58-0.19-0.82,0c-4.22,3.32-8,7.19-11.37,11.37
								c-3.55,4.41-6.67,9.16-9.4,14.13c-2.79,5.09-5.18,10.41-7.18,15.86c-1.97,5.38-3.57,10.89-4.75,16.5
								c-1.13,5.37-1.89,10.84-2.17,16.32c-0.03,0.64-0.06,1.28-0.08,1.93C313.35,258.98,314.51,258.98,314.53,258.24L314.53,258.24
								z"/>
						</g>
						<g>
							<path class="st5" d="M375.06,201.79c1.74-4.51,3.66-8.97,5.84-13.29c2.29-4.53,4.85-8.99,8.04-12.96
								c1.61-2,3.39-3.88,5.42-5.46c0.25-0.19,0.2-0.62,0-0.82c-0.24-0.24-0.57-0.19-0.82,0c-3.81,2.96-6.78,6.93-9.34,10.98
								c-2.79,4.41-5.13,9.11-7.23,13.88c-1.07,2.43-2.07,4.88-3.03,7.36c-0.11,0.29,0.12,0.64,0.41,0.71
								C374.68,202.28,374.95,202.08,375.06,201.79L375.06,201.79z"/>
						</g>
					</g>
				</g>
				<g>
					<g>
						
							<linearGradient id="SVGID_4_" gradientUnits="userSpaceOnUse" x1="125.0019" y1="266.5971" x2="9.6337" y2="380.6003" gradientTransform="matrix(-0.8581 0.5135 0.5135 0.8581 2.9836 -0.8269)">
							<stop  offset="0" style="stop-color:#B9BDFF"/>
							<stop  offset="1" style="stop-color:#564DC1"/>
						</linearGradient>
						<path class="st6" d="M195.29,346.98c-7.98-22.45-23.61-47.63-42.88-61.65c-19.27-14.01-43.81-21.16-67.42-17.87
							c-13.1,1.83-25.56,6.71-38.46,9.63c-9.99,2.27-20.25,3.36-30.5,3.24c-1.13-0.01-7.44-0.74-7.44-0.74
							c-0.86,0.51,3.79,5.96,5.27,7.84c11.64,14.8,23.39,29.71,37.82,41.8c14.43,12.09,31.93,21.3,50.7,22.74
							c15.64,1.2,31.12-2.99,46.51-6C164.29,342.96,180.7,341.19,195.29,346.98"/>
					</g>
					<g>
						<g>
							<path class="st5" d="M187.44,342.82c-7.76-8.58-17.18-15.46-27.35-20.91c-10.29-5.51-21.28-9.6-32.47-12.84
								c-12.32-3.56-24.91-6.21-37.61-7.97c-11.69-1.62-23.48-2.29-35.2-3.63c-11.32-1.3-22.66-3.25-33.32-7.41
								c-1.27-0.5-2.53-1.02-3.77-1.58c-0.57-0.25-0.1-1.1,0.47-0.85c10.54,4.7,21.93,7.02,33.32,8.47
								c11.56,1.48,23.21,2.11,34.78,3.54c12.87,1.59,25.62,4.11,38.13,7.53c11.21,3.06,22.26,6.92,32.67,12.11
								c10.29,5.13,19.98,11.61,28.11,19.78c0.99,1,1.96,2.02,2.9,3.06C188.53,342.58,187.86,343.29,187.44,342.82L187.44,342.82z"
								/>
						</g>
						<g>
							<path class="st5" d="M158.62,321.12c-6.15-2.28-12.62-3.57-19.15-4.06c-6.53-0.49-13.09-0.24-19.6,0.42
								c-3.41,0.34-6.82,0.76-10.2,1.33c-3.77,0.64-7.51,1.45-11.24,2.27c-7.01,1.54-14.05,3.1-21.24,3.51
								c-6.4,0.36-12.96-0.19-18.99-2.46c-0.74-0.28-1.48-0.58-2.2-0.91c-0.57-0.26-0.1-1.1,0.47-0.85
								c5.9,2.67,12.44,3.5,18.87,3.33c7.09-0.19,14.06-1.62,20.96-3.13c3.73-0.82,7.46-1.66,11.23-2.35
								c3.44-0.63,6.92-1.11,10.4-1.5c6.49-0.73,13.03-1.09,19.56-0.75c6.46,0.34,12.91,1.39,19.07,3.41
								c0.78,0.26,1.56,0.53,2.33,0.81C159.43,320.4,159.2,321.34,158.62,321.12L158.62,321.12z"/>
						</g>
						<g>
							<path class="st5" d="M142.14,313.75c-2.42-3.79-5.17-7.35-8.17-10.7c-3.15-3.53-6.57-6.82-10.2-9.86
								c-3.67-3.07-7.56-5.89-11.64-8.38c-4.02-2.45-8.22-4.61-12.6-6.34c-4.14-1.64-8.46-2.89-12.86-3.59
								c-0.53-0.08-1.06-0.16-1.59-0.23c-0.26-0.03-0.41-0.35-0.35-0.59c0.07-0.28,0.33-0.38,0.59-0.35
								c4.45,0.57,8.81,1.72,13.02,3.27c4.44,1.64,8.71,3.7,12.79,6.09c4.18,2.45,8.17,5.24,11.94,8.28c3.72,3,7.23,6.27,10.47,9.78
								c3.11,3.36,6,6.95,8.55,10.76c0.3,0.45,0.59,0.9,0.88,1.35C143.31,313.78,142.47,314.28,142.14,313.75L142.14,313.75z"/>
						</g>
						<g>
							<path class="st5" d="M74.58,299.27c-3.19-2.49-6.46-4.86-9.88-7.02c-3.58-2.27-7.33-4.36-11.31-5.83
								c-2.01-0.74-4.09-1.33-6.22-1.59c-0.26-0.03-0.41-0.36-0.35-0.59c0.07-0.28,0.33-0.38,0.59-0.35c4,0.49,7.83,2.06,11.4,3.86
								c3.89,1.97,7.58,4.33,11.13,6.84c1.81,1.28,3.58,2.61,5.32,3.97c0.21,0.16,0.18,0.51,0.02,0.68
								C75.07,299.46,74.79,299.43,74.58,299.27L74.58,299.27z"/>
						</g>
					</g>
				</g>
				<g>
					<g class="st7">
						
							<linearGradient id="SVGID_5_" gradientUnits="userSpaceOnUse" x1="-29.541" y1="171.0543" x2="-167.7404" y2="307.6184" gradientTransform="matrix(-1 0 0 1 23.2637 0)">
							<stop  offset="0" style="stop-color:#B9BDFF"/>
							<stop  offset="1" style="stop-color:#564DC1"/>
						</linearGradient>
						<path class="st8" d="M186.25,327.49c5.61-27.99,5.04-63.48-6.15-89.74c-11.19-26.26-32.02-48.71-58.3-59.84
							c-14.59-6.18-30.4-8.83-45.46-13.76c-11.67-3.82-22.88-9.01-33.34-15.43c-1.15-0.71-7.19-5.34-7.19-5.34
							c-1.19-0.01,0.23,8.45,0.59,11.3c2.86,22.37,5.76,44.92,13.16,66.23s19.71,41.54,38.12,54.57
							c15.34,10.86,33.82,16.06,51.5,22.44C156.86,304.29,174.82,312.58,186.25,327.49"/>
					</g>
					<g>
						<g>
							<path class="st5" d="M180.74,318.4c-2.69-13.59-8.15-26.46-15.25-38.31c-7.18-11.99-15.97-22.95-25.48-33.17
								c-10.47-11.24-21.78-21.71-33.75-31.33c-11.02-8.86-22.73-16.8-33.95-25.39c-10.84-8.3-21.29-17.28-29.69-28.11
								c-1-1.29-1.97-2.61-2.91-3.94c-0.43-0.61,0.58-1.19,1-0.59c7.94,11.32,18.22,20.7,29.04,29.21
								c10.98,8.63,22.56,16.45,33.57,25.04c12.25,9.56,23.81,19.99,34.57,31.2c9.64,10.04,18.62,20.8,26.14,32.54
								c7.43,11.6,13.4,24.23,16.73,37.63c0.41,1.63,0.77,3.28,1.1,4.93C182.01,318.82,180.89,319.13,180.74,318.4L180.74,318.4z"/>
						</g>
						<g>
							<path class="st5" d="M164.46,278.36c-4.92-6.13-10.78-11.43-17.19-15.96c-6.41-4.52-13.31-8.3-20.4-11.63
								c-3.72-1.75-7.48-3.41-11.31-4.9c-4.27-1.67-8.61-3.12-12.95-4.58c-8.15-2.73-16.36-5.46-23.99-9.46
								c-6.79-3.57-13.21-8.16-18.01-14.21c-0.59-0.75-1.16-1.51-1.7-2.29c-0.43-0.61,0.58-1.2,1-0.59
								c4.42,6.37,10.63,11.25,17.34,15.03c7.41,4.16,15.45,6.98,23.47,9.67c4.34,1.46,8.69,2.89,12.98,4.49
								c3.93,1.47,7.79,3.12,11.61,4.86c7.12,3.24,14.07,6.89,20.56,11.26c6.43,4.33,12.41,9.36,17.5,15.23
								c0.65,0.74,1.28,1.5,1.89,2.27C165.75,278.12,164.93,278.95,164.46,278.36L164.46,278.36z"/>
						</g>
						<g>
							<path class="st5" d="M152.06,260.65c-0.16-5.38-0.79-10.74-1.81-16.02c-1.07-5.57-2.56-11.05-4.42-16.41
								c-1.88-5.42-4.14-10.7-6.81-15.78c-2.62-4.99-5.62-9.79-9.05-14.27c-3.25-4.23-6.92-8.17-11.01-11.6
								c-0.49-0.41-0.99-0.82-1.49-1.21c-0.25-0.2-0.2-0.62,0-0.82c0.24-0.25,0.58-0.19,0.82,0c4.22,3.32,8,7.19,11.37,11.37
								c3.55,4.41,6.67,9.16,9.4,14.13c2.79,5.09,5.18,10.41,7.18,15.86c1.97,5.38,3.57,10.89,4.75,16.5
								c1.13,5.37,1.89,10.84,2.17,16.32c0.03,0.64,0.06,1.28,0.08,1.93C153.24,261.4,152.08,261.4,152.06,260.65L152.06,260.65z"/>
						</g>
						<g>
							<path class="st5" d="M91.53,204.21c-1.74-4.51-3.66-8.97-5.84-13.29c-2.29-4.53-4.85-8.99-8.04-12.96
								c-1.61-2-3.39-3.88-5.42-5.46c-0.25-0.19-0.2-0.62,0-0.82c0.24-0.24,0.57-0.19,0.82,0c3.81,2.96,6.78,6.93,9.34,10.98
								c2.79,4.41,5.13,9.11,7.23,13.88c1.07,2.43,2.07,4.88,3.03,7.36c0.11,0.29-0.12,0.64-0.41,0.71
								C91.91,204.7,91.64,204.5,91.53,204.21L91.53,204.21z"/>
						</g>
					</g>
				</g>
				<g>
					<g class="st7">
						
							<linearGradient id="SVGID_6_" gradientUnits="userSpaceOnUse" x1="-466.0497" y1="288.4748" x2="-582.9719" y2="404.0135" gradientTransform="matrix(0.838 0.5456 -0.5456 0.838 991.7175 305.9331)">
							<stop  offset="0" style="stop-color:#B9BDFF"/>
							<stop  offset="1" style="stop-color:#564DC1"/>
						</linearGradient>
						<path class="st9" d="M276.93,342.72c8.94-22.43,25.73-47.34,45.79-60.79c20.05-13.45,45.18-19.75,68.96-15.52
							c13.2,2.35,25.63,7.77,38.58,11.23c10.03,2.68,20.38,4.18,30.76,4.45c1.14,0.03,7.56-0.46,7.56-0.46
							c0.85,0.55-4.06,5.89-5.64,7.74c-12.35,14.54-24.82,29.19-39.9,40.88c-15.08,11.69-33.15,20.35-52.22,21.09
							c-15.89,0.62-31.4-4.22-46.87-7.86C308.47,339.84,291.92,337.42,276.93,342.72"/>
					</g>
					<g>
						<g>
							<path class="st5" d="M285.03,338.81c8.18-8.39,17.99-15,28.5-20.13c10.63-5.18,21.92-8.9,33.38-11.76
								c12.61-3.14,25.46-5.33,38.39-6.63c11.9-1.2,23.87-1.42,35.79-2.33c11.51-0.88,23.07-2.42,34.02-6.23
								c1.31-0.45,2.6-0.94,3.88-1.45c0.59-0.24,0.14-1.11-0.44-0.88c-10.85,4.36-22.48,6.27-34.07,7.3
								c-11.77,1.05-23.59,1.25-35.36,2.25c-13.09,1.12-26.11,3.18-38.91,6.16c-11.47,2.67-22.81,6.15-33.55,11.01
								c-10.62,4.8-20.68,10.99-29.23,18.96c-1.04,0.97-2.06,1.97-3.05,2.99C283.94,338.53,284.59,339.27,285.03,338.81
								L285.03,338.81z"/>
						</g>
						<g>
							<path class="st5" d="M315.05,317.94c6.32-2.07,12.92-3.13,19.55-3.38c6.63-0.25,13.27,0.26,19.84,1.17
								c3.44,0.48,6.88,1.04,10.28,1.74c3.79,0.79,7.55,1.76,11.29,2.73c7.04,1.83,14.11,3.68,21.37,4.36
								c6.46,0.61,13.13,0.31,19.33-1.76c0.76-0.26,1.52-0.53,2.27-0.84c0.59-0.24,0.14-1.11-0.44-0.88
								c-6.08,2.48-12.73,3.07-19.23,2.65c-7.17-0.47-14.17-2.18-21.11-3.98c-3.75-0.97-7.5-1.97-11.28-2.81
								c-3.46-0.77-6.96-1.39-10.47-1.92c-6.54-0.99-13.16-1.61-19.78-1.51c-6.56,0.1-13.12,0.91-19.44,2.72
								c-0.8,0.23-1.6,0.48-2.39,0.74C314.26,317.18,314.45,318.14,315.05,317.94L315.05,317.94z"/>
						</g>
						<g>
							<path class="st5" d="M332.02,311.11c2.59-3.74,5.52-7.25,8.68-10.52c3.33-3.45,6.92-6.65,10.71-9.59
								c3.83-2.97,7.88-5.67,12.11-8.04c4.16-2.33,8.5-4.35,13.01-5.94c4.26-1.5,8.67-2.6,13.16-3.14c0.54-0.06,1.08-0.12,1.62-0.17
								c0.27-0.02,0.43-0.34,0.38-0.58c-0.06-0.29-0.32-0.4-0.58-0.38c-4.53,0.41-8.99,1.4-13.31,2.81
								c-4.56,1.49-8.96,3.42-13.18,5.68c-4.33,2.32-8.48,4.99-12.41,7.93c-3.88,2.9-7.56,6.08-10.98,9.5
								c-3.28,3.29-6.34,6.81-9.07,10.57c-0.32,0.44-0.63,0.88-0.94,1.33C330.84,311.09,331.66,311.63,332.02,311.11L332.02,311.11z
								"/>
						</g>
						<g>
							<path class="st5" d="M401,299.03c3.32-2.4,6.73-4.67,10.27-6.73c3.71-2.16,7.59-4.14,11.68-5.47
								c2.06-0.68,4.19-1.19,6.36-1.37c0.26-0.02,0.43-0.35,0.38-0.58c-0.06-0.29-0.32-0.4-0.58-0.38
								c-4.07,0.34-8.01,1.79-11.69,3.48c-4.01,1.84-7.84,4.09-11.53,6.51c-1.88,1.23-3.72,2.5-5.54,3.82
								c-0.22,0.16-0.21,0.51-0.04,0.69C400.5,299.21,400.78,299.19,401,299.03L401,299.03z"/>
						</g>
					</g>
				</g>
			</g>
			<g>
				<path class="st10" d="M257.21,224.27"/>
			</g>
			<g>
				<path class="st11" d="M246.34,222.48c0.03,0.27,0.11,0.52,0.3,0.74c0.3,0.37,0.78,0.54,1.24,0.69c0.52,0.16,1.05,0.3,1.59,0.42
					C248.36,223.81,247.32,223.2,246.34,222.48z"/>
			</g>
			<g>
				<g>
					<path class="st12" d="M122.46,270.5c3.86-0.71,6.41-4.42,5.7-8.28v0c-0.71-3.86-4.42-6.41-8.28-5.7l-8.63,1.59l2.58,13.98
						L122.46,270.5z"/>
					<path class="st3" d="M111.25,258.12l-8.63,1.59c-3.86,0.71-6.41,4.42-5.7,8.28l0,0c0.71,3.86,4.42,6.41,8.28,5.7l8.63-1.59
						L111.25,258.12z"/>
				</g>
				<g>
					<path class="st12" d="M113.83,222.19c2.36-3.14,1.73-7.59-1.41-9.95v0c-3.14-2.36-7.59-1.73-9.95,1.41l-5.27,7.02l11.36,8.54
						L113.83,222.19z"/>
					<path class="st3" d="M97.2,220.67l-5.27,7.02c-2.36,3.14-1.73,7.59,1.41,9.95l0,0c3.14,2.36,7.59,1.73,9.95-1.41l5.27-7.02
						L97.2,220.67z"/>
				</g>
				<g>
					<path class="st12" d="M74.49,234.28c-0.31-3.91-3.74-6.83-7.65-6.52h0c-3.91,0.31-6.83,3.74-6.52,7.65l0.7,8.75l14.17-1.13
						L74.49,234.28z"/>
					<path class="st3" d="M61.02,244.16l0.7,8.75c0.31,3.91,3.74,6.83,7.65,6.52h0c3.91-0.31,6.83-3.74,6.52-7.65l-0.7-8.75
						L61.02,244.16z"/>
				</g>
			</g>
			<g>
				<path class="st13" d="M356.38,288.31v-43.04H322.2v43.06c0,4.61-2.79,8.77-7.07,10.49c-22.26,8.94-38.11,30.49-38.68,55.82
					c-0.77,33.84,26.33,62.29,60.17,63.09c34.75,0.82,63.17-27.1,63.17-61.66c0-24.82-14.66-46.21-35.79-56
					C359.4,297.93,356.38,293.39,356.38,288.31z"/>
				<path class="st3" d="M278.58,339.91c-1.28,4.71-2.02,9.64-2.13,14.73c-0.77,33.84,26.33,62.29,60.17,63.09
					c34.75,0.82,63.17-27.1,63.17-61.66c0-6.39-0.98-12.54-2.78-18.34C357.55,338.93,318.07,339.66,278.58,339.91z"/>
				<path class="st14" d="M305.88,346.32c9.46,1.13,18.89,0.6,28.31-0.61c10.07-1.29,19.98-3.5,30.03-4.87
					c8.55-1.16,17.2-1.45,25.71-2.85c0.01-0.02,0.02-0.04,0.03-0.07c-37.02,1.08-74.06,1.75-111.1,1.98
					C287.68,342.74,296.68,345.22,305.88,346.32z"/>
				<path class="st14" d="M399.08,346.76c-3.63,11.21-11.53,21.9-19.36,30.44c-8.45,9.21-18.9,15.72-30.46,20.33
					c-12.77,5.1-26.22,3.92-39.54,2.03c-7.67-1.09-14.88-3.39-21.34-7.21c10.95,14.95,28.44,24.9,48.24,25.37
					c34.75,0.82,63.17-27.1,63.17-61.66C399.8,352.9,399.54,349.8,399.08,346.76z"/>
				<path class="st15" d="M338.13,418.2c-0.51,0-1.01-0.01-1.52-0.02c-34.2-0.81-61.4-29.32-60.62-63.56
					c0.57-24.87,15.86-46.95,38.97-56.23c4.12-1.66,6.78-5.61,6.78-10.06v-43.51h35.09v43.49c0,4.82,2.89,9.27,7.36,11.34
					c21.9,10.14,36.06,32.29,36.06,56.41c0,16.87-6.65,32.66-18.72,44.46C369.82,411.96,354.46,418.2,338.13,418.2z M322.66,245.73
					v42.6c0,4.83-2.89,9.12-7.36,10.91c-22.77,9.15-37.84,30.89-38.4,55.4c-0.77,33.74,26.03,61.83,59.73,62.63
					c16.64,0.38,32.36-5.79,44.26-17.4c11.9-11.62,18.45-27.18,18.45-43.8c0-23.77-13.95-45.59-35.53-55.58
					c-4.79-2.22-7.89-7-7.89-12.17v-42.58H322.66z"/>
				<path class="st15" d="M357.6,253.13h-36.62c-1.6,0-2.91-1.3-2.91-2.91v-2.05c0-1.6,1.3-2.91,2.91-2.91h36.62
					c1.6,0,2.91,1.3,2.91,2.91v2.05C360.51,251.83,359.21,253.13,357.6,253.13z"/>
				<path class="st16" d="M356.46,307.73c0,0,27.86,33.04,16.27,72.73C372.73,380.46,406.63,330.29,356.46,307.73z"/>
				<circle class="st14" cx="295.56" cy="366.65" r="4.19"/>
				<circle class="st14" cx="339.9" cy="387.69" r="4.19"/>
				<circle class="st14" cx="354.57" cy="354.49" r="4.19"/>
				<circle class="st14" cx="362.95" cy="374.37" r="2.37"/>
				<path class="st14" d="M302.12,385.87c0,1.31-1.06,2.37-2.37,2.37s-2.37-1.06-2.37-2.37s1.06-2.37,2.37-2.37
					S302.12,384.56,302.12,385.87z"/>
				<path class="st14" d="M329.71,361.05c0,1.31-1.06,2.37-2.37,2.37s-2.37-1.06-2.37-2.37c0-1.31,1.06-2.37,2.37-2.37
					S329.71,359.74,329.71,361.05z"/>
			</g>
			<g>
				<g>
					<g>
						<g>
							<path class="st17" d="M247.03,202.9c2.9,5.27,2.91,12.01,0.04,17.29c-0.52,0.96-1.12,2.19-0.43,3.04
								c0.3,0.37,0.78,0.54,1.24,0.69c3.42,1.05,7.09,1.3,10.63,0.73c0.94-0.15,1.91-0.38,2.63-1.01c0.13-0.12,0.26-0.26,0.3-0.43
								c0.07-0.34-0.23-0.64-0.49-0.87c-1.91-1.74-2.82-4.36-3.01-6.94s0.27-5.15,0.73-7.69"/>
						</g>
						<g>
							<path class="st11" d="M249.26,210.16c1.36,4.52,4.87,6.03,8.82,6.47c-0.07-0.42-0.13-0.83-0.16-1.25
								c-0.19-2.58,0.27-5.15,0.73-7.69l-11.63-4.8c1.16,2.11,1.85,4.45,2.08,6.84C249.16,209.88,249.22,210.01,249.26,210.16z"/>
						</g>
					</g>
					<g>
						<g>
							<path class="st12" d="M254.72,336.34c-1.06,4-1.52,8.14-1.97,12.26c-1.87,16.86-3.73,33.73-5.6,50.59
								c-0.08,0.69-0.18,1.45-0.67,1.94c-0.7,0.71-1.85,0.6-2.83,0.44c-2.4-0.39-4.8-0.77-7.19-1.16c-0.41-0.07-0.86-0.16-1.12-0.49
								c-0.2-0.25-0.23-0.59-0.25-0.91c-1.33-18.02-2.65-36.08-1.99-54.14c0.31-8.43,1.06-16.85,1.12-25.28"/>
						</g>
						<g>
							<path class="st12" d="M236.3,398.71c-0.22,1.58-0.82,4.82-1.04,6.4c-0.15,1.07-0.27,2.25,0.3,3.17
								c0.77,1.23,2.44,1.46,3.88,1.55c4.66,0.29,9.32,0.35,13.99,0.42c1.9,0.03,2.86,0.04,4.76,0.07c0.48,0.01,1.75-0.25,2.07-0.61
								c0.71-0.77-0.04-2.11-0.14-2.25c-2-2.93-5.37-2.54-8.84-3.27c-2.29-0.48-4.72-1.19-6.47-2.74"/>
						</g>
					</g>
					<g>
						<g>
							<path class="st12" d="M258.95,336.48c0.78,4.07,0.95,8.22,1.12,12.36c0.7,16.95,1.39,33.9,2.09,50.86
								c0.03,0.7,0.08,1.46,0.53,1.99c0.65,0.75,1.8,0.73,2.79,0.64c2.42-0.22,4.84-0.44,7.26-0.66c0.42-0.04,0.87-0.1,1.15-0.41
								c0.21-0.24,0.27-0.58,0.31-0.89c2.57-17.88,5.14-35.81,5.73-53.87c0.27-8.43,0.11-16.88,0.63-25.3"/>
						</g>
						<g>
							<path class="st12" d="M263.8,401.33c-0.22,1.58-0.43,3.16-0.65,4.74c-0.15,1.07-0.27,2.25,0.3,3.17
								c0.77,1.23,2.44,1.46,3.88,1.55c4.66,0.29,9.32,0.35,13.99,0.42c1.9,0.03,2.86,0.04,4.76,0.07c0.48,0.01,1.75-0.25,2.07-0.61
								c0.71-0.77-0.04-2.11-0.14-2.25c-2-2.93-5.37-2.54-8.84-3.27c-2.29-0.48-7.29-1.84-7.33-4.47"/>
						</g>
					</g>
					<g>
						<g>
							<g>
								<path class="st17" d="M317.59,224c0.88-0.95,1.76-1.88,2.66-2.8c0.37-0.38,0.75-0.76,1.2-1.02c1.18-0.69,2.66-0.49,4.02-0.4
									c3.39,0.24,6.82-0.29,9.98-1.53c0.5-0.2,1.03-0.41,1.55-0.28c0.67,0.18,1.07,0.93,1.04,1.63c-0.05,1.03-0.84,1.9-1.77,2.34
									c-0.93,0.44-1.98,0.54-3,0.63c-1.25,0.11-2.51,0.22-3.76,0.32c-1.54,0.13-3.1,0.27-4.56,0.8c-1.45,0.53-2.82,1.49-3.48,2.89
									"/>
							</g>
							<path class="st18" d="M276.32,223.81l19.03,18.46l21.21-21.35l8.64,6.87c0,0-17.3,22.47-28.07,30.8
								c-0.91,0.7-2.08,0.81-3.09,0.31c-3.48-1.72-11.71-6.15-15.62-11.28C273.39,241.01,276.32,223.81,276.32,223.81z"/>
						</g>
						<path class="st19" d="M248.88,218.59c1.79,1.05,5.59,2.66,9.41,0.23c0.53-0.34,1.2-0.4,1.78-0.17l2.96,1.15l-1.59,45.83
							l-16.87-44.28l2.28-2.45C247.39,218.34,248.22,218.21,248.88,218.59z"/>
						<path class="st18" d="M246.28,219.39c0,0,10.8,20.21,13.54,27.26l3.25,94.04c0,0-15.79,2.11-39.2-2.11
							c0,0,9.47-61.52,9.04-76.59c-0.36-12.28-1.81-27.07-2.34-32.13c-0.11-1.09,0.44-2.14,1.41-2.67L246.28,219.39z"/>
						<path class="st18" d="M260.78,218.98l-0.98,28.32l3.27,93.38l25.55-1.76c0,0-5.9-40.48-8.27-69.28
							c-1.9-23.06-2.86-38.67-3.16-43.97c-0.07-1.2-0.89-2.23-2.05-2.56L260.78,218.98z"/>
						<path class="st20" d="M259.82,246.65l-13.61-10.72l3.22-5.01l-6.32-0.83l-0.2-8.86l3.36-1.83
							C246.28,219.39,257.79,240.18,259.82,246.65z"/>
						<path class="st20" d="M259.82,246.65l7.89-13.72l-4.14-2.83l4.93-1.21l-2.57-8.42l-5.16-1.49
							C260.78,218.98,259.5,241.56,259.82,246.65z"/>
						<polygon class="st20" points="249.44,294.01 231.38,293.38 232.32,287.56 249.64,288.16 						"/>
						<polygon class="st20" points="274.07,293.76 283.01,293.34 282.36,287.51 273.8,287.91 						"/>
						<polygon class="st20" points="259.86,246.3 260.42,340.94 261.91,340.82 260.41,244.51 						"/>
						<path class="st20" d="M232.23,274.76l0.85-7.36l27.12-8.46C260.21,258.93,252.39,269.43,232.23,274.76z"/>
						<path class="st20" d="M235.95,248.15c0,0,0.41,2.23,0.97,5.88c0.55,3.65,16.94-0.42,16.94-0.42s-14.09,14.1-19.54,11.93
							c-5.46-2.17-2.14-13.57-2.14-13.57l1.91-8.39L235.95,248.15z"/>
						<path class="st21" d="M274.09,270.4l-20.92,1.67c-0.88,0.07-1.66-0.59-1.73-1.47l-2.5-31.27c-0.07-0.88,0.59-1.66,1.47-1.73
							l20.92-1.67c0.88-0.07,1.66,0.59,1.73,1.47l2.5,31.28C275.63,269.56,274.98,270.33,274.09,270.4z"/>
						<g>
							<g>
								<path class="st17" d="M255.53,254.71c1.05,0.31,2.19-0.19,3.01-0.91c0.82-0.72,1.43-1.65,2.17-2.46
									c1.33-1.43,3.04-1.98,4.95-2.35c0.53-0.1,1.33-0.47,1.41,0.06c0.03,0.18-0.04,0.36-0.12,0.52c-0.75,1.46-3.3,1.43-3.21,3.06
									c3.58-1.23,7.61-1.63,11.2-2.86c0.47-0.16,1.08-0.29,1.39,0.1c0.31,0.38,0.06,0.95-0.2,1.37c-2.41,3.92-5.03,6.72-9.48,7.91
									c-2.1,0.57-4.79,1.61-6.96,1.72c-2.17,0.11-4.45,0.48-6.15,1.83"/>
							</g>
							<path class="st18" d="M231.01,228.09c0,0,5.18,9.96,4.94,21.42l-1.2,9.11l21.63-5.65l1.46,8.76c0,0-12.16,10.52-32.94,11.86
								c-1.81,0.12-3.34-1.34-3.34-3.16C221.59,262.09,223.08,239.97,231.01,228.09z"/>
						</g>
					</g>
					<g>
						<g>
							<path class="st17" d="M244.87,186.82c-2.91,7.81-1.05,17.18,4.62,23.28c1.75,1.89,4.1,3.56,6.67,3.35
								c3.43-0.28,5.67-3.68,7-6.85c1.61-3.83,1.82-8.51,1.42-12.64c-0.4-4.13-1.61-7.72-5.18-9.85c-3.57-2.13-8.65-1.8-11.43,1.29"
								/>
						</g>
						<g>
							<g>
								<path class="st17" d="M244.87,198.64c-0.78-1.19-2.12-1.46-2.89-0.67c-0.76,0.79-0.91,2.46-0.41,3.87
									c0.5,1.41,1.55,2.49,2.61,2.81c0.52,0.16,1.06,0.15,1.47-0.16c0.72-0.54,0.91-1.81,0.95-3.02"/>
							</g>
							<path class="st11" d="M244.95,201.2c0.23,0.75,0.1,1.45-0.3,1.58c-0.4,0.12-0.91-0.38-1.14-1.13
								c-0.23-0.75-0.1-1.45,0.3-1.58C244.21,199.95,244.72,200.46,244.95,201.2z"/>
						</g>
						<g>
							<path class="st22" d="M263.04,198.8c-0.02,0.56-0.37,1-0.79,0.99c-0.42-0.01-0.74-0.48-0.72-1.04c0.02-0.56,0.37-1,0.79-0.99
								C262.74,197.78,263.06,198.24,263.04,198.8z"/>
							<path class="st22" d="M254.08,198.49c-0.02,0.56-0.37,1-0.79,0.99c-0.42-0.01-0.74-0.48-0.72-1.04
								c0.02-0.56,0.37-1,0.79-0.99C253.78,197.47,254.1,197.93,254.08,198.49z"/>
							<g>
								<path class="st11" d="M257.68,198.27c-0.14,0.5-0.13,1.07-0.08,1.58c0.12,1.42,0.63,2.78,1.31,4.03
									c0.05-0.15,0.09-0.3,0.14-0.45c-0.59,0.34-1.31,0.61-2,0.52c-0.43-0.06-0.45,0.61-0.02,0.67c0.79,0.1,1.66-0.2,2.34-0.6
									c0.15-0.09,0.23-0.29,0.14-0.45c-0.63-1.15-1.13-2.42-1.23-3.75c-0.03-0.34-0.03-0.69,0.01-1.04
									c0.01-0.05,0.01-0.11,0.02-0.16c0.02-0.11-0.01,0.03,0.01-0.05c0.01-0.03,0.01-0.07,0.02-0.1
									C258.43,198.05,257.79,197.85,257.68,198.27L257.68,198.27z"/>
							</g>
							<path class="st22" d="M255.37,194.97c0,0-1.34-0.67-2.99-0.54c-1.65,0.13-3.03,1.09-2.67,1.22c0.35,0.13,2.03-0.69,3.64-0.28
								c1.62,0.41,1.93,0.35,2.17,0.27C255.77,195.55,255.76,195.13,255.37,194.97z"/>
							<path class="st22" d="M259.88,195.13c0,0,1.15-0.58,2.52-0.35c1.36,0.23,2.45,1.28,2.15,1.39c-0.3,0.11-1.64-0.82-3.01-0.51
								c-1.37,0.31-1.63,0.23-1.83,0.13C259.51,195.68,259.54,195.26,259.88,195.13z"/>
							<path class="st11" d="M253.68,202.5c-0.03,0.96-1.05,1.71-2.27,1.67c-1.22-0.04-2.18-0.86-2.15-1.82
								c0.03-0.96,1.05-1.71,2.27-1.67C252.75,200.72,253.71,201.54,253.68,202.5z"/>
							<path class="st11" d="M264.28,202.6c-0.03,0.96-0.84,1.72-1.81,1.69c-0.96-0.03-1.72-0.84-1.69-1.81s0.84-1.72,1.81-1.69
								S264.31,201.64,264.28,202.6z"/>
							<path class="st11" d="M259.19,206.78c0,0-1.87-0.64-4.38-0.15C254.81,206.63,256.92,209.09,259.19,206.78z"/>
						</g>
						<g>
							<path class="st22" d="M270.53,186.09c-0.48-1.93-1.83-3.53-3.47-4.16c-2.69-1.01-5.76,0.51-8.42-0.62
								c-1.61-0.68-2.85-2.27-4.49-2.85c-2.07-0.73-4.33,0.29-6.14,1.7c-0.82,0.64-1.61,1.41-2.28,2.27
								c-0.56,0.72-1.35,1.19-2.22,1.28c-3.22,0.33-3.81,5.17-3.62,7.64c0.19,2.57,1.05,5.02,2.47,7c0.83,1.16,2.14,2.27,3.32,1.64
								c0.95-0.51,1.05-1.91,1.31-3.09c0.29-1.34,0.49-2.57,0.91-3.67c0.88-2.29,2.77-1.13,4.87-0.6c2.87,0.74,5.35,1.42,8.29,1.75
								c3.81,0.43,6.62,0.08,8.48-2.6C270.63,190.22,271.02,188.02,270.53,186.09z"/>
						</g>
					</g>
				</g>
				<g>
					<g>
						<path class="st5" d="M318.98,214.64L318.98,214.64c-2.31,0.06-4.22-1.76-4.29-4.07l-0.68-26.06l8.35-0.22l0.68,26.06
							C323.11,212.66,321.29,214.58,318.98,214.64z"/>
						<path class="st23" d="M318.99,214.86c-2.43,0.06-4.45-1.86-4.52-4.29l-0.69-26.28l8.8-0.23l0.69,26.28
							C323.34,212.77,321.42,214.8,318.99,214.86z M314.25,184.73l0.67,25.83c0.06,2.18,1.88,3.9,4.05,3.85
							c2.18-0.06,3.91-1.88,3.85-4.05l-0.67-25.83L314.25,184.73z"/>
					</g>
					<g>
						<path class="st23" d="M322.22,185.39l-7.9,0.21c-0.55,0.01-1.01-0.42-1.02-0.97l0,0c-0.01-0.55,0.42-1.01,0.97-1.02l7.9-0.21
							c0.55-0.01,1.01,0.42,1.02,0.97l0,0C323.21,184.92,322.77,185.38,322.22,185.39z"/>
					</g>
					<g>
						<g>
							<defs>
								<path id="SVGID_7_" d="M315.01,200.49l0.26,9.79c0.05,2.03,1.71,3.63,3.7,3.58l0,0c1.99-0.05,3.56-1.74,3.51-3.77
									l-0.26-9.79L315.01,200.49z"/>
							</defs>
							<clipPath id="SVGID_8_">
								<use xlink:href="#SVGID_7_"  style="overflow:visible;"/>
							</clipPath>
							<polygon class="st24" points="322.22,200.55 315.02,200.6 315.01,200.49 322.21,200.3 							"/>
							<polygon class="st25" points="322.23,200.82 315.02,200.87 315.02,200.6 322.22,200.55 							"/>
							<polygon class="st26" points="322.24,201.09 315.03,201.15 315.02,200.87 322.23,200.82 							"/>
							<polygon class="st27" points="322.24,201.36 315.04,201.42 315.03,201.15 322.24,201.09 							"/>
							<polygon class="st28" points="322.25,201.64 315.04,201.69 315.04,201.42 322.24,201.36 							"/>
							<polygon class="st29" points="322.26,201.91 315.05,201.96 315.04,201.69 322.25,201.64 							"/>
							<polygon class="st30" points="322.26,202.18 315.06,202.24 315.05,201.96 322.26,201.91 							"/>
							<polygon class="st31" points="322.27,202.45 315.06,202.51 315.06,202.24 322.26,202.18 							"/>
							<polygon class="st32" points="322.28,202.73 315.07,202.78 315.06,202.51 322.27,202.45 							"/>
							<polygon class="st33" points="322.29,203 315.08,203.05 315.07,202.78 322.28,202.73 							"/>
							<polygon class="st34" points="322.29,203.27 315.09,203.33 315.08,203.05 322.29,203 							"/>
							<polygon class="st35" points="322.3,203.54 315.09,203.6 315.09,203.33 322.29,203.27 							"/>
							<polygon class="st36" points="322.31,203.82 315.1,203.87 315.09,203.6 322.3,203.54 							"/>
							<polygon class="st37" points="322.31,204.09 315.11,204.14 315.1,203.87 322.31,203.82 							"/>
							<polygon class="st38" points="322.32,204.36 315.11,204.42 315.11,204.14 322.31,204.09 							"/>
							<polygon class="st39" points="322.33,204.63 315.12,204.69 315.11,204.42 322.32,204.36 							"/>
							<polygon class="st40" points="322.33,204.91 315.13,204.96 315.12,204.69 322.33,204.63 							"/>
							<polygon class="st41" points="322.34,205.18 315.14,205.23 315.13,204.96 322.33,204.91 							"/>
							<polygon class="st42" points="322.35,205.45 315.14,205.51 315.14,205.23 322.34,205.18 							"/>
							<polygon class="st43" points="322.36,205.72 315.15,205.78 315.14,205.51 322.35,205.45 							"/>
							<polygon class="st44" points="322.36,206 315.16,206.05 315.15,205.78 322.36,205.72 							"/>
							<polygon class="st45" points="322.37,206.27 315.16,206.32 315.16,206.05 322.36,206 							"/>
							<polygon class="st46" points="322.38,206.54 315.17,206.6 315.16,206.32 322.37,206.27 							"/>
							<polygon class="st47" points="322.38,206.81 315.18,206.87 315.17,206.6 322.38,206.54 							"/>
							<polygon class="st48" points="322.39,207.08 315.19,207.14 315.18,206.87 322.38,206.81 							"/>
							<polygon class="st49" points="322.4,207.36 315.19,207.41 315.19,207.14 322.39,207.08 							"/>
							<polygon class="st50" points="322.41,207.63 315.2,207.68 315.19,207.41 322.4,207.36 							"/>
							<polygon class="st51" points="322.41,207.9 315.21,207.96 315.2,207.68 322.41,207.63 							"/>
							<polygon class="st52" points="322.42,208.17 315.21,208.23 315.21,207.96 322.41,207.9 							"/>
							<polygon class="st53" points="322.43,208.45 315.22,208.5 315.21,208.23 322.42,208.17 							"/>
							<polygon class="st54" points="322.43,208.72 315.23,208.77 315.22,208.5 322.43,208.45 							"/>
							<polygon class="st55" points="322.44,208.99 315.24,209.05 315.23,208.77 322.43,208.72 							"/>
							<polygon class="st56" points="322.45,209.26 315.24,209.32 315.24,209.05 322.44,208.99 							"/>
							<polygon class="st57" points="322.46,209.54 315.25,209.59 315.24,209.32 322.45,209.26 							"/>
							<polygon class="st58" points="322.46,209.81 315.26,209.86 315.25,209.59 322.46,209.54 							"/>
							<polygon class="st59" points="322.47,210.08 315.26,210.14 315.26,209.86 322.46,209.81 							"/>
							<polygon class="st60" points="322.48,210.35 315.27,210.41 315.26,210.14 322.47,210.08 							"/>
							<polygon class="st61" points="322.48,210.63 315.28,210.68 315.27,210.41 322.48,210.35 							"/>
							<polygon class="st62" points="322.49,210.9 315.28,210.95 315.28,210.68 322.48,210.63 							"/>
							<polygon class="st63" points="322.5,211.17 315.29,211.23 315.28,210.95 322.49,210.9 							"/>
							<polygon class="st64" points="322.51,211.44 315.3,211.5 315.29,211.23 322.5,211.17 							"/>
							<polygon class="st65" points="322.51,211.72 315.31,211.77 315.3,211.5 322.51,211.44 							"/>
							<polygon class="st66" points="322.52,211.99 315.31,212.04 315.31,211.77 322.51,211.72 							"/>
							<polygon class="st67" points="322.53,212.26 315.32,212.32 315.31,212.04 322.52,211.99 							"/>
							<polygon class="st68" points="322.53,212.53 315.33,212.59 315.32,212.32 322.53,212.26 							"/>
							<polygon class="st69" points="322.54,212.81 315.33,212.86 315.33,212.59 322.53,212.53 							"/>
							<polygon class="st70" points="322.55,213.08 315.34,213.13 315.33,212.86 322.54,212.81 							"/>
							<polygon class="st71" points="322.55,213.35 315.35,213.41 315.34,213.13 322.55,213.08 							"/>
							<polygon class="st72" points="322.56,213.62 315.36,213.68 315.35,213.41 322.55,213.35 							"/>
							<polygon class="st73" points="315.55,213.95 315.36,213.95 315.36,213.68 322.56,213.62 322.57,213.77 							"/>
							<polygon class="st74" points="315.36,213.95 315.55,213.95 315.36,213.95 							"/>
						</g>
					</g>
					<g>
						<path class="st5" d="M332.55,214.28L332.55,214.28c-2.31,0.06-4.23-1.76-4.29-4.07l-0.68-26.06l8.35-0.22l0.68,26.06
							C336.68,212.31,334.86,214.22,332.55,214.28z"/>
						<path class="st23" d="M332.56,214.51c-2.43,0.06-4.45-1.86-4.52-4.29l-0.69-26.28l8.8-0.23l0.69,26.28
							C336.91,212.42,334.99,214.45,332.56,214.51z M327.82,184.38l0.67,25.83c0.06,2.18,1.88,3.9,4.05,3.85
							c2.18-0.06,3.9-1.88,3.85-4.05l-0.67-25.83L327.82,184.38z"/>
					</g>
					<g>
						<path class="st23" d="M335.79,185.04l-7.9,0.21c-0.55,0.01-1.01-0.42-1.02-0.97l0,0c-0.01-0.55,0.42-1.01,0.97-1.02l7.9-0.21
							c0.55-0.01,1.01,0.42,1.02,0.97l0,0C336.78,184.56,336.34,185.02,335.79,185.04z"/>
					</g>
					<g>
						<g>
							<defs>
								<path id="SVGID_9_" d="M328.58,200.13l0.26,9.79c0.05,2.03,1.71,3.63,3.7,3.58l0,0c1.99-0.05,3.56-1.74,3.51-3.77
									l-0.26-9.79L328.58,200.13z"/>
							</defs>
							<clipPath id="SVGID_10_">
								<use xlink:href="#SVGID_9_"  style="overflow:visible;"/>
							</clipPath>
							<polygon class="st75" points="335.82,201.35 335.51,199.95 335.78,199.95 							"/>
							<polygon class="st76" points="335.94,205.83 334.64,199.98 335.51,199.95 335.82,201.35 							"/>
							<polygon class="st77" points="336.05,210.31 333.77,200 334.64,199.98 335.94,205.83 							"/>
							<polygon class="st78" points="335.87,213.42 332.89,200.02 333.77,200 336.05,210.31 336.14,213.41 							"/>
							<polygon class="st79" points="335,213.44 332.02,200.04 332.89,200.02 335.87,213.42 							"/>
							<polygon class="st80" points="334.12,213.46 331.15,200.07 332.02,200.04 335,213.44 							"/>
							<polygon class="st81" points="333.25,213.49 330.28,200.09 331.15,200.07 334.12,213.46 							"/>
							<polygon class="st82" points="332.38,213.51 329.4,200.11 330.28,200.09 333.25,213.49 							"/>
							<polygon class="st83" points="331.51,213.53 328.59,200.39 328.58,200.13 329.4,200.11 332.38,213.51 							"/>
							<polygon class="st84" points="330.63,213.56 328.7,204.86 328.59,200.39 331.51,213.53 							"/>
							<polygon class="st85" points="329.76,213.58 328.82,209.34 328.7,204.86 330.63,213.56 							"/>
							<polygon class="st86" points="328.82,209.34 329.76,213.58 328.93,213.6 							"/>
						</g>
					</g>
					<g>
						<path class="st5" d="M346.39,213.92L346.39,213.92c-2.31,0.06-4.23-1.76-4.29-4.07l-0.68-26.06l8.35-0.22l0.68,26.06
							C350.52,211.94,348.7,213.86,346.39,213.92z"/>
						<path class="st23" d="M346.4,214.15c-2.43,0.06-4.45-1.86-4.52-4.29l-0.69-26.28l8.8-0.23l0.69,26.28
							C350.75,212.06,348.83,214.09,346.4,214.15z M341.66,184.02l0.67,25.83c0.06,2.18,1.88,3.9,4.05,3.85
							c2.18-0.06,3.9-1.88,3.85-4.05l-0.67-25.83L341.66,184.02z"/>
					</g>
					<g>
						<path class="st23" d="M349.63,184.68l-7.9,0.21c-0.55,0.01-1.01-0.42-1.02-0.97l0,0c-0.01-0.55,0.42-1.01,0.97-1.02l7.9-0.21
							c0.55-0.01,1.01,0.42,1.02,0.97l0,0C350.61,184.2,350.18,184.66,349.63,184.68z"/>
					</g>
					<g>
						<path class="st3" d="M342.42,199.77l0.26,9.79c0.05,2.03,1.71,3.63,3.7,3.58l0,0c1.99-0.05,3.56-1.74,3.51-3.77l-0.26-9.79
							L342.42,199.77z"/>
					</g>
					<g>
						<path class="st23" d="M357.08,219.12l-52.6,1.37c-1.05,0.03-1.92-0.8-1.95-1.85l0,0c-0.03-1.05,0.8-1.92,1.85-1.95l52.6-1.37
							c1.05-0.03,1.92,0.8,1.95,1.85l0,0C358.96,218.22,358.13,219.09,357.08,219.12z"/>
					</g>
					<g>
						<path class="st23" d="M356.97,189.25l-53.94,1.41c-0.68,0.02-1.25-0.52-1.26-1.2l0,0c-0.02-0.68,0.52-1.25,1.2-1.26
							l53.94-1.41c0.68-0.02,1.25,0.52,1.26,1.2l0,0C358.19,188.67,357.65,189.23,356.97,189.25z"/>
					</g>
					<g>
						
							<rect x="306.97" y="188.07" transform="matrix(0.9997 -0.0261 0.0261 0.9997 -5.1669 8.0877)" class="st23" width="1.66" height="28.52"/>
					</g>
					<g>
						
							<rect x="352.39" y="186.89" transform="matrix(0.9997 -0.0261 0.0261 0.9997 -5.1206 9.2707)" class="st23" width="1.66" height="28.52"/>
					</g>
				</g>
			</g>
			<g>
				<path class="st15" d="M208.67,309.17l0.51,3.65c0.11,0.82,0.77,1.45,1.6,1.53c1.61,0.16,4.31,0.17,6.45-1.18
					c0.65-0.41,0.97-1.19,0.79-1.93l-0.89-3.75c-0.22-0.94-1.15-1.53-2.1-1.34l-4.95,1.02
					C209.15,307.36,208.54,308.23,208.67,309.17z"/>
				<path class="st87" d="M200.89,296.46l1.54,11.07c0.11,0.78,0.71,1.39,1.48,1.52c3.13,0.5,11.18,1.23,16.68-3.24
					c0.54-0.44,0.78-1.14,0.62-1.82l-2.62-11.1c-0.22-0.94-1.15-1.53-2.1-1.34l-14.2,2.92
					C201.38,294.66,200.76,295.53,200.89,296.46z"/>
				<path class="st15" d="M195.02,283.08l2.18,15.71c0.11,0.77,0.69,1.38,1.45,1.51c3.84,0.67,15.45,1.99,23.06-4.57
					c0.49-0.42,0.68-1.1,0.53-1.73l-3.71-15.71c-0.22-0.94-1.15-1.53-2.1-1.34l-20.01,4.12
					C195.51,281.27,194.89,282.15,195.02,283.08z"/>
				<path class="st15" d="M188.43,274.01c0,0-32.3-2.67-30.16,43.28s42.94,30.63,42.94,30.63l-32.64,34.72
					c0,0-32.27-18.9-29.63-63.84c2.64-44.95,30.76-62.15,43.69-62.02C195.56,256.91,188.43,274.01,188.43,274.01z"/>
				<path class="st87" d="M201.21,347.93l-28.65,30.47c0.5-3.92,0.16-8-0.7-11.73c-1.81-7.78-7.89-13.56-11.17-20.69
					c-3.83-8.35-5.87-17.81-5.18-26.99c0.49-6.56,2.25-12.98,3.93-19.37c-1.02,4.9-1.49,10.73-1.17,17.68
					C160.4,363.25,201.21,347.93,201.21,347.93z"/>
				<path class="st15" d="M182.97,225.37l27.56-4.96c1.14-0.21,2.24,0.54,2.47,1.68l10.72,53.45c0.23,1.15-0.51,2.27-1.66,2.51
					l-30.68,6.31c-1.21,0.25-2.37-0.58-2.54-1.8l-7.61-54.81C181.08,226.62,181.84,225.57,182.97,225.37z"/>
				<path class="st87" d="M223.63,275.05c-9.81-0.38-19.61-0.94-26.84-8.44c-4.85-5.03-8.16-11.36-9.96-18.08
					c-1.92-7.16-2.26-14.84-5.17-21.72c-0.06-0.13-0.1-0.27-0.15-0.4c-0.23,0.4-0.34,0.86-0.27,1.35l7.61,54.81
					c0.17,1.22,1.34,2.04,2.54,1.8l30.68-6.31c1.15-0.24,1.89-1.36,1.66-2.51L223.63,275.05z"/>
				
					<ellipse transform="matrix(0.7556 -0.6551 0.6551 0.7556 -118.4959 181.7398)" class="st88" cx="184.27" cy="249.65" rx="13.92" ry="13.92"/>
				
					<ellipse transform="matrix(0.7071 -0.7071 0.7071 0.7071 -122.5553 203.421)" class="st15" cx="184.27" cy="249.65" rx="7.81" ry="7.81"/>
				<polygon class="st87" points="185.29,224.95 177.44,189.65 201.79,185.3 207.03,221.04 				"/>
				<path class="st88" d="M174.83,189.67l-0.76-2.81c-0.17-0.62,0.22-1.24,0.85-1.37l26.44-5.15c0.64-0.12,1.24,0.33,1.3,0.97
					l0.29,2.99c0.05,0.57-0.33,1.08-0.89,1.19l-25.97,4.98C175.53,190.57,174.98,190.23,174.83,189.67z"/>
				<path class="st88" d="M179.98,211.95l-0.76-2.81c-0.17-0.62,0.22-1.24,0.85-1.37l26.44-5.15c0.64-0.12,1.24,0.33,1.3,0.97
					l0.29,2.99c0.05,0.57-0.33,1.08-0.89,1.19l-25.97,4.98C180.69,212.85,180.13,212.5,179.98,211.95z"/>
				<path class="st87" d="M265.34,344.35c-1.09-9.86-19.91-17.71-42.97-17.71s-41.89,7.85-42.97,17.71h0v0.04
					c-0.03,0.28-0.05,0.57-0.05,0.86c0,0.3,0.02,0.59,0.05,0.88v5.35c-0.03,0.29-0.05,0.59-0.05,0.88c0,0.29,0.02,0.57,0.05,0.86
					v0.51h0.08c1.62,9.64,20.2,17.24,42.9,17.24s41.28-7.6,42.9-17.24h0.13v-9.37H265.34z"/>
				<ellipse class="st89" cx="222.36" cy="344.35" rx="36.72" ry="15.88"/>
				<path class="st15" d="M159.93,403.34l10.45-36.99c0.56-1.98,2.37-3.36,4.44-3.36h12.86c2.06,0,3.87,1.37,4.44,3.36l10.45,36.99
					c0.83,2.94-1.38,5.86-4.44,5.86h-33.77C161.31,409.2,159.1,406.28,159.93,403.34z"/>
				<path class="st87" d="M202.57,403.34l-10.45-36.99c-0.18-0.62-0.49-1.18-0.88-1.65c0.03,0.3,0.04,0.62,0.01,0.97
					c-0.34,4.32-0.57,8.53-0.07,12.85c0.45,3.81,1.1,7.61,0.8,11.47c-0.38,4.89-2.52,8.86-6.63,11.62
					c-7.12,4.79-16.66,5.03-25.11,5.04c0.75,1.49,2.28,2.55,4.12,2.55h33.77C201.19,409.2,203.4,406.28,202.57,403.34z"/>
				<path class="st88" d="M187.08,376.81c0,3.22-2.61,5.84-5.84,5.84c-3.22,0-5.84-2.61-5.84-5.84c0-3.22,2.61-5.84,5.84-5.84
					C184.47,370.97,187.08,373.59,187.08,376.81z"/>
				<path class="st15" d="M237.98,410.72H123.23c-1.04,0-1.89-0.85-1.89-1.89v-1.75c0-1.04,0.85-1.89,1.89-1.89h114.74
					c1.04,0,1.89,0.85,1.89,1.89v1.75C239.86,409.87,239.02,410.72,237.98,410.72z"/>
				<polyline class="st90" points="247.57,332.81 211.07,359.47 198.2,356.31 243.95,331.51 				"/>
			</g>
		</g>
	</g>
</g>
</svg>
