<svg width="120" height="84" viewBox="0 0 120 84" fill="none" xmlns="http://www.w3.org/2000/svg">
<g opacity="0.22">
<path d="M63.7114 81.0862C53.0663 82.1875 31.6468 80.3602 21.4566 77.4118C11.607 74.5604 5.34479 68.6834 2.09557 62.0731C-1.15365 55.4628 -0.813065 46.6872 4.44982 41.5337C8.12415 37.934 13.8121 36.2808 16.1266 31.6866C17.484 28.9918 17.3696 25.8346 17.6307 22.829C18.2522 15.6618 21.4243 8.51949 27.1347 4.14411C32.845 -0.228785 41.2254 -1.31517 47.3633 2.43622C52.6909 5.69289 56.5168 12.2883 62.7592 12.4474C67.0799 12.5568 70.6846 9.42191 74.4286 7.26405C80.308 3.87562 87.669 2.74946 94.0109 5.16337C100.353 7.57729 105.3 13.8445 105.28 20.6289C105.272 23.7637 104.308 27.1049 105.71 29.9091C106.399 31.2889 107.584 32.3429 108.745 33.3597C111.846 36.0819 115.01 38.8513 117.133 42.3889C121.049 48.9122 120.805 57.4815 117.305 64.2385C113.807 70.9954 107.373 75.9699 100.231 78.5927C93.091 81.2154 73.7076 80.6511 63.7114 81.0862Z" fill="url(#paint0_linear_622_22924)"/>
</g>
<path opacity="0.56" d="M60.3851 83.8456C83.8961 83.8456 102.956 82.9496 102.956 81.8444C102.956 80.7391 83.8961 79.8431 60.3851 79.8431C36.874 79.8431 17.8146 80.7391 17.8146 81.8444C17.8146 82.9496 36.874 83.8456 60.3851 83.8456Z" fill="url(#paint1_linear_622_22924)"/>
<path d="M47.2266 28.7606C47.157 27.6145 47.2515 26.4535 47.4578 25.3125C47.5597 24.7407 47.699 24.1714 47.8755 23.612C48.0545 23.0527 48.2732 22.5033 48.5268 21.9663C48.7903 21.4343 49.1011 20.9197 49.4516 20.4274C49.8096 19.9402 50.2223 19.4902 50.6722 19.0751L51.0252 18.7792C51.0849 18.732 51.1421 18.6798 51.2042 18.635L51.3932 18.5033C51.52 18.4163 51.6443 18.3243 51.7735 18.2422L52.1713 18.0086C52.3031 17.9265 52.4423 17.8619 52.5815 17.7948C52.7207 17.7301 52.8574 17.658 52.9991 17.5984L53.4292 17.4318L53.6455 17.3498L53.8668 17.2851L54.3093 17.1559C54.4584 17.1161 54.6076 17.0887 54.7592 17.0564C54.9084 17.0266 55.0576 16.9893 55.2117 16.9644C55.3633 16.9445 55.5175 16.9147 55.6691 16.8998C56.2807 16.8302 56.8922 16.8178 57.4963 16.8426C58.7045 16.8923 59.8779 17.0987 61.0215 17.3547C62.1651 17.6108 63.2788 17.9365 64.3826 18.2596C65.4839 18.5903 66.5703 18.9309 67.6567 19.2441C68.7406 19.5623 69.8245 19.8557 70.9109 20.0794C71.9948 20.3106 73.0836 20.4697 74.165 20.5194C75.2465 20.5716 76.3204 20.4971 77.3596 20.2659C78.3962 20.0322 79.3906 19.6344 80.308 19.0775C80.7654 18.7991 81.2054 18.4859 81.6256 18.1428L81.9363 17.8793C82.0382 17.7898 82.1377 17.6953 82.2371 17.6033L82.3117 17.5337L82.3415 17.5064L82.3714 17.4766C82.4136 17.4318 82.4584 17.3846 82.5031 17.3348C82.5926 17.2379 82.6796 17.136 82.7666 17.0316C83.1122 16.6139 83.4279 16.1615 83.7213 15.6941C84.0171 15.2267 84.2806 14.737 84.5193 14.2373C85.0016 13.2354 85.3745 12.1714 85.6454 11.0776C85.9114 9.98123 86.0631 8.85009 86.1277 7.70404C86.1899 8.27334 86.2197 8.85009 86.2247 9.42685C86.2197 10.0036 86.1849 10.5828 86.1178 11.1621C85.9835 12.3181 85.7076 13.4641 85.3049 14.5679C84.8971 15.6717 84.3651 16.7357 83.674 17.7202C83.587 17.8445 83.4975 17.9663 83.4031 18.0881C83.3558 18.1478 83.3061 18.2099 83.2539 18.2721L83.2116 18.3193L83.1669 18.3665L83.0898 18.4486C82.9854 18.558 82.8835 18.6673 82.7791 18.7742L82.4559 19.0875C82.0159 19.4977 81.5485 19.883 81.0438 20.2236C80.5417 20.5667 80.0097 20.8724 79.4553 21.131C78.8984 21.387 78.3192 21.5934 77.7275 21.7525C76.5441 22.0757 75.3161 22.1851 74.1153 22.1652C72.9096 22.1428 71.7263 21.9812 70.5703 21.76C69.4143 21.5288 68.2856 21.2304 67.1744 20.9097C66.0656 20.5816 64.9718 20.236 63.8854 19.8979C62.8015 19.5549 61.7201 19.2317 60.6411 18.9532C58.4883 18.4088 56.2956 18.0558 54.2372 18.5953C53.2055 18.8364 52.2484 19.3137 51.3981 19.9501C50.9805 20.2808 50.5902 20.6512 50.2322 21.0564C49.8792 21.4666 49.5585 21.9091 49.2701 22.379C48.9842 22.8488 48.7331 23.346 48.5069 23.8557C48.2782 24.3653 48.0918 24.8973 47.9202 25.4343C47.7512 25.9713 47.6095 26.5231 47.4951 27.08C47.3758 27.6269 47.2863 28.1888 47.2266 28.7606Z" fill="#F69A2B"/>
<path d="M80.7828 2.2746C80.2135 2.21245 79.6417 2.18262 79.0724 2.18511C78.5031 2.18014 77.9363 2.20251 77.3745 2.2572C76.8126 2.31438 76.2558 2.38399 75.7088 2.50083C75.1619 2.61519 74.6249 2.75938 74.1054 2.93837C73.5858 3.12482 73.0861 3.34607 72.6113 3.60462C72.1389 3.87062 71.6964 4.17392 71.2862 4.51201C70.4832 5.21058 69.8195 6.04588 69.367 7.00548C68.4124 8.9048 68.298 11.1223 68.3801 13.3423C68.4248 14.4561 68.5168 15.5797 68.6262 16.7134C68.7306 17.847 68.8425 18.9881 68.9295 20.1416C69.009 21.2951 69.0662 22.461 69.0513 23.6394C69.0264 24.8178 68.9394 26.0086 68.7082 27.1919C68.477 28.3727 68.1116 29.5486 67.5497 30.6375C67.2713 31.1819 66.9481 31.7065 66.5802 32.1987C66.2123 32.6885 65.8021 33.1459 65.3621 33.5635C64.922 33.9837 64.4472 34.3615 63.955 34.7046L63.5821 34.9557C63.4553 35.0353 63.326 35.1123 63.1992 35.1919L63.1023 35.2515L63.0476 35.2839L62.9904 35.3137C62.9183 35.351 62.8487 35.3883 62.7791 35.4206C62.6399 35.4877 62.5031 35.5499 62.3639 35.6095C61.2552 36.0794 60.1041 36.3777 58.9382 36.5468C57.7723 36.7108 56.5964 36.7407 55.4379 36.6313C54.8587 36.5741 54.2844 36.4871 53.7201 36.3727C53.1557 36.2484 52.5989 36.0993 52.0544 35.9178C53.1881 36.0943 54.3267 36.1838 55.4528 36.1515C56.5815 36.1167 57.6977 35.975 58.7791 35.7115C59.3186 35.5797 59.8531 35.4256 60.3702 35.2341C60.8872 35.0452 61.3969 34.8314 61.8767 34.5803C61.996 34.5182 62.1153 34.4535 62.2297 34.3864C62.2869 34.3541 62.3416 34.3193 62.3938 34.287L62.4311 34.2646L62.4659 34.2397L62.5504 34.1801C62.6623 34.1005 62.7741 34.0235 62.8835 33.9439L63.2067 33.6953C63.6318 33.3572 64.0271 32.9893 64.3975 32.6015C65.1333 31.8233 65.7325 30.9333 66.175 29.9688C66.6175 29.0017 66.9158 27.9675 67.0898 26.8985C67.2663 25.8296 67.3384 24.7307 67.3384 23.6245C67.3459 22.5157 67.2837 21.3945 67.2017 20.2684C67.1246 19.1397 67.0153 18.0061 66.9233 16.86C66.8363 15.714 66.7517 14.558 66.7418 13.3846C66.7319 12.2137 66.7741 11.0204 66.978 9.82959C67.0799 9.23544 67.2191 8.63879 67.4155 8.05458C67.4603 7.90791 67.5199 7.76372 67.5746 7.61953C67.6318 7.47534 67.6964 7.33861 67.7586 7.19691C67.8232 7.05769 67.8779 6.91599 67.95 6.77926L68.1688 6.37404L68.2782 6.17267L68.4025 5.97876L68.656 5.59094C68.743 5.46416 68.8425 5.34483 68.9369 5.22301C69.0314 5.1012 69.1234 4.9769 69.2303 4.86751L69.5435 4.52693C69.6504 4.41506 69.7673 4.31562 69.8791 4.20872L70.0482 4.0521C70.1054 3.99989 70.1675 3.95515 70.2272 3.90791L70.5901 3.62451C71.0923 3.27149 71.6169 2.96323 72.1688 2.71463C72.7231 2.47348 73.2899 2.27709 73.8667 2.1329C74.4459 1.99617 75.0277 1.89673 75.6119 1.83955C76.1961 1.78237 76.7803 1.76746 77.362 1.78486C78.523 1.81718 79.6765 1.96634 80.7828 2.2746Z" fill="#F69A2B"/>
<path d="M78.1406 1.90918L77.9366 2.11298L85.9408 10.1263L86.1449 9.92251L78.1406 1.90918Z" fill="#F69A2B"/>
<path d="M74.5432 1.98126L74.3392 2.18506L85.2968 13.155L85.5008 12.9512L74.5432 1.98126Z" fill="#F69A2B"/>
<path d="M72.582 3.4713L72.3798 3.67694L84.19 15.2884L84.3922 15.0828L72.582 3.4713Z" fill="#F69A2B"/>
<path d="M70.4662 5.10938L70.2638 5.31476L82.8931 17.7614L83.0955 17.556L70.4662 5.10938Z" fill="#F69A2B"/>
<path d="M68.6016 7.11544L68.3996 7.32123L80.8639 19.5567L81.0659 19.3509L68.6016 7.11544Z" fill="#F69A2B"/>
<path d="M67.9781 9.95471L67.774 10.1585L78.7316 21.1285L78.9356 20.9247L67.9781 9.95471Z" fill="#F69A2B"/>
<path d="M67.6687 13.3624L67.4694 13.5709L76.1178 21.84L76.3171 21.6316L67.6687 13.3624Z" fill="#F69A2B"/>
<path d="M47.436 27.2174L47.2258 27.4148L55.7546 36.4981L55.9648 36.3007L47.436 27.2174Z" fill="#F69A2B"/>
<path d="M48.1335 24.3385L47.9249 24.5376L58.9025 36.0367L59.1111 35.8375L48.1335 24.3385Z" fill="#F69A2B"/>
<path d="M49.1311 21.8453L48.9228 22.0447L61.4944 35.1781L61.7027 34.9786L49.1311 21.8453Z" fill="#F69A2B"/>
<path d="M51.0348 19.7573L50.8248 19.955L63.6829 33.6083L63.8928 33.4106L51.0348 19.7573Z" fill="#F69A2B"/>
<path d="M53.354 18.474L53.1447 18.6723L65.5104 31.7267L65.7198 31.5284L53.354 18.474Z" fill="#F69A2B"/>
<path d="M56.1939 17.8765L55.9874 18.0778L66.8101 29.1811L67.0166 28.9798L56.1939 17.8765Z" fill="#F69A2B"/>
<path d="M59.6086 17.6083L59.3976 17.8048L67.5506 26.5621L67.7617 26.3656L59.6086 17.6083Z" fill="#F69A2B"/>
<path d="M51.4255 17.0092C52.0395 17.3871 52.231 18.1926 51.8531 18.8091C51.4752 19.4231 50.6697 19.6146 50.0532 19.2367C49.4392 18.8588 49.2477 18.0533 49.6256 17.4368C50.006 16.8228 50.8114 16.6313 51.4255 17.0092Z" fill="#F69A2B"/>
<path d="M41.6488 27.4054C42.1188 26.8571 42.0554 26.0316 41.5071 25.5616C40.9588 25.0916 40.1333 25.1551 39.6633 25.7033C39.1933 26.2516 39.2568 27.0771 39.805 27.5471C40.3533 28.0171 41.1788 27.9537 41.6488 27.4054Z" fill="#F69A2B"/>
<path d="M46.0234 29.8619C46.6374 30.2398 46.8289 31.0452 46.451 31.6617C46.0731 32.2758 45.2676 32.4672 44.6511 32.0893C44.0371 31.7115 43.8456 30.906 44.2235 30.2895C44.6039 29.6754 45.4093 29.484 46.0234 29.8619Z" fill="#F69A2B"/>
<path d="M17.4815 11.1771C17.6058 10.4661 18.2845 9.99123 18.9955 10.1155C19.7065 10.2398 20.1813 10.9185 20.057 11.6295C19.9327 12.3405 19.254 12.8153 18.543 12.691C17.832 12.5643 17.3547 11.8881 17.4815 11.1771Z" fill="#F69A2B"/>
<path d="M43.2788 18.9185C43.8929 19.2964 44.0843 20.1018 43.7064 20.7184C43.3286 21.3324 42.5231 21.5238 41.9066 21.146C41.2925 20.7681 41.1011 19.9626 41.479 19.3461C41.8593 18.7296 42.6648 18.5381 43.2788 18.9185Z" fill="#F69A2B"/>
<path d="M38.5852 13.504C39.1993 13.8818 39.3907 14.6873 39.0128 15.3038C38.635 15.9179 37.8295 16.1093 37.213 15.7314C36.5989 15.3535 36.4075 14.5481 36.7854 13.9315C37.1657 13.315 37.9712 13.1236 38.5852 13.504Z" fill="#F69A2B"/>
<path d="M41.1783 9.09562C41.7049 8.60143 41.7312 7.77389 41.237 7.24727C40.7428 6.72065 39.9152 6.69436 39.3886 7.18856C38.862 7.68275 38.8357 8.51029 39.3299 9.03691C39.8241 9.56353 40.6516 9.58982 41.1783 9.09562Z" fill="#F69A2B"/>
<path d="M29.7798 22.8041C30.3938 23.182 30.5853 23.9875 30.2074 24.604C29.8295 25.218 29.024 25.4095 28.4075 25.0316C27.7935 24.6537 27.602 23.8482 27.9799 23.2317C28.3603 22.6152 29.1657 22.4238 29.7798 22.8041Z" fill="#F69A2B"/>
<path d="M30.9333 15.9527C31.5473 16.3306 31.7388 17.136 31.3609 17.7525C30.983 18.3666 30.1775 18.558 29.561 18.1801C28.947 17.8023 28.7556 16.9968 29.1334 16.3803C29.5138 15.7637 30.3193 15.5748 30.9333 15.9527Z" fill="#F69A2B"/>
<path d="M34.2297 27.0825C34.8438 27.4604 35.0352 28.2658 34.6573 28.8824C34.2795 29.4964 33.474 29.6878 32.8575 29.31C32.2434 28.9321 32.052 28.1266 32.4299 27.5101C32.8102 26.8936 33.6157 26.7021 34.2297 27.0825Z" fill="#F69A2B"/>
<path d="M24.3727 10.4735C24.497 9.76251 25.1757 9.28768 25.8867 9.41198C26.5977 9.53628 27.0725 10.215 26.9482 10.926C26.8239 11.637 26.1452 12.1118 25.4342 11.9875C24.7257 11.8632 24.2484 11.1845 24.3727 10.4735Z" fill="#F69A2B"/>
<path d="M55.9774 22.021C56.5914 22.3989 56.7828 23.2044 56.405 23.8209C56.0271 24.435 55.2216 24.6264 54.6051 24.2485C53.991 23.8706 53.7996 23.0652 54.1775 22.4486C54.5579 21.8321 55.3608 21.6407 55.9774 22.021Z" fill="#F69A2B"/>
<path d="M53.377 28.7258C53.9911 29.1036 54.1825 29.9091 53.8046 30.5256C53.4267 31.1397 52.6213 31.3311 52.0047 30.9532C51.3907 30.5754 51.1993 29.7699 51.5772 29.1534C51.9575 28.5393 52.763 28.3479 53.377 28.7258Z" fill="#F69A2B"/>
<path d="M40.758 26.6599L33.5113 28.328L33.4641 28.2858L28.7829 24.246L30.1378 16.967L37.9389 14.471L42.7319 19.9999L40.758 26.6599ZM33.5784 28.0595L40.5616 26.4511L42.456 20.062L37.8593 14.7619L30.3565 17.1634L29.0564 24.1565L33.5784 28.0595Z" fill="#F69A2B"/>
<path d="M52.7829 29.9514L45.295 31.1074L41.029 26.9259L41.203 26.7494L45.3795 30.8439L52.6014 29.7276L55.1471 23.1596L50.6971 18.2597L43.3037 19.9427L43.2465 19.6991L50.7841 17.9862L55.4354 23.1074L52.7829 29.9514Z" fill="#F69A2B"/>
<path d="M25.7226 10.5679L30.3516 17.2777L30.1477 17.4194L25.6008 10.829L18.7817 11.525L18.7543 11.2789L25.7226 10.5679Z" fill="#F69A2B"/>
<path d="M40.1674 8.09646L38.0422 14.0322L38.2762 14.116L40.4015 8.18026L40.1674 8.09646Z" fill="#F69A2B"/>
<path d="M67.6765 59.2391C66.2819 52.2807 66.4236 43.4579 69.2054 36.9296C71.9873 30.4013 77.1656 24.8202 83.6989 22.0533C87.326 20.517 91.2564 19.8582 95.0003 18.6326C97.9015 17.6829 100.688 16.3927 103.289 14.7966C103.575 14.6201 105.076 13.4691 105.076 13.4691C105.372 13.4666 105.019 15.5698 104.929 16.2783C104.218 21.8395 103.497 27.4455 101.658 32.7432C99.8207 38.0384 96.7579 43.0701 92.1812 46.3093C88.3676 49.0091 83.7735 50.3019 79.3782 51.8879C74.9829 53.4715 70.5181 55.5299 67.6765 59.2391Z" fill="url(#paint2_linear_622_22924)"/>
<path d="M69.0463 56.9768C69.7151 53.5984 71.0724 50.3989 72.8375 47.4529C74.6225 44.4722 76.8077 41.7475 79.1719 39.2068C81.7747 36.4126 84.5864 33.8097 87.5622 31.4182C90.3017 29.2156 93.2129 27.2417 96.0022 25.1062C98.697 23.0428 101.295 20.8104 103.381 18.118C103.629 17.7973 103.87 17.4692 104.104 17.1385C104.211 16.9869 103.96 16.8427 103.855 16.9918C101.882 19.806 99.326 22.1379 96.6361 24.2535C93.9065 26.3989 91.0277 28.343 88.2906 30.4785C85.2452 32.8551 82.3714 35.448 79.6964 38.2348C77.2999 40.7308 75.0675 43.4057 73.198 46.3243C71.3509 49.2081 69.8667 52.3479 69.0389 55.6791C68.937 56.0844 68.8475 56.4946 68.7654 56.9048C68.7306 57.0813 69.0091 57.1608 69.0463 56.9768Z" fill="white"/>
<path d="M73.0936 47.0253C74.3167 45.5014 75.7735 44.1838 77.367 43.0576C78.9606 41.9339 80.6759 40.9942 82.4385 40.1664C83.3633 39.7313 84.298 39.3187 85.2502 38.9482C86.3117 38.5331 87.3906 38.1726 88.4696 37.8096C90.4957 37.131 92.5367 36.4523 94.4335 35.4579C96.1215 34.5704 97.7175 33.4293 98.9108 31.9253C99.0575 31.7388 99.1992 31.5499 99.3334 31.356C99.4403 31.2018 99.1892 31.0576 99.0848 31.2093C97.986 32.7929 96.4422 34.006 94.7741 34.9458C92.9319 35.9799 90.9332 36.681 88.9394 37.3497C87.8605 37.7127 86.7791 38.0682 85.7126 38.466C84.7356 38.8314 83.776 39.2416 82.8263 39.6742C81.0563 40.4796 79.3285 41.387 77.7151 42.4734C76.1166 43.5498 74.6299 44.8003 73.3645 46.2596C73.203 46.4436 73.0463 46.6325 72.8947 46.8239C72.7729 46.9631 72.9767 47.1695 73.0936 47.0253Z" fill="white"/>
<path d="M76.1762 42.6226C76.216 41.2851 76.3726 39.9526 76.6262 38.64C76.8922 37.2553 77.2626 35.8929 77.725 34.5604C78.1924 33.213 78.7542 31.9004 79.418 30.6375C80.0693 29.397 80.8151 28.2037 81.6678 27.09C82.4758 26.0384 83.3881 25.0589 84.4049 24.2062C84.5267 24.1043 84.651 24.0048 84.7753 23.9054C84.8375 23.8557 84.8251 23.7513 84.7753 23.7015C84.7157 23.6394 84.6311 23.6543 84.5715 23.7015C83.5224 24.5269 82.5827 25.489 81.7449 26.5281C80.8624 27.6245 80.0867 28.8053 79.408 30.0409C78.7144 31.3063 78.1203 32.6288 77.6231 33.9837C77.1333 35.3212 76.7356 36.691 76.4422 38.0856C76.1613 39.4206 75.9724 40.7804 75.9028 42.1428C75.8953 42.3019 75.8878 42.461 75.8829 42.6226C75.8829 42.8065 76.1712 42.8065 76.1762 42.6226Z" fill="white"/>
<path d="M91.224 28.5891C91.6566 27.4679 92.1339 26.3591 92.6759 25.2852C93.2452 24.159 93.8816 23.0502 94.6746 22.0633C95.0749 21.5661 95.5174 21.0987 96.022 20.7059C96.0842 20.6587 96.0717 20.5518 96.022 20.5021C95.9624 20.4424 95.8803 20.4548 95.8182 20.5021C94.871 21.2379 94.1327 22.2249 93.4962 23.2317C92.8026 24.328 92.2209 25.4965 91.6989 26.6823C91.4329 27.2864 91.1843 27.8955 90.9456 28.512C90.9182 28.5841 90.9754 28.6711 91.0475 28.6885C91.1296 28.7109 91.1967 28.6612 91.224 28.5891Z" fill="white"/>
<path d="M46.533 64.6835C44.5492 59.1024 40.6635 52.8426 35.873 49.3572C31.0824 45.8743 24.9818 44.0968 19.1123 44.9147C15.8556 45.3697 12.7581 46.5828 9.5511 47.3087C7.06758 47.8731 4.51693 48.144 1.96877 48.1142C1.68785 48.1117 0.119178 47.9302 0.119178 47.9302C-0.0946186 48.057 1.06138 49.4119 1.42931 49.8793C4.32302 53.5586 7.24409 57.2652 10.8314 60.2708C14.4187 63.2764 18.7692 65.566 23.4355 65.924C27.3236 66.2223 31.1719 65.1807 34.9979 64.4324C38.8264 63.6841 42.9059 63.2441 46.533 64.6835Z" fill="url(#paint3_linear_622_22924)"/>
<path d="M44.5815 63.6493C42.6524 61.5163 40.3105 59.8059 37.7823 58.451C35.2241 57.0812 32.492 56.0645 29.7102 55.259C26.6474 54.374 23.5175 53.7152 20.3603 53.2776C17.4541 52.8749 14.5231 52.7083 11.6095 52.3752C8.79536 52.052 5.97623 51.5673 3.32614 50.5331C3.01042 50.4088 2.69718 50.2795 2.38891 50.1403C2.24721 50.0781 2.36405 49.8668 2.50576 49.929C5.12601 51.0974 7.95758 51.6742 10.7891 52.0346C13.663 52.4026 16.5592 52.5592 19.4355 52.9147C22.635 53.31 25.8047 53.9364 28.9147 54.7866C31.7015 55.5474 34.4485 56.507 37.0364 57.7972C39.5946 59.0725 42.0035 60.6835 44.0246 62.7145C44.2707 62.9631 44.5119 63.2167 44.7456 63.4752C44.8525 63.5896 44.6859 63.7661 44.5815 63.6493Z" fill="white"/>
<path d="M37.4168 58.2546C35.8879 57.6878 34.2795 57.3671 32.6561 57.2453C31.0327 57.1235 29.4019 57.1857 27.7835 57.3497C26.9358 57.4343 26.0881 57.5387 25.2478 57.6804C24.3106 57.8395 23.3808 58.0408 22.4535 58.2447C20.7108 58.6275 18.9607 59.0154 17.1732 59.1173C15.5822 59.2068 13.9513 59.07 12.4523 58.5057C12.2683 58.4361 12.0844 58.3615 11.9054 58.2795C11.7637 58.2149 11.8805 58.006 12.0222 58.0682C13.489 58.7319 15.1148 58.9383 16.7133 58.896C18.4759 58.8488 20.2086 58.4933 21.924 58.1179C22.8513 57.9141 23.7786 57.7052 24.7158 57.5337C25.571 57.3771 26.4361 57.2577 27.3012 57.1608C28.9146 56.9793 30.5405 56.8898 32.1639 56.9743C33.7698 57.0589 35.3733 57.3199 36.9047 57.8221C37.0986 57.8867 37.2925 57.9538 37.4839 58.0234C37.6182 58.0756 37.561 58.3093 37.4168 58.2546Z" fill="white"/>
<path d="M33.3199 56.4224C32.7183 55.4802 32.0346 54.5952 31.2888 53.7624C30.5057 52.8848 29.6555 52.0669 28.7531 51.3112C27.8407 50.548 26.8736 49.8469 25.8593 49.2279C24.86 48.6188 23.8158 48.0819 22.727 47.6518C21.6978 47.2441 20.6238 46.9333 19.53 46.7593C19.3982 46.7394 19.2664 46.7195 19.1347 46.7021C19.07 46.6947 19.0328 46.6151 19.0477 46.5554C19.0651 46.4858 19.1297 46.461 19.1943 46.4684C20.3006 46.6101 21.3845 46.896 22.4311 47.2814C23.5349 47.6891 24.5965 48.2012 25.6107 48.7953C26.6499 49.4044 27.6418 50.098 28.579 50.8538C29.5038 51.5996 30.3764 52.4125 31.1819 53.2851C31.955 54.1204 32.6735 55.0129 33.3074 55.96C33.382 56.0719 33.4541 56.1838 33.5262 56.2956C33.6107 56.4299 33.4019 56.5542 33.3199 56.4224Z" fill="white"/>
<path d="M16.5244 52.8227C15.7313 52.2037 14.9184 51.6145 14.0682 51.0775C13.1782 50.5132 12.2459 49.9936 11.2565 49.6282C10.7568 49.4442 10.2397 49.2975 9.71022 49.2329C9.64558 49.2254 9.60829 49.1434 9.62321 49.0862C9.64061 49.0166 9.70525 48.9917 9.76988 48.9992C10.7643 49.121 11.7164 49.5113 12.6039 49.9588C13.571 50.4485 14.4883 51.0352 15.3709 51.6592C15.8208 51.9774 16.2609 52.3081 16.6934 52.6462C16.7456 52.6859 16.7382 52.773 16.6984 52.8152C16.6462 52.8699 16.5766 52.8625 16.5244 52.8227Z" fill="white"/>
<g opacity="0.6">
<path d="M44.2857 59.8382C45.6803 52.8798 45.5386 44.057 42.7568 37.5287C39.9749 31.0005 34.7966 25.4194 28.2633 22.6524C24.6362 21.1161 20.7059 20.4573 16.9619 19.2317C14.0608 18.282 11.2739 16.9918 8.67357 15.3958C8.38767 15.2193 6.88612 14.0682 6.88612 14.0682C6.59029 14.0658 6.9433 16.1689 7.0328 16.8774C7.7438 22.4386 8.46474 28.0446 10.3044 33.3423C12.144 38.64 15.2043 43.6692 19.7811 46.9085C23.5946 49.6083 28.1888 50.901 32.584 52.4871C36.9793 54.0707 41.4442 56.1315 44.2857 59.8382Z" fill="url(#paint4_linear_622_22924)"/>
</g>
<path d="M42.9159 57.5784C42.2472 54.1999 40.8898 51.0004 39.1247 48.0545C37.3398 45.0738 35.1546 42.3491 32.7904 39.8084C30.1875 37.0141 27.3758 34.4113 24.4001 32.0197C21.6605 29.8171 18.7494 27.8432 15.9601 25.7077C13.2652 23.6444 10.6674 21.4119 8.5791 18.7196C8.3305 18.3989 8.08936 18.0707 7.85567 17.7401C7.74877 17.5884 7.99986 17.4442 8.10427 17.5934C10.0782 20.4076 12.6338 22.7394 15.3237 24.855C18.0533 27.0005 20.9321 28.9445 23.6692 31.08C26.7146 33.4566 29.5884 36.0496 32.2633 38.8364C34.6598 41.3323 36.8923 44.0073 38.7618 46.9258C40.6089 49.8096 42.093 52.9495 42.9209 56.2807C43.0228 56.6859 43.1123 57.0961 43.1943 57.5063C43.2316 57.6828 42.9532 57.7599 42.9159 57.5784Z" fill="white"/>
<path d="M38.8687 47.6244C37.6455 46.1005 36.1887 44.7829 34.5952 43.6568C33.0017 42.5331 31.2863 41.5934 29.5237 40.7655C28.5989 40.3305 27.6642 39.9178 26.7121 39.5474C25.6505 39.1322 24.5716 38.7717 23.4927 38.4088C21.4666 37.7301 19.4256 37.0514 17.5287 36.057C15.8407 35.1695 14.2447 34.0284 13.0514 32.5244C12.9048 32.3379 12.763 32.149 12.6288 31.9551C12.5219 31.8035 12.773 31.6568 12.8774 31.8084C13.9762 33.392 15.52 34.6052 17.1881 35.5449C19.0303 36.5791 21.029 37.2801 23.0228 37.9489C24.1017 38.3118 25.1832 38.6673 26.2497 39.0651C27.2267 39.4305 28.1863 39.8407 29.1359 40.2733C30.906 41.0788 32.6337 41.9862 34.2472 43.0725C35.8457 44.149 37.3323 45.3994 38.5977 46.8587C38.7593 47.0427 38.9159 47.2316 39.0675 47.4231C39.1893 47.5648 38.9855 47.7711 38.8687 47.6244Z" fill="white"/>
<path d="M35.786 43.2217C35.7462 41.8842 35.5896 40.5517 35.336 39.2391C35.07 37.8544 34.6996 36.4921 34.2372 35.1596C33.7698 33.8122 33.208 32.4995 32.5442 31.2366C31.8929 29.9961 31.1471 28.8028 30.2944 27.6891C29.4864 26.6375 28.5741 25.658 27.5573 24.8053C27.4355 24.7034 27.3112 24.6015 27.1869 24.5045C27.1247 24.4548 27.1372 24.3504 27.1869 24.3007C27.2466 24.2385 27.3311 24.2534 27.3907 24.3007C28.4398 25.126 29.3795 26.0881 30.2173 27.1273C31.0999 28.2236 31.8755 29.4044 32.5542 30.64C33.2478 31.9054 33.8419 33.2279 34.3391 34.5828C34.8289 35.9203 35.2266 37.2901 35.52 38.6847C35.8009 40.0197 35.9899 41.3796 36.0595 42.7419C36.0669 42.901 36.0744 43.0601 36.0793 43.2217C36.0793 43.4082 35.791 43.4082 35.786 43.2217Z" fill="white"/>
<path d="M20.7382 29.1907C20.3056 28.0695 19.8283 26.9607 19.2864 25.8868C18.7171 24.7606 18.0806 23.6519 17.2876 22.6649C16.8874 22.1677 16.4448 21.7003 15.9402 21.3076C15.878 21.2603 15.8905 21.1534 15.9402 21.1037C15.9998 21.044 16.0819 21.0565 16.144 21.1037C17.0912 21.8396 17.8295 22.8265 18.466 23.8333C19.1596 24.9297 19.7413 26.0981 20.2634 27.2839C20.5294 27.888 20.778 28.4971 21.0166 29.1136C21.044 29.1857 20.9868 29.2727 20.9147 29.2901C20.8327 29.3125 20.7655 29.2628 20.7382 29.1907Z" fill="white"/>
<g opacity="0.6">
<path d="M66.8288 63.6244C69.0513 58.0483 73.2253 51.8556 78.2123 48.5119C83.1967 45.1682 89.4441 43.6021 95.3558 44.6536C98.6373 45.2378 101.727 46.5853 104.947 47.4454C107.44 48.1117 110.013 48.4846 112.594 48.5517C112.877 48.5592 114.473 48.4373 114.473 48.4373C114.685 48.5741 113.464 49.9016 113.071 50.3615C110.001 53.9762 106.901 57.6182 103.152 60.5243C99.403 63.4305 94.9108 65.5834 90.17 65.7673C86.2197 65.9215 82.3639 64.7182 78.5181 63.8133C74.6697 62.9084 70.5554 62.3068 66.8288 63.6244Z" fill="url(#paint5_linear_622_22924)"/>
</g>
<path d="M68.8425 62.6523C70.876 60.5666 73.3148 58.9233 75.9276 57.648C78.5702 56.3603 81.3769 55.4355 84.2259 54.7245C87.3608 53.9439 90.5553 53.3994 93.7697 53.0762C96.7281 52.7779 99.7038 52.7232 102.667 52.497C105.529 52.2782 108.402 51.8954 111.125 50.9482C111.45 50.8363 111.771 50.7145 112.089 50.5877C112.236 50.5281 112.124 50.3118 111.98 50.369C109.282 51.4529 106.391 51.9277 103.51 52.1838C100.584 52.4448 97.6454 52.4945 94.7194 52.7431C91.4652 53.0215 88.2284 53.5337 85.0463 54.2745C82.1948 54.9383 79.3757 55.8034 76.7057 57.0116C74.0656 58.2049 71.5647 59.7437 69.4391 61.7251C69.1806 61.9662 68.927 62.2148 68.6809 62.4684C68.5715 62.5827 68.7331 62.7667 68.8425 62.6523Z" fill="white"/>
<path d="M76.3055 57.4641C77.8767 56.9495 79.5174 56.686 81.1657 56.6238C82.8139 56.5617 84.4646 56.6885 86.0979 56.9147C86.9531 57.034 87.8083 57.1732 88.6535 57.3472C89.5957 57.5436 90.5305 57.7848 91.4602 58.0259C93.2104 58.4809 94.968 58.9408 96.7728 59.1098C98.3788 59.2615 100.037 59.1869 101.578 58.6723C101.767 58.6077 101.956 58.5405 102.143 58.4635C102.289 58.4038 102.177 58.1875 102.033 58.2447C100.522 58.8612 98.8685 59.0079 97.2526 58.9035C95.4702 58.7866 93.73 58.3615 92.0047 57.9141C91.0724 57.6729 90.1402 57.4243 89.2005 57.2155C88.3403 57.0241 87.4702 56.8699 86.5976 56.7382C84.9717 56.4921 83.326 56.3379 81.6803 56.3628C80.0494 56.3876 78.4186 56.589 76.8475 57.039C76.6486 57.0962 76.4497 57.1583 76.2533 57.2229C76.1091 57.2752 76.1563 57.5138 76.3055 57.4641Z" fill="white"/>
<path d="M80.5243 55.7661C81.1681 54.8363 81.8965 53.9637 82.6821 53.1508C83.51 52.2931 84.4024 51.4976 85.3446 50.7667C86.2968 50.0284 87.3036 49.3572 88.3552 48.768C89.3894 48.1887 90.4683 47.6866 91.5895 47.2913C92.6485 46.9184 93.7449 46.6449 94.8611 46.5107C94.9953 46.4958 95.1296 46.4808 95.2638 46.4684C95.331 46.4634 95.3707 46.3839 95.3583 46.3242C95.3434 46.2521 95.2787 46.2248 95.2141 46.2298C94.0879 46.3317 92.9792 46.5778 91.9052 46.9283C90.7716 47.2987 89.6778 47.7785 88.6287 48.3404C87.5522 48.9171 86.5205 49.5809 85.5435 50.3118C84.579 51.0327 83.6641 51.8233 82.8139 52.6735C81.9985 53.4914 81.2378 54.3665 80.5591 55.3012C80.4795 55.4106 80.4025 55.52 80.3254 55.6319C80.2309 55.7611 80.4348 55.8954 80.5243 55.7661Z" fill="white"/>
<path d="M97.6728 52.763C98.4981 52.1664 99.3458 51.602 100.226 51.0899C101.148 50.5529 102.113 50.0607 103.13 49.7301C103.642 49.561 104.171 49.4342 104.711 49.3895C104.775 49.3845 104.818 49.3025 104.805 49.2453C104.79 49.1732 104.726 49.1459 104.661 49.1508C103.649 49.2354 102.67 49.5958 101.755 50.016C100.758 50.4734 99.8058 51.0327 98.8884 51.6344C98.4211 51.9401 97.9636 52.2559 97.5112 52.584C97.4565 52.6238 97.459 52.7108 97.5012 52.7556C97.5485 52.8078 97.6181 52.8028 97.6728 52.763Z" fill="white"/>
<path d="M59.2241 33.7326C59.2316 33.7997 59.2515 33.8619 59.2987 33.9166C59.3733 34.0086 59.4926 34.0508 59.607 34.0881C59.7362 34.1279 59.868 34.1627 60.0022 34.1925C59.7263 34.0632 59.4678 33.9116 59.2241 33.7326Z" fill="#F46969"/>
<path d="M28.4274 45.6705C29.387 45.494 30.0209 44.5716 29.8444 43.612C29.6679 42.6524 28.7456 42.0185 27.786 42.195L25.6406 42.5903L26.282 46.0657L28.4274 45.6705Z" fill="#1C3077"/>
<path d="M25.6406 42.5928L23.4952 42.988C22.5356 43.1646 21.9016 44.0869 22.0781 45.0465C22.2546 46.0061 23.177 46.64 24.1366 46.4635L26.282 46.0682L25.6406 42.5928Z" fill="#F69A2B"/>
<path d="M26.282 33.6605C26.8687 32.8799 26.7121 31.7736 25.9314 31.1869C25.1508 30.6002 24.0446 30.7568 23.4579 31.5375L22.1477 33.2826L24.9718 35.4057L26.282 33.6605Z" fill="#1C3077"/>
<path d="M22.1477 33.2827L20.8376 35.0278C20.2509 35.8084 20.4075 36.9147 21.1881 37.5014C21.9687 38.0881 23.075 37.9315 23.6617 37.1509L24.9718 35.4057L22.1477 33.2827Z" fill="#F69A2B"/>
<path d="M16.502 36.6661C16.4249 35.6941 15.5722 34.9682 14.6002 35.0452C13.6282 35.1223 12.9023 35.975 12.9793 36.947L13.1534 39.1223L16.676 38.8414L16.502 36.6661Z" fill="#1C3077"/>
<path d="M13.1534 39.1223L13.3274 41.2975C13.4044 42.2696 14.2571 42.9955 15.2292 42.9184C16.2012 42.8414 16.9271 41.9887 16.85 41.0166L16.676 38.8414L13.1534 39.1223Z" fill="#F69A2B"/>
<path d="M86.5801 50.098V39.3983H78.083V50.103C78.083 51.2491 77.3894 52.2833 76.3253 52.7108C70.7915 54.9333 66.8512 60.2907 66.7095 66.5878C66.518 75.0004 73.2551 82.0731 81.6678 82.272C90.3067 82.4759 97.3719 75.5349 97.3719 66.9433C97.3719 60.773 93.7274 55.4554 88.4745 53.0216C87.3309 52.4896 86.5801 51.3609 86.5801 50.098Z" fill="#E1EBF9"/>
<path d="M67.239 62.9259C66.9208 64.0968 66.7368 65.3224 66.7095 66.5878C66.518 75.0004 73.2551 82.0731 81.6678 82.272C90.3067 82.4759 97.3719 75.5349 97.3719 66.9433C97.3719 65.3547 97.1283 63.8258 96.6808 62.3839C86.871 62.6822 77.0562 62.8637 67.239 62.9259Z" fill="#F69A2B"/>
<path d="M74.0258 64.5194C76.3776 64.8003 78.7219 64.6686 81.0637 64.3677C83.5671 64.0471 86.0307 63.4976 88.5292 63.1571C90.6547 62.8687 92.8051 62.7966 94.9207 62.4485C94.9232 62.4436 94.9257 62.4386 94.9282 62.4312C85.725 62.6996 76.5168 62.8662 67.3086 62.9234C69.5013 63.6294 71.7387 64.2459 74.0258 64.5194Z" fill="#EA871B"/>
<path d="M97.1954 64.6288C96.293 67.4156 94.3291 70.0731 92.3825 72.1962C90.2818 74.4858 87.684 76.1042 84.8101 77.2503C81.6355 78.5181 78.2918 78.2248 74.9804 77.7549C73.0737 77.4839 71.2813 76.9122 69.6753 75.9625C72.3975 79.6791 76.7455 82.1527 81.6678 82.2695C90.3067 82.4734 97.3719 75.5324 97.3719 66.9408C97.3744 66.1552 97.3098 65.3845 97.1954 64.6288Z" fill="#EA871B"/>
<path d="M82.0432 82.3888C81.9164 82.3888 81.7921 82.3863 81.6653 82.3839C73.1632 82.1825 66.4012 75.0949 66.5951 66.5828C66.7368 60.4001 70.5379 54.911 76.2831 52.6039C77.3074 52.1913 77.9686 51.2093 77.9686 50.103V39.2864H86.692V50.098C86.692 51.2963 87.4105 52.4026 88.5218 52.9172C93.9661 55.438 97.4863 60.9445 97.4863 66.9408C97.4863 71.1347 95.8331 75.0601 92.8325 77.9936C89.9214 80.8376 86.1029 82.3888 82.0432 82.3888ZM78.1974 39.5126V50.103C78.1974 51.3038 77.4789 52.3702 76.3676 52.8152C70.707 55.0899 66.9606 60.4945 66.8214 66.5878C66.6299 74.9756 73.2925 81.9588 81.6703 82.1576C85.807 82.2521 89.715 80.7182 92.6734 77.832C95.6318 74.9432 97.2601 71.075 97.2601 66.9433C97.2601 61.034 93.7921 55.6095 88.4273 53.126C87.2365 52.5741 86.4658 51.3858 86.4658 50.1005V39.5151H78.1974V39.5126Z" fill="#1D3078"/>
<path d="M86.8834 41.3522H77.7797C77.3819 41.3522 77.0562 41.0291 77.0562 40.6288V40.1192C77.0562 39.7214 77.3794 39.3958 77.7797 39.3958H86.8834C87.2812 39.3958 87.6069 39.7189 87.6069 40.1192V40.6288C87.6069 41.0291 87.2837 41.3522 86.8834 41.3522Z" fill="#1D3078"/>
<path opacity="0.56" d="M86.6 54.9258C86.6 54.9258 93.5261 63.1396 90.6448 73.0066C90.6448 73.0066 99.0724 60.5343 86.6 54.9258Z" fill="white"/>
<path d="M71.4602 70.6151C72.0355 70.6151 72.5019 70.1487 72.5019 69.5734C72.5019 68.9982 72.0355 68.5318 71.4602 68.5318C70.885 68.5318 70.4186 68.9982 70.4186 69.5734C70.4186 70.1487 70.885 70.6151 71.4602 70.6151Z" fill="#EA871B"/>
<path d="M82.4832 75.8457C83.0585 75.8457 83.5248 75.3793 83.5248 74.804C83.5248 74.2287 83.0585 73.7624 82.4832 73.7624C81.9079 73.7624 81.4416 74.2287 81.4416 74.804C81.4416 75.3793 81.9079 75.8457 82.4832 75.8457Z" fill="#EA871B"/>
<path d="M86.1302 67.5921C86.7055 67.5921 87.1718 67.1257 87.1718 66.5504C87.1718 65.9751 86.7055 65.5088 86.1302 65.5088C85.5549 65.5088 85.0886 65.9751 85.0886 66.5504C85.0886 67.1257 85.5549 67.5921 86.1302 67.5921Z" fill="#EA871B"/>
<path d="M88.2135 72.0818C88.5389 72.0818 88.8026 71.818 88.8026 71.4926C88.8026 71.1672 88.5389 70.9034 88.2135 70.9034C87.8881 70.9034 87.6243 71.1672 87.6243 71.4926C87.6243 71.818 87.8881 72.0818 88.2135 72.0818Z" fill="#EA871B"/>
<path d="M73.0911 74.3516C73.0911 74.6772 72.8275 74.9408 72.5019 74.9408C72.1762 74.9408 71.9127 74.6772 71.9127 74.3516C71.9127 74.0259 72.1762 73.7624 72.5019 73.7624C72.8275 73.7624 73.0911 74.0259 73.0911 74.3516Z" fill="#EA871B"/>
<path d="M79.95 68.1813C79.95 68.507 79.6865 68.7705 79.3608 68.7705C79.0351 68.7705 78.7716 68.507 78.7716 68.1813C78.7716 67.8556 79.0351 67.5921 79.3608 67.5921C79.6865 67.5921 79.95 67.8556 79.95 68.1813Z" fill="#EA871B"/>
<path d="M59.3956 28.865C60.1166 30.1751 60.1191 31.8507 59.4056 33.1633C59.2763 33.402 59.1272 33.7077 59.2987 33.9191C59.3733 34.011 59.4926 34.0533 59.607 34.0906C60.4572 34.3516 61.3695 34.4138 62.2496 34.2721C62.4833 34.2348 62.7244 34.1776 62.9034 34.021C62.9357 33.9911 62.968 33.9563 62.978 33.9141C62.9954 33.8296 62.9208 33.755 62.8562 33.6978C62.3814 33.2652 62.1551 32.6139 62.1079 31.9725C62.0607 31.3311 62.175 30.6922 62.2894 30.0608" fill="#FF8181"/>
<path d="M59.95 30.6698C60.2881 31.7935 61.1607 32.1689 62.1427 32.2783C62.1253 32.1739 62.1104 32.0719 62.1029 31.9675C62.0557 31.3261 62.17 30.6872 62.2844 30.0558L59.3932 28.8625C59.6815 29.387 59.8531 29.9688 59.9102 30.5629C59.9252 30.6002 59.9401 30.6325 59.95 30.6698Z" fill="#F46969"/>
<path d="M61.3074 62.0383C61.0439 63.0327 60.9295 64.062 60.8176 65.0862C60.3528 69.2776 59.8904 73.4715 59.4255 77.6629C59.4056 77.8345 59.3807 78.0234 59.2589 78.1452C59.0849 78.3217 58.799 78.2944 58.5554 78.2546C57.9587 78.1576 57.3621 78.0632 56.7679 77.9662C56.666 77.9488 56.5541 77.9264 56.4895 77.8444C56.4398 77.7823 56.4323 77.6977 56.4273 77.6182C56.0967 73.1384 55.7686 68.6486 55.9326 64.1589C56.0097 62.0632 56.1962 59.97 56.2111 57.8743" fill="#1C3077"/>
<path d="M56.7282 77.5436C56.6735 77.9364 56.5243 78.7418 56.4696 79.1346C56.4323 79.4006 56.4025 79.694 56.5442 79.9227C56.7356 80.2285 57.1508 80.2856 57.5088 80.308C58.6673 80.3801 59.8257 80.395 60.9867 80.4124C61.459 80.4199 61.6977 80.4224 62.17 80.4298C62.2894 80.4323 62.6051 80.3677 62.6846 80.2782C62.8612 80.0868 62.6747 79.7536 62.6498 79.7188C62.1526 78.9904 61.3149 79.0874 60.4522 78.9059C59.8829 78.7866 59.2788 78.6101 58.8438 78.2248" fill="#1C3077"/>
<path d="M62.359 62.0732C62.5529 63.085 62.5951 64.1167 62.6374 65.1459C62.8114 69.3597 62.983 73.5734 63.157 77.7897C63.1644 77.9637 63.1769 78.1527 63.2887 78.2844C63.4503 78.4709 63.7362 78.4659 63.9823 78.4435C64.584 78.3888 65.1856 78.3342 65.7872 78.2795C65.8916 78.2695 66.0035 78.2546 66.0731 78.1775C66.1253 78.1179 66.1402 78.0333 66.1501 77.9563C66.7891 73.5113 67.428 69.0539 67.5746 64.5641C67.6417 62.4684 67.602 60.3678 67.7312 58.2745" fill="#1C3077"/>
<path d="M63.5647 78.1949C63.51 78.5877 63.4578 78.9805 63.4031 79.3733C63.3658 79.6393 63.336 79.9326 63.4777 80.1614C63.6691 80.4671 64.0843 80.5243 64.4422 80.5467C65.6007 80.6188 66.7592 80.6337 67.9202 80.6511C68.3925 80.6586 68.6312 80.661 69.1035 80.6685C69.2228 80.671 69.5386 80.6064 69.6181 80.5169C69.7946 80.3254 69.6082 79.9923 69.5833 79.9575C69.0861 79.2291 68.2483 79.3261 67.3857 79.1446C66.8164 79.0252 65.5734 78.6871 65.5634 78.0333" fill="#1C3077"/>
<path d="M76.937 34.1105C77.1557 33.8743 77.3745 33.6431 77.5982 33.4144C77.6902 33.3199 77.7847 33.2255 77.8966 33.1608C78.1899 32.9893 78.5578 33.039 78.8959 33.0614C79.7387 33.1211 80.5914 32.9893 81.377 32.681C81.5013 32.6313 81.633 32.5791 81.7623 32.6114C81.9289 32.6562 82.0283 32.8426 82.0208 33.0167C82.0084 33.2727 81.812 33.489 81.5808 33.5984C81.3496 33.7078 81.0886 33.7326 80.835 33.755C80.5243 33.7823 80.211 33.8097 79.9003 33.8345C79.5174 33.8669 79.1296 33.9017 78.7667 34.0334C78.4062 34.1652 78.0656 34.4038 77.9015 34.7519" fill="#FF8181"/>
<path d="M66.6772 34.0632L71.4081 38.6524L76.6809 33.3448L78.8288 35.0527C78.8288 35.0527 74.528 40.6387 71.8506 42.7096C71.6244 42.8836 71.3335 42.911 71.0824 42.7867C70.2173 42.3591 68.1713 41.2578 67.1993 39.9824C65.9488 38.3392 66.6772 34.0632 66.6772 34.0632Z" fill="#F5F7FD"/>
<path d="M59.8556 32.7655C60.3006 33.0266 61.2452 33.4268 62.1949 32.8227C62.3267 32.7382 62.4932 32.7233 62.6374 32.7805L63.3733 33.0663L62.978 44.4597L58.7841 33.4517L59.3509 32.8426C59.4851 32.7034 59.6915 32.6711 59.8556 32.7655Z" fill="#1131C6"/>
<path d="M59.2092 32.9644C59.2092 32.9644 61.8941 37.9886 62.5752 39.7413L63.3832 63.1197C63.3832 63.1197 59.4578 63.6443 53.638 62.5952C53.638 62.5952 55.9923 47.3012 55.8854 43.5548C55.7959 40.502 55.4354 36.8252 55.3037 35.5673C55.2763 35.2963 55.413 35.0353 55.6542 34.9035L59.2092 32.9644Z" fill="#F5F7FD"/>
<path d="M62.8139 32.8625L62.5703 39.9029L63.3832 63.1172L69.735 62.6797C69.735 62.6797 68.2682 52.6163 67.679 45.4566C67.2067 39.7239 66.968 35.8432 66.8935 34.5256C66.8761 34.2273 66.6722 33.9712 66.3838 33.8892L62.8139 32.8625Z" fill="#F5F7FD"/>
<path d="M62.5752 39.7413L59.1918 37.0763L59.9923 35.8308L58.4211 35.6245L58.3714 33.4219L59.2067 32.9669C59.2092 32.9644 62.0706 38.1329 62.5752 39.7413Z" fill="#DFE4EF"/>
<path d="M62.5752 39.7413L64.5367 36.3305L63.5075 35.6269L64.7331 35.3261L64.0942 33.2329L62.8114 32.8625C62.8139 32.8625 62.4957 38.4759 62.5752 39.7413Z" fill="#DFE4EF"/>
<path d="M59.9948 51.515L55.505 51.3584L55.7387 49.9116L60.0445 50.0607L59.9948 51.515Z" fill="#DFE4EF"/>
<path d="M66.1178 51.4529L68.3403 51.3485L68.1787 49.8992L66.0507 49.9986L66.1178 51.4529Z" fill="#DFE4EF"/>
<path d="M62.5852 39.6543L62.7244 63.1819L63.0948 63.1521L62.7219 39.2093L62.5852 39.6543Z" fill="#DFE4EF"/>
<path d="M55.7163 46.7295L55.9277 44.8998L62.6697 42.7966C62.6722 42.7941 60.7281 45.4045 55.7163 46.7295Z" fill="#DFE4EF"/>
<path d="M56.6412 40.1142C56.6412 40.1142 56.7431 40.6686 56.8823 41.576C57.019 42.4834 61.0936 41.4716 61.0936 41.4716C61.0936 41.4716 57.5908 44.9768 56.2359 44.4374C54.8786 43.8979 55.7039 41.0639 55.7039 41.0639L56.1788 38.9781L56.6412 40.1142Z" fill="#DFE4EF"/>
<path d="M66.1228 45.6456L60.922 46.0607C60.7033 46.0781 60.5094 45.9141 60.492 45.6953L59.8705 37.9215C59.8531 37.7028 60.0171 37.5088 60.2359 37.4914L65.4366 37.0763C65.6554 37.0589 65.8493 37.223 65.8667 37.4417L66.4882 45.218C66.5056 45.4367 66.344 45.6282 66.1228 45.6456Z" fill="#11215E"/>
<path d="M61.5088 41.745C61.7698 41.8221 62.0532 41.6978 62.257 41.5188C62.4609 41.3398 62.6125 41.1086 62.7965 40.9072C63.1271 40.5517 63.5523 40.415 64.0271 40.323C64.1588 40.2982 64.3577 40.2062 64.3776 40.3379C64.3851 40.3827 64.3677 40.4274 64.3478 40.4672C64.1613 40.8302 63.5274 40.8227 63.5498 41.2279C64.4398 40.9222 65.4416 40.8227 66.3341 40.5169C66.4509 40.4772 66.6026 40.4448 66.6797 40.5418C66.7567 40.6363 66.6946 40.778 66.6299 40.8824C66.0308 41.8569 65.3795 42.553 64.2732 42.8488C63.7511 42.9905 63.0824 43.2491 62.5429 43.2764C62.0035 43.3038 61.4367 43.3957 61.014 43.7314" fill="#FF8181"/>
<path d="M55.4131 35.1273C55.4131 35.1273 56.7008 37.6033 56.6412 40.4523L56.3428 42.7171L61.7201 41.3125L62.083 43.4902C62.083 43.4902 59.06 46.1055 53.8941 46.4386C53.4441 46.4684 53.0638 46.1055 53.0638 45.653C53.0712 43.5797 53.4417 38.0806 55.4131 35.1273Z" fill="#F5F7FD"/>
<path d="M58.8587 24.8675C58.1352 26.809 58.5976 29.1384 60.0072 30.6549C60.4423 31.1248 61.0265 31.5399 61.6654 31.4877C62.5181 31.4181 63.075 30.5729 63.4056 29.7848C63.8058 28.8327 63.858 27.6692 63.7586 26.6425C63.6592 25.6158 63.3584 24.7233 62.4709 24.1938C61.5833 23.6642 60.3205 23.7463 59.6293 24.5144" fill="#FF8181"/>
<path d="M58.8587 27.806C58.6648 27.5101 58.3316 27.443 58.1402 27.6394C57.9513 27.8358 57.914 28.251 58.0383 28.6015C58.1626 28.952 58.4236 29.2205 58.6871 29.3001C58.8164 29.3398 58.9507 29.3374 59.0526 29.2603C59.2316 29.1261 59.2788 28.8103 59.2888 28.5095" fill="#FF8181"/>
<path d="M58.8786 28.4424C58.9357 28.6288 58.9034 28.8028 58.804 28.8352C58.7045 28.865 58.5778 28.7407 58.5206 28.5542C58.4634 28.3678 58.4957 28.1938 58.5952 28.1615C58.6946 28.1316 58.8214 28.2584 58.8786 28.4424Z" fill="#F46969"/>
<path d="M63.3758 27.8457C63.3708 27.985 63.2838 28.0943 63.1794 28.0919C63.075 28.0894 62.9954 27.9725 63.0004 27.8333C63.0053 27.6941 63.0924 27.5847 63.1968 27.5872C63.3012 27.5922 63.3807 27.7065 63.3758 27.8457Z" fill="#0F1E57"/>
<path d="M61.1483 27.7687C61.1433 27.9079 61.0563 28.0173 60.9519 28.0148C60.8475 28.0123 60.7679 27.8954 60.7729 27.7562C60.7779 27.617 60.8649 27.5076 60.9693 27.5101C61.0737 27.5151 61.1533 27.6294 61.1483 27.7687Z" fill="#0F1E57"/>
<path d="M62.0432 27.714C62.0084 27.8383 62.0109 27.98 62.0234 28.1068C62.0532 28.4598 62.18 28.7979 62.349 29.1086C62.3615 29.0713 62.3714 29.0341 62.3838 28.9968C62.2372 29.0813 62.0582 29.1484 61.8866 29.126C61.7797 29.1111 61.7748 29.2777 61.8817 29.2926C62.0781 29.3175 62.2943 29.2429 62.4634 29.1434C62.5007 29.1211 62.5206 29.0713 62.4982 29.0316C62.3416 28.7457 62.2173 28.43 62.1924 28.0993C62.185 28.0148 62.185 27.9278 62.1949 27.8408C62.1974 27.8283 62.1974 27.8134 62.1999 27.801C62.2048 27.7736 62.1974 27.8085 62.2024 27.7886C62.2048 27.7811 62.2048 27.7712 62.2073 27.7637C62.2297 27.6593 62.0706 27.6096 62.0432 27.714Z" fill="#F46969"/>
<path d="M61.469 26.8936C61.469 26.8936 61.1359 26.727 60.7257 26.7593C60.3155 26.7917 59.9724 27.0303 60.0619 27.0626C60.1489 27.095 60.5666 26.8911 60.9668 26.993C61.3695 27.095 61.4466 27.08 61.5063 27.0602C61.5684 27.0378 61.5659 26.9334 61.469 26.8936Z" fill="#0F1E57"/>
<path d="M62.5902 26.9334C62.5902 26.9334 62.8761 26.7892 63.2167 26.8464C63.5548 26.9035 63.8257 27.1646 63.7511 27.1919C63.6766 27.2193 63.3434 26.9881 63.0029 27.0651C62.6623 27.1422 62.5976 27.1223 62.5479 27.0974C62.4982 27.0701 62.5057 26.9657 62.5902 26.9334Z" fill="#0F1E57"/>
<path d="M61.0488 28.7656C61.0414 29.0042 60.7878 29.1907 60.4845 29.1807C60.1812 29.1708 59.9426 28.9669 59.95 28.7283C59.9575 28.4896 60.2111 28.3032 60.5144 28.3131C60.8176 28.3231 61.0563 28.5269 61.0488 28.7656Z" fill="#F46969"/>
<path d="M63.684 28.7904C63.6766 29.0291 63.4752 29.218 63.2341 29.2105C62.9954 29.2031 62.8065 29.0017 62.8139 28.7606C62.8214 28.5194 63.0228 28.333 63.2639 28.3404C63.505 28.3479 63.6915 28.5517 63.684 28.7904Z" fill="#F46969"/>
<path d="M62.4186 29.8296C62.4186 29.8296 61.9538 29.6705 61.3298 29.7923C61.3298 29.7923 61.8543 30.4039 62.4186 29.8296Z" fill="#F46969"/>
<path d="M65.2378 24.686C65.1185 24.2062 64.7828 23.8084 64.3751 23.6518C63.7064 23.4007 62.9432 23.7786 62.2819 23.4977C61.8817 23.3286 61.5734 22.9334 61.1657 22.7892C60.6511 22.6077 60.0892 22.8613 59.6393 23.2118C59.4354 23.3709 59.239 23.5623 59.0725 23.7761C58.9333 23.9551 58.7369 24.072 58.5206 24.0943C57.7201 24.1764 57.5734 25.3796 57.6206 25.9936C57.6679 26.6325 57.8817 27.2416 58.2347 27.7339C58.441 28.0222 58.7667 28.2982 59.06 28.1416C59.2962 28.0148 59.3211 27.6667 59.3857 27.3734C59.4578 27.0403 59.5075 26.7345 59.6119 26.461C59.8307 25.8917 60.3006 26.1801 60.8226 26.3119C61.5361 26.4958 62.1526 26.6649 62.8835 26.7469C63.8307 26.8538 64.5293 26.7668 64.9917 26.1005C65.2626 25.7127 65.3596 25.1658 65.2378 24.686Z" fill="#0F1E57"/>
<path d="M77.2825 31.7836C76.7082 31.7985 76.2334 31.346 76.216 30.7718L76.047 24.2932L78.1228 24.2385L78.2918 30.7171C78.3092 31.2913 77.8568 31.7687 77.2825 31.7836Z" fill="white"/>
<path d="M77.285 31.8383C76.6809 31.8532 76.1787 31.3759 76.1613 30.7718L75.9898 24.2385L78.1775 24.1813L78.349 30.7146C78.3664 31.3187 77.8891 31.8233 77.285 31.8383ZM76.1066 24.3479L76.2732 30.7693C76.2881 31.3112 76.7406 31.7388 77.28 31.7264C77.822 31.7115 78.252 31.259 78.2371 30.7195L78.0706 24.2982L76.1066 24.3479Z" fill="#1133A2"/>
<path d="M78.088 24.512L76.124 24.5642C75.9873 24.5667 75.873 24.4598 75.8705 24.3231C75.868 24.1864 75.9749 24.072 76.1116 24.0695L78.0756 24.0173C78.2123 24.0148 78.3266 24.1217 78.3291 24.2585C78.3341 24.3952 78.2247 24.5095 78.088 24.512Z" fill="#1133A2"/>
<mask id="mask0_622_22924" style="mask-type:luminance" maskUnits="userSpaceOnUse" x="76" y="28" width="3" height="4">
<path d="M76.2956 28.2659L76.3602 30.6997C76.3726 31.2043 76.7853 31.6021 77.28 31.5897C77.7747 31.5772 78.165 31.1571 78.1526 30.6524L78.088 28.2186L76.2956 28.2659Z" fill="white"/>
</mask>
<g mask="url(#mask0_622_22924)">
<path d="M78.088 28.2808L76.298 28.2932L76.2956 28.2659L78.0855 28.2186L78.088 28.2808Z" fill="#AEB1F8"/>
</g>
<mask id="mask1_622_22924" style="mask-type:luminance" maskUnits="userSpaceOnUse" x="76" y="28" width="3" height="4">
<path d="M76.2956 28.2659L76.3602 30.6997C76.3726 31.2043 76.7853 31.6021 77.28 31.5897C77.7747 31.5772 78.165 31.1571 78.1526 30.6524L78.088 28.2186L76.2956 28.2659Z" fill="white"/>
</mask>
<g mask="url(#mask1_622_22924)">
<path d="M78.0905 28.3479L76.2981 28.3603V28.2932L78.088 28.2808L78.0905 28.3479Z" fill="#ADB0F8"/>
</g>
<mask id="mask2_622_22924" style="mask-type:luminance" maskUnits="userSpaceOnUse" x="76" y="28" width="3" height="4">
<path d="M76.2956 28.2659L76.3602 30.6997C76.3726 31.2043 76.7853 31.6021 77.28 31.5897C77.7747 31.5772 78.165 31.1571 78.1526 30.6524L78.088 28.2186L76.2956 28.2659Z" fill="white"/>
</mask>
<g mask="url(#mask2_622_22924)">
<path d="M78.093 28.415L76.3006 28.4299L76.2981 28.3603L78.0905 28.3479L78.093 28.415Z" fill="#ADAFF7"/>
</g>
<mask id="mask3_622_22924" style="mask-type:luminance" maskUnits="userSpaceOnUse" x="76" y="28" width="3" height="4">
<path d="M76.2956 28.2659L76.3602 30.6997C76.3726 31.2043 76.7853 31.6021 77.28 31.5897C77.7747 31.5772 78.165 31.1571 78.1526 30.6524L78.088 28.2186L76.2956 28.2659Z" fill="white"/>
</mask>
<g mask="url(#mask3_622_22924)">
<path d="M78.0929 28.4822L76.303 28.4971L76.3005 28.43L78.0929 28.415V28.4822Z" fill="#ACAEF7"/>
</g>
<mask id="mask4_622_22924" style="mask-type:luminance" maskUnits="userSpaceOnUse" x="76" y="28" width="3" height="4">
<path d="M76.2956 28.2659L76.3602 30.6997C76.3726 31.2043 76.7853 31.6021 77.28 31.5897C77.7747 31.5772 78.165 31.1571 78.1526 30.6524L78.088 28.2186L76.2956 28.2659Z" fill="white"/>
</mask>
<g mask="url(#mask4_622_22924)">
<path d="M78.0955 28.5518L76.303 28.5642V28.4971L78.093 28.4822L78.0955 28.5518Z" fill="#ABADF6"/>
</g>
<mask id="mask5_622_22924" style="mask-type:luminance" maskUnits="userSpaceOnUse" x="76" y="28" width="3" height="4">
<path d="M76.2956 28.2659L76.3602 30.6997C76.3726 31.2043 76.7853 31.6021 77.28 31.5897C77.7747 31.5772 78.165 31.1571 78.1526 30.6524L78.088 28.2186L76.2956 28.2659Z" fill="white"/>
</mask>
<g mask="url(#mask5_622_22924)">
<path d="M78.0979 28.6189L76.3055 28.6313L76.303 28.5642L78.0955 28.5518L78.0979 28.6189Z" fill="#AAACF6"/>
</g>
<mask id="mask6_622_22924" style="mask-type:luminance" maskUnits="userSpaceOnUse" x="76" y="28" width="3" height="4">
<path d="M76.2956 28.2659L76.3602 30.6997C76.3726 31.2043 76.7853 31.6021 77.28 31.5897C77.7747 31.5772 78.165 31.1571 78.1526 30.6524L78.088 28.2186L76.2956 28.2659Z" fill="white"/>
</mask>
<g mask="url(#mask6_622_22924)">
<path d="M78.0979 28.686L76.308 28.7009L76.3055 28.6313L78.0979 28.6189V28.686Z" fill="#A9ABF5"/>
</g>
<mask id="mask7_622_22924" style="mask-type:luminance" maskUnits="userSpaceOnUse" x="76" y="28" width="3" height="4">
<path d="M76.2956 28.2659L76.3602 30.6997C76.3726 31.2043 76.7853 31.6021 77.28 31.5897C77.7747 31.5772 78.165 31.1571 78.1526 30.6524L78.088 28.2186L76.2956 28.2659Z" fill="white"/>
</mask>
<g mask="url(#mask7_622_22924)">
<path d="M78.1004 28.7532L76.308 28.7681V28.701L78.0979 28.686L78.1004 28.7532Z" fill="#A8AAF4"/>
</g>
<mask id="mask8_622_22924" style="mask-type:luminance" maskUnits="userSpaceOnUse" x="76" y="28" width="3" height="4">
<path d="M76.2956 28.2659L76.3602 30.6997C76.3726 31.2043 76.7853 31.6021 77.28 31.5897C77.7747 31.5772 78.165 31.1571 78.1526 30.6524L78.088 28.2186L76.2956 28.2659Z" fill="white"/>
</mask>
<g mask="url(#mask8_622_22924)">
<path d="M78.1029 28.8227L76.3105 28.8352L76.308 28.768L78.1004 28.7531L78.1029 28.8227Z" fill="#A7A9F4"/>
</g>
<mask id="mask9_622_22924" style="mask-type:luminance" maskUnits="userSpaceOnUse" x="76" y="28" width="3" height="4">
<path d="M76.2956 28.2659L76.3602 30.6997C76.3726 31.2043 76.7853 31.6021 77.28 31.5897C77.7747 31.5772 78.165 31.1571 78.1526 30.6524L78.088 28.2186L76.2956 28.2659Z" fill="white"/>
</mask>
<g mask="url(#mask9_622_22924)">
<path d="M78.1054 28.8899L76.313 28.9023L76.3105 28.8352L78.1029 28.8228L78.1054 28.8899Z" fill="#A6A8F3"/>
</g>
<mask id="mask10_622_22924" style="mask-type:luminance" maskUnits="userSpaceOnUse" x="76" y="28" width="3" height="4">
<path d="M76.2956 28.2659L76.3602 30.6997C76.3726 31.2043 76.7853 31.6021 77.28 31.5897C77.7747 31.5772 78.165 31.1571 78.1526 30.6524L78.088 28.2186L76.2956 28.2659Z" fill="white"/>
</mask>
<g mask="url(#mask10_622_22924)">
<path d="M78.1054 28.957L76.3154 28.9719L76.313 28.9023L78.1054 28.8899V28.957Z" fill="#A5A7F3"/>
</g>
<mask id="mask11_622_22924" style="mask-type:luminance" maskUnits="userSpaceOnUse" x="76" y="28" width="3" height="4">
<path d="M76.2956 28.2659L76.3602 30.6997C76.3726 31.2043 76.7853 31.6021 77.28 31.5897C77.7747 31.5772 78.165 31.1571 78.1526 30.6524L78.088 28.2186L76.2956 28.2659Z" fill="white"/>
</mask>
<g mask="url(#mask11_622_22924)">
<path d="M78.1079 29.0241L76.3155 29.039V28.9719L78.1054 28.957L78.1079 29.0241Z" fill="#A4A6F2"/>
</g>
<mask id="mask12_622_22924" style="mask-type:luminance" maskUnits="userSpaceOnUse" x="76" y="28" width="3" height="4">
<path d="M76.2956 28.2659L76.3602 30.6997C76.3726 31.2043 76.7853 31.6021 77.28 31.5897C77.7747 31.5772 78.165 31.1571 78.1526 30.6524L78.088 28.2186L76.2956 28.2659Z" fill="white"/>
</mask>
<g mask="url(#mask12_622_22924)">
<path d="M78.1104 29.0937L76.3179 29.1061L76.3155 29.039L78.1079 29.0241L78.1104 29.0937Z" fill="#A4A5F2"/>
</g>
<mask id="mask13_622_22924" style="mask-type:luminance" maskUnits="userSpaceOnUse" x="76" y="28" width="3" height="4">
<path d="M76.2956 28.2659L76.3602 30.6997C76.3726 31.2043 76.7853 31.6021 77.28 31.5897C77.7747 31.5772 78.165 31.1571 78.1526 30.6524L78.088 28.2186L76.2956 28.2659Z" fill="white"/>
</mask>
<g mask="url(#mask13_622_22924)">
<path d="M78.1103 29.1609L76.3204 29.1733L76.3179 29.1062L78.1103 29.0938V29.1609Z" fill="#A3A4F1"/>
</g>
<mask id="mask14_622_22924" style="mask-type:luminance" maskUnits="userSpaceOnUse" x="76" y="28" width="3" height="4">
<path d="M76.2956 28.2659L76.3602 30.6997C76.3726 31.2043 76.7853 31.6021 77.28 31.5897C77.7747 31.5772 78.165 31.1571 78.1526 30.6524L78.088 28.2186L76.2956 28.2659Z" fill="white"/>
</mask>
<g mask="url(#mask14_622_22924)">
<path d="M78.1129 29.228L76.3204 29.2429V29.1733L78.1104 29.1608L78.1129 29.228Z" fill="#A2A3F0"/>
</g>
<mask id="mask15_622_22924" style="mask-type:luminance" maskUnits="userSpaceOnUse" x="76" y="28" width="3" height="4">
<path d="M76.2956 28.2659L76.3602 30.6997C76.3726 31.2043 76.7853 31.6021 77.28 31.5897C77.7747 31.5772 78.165 31.1571 78.1526 30.6524L78.088 28.2186L76.2956 28.2659Z" fill="white"/>
</mask>
<g mask="url(#mask15_622_22924)">
<path d="M78.1153 29.2951L76.3229 29.31L76.3204 29.2429L78.1129 29.228L78.1153 29.2951Z" fill="#A1A2F0"/>
</g>
<mask id="mask16_622_22924" style="mask-type:luminance" maskUnits="userSpaceOnUse" x="76" y="28" width="3" height="4">
<path d="M76.2956 28.2659L76.3602 30.6997C76.3726 31.2043 76.7853 31.6021 77.28 31.5897C77.7747 31.5772 78.165 31.1571 78.1526 30.6524L78.088 28.2186L76.2956 28.2659Z" fill="white"/>
</mask>
<g mask="url(#mask16_622_22924)">
<path d="M78.1153 29.3647L76.3254 29.3771L76.3229 29.31L78.1153 29.2951V29.3647Z" fill="#A0A1EF"/>
</g>
<mask id="mask17_622_22924" style="mask-type:luminance" maskUnits="userSpaceOnUse" x="76" y="28" width="3" height="4">
<path d="M76.2956 28.2659L76.3602 30.6997C76.3726 31.2043 76.7853 31.6021 77.28 31.5897C77.7747 31.5772 78.165 31.1571 78.1526 30.6524L78.088 28.2186L76.2956 28.2659Z" fill="white"/>
</mask>
<g mask="url(#mask17_622_22924)">
<path d="M78.1178 29.4318L76.3279 29.4442L76.3254 29.3771L78.1153 29.3647L78.1178 29.4318Z" fill="#9FA0EF"/>
</g>
<mask id="mask18_622_22924" style="mask-type:luminance" maskUnits="userSpaceOnUse" x="76" y="28" width="3" height="4">
<path d="M76.2956 28.2659L76.3602 30.6997C76.3726 31.2043 76.7853 31.6021 77.28 31.5897C77.7747 31.5772 78.165 31.1571 78.1526 30.6524L78.088 28.2186L76.2956 28.2659Z" fill="white"/>
</mask>
<g mask="url(#mask18_622_22924)">
<path d="M78.1203 29.4989L76.3279 29.5139V29.4443L78.1178 29.4318L78.1203 29.4989Z" fill="#9E9FEE"/>
</g>
<mask id="mask19_622_22924" style="mask-type:luminance" maskUnits="userSpaceOnUse" x="76" y="28" width="3" height="4">
<path d="M76.2956 28.2659L76.3602 30.6997C76.3726 31.2043 76.7853 31.6021 77.28 31.5897C77.7747 31.5772 78.165 31.1571 78.1526 30.6524L78.088 28.2186L76.2956 28.2659Z" fill="white"/>
</mask>
<g mask="url(#mask19_622_22924)">
<path d="M78.1228 29.5661L76.3304 29.581L76.3279 29.5139L78.1203 29.499L78.1228 29.5661Z" fill="#9D9EEE"/>
</g>
<mask id="mask20_622_22924" style="mask-type:luminance" maskUnits="userSpaceOnUse" x="76" y="28" width="3" height="4">
<path d="M76.2956 28.2659L76.3602 30.6997C76.3726 31.2043 76.7853 31.6021 77.28 31.5897C77.7747 31.5772 78.165 31.1571 78.1526 30.6524L78.088 28.2186L76.2956 28.2659Z" fill="white"/>
</mask>
<g mask="url(#mask20_622_22924)">
<path d="M78.1228 29.6356L76.3329 29.6481L76.3304 29.581L78.1228 29.566V29.6356Z" fill="#9C9DED"/>
</g>
<mask id="mask21_622_22924" style="mask-type:luminance" maskUnits="userSpaceOnUse" x="76" y="28" width="3" height="4">
<path d="M76.2956 28.2659L76.3602 30.6997C76.3726 31.2043 76.7853 31.6021 77.28 31.5897C77.7747 31.5772 78.165 31.1571 78.1526 30.6524L78.088 28.2186L76.2956 28.2659Z" fill="white"/>
</mask>
<g mask="url(#mask21_622_22924)">
<path d="M78.1253 29.7028L76.3329 29.7152V29.6481L78.1228 29.6357L78.1253 29.7028Z" fill="#9C9CED"/>
</g>
<mask id="mask22_622_22924" style="mask-type:luminance" maskUnits="userSpaceOnUse" x="76" y="28" width="3" height="4">
<path d="M76.2956 28.2659L76.3602 30.6997C76.3726 31.2043 76.7853 31.6021 77.28 31.5897C77.7747 31.5772 78.165 31.1571 78.1526 30.6524L78.088 28.2186L76.2956 28.2659Z" fill="white"/>
</mask>
<g mask="url(#mask22_622_22924)">
<path d="M78.1278 29.7699L76.3353 29.7848L76.3329 29.7152L78.1253 29.7028L78.1278 29.7699Z" fill="#9B9BEC"/>
</g>
<mask id="mask23_622_22924" style="mask-type:luminance" maskUnits="userSpaceOnUse" x="76" y="28" width="3" height="4">
<path d="M76.2956 28.2659L76.3602 30.6997C76.3726 31.2043 76.7853 31.6021 77.28 31.5897C77.7747 31.5772 78.165 31.1571 78.1526 30.6524L78.088 28.2186L76.2956 28.2659Z" fill="white"/>
</mask>
<g mask="url(#mask23_622_22924)">
<path d="M78.1278 29.837L76.3378 29.8519L76.3354 29.7848L78.1278 29.7699V29.837Z" fill="#9A9AEB"/>
</g>
<mask id="mask24_622_22924" style="mask-type:luminance" maskUnits="userSpaceOnUse" x="76" y="28" width="3" height="4">
<path d="M76.2956 28.2659L76.3602 30.6997C76.3726 31.2043 76.7853 31.6021 77.28 31.5897C77.7747 31.5772 78.165 31.1571 78.1526 30.6524L78.088 28.2186L76.2956 28.2659Z" fill="white"/>
</mask>
<g mask="url(#mask24_622_22924)">
<path d="M78.1302 29.9042L76.3403 29.9191L76.3378 29.852L78.1278 29.837L78.1302 29.9042Z" fill="#9999EB"/>
</g>
<mask id="mask25_622_22924" style="mask-type:luminance" maskUnits="userSpaceOnUse" x="76" y="28" width="3" height="4">
<path d="M76.2956 28.2659L76.3602 30.6997C76.3726 31.2043 76.7853 31.6021 77.28 31.5897C77.7747 31.5772 78.165 31.1571 78.1526 30.6524L78.088 28.2186L76.2956 28.2659Z" fill="white"/>
</mask>
<g mask="url(#mask25_622_22924)">
<path d="M78.1327 29.9738L76.3403 29.9862V29.9191L78.1302 29.9042L78.1327 29.9738Z" fill="#9898EA"/>
</g>
<mask id="mask26_622_22924" style="mask-type:luminance" maskUnits="userSpaceOnUse" x="76" y="28" width="3" height="4">
<path d="M76.2956 28.2659L76.3602 30.6997C76.3726 31.2043 76.7853 31.6021 77.28 31.5897C77.7747 31.5772 78.165 31.1571 78.1526 30.6524L78.088 28.2186L76.2956 28.2659Z" fill="white"/>
</mask>
<g mask="url(#mask26_622_22924)">
<path d="M78.1352 30.0409L76.3428 30.0533L76.3403 29.9862L78.1327 29.9738L78.1352 30.0409Z" fill="#9797EA"/>
</g>
<mask id="mask27_622_22924" style="mask-type:luminance" maskUnits="userSpaceOnUse" x="76" y="28" width="3" height="4">
<path d="M76.2956 28.2659L76.3602 30.6997C76.3726 31.2043 76.7853 31.6021 77.28 31.5897C77.7747 31.5772 78.165 31.1571 78.1526 30.6524L78.088 28.2186L76.2956 28.2659Z" fill="white"/>
</mask>
<g mask="url(#mask27_622_22924)">
<path d="M78.1352 30.108L76.3453 30.1229L76.3428 30.0533L78.1352 30.0409V30.108Z" fill="#9696E9"/>
</g>
<mask id="mask28_622_22924" style="mask-type:luminance" maskUnits="userSpaceOnUse" x="76" y="28" width="3" height="4">
<path d="M76.2956 28.2659L76.3602 30.6997C76.3726 31.2043 76.7853 31.6021 77.28 31.5897C77.7747 31.5772 78.165 31.1571 78.1526 30.6524L78.088 28.2186L76.2956 28.2659Z" fill="white"/>
</mask>
<g mask="url(#mask28_622_22924)">
<path d="M78.1377 30.1751L76.3453 30.19V30.1229L78.1352 30.108L78.1377 30.1751Z" fill="#9595E9"/>
</g>
<mask id="mask29_622_22924" style="mask-type:luminance" maskUnits="userSpaceOnUse" x="76" y="28" width="3" height="4">
<path d="M76.2956 28.2659L76.3602 30.6997C76.3726 31.2043 76.7853 31.6021 77.28 31.5897C77.7747 31.5772 78.165 31.1571 78.1526 30.6524L78.088 28.2186L76.2956 28.2659Z" fill="white"/>
</mask>
<g mask="url(#mask29_622_22924)">
<path d="M78.1402 30.2447L76.3478 30.2571L76.3453 30.19L78.1377 30.1751L78.1402 30.2447Z" fill="#9494E8"/>
</g>
<mask id="mask30_622_22924" style="mask-type:luminance" maskUnits="userSpaceOnUse" x="76" y="28" width="3" height="4">
<path d="M76.2956 28.2659L76.3602 30.6997C76.3726 31.2043 76.7853 31.6021 77.28 31.5897C77.7747 31.5772 78.165 31.1571 78.1526 30.6524L78.088 28.2186L76.2956 28.2659Z" fill="white"/>
</mask>
<g mask="url(#mask30_622_22924)">
<path d="M78.1402 30.3119L76.3503 30.3243L76.3478 30.2572L78.1402 30.2448V30.3119Z" fill="#9493E8"/>
</g>
<mask id="mask31_622_22924" style="mask-type:luminance" maskUnits="userSpaceOnUse" x="76" y="28" width="3" height="4">
<path d="M76.2956 28.2659L76.3602 30.6997C76.3726 31.2043 76.7853 31.6021 77.28 31.5897C77.7747 31.5772 78.165 31.1571 78.1526 30.6524L78.088 28.2186L76.2956 28.2659Z" fill="white"/>
</mask>
<g mask="url(#mask31_622_22924)">
<path d="M78.1427 30.379L76.3527 30.3939L76.3503 30.3243L78.1402 30.3118L78.1427 30.379Z" fill="#9392E7"/>
</g>
<mask id="mask32_622_22924" style="mask-type:luminance" maskUnits="userSpaceOnUse" x="76" y="28" width="3" height="4">
<path d="M76.2956 28.2659L76.3602 30.6997C76.3726 31.2043 76.7853 31.6021 77.28 31.5897C77.7747 31.5772 78.165 31.1571 78.1526 30.6524L78.088 28.2186L76.2956 28.2659Z" fill="white"/>
</mask>
<g mask="url(#mask32_622_22924)">
<path d="M78.1452 30.4461L76.3528 30.461V30.3939L78.1427 30.379L78.1452 30.4461Z" fill="#9291E6"/>
</g>
<mask id="mask33_622_22924" style="mask-type:luminance" maskUnits="userSpaceOnUse" x="76" y="28" width="3" height="4">
<path d="M76.2956 28.2659L76.3602 30.6997C76.3726 31.2043 76.7853 31.6021 77.28 31.5897C77.7747 31.5772 78.165 31.1571 78.1526 30.6524L78.088 28.2186L76.2956 28.2659Z" fill="white"/>
</mask>
<g mask="url(#mask33_622_22924)">
<path d="M78.1477 30.5157L76.3552 30.5281L76.3528 30.461L78.1452 30.4461L78.1477 30.5157Z" fill="#9190E6"/>
</g>
<mask id="mask34_622_22924" style="mask-type:luminance" maskUnits="userSpaceOnUse" x="76" y="28" width="3" height="4">
<path d="M76.2956 28.2659L76.3602 30.6997C76.3726 31.2043 76.7853 31.6021 77.28 31.5897C77.7747 31.5772 78.165 31.1571 78.1526 30.6524L78.088 28.2186L76.2956 28.2659Z" fill="white"/>
</mask>
<g mask="url(#mask34_622_22924)">
<path d="M78.1476 30.5828L76.3577 30.5952L76.3552 30.5281L78.1476 30.5157V30.5828Z" fill="#908FE5"/>
</g>
<mask id="mask35_622_22924" style="mask-type:luminance" maskUnits="userSpaceOnUse" x="76" y="28" width="3" height="4">
<path d="M76.2956 28.2659L76.3602 30.6997C76.3726 31.2043 76.7853 31.6021 77.28 31.5897C77.7747 31.5772 78.165 31.1571 78.1526 30.6524L78.088 28.2186L76.2956 28.2659Z" fill="white"/>
</mask>
<g mask="url(#mask35_622_22924)">
<path d="M78.1501 30.6499L76.3577 30.6649V30.5953L78.1477 30.5828L78.1501 30.6499Z" fill="#8F8EE5"/>
</g>
<mask id="mask36_622_22924" style="mask-type:luminance" maskUnits="userSpaceOnUse" x="76" y="28" width="3" height="4">
<path d="M76.2956 28.2659L76.3602 30.6997C76.3726 31.2043 76.7853 31.6021 77.28 31.5897C77.7747 31.5772 78.165 31.1571 78.1526 30.6524L78.088 28.2186L76.2956 28.2659Z" fill="white"/>
</mask>
<g mask="url(#mask36_622_22924)">
<path d="M78.1526 30.7171L76.3602 30.732L76.3577 30.6649L78.1501 30.65L78.1526 30.7171Z" fill="#8E8DE4"/>
</g>
<mask id="mask37_622_22924" style="mask-type:luminance" maskUnits="userSpaceOnUse" x="76" y="28" width="3" height="4">
<path d="M76.2956 28.2659L76.3602 30.6997C76.3726 31.2043 76.7853 31.6021 77.28 31.5897C77.7747 31.5772 78.165 31.1571 78.1526 30.6524L78.088 28.2186L76.2956 28.2659Z" fill="white"/>
</mask>
<g mask="url(#mask37_622_22924)">
<path d="M78.1526 30.7867L76.3627 30.7991L76.3602 30.732L78.1526 30.7171V30.7867Z" fill="#8D8CE4"/>
</g>
<mask id="mask38_622_22924" style="mask-type:luminance" maskUnits="userSpaceOnUse" x="76" y="28" width="3" height="4">
<path d="M76.2956 28.2659L76.3602 30.6997C76.3726 31.2043 76.7853 31.6021 77.28 31.5897C77.7747 31.5772 78.165 31.1571 78.1526 30.6524L78.088 28.2186L76.2956 28.2659Z" fill="white"/>
</mask>
<g mask="url(#mask38_622_22924)">
<path d="M78.1551 30.8538L76.3627 30.8662V30.7991L78.1526 30.7867L78.1551 30.8538Z" fill="#8C8BE3"/>
</g>
<mask id="mask39_622_22924" style="mask-type:luminance" maskUnits="userSpaceOnUse" x="76" y="28" width="3" height="4">
<path d="M76.2956 28.2659L76.3602 30.6997C76.3726 31.2043 76.7853 31.6021 77.28 31.5897C77.7747 31.5772 78.165 31.1571 78.1526 30.6524L78.088 28.2186L76.2956 28.2659Z" fill="white"/>
</mask>
<g mask="url(#mask39_622_22924)">
<path d="M78.1576 30.9209L76.3652 30.9359L76.3627 30.8663L78.1551 30.8538L78.1576 30.9209Z" fill="#8C8AE3"/>
</g>
<mask id="mask40_622_22924" style="mask-type:luminance" maskUnits="userSpaceOnUse" x="76" y="28" width="3" height="4">
<path d="M76.2956 28.2659L76.3602 30.6997C76.3726 31.2043 76.7853 31.6021 77.28 31.5897C77.7747 31.5772 78.165 31.1571 78.1526 30.6524L78.088 28.2186L76.2956 28.2659Z" fill="white"/>
</mask>
<g mask="url(#mask40_622_22924)">
<path d="M78.1601 30.9881L76.3677 31.003L76.3652 30.9359L78.1576 30.921L78.1601 30.9881Z" fill="#8B89E2"/>
</g>
<mask id="mask41_622_22924" style="mask-type:luminance" maskUnits="userSpaceOnUse" x="76" y="28" width="3" height="4">
<path d="M76.2956 28.2659L76.3602 30.6997C76.3726 31.2043 76.7853 31.6021 77.28 31.5897C77.7747 31.5772 78.165 31.1571 78.1526 30.6524L78.088 28.2186L76.2956 28.2659Z" fill="white"/>
</mask>
<g mask="url(#mask41_622_22924)">
<path d="M78.1601 31.0576L76.3701 31.0701L76.3676 31.003L78.1601 30.988V31.0576Z" fill="#8A88E1"/>
</g>
<mask id="mask42_622_22924" style="mask-type:luminance" maskUnits="userSpaceOnUse" x="76" y="28" width="3" height="4">
<path d="M76.2956 28.2659L76.3602 30.6997C76.3726 31.2043 76.7853 31.6021 77.28 31.5897C77.7747 31.5772 78.165 31.1571 78.1526 30.6524L78.088 28.2186L76.2956 28.2659Z" fill="white"/>
</mask>
<g mask="url(#mask42_622_22924)">
<path d="M78.1626 31.1248L76.3701 31.1372V31.0701L78.1601 31.0577L78.1626 31.1248Z" fill="#8987E1"/>
</g>
<mask id="mask43_622_22924" style="mask-type:luminance" maskUnits="userSpaceOnUse" x="76" y="28" width="3" height="4">
<path d="M76.2956 28.2659L76.3602 30.6997C76.3726 31.2043 76.7853 31.6021 77.28 31.5897C77.7747 31.5772 78.165 31.1571 78.1526 30.6524L78.088 28.2186L76.2956 28.2659Z" fill="white"/>
</mask>
<g mask="url(#mask43_622_22924)">
<path d="M78.165 31.1919L76.3726 31.2069L76.3701 31.1372L78.1626 31.1248L78.165 31.1919Z" fill="#8886E0"/>
</g>
<mask id="mask44_622_22924" style="mask-type:luminance" maskUnits="userSpaceOnUse" x="76" y="28" width="3" height="4">
<path d="M76.2956 28.2659L76.3602 30.6997C76.3726 31.2043 76.7853 31.6021 77.28 31.5897C77.7747 31.5772 78.165 31.1571 78.1526 30.6524L78.088 28.2186L76.2956 28.2659Z" fill="white"/>
</mask>
<g mask="url(#mask44_622_22924)">
<path d="M78.165 31.259L76.3751 31.2739L76.3726 31.2068L78.165 31.1919V31.259Z" fill="#8784E0"/>
</g>
<mask id="mask45_622_22924" style="mask-type:luminance" maskUnits="userSpaceOnUse" x="76" y="28" width="3" height="4">
<path d="M76.2956 28.2659L76.3602 30.6997C76.3726 31.2043 76.7853 31.6021 77.28 31.5897C77.7747 31.5772 78.165 31.1571 78.1526 30.6524L78.088 28.2186L76.2956 28.2659Z" fill="white"/>
</mask>
<g mask="url(#mask45_622_22924)">
<path d="M78.1675 31.3286L76.3751 31.3411V31.2739L78.1651 31.259L78.1675 31.3286Z" fill="#8683DF"/>
</g>
<mask id="mask46_622_22924" style="mask-type:luminance" maskUnits="userSpaceOnUse" x="76" y="28" width="3" height="4">
<path d="M76.2956 28.2659L76.3602 30.6997C76.3726 31.2043 76.7853 31.6021 77.28 31.5897C77.7747 31.5772 78.165 31.1571 78.1526 30.6524L78.088 28.2186L76.2956 28.2659Z" fill="white"/>
</mask>
<g mask="url(#mask46_622_22924)">
<path d="M78.17 31.3957L76.3776 31.4082L76.3751 31.341L78.1675 31.3286L78.17 31.3957Z" fill="#8582DF"/>
</g>
<mask id="mask47_622_22924" style="mask-type:luminance" maskUnits="userSpaceOnUse" x="76" y="28" width="3" height="4">
<path d="M76.2956 28.2659L76.3602 30.6997C76.3726 31.2043 76.7853 31.6021 77.28 31.5897C77.7747 31.5772 78.165 31.1571 78.1526 30.6524L78.088 28.2186L76.2956 28.2659Z" fill="white"/>
</mask>
<g mask="url(#mask47_622_22924)">
<path d="M78.17 31.4629L76.3801 31.4778L76.3776 31.4082L78.17 31.3958V31.4629Z" fill="#8481DE"/>
</g>
<mask id="mask48_622_22924" style="mask-type:luminance" maskUnits="userSpaceOnUse" x="76" y="28" width="3" height="4">
<path d="M76.2956 28.2659L76.3602 30.6997C76.3726 31.2043 76.7853 31.6021 77.28 31.5897C77.7747 31.5772 78.165 31.1571 78.1526 30.6524L78.088 28.2186L76.2956 28.2659Z" fill="white"/>
</mask>
<g mask="url(#mask48_622_22924)">
<path d="M78.1725 31.53L76.3826 31.5449L76.3801 31.4778L78.17 31.4629L78.1725 31.53Z" fill="#8380DD"/>
</g>
<mask id="mask49_622_22924" style="mask-type:luminance" maskUnits="userSpaceOnUse" x="76" y="28" width="3" height="4">
<path d="M76.2956 28.2659L76.3602 30.6997C76.3726 31.2043 76.7853 31.6021 77.28 31.5897C77.7747 31.5772 78.165 31.1571 78.1526 30.6524L78.088 28.2186L76.2956 28.2659Z" fill="white"/>
</mask>
<g mask="url(#mask49_622_22924)">
<path d="M76.4298 31.6121H76.3826V31.5449L78.1725 31.53L78.175 31.5673L76.4298 31.6121Z" fill="#837FDD"/>
</g>
<path d="M80.656 31.6941C80.0818 31.709 79.6044 31.2566 79.5895 30.6823L79.4205 24.2037L81.4963 24.149L81.6653 30.6276C81.6827 31.2044 81.2303 31.6792 80.656 31.6941Z" fill="white"/>
<path d="M80.6585 31.7513C80.0544 31.7662 79.5522 31.2889 79.5348 30.6848L79.3633 24.1515L81.551 24.0944L81.7225 30.6276C81.7399 31.2317 81.2626 31.7364 80.6585 31.7513ZM79.4802 24.2609L79.6467 30.6823C79.6616 31.2242 80.1141 31.6518 80.6536 31.6394C81.1955 31.6245 81.6231 31.172 81.6107 30.6326L81.4441 24.2112L79.4802 24.2609Z" fill="#1133A2"/>
<path d="M81.4615 24.425L79.4975 24.4772C79.3608 24.4797 79.2465 24.3728 79.244 24.2361C79.2415 24.0993 79.3484 23.985 79.4851 23.9825L81.4491 23.9303C81.5858 23.9278 81.7002 24.0347 81.7026 24.1714C81.7076 24.3057 81.5982 24.42 81.4615 24.425Z" fill="#1133A2"/>
<mask id="mask50_622_22924" style="mask-type:luminance" maskUnits="userSpaceOnUse" x="79" y="28" width="3" height="4">
<path d="M79.6691 28.1764L79.7337 30.6102C79.7461 31.1148 80.1588 31.5126 80.6535 31.5002C81.1482 31.4878 81.5385 31.0676 81.5261 30.563L81.4615 28.1292L79.6691 28.1764Z" fill="white"/>
</mask>
<g mask="url(#mask50_622_22924)">
<path d="M81.469 28.4797L81.3919 28.1317H81.459L81.469 28.4797Z" fill="#B0B3F9"/>
</g>
<mask id="mask51_622_22924" style="mask-type:luminance" maskUnits="userSpaceOnUse" x="79" y="28" width="3" height="4">
<path d="M79.6691 28.1764L79.7337 30.6102C79.7461 31.1148 80.1588 31.5126 80.6535 31.5002C81.1482 31.4878 81.5385 31.0676 81.5261 30.563L81.4615 28.1292L79.6691 28.1764Z" fill="white"/>
</mask>
<g mask="url(#mask51_622_22924)">
<path d="M81.4988 29.5934L81.1756 28.1391L81.3919 28.1317L81.4689 28.4797L81.4988 29.5934Z" fill="#AFB2F9"/>
</g>
<mask id="mask52_622_22924" style="mask-type:luminance" maskUnits="userSpaceOnUse" x="79" y="28" width="3" height="4">
<path d="M79.6691 28.1764L79.7337 30.6102C79.7461 31.1148 80.1588 31.5126 80.6535 31.5002C81.1482 31.4878 81.5385 31.0676 81.5261 30.563L81.4615 28.1292L79.6691 28.1764Z" fill="white"/>
</mask>
<g mask="url(#mask52_622_22924)">
<path d="M81.5261 30.7071L80.9593 28.1441L81.1756 28.1391L81.4988 29.5934L81.5261 30.7071Z" fill="#AEB1F8"/>
</g>
<mask id="mask53_622_22924" style="mask-type:luminance" maskUnits="userSpaceOnUse" x="79" y="28" width="3" height="4">
<path d="M79.6691 28.1764L79.7337 30.6102C79.7461 31.1148 80.1588 31.5126 80.6535 31.5002C81.1482 31.4878 81.5385 31.0676 81.5261 30.563L81.4615 28.1292L79.6691 28.1764Z" fill="white"/>
</mask>
<g mask="url(#mask53_622_22924)">
<path d="M81.4814 31.4803L80.7406 28.149L80.9593 28.144L81.5261 30.7071L81.5485 31.4778L81.4814 31.4803Z" fill="#ADB0F8"/>
</g>
<mask id="mask54_622_22924" style="mask-type:luminance" maskUnits="userSpaceOnUse" x="79" y="28" width="3" height="4">
<path d="M79.6691 28.1764L79.7337 30.6102C79.7461 31.1148 80.1588 31.5126 80.6535 31.5002C81.1482 31.4878 81.5385 31.0676 81.5261 30.563L81.4615 28.1292L79.6691 28.1764Z" fill="white"/>
</mask>
<g mask="url(#mask54_622_22924)">
<path d="M81.2651 31.4853L80.5243 28.154L80.7406 28.149L81.4814 31.4803L81.2651 31.4853Z" fill="#ADAFF7"/>
</g>
<mask id="mask55_622_22924" style="mask-type:luminance" maskUnits="userSpaceOnUse" x="79" y="28" width="3" height="4">
<path d="M79.6691 28.1764L79.7337 30.6102C79.7461 31.1148 80.1588 31.5126 80.6535 31.5002C81.1482 31.4878 81.5385 31.0676 81.5261 30.563L81.4615 28.1292L79.6691 28.1764Z" fill="white"/>
</mask>
<g mask="url(#mask55_622_22924)">
<path d="M81.0463 31.4902L80.308 28.1615L80.5243 28.154L81.2651 31.4852L81.0463 31.4902Z" fill="#ACAEF7"/>
</g>
<mask id="mask56_622_22924" style="mask-type:luminance" maskUnits="userSpaceOnUse" x="79" y="28" width="3" height="4">
<path d="M79.6691 28.1764L79.7337 30.6102C79.7461 31.1148 80.1588 31.5126 80.6535 31.5002C81.1482 31.4878 81.5385 31.0676 81.5261 30.563L81.4615 28.1292L79.6691 28.1764Z" fill="white"/>
</mask>
<g mask="url(#mask56_622_22924)">
<path d="M80.8301 31.4977L80.0917 28.1664L80.308 28.1614L81.0463 31.4902L80.8301 31.4977Z" fill="#ABADF6"/>
</g>
<mask id="mask57_622_22924" style="mask-type:luminance" maskUnits="userSpaceOnUse" x="79" y="28" width="3" height="4">
<path d="M79.6691 28.1764L79.7337 30.6102C79.7461 31.1148 80.1588 31.5126 80.6535 31.5002C81.1482 31.4878 81.5385 31.0676 81.5261 30.563L81.4615 28.1292L79.6691 28.1764Z" fill="white"/>
</mask>
<g mask="url(#mask57_622_22924)">
<path d="M80.6138 31.5027L79.8729 28.1714L80.0917 28.1664L80.83 31.4977L80.6138 31.5027Z" fill="#AAACF6"/>
</g>
<mask id="mask58_622_22924" style="mask-type:luminance" maskUnits="userSpaceOnUse" x="79" y="28" width="3" height="4">
<path d="M79.6691 28.1764L79.7337 30.6102C79.7461 31.1148 80.1588 31.5126 80.6535 31.5002C81.1482 31.4878 81.5385 31.0676 81.5261 30.563L81.4615 28.1292L79.6691 28.1764Z" fill="white"/>
</mask>
<g mask="url(#mask58_622_22924)">
<path d="M80.3975 31.5076L79.6716 28.241L79.6691 28.1764L79.8729 28.1714L80.6138 31.5026L80.3975 31.5076Z" fill="#A9ABF5"/>
</g>
<mask id="mask59_622_22924" style="mask-type:luminance" maskUnits="userSpaceOnUse" x="79" y="28" width="3" height="4">
<path d="M79.6691 28.1764L79.7337 30.6102C79.7461 31.1148 80.1588 31.5126 80.6535 31.5002C81.1482 31.4878 81.5385 31.0676 81.5261 30.563L81.4615 28.1292L79.6691 28.1764Z" fill="white"/>
</mask>
<g mask="url(#mask59_622_22924)">
<path d="M80.1787 31.5151L79.6989 29.3523L79.6716 28.241L80.3975 31.5076L80.1787 31.5151Z" fill="#A8AAF4"/>
</g>
<mask id="mask60_622_22924" style="mask-type:luminance" maskUnits="userSpaceOnUse" x="79" y="28" width="3" height="4">
<path d="M79.6691 28.1764L79.7337 30.6102C79.7461 31.1148 80.1588 31.5126 80.6535 31.5002C81.1482 31.4878 81.5385 31.0676 81.5261 30.563L81.4615 28.1292L79.6691 28.1764Z" fill="white"/>
</mask>
<g mask="url(#mask60_622_22924)">
<path d="M79.9624 31.52L79.7287 30.466L79.6989 29.3522L80.1787 31.5151L79.9624 31.52Z" fill="#A7A9F4"/>
</g>
<mask id="mask61_622_22924" style="mask-type:luminance" maskUnits="userSpaceOnUse" x="79" y="28" width="3" height="4">
<path d="M79.6691 28.1764L79.7337 30.6102C79.7461 31.1148 80.1588 31.5126 80.6535 31.5002C81.1482 31.4878 81.5385 31.0676 81.5261 30.563L81.4615 28.1292L79.6691 28.1764Z" fill="white"/>
</mask>
<g mask="url(#mask61_622_22924)">
<path d="M79.7287 30.466L79.9624 31.5201L79.7561 31.525L79.7287 30.466Z" fill="#A6A8F3"/>
</g>
<path d="M84.0967 31.6046C83.5224 31.6195 83.0451 31.1671 83.0302 30.5928L82.8611 24.1143L84.9369 24.0596L85.106 30.5381C85.1234 31.1124 84.6709 31.5897 84.0967 31.6046Z" fill="white"/>
<path d="M84.0991 31.6617C83.495 31.6766 82.9929 31.1993 82.9755 30.5952L82.8039 24.062L84.9916 24.0048L85.1631 30.5381C85.1805 31.1422 84.7032 31.6468 84.0991 31.6617ZM82.9208 24.1714L83.0873 30.5928C83.1022 31.1347 83.5547 31.5623 84.0942 31.5499C84.6361 31.5349 85.0637 31.0825 85.0513 30.543L84.8847 24.1217L82.9208 24.1714Z" fill="#1133A2"/>
<path d="M84.9021 24.3355L82.9382 24.3877C82.8015 24.3902 82.6871 24.2833 82.6846 24.1466C82.6821 24.0098 82.789 23.8955 82.9258 23.893L84.8897 23.8408C85.0264 23.8383 85.1408 23.9452 85.1433 24.0819C85.1458 24.2162 85.0389 24.3305 84.9021 24.3355Z" fill="#1133A2"/>
<path d="M83.1097 28.0869L83.1743 30.5207C83.1868 31.0254 83.5995 31.4231 84.0942 31.4107C84.5889 31.3983 84.9792 30.9781 84.9668 30.4735L84.9021 28.0397L83.1097 28.0869Z" fill="#F69A2B"/>
<path d="M86.7542 32.8973L73.6778 33.2379C73.4168 33.2454 73.2005 33.039 73.193 32.778C73.1855 32.517 73.3919 32.3007 73.6529 32.2932L86.7293 31.9526C86.9904 31.9452 87.2066 32.1515 87.2141 32.4126C87.2216 32.6736 87.0152 32.8899 86.7542 32.8973Z" fill="#1133A2"/>
<path d="M86.7269 25.4716L73.3173 25.8221C73.1483 25.8271 73.0066 25.6929 73.0041 25.5238C72.9991 25.3548 73.1333 25.2131 73.3024 25.2106L86.7119 24.8601C86.881 24.8551 87.0227 24.9893 87.0252 25.1584C87.0302 25.3274 86.8959 25.4666 86.7269 25.4716Z" fill="#1133A2"/>
<path d="M74.6223 25.1723L74.2097 25.183L74.3948 32.271L74.8073 32.2602L74.6223 25.1723Z" fill="#1133A2"/>
<path d="M85.9142 24.8785L85.5016 24.8892L85.6867 31.9772L86.0992 31.9664L85.9142 24.8785Z" fill="#1133A2"/>
<path d="M49.8593 55.2838L49.9861 56.1912C50.0134 56.3951 50.1775 56.5517 50.3839 56.5716C50.7841 56.6114 51.4553 56.6139 51.9873 56.2782C52.1489 56.1763 52.2285 55.9824 52.1837 55.7984L51.9625 54.8662C51.9078 54.6325 51.6766 54.4858 51.4404 54.5331L50.2098 54.7866C49.9786 54.8339 49.827 55.0502 49.8593 55.2838Z" fill="#1D3078"/>
<path d="M47.9252 52.1241L48.308 54.8761C48.3354 55.07 48.4845 55.2217 48.676 55.254C49.4541 55.3783 51.4553 55.5598 52.8226 54.4485C52.9569 54.3392 53.0165 54.1651 52.9768 53.9961L52.3254 51.2366C52.2707 51.0029 52.0395 50.8563 51.8034 50.9035L48.2732 51.6294C48.047 51.6766 47.8929 51.8929 47.9252 52.1241Z" fill="#091847"/>
<path d="M46.4659 48.7978L47.0078 52.7034C47.0352 52.8948 47.1794 53.0464 47.3683 53.0787C48.3229 53.2453 51.2092 53.5735 53.1011 51.9426C53.2229 51.8382 53.2701 51.6692 53.2328 51.5126L52.3105 47.607C52.2558 47.3733 52.0246 47.2267 51.7884 47.2739L46.8139 48.2981C46.5877 48.3479 46.4336 48.5666 46.4659 48.7978Z" fill="#1D3078"/>
<path d="M44.8276 46.543C44.8276 46.543 36.7978 45.8793 37.3298 57.3025C37.8618 68.7257 48.0047 64.9172 48.0047 64.9172L39.8904 73.5486C39.8904 73.5486 31.868 68.85 32.5244 57.6779C33.1807 46.5033 40.1713 42.2273 43.3857 42.2596C46.6002 42.292 44.8276 46.543 44.8276 46.543Z" fill="#1D3078"/>
<path d="M48.0047 64.9196L40.8823 72.4945C41.0066 71.5199 40.9221 70.5057 40.7083 69.5784C40.2583 67.6443 38.7468 66.2073 37.9314 64.4348C36.9793 62.359 36.4721 60.0072 36.6437 57.7251C36.7655 56.0942 37.203 54.4982 37.6207 52.9097C37.3671 54.1278 37.2502 55.5772 37.3298 57.3049C37.8593 68.7282 48.0047 64.9196 48.0047 64.9196Z" fill="#091847"/>
<path d="M43.4702 34.451L50.3217 33.218C50.6051 33.1658 50.8786 33.3522 50.9357 33.6356L53.6007 46.9234C53.6579 47.2093 53.474 47.4877 53.1881 47.5474L45.561 49.116C45.2602 49.1782 44.9718 48.9718 44.9295 48.6685L43.0377 35.0427C43.0004 34.7618 43.1893 34.5008 43.4702 34.451Z" fill="#1D3078"/>
<path d="M53.5784 46.8015C51.1396 46.7071 48.7033 46.5679 46.9059 44.7034C45.7002 43.4529 44.8773 41.8793 44.4298 40.2087C43.9525 38.4287 43.868 36.5194 43.1446 34.809C43.1297 34.7767 43.1197 34.7419 43.1073 34.7096C43.0501 34.809 43.0228 34.9234 43.0402 35.0452L44.932 48.671C44.9743 48.9743 45.2651 49.1782 45.5635 49.1185L53.1905 47.5498C53.4764 47.4902 53.6604 47.2117 53.6032 46.9258L53.5784 46.8015Z" fill="#091847"/>
<path d="M46.064 43.1043C47.5081 41.8523 47.6638 39.6667 46.4118 38.2226C45.1597 36.7785 42.9741 36.6228 41.53 37.8748C40.0859 39.1268 39.9302 41.3125 41.1822 42.7566C42.4342 44.2007 44.6199 44.3564 46.064 43.1043Z" fill="#5067B2"/>
<path d="M45.1662 41.8603C45.9244 41.1021 45.9244 39.8728 45.1662 39.1145C44.408 38.3563 43.1787 38.3563 42.4204 39.1145C41.6622 39.8728 41.6622 41.1021 42.4204 41.8603C43.1787 42.6185 44.408 42.6185 45.1662 41.8603Z" fill="#1D3078"/>
<path d="M44.047 34.3467L42.0955 25.571L48.1489 24.4896L49.4516 33.3746L44.047 34.3467Z" fill="#091847"/>
<path d="M41.4467 25.576L41.2577 24.8774C41.2155 24.7233 41.3124 24.5692 41.469 24.5368L48.042 23.2565C48.2012 23.2267 48.3503 23.3386 48.3652 23.4977L48.4373 24.241C48.4498 24.3827 48.3553 24.5095 48.2161 24.5368L41.7599 25.7749C41.6207 25.7997 41.4839 25.7152 41.4467 25.576Z" fill="#5067B2"/>
<path d="M42.7269 31.1148L42.538 30.4162C42.4957 30.2621 42.5927 30.108 42.7493 30.0757L49.3223 28.7954C49.4814 28.7655 49.6306 28.8774 49.6455 29.0365L49.7176 29.7798C49.73 29.9215 49.6356 30.0483 49.4963 30.0757L43.0402 31.3137C42.9034 31.3385 42.7642 31.2515 42.7269 31.1148Z" fill="#5067B2"/>
<path d="M63.9475 64.0296C63.6765 61.5784 58.9979 59.6269 53.2651 59.6269C47.5324 59.6269 42.8512 61.5784 42.5827 64.0296V64.0396C42.5753 64.1092 42.5703 64.1813 42.5703 64.2534C42.5703 64.3279 42.5753 64.4 42.5827 64.4721V65.8021C42.5753 65.8742 42.5703 65.9488 42.5703 66.0209C42.5703 66.093 42.5753 66.1626 42.5827 66.2347V66.3615H42.6026C43.0054 68.758 47.6244 70.6474 53.2676 70.6474C58.9109 70.6474 63.5299 68.758 63.9326 66.3615H63.9649V64.0321H63.9475V64.0296Z" fill="#091847"/>
<path d="M53.2626 67.9774C58.3042 67.9774 62.3913 66.2099 62.3913 64.0296C62.3913 61.8493 58.3042 60.0818 53.2626 60.0818C48.221 60.0818 44.134 61.8493 44.134 64.0296C44.134 66.2099 48.221 67.9774 53.2626 67.9774Z" fill="#ADC3EF"/>
<path d="M37.7425 78.6946L40.3404 69.4988C40.4796 69.0066 40.9296 68.6635 41.4442 68.6635H44.6412C45.1533 68.6635 45.6033 69.0041 45.745 69.4988L48.3428 78.6946C48.5492 79.4255 47.9998 80.1514 47.2391 80.1514H38.8438C38.0856 80.1514 37.5361 79.4255 37.7425 78.6946Z" fill="#1D3078"/>
<path d="M48.3428 78.6946L45.745 69.4989C45.7002 69.3447 45.6231 69.2055 45.5262 69.0887C45.5336 69.1633 45.5361 69.2428 45.5287 69.3298C45.4441 70.4038 45.387 71.4504 45.5113 72.5243C45.6231 73.4715 45.7847 74.4162 45.7101 75.3758C45.6157 76.5915 45.0837 77.5784 44.0619 78.2645C42.2919 79.4553 39.9202 79.515 37.8195 79.5175C38.006 79.8879 38.3864 80.1514 38.8438 80.1514H47.239C47.9998 80.1514 48.5492 79.4255 48.3428 78.6946Z" fill="#091847"/>
<path d="M44.492 72.0992C44.492 72.8997 43.8432 73.5511 43.0402 73.5511C42.2397 73.5511 41.5883 72.9022 41.5883 72.0992C41.5883 71.2987 42.2372 70.6474 43.0402 70.6474C43.8432 70.6474 44.492 71.2987 44.492 72.0992Z" fill="#5067B2"/>
<path d="M57.1458 80.5293H28.6188C28.3603 80.5293 28.149 80.318 28.149 80.0594V79.6244C28.149 79.3658 28.3603 79.1545 28.6188 79.1545H57.1433C57.4019 79.1545 57.6132 79.3658 57.6132 79.6244V80.0594C57.6132 80.318 57.4043 80.5293 57.1458 80.5293Z" fill="#1D3078"/>
<path opacity="0.24" d="M59.5299 61.1608L50.4559 67.7885L47.2564 67.0029L58.6299 60.8376" fill="white"/>
<defs>
<linearGradient id="paint0_linear_622_22924" x1="77.0729" y1="11.4958" x2="29.503" y2="128.959" gradientUnits="userSpaceOnUse">
<stop stop-color="#B9BDFF"/>
<stop offset="1" stop-color="#564DC1"/>
</linearGradient>
<linearGradient id="paint1_linear_622_22924" x1="17.8159" y1="81.8436" x2="102.955" y2="81.8436" gradientUnits="userSpaceOnUse">
<stop stop-color="#B9BDFF"/>
<stop offset="1" stop-color="#564DC1"/>
</linearGradient>
<linearGradient id="paint2_linear_622_22924" x1="100.851" y1="20.3476" x2="66.4943" y2="54.2976" gradientUnits="userSpaceOnUse">
<stop stop-color="#B9BDFF"/>
<stop offset="1" stop-color="#564DC1"/>
</linearGradient>
<linearGradient id="paint3_linear_622_22924" x1="6.09234" y1="51.0473" x2="45.2565" y2="60.6395" gradientUnits="userSpaceOnUse">
<stop stop-color="#B9BDFF"/>
<stop offset="1" stop-color="#564DC1"/>
</linearGradient>
<linearGradient id="paint4_linear_622_22924" x1="11.111" y1="20.9481" x2="45.4676" y2="54.8981" gradientUnits="userSpaceOnUse">
<stop stop-color="#B9BDFF"/>
<stop offset="1" stop-color="#564DC1"/>
</linearGradient>
<linearGradient id="paint5_linear_622_22924" x1="108.307" y1="51.3629" x2="68.2775" y2="59.5739" gradientUnits="userSpaceOnUse">
<stop stop-color="#B9BDFF"/>
<stop offset="1" stop-color="#564DC1"/>
</linearGradient>
</defs>
</svg>
