<svg width="120" height="68" viewBox="0 0 120 68" fill="none" xmlns="http://www.w3.org/2000/svg">
<g clip-path="url(#clip0_625_37845)">
<path d="M119.681 63.8634C119.568 63.4301 119.503 62.9985 119.306 62.587C119.082 62.119 118.609 61.8604 118.112 61.8222V61.8149C118.09 61.8149 118.068 61.8185 118.046 61.8185C118.024 61.8185 118.002 61.8149 117.981 61.8149V61.8222C117.483 61.8604 117.01 62.1208 116.786 62.587C116.589 62.9985 116.524 63.4301 116.411 63.8634C116.269 64.4024 116.127 64.9487 116.143 65.4986C116.158 66.0049 116.322 66.5311 116.744 66.8935C117.077 67.1776 117.558 67.2467 118.046 67.2376C118.574 67.2267 119.015 67.1776 119.348 66.8935C119.771 66.5311 119.934 66.0049 119.949 65.4986C119.965 64.9469 119.823 64.4024 119.681 63.8634Z" fill="#E0E0E0"/>
<path d="M118.645 67.1338C118.645 67.1593 90.7411 67.1812 56.3272 67.1812C21.9023 67.1812 6.39697 67.1338 0.118369 67.1338C0.0928763 67.1338 21.9023 67.0865 56.3272 67.0865C90.7411 67.0865 118.645 67.1083 118.645 67.1338Z" fill="#263238"/>
<path d="M50.5985 0.582092H46.2537V67.1648H50.5985V0.582092Z" fill="#FF725E"/>
<g opacity="0.3">
<path d="M50.5985 0.582092H46.2537V67.1648H50.5985V0.582092Z" fill="black"/>
</g>
<path d="M65.064 0.582092H50.5985V67.1648H65.064V0.582092Z" fill="#FF725E"/>
<path d="M59.1205 1.99695H51.6109V4.03458H59.1205V1.99695Z" fill="#455A64"/>
<g opacity="0.3">
<path d="M59.1205 1.99695H51.6109V4.03458H59.1205V1.99695Z" fill="white"/>
</g>
<path d="M64.0971 1.99695H60.3423V4.03458H64.0971V1.99695Z" fill="#455A64"/>
<g opacity="0.3">
<path d="M64.0971 1.99695H60.3423V4.03458H64.0971V1.99695Z" fill="white"/>
</g>
<g opacity="0.3">
<path d="M51.6109 2.31743L58.7618 2.3229L58.7763 4.03458H59.1205V1.99695H51.6109V2.31743Z" fill="black"/>
</g>
<g opacity="0.3">
<path d="M60.3423 1.99695V2.29376H63.6838V4.03458H64.0971V1.99695H60.3423Z" fill="black"/>
</g>
<path d="M59.1205 5.50226H51.6109V7.53989H59.1205V5.50226Z" fill="#455A64"/>
<g opacity="0.3">
<path d="M59.1205 5.50226H51.6109V7.53989H59.1205V5.50226Z" fill="white"/>
</g>
<path d="M64.0971 5.50226H60.3423V7.53989H64.0971V5.50226Z" fill="#455A64"/>
<g opacity="0.3">
<path d="M64.0971 5.50226H60.3423V7.53989H64.0971V5.50226Z" fill="white"/>
</g>
<g opacity="0.3">
<path d="M51.6109 5.82274L58.7618 5.83003L58.7763 7.53989H59.1205V5.50226H51.6109V5.82274Z" fill="black"/>
</g>
<g opacity="0.3">
<path d="M60.3423 5.50226V5.79907H63.6838V7.53989H64.0971V5.50226H60.3423Z" fill="black"/>
</g>
<path d="M59.1205 9.0094H51.6109V11.047H59.1205V9.0094Z" fill="#455A64"/>
<g opacity="0.3">
<path d="M59.1205 9.0094H51.6109V11.047H59.1205V9.0094Z" fill="white"/>
</g>
<path d="M64.0971 9.0094H60.3423V11.047H64.0971V9.0094Z" fill="#455A64"/>
<g opacity="0.3">
<path d="M64.0971 11.0452H63.1539L63.1466 10.59L61.9247 10.5918V11.0452H60.3423V9.0094H64.0971V11.0452Z" fill="white"/>
</g>
<g opacity="0.3">
<path d="M51.6109 9.32989L58.7618 9.33535L58.7763 11.0452H59.1205V9.0094H51.6109V9.32989Z" fill="black"/>
</g>
<g opacity="0.3">
<path d="M60.3423 9.0094V9.30439H63.6838V11.0452H64.0971V9.0094H60.3423Z" fill="black"/>
</g>
<path d="M59.1205 12.5147H51.6109V14.5523H59.1205V12.5147Z" fill="#455A64"/>
<path d="M64.0971 12.5147H60.3423V14.5523H64.0971V12.5147Z" fill="#455A64"/>
<g opacity="0.3">
<path d="M61.0944 14.5523V13.5326H61.8519V12.5147H60.3423V14.5523H61.0944Z" fill="white"/>
</g>
<g opacity="0.3">
<path d="M64.0971 12.5147H63.4434V14.5523H64.0971V12.5147Z" fill="white"/>
</g>
<g opacity="0.3">
<path d="M59.1205 12.5147H51.6109V14.5523H59.1205V12.5147Z" fill="white"/>
</g>
<g opacity="0.3">
<path d="M51.6109 12.8352L58.7618 12.8407L58.7763 14.5523H59.1205V12.5147H51.6109V12.8352Z" fill="black"/>
</g>
<g opacity="0.3">
<path d="M60.3423 12.5147V12.8097H63.6838V14.5523H64.0971V12.5147H60.3423Z" fill="black"/>
</g>
<path d="M59.1205 16.02H51.6109V18.0577H59.1205V16.02Z" fill="#455A64"/>
<g opacity="0.3">
<path d="M51.6109 17.5004H53.3718V16.7411H56.6604V18.0577H59.1205V16.02H51.6109V17.5004Z" fill="white"/>
</g>
<path d="M64.0971 16.02H60.3423V18.0577H64.0971V16.02Z" fill="#455A64"/>
<g opacity="0.3">
<path d="M64.0971 16.02H63.4434V18.0577H64.0971V16.02Z" fill="white"/>
</g>
<g opacity="0.3">
<path d="M51.6109 16.3405L58.7618 16.346L58.7763 18.0577H59.1205V16.02H51.6109V16.3405Z" fill="black"/>
</g>
<g opacity="0.3">
<path d="M61.0926 16.02H60.3423V18.0577H61.0926V16.02Z" fill="white"/>
</g>
<g opacity="0.3">
<path d="M60.3423 16.02V16.3168H63.6838V18.0577H64.0971V16.02H60.3423Z" fill="black"/>
</g>
<path d="M59.1205 19.5253H51.6109V21.563H59.1205V19.5253Z" fill="#455A64"/>
<path d="M64.0971 19.5253H60.3423V21.563H64.0971V19.5253Z" fill="#455A64"/>
<g opacity="0.3">
<path d="M51.6109 19.8476L58.7618 19.8531L58.7763 21.563H59.1205V19.5253H51.6109V19.8476Z" fill="black"/>
</g>
<g opacity="0.3">
<path d="M60.3423 19.5253V19.8221H63.6838V21.563H64.0971V19.5253H60.3423Z" fill="black"/>
</g>
<path d="M59.1205 23.0325H51.6109V25.0701H59.1205V23.0325Z" fill="#455A64"/>
<path d="M64.0971 23.0325H60.3423V25.0701H64.0971V23.0325Z" fill="#455A64"/>
<g opacity="0.3">
<path d="M51.6109 23.353L58.7618 23.3584L58.7763 25.0701H59.1205V23.0325H51.6109V23.353Z" fill="black"/>
</g>
<g opacity="0.3">
<path d="M60.3423 23.0325V23.3275H63.6838V25.0701H64.0971V23.0325H60.3423Z" fill="black"/>
</g>
<path d="M59.1205 26.5378H51.6109V28.5754H59.1205V26.5378Z" fill="#455A64"/>
<path d="M64.0971 26.5378H60.3423V28.5754H64.0971V26.5378Z" fill="#455A64"/>
<g opacity="0.3">
<path d="M51.6109 26.8583L58.7618 26.8637L58.7763 28.5754H59.1205V26.5378H51.6109V26.8583Z" fill="black"/>
</g>
<g opacity="0.3">
<path d="M60.3423 26.5378V26.8328H63.6838V28.5754H64.0971V26.5378H60.3423Z" fill="black"/>
</g>
<path d="M59.1205 30.0431H51.6109V32.0807H59.1205V30.0431Z" fill="#455A64"/>
<path d="M64.0971 30.0431H60.3423V32.0807H64.0971V30.0431Z" fill="#455A64"/>
<g opacity="0.3">
<path d="M51.6109 30.3636L58.7618 30.369L58.7763 32.0807H59.1205V30.0431H51.6109V30.3636Z" fill="black"/>
</g>
<g opacity="0.3">
<path d="M60.3423 30.0431V30.3399H63.6838V32.0807H64.0971V30.0431H60.3423Z" fill="black"/>
</g>
<path d="M59.1205 33.5484H51.6109V35.586H59.1205V33.5484Z" fill="#455A64"/>
<path d="M64.0971 33.5484H60.3423V35.586H64.0971V33.5484Z" fill="#455A64"/>
<g opacity="0.3">
<path d="M51.6109 33.8707L58.7618 33.8762L58.7763 35.586H59.1205V33.5484H51.6109V33.8707Z" fill="black"/>
</g>
<g opacity="0.3">
<path d="M60.3423 33.5484V33.8452H63.6838V35.586H64.0971V33.5484H60.3423Z" fill="black"/>
</g>
<path d="M59.1205 37.0555H51.6109V39.0932H59.1205V37.0555Z" fill="#455A64"/>
<path d="M64.0971 37.0555H60.3423V39.0932H64.0971V37.0555Z" fill="#455A64"/>
<g opacity="0.3">
<path d="M51.6109 37.376L58.7618 37.3815L58.7763 39.0932H59.1205V37.0555H51.6109V37.376Z" fill="black"/>
</g>
<g opacity="0.3">
<path d="M60.3423 37.0555V37.3505H63.6838V39.0932H64.0971V37.0555H60.3423Z" fill="black"/>
</g>
<path d="M59.1205 40.5609H51.6109V42.5985H59.1205V40.5609Z" fill="#455A64"/>
<path d="M64.0971 40.5609H60.3423V42.5985H64.0971V40.5609Z" fill="#455A64"/>
<g opacity="0.3">
<path d="M51.6109 40.8813L58.7618 40.8868L58.7763 42.5985H59.1205V40.5609H51.6109V40.8813Z" fill="black"/>
</g>
<g opacity="0.3">
<path d="M60.3423 40.5609V40.8577H63.6838V42.5985H64.0971V40.5609H60.3423Z" fill="black"/>
</g>
<path d="M59.1205 44.0662H51.6109V46.1038H59.1205V44.0662Z" fill="#455A64"/>
<path d="M64.0971 44.0662H60.3423V46.1038H64.0971V44.0662Z" fill="#455A64"/>
<g opacity="0.3">
<path d="M51.6109 44.3866L58.7618 44.3921L58.7763 46.1038H59.1205V44.0662H51.6109V44.3866Z" fill="black"/>
</g>
<g opacity="0.3">
<path d="M60.3423 44.0662V44.363H63.6838V46.1038H64.0971V44.0662H60.3423Z" fill="black"/>
</g>
<path d="M49.4913 2.37024H48.5754V3.8361H49.4913V2.37024Z" fill="#455A64"/>
<path d="M49.4913 5.78632H48.5754V7.25217H49.4913V5.78632Z" fill="#455A64"/>
<path d="M49.4913 9.23883H48.5754V10.7047H49.4913V9.23883Z" fill="#455A64"/>
<path d="M49.4913 12.6932H48.5754V14.159H49.4913V12.6932Z" fill="#455A64"/>
<path d="M49.4913 16.1475H48.5754V17.6134H49.4913V16.1475Z" fill="#455A64"/>
<path d="M49.4913 19.6018H48.5754V21.0677H49.4913V19.6018Z" fill="#455A64"/>
<path d="M49.4913 23.0562H48.5754V24.522H49.4913V23.0562Z" fill="#455A64"/>
<path d="M49.4913 26.5087H48.5754V27.9745H49.4913V26.5087Z" fill="#455A64"/>
<path d="M49.4913 29.963H48.5754V31.4288H49.4913V29.963Z" fill="#455A64"/>
<path d="M49.4913 33.4173H48.5754V34.8832H49.4913V33.4173Z" fill="#455A64"/>
<path d="M49.4913 36.8716H48.5754V38.3375H49.4913V36.8716Z" fill="#455A64"/>
<path d="M49.4913 40.3259H48.5754V41.7918H49.4913V40.3259Z" fill="#455A64"/>
<path d="M48.0055 2.37024H47.0895V3.8361H48.0055V2.37024Z" fill="#455A64"/>
<path d="M48.0055 5.78632H47.0895V7.25217H48.0055V5.78632Z" fill="#455A64"/>
<path d="M48.0055 9.23883H47.0895V10.7047H48.0055V9.23883Z" fill="#455A64"/>
<path d="M48.0055 12.6932H47.0895V14.159H48.0055V12.6932Z" fill="#455A64"/>
<path d="M48.0055 16.1475H47.0895V17.6134H48.0055V16.1475Z" fill="#455A64"/>
<path d="M48.0055 19.6018H47.0895V21.0677H48.0055V19.6018Z" fill="#455A64"/>
<path d="M48.0055 23.0562H47.0895V24.522H48.0055V23.0562Z" fill="#455A64"/>
<path d="M48.0055 26.5087H47.0895V27.9745H48.0055V26.5087Z" fill="#455A64"/>
<path d="M48.0055 29.963H47.0895V31.4288H48.0055V29.963Z" fill="#455A64"/>
<path d="M48.0055 33.4173H47.0895V34.8832H48.0055V33.4173Z" fill="#455A64"/>
<path d="M48.0055 36.8716H47.0895V38.3375H48.0055V36.8716Z" fill="#455A64"/>
<path d="M48.0055 40.3259H47.0895V41.7918H48.0055V40.3259Z" fill="#455A64"/>
<path d="M58.9603 28.5754C58.9603 28.6009 57.3159 28.6228 55.2874 28.6228C53.2589 28.6228 51.6128 28.6009 51.6128 28.5754C51.6128 28.5499 53.2571 28.5281 55.2874 28.5281C57.3159 28.5281 58.9603 28.5481 58.9603 28.5754Z" fill="white"/>
<path d="M63.7876 28.5754C63.7876 28.6009 63.0392 28.6228 62.1178 28.6228C61.1946 28.6228 60.448 28.6009 60.448 28.5754C60.448 28.5499 61.1946 28.5281 62.1178 28.5281C63.0392 28.5281 63.7876 28.5481 63.7876 28.5754Z" fill="white"/>
<path d="M58.9603 32.1172C58.9603 32.1427 57.3159 32.1645 55.2874 32.1645C53.2589 32.1645 51.6128 32.1427 51.6128 32.1172C51.6128 32.0917 53.2571 32.0698 55.2874 32.0698C57.3159 32.0698 58.9603 32.0917 58.9603 32.1172Z" fill="white"/>
<path d="M63.7876 32.1172C63.7876 32.1427 63.0392 32.1645 62.1178 32.1645C61.1946 32.1645 60.448 32.1427 60.448 32.1172C60.448 32.0917 61.1946 32.0698 62.1178 32.0698C63.0392 32.0698 63.7876 32.0917 63.7876 32.1172Z" fill="white"/>
<path d="M58.9603 35.6607C58.9603 35.6862 57.3159 35.708 55.2874 35.708C53.2589 35.708 51.6128 35.6862 51.6128 35.6607C51.6128 35.6352 53.2571 35.6133 55.2874 35.6133C57.3159 35.6133 58.9603 35.6352 58.9603 35.6607Z" fill="white"/>
<path d="M63.7876 35.6607C63.7876 35.6862 63.0392 35.708 62.1178 35.708C61.1946 35.708 60.448 35.6862 60.448 35.6607C60.448 35.6352 61.1946 35.6133 62.1178 35.6133C63.0392 35.6133 63.7876 35.6352 63.7876 35.6607Z" fill="white"/>
<path d="M58.9603 39.2043C58.9603 39.2298 57.3159 39.2516 55.2874 39.2516C53.2589 39.2516 51.6128 39.2298 51.6128 39.2043C51.6128 39.1788 53.2571 39.1569 55.2874 39.1569C57.3159 39.1569 58.9603 39.177 58.9603 39.2043Z" fill="white"/>
<path d="M63.7876 39.2043C63.7876 39.2298 63.0392 39.2516 62.1178 39.2516C61.1946 39.2516 60.448 39.2298 60.448 39.2043C60.448 39.1788 61.1946 39.1569 62.1178 39.1569C63.0392 39.1569 63.7876 39.177 63.7876 39.2043Z" fill="white"/>
<path d="M58.9603 42.746C58.9603 42.7714 57.3159 42.7933 55.2874 42.7933C53.2589 42.7933 51.6128 42.7714 51.6128 42.746C51.6128 42.7205 53.2571 42.6986 55.2874 42.6986C57.3159 42.6986 58.9603 42.7205 58.9603 42.746Z" fill="white"/>
<path d="M63.7876 42.746C63.7876 42.7714 63.0392 42.7933 62.1178 42.7933C61.1946 42.7933 60.448 42.7714 60.448 42.746C60.448 42.7205 61.1946 42.6986 62.1178 42.6986C63.0392 42.6986 63.7876 42.7205 63.7876 42.746Z" fill="white"/>
<path d="M58.9603 46.2895C58.9603 46.315 57.3159 46.3369 55.2874 46.3369C53.2589 46.3369 51.6128 46.315 51.6128 46.2895C51.6128 46.264 53.2571 46.2422 55.2874 46.2422C57.3159 46.2422 58.9603 46.2622 58.9603 46.2895Z" fill="white"/>
<path d="M63.7876 46.2895C63.7876 46.315 63.0392 46.3369 62.1178 46.3369C61.1946 46.3369 60.448 46.315 60.448 46.2895C60.448 46.264 61.1946 46.2422 62.1178 46.2422C63.0392 46.2422 63.7876 46.2622 63.7876 46.2895Z" fill="white"/>
<path d="M58.9603 14.5924C58.9603 14.6179 57.3159 14.6397 55.2874 14.6397C53.2589 14.6397 51.6128 14.6179 51.6128 14.5924C51.6128 14.5669 53.2571 14.545 55.2874 14.545C57.3159 14.545 58.9603 14.5651 58.9603 14.5924Z" fill="white"/>
<path d="M58.9603 11.0452C58.9603 11.0707 57.3159 11.0926 55.2874 11.0926C53.2589 11.0926 51.6128 11.0707 51.6128 11.0452C51.6128 11.0197 53.2571 10.9979 55.2874 10.9979C57.3159 10.9979 58.9603 11.0197 58.9603 11.0452Z" fill="white"/>
<path d="M58.9603 7.49986C58.9603 7.52535 57.3159 7.5472 55.2874 7.5472C53.2589 7.5472 51.6128 7.52535 51.6128 7.49986C51.6128 7.47437 53.2571 7.45251 55.2874 7.45251C57.3159 7.45251 58.9603 7.47437 58.9603 7.49986Z" fill="white"/>
<path d="M58.9603 18.0577C58.9603 18.0832 57.3159 18.105 55.2874 18.105C53.2589 18.105 51.6128 18.0832 51.6128 18.0577C51.6128 18.0322 53.2571 18.0103 55.2874 18.0103C57.3159 18.0103 58.9603 18.0322 58.9603 18.0577Z" fill="white"/>
<path d="M58.9603 21.5229C58.9603 21.5484 57.3159 21.5703 55.2874 21.5703C53.2589 21.5703 51.6128 21.5484 51.6128 21.5229C51.6128 21.4974 53.2571 21.4756 55.2874 21.4756C57.3159 21.4756 58.9603 21.4974 58.9603 21.5229Z" fill="white"/>
<path d="M58.9603 24.99C58.9603 25.0155 57.3159 25.0373 55.2874 25.0373C53.2589 25.0373 51.6128 25.0155 51.6128 24.99C51.6128 24.9645 53.2571 24.9426 55.2874 24.9426C57.3159 24.9426 58.9603 24.9627 58.9603 24.99Z" fill="white"/>
<path d="M58.8182 4.02549C58.8182 4.05099 57.1812 4.07284 55.16 4.07284C53.1387 4.07284 51.5017 4.05099 51.5017 4.02549C51.5017 4 53.1387 3.97815 55.16 3.97815C57.1794 3.97815 58.8182 4 58.8182 4.02549Z" fill="white"/>
<path d="M63.7876 4.02549C63.7876 4.05099 63.0392 4.07284 62.1178 4.07284C61.1946 4.07284 60.448 4.05099 60.448 4.02549C60.448 4 61.1946 3.97815 62.1178 3.97815C63.0392 3.97815 63.7876 4 63.7876 4.02549Z" fill="white"/>
<path d="M63.7876 7.49986C63.7876 7.52535 63.0392 7.5472 62.1178 7.5472C61.1946 7.5472 60.448 7.52535 60.448 7.49986C60.448 7.47437 61.1946 7.45251 62.1178 7.45251C63.0392 7.45251 63.7876 7.47437 63.7876 7.49986Z" fill="white"/>
<path d="M63.7876 10.9742C63.7876 10.9997 63.0392 11.0216 62.1178 11.0216C61.1946 11.0216 60.448 10.9997 60.448 10.9742C60.448 10.9487 61.1946 10.9269 62.1178 10.9269C63.0392 10.9269 63.7876 10.9487 63.7876 10.9742Z" fill="white"/>
<path d="M63.7876 14.5924C63.7876 14.6179 63.0392 14.6397 62.1178 14.6397C61.1946 14.6397 60.448 14.6179 60.448 14.5924C60.448 14.5669 61.1946 14.545 62.1178 14.545C63.0392 14.545 63.7876 14.5651 63.7876 14.5924Z" fill="white"/>
<path d="M63.7876 18.0577C63.7876 18.0832 63.0392 18.105 62.1178 18.105C61.1946 18.105 60.448 18.0832 60.448 18.0577C60.448 18.0322 61.1946 18.0103 62.1178 18.0103C63.0392 18.0103 63.7876 18.0322 63.7876 18.0577Z" fill="white"/>
<path d="M63.7876 21.5357C63.7876 21.5612 63.0392 21.583 62.1178 21.583C61.1946 21.583 60.448 21.5612 60.448 21.5357C60.448 21.5102 61.1946 21.4883 62.1178 21.4883C63.0392 21.4883 63.7876 21.5102 63.7876 21.5357Z" fill="white"/>
<path d="M63.7876 25.0155C63.7876 25.041 63.0392 25.0628 62.1178 25.0628C61.1946 25.0628 60.448 25.041 60.448 25.0155C60.448 24.99 61.1946 24.9681 62.1178 24.9681C63.0392 24.9681 63.7876 24.9882 63.7876 25.0155Z" fill="white"/>
<path d="M42.3223 18.9991H22.6853V66.9754H42.3223V18.9991Z" fill="#FF725E"/>
<path d="M32.0704 20.9712H30.5335V65.0689H32.0704V20.9712Z" fill="#455A64"/>
<path d="M34.2337 20.9712H32.6968V65.0689H34.2337V20.9712Z" fill="#455A64"/>
<path d="M36.397 20.9712H34.8601V65.0689H36.397V20.9712Z" fill="#455A64"/>
<path d="M25.5624 20.9712H24.0255V65.0689H25.5624V20.9712Z" fill="#455A64"/>
<path d="M27.7256 20.9712H26.1888V65.0689H27.7256V20.9712Z" fill="#455A64"/>
<path d="M38.5621 20.9712H37.0252V65.0689H38.5621V20.9712Z" fill="#455A64"/>
<path d="M40.7253 20.9712H39.1884V65.0689H40.7253V20.9712Z" fill="#455A64"/>
<g opacity="0.3">
<path d="M28.9821 18.9991H22.6853V66.9754H28.9821V18.9991Z" fill="black"/>
</g>
<path d="M36.2313 25.8495C36.2495 25.8677 36.051 26.0971 35.7851 26.3612C35.5211 26.6252 35.2916 26.8255 35.2734 26.8073C35.2552 26.7891 35.4537 26.5596 35.7196 26.2956C35.9836 26.0316 36.213 25.8313 36.2313 25.8495Z" fill="white"/>
<path d="M38.1469 27.1442C38.1651 27.1624 38.0285 27.3226 37.841 27.5029C37.6534 27.6814 37.4877 27.8125 37.4695 27.7924C37.4513 27.7742 37.5879 27.614 37.7754 27.4337C37.9611 27.2552 38.1287 27.1241 38.1469 27.1442Z" fill="white"/>
<path d="M40.0898 24.4109C40.108 24.4291 39.9769 24.5839 39.7985 24.7551C39.62 24.9262 39.4598 25.0501 39.4416 25.03C39.4234 25.0118 39.5545 24.8571 39.7329 24.6859C39.9114 24.5147 40.0716 24.3927 40.0898 24.4109Z" fill="white"/>
<path d="M78.8631 12.5129H68.9536V15.1369H78.8631V12.5129Z" fill="#263238"/>
<path d="M78.4461 12.8443H69.3705V14.5432H78.4461V12.8443Z" fill="#455A64"/>
<g opacity="0.3">
<path d="M78.4461 12.8443H69.3705V14.5432H78.4461V12.8443Z" fill="white"/>
</g>
<path d="M80.1705 14.7526H67.4403V46.9978H80.1705V14.7526Z" fill="#263238"/>
<path d="M79.4094 15.4992H68.1232V46.9978H79.4094V15.4992Z" fill="#455A64"/>
<g opacity="0.3">
<path d="M68.1232 30.2707H70.4085V26.7198H72.2495V23.8482H75.9314V32.9019H77.7724V20.0643H79.4094V15.4992H68.1232V30.2707Z" fill="white"/>
</g>
<path d="M79.9283 18.8133C79.9283 18.8388 77.2224 18.8607 73.8865 18.8607C70.5487 18.8607 67.8446 18.8388 67.8446 18.8133C67.8446 18.7878 70.5487 18.766 73.8865 18.766C77.2224 18.766 79.9283 18.786 79.9283 18.8133Z" fill="#263238"/>
<path d="M79.9283 22.0437C79.9283 22.0692 77.2224 22.091 73.8865 22.091C70.5487 22.091 67.8446 22.0692 67.8446 22.0437C67.8446 22.0182 70.5487 21.9963 73.8865 21.9963C77.2224 21.9963 79.9283 22.0182 79.9283 22.0437Z" fill="#263238"/>
<path d="M79.9283 25.2759C79.9283 25.3014 77.2224 25.3232 73.8865 25.3232C70.5487 25.3232 67.8446 25.3014 67.8446 25.2759C67.8446 25.2504 70.5487 25.2285 73.8865 25.2285C77.2224 25.2285 79.9283 25.2504 79.9283 25.2759Z" fill="#263238"/>
<path d="M79.9283 28.508C79.9283 28.5335 77.2224 28.5554 73.8865 28.5554C70.5487 28.5554 67.8446 28.5335 67.8446 28.508C67.8446 28.4825 70.5487 28.4607 73.8865 28.4607C77.2224 28.4589 79.9283 28.4807 79.9283 28.508Z" fill="#263238"/>
<path d="M79.9283 31.7384C79.9283 31.7639 77.2224 31.7857 73.8865 31.7857C70.5487 31.7857 67.8446 31.7639 67.8446 31.7384C67.8446 31.7129 70.5487 31.691 73.8865 31.691C77.2224 31.691 79.9283 31.7129 79.9283 31.7384Z" fill="#263238"/>
<path d="M79.9283 34.9706C79.9283 34.9961 77.2224 35.0179 73.8865 35.0179C70.5487 35.0179 67.8446 34.9961 67.8446 34.9706C67.8446 34.9451 70.5487 34.9232 73.8865 34.9232C77.2224 34.9232 79.9283 34.9432 79.9283 34.9706Z" fill="#263238"/>
<path d="M79.9283 38.2009C79.9283 38.2264 77.2224 38.2483 73.8865 38.2483C70.5487 38.2483 67.8446 38.2264 67.8446 38.2009C67.8446 38.1754 70.5487 38.1536 73.8865 38.1536C77.2224 38.1536 79.9283 38.1754 79.9283 38.2009Z" fill="#263238"/>
<path d="M79.9283 41.4331C79.9283 41.4586 77.2224 41.4804 73.8865 41.4804C70.5487 41.4804 67.8446 41.4586 67.8446 41.4331C67.8446 41.4076 70.5487 41.3857 73.8865 41.3857C77.2224 41.3857 79.9283 41.4076 79.9283 41.4331Z" fill="#263238"/>
<path d="M79.9283 44.6652C79.9283 44.6907 77.2224 44.7125 73.8865 44.7125C70.5487 44.7125 67.8446 44.6907 67.8446 44.6652C67.8446 44.6397 70.5487 44.6179 73.8865 44.6179C77.2224 44.6179 79.9283 44.6379 79.9283 44.6652Z" fill="#263238"/>
<path d="M70.6907 47.6698C70.6652 47.6698 70.6434 39.8415 70.6434 30.1887C70.6434 20.5323 70.6652 12.7059 70.6907 12.7059C70.7162 12.7059 70.7381 20.5323 70.7381 30.1887C70.7381 39.8415 70.718 47.6698 70.6907 47.6698Z" fill="#263238"/>
<path d="M73.9666 47.6698C73.9411 47.6698 73.9193 39.8415 73.9193 30.1887C73.9193 20.5323 73.9411 12.7059 73.9666 12.7059C73.9921 12.7059 74.0139 20.5323 74.0139 30.1887C74.0139 39.8415 73.9939 47.6698 73.9666 47.6698Z" fill="#263238"/>
<path d="M77.2425 47.6698C77.217 47.6698 77.1951 39.8415 77.1951 30.1887C77.1951 20.5323 77.217 12.7059 77.2425 12.7059C77.268 12.7059 77.2898 20.5323 77.2898 30.1887C77.2898 39.8415 77.268 47.6698 77.2425 47.6698Z" fill="#263238"/>
<path d="M68.9536 12.5129H67.5205V14.7526H68.9536V12.5129Z" fill="#263238"/>
<g opacity="0.3">
<path d="M68.9536 12.5129H67.5205V14.7526H68.9536V12.5129Z" fill="black"/>
</g>
<path d="M67.5023 14.7726H66.0692V41.9101H67.5023V14.7726Z" fill="#263238"/>
<g opacity="0.3">
<path d="M67.5023 14.7726H66.0692V41.9101H67.5023V14.7726Z" fill="black"/>
</g>
<path d="M73.4931 19.3997C73.5114 19.4179 73.0925 19.8421 72.5572 20.3465C72.0218 20.8509 71.5739 21.2424 71.5575 21.2242C71.5393 21.206 71.9581 20.7818 72.4934 20.2774C73.027 19.773 73.4749 19.3814 73.4931 19.3997Z" fill="white"/>
<path d="M76.525 19.3432C76.5432 19.3614 76.1244 19.7857 75.5891 20.2901C75.0537 20.7945 74.6058 21.186 74.5894 21.1678C74.5712 21.1496 74.99 20.7253 75.5253 20.2209C76.0589 19.7165 76.5068 19.3232 76.525 19.3432Z" fill="white"/>
<path d="M76.5778 16.7757C76.596 16.7939 76.1772 17.2182 75.6419 17.7226C75.1065 18.227 74.6586 18.6185 74.6422 18.6003C74.624 18.5821 75.0428 18.1578 75.5781 17.6534C76.1117 17.1508 76.5596 16.7575 76.5778 16.7757Z" fill="white"/>
<path d="M101.104 58.9305H84.2276V28.8777L101.104 20.6543V58.9305Z" fill="#455A64"/>
<path d="M92.5111 41.8919H90.9924V44.0734H92.5111V41.8919Z" fill="#EBEBEB"/>
<g opacity="0.3">
<path d="M90.9924 41.8919V42.1632H92.2543V44.0734H92.5111V41.8919H90.9924Z" fill="black"/>
</g>
<path d="M92.5111 46.1147H90.9924V48.2962H92.5111V46.1147Z" fill="#EBEBEB"/>
<g opacity="0.3">
<path d="M90.9924 46.1147V46.3842H92.2543V48.2962H92.5111V46.1147H90.9924Z" fill="black"/>
</g>
<path d="M92.5111 50.3356H90.9924V52.5171H92.5111V50.3356Z" fill="#EBEBEB"/>
<g opacity="0.3">
<path d="M90.9924 50.3356V50.607H92.2543V52.5171H92.5111V50.3356H90.9924Z" fill="black"/>
</g>
<path d="M92.5111 54.5821H90.9924V58.9487H92.5111V54.5821Z" fill="#EBEBEB"/>
<g opacity="0.3">
<path d="M90.9924 54.5821V55.1229H92.2543V58.9487H92.5111V54.5821H90.9924Z" fill="black"/>
</g>
<path d="M92.5111 37.569H90.9924V39.7505H92.5111V37.569Z" fill="#EBEBEB"/>
<g opacity="0.3">
<path d="M90.9924 37.569V37.8385H92.2543V39.7505H92.5111V37.569H90.9924Z" fill="black"/>
</g>
<path d="M92.5111 33.2443H90.9924V35.4257H92.5111V33.2443Z" fill="#EBEBEB"/>
<g opacity="0.3">
<path d="M90.9924 33.2443V33.5156H92.2543V35.4257H92.5111V33.2443H90.9924Z" fill="black"/>
</g>
<path d="M92.5111 28.9214H90.9924V31.1029H92.5111V28.9214Z" fill="#EBEBEB"/>
<g opacity="0.3">
<path d="M90.9924 28.9214V29.1909H92.2543V31.1029H92.5111V28.9214H90.9924Z" fill="black"/>
</g>
<path d="M95.9508 41.7972H94.4322V43.9787H95.9508V41.7972Z" fill="#EBEBEB"/>
<g opacity="0.3">
<path d="M94.4322 41.7972V42.0686H95.6941V43.9787H95.949V41.7972H94.4322Z" fill="black"/>
</g>
<path d="M95.9508 46.02H94.4322V48.2015H95.9508V46.02Z" fill="#EBEBEB"/>
<g opacity="0.3">
<path d="M94.4322 46.02V46.2895H95.6941V48.2015H95.949V46.02H94.4322Z" fill="black"/>
</g>
<path d="M95.9508 50.241H94.4322V52.4225H95.9508V50.241Z" fill="#EBEBEB"/>
<g opacity="0.3">
<path d="M94.4322 50.241V50.5123H95.6941V52.4225H95.949V50.241H94.4322Z" fill="black"/>
</g>
<path d="M95.9508 54.4637H94.4322V58.9487H95.9508V54.4637Z" fill="#EBEBEB"/>
<g opacity="0.3">
<path d="M94.4322 54.4637V55.0191H95.6941V58.9487H95.949V54.4637H94.4322Z" fill="black"/>
</g>
<path d="M95.9508 37.4743H94.4322V39.6558H95.9508V37.4743Z" fill="#EBEBEB"/>
<g opacity="0.3">
<path d="M94.4322 37.4743V37.7438H95.6941V39.654H95.949V37.4743H94.4322Z" fill="black"/>
</g>
<path d="M95.9508 33.1496H94.4322V35.3311H95.9508V33.1496Z" fill="#EBEBEB"/>
<g opacity="0.3">
<path d="M94.4322 33.1496V33.4191H95.6941V35.3311H95.949V33.1496H94.4322Z" fill="black"/>
</g>
<path d="M95.9508 28.8248H94.4322V31.0063H95.9508V28.8248Z" fill="#EBEBEB"/>
<g opacity="0.3">
<path d="M94.4322 28.8248V29.0962H95.6941V31.0063H95.949V28.8248H94.4322Z" fill="black"/>
</g>
<path d="M99.3888 41.8683H97.8701V44.0498H99.3888V41.8683Z" fill="#EBEBEB"/>
<g opacity="0.3">
<path d="M97.8701 41.8683V42.1396H99.132V44.0498H99.3888V41.8683H97.8701Z" fill="black"/>
</g>
<path d="M99.3888 46.091H97.8701V48.2725H99.3888V46.091Z" fill="#EBEBEB"/>
<g opacity="0.3">
<path d="M97.8701 46.091V46.3623H99.132V48.2725H99.3888V46.091H97.8701Z" fill="black"/>
</g>
<path d="M99.3888 50.312H97.8701V52.4934H99.3888V50.312Z" fill="#EBEBEB"/>
<g opacity="0.3">
<path d="M97.8701 50.312V50.5833H99.132V52.4934H99.3888V50.312H97.8701Z" fill="black"/>
</g>
<path d="M99.3888 54.5347H97.8701V58.9013H99.3888V54.5347Z" fill="#EBEBEB"/>
<g opacity="0.3">
<path d="M97.8701 54.5347V55.0755H99.132V58.9013H99.3888V54.5347H97.8701Z" fill="black"/>
</g>
<path d="M99.3888 37.5453H97.8701V39.7268H99.3888V37.5453Z" fill="#EBEBEB"/>
<g opacity="0.3">
<path d="M97.8701 37.5453V37.8148H99.132V39.7268H99.3888V37.5453H97.8701Z" fill="black"/>
</g>
<path d="M99.3888 33.2206H97.8701V35.4021H99.3888V33.2206Z" fill="#EBEBEB"/>
<g opacity="0.3">
<path d="M97.8701 33.2206V33.4919H99.132V35.4021H99.3888V33.2206H97.8701Z" fill="black"/>
</g>
<path d="M99.3888 28.8977H97.8701V31.0792H99.3888V28.8977Z" fill="#EBEBEB"/>
<g opacity="0.3">
<path d="M97.8701 28.8977V29.1672H99.132V31.0792H99.3888V28.8977H97.8701Z" fill="black"/>
</g>
<path d="M99.3888 25.2121H97.8701V27.3936H99.3888V25.2121Z" fill="#EBEBEB"/>
<g opacity="0.3">
<path d="M97.8701 25.2121V25.4816H99.132V27.3918H99.3888V25.2121H97.8701Z" fill="black"/>
</g>
<path d="M87.6747 29.5933H87.1429V31.7748H87.6747V29.5933Z" fill="#263238"/>
<path d="M87.7493 31.7748H86.7787V32.1044H87.7493V31.7748Z" fill="white"/>
<path d="M87.6747 33.7487H87.1429V35.9301H87.6747V33.7487Z" fill="#263238"/>
<path d="M87.7493 35.9302H86.7787V36.2598H87.7493V35.9302Z" fill="white"/>
<path d="M87.6747 37.9059H87.1429V40.0874H87.6747V37.9059Z" fill="#263238"/>
<path d="M87.7493 40.0873H86.7787V40.4169H87.7493V40.0873Z" fill="white"/>
<path d="M87.6747 42.0613H87.1429V44.2428H87.6747V42.0613Z" fill="#263238"/>
<path d="M87.7493 44.2427H86.7787V44.5723H87.7493V44.2427Z" fill="white"/>
<path d="M87.7275 46.1093H87.1957V48.2907H87.7275V46.1093Z" fill="#263238"/>
<path d="M87.8021 48.2908H86.8315V48.6204H87.8021V48.2908Z" fill="white"/>
<path d="M87.7803 50.1572H87.2486V52.3386H87.7803V50.1572Z" fill="#263238"/>
<path d="M87.8549 52.3386H86.8844V52.6682H87.8549V52.3386Z" fill="white"/>
<path d="M87.8312 54.2051H87.2995V56.3866H87.8312V54.2051Z" fill="#263238"/>
<path d="M87.9077 56.3848H86.9372V56.7144H87.9077V56.3848Z" fill="white"/>
<path d="M86.0486 29.5933H85.5168V31.7748H86.0486V29.5933Z" fill="#263238"/>
<path d="M86.1232 31.7748H85.1526V32.1044H86.1232V31.7748Z" fill="white"/>
<path d="M86.0486 33.7487H85.5168V35.9301H86.0486V33.7487Z" fill="#263238"/>
<path d="M86.1232 35.9302H85.1526V36.2598H86.1232V35.9302Z" fill="white"/>
<path d="M86.0486 37.9059H85.5168V40.0874H86.0486V37.9059Z" fill="#263238"/>
<path d="M86.1232 40.0873H85.1526V40.4169H86.1232V40.0873Z" fill="white"/>
<path d="M86.0486 42.0613H85.5168V44.2428H86.0486V42.0613Z" fill="#263238"/>
<path d="M86.1232 44.2427H85.1526V44.5723H86.1232V44.2427Z" fill="white"/>
<path d="M86.0995 46.1093H85.5678V48.2907H86.0995V46.1093Z" fill="#263238"/>
<path d="M86.176 48.2908H85.2054V48.6204H86.176V48.2908Z" fill="white"/>
<path d="M86.1523 50.1572H85.6206V52.3386H86.1523V50.1572Z" fill="#263238"/>
<path d="M86.2288 52.3386H85.2582V52.6682H86.2288V52.3386Z" fill="white"/>
<path d="M86.2051 54.2051H85.6734V56.3866H86.2051V54.2051Z" fill="#263238"/>
<path d="M86.2798 56.3848H85.3092V56.7144H86.2798V56.3848Z" fill="white"/>
<g opacity="0.3">
<path d="M89.0039 58.9487H84.2276V28.8776L89.1132 26.4977L89.0039 58.9487Z" fill="black"/>
</g>
<path d="M57.8112 28.1766H43.3875V67.0446H57.8112V28.1766Z" fill="#E0E0E0"/>
<path d="M49.9375 29.657H48.9906V31.0191H49.9375V29.657Z" fill="#455A64"/>
<g opacity="0.3">
<path d="M48.9906 29.657V29.8246H49.779V31.0173H49.9393V29.657H48.9906Z" fill="black"/>
</g>
<path d="M51.3924 29.657H50.4455V31.0191H51.3924V29.657Z" fill="#455A64"/>
<g opacity="0.3">
<path d="M50.4455 29.657V29.8246H51.2321V31.0173H51.3924V29.657H50.4455Z" fill="black"/>
</g>
<path d="M52.8455 29.657H51.8986V31.0191H52.8455V29.657Z" fill="#455A64"/>
<g opacity="0.3">
<path d="M51.8986 29.657V29.8246H52.6853V31.0173H52.8455V29.657H51.8986Z" fill="black"/>
</g>
<path d="M54.2986 29.657H53.3517V31.0191H54.2986V29.657Z" fill="#455A64"/>
<g opacity="0.3">
<path d="M53.3517 29.657V29.8246H54.1384V31.0173H54.2986V29.657H53.3517Z" fill="black"/>
</g>
<path d="M55.7517 29.657H54.8048V31.0191H55.7517V29.657Z" fill="#455A64"/>
<g opacity="0.3">
<path d="M54.8048 29.657V29.8246H55.5915V31.0173H55.7517V29.657H54.8048Z" fill="black"/>
</g>
<path d="M57.2049 29.657H56.258V31.0191H57.2049V29.657Z" fill="#455A64"/>
<g opacity="0.3">
<path d="M56.258 29.657V29.8246H57.0464V31.0173H57.2049V29.657H56.258Z" fill="black"/>
</g>
<path d="M44.939 29.657H43.9921V31.0191H44.939V29.657Z" fill="#455A64"/>
<g opacity="0.3">
<path d="M43.9921 29.657V29.8246H44.7787V31.0173H44.939V29.657H43.9921Z" fill="black"/>
</g>
<path d="M46.3921 29.657H45.4452V31.0191H46.3921V29.657Z" fill="#455A64"/>
<g opacity="0.3">
<path d="M45.4452 29.657V29.8246H46.2337V31.0173H46.3921V29.657H45.4452Z" fill="black"/>
</g>
<path d="M47.8452 29.657H46.8983V31.0191H47.8452V29.657Z" fill="#455A64"/>
<g opacity="0.3">
<path d="M46.8983 29.657V29.8246H47.6868V31.0173H47.8452V29.657H46.8983Z" fill="black"/>
</g>
<path d="M49.9375 31.6783H48.9906V33.0403H49.9375V31.6783Z" fill="#455A64"/>
<g opacity="0.3">
<path d="M48.9906 31.6783V31.8458H49.779V33.0385H49.9393V31.6783H48.9906Z" fill="black"/>
</g>
<path d="M51.3924 31.6783H50.4455V33.0403H51.3924V31.6783Z" fill="#455A64"/>
<g opacity="0.3">
<path d="M50.4455 31.6783V31.8458H51.2321V33.0385H51.3924V31.6783H50.4455Z" fill="black"/>
</g>
<path d="M52.8455 31.6783H51.8986V33.0403H52.8455V31.6783Z" fill="#455A64"/>
<g opacity="0.3">
<path d="M51.8986 31.6783V31.8458H52.6853V33.0385H52.8455V31.6783H51.8986Z" fill="black"/>
</g>
<path d="M54.2986 31.6783H53.3517V33.0403H54.2986V31.6783Z" fill="#455A64"/>
<g opacity="0.3">
<path d="M53.3517 31.6783V31.8458H54.1384V33.0385H54.2986V31.6783H53.3517Z" fill="black"/>
</g>
<path d="M55.7517 31.6783H54.8048V33.0403H55.7517V31.6783Z" fill="#455A64"/>
<g opacity="0.3">
<path d="M54.8048 31.6783V31.8458H55.5915V33.0385H55.7517V31.6783H54.8048Z" fill="black"/>
</g>
<path d="M57.2049 31.6783H56.258V33.0403H57.2049V31.6783Z" fill="#455A64"/>
<g opacity="0.3">
<path d="M56.258 31.6783V31.8458H57.0464V33.0385H57.2049V31.6783H56.258Z" fill="black"/>
</g>
<path d="M44.939 31.6783H43.9921V33.0403H44.939V31.6783Z" fill="#455A64"/>
<g opacity="0.3">
<path d="M43.9921 31.6783V31.8458H44.7787V33.0385H44.939V31.6783H43.9921Z" fill="black"/>
</g>
<path d="M46.3921 31.6783H45.4452V33.0403H46.3921V31.6783Z" fill="#455A64"/>
<g opacity="0.3">
<path d="M45.4452 31.6783V31.8458H46.2337V33.0385H46.3921V31.6783H45.4452Z" fill="black"/>
</g>
<path d="M47.8452 31.6783H46.8983V33.0403H47.8452V31.6783Z" fill="#455A64"/>
<g opacity="0.3">
<path d="M46.8983 31.6783V31.8458H47.6868V33.0385H47.8452V31.6783H46.8983Z" fill="black"/>
</g>
<path d="M49.9375 33.6995H48.9906V35.0616H49.9375V33.6995Z" fill="#455A64"/>
<g opacity="0.3">
<path d="M48.9906 33.6995V33.8671H49.779V35.0598H49.9393V33.6995H48.9906Z" fill="black"/>
</g>
<path d="M51.3924 33.6995H50.4455V35.0616H51.3924V33.6995Z" fill="#455A64"/>
<g opacity="0.3">
<path d="M50.4455 33.6995V33.8671H51.2321V35.0598H51.3924V33.6995H50.4455Z" fill="black"/>
</g>
<path d="M52.8455 33.6995H51.8986V35.0616H52.8455V33.6995Z" fill="#455A64"/>
<g opacity="0.3">
<path d="M51.8986 33.6995V33.8671H52.6853V35.0598H52.8455V33.6995H51.8986Z" fill="black"/>
</g>
<path d="M54.2986 33.6995H53.3517V35.0616H54.2986V33.6995Z" fill="#455A64"/>
<g opacity="0.3">
<path d="M53.3517 33.6995V33.8671H54.1384V35.0598H54.2986V33.6995H53.3517Z" fill="black"/>
</g>
<path d="M55.7517 33.6995H54.8048V35.0616H55.7517V33.6995Z" fill="#455A64"/>
<g opacity="0.3">
<path d="M54.8048 33.6995V33.8671H55.5915V35.0598H55.7517V33.6995H54.8048Z" fill="black"/>
</g>
<path d="M57.2049 33.6995H56.258V35.0616H57.2049V33.6995Z" fill="#455A64"/>
<g opacity="0.3">
<path d="M56.258 33.6995V33.8671H57.0464V35.0598H57.2049V33.6995H56.258Z" fill="black"/>
</g>
<path d="M44.939 33.6995H43.9921V35.0616H44.939V33.6995Z" fill="#455A64"/>
<g opacity="0.3">
<path d="M43.9921 33.6995V33.8671H44.7787V35.0598H44.939V33.6995H43.9921Z" fill="black"/>
</g>
<path d="M46.3921 33.6995H45.4452V35.0616H46.3921V33.6995Z" fill="#455A64"/>
<g opacity="0.3">
<path d="M45.4452 33.6995V33.8671H46.2337V35.0598H46.3921V33.6995H45.4452Z" fill="black"/>
</g>
<path d="M47.8452 33.6995H46.8983V35.0616H47.8452V33.6995Z" fill="#455A64"/>
<g opacity="0.3">
<path d="M46.8983 33.6995V33.8671H47.6868V35.0598H47.8452V33.6995H46.8983Z" fill="black"/>
</g>
<g opacity="0.4">
<path d="M44.939 29.657H43.9921V31.0191H44.939V29.657Z" fill="white"/>
<g opacity="0.3">
<path d="M43.9921 29.657V29.8246H44.7787V31.0173H44.939V29.657H43.9921Z" fill="white"/>
</g>
</g>
<g opacity="0.4">
<path d="M46.3921 29.657H45.4452V31.0191H46.3921V29.657Z" fill="white"/>
<g opacity="0.3">
<path d="M45.4452 29.657V29.8246H46.2337V31.0173H46.3921V29.657H45.4452Z" fill="white"/>
</g>
</g>
<g opacity="0.4">
<path d="M47.8452 29.657H46.8983V31.0191H47.8452V29.657Z" fill="white"/>
<g opacity="0.3">
<path d="M46.8983 29.657V29.8246H47.6868V31.0173H47.8452V29.657H46.8983Z" fill="white"/>
</g>
</g>
<g opacity="0.4">
<path d="M44.939 31.6783H43.9921V33.0403H44.939V31.6783Z" fill="white"/>
<g opacity="0.3">
<path d="M43.9921 31.6783V31.8458H44.7787V33.0385H44.939V31.6783H43.9921Z" fill="white"/>
</g>
</g>
<g opacity="0.4">
<path d="M46.3921 31.6783H45.4452V33.0403H46.3921V31.6783Z" fill="white"/>
<g opacity="0.3">
<path d="M45.4452 31.6783V31.8458H46.2337V33.0385H46.3921V31.6783H45.4452Z" fill="white"/>
</g>
</g>
<g opacity="0.4">
<path d="M47.8452 31.6783H46.8983V33.0403H47.8452V31.6783Z" fill="white"/>
<g opacity="0.3">
<path d="M46.8983 31.6783V31.8458H47.6868V33.0385H47.8452V31.6783H46.8983Z" fill="white"/>
</g>
</g>
<g opacity="0.4">
<path d="M44.939 33.6995H43.9921V35.0616H44.939V33.6995Z" fill="white"/>
<g opacity="0.3">
<path d="M43.9921 33.6995V33.8671H44.7787V35.0598H44.939V33.6995H43.9921Z" fill="white"/>
</g>
</g>
<g opacity="0.4">
<path d="M47.8452 33.6995H46.8983V35.0616H47.8452V33.6995Z" fill="white"/>
<g opacity="0.3">
<path d="M46.8983 33.6995V33.8671H47.6868V35.0598H47.8452V33.6995H46.8983Z" fill="white"/>
</g>
</g>
<path d="M49.9375 35.7208H48.9906V37.0828H49.9375V35.7208Z" fill="#455A64"/>
<g opacity="0.3">
<path d="M48.9906 35.7208V35.8883H49.779V37.081H49.9393V35.7208H48.9906Z" fill="black"/>
</g>
<path d="M51.3924 35.7208H50.4455V37.0828H51.3924V35.7208Z" fill="#455A64"/>
<g opacity="0.3">
<path d="M50.4455 35.7208V35.8883H51.2321V37.081H51.3924V35.7208H50.4455Z" fill="black"/>
</g>
<path d="M52.8455 35.7208H51.8986V37.0828H52.8455V35.7208Z" fill="#455A64"/>
<g opacity="0.3">
<path d="M51.8986 35.7208V35.8883H52.6853V37.081H52.8455V35.7208H51.8986Z" fill="black"/>
</g>
<path d="M54.2986 35.7208H53.3517V37.0828H54.2986V35.7208Z" fill="#455A64"/>
<g opacity="0.3">
<path d="M53.3517 35.7208V35.8883H54.1384V37.081H54.2986V35.7208H53.3517Z" fill="black"/>
</g>
<path d="M55.7517 35.7208H54.8048V37.0828H55.7517V35.7208Z" fill="#455A64"/>
<g opacity="0.3">
<path d="M54.8048 35.7208V35.8883H55.5915V37.081H55.7517V35.7208H54.8048Z" fill="black"/>
</g>
<path d="M57.2049 35.7208H56.258V37.0828H57.2049V35.7208Z" fill="#455A64"/>
<g opacity="0.3">
<path d="M56.258 35.7208V35.8883H57.0464V37.081H57.2049V35.7208H56.258Z" fill="black"/>
</g>
<path d="M44.939 35.7208H43.9921V37.0828H44.939V35.7208Z" fill="#455A64"/>
<g opacity="0.3">
<path d="M43.9921 35.7208V35.8883H44.7787V37.081H44.939V35.7208H43.9921Z" fill="black"/>
</g>
<path d="M46.3921 35.7208H45.4452V37.0828H46.3921V35.7208Z" fill="#455A64"/>
<g opacity="0.3">
<path d="M45.4452 35.7208V35.8883H46.2337V37.081H46.3921V35.7208H45.4452Z" fill="black"/>
</g>
<path d="M47.8452 35.7208H46.8983V37.0828H47.8452V35.7208Z" fill="#455A64"/>
<g opacity="0.3">
<path d="M46.8983 35.7208V35.8883H47.6868V37.081H47.8452V35.7208H46.8983Z" fill="black"/>
</g>
<path d="M49.9375 37.7421H48.9906V39.1041H49.9375V37.7421Z" fill="#455A64"/>
<g opacity="0.3">
<path d="M48.9906 37.7421V37.9096H49.779V39.1023H49.9393V37.7421H48.9906Z" fill="black"/>
</g>
<path d="M51.3924 37.7421H50.4455V39.1041H51.3924V37.7421Z" fill="#455A64"/>
<g opacity="0.3">
<path d="M50.4455 37.7421V37.9096H51.2321V39.1023H51.3924V37.7421H50.4455Z" fill="black"/>
</g>
<path d="M52.8455 37.7421H51.8986V39.1041H52.8455V37.7421Z" fill="#455A64"/>
<g opacity="0.3">
<path d="M51.8986 37.7421V37.9096H52.6853V39.1023H52.8455V37.7421H51.8986Z" fill="black"/>
</g>
<path d="M54.2986 37.7421H53.3517V39.1041H54.2986V37.7421Z" fill="#455A64"/>
<g opacity="0.3">
<path d="M53.3517 37.7421V37.9096H54.1384V39.1023H54.2986V37.7421H53.3517Z" fill="black"/>
</g>
<path d="M55.7517 37.7421H54.8048V39.1041H55.7517V37.7421Z" fill="#455A64"/>
<g opacity="0.3">
<path d="M54.8048 37.7421V37.9096H55.5915V39.1023H55.7517V37.7421H54.8048Z" fill="black"/>
</g>
<path d="M57.2049 37.7421H56.258V39.1041H57.2049V37.7421Z" fill="#455A64"/>
<g opacity="0.3">
<path d="M56.258 37.7421V37.9096H57.0464V39.1023H57.2049V37.7421H56.258Z" fill="black"/>
</g>
<path d="M44.939 37.7421H43.9921V39.1041H44.939V37.7421Z" fill="#455A64"/>
<g opacity="0.3">
<path d="M43.9921 37.7421V37.9096H44.7787V39.1023H44.939V37.7421H43.9921Z" fill="black"/>
</g>
<path d="M46.3921 37.7421H45.4452V39.1041H46.3921V37.7421Z" fill="#455A64"/>
<g opacity="0.3">
<path d="M45.4452 37.7421V37.9096H46.2337V39.1023H46.3921V37.7421H45.4452Z" fill="black"/>
</g>
<path d="M47.8452 37.7421H46.8983V39.1041H47.8452V37.7421Z" fill="#455A64"/>
<g opacity="0.3">
<path d="M46.8983 37.7421V37.9096H47.6868V39.1023H47.8452V37.7421H46.8983Z" fill="black"/>
</g>
<path d="M49.9375 39.7633H48.9906V41.1254H49.9375V39.7633Z" fill="#455A64"/>
<g opacity="0.3">
<path d="M48.9906 39.7633V39.9308H49.779V41.1235H49.9393V39.7633H48.9906Z" fill="black"/>
</g>
<path d="M51.3924 39.7633H50.4455V41.1254H51.3924V39.7633Z" fill="#455A64"/>
<g opacity="0.3">
<path d="M50.4455 39.7633V39.9308H51.2321V41.1235H51.3924V39.7633H50.4455Z" fill="black"/>
</g>
<path d="M52.8455 39.7633H51.8986V41.1254H52.8455V39.7633Z" fill="#455A64"/>
<g opacity="0.3">
<path d="M51.8986 39.7633V39.9308H52.6853V41.1235H52.8455V39.7633H51.8986Z" fill="black"/>
</g>
<path d="M54.2986 39.7633H53.3517V41.1254H54.2986V39.7633Z" fill="#455A64"/>
<g opacity="0.3">
<path d="M53.3517 39.7633V39.9308H54.1384V41.1235H54.2986V39.7633H53.3517Z" fill="black"/>
</g>
<path d="M55.7517 39.7633H54.8048V41.1254H55.7517V39.7633Z" fill="#455A64"/>
<g opacity="0.3">
<path d="M54.8048 39.7633V39.9308H55.5915V41.1235H55.7517V39.7633H54.8048Z" fill="black"/>
</g>
<path d="M57.2049 39.7633H56.258V41.1254H57.2049V39.7633Z" fill="#455A64"/>
<g opacity="0.3">
<path d="M56.258 39.7633V39.9308H57.0464V41.1235H57.2049V39.7633H56.258Z" fill="black"/>
</g>
<path d="M44.939 39.7633H43.9921V41.1254H44.939V39.7633Z" fill="#455A64"/>
<g opacity="0.3">
<path d="M43.9921 39.7633V39.9308H44.7787V41.1235H44.939V39.7633H43.9921Z" fill="black"/>
</g>
<path d="M46.3921 39.7633H45.4452V41.1254H46.3921V39.7633Z" fill="#455A64"/>
<g opacity="0.3">
<path d="M45.4452 39.7633V39.9308H46.2337V41.1235H46.3921V39.7633H45.4452Z" fill="black"/>
</g>
<path d="M47.8452 39.7633H46.8983V41.1254H47.8452V39.7633Z" fill="#455A64"/>
<g opacity="0.3">
<path d="M46.8983 39.7633V39.9308H47.6868V41.1235H47.8452V39.7633H46.8983Z" fill="black"/>
</g>
<path d="M49.9375 42.7496H48.9906V44.1117H49.9375V42.7496Z" fill="#455A64"/>
<g opacity="0.3">
<path d="M48.9906 42.7496V42.919H49.779V44.1117H49.9393V42.7496H48.9906Z" fill="black"/>
</g>
<path d="M51.3924 42.7496H50.4455V44.1117H51.3924V42.7496Z" fill="#455A64"/>
<g opacity="0.3">
<path d="M50.4455 42.7496V42.919H51.2321V44.1117H51.3924V42.7496H50.4455Z" fill="black"/>
</g>
<path d="M52.8455 42.7496H51.8986V44.1117H52.8455V42.7496Z" fill="#455A64"/>
<g opacity="0.3">
<path d="M51.8986 42.7496V42.919H52.6853V44.1117H52.8455V42.7496H51.8986Z" fill="black"/>
</g>
<path d="M54.2986 42.7496H53.3517V44.1117H54.2986V42.7496Z" fill="#455A64"/>
<g opacity="0.3">
<path d="M53.3517 42.7496V42.919H54.1384V44.1117H54.2986V42.7496H53.3517Z" fill="black"/>
</g>
<path d="M55.7517 42.7496H54.8048V44.1117H55.7517V42.7496Z" fill="#455A64"/>
<g opacity="0.3">
<path d="M54.8048 42.7496V42.919H55.5915V44.1117H55.7517V42.7496H54.8048Z" fill="black"/>
</g>
<path d="M57.2049 42.7496H56.258V44.1117H57.2049V42.7496Z" fill="#455A64"/>
<g opacity="0.3">
<path d="M56.258 42.7496V42.919H57.0464V44.1117H57.2049V42.7496H56.258Z" fill="black"/>
</g>
<path d="M44.939 42.7496H43.9921V44.1117H44.939V42.7496Z" fill="#455A64"/>
<g opacity="0.3">
<path d="M43.9921 42.7496V42.919H44.7787V44.1117H44.939V42.7496H43.9921Z" fill="black"/>
</g>
<path d="M46.3921 42.7496H45.4452V44.1117H46.3921V42.7496Z" fill="#455A64"/>
<g opacity="0.3">
<path d="M45.4452 42.7496V42.919H46.2337V44.1117H46.3921V42.7496H45.4452Z" fill="black"/>
</g>
<path d="M47.8452 42.7496H46.8983V44.1117H47.8452V42.7496Z" fill="#455A64"/>
<g opacity="0.3">
<path d="M46.8983 42.7496V42.919H47.6868V44.1117H47.8452V42.7496H46.8983Z" fill="black"/>
</g>
<path d="M49.9375 44.7017H48.9906V46.0637H49.9375V44.7017Z" fill="#455A64"/>
<g opacity="0.3">
<path d="M48.9906 44.7017V44.871H49.779V46.0637H49.9393V44.7017H48.9906Z" fill="black"/>
</g>
<path d="M51.3924 44.7017H50.4455V46.0637H51.3924V44.7017Z" fill="#455A64"/>
<g opacity="0.3">
<path d="M50.4455 44.7017V44.871H51.2321V46.0637H51.3924V44.7017H50.4455Z" fill="black"/>
</g>
<path d="M52.8455 44.7017H51.8986V46.0637H52.8455V44.7017Z" fill="#455A64"/>
<g opacity="0.3">
<path d="M51.8986 44.7017V44.871H52.6853V46.0637H52.8455V44.7017H51.8986Z" fill="black"/>
</g>
<path d="M54.2986 44.7017H53.3517V46.0637H54.2986V44.7017Z" fill="#455A64"/>
<g opacity="0.3">
<path d="M53.3517 44.7017V44.871H54.1384V46.0637H54.2986V44.7017H53.3517Z" fill="black"/>
</g>
<path d="M55.7517 44.7017H54.8048V46.0637H55.7517V44.7017Z" fill="#455A64"/>
<g opacity="0.3">
<path d="M54.8048 44.7017V44.871H55.5915V46.0637H55.7517V44.7017H54.8048Z" fill="black"/>
</g>
<path d="M57.2049 44.7017H56.258V46.0637H57.2049V44.7017Z" fill="#455A64"/>
<g opacity="0.3">
<path d="M56.258 44.7017V44.871H57.0464V46.0637H57.2049V44.7017H56.258Z" fill="black"/>
</g>
<path d="M44.939 44.7017H43.9921V46.0637H44.939V44.7017Z" fill="#455A64"/>
<g opacity="0.3">
<path d="M43.9921 44.7017V44.871H44.7787V46.0637H44.939V44.7017H43.9921Z" fill="black"/>
</g>
<path d="M46.3921 44.7017H45.4452V46.0637H46.3921V44.7017Z" fill="#455A64"/>
<g opacity="0.3">
<path d="M45.4452 44.7017V44.871H46.2337V46.0637H46.3921V44.7017H45.4452Z" fill="black"/>
</g>
<path d="M47.8452 44.7017H46.8983V46.0637H47.8452V44.7017Z" fill="#455A64"/>
<g opacity="0.3">
<path d="M46.8983 44.7017V44.871H47.6868V46.0637H47.8452V44.7017H46.8983Z" fill="black"/>
</g>
<path d="M49.9375 46.6537H48.9906V48.0158H49.9375V46.6537Z" fill="#455A64"/>
<g opacity="0.3">
<path d="M48.9906 46.6537V46.8231H49.779V48.0158H49.9393V46.6537H48.9906Z" fill="black"/>
</g>
<path d="M51.3924 46.6537H50.4455V48.0158H51.3924V46.6537Z" fill="#455A64"/>
<g opacity="0.3">
<path d="M50.4455 46.6537V46.8231H51.2321V48.0158H51.3924V46.6537H50.4455Z" fill="black"/>
</g>
<path d="M52.8455 46.6537H51.8986V48.0158H52.8455V46.6537Z" fill="#455A64"/>
<g opacity="0.3">
<path d="M51.8986 46.6537V46.8231H52.6853V48.0158H52.8455V46.6537H51.8986Z" fill="black"/>
</g>
<path d="M54.2986 46.6537H53.3517V48.0158H54.2986V46.6537Z" fill="#455A64"/>
<g opacity="0.3">
<path d="M53.3517 46.6537V46.8231H54.1384V48.0158H54.2986V46.6537H53.3517Z" fill="black"/>
</g>
<path d="M55.7517 46.6537H54.8048V48.0158H55.7517V46.6537Z" fill="#455A64"/>
<g opacity="0.3">
<path d="M54.8048 46.6537V46.8231H55.5915V48.0158H55.7517V46.6537H54.8048Z" fill="black"/>
</g>
<path d="M57.2049 46.6537H56.258V48.0158H57.2049V46.6537Z" fill="#455A64"/>
<g opacity="0.3">
<path d="M56.258 46.6537V46.8231H57.0464V48.0158H57.2049V46.6537H56.258Z" fill="black"/>
</g>
<path d="M44.939 46.6537H43.9921V48.0158H44.939V46.6537Z" fill="#455A64"/>
<g opacity="0.3">
<path d="M43.9921 46.6537V46.8231H44.7787V48.0158H44.939V46.6537H43.9921Z" fill="black"/>
</g>
<path d="M46.3921 46.6537H45.4452V48.0158H46.3921V46.6537Z" fill="#455A64"/>
<g opacity="0.3">
<path d="M45.4452 46.6537V46.8231H46.2337V48.0158H46.3921V46.6537H45.4452Z" fill="black"/>
</g>
<path d="M47.8452 46.6537H46.8983V48.0158H47.8452V46.6537Z" fill="#455A64"/>
<g opacity="0.3">
<path d="M46.8983 46.6537V46.8231H47.6868V48.0158H47.8452V46.6537H46.8983Z" fill="black"/>
</g>
<path d="M49.9375 48.6058H48.9906V49.9678H49.9375V48.6058Z" fill="#455A64"/>
<g opacity="0.3">
<path d="M48.9906 48.6058V48.7751H49.779V49.9678H49.9393V48.6058H48.9906Z" fill="black"/>
</g>
<path d="M51.3924 48.6058H50.4455V49.9678H51.3924V48.6058Z" fill="#455A64"/>
<g opacity="0.3">
<path d="M50.4455 48.6058V48.7751H51.2321V49.9678H51.3924V48.6058H50.4455Z" fill="black"/>
</g>
<path d="M52.8455 48.6058H51.8986V49.9678H52.8455V48.6058Z" fill="#455A64"/>
<g opacity="0.3">
<path d="M51.8986 48.6058V48.7751H52.6853V49.9678H52.8455V48.6058H51.8986Z" fill="black"/>
</g>
<path d="M54.2986 48.6058H53.3517V49.9678H54.2986V48.6058Z" fill="#455A64"/>
<g opacity="0.3">
<path d="M53.3517 48.6058V48.7751H54.1384V49.9678H54.2986V48.6058H53.3517Z" fill="black"/>
</g>
<path d="M55.7517 48.6058H54.8048V49.9678H55.7517V48.6058Z" fill="#455A64"/>
<g opacity="0.3">
<path d="M54.8048 48.6058V48.7751H55.5915V49.9678H55.7517V48.6058H54.8048Z" fill="black"/>
</g>
<path d="M57.2049 48.6058H56.258V49.9678H57.2049V48.6058Z" fill="#455A64"/>
<g opacity="0.3">
<path d="M56.258 48.6058V48.7751H57.0464V49.9678H57.2049V48.6058H56.258Z" fill="black"/>
</g>
<path d="M44.939 48.6058H43.9921V49.9678H44.939V48.6058Z" fill="#455A64"/>
<g opacity="0.3">
<path d="M43.9921 48.6058V48.7751H44.7787V49.9678H44.939V48.6058H43.9921Z" fill="black"/>
</g>
<path d="M46.3921 48.6058H45.4452V49.9678H46.3921V48.6058Z" fill="#455A64"/>
<g opacity="0.3">
<path d="M45.4452 48.6058V48.7751H46.2337V49.9678H46.3921V48.6058H45.4452Z" fill="black"/>
</g>
<path d="M47.8452 48.6058H46.8983V49.9678H47.8452V48.6058Z" fill="#455A64"/>
<g opacity="0.3">
<path d="M46.8983 48.6058V48.7751H47.6868V49.9678H47.8452V48.6058H46.8983Z" fill="black"/>
</g>
<path d="M49.9375 50.5578H48.9906V51.9199H49.9375V50.5578Z" fill="#455A64"/>
<g opacity="0.3">
<path d="M48.9906 50.5578V50.7271H49.779V51.9199H49.9393V50.5578H48.9906Z" fill="black"/>
</g>
<path d="M51.3924 50.5578H50.4455V51.9199H51.3924V50.5578Z" fill="#455A64"/>
<g opacity="0.3">
<path d="M50.4455 50.5578V50.7271H51.2321V51.9199H51.3924V50.5578H50.4455Z" fill="black"/>
</g>
<path d="M52.8455 50.5578H51.8986V51.9199H52.8455V50.5578Z" fill="#455A64"/>
<g opacity="0.3">
<path d="M51.8986 50.5578V50.7271H52.6853V51.9199H52.8455V50.5578H51.8986Z" fill="black"/>
</g>
<path d="M54.2986 50.5578H53.3517V51.9199H54.2986V50.5578Z" fill="#455A64"/>
<g opacity="0.3">
<path d="M53.3517 50.5578V50.7271H54.1384V51.9199H54.2986V50.5578H53.3517Z" fill="black"/>
</g>
<path d="M55.7517 50.5578H54.8048V51.9199H55.7517V50.5578Z" fill="#455A64"/>
<g opacity="0.3">
<path d="M54.8048 50.5578V50.7271H55.5915V51.9199H55.7517V50.5578H54.8048Z" fill="black"/>
</g>
<path d="M57.2049 50.5578H56.258V51.9199H57.2049V50.5578Z" fill="#455A64"/>
<g opacity="0.3">
<path d="M56.258 50.5578V50.7271H57.0464V51.9199H57.2049V50.5578H56.258Z" fill="black"/>
</g>
<path d="M44.939 50.5578H43.9921V51.9199H44.939V50.5578Z" fill="#455A64"/>
<g opacity="0.3">
<path d="M43.9921 50.5578V50.7271H44.7787V51.9199H44.939V50.5578H43.9921Z" fill="black"/>
</g>
<path d="M46.3921 50.5578H45.4452V51.9199H46.3921V50.5578Z" fill="#455A64"/>
<g opacity="0.3">
<path d="M45.4452 50.5578V50.7271H46.2337V51.9199H46.3921V50.5578H45.4452Z" fill="black"/>
</g>
<path d="M47.8452 50.5578H46.8983V51.9199H47.8452V50.5578Z" fill="#455A64"/>
<g opacity="0.3">
<path d="M46.8983 50.5578V50.7271H47.6868V51.9199H47.8452V50.5578H46.8983Z" fill="black"/>
</g>
<path d="M49.9375 52.5099H48.9906V53.872H49.9375V52.5099Z" fill="#455A64"/>
<g opacity="0.3">
<path d="M48.9906 52.5099V52.6792H49.779V53.872H49.9393V52.5099H48.9906Z" fill="black"/>
</g>
<path d="M51.3924 52.5099H50.4455V53.872H51.3924V52.5099Z" fill="#455A64"/>
<g opacity="0.3">
<path d="M50.4455 52.5099V52.6792H51.2321V53.872H51.3924V52.5099H50.4455Z" fill="black"/>
</g>
<path d="M52.8455 52.5099H51.8986V53.872H52.8455V52.5099Z" fill="#455A64"/>
<g opacity="0.3">
<path d="M51.8986 52.5099V52.6792H52.6853V53.872H52.8455V52.5099H51.8986Z" fill="black"/>
</g>
<path d="M54.2986 52.5099H53.3517V53.872H54.2986V52.5099Z" fill="#455A64"/>
<g opacity="0.3">
<path d="M53.3517 52.5099V52.6792H54.1384V53.872H54.2986V52.5099H53.3517Z" fill="black"/>
</g>
<path d="M55.7517 52.5099H54.8048V53.872H55.7517V52.5099Z" fill="#455A64"/>
<g opacity="0.3">
<path d="M54.8048 52.5099V52.6792H55.5915V53.872H55.7517V52.5099H54.8048Z" fill="black"/>
</g>
<path d="M57.2049 52.5099H56.258V53.872H57.2049V52.5099Z" fill="#455A64"/>
<g opacity="0.3">
<path d="M56.258 52.5099V52.6792H57.0464V53.872H57.2049V52.5099H56.258Z" fill="black"/>
</g>
<path d="M44.939 52.5099H43.9921V53.872H44.939V52.5099Z" fill="#455A64"/>
<g opacity="0.3">
<path d="M43.9921 52.5099V52.6792H44.7787V53.872H44.939V52.5099H43.9921Z" fill="black"/>
</g>
<path d="M46.3921 52.5099H45.4452V53.872H46.3921V52.5099Z" fill="#455A64"/>
<g opacity="0.3">
<path d="M45.4452 52.5099V52.6792H46.2337V53.872H46.3921V52.5099H45.4452Z" fill="black"/>
</g>
<path d="M47.8452 52.5099H46.8983V53.872H47.8452V52.5099Z" fill="#455A64"/>
<g opacity="0.3">
<path d="M46.8983 52.5099V52.6792H47.6868V53.872H47.8452V52.5099H46.8983Z" fill="black"/>
</g>
<path d="M49.9375 55.0683H48.9906V56.4304H49.9375V55.0683Z" fill="#455A64"/>
<g opacity="0.3">
<path d="M48.9906 55.0683V55.2376H49.779V56.4304H49.9393V55.0683H48.9906Z" fill="black"/>
</g>
<path d="M51.3924 55.0683H50.4455V56.4304H51.3924V55.0683Z" fill="#455A64"/>
<g opacity="0.3">
<path d="M50.4455 55.0683V55.2376H51.2321V56.4304H51.3924V55.0683H50.4455Z" fill="black"/>
</g>
<path d="M52.8455 55.0683H51.8986V56.4304H52.8455V55.0683Z" fill="#455A64"/>
<g opacity="0.3">
<path d="M51.8986 55.0683V55.2376H52.6853V56.4304H52.8455V55.0683H51.8986Z" fill="black"/>
</g>
<path d="M54.2986 55.0683H53.3517V56.4304H54.2986V55.0683Z" fill="#455A64"/>
<g opacity="0.3">
<path d="M53.3517 55.0683V55.2376H54.1384V56.4304H54.2986V55.0683H53.3517Z" fill="black"/>
</g>
<path d="M55.7517 55.0683H54.8048V56.4304H55.7517V55.0683Z" fill="#455A64"/>
<g opacity="0.3">
<path d="M54.8048 55.0683V55.2376H55.5915V56.4304H55.7517V55.0683H54.8048Z" fill="black"/>
</g>
<path d="M57.2049 55.0683H56.258V56.4304H57.2049V55.0683Z" fill="#455A64"/>
<g opacity="0.3">
<path d="M56.258 55.0683V55.2376H57.0464V56.4304H57.2049V55.0683H56.258Z" fill="black"/>
</g>
<path d="M44.939 55.0683H43.9921V56.4304H44.939V55.0683Z" fill="#455A64"/>
<g opacity="0.3">
<path d="M43.9921 55.0683V55.2376H44.7787V56.4304H44.939V55.0683H43.9921Z" fill="black"/>
</g>
<path d="M46.3921 55.0683H45.4452V56.4304H46.3921V55.0683Z" fill="#455A64"/>
<g opacity="0.3">
<path d="M45.4452 55.0683V55.2376H46.2337V56.4304H46.3921V55.0683H45.4452Z" fill="black"/>
</g>
<path d="M47.8452 55.0683H46.8983V56.4304H47.8452V55.0683Z" fill="#455A64"/>
<g opacity="0.3">
<path d="M46.8983 55.0683V55.2376H47.6868V56.4304H47.8452V55.0683H46.8983Z" fill="black"/>
</g>
<path d="M49.9375 57.0203H48.9906V58.3824H49.9375V57.0203Z" fill="#455A64"/>
<g opacity="0.3">
<path d="M48.9906 57.0203V57.1897H49.779V58.3824H49.9393V57.0203H48.9906Z" fill="black"/>
</g>
<path d="M51.3924 57.0203H50.4455V58.3824H51.3924V57.0203Z" fill="#455A64"/>
<g opacity="0.3">
<path d="M50.4455 57.0203V57.1897H51.2321V58.3824H51.3924V57.0203H50.4455Z" fill="black"/>
</g>
<path d="M52.8455 57.0203H51.8986V58.3824H52.8455V57.0203Z" fill="#455A64"/>
<g opacity="0.3">
<path d="M51.8986 57.0203V57.1897H52.6853V58.3824H52.8455V57.0203H51.8986Z" fill="black"/>
</g>
<path d="M54.2986 57.0203H53.3517V58.3824H54.2986V57.0203Z" fill="#455A64"/>
<g opacity="0.3">
<path d="M53.3517 57.0203V57.1897H54.1384V58.3824H54.2986V57.0203H53.3517Z" fill="black"/>
</g>
<path d="M55.7517 57.0203H54.8048V58.3824H55.7517V57.0203Z" fill="#455A64"/>
<g opacity="0.3">
<path d="M54.8048 57.0203V57.1897H55.5915V58.3824H55.7517V57.0203H54.8048Z" fill="black"/>
</g>
<path d="M57.2049 57.0203H56.258V58.3824H57.2049V57.0203Z" fill="#455A64"/>
<g opacity="0.3">
<path d="M56.258 57.0203V57.1897H57.0464V58.3824H57.2049V57.0203H56.258Z" fill="black"/>
</g>
<path d="M44.939 57.0203H43.9921V58.3824H44.939V57.0203Z" fill="#455A64"/>
<g opacity="0.3">
<path d="M43.9921 57.0203V57.1897H44.7787V58.3824H44.939V57.0203H43.9921Z" fill="black"/>
</g>
<path d="M46.3921 57.0203H45.4452V58.3824H46.3921V57.0203Z" fill="#455A64"/>
<g opacity="0.3">
<path d="M45.4452 57.0203V57.1897H46.2337V58.3824H46.3921V57.0203H45.4452Z" fill="black"/>
</g>
<path d="M47.8452 57.0203H46.8983V58.3824H47.8452V57.0203Z" fill="#455A64"/>
<g opacity="0.3">
<path d="M46.8983 57.0203V57.1897H47.6868V58.3824H47.8452V57.0203H46.8983Z" fill="black"/>
</g>
<path d="M49.9375 58.9724H48.9906V60.3345H49.9375V58.9724Z" fill="#455A64"/>
<g opacity="0.3">
<path d="M48.9906 58.9724V59.1418H49.779V60.3326H49.9393V58.9724H48.9906Z" fill="black"/>
</g>
<path d="M51.3924 58.9724H50.4455V60.3345H51.3924V58.9724Z" fill="#455A64"/>
<g opacity="0.3">
<path d="M50.4455 58.9724V59.1418H51.2321V60.3326H51.3924V58.9724H50.4455Z" fill="black"/>
</g>
<path d="M52.8455 58.9724H51.8986V60.3345H52.8455V58.9724Z" fill="#455A64"/>
<g opacity="0.3">
<path d="M51.8986 58.9724V59.1418H52.6853V60.3326H52.8455V58.9724H51.8986Z" fill="black"/>
</g>
<path d="M54.2986 58.9724H53.3517V60.3345H54.2986V58.9724Z" fill="#455A64"/>
<g opacity="0.3">
<path d="M53.3517 58.9724V59.1418H54.1384V60.3326H54.2986V58.9724H53.3517Z" fill="black"/>
</g>
<path d="M55.7517 58.9724H54.8048V60.3345H55.7517V58.9724Z" fill="#455A64"/>
<g opacity="0.3">
<path d="M54.8048 58.9724V59.1418H55.5915V60.3326H55.7517V58.9724H54.8048Z" fill="black"/>
</g>
<path d="M57.2049 58.9724H56.258V60.3345H57.2049V58.9724Z" fill="#455A64"/>
<g opacity="0.3">
<path d="M56.258 58.9724V59.1418H57.0464V60.3326H57.2049V58.9724H56.258Z" fill="black"/>
</g>
<path d="M44.939 58.9724H43.9921V60.3345H44.939V58.9724Z" fill="#455A64"/>
<g opacity="0.3">
<path d="M43.9921 58.9724V59.1418H44.7787V60.3326H44.939V58.9724H43.9921Z" fill="black"/>
</g>
<path d="M46.3921 58.9724H45.4452V60.3345H46.3921V58.9724Z" fill="#455A64"/>
<g opacity="0.3">
<path d="M45.4452 58.9724V59.1418H46.2337V60.3326H46.3921V58.9724H45.4452Z" fill="black"/>
</g>
<path d="M47.8452 58.9724H46.8983V60.3345H47.8452V58.9724Z" fill="#455A64"/>
<g opacity="0.3">
<path d="M46.8983 58.9724V59.1418H47.6868V60.3326H47.8452V58.9724H46.8983Z" fill="black"/>
</g>
<path d="M49.9375 60.9244H48.9906V62.2865H49.9375V60.9244Z" fill="#455A64"/>
<g opacity="0.3">
<path d="M48.9906 60.9244V61.092H49.779V62.2847H49.9393V60.9244H48.9906Z" fill="black"/>
</g>
<path d="M51.3924 60.9244H50.4455V62.2865H51.3924V60.9244Z" fill="#455A64"/>
<g opacity="0.3">
<path d="M50.4455 60.9244V61.092H51.2321V62.2847H51.3924V60.9244H50.4455Z" fill="black"/>
</g>
<path d="M52.8455 60.9244H51.8986V62.2865H52.8455V60.9244Z" fill="#455A64"/>
<g opacity="0.3">
<path d="M51.8986 60.9244V61.092H52.6853V62.2847H52.8455V60.9244H51.8986Z" fill="black"/>
</g>
<path d="M54.2986 60.9244H53.3517V62.2865H54.2986V60.9244Z" fill="#455A64"/>
<g opacity="0.3">
<path d="M53.3517 60.9244V61.092H54.1384V62.2847H54.2986V60.9244H53.3517Z" fill="black"/>
</g>
<path d="M55.7517 60.9244H54.8048V62.2865H55.7517V60.9244Z" fill="#455A64"/>
<g opacity="0.3">
<path d="M54.8048 60.9244V61.092H55.5915V62.2847H55.7517V60.9244H54.8048Z" fill="black"/>
</g>
<path d="M57.2049 60.9244H56.258V62.2865H57.2049V60.9244Z" fill="#455A64"/>
<g opacity="0.3">
<path d="M56.258 60.9244V61.092H57.0464V62.2847H57.2049V60.9244H56.258Z" fill="black"/>
</g>
<path d="M44.939 60.9244H43.9921V62.2865H44.939V60.9244Z" fill="#455A64"/>
<g opacity="0.3">
<path d="M43.9921 60.9244V61.092H44.7787V62.2847H44.939V60.9244H43.9921Z" fill="black"/>
</g>
<path d="M46.3921 60.9244H45.4452V62.2865H46.3921V60.9244Z" fill="#455A64"/>
<g opacity="0.3">
<path d="M45.4452 60.9244V61.092H46.2337V62.2847H46.3921V60.9244H45.4452Z" fill="black"/>
</g>
<path d="M47.8452 60.9244H46.8983V62.2865H47.8452V60.9244Z" fill="#455A64"/>
<g opacity="0.3">
<path d="M46.8983 60.9244V61.092H47.6868V62.2847H47.8452V60.9244H46.8983Z" fill="black"/>
</g>
<path d="M49.9375 62.8765H48.9906V64.2385H49.9375V62.8765Z" fill="#455A64"/>
<g opacity="0.3">
<path d="M48.9906 62.8765V63.044H49.779V64.2367H49.9393V62.8765H48.9906Z" fill="black"/>
</g>
<path d="M51.3924 62.8765H50.4455V64.2385H51.3924V62.8765Z" fill="#455A64"/>
<g opacity="0.3">
<path d="M50.4455 62.8765V63.044H51.2321V64.2367H51.3924V62.8765H50.4455Z" fill="black"/>
</g>
<path d="M52.8455 62.8765H51.8986V64.2385H52.8455V62.8765Z" fill="#455A64"/>
<g opacity="0.3">
<path d="M51.8986 62.8765V63.044H52.6853V64.2367H52.8455V62.8765H51.8986Z" fill="black"/>
</g>
<path d="M54.2986 62.8765H53.3517V64.2385H54.2986V62.8765Z" fill="#455A64"/>
<g opacity="0.3">
<path d="M53.3517 62.8765V63.044H54.1384V64.2367H54.2986V62.8765H53.3517Z" fill="black"/>
</g>
<path d="M55.7517 62.8765H54.8048V64.2385H55.7517V62.8765Z" fill="#455A64"/>
<g opacity="0.3">
<path d="M54.8048 62.8765V63.044H55.5915V64.2367H55.7517V62.8765H54.8048Z" fill="black"/>
</g>
<path d="M57.2049 62.8765H56.258V64.2385H57.2049V62.8765Z" fill="#455A64"/>
<g opacity="0.3">
<path d="M56.258 62.8765V63.044H57.0464V64.2367H57.2049V62.8765H56.258Z" fill="black"/>
</g>
<path d="M44.939 62.8765H43.9921V64.2385H44.939V62.8765Z" fill="#455A64"/>
<g opacity="0.3">
<path d="M43.9921 62.8765V63.044H44.7787V64.2367H44.939V62.8765H43.9921Z" fill="black"/>
</g>
<path d="M46.3921 62.8765H45.4452V64.2385H46.3921V62.8765Z" fill="#455A64"/>
<g opacity="0.3">
<path d="M45.4452 62.8765V63.044H46.2337V64.2367H46.3921V62.8765H45.4452Z" fill="black"/>
</g>
<path d="M47.8452 62.8765H46.8983V64.2385H47.8452V62.8765Z" fill="#455A64"/>
<g opacity="0.3">
<path d="M46.8983 62.8765V63.044H47.6868V64.2367H47.8452V62.8765H46.8983Z" fill="black"/>
</g>
<path d="M49.9375 64.8286H48.9906V66.1906H49.9375V64.8286Z" fill="#455A64"/>
<g opacity="0.3">
<path d="M48.9906 64.8286V64.9961H49.779V66.1888H49.9393V64.8286H48.9906Z" fill="black"/>
</g>
<path d="M51.3924 64.8286H50.4455V66.1906H51.3924V64.8286Z" fill="#455A64"/>
<g opacity="0.3">
<path d="M50.4455 64.8286V64.9961H51.2321V66.1888H51.3924V64.8286H50.4455Z" fill="black"/>
</g>
<path d="M52.8455 64.8286H51.8986V66.1906H52.8455V64.8286Z" fill="#455A64"/>
<g opacity="0.3">
<path d="M51.8986 64.8286V64.9961H52.6853V66.1888H52.8455V64.8286H51.8986Z" fill="black"/>
</g>
<path d="M54.2986 64.8286H53.3517V66.1906H54.2986V64.8286Z" fill="#455A64"/>
<g opacity="0.3">
<path d="M53.3517 64.8286V64.9961H54.1384V66.1888H54.2986V64.8286H53.3517Z" fill="black"/>
</g>
<path d="M55.7517 64.8286H54.8048V66.1906H55.7517V64.8286Z" fill="#455A64"/>
<g opacity="0.3">
<path d="M54.8048 64.8286V64.9961H55.5915V66.1888H55.7517V64.8286H54.8048Z" fill="black"/>
</g>
<path d="M57.2049 64.8286H56.258V66.1906H57.2049V64.8286Z" fill="#455A64"/>
<g opacity="0.3">
<path d="M56.258 64.8286V64.9961H57.0464V66.1888H57.2049V64.8286H56.258Z" fill="black"/>
</g>
<path d="M44.939 64.8286H43.9921V66.1906H44.939V64.8286Z" fill="#455A64"/>
<g opacity="0.3">
<path d="M43.9921 64.8286V64.9961H44.7787V66.1888H44.939V64.8286H43.9921Z" fill="black"/>
</g>
<path d="M46.3921 64.8286H45.4452V66.1906H46.3921V64.8286Z" fill="#455A64"/>
<g opacity="0.3">
<path d="M45.4452 64.8286V64.9961H46.2337V66.1888H46.3921V64.8286H45.4452Z" fill="black"/>
</g>
<path d="M47.8452 64.8286H46.8983V66.1906H47.8452V64.8286Z" fill="#455A64"/>
<g opacity="0.3">
<path d="M46.8983 64.8286V64.9961H47.6868V66.1888H47.8452V64.8286H46.8983Z" fill="black"/>
</g>
<g opacity="0.4">
<path d="M49.9375 29.657H48.9906V31.0191H49.9375V29.657Z" fill="white"/>
</g>
<g opacity="0.4">
<path d="M51.3924 29.657H50.4455V31.0191H51.3924V29.657Z" fill="white"/>
</g>
<g opacity="0.4">
<path d="M52.8455 29.657H51.8986V31.0191H52.8455V29.657Z" fill="white"/>
</g>
<g opacity="0.4">
<path d="M54.2986 29.657H53.3517V31.0191H54.2986V29.657Z" fill="white"/>
</g>
<g opacity="0.4">
<path d="M55.7517 29.657H54.8048V31.0191H55.7517V29.657Z" fill="white"/>
</g>
<g opacity="0.4">
<path d="M57.2049 29.657H56.258V31.0191H57.2049V29.657Z" fill="white"/>
</g>
<g opacity="0.4">
<path d="M49.9375 31.6783H48.9906V33.0403H49.9375V31.6783Z" fill="white"/>
</g>
<g opacity="0.4">
<path d="M51.3924 31.6783H50.4455V33.0403H51.3924V31.6783Z" fill="white"/>
</g>
<g opacity="0.4">
<path d="M52.8455 31.6783H51.8986V33.0403H52.8455V31.6783Z" fill="white"/>
</g>
<g opacity="0.4">
<path d="M54.2986 31.6783H53.3517V33.0403H54.2986V31.6783Z" fill="white"/>
</g>
<g opacity="0.4">
<path d="M55.7517 31.6783H54.8048V33.0403H55.7517V31.6783Z" fill="white"/>
</g>
<g opacity="0.4">
<path d="M57.2049 31.6783H56.258V33.0403H57.2049V31.6783Z" fill="white"/>
</g>
<g opacity="0.4">
<path d="M49.9375 33.6995H48.9906V35.0616H49.9375V33.6995Z" fill="white"/>
</g>
<g opacity="0.4">
<path d="M51.3924 33.6995H50.4455V35.0616H51.3924V33.6995Z" fill="white"/>
</g>
<g opacity="0.4">
<path d="M55.7517 33.6995H54.8048V35.0616H55.7517V33.6995Z" fill="white"/>
</g>
<g opacity="0.4">
<path d="M49.9375 35.7208H48.9906V37.0828H49.9375V35.7208Z" fill="white"/>
</g>
<g opacity="0.4">
<path d="M55.7517 35.7208H54.8048V37.0828H55.7517V35.7208Z" fill="white"/>
</g>
<g opacity="0.3">
<path d="M48.3187 28.1766H43.3875V67.0483H48.3187V28.1766Z" fill="black"/>
</g>
<path d="M40.7502 67.0096H49.0337V44.4008H40.7502V67.0096Z" fill="#FF725E"/>
<path d="M36.5197 67.0096H40.7497V44.4008H36.5197V67.0096Z" fill="#FF725E"/>
<path d="M43.6771 46.5972H41.9727V48.9025H43.6771V46.5972Z" fill="#455A64"/>
<g opacity="0.3">
<path d="M41.9727 46.5972V46.8813H43.3894V48.9025H43.6771V46.5972H41.9727Z" fill="black"/>
</g>
<path d="M43.7754 48.9025H41.9727V49.3705H43.7754V48.9025Z" fill="white"/>
<path d="M43.7754 46.1147H41.9727V46.5827H43.7754V46.1147Z" fill="white"/>
<path d="M47.603 48.9025H45.8003V49.3705H47.603V48.9025Z" fill="white"/>
<path d="M47.603 46.1147H45.8003V46.5827H47.603V46.1147Z" fill="white"/>
<path d="M47.5047 46.5972H45.8003V48.9025H47.5047V46.5972Z" fill="#455A64"/>
<g opacity="0.3">
<path d="M45.8003 46.5972V46.8813H47.217V48.9025H47.5047V46.5972H45.8003Z" fill="black"/>
</g>
<path d="M43.6771 50.8728H41.9727V53.1781H43.6771V50.8728Z" fill="#455A64"/>
<g opacity="0.3">
<path d="M41.9727 50.8728V51.1587H43.3894V53.1781H43.6771V50.8728H41.9727Z" fill="black"/>
</g>
<path d="M43.7754 53.1781H41.9727V53.6461H43.7754V53.1781Z" fill="white"/>
<path d="M43.7754 50.3903H41.9727V50.8582H43.7754V50.3903Z" fill="white"/>
<path d="M47.603 53.1781H45.8003V53.6461H47.603V53.1781Z" fill="white"/>
<path d="M47.603 50.3903H45.8003V50.8582H47.603V50.3903Z" fill="white"/>
<path d="M47.5047 50.8728H45.8003V53.1781H47.5047V50.8728Z" fill="#455A64"/>
<g opacity="0.3">
<path d="M45.8003 50.8728V51.1587H47.217V53.1781H47.5047V50.8728H45.8003Z" fill="black"/>
</g>
<path d="M43.6771 55.3013H41.9727V57.6066H43.6771V55.3013Z" fill="#455A64"/>
<g opacity="0.3">
<path d="M41.9727 55.3013V55.5854H43.3894V57.6066H43.6771V55.3013H41.9727Z" fill="black"/>
</g>
<path d="M43.7754 57.6066H41.9727V58.0746H43.7754V57.6066Z" fill="white"/>
<path d="M43.7754 54.8188H41.9727V55.2868H43.7754V54.8188Z" fill="white"/>
<path d="M47.603 57.6066H45.8003V58.0746H47.603V57.6066Z" fill="white"/>
<path d="M47.603 54.8188H45.8003V55.2868H47.603V54.8188Z" fill="white"/>
<path d="M47.5047 55.3013H45.8003V57.6066H47.5047V55.3013Z" fill="#455A64"/>
<g opacity="0.3">
<path d="M45.8003 55.3013V55.5854H47.217V57.6066H47.5047V55.3013H45.8003Z" fill="black"/>
</g>
<path d="M43.6771 59.6971H41.9727V62.0024H43.6771V59.6971Z" fill="#455A64"/>
<g opacity="0.3">
<path d="M41.9727 59.6971V59.983H43.3894V62.0042H43.6771V59.6971H41.9727Z" fill="black"/>
</g>
<path d="M43.7754 62.0042H41.9727V62.4722H43.7754V62.0042Z" fill="white"/>
<path d="M43.7754 59.2145H41.9727V59.6825H43.7754V59.2145Z" fill="white"/>
<path d="M47.603 62.0042H45.8003V62.4722H47.603V62.0042Z" fill="white"/>
<path d="M47.603 59.2145H45.8003V59.6825H47.603V59.2145Z" fill="white"/>
<path d="M47.5047 59.6971H45.8003V62.0024H47.5047V59.6971Z" fill="#455A64"/>
<g opacity="0.3">
<path d="M45.8003 59.6971V59.983H47.217V62.0042H47.5047V59.6971H45.8003Z" fill="black"/>
</g>
<path d="M39.6401 46.5208H39.0428V48.8261H39.6401V46.5208Z" fill="#263238"/>
<path d="M39.7256 48.826H38.6349V49.1738H39.7256V48.826Z" fill="white"/>
<path d="M38.0431 46.5208H37.4458V48.8261H38.0431V46.5208Z" fill="#263238"/>
<path d="M38.1268 48.826H37.0361V49.1738H38.1268V48.826Z" fill="white"/>
<path d="M39.6401 50.9129H39.0428V53.2182H39.6401V50.9129Z" fill="#263238"/>
<path d="M39.7256 53.2182H38.6349V53.566H39.7256V53.2182Z" fill="white"/>
<path d="M38.0431 50.9129H37.4458V53.2182H38.0431V50.9129Z" fill="#263238"/>
<path d="M38.1268 53.2182H37.0361V53.566H38.1268V53.2182Z" fill="white"/>
<path d="M39.6401 55.305H39.0428V57.6103H39.6401V55.305Z" fill="#263238"/>
<path d="M39.7256 57.6121H38.6349V57.9599H39.7256V57.6121Z" fill="white"/>
<path d="M38.0431 55.305H37.4458V57.6103H38.0431V55.305Z" fill="#263238"/>
<path d="M38.1268 57.6121H37.0361V57.9599H38.1268V57.6121Z" fill="white"/>
<path d="M43.6771 63.3718H41.9727V67.01H43.6771V63.3718Z" fill="#455A64"/>
<g opacity="0.3">
<path d="M41.9727 63.3718V63.6449H43.3894V67.01H43.6771V63.3718H41.9727Z" fill="black"/>
</g>
<path d="M47.5539 63.3718H45.8495V67.01H47.5539V63.3718Z" fill="#455A64"/>
<g opacity="0.3">
<path d="M45.8495 63.3718V63.6449H47.2662V67.01H47.5539V63.3718H45.8495Z" fill="black"/>
</g>
<path d="M39.6401 59.6989H39.0428V62.0042H39.6401V59.6989Z" fill="#263238"/>
<path d="M39.7256 62.0042H38.6349V62.352H39.7256V62.0042Z" fill="white"/>
<path d="M38.0431 59.6989H37.4458V62.0042H38.0431V59.6989Z" fill="#263238"/>
<path d="M38.1268 62.0042H37.0361V62.352H38.1268V62.0042Z" fill="white"/>
<path d="M39.6401 63.5575H39.0428V65.8628H39.6401V63.5575Z" fill="#263238"/>
<path d="M39.7256 65.8646H38.6349V66.2124H39.7256V65.8646Z" fill="white"/>
<path d="M38.0431 63.5575H37.4458V65.8628H38.0431V63.5575Z" fill="#263238"/>
<path d="M38.1268 65.8646H37.0361V66.2124H38.1268V65.8646Z" fill="white"/>
<g opacity="0.3">
<path d="M36.3969 67.0096H40.749V44.4008H36.3969V67.0096Z" fill="black"/>
</g>
<path d="M102.932 57.5739H84.9414V67.0902H102.932V57.5739Z" fill="#FF725E"/>
<path d="M103.313 57.5739H84.7138V58.4625H103.313V57.5739Z" fill="#E0E0E0"/>
<path d="M88.1026 59.9011H87.3505V65.3329H88.1026V59.9011Z" fill="#455A64"/>
<path d="M86.6531 59.9011H85.9011V65.3329H86.6531V59.9011Z" fill="#455A64"/>
<path d="M102.932 65.3165H84.9414V67.0901H102.932V65.3165Z" fill="#E0E0E0"/>
<path d="M92.6731 63.2134H90.8813V67.0902H92.6731V63.2134Z" fill="#455A64"/>
<path d="M91.9447 60.1706H90.8813V61.5381H91.9447V60.1706Z" fill="#455A64"/>
<g opacity="0.3">
<path d="M90.8813 60.1706V60.3399H91.7645V61.5399H91.9447V60.1706H90.8813Z" fill="black"/>
</g>
<path d="M94.9985 60.1706H93.9351V61.5381H94.9985V60.1706Z" fill="#455A64"/>
<g opacity="0.3">
<path d="M93.9351 60.1706V60.3399H94.8182V61.5399H94.9985V60.1706H93.9351Z" fill="black"/>
</g>
<path d="M98.2671 60.1706H97.2036V61.5381H98.2671V60.1706Z" fill="#455A64"/>
<g opacity="0.3">
<path d="M97.2036 60.1706V60.3399H98.0868V61.5399H98.2671V60.1706H97.2036Z" fill="black"/>
</g>
<path d="M101.536 60.1706H100.472V61.5381H101.536V60.1706Z" fill="#455A64"/>
<g opacity="0.3">
<path d="M100.472 60.1706V60.3399H101.355V61.5399H101.536V60.1706H100.472Z" fill="black"/>
</g>
<path d="M94.9985 62.6161H93.9351V63.9836H94.9985V62.6161Z" fill="#455A64"/>
<g opacity="0.3">
<path d="M93.9351 62.6161V62.7873H94.8182V63.9854H94.9985V62.6161H93.9351Z" fill="black"/>
</g>
<path d="M98.2671 62.6161H97.2036V63.9836H98.2671V62.6161Z" fill="#455A64"/>
<g opacity="0.3">
<path d="M97.2036 62.6161V62.7873H98.0868V63.9854H98.2671V62.6161H97.2036Z" fill="black"/>
</g>
<path d="M101.536 62.6161H100.472V63.9836H101.536V62.6161Z" fill="#455A64"/>
<g opacity="0.3">
<path d="M100.472 62.6161V62.7873H101.355V63.9854H101.536V62.6161H100.472Z" fill="black"/>
</g>
<g opacity="0.3">
<path d="M89.7378 58.4625H84.9414V67.0901H89.7378V58.4625Z" fill="black"/>
</g>
<path d="M84.9068 38.9038H64.0662V67.0483H84.9068V38.9038Z" fill="#FF725E"/>
<path d="M70.1754 40.9105H68.644V43.1102H70.1754V40.9105Z" fill="#455A64"/>
<g opacity="0.3">
<path d="M68.644 40.9105V41.1818H69.9168V43.1083H70.1754V40.9105H68.644Z" fill="black"/>
</g>
<path d="M72.9869 40.9105H71.4555V43.1102H72.9869V40.9105Z" fill="#455A64"/>
<g opacity="0.3">
<path d="M71.4555 40.9105V41.1818H72.7284V43.1083H72.9851V40.9105H71.4555Z" fill="black"/>
</g>
<path d="M75.7985 40.9105H74.2671V43.1102H75.7985V40.9105Z" fill="#455A64"/>
<g opacity="0.3">
<path d="M74.2671 40.9105V41.1818H75.5381V43.1083H75.7967V40.9105H74.2671Z" fill="black"/>
</g>
<path d="M78.6082 40.9105H77.0768V43.1102H78.6082V40.9105Z" fill="#455A64"/>
<g opacity="0.3">
<path d="M77.0768 40.9105V41.1818H78.3496V43.1083H78.6082V40.9105H77.0768Z" fill="black"/>
</g>
<path d="M81.4197 40.9105H79.8883V43.1102H81.4197V40.9105Z" fill="#455A64"/>
<g opacity="0.3">
<path d="M79.8883 40.9105V41.1818H81.1611V43.1083H81.4197V40.9105H79.8883Z" fill="black"/>
</g>
<path d="M84.2313 40.9105H82.6999V43.1102H84.2313V40.9105Z" fill="#455A64"/>
<g opacity="0.3">
<path d="M82.6999 40.9105V41.1818H83.9709V43.1083H84.2294V40.9105H82.6999Z" fill="black"/>
</g>
<path d="M70.3084 46.2531H68.7769V48.4528H70.3084V46.2531Z" fill="#455A64"/>
<g opacity="0.3">
<path d="M68.7769 46.2531V46.5263H70.0498V48.4528H70.3084V46.2531H68.7769Z" fill="black"/>
</g>
<path d="M73.1199 46.2531H71.5885V48.4528H73.1199V46.2531Z" fill="#455A64"/>
<g opacity="0.3">
<path d="M71.5885 46.2531V46.5263H72.8613V48.4528H73.1199V46.2531H71.5885Z" fill="black"/>
</g>
<path d="M75.9314 46.2531H74.4V48.4528H75.9314V46.2531Z" fill="#455A64"/>
<g opacity="0.3">
<path d="M74.4 46.2531V46.5263H75.6728V48.4528H75.9296V46.2531H74.4Z" fill="black"/>
</g>
<path d="M78.7411 46.2531H77.2097V48.4528H78.7411V46.2531Z" fill="#455A64"/>
<g opacity="0.3">
<path d="M77.2097 46.2531V46.5263H78.4826V48.4528H78.7411V46.2531H77.2097Z" fill="black"/>
</g>
<path d="M81.5526 46.2531H80.0212V48.4528H81.5526V46.2531Z" fill="#455A64"/>
<g opacity="0.3">
<path d="M80.0212 46.2531V46.5263H81.2941V48.4528H81.5526V46.2531H80.0212Z" fill="black"/>
</g>
<path d="M84.3642 46.2531H82.8328V48.4528H84.3642V46.2531Z" fill="#455A64"/>
<g opacity="0.3">
<path d="M82.8328 46.2531V46.5263H84.1056V48.4528H84.3624V46.2531H82.8328Z" fill="black"/>
</g>
<path d="M70.1463 51.5812H68.6149V53.7809H70.1463V51.5812Z" fill="#455A64"/>
<g opacity="0.3">
<path d="M68.6149 51.5812V51.8543H69.8877V53.7791H70.1463V51.5812H68.6149Z" fill="black"/>
</g>
<path d="M72.9578 51.5812H71.4264V53.7809H72.9578V51.5812Z" fill="#455A64"/>
<g opacity="0.3">
<path d="M71.4264 51.5812V51.8543H72.6974V53.7791H72.956V51.5812H71.4264Z" fill="black"/>
</g>
<path d="M75.7675 51.5812H74.2361V53.7809H75.7675V51.5812Z" fill="#455A64"/>
<g opacity="0.3">
<path d="M74.2361 51.5812V51.8543H75.509V53.7791H75.7675V51.5812H74.2361Z" fill="black"/>
</g>
<path d="M78.579 51.5812H77.0476V53.7809H78.579V51.5812Z" fill="#455A64"/>
<g opacity="0.3">
<path d="M77.0476 51.5812V51.8543H78.3205V53.7791H78.579V51.5812H77.0476Z" fill="black"/>
</g>
<path d="M81.3906 51.5812H79.8592V53.7809H81.3906V51.5812Z" fill="#455A64"/>
<g opacity="0.3">
<path d="M79.8592 51.5812V51.8543H81.1302V53.7791H81.3888V51.5812H79.8592Z" fill="black"/>
</g>
<path d="M84.2003 51.5812H82.6689V53.7809H84.2003V51.5812Z" fill="#455A64"/>
<g opacity="0.3">
<path d="M82.6689 51.5812V51.8543H83.9417V53.7791H84.2003V51.5812H82.6689Z" fill="black"/>
</g>
<path d="M70.2228 56.8929H68.6913V59.0926H70.2228V56.8929Z" fill="#455A64"/>
<g opacity="0.3">
<path d="M68.6913 56.8929V57.166H69.9624V59.0908H70.2209V56.8929H68.6913Z" fill="black"/>
</g>
<path d="M73.0325 56.8929H71.5011V59.0926H73.0325V56.8929Z" fill="#455A64"/>
<g opacity="0.3">
<path d="M71.5011 56.8929V57.166H72.7739V59.0908H73.0325V56.8929H71.5011Z" fill="black"/>
</g>
<path d="M75.844 56.8929H74.3126V59.0926H75.844V56.8929Z" fill="#455A64"/>
<g opacity="0.3">
<path d="M74.3126 56.8929V57.166H75.5854V59.0908H75.8422V56.8929H74.3126Z" fill="black"/>
</g>
<path d="M73.6753 62.9985H69.1466V67.0482H73.6753V62.9985Z" fill="#455A64"/>
<g opacity="0.3">
<path d="M69.1466 62.9985V63.5011H73.2V67.0482H73.6753V62.9985H69.1466Z" fill="black"/>
</g>
<path d="M77.461 62.9985H74.6422V67.0482H77.461V62.9985Z" fill="#455A64"/>
<g opacity="0.3">
<path d="M74.6422 62.9985V63.5011H76.9857V67.0482H77.461V62.9985H74.6422Z" fill="black"/>
</g>
<path d="M84.0364 62.9985H81.2176V67.0482H84.0364V62.9985Z" fill="#455A64"/>
<g opacity="0.3">
<path d="M81.2176 62.9985V63.5011H83.5611V67.0482H84.0364V62.9985H81.2176Z" fill="black"/>
</g>
<path d="M78.6556 56.8929H77.1241V59.0926H78.6556V56.8929Z" fill="#455A64"/>
<g opacity="0.3">
<path d="M77.1241 56.8929V57.166H78.3952V59.0908H78.6537V56.8929H77.1241Z" fill="black"/>
</g>
<path d="M81.4652 56.8929H79.9338V59.0926H81.4652V56.8929Z" fill="#455A64"/>
<g opacity="0.3">
<path d="M79.9338 56.8929V57.166H81.2067V59.0908H81.4652V56.8929H79.9338Z" fill="black"/>
</g>
<path d="M84.2768 56.8929H82.7454V59.0926H84.2768V56.8929Z" fill="#455A64"/>
<g opacity="0.3">
<path d="M82.7454 56.8929V57.166H84.0182V59.0908H84.2768V56.8929H82.7454Z" fill="black"/>
</g>
<path d="M84.9068 38.4304H64.0662V39.3754H84.9068V38.4304Z" fill="#FFBF9D"/>
<path d="M84.9068 44.0024H64.0662V44.9475H84.9068V44.0024Z" fill="#FFBF9D"/>
<path d="M84.9068 49.3305H64.0662V50.2756H84.9068V49.3305Z" fill="#FFBF9D"/>
<path d="M84.9068 54.6567H64.0662V55.6018H84.9068V54.6567Z" fill="#FFBF9D"/>
<path d="M84.9068 60.0905H64.0662V61.0355H84.9068V60.0905Z" fill="#FF725E"/>
<path d="M65.5174 40.7375H64.9602V43.0209H65.5174V40.7375Z" fill="#263238"/>
<path d="M67.1527 40.7375H66.5955V43.0209H67.1527V40.7375Z" fill="#263238"/>
<path d="M65.5484 45.8252H64.9912V48.1087H65.5484V45.8252Z" fill="#263238"/>
<path d="M67.2073 45.8252H66.6501V48.1087H67.2073V45.8252Z" fill="#263238"/>
<path d="M65.5375 51.1514H64.9803V53.4349H65.5375V51.1514Z" fill="#263238"/>
<path d="M67.1945 51.1514H66.6373V53.4349H67.1945V51.1514Z" fill="#263238"/>
<path d="M65.461 56.5323H64.9038V58.8158H65.461V56.5323Z" fill="#263238"/>
<path d="M66.9924 56.5323H66.4352V58.8158H66.9924V56.5323Z" fill="#263238"/>
<path d="M65.461 63.0112H64.9038V67.0501H65.461V63.0112Z" fill="#263238"/>
<path d="M66.9924 63.0112H66.4352V67.0501H66.9924V63.0112Z" fill="#263238"/>
<path d="M84.9068 60.3818H64.0662V61.3268H84.9068V60.3818Z" fill="#FFBF9D"/>
<g opacity="0.3">
<path d="M67.7135 38.4304H64.0662V67.0483H67.7135V38.4304Z" fill="black"/>
</g>
<g opacity="0.3">
<path d="M84.9068 55.6018H67.7135V56.0006H84.9068V55.6018Z" fill="black"/>
</g>
<g opacity="0.3">
<path d="M84.9068 61.3396H67.7135V61.7384H84.9068V61.3396Z" fill="black"/>
</g>
<g opacity="0.3">
<path d="M84.9068 50.3248H67.7135V50.7236H84.9068V50.3248Z" fill="black"/>
</g>
<g opacity="0.3">
<path d="M84.9068 44.9475H67.7135V45.3463H84.9068V44.9475Z" fill="black"/>
</g>
<g opacity="0.3">
<path d="M84.9068 39.3754H67.7135V39.7742H84.9068V39.3754Z" fill="black"/>
</g>
<g opacity="0.3">
<path d="M80.5074 63.2334H78.3897V67.0501H80.5074V63.2334Z" fill="black"/>
</g>
<path d="M73.5533 36.2106H69.3797V38.4304H73.5533V36.2106Z" fill="#FFBF9D"/>
<g opacity="0.3">
<path d="M70.7035 36.2106H69.3797V38.4304H70.7035V36.2106Z" fill="black"/>
</g>
<path d="M70.2373 59.0525C70.2373 59.078 69.8877 59.0999 69.4561 59.0999C69.0246 59.0999 68.675 59.078 68.675 59.0525C68.675 59.027 69.0246 59.0052 69.4561 59.0052C69.8877 59.0052 70.2373 59.0252 70.2373 59.0525Z" fill="white"/>
<path d="M73.0179 59.0525C73.0179 59.078 72.6683 59.0999 72.2367 59.0999C71.8052 59.0999 71.4555 59.078 71.4555 59.0525C71.4555 59.027 71.8052 59.0052 72.2367 59.0052C72.6683 59.0052 73.0179 59.0252 73.0179 59.0525Z" fill="white"/>
<path d="M75.8003 59.0525C75.8003 59.078 75.4507 59.0999 75.0191 59.0999C74.5876 59.0999 74.2379 59.078 74.2379 59.0525C74.2379 59.027 74.5876 59.0052 75.0191 59.0052C75.4507 59.0052 75.8003 59.0252 75.8003 59.0525Z" fill="white"/>
<path d="M78.6701 59.0525C78.6701 59.078 78.3205 59.0999 77.8889 59.0999C77.4574 59.0999 77.1078 59.078 77.1078 59.0525C77.1078 59.027 77.4574 59.0052 77.8889 59.0052C78.3205 59.0052 78.6701 59.0252 78.6701 59.0525Z" fill="white"/>
<path d="M81.4926 59.0525C81.4926 59.078 81.1429 59.0999 80.7114 59.0999C80.2798 59.0999 79.9302 59.078 79.9302 59.0525C79.9302 59.027 80.2798 59.0052 80.7114 59.0052C81.1429 59.0052 81.4926 59.0252 81.4926 59.0525Z" fill="white"/>
<path d="M84.3169 59.0525C84.3169 59.078 83.9672 59.0999 83.5357 59.0999C83.1041 59.0999 82.7545 59.078 82.7545 59.0525C82.7545 59.027 83.1041 59.0052 83.5357 59.0052C83.9672 59.0052 84.3169 59.0252 84.3169 59.0525Z" fill="white"/>
<path d="M70.2373 53.7445C70.2373 53.77 69.8877 53.7918 69.4561 53.7918C69.0246 53.7918 68.675 53.77 68.675 53.7445C68.675 53.719 69.0246 53.6971 69.4561 53.6971C69.8877 53.6971 70.2373 53.719 70.2373 53.7445Z" fill="white"/>
<path d="M73.0179 53.7445C73.0179 53.77 72.6683 53.7918 72.2367 53.7918C71.8052 53.7918 71.4555 53.77 71.4555 53.7445C71.4555 53.719 71.8052 53.6971 72.2367 53.6971C72.6683 53.6971 73.0179 53.719 73.0179 53.7445Z" fill="white"/>
<path d="M75.8003 53.7445C75.8003 53.77 75.4507 53.7918 75.0191 53.7918C74.5875 53.7918 74.2379 53.77 74.2379 53.7445C74.2379 53.719 74.5875 53.6971 75.0191 53.6971C75.4507 53.6971 75.8003 53.719 75.8003 53.7445Z" fill="white"/>
<path d="M78.6701 53.7445C78.6701 53.77 78.3205 53.7918 77.8889 53.7918C77.4573 53.7918 77.1077 53.77 77.1077 53.7445C77.1077 53.719 77.4573 53.6971 77.8889 53.6971C78.3205 53.6971 78.6701 53.719 78.6701 53.7445Z" fill="white"/>
<path d="M81.4926 53.7445C81.4926 53.77 81.1429 53.7918 80.7114 53.7918C80.2798 53.7918 79.9302 53.77 79.9302 53.7445C79.9302 53.719 80.2798 53.6971 80.7114 53.6971C81.1429 53.6971 81.4926 53.719 81.4926 53.7445Z" fill="white"/>
<path d="M84.3168 53.7445C84.3168 53.77 83.9672 53.7918 83.5356 53.7918C83.1041 53.7918 82.7545 53.77 82.7545 53.7445C82.7545 53.719 83.1041 53.6971 83.5356 53.6971C83.9672 53.6971 84.3168 53.719 84.3168 53.7445Z" fill="white"/>
<path d="M70.2373 48.4528C70.2373 48.4783 69.8877 48.5001 69.4561 48.5001C69.0246 48.5001 68.675 48.4783 68.675 48.4528C68.675 48.4273 69.0246 48.4055 69.4561 48.4055C69.8877 48.4055 70.2373 48.4255 70.2373 48.4528Z" fill="white"/>
<path d="M73.0179 48.4528C73.0179 48.4783 72.6683 48.5001 72.2367 48.5001C71.8052 48.5001 71.4555 48.4783 71.4555 48.4528C71.4555 48.4273 71.8052 48.4055 72.2367 48.4055C72.6683 48.4055 73.0179 48.4255 73.0179 48.4528Z" fill="white"/>
<path d="M75.8003 48.4528C75.8003 48.4783 75.4507 48.5001 75.0191 48.5001C74.5875 48.5001 74.2379 48.4783 74.2379 48.4528C74.2379 48.4273 74.5875 48.4055 75.0191 48.4055C75.4507 48.4055 75.8003 48.4255 75.8003 48.4528Z" fill="white"/>
<path d="M78.6701 48.4528C78.6701 48.4783 78.3205 48.5001 77.8889 48.5001C77.4573 48.5001 77.1077 48.4783 77.1077 48.4528C77.1077 48.4273 77.4573 48.4055 77.8889 48.4055C78.3205 48.4055 78.6701 48.4255 78.6701 48.4528Z" fill="white"/>
<path d="M81.4926 48.4528C81.4926 48.4783 81.1429 48.5001 80.7114 48.5001C80.2798 48.5001 79.9302 48.4783 79.9302 48.4528C79.9302 48.4273 80.2798 48.4055 80.7114 48.4055C81.1429 48.4055 81.4926 48.4255 81.4926 48.4528Z" fill="white"/>
<path d="M84.3168 48.4528C84.3168 48.4783 83.9672 48.5001 83.5356 48.5001C83.1041 48.5001 82.7545 48.4783 82.7545 48.4528C82.7545 48.4273 83.1041 48.4055 83.5356 48.4055C83.9672 48.4055 84.3168 48.4255 84.3168 48.4528Z" fill="white"/>
<path d="M70.2373 43.1084C70.2373 43.1339 69.8877 43.1557 69.4561 43.1557C69.0246 43.1557 68.675 43.1339 68.675 43.1084C68.675 43.0829 69.0246 43.061 69.4561 43.061C69.8877 43.061 70.2373 43.0829 70.2373 43.1084Z" fill="white"/>
<path d="M73.0179 43.1084C73.0179 43.1339 72.6683 43.1557 72.2367 43.1557C71.8052 43.1557 71.4555 43.1339 71.4555 43.1084C71.4555 43.0829 71.8052 43.061 72.2367 43.061C72.6683 43.061 73.0179 43.0829 73.0179 43.1084Z" fill="white"/>
<path d="M75.8003 43.1084C75.8003 43.1339 75.4507 43.1557 75.0191 43.1557C74.5875 43.1557 74.2379 43.1339 74.2379 43.1084C74.2379 43.0829 74.5875 43.061 75.0191 43.061C75.4507 43.061 75.8003 43.0829 75.8003 43.1084Z" fill="white"/>
<path d="M78.6701 43.1084C78.6701 43.1339 78.3205 43.1557 77.8889 43.1557C77.4573 43.1557 77.1077 43.1339 77.1077 43.1084C77.1077 43.0829 77.4573 43.061 77.8889 43.061C78.3205 43.061 78.6701 43.0829 78.6701 43.1084Z" fill="white"/>
<path d="M81.4926 43.1084C81.4926 43.1339 81.1429 43.1557 80.7114 43.1557C80.2798 43.1557 79.9302 43.1339 79.9302 43.1084C79.9302 43.0829 80.2798 43.061 80.7114 43.061C81.1429 43.061 81.4926 43.0829 81.4926 43.1084Z" fill="white"/>
<path d="M84.3168 43.1084C84.3168 43.1339 83.9672 43.1557 83.5356 43.1557C83.1041 43.1557 82.7545 43.1339 82.7545 43.1084C82.7545 43.0829 83.1041 43.061 83.5356 43.061C83.9672 43.061 84.3168 43.0829 84.3168 43.1084Z" fill="white"/>
<path d="M64.0407 47.8829H50.1979V67.0264H64.0407V47.8829Z" fill="#FF9A6C"/>
<path d="M57.58 60.2889H55.9903V62.5724H57.58V60.2889Z" fill="#455A64"/>
<g opacity="0.3">
<path d="M55.9903 60.2889V60.5712H57.3123V62.5724H57.58V60.2889H55.9903Z" fill="black"/>
</g>
<path d="M58.0443 62.5724H55.9903V62.8419H58.0443V62.5724Z" fill="white"/>
<path d="M57.58 63.8926H55.9903V66.176H57.58V63.8926Z" fill="#455A64"/>
<g opacity="0.3">
<path d="M55.9903 63.8926V64.1766H57.3123V66.176H57.58V63.8926H55.9903Z" fill="black"/>
</g>
<path d="M58.0443 66.176H55.9903V66.4455H58.0443V66.176Z" fill="white"/>
<path d="M57.5508 57.095H55.9612V59.3784H57.5508V57.095Z" fill="#455A64"/>
<g opacity="0.3">
<path d="M55.9612 57.095V57.3772H57.2813V59.3784H57.5508V57.095H55.9612Z" fill="black"/>
</g>
<path d="M58.0152 59.3784H55.9612V59.6479H58.0152V59.3784Z" fill="white"/>
<path d="M57.5199 53.9011H55.9302V56.1845H57.5199V53.9011Z" fill="#455A64"/>
<g opacity="0.3">
<path d="M55.9302 53.9011V54.1833H57.2522V56.1845H57.5199V53.9011H55.9302Z" fill="black"/>
</g>
<path d="M57.9842 56.1845H55.9302V56.454H57.9842V56.1845Z" fill="white"/>
<path d="M57.4907 50.7072H55.9011V52.9906H57.4907V50.7072Z" fill="#455A64"/>
<g opacity="0.3">
<path d="M55.9011 50.7072V50.9894H57.2212V52.9906H57.4907V50.7072H55.9011Z" fill="black"/>
</g>
<path d="M57.9551 52.9906H55.9011V53.2601H57.9551V52.9906Z" fill="white"/>
<path d="M61.6862 60.2889H60.0965V62.5724H61.6862V60.2889Z" fill="#455A64"/>
<g opacity="0.3">
<path d="M60.0965 60.2889V60.5712H61.4185V62.5724H61.6862V60.2889H60.0965Z" fill="black"/>
</g>
<path d="M62.1505 62.5724H60.0965V62.8419H62.1505V62.5724Z" fill="white"/>
<path d="M61.6571 57.095H60.0674V59.3784H61.6571V57.095Z" fill="#455A64"/>
<g opacity="0.3">
<path d="M60.0674 57.095V57.3772H61.3876V59.3784H61.6571V57.095H60.0674Z" fill="black"/>
</g>
<path d="M62.1214 59.3784H60.0674V59.6479H62.1214V59.3784Z" fill="white"/>
<path d="M61.6261 53.9011H60.0364V56.1845H61.6261V53.9011Z" fill="#455A64"/>
<g opacity="0.3">
<path d="M60.0364 53.9011V54.1833H61.3584V56.1845H61.6261V53.9011H60.0364Z" fill="black"/>
</g>
<path d="M62.0905 56.1845H60.0364V56.454H62.0905V56.1845Z" fill="white"/>
<path d="M61.597 50.7072H60.0073V52.9906H61.597V50.7072Z" fill="#455A64"/>
<g opacity="0.3">
<path d="M60.0073 50.7072V50.9894H61.3293V52.9906H61.597V50.7072H60.0073Z" fill="black"/>
</g>
<path d="M62.0613 52.9906H60.0073V53.2601H62.0613V52.9906Z" fill="white"/>
<path d="M51.9242 50.5323H51.3669V52.8157H51.9242V50.5323Z" fill="#263238"/>
<path d="M52.0024 52.8157H50.9864V53.1599H52.0024V52.8157Z" fill="white"/>
<path d="M51.9242 54.0358H51.3669V56.3193H51.9242V54.0358Z" fill="#263238"/>
<path d="M52.0024 56.3193H50.9864V56.6634H52.0024V56.3193Z" fill="white"/>
<path d="M51.9242 57.5393H51.3669V59.8228H51.9242V57.5393Z" fill="#263238"/>
<path d="M52.0024 59.8228H50.9864V60.1669H52.0024V59.8228Z" fill="white"/>
<path d="M51.9242 61.0428H51.3669V63.3262H51.9242V61.0428Z" fill="#263238"/>
<path d="M52.0024 63.3262H50.9864V63.6704H52.0024V63.3262Z" fill="white"/>
<path d="M51.9242 64.2185H51.3669V66.502H51.9242V64.2185Z" fill="#263238"/>
<path d="M52.0024 66.502H50.9864V66.8461H52.0024V66.502Z" fill="white"/>
<path d="M64.4067 46.9214H49.9411V47.8828H64.4067V46.9214Z" fill="#EBEBEB"/>
<path d="M64.0298 48.2907H50.1779V48.5748H64.0298V48.2907Z" fill="#E0E0E0"/>
<path d="M62.1323 63.4992H59.9363V67.0264H62.1323V63.4992Z" fill="#E0E0E0"/>
<path d="M61.9411 63.6704H60.1147V67.0483H61.9411V63.6704Z" fill="#263238"/>
<g opacity="0.3">
<path d="M53.5156 47.8829H50.1979V67.0483H53.5156V47.8829Z" fill="black"/>
</g>
<g opacity="0.3">
<path d="M52.5742 46.9214H49.9411V47.8828H52.5742V46.9214Z" fill="black"/>
</g>
<path d="M35.9545 40.834H15.234V67.0482H35.9545V40.834Z" fill="#FFBF9D"/>
<path d="M36.2203 40.3896H14.9171V41.2764H36.2203V40.3896Z" fill="#FF9A6C"/>
<path d="M35.9545 42.7914H15.234V43.5216H35.9545V42.7914Z" fill="#FF9A6C"/>
<path d="M35.9545 41.8519H15.234V42.2179H35.9545V41.8519Z" fill="#FF9A6C"/>
<path d="M34.2355 43.4088H29.4319V62.2664H34.2355V43.4088Z" fill="#FF9A6C"/>
<path d="M24.4661 43.4088H19.6625V62.2664H24.4661V43.4088Z" fill="#FF9A6C"/>
<path d="M36.2185 62.2664H15.234V62.9966H36.2185V62.2664Z" fill="#FF9A6C"/>
<path d="M28.4904 63.3626H24.8358V67.0172H28.4904V63.3626Z" fill="#FF9A6C"/>
<path d="M31.5715 63.6249H29.9818V65.9083H31.5715V63.6249Z" fill="#455A64"/>
<g opacity="0.3">
<path d="M29.9818 63.6249V63.9089H31.3038V65.9102H31.5715V63.6249H29.9818Z" fill="black"/>
</g>
<path d="M32.0358 65.9102H29.9818V66.1797H32.0358V65.9102Z" fill="white"/>
<path d="M35.1423 63.6249H33.5526V65.9083H35.1423V63.6249Z" fill="#455A64"/>
<g opacity="0.3">
<path d="M33.5526 63.6249V63.9089H34.8728V65.9102H35.1423V63.6249H33.5526Z" fill="black"/>
</g>
<path d="M35.6067 65.9102H33.5526V66.1797H35.6067V65.9102Z" fill="white"/>
<path d="M17.9727 63.6249H16.383V65.9083H17.9727V63.6249Z" fill="#455A64"/>
<g opacity="0.3">
<path d="M16.383 63.6249V63.9089H17.705V65.9102H17.9727V63.6249H16.383Z" fill="black"/>
</g>
<path d="M18.437 65.9102H16.383V66.1797H18.437V65.9102Z" fill="white"/>
<path d="M22.8929 63.8106H21.3032V66.0941H22.8929V63.8106Z" fill="#455A64"/>
<g opacity="0.3">
<path d="M21.3032 63.8106V64.0947H22.6252V66.0941H22.8929V63.8106H21.3032Z" fill="black"/>
</g>
<path d="M23.3572 66.0941H21.3032V66.3636H23.3572V66.0941Z" fill="white"/>
<path d="M27.7439 58.7083H26.1542V60.9918H27.7439V58.7083Z" fill="#455A64"/>
<g opacity="0.3">
<path d="M26.1542 58.7083V58.9906H27.4762V60.9918H27.7439V58.7083H26.1542Z" fill="black"/>
</g>
<path d="M27.7439 54.1815H26.1542V56.4649H27.7439V54.1815Z" fill="#455A64"/>
<g opacity="0.3">
<path d="M26.1542 54.1815V54.4637H27.4762V56.4649H27.7439V54.1815H26.1542Z" fill="black"/>
</g>
<path d="M27.7439 49.6546H26.1542V51.9381H27.7439V49.6546Z" fill="#455A64"/>
<g opacity="0.3">
<path d="M26.1542 49.6546V49.9387H27.4762V51.9381H27.7439V49.6546H26.1542Z" fill="black"/>
</g>
<path d="M27.7439 45.1277H26.1542V47.4112H27.7439V45.1277Z" fill="#455A64"/>
<g opacity="0.3">
<path d="M27.7439 45.1277H26.1542V47.4112H27.7439V45.1277Z" fill="white"/>
</g>
<g opacity="0.3">
<path d="M26.1542 45.1277V45.4118H27.4762V47.4112H27.7439V45.1277H26.1542Z" fill="black"/>
</g>
<path d="M22.8601 58.7502H21.2704V61.0336H22.8601V58.7502Z" fill="#455A64"/>
<g opacity="0.3">
<path d="M21.2704 58.7502V59.0342H22.5906V61.0336H22.8601V58.7502H21.2704Z" fill="black"/>
</g>
<path d="M22.8601 54.2252H21.2704V56.5086H22.8601V54.2252Z" fill="#455A64"/>
<g opacity="0.3">
<path d="M21.2704 54.2252V54.5074H22.5906V56.5086H22.8601V54.2252H21.2704Z" fill="black"/>
</g>
<path d="M22.8601 49.6983H21.2704V51.9818H22.8601V49.6983Z" fill="#455A64"/>
<g opacity="0.3">
<path d="M22.8601 49.6983H21.2704V51.9818H22.8601V49.6983Z" fill="white"/>
</g>
<g opacity="0.3">
<path d="M21.2704 49.6983V49.9806H22.5906V51.9818H22.8601V49.6983H21.2704Z" fill="black"/>
</g>
<path d="M22.8601 45.1714H21.2704V47.4549H22.8601V45.1714Z" fill="#455A64"/>
<g opacity="0.3">
<path d="M22.8601 45.1714H21.2704V47.4549H22.8601V45.1714Z" fill="white"/>
</g>
<g opacity="0.3">
<path d="M21.2704 45.1714V45.4537H22.5906V47.4549H22.8601V45.1714H21.2704Z" fill="black"/>
</g>
<path d="M32.8297 58.7484H31.2401V61.0318H32.8297V58.7484Z" fill="#455A64"/>
<g opacity="0.3">
<path d="M31.2401 58.7484V59.0324H32.5621V61.0336H32.8297V58.7484H31.2401Z" fill="black"/>
</g>
<path d="M32.8297 54.2233H31.2401V56.5068H32.8297V54.2233Z" fill="#455A64"/>
<g opacity="0.3">
<path d="M31.2401 54.2233V54.5056H32.5621V56.5068H32.8297V54.2233H31.2401Z" fill="black"/>
</g>
<path d="M32.8297 49.6965H31.2401V51.9799H32.8297V49.6965Z" fill="#455A64"/>
<g opacity="0.3">
<path d="M32.8297 49.6965H31.2401V51.9799H32.8297V49.6965Z" fill="white"/>
</g>
<g opacity="0.3">
<path d="M31.2401 49.6965V49.9787H32.5621V51.9799H32.8297V49.6965H31.2401Z" fill="black"/>
</g>
<path d="M32.8297 45.1696H31.2401V47.4531H32.8297V45.1696Z" fill="#455A64"/>
<g opacity="0.3">
<path d="M32.8297 45.1696H31.2401V47.4531H32.8297V45.1696Z" fill="white"/>
</g>
<g opacity="0.3">
<path d="M31.2401 45.1696V45.4519H32.5621V47.4531H32.8297V45.1696H31.2401Z" fill="black"/>
</g>
<path d="M17.0932 45.3044H16.5359V47.5878H17.0932V45.3044Z" fill="#263238"/>
<path d="M17.1696 47.5878H16.1536V47.932H17.1696V47.5878Z" fill="white"/>
<path d="M17.0932 49.6546H16.5359V51.9381H17.0932V49.6546Z" fill="#263238"/>
<path d="M17.1696 51.938H16.1536V52.2822H17.1696V51.938Z" fill="white"/>
<path d="M17.0932 54.0048H16.5359V56.2883H17.0932V54.0048Z" fill="#263238"/>
<path d="M17.1696 56.2901H16.1536V56.6343H17.1696V56.2901Z" fill="white"/>
<path d="M17.0932 58.3569H16.5359V60.6403H17.0932V58.3569Z" fill="#263238"/>
<path d="M17.1696 60.6403H16.1536V60.9845H17.1696V60.6403Z" fill="white"/>
<g opacity="0.3">
<path d="M19.0106 41.2783H15.234V67.0482H19.0106V41.2783Z" fill="black"/>
</g>
<path d="M28.1408 63.7195H25.2437V67.0173H28.1408V63.7195Z" fill="#263238"/>
<g opacity="0.3">
<path d="M18.3951 40.3896H14.9171V41.2764H18.3951V40.3896Z" fill="black"/>
</g>
<path d="M22.8146 47.5077C22.8146 47.5332 22.4649 47.5551 22.0334 47.5551C21.6018 47.5551 21.2522 47.5332 21.2522 47.5077C21.2522 47.4822 21.6018 47.4604 22.0334 47.4604C22.4649 47.4604 22.8146 47.4822 22.8146 47.5077Z" fill="white"/>
<path d="M27.773 47.4549C27.773 47.4804 27.4234 47.5022 26.9918 47.5022C26.5603 47.5022 26.2106 47.4804 26.2106 47.4549C26.2106 47.4294 26.5603 47.4075 26.9918 47.4075C27.4234 47.4075 27.773 47.4276 27.773 47.4549Z" fill="white"/>
<path d="M32.8607 47.495C32.8607 47.5205 32.5111 47.5423 32.0795 47.5423C31.648 47.5423 31.2983 47.5205 31.2983 47.495C31.2983 47.4695 31.648 47.4476 32.0795 47.4476C32.5111 47.4476 32.8607 47.4695 32.8607 47.495Z" fill="white"/>
<path d="M32.8607 52.0218C32.8607 52.0473 32.5111 52.0692 32.0795 52.0692C31.648 52.0692 31.2983 52.0473 31.2983 52.0218C31.2983 51.9963 31.648 51.9745 32.0795 51.9745C32.5111 51.9745 32.8607 51.9963 32.8607 52.0218Z" fill="white"/>
<path d="M27.6747 51.938C27.6747 51.9635 27.3251 51.9854 26.8935 51.9854C26.4619 51.9854 26.1123 51.9635 26.1123 51.938C26.1123 51.9125 26.4619 51.8907 26.8935 51.8907C27.3251 51.8907 27.6747 51.9125 27.6747 51.938Z" fill="white"/>
<path d="M27.6747 56.4613C27.6747 56.4868 27.3251 56.5086 26.8935 56.5086C26.4619 56.5086 26.1123 56.4868 26.1123 56.4613C26.1123 56.4358 26.4619 56.4139 26.8935 56.4139C27.3251 56.4139 27.6747 56.4358 27.6747 56.4613Z" fill="white"/>
<path d="M32.8826 56.5068C32.8826 56.5323 32.5329 56.5542 32.1014 56.5542C31.6698 56.5542 31.3202 56.5323 31.3202 56.5068C31.3202 56.4813 31.6698 56.4595 32.1014 56.4595C32.5329 56.4595 32.8826 56.4795 32.8826 56.5068Z" fill="white"/>
<path d="M22.7126 56.4595C22.7126 56.4849 22.363 56.5068 21.9314 56.5068C21.4999 56.5068 21.1502 56.4849 21.1502 56.4595C21.1502 56.434 21.4999 56.4121 21.9314 56.4121C22.363 56.4121 22.7126 56.4321 22.7126 56.4595Z" fill="white"/>
<path d="M22.8619 61.0337C22.8619 61.0592 22.5123 61.081 22.0807 61.081C21.6492 61.081 21.2995 61.0592 21.2995 61.0337C21.2995 61.0082 21.6492 60.9863 22.0807 60.9863C22.5123 60.9863 22.8619 61.0082 22.8619 61.0337Z" fill="white"/>
<path d="M27.6856 60.9845C27.6856 61.01 27.336 61.0318 26.9044 61.0318C26.4729 61.0318 26.1232 61.01 26.1232 60.9845C26.1232 60.959 26.4729 60.9371 26.9044 60.9371C27.336 60.9371 27.6856 60.9572 27.6856 60.9845Z" fill="white"/>
<path d="M32.797 61.0337C32.797 61.0592 32.4473 61.081 32.0158 61.081C31.5842 61.081 31.2346 61.0592 31.2346 61.0337C31.2346 61.0082 31.5842 60.9863 32.0158 60.9863C32.4473 60.9863 32.797 61.0082 32.797 61.0337Z" fill="white"/>
<path d="M22.8146 51.9817C22.8146 52.0072 22.4649 52.0291 22.0334 52.0291C21.6018 52.0291 21.2522 52.0072 21.2522 51.9817C21.2522 51.9562 21.6018 51.9344 22.0334 51.9344C22.4649 51.9344 22.8146 51.9544 22.8146 51.9817Z" fill="white"/>
<path d="M11.4082 64.0018C11.2953 63.5684 11.2298 63.1369 11.0331 62.7253C10.8091 62.2573 10.3357 61.9988 9.83857 61.9605V61.9532C9.81672 61.9532 9.79486 61.9569 9.77301 61.9569C9.75116 61.9569 9.72931 61.9532 9.70746 61.9532V61.9605C9.21034 61.9988 8.7369 62.2592 8.51292 62.7253C8.31626 63.1369 8.25071 63.5684 8.13781 64.0018C7.99577 64.5408 7.85374 65.0871 7.87013 65.637C7.8847 66.1432 8.04858 66.6695 8.47104 67.0318C8.80427 67.3159 9.285 67.3851 9.77301 67.376C10.3011 67.3651 10.7418 67.3159 11.075 67.0318C11.4974 66.6695 11.6613 66.1432 11.6759 65.637C11.6923 65.0871 11.5503 64.5426 11.4082 64.0018Z" fill="#455A64"/>
<path d="M51.6401 64.0018C51.5272 63.5684 51.4616 63.1369 51.2649 62.7253C51.041 62.2573 50.5675 61.9988 50.0704 61.9605V61.9532C50.0486 61.9532 50.0267 61.9569 50.0049 61.9569C49.983 61.9569 49.9612 61.9532 49.9393 61.9532V61.9605C49.4422 61.9988 48.9687 62.2592 48.7448 62.7253C48.5481 63.1369 48.4825 63.5684 48.3697 64.0018C48.2276 64.5408 48.0856 65.0871 48.102 65.637C48.1165 66.1432 48.2804 66.6695 48.7029 67.0318C49.0361 67.3159 49.5168 67.3851 50.0049 67.376C50.5329 67.3651 50.9736 67.3159 51.3068 67.0318C51.7293 66.6695 51.8932 66.1432 51.9077 65.637C51.9223 65.0871 51.7803 64.5426 51.6401 64.0018Z" fill="#455A64"/>
<path d="M14.7897 61.1593C14.329 61.2066 13.6334 64.6537 13.3493 66.1687C13.2674 66.6021 13.5333 67.0245 13.9557 67.1484C14.7915 67.396 15.438 67.3304 15.8823 67.1957C16.3157 67.0646 16.5779 66.6276 16.4759 66.1869C16.1317 64.7028 15.2522 61.1119 14.7897 61.1593Z" fill="#455A64"/>
<path d="M16.942 63.9818C16.6926 64.0072 16.3156 65.8737 16.1627 66.6931C16.119 66.928 16.2628 67.1557 16.4905 67.223C16.9439 67.356 17.2917 67.3214 17.5339 67.2485C17.7688 67.1775 17.9108 66.9408 17.8543 66.7022C17.6686 65.8992 17.1915 63.9563 16.942 63.9818Z" fill="#455A64"/>
<path d="M63.9405 61.0318C63.4798 61.0792 62.7842 64.5262 62.5002 66.0412C62.4182 66.4746 62.6841 66.8971 63.1065 67.0209C63.9423 67.2686 64.5888 67.203 65.0331 67.0683C65.4665 66.9371 65.7287 66.5001 65.6267 66.0595C65.2826 64.5754 64.4012 60.9845 63.9405 61.0318Z" fill="#455A64"/>
<path d="M65.9709 63.8342C65.7214 63.8597 65.3445 65.7262 65.1915 66.5456C65.1478 66.7805 65.2917 67.0081 65.5193 67.0755C65.9727 67.2084 66.3205 67.1738 66.5627 67.101C66.7976 67.03 66.9396 66.7933 66.8832 66.5547C66.6974 65.7517 66.2204 63.8087 65.9709 63.8342Z" fill="#455A64"/>
<path d="M85.6698 61.6801C85.2091 61.7238 84.5135 64.9396 84.2294 66.3526C84.1475 66.7569 84.4134 67.1502 84.8358 67.2668C85.6716 67.498 86.3181 67.4361 86.7624 67.3105C87.1958 67.1885 87.458 66.7806 87.356 66.369C87.0118 64.9833 86.1305 61.6364 85.6698 61.6801Z" fill="#455A64"/>
<path d="M100.986 63.867C100.736 63.8925 100.359 65.759 100.206 66.5784C100.163 66.8133 100.307 67.0409 100.534 67.1083C100.988 67.2412 101.335 67.2066 101.578 67.1338C101.812 67.0628 101.954 66.826 101.898 66.5875C101.712 65.7845 101.235 63.8415 100.986 63.867Z" fill="#455A64"/>
<path d="M102.982 61.0355C102.521 61.0828 101.825 64.5299 101.541 66.0449C101.459 66.4783 101.725 66.9007 102.148 67.0246C102.983 67.2722 103.63 67.2067 104.074 67.0719C104.507 66.9408 104.77 66.5038 104.668 66.0631C104.324 64.579 103.444 60.9882 102.982 61.0355Z" fill="#455A64"/>
<path d="M105.083 63.8561C104.833 63.8816 104.456 65.748 104.303 66.5675C104.26 66.8024 104.404 67.03 104.631 67.0974C105.085 67.2303 105.432 67.1957 105.675 67.1229C105.91 67.0518 106.052 66.8151 105.995 66.5766C105.808 65.7735 105.332 63.8306 105.083 63.8561Z" fill="#455A64"/>
<path d="M13.1435 64.4315C12.9323 64.4534 12.6137 66.0303 12.4844 66.7241C12.4479 66.9226 12.5681 67.1156 12.7611 67.172C13.1435 67.2849 13.4385 67.2558 13.6425 67.1939C13.841 67.1338 13.9611 66.9335 13.9138 66.7314C13.759 66.054 13.3548 64.4115 13.1435 64.4315Z" fill="#455A64"/>
<path d="M2.62216 63.9818C2.37269 64.0072 1.99576 65.8737 1.8428 66.6931C1.7991 66.928 1.94295 67.1557 2.17057 67.223C2.62398 67.356 2.97178 67.3214 3.21397 67.2485C3.44887 67.1775 3.5909 66.9408 3.53446 66.7022C3.34872 65.8992 2.87163 63.9563 2.62216 63.9818Z" fill="#455A64"/>
<path d="M24.0728 64.0109C23.827 64.0364 23.4574 65.8683 23.3062 66.6731C23.2625 66.9044 23.4046 67.1284 23.6285 67.1939C24.0728 67.325 24.417 67.2904 24.6537 67.2194C24.885 67.1502 25.0234 66.9171 24.9687 66.6822C24.7848 65.8956 24.3169 63.9872 24.0728 64.0109Z" fill="#455A64"/>
<path d="M29.2808 63.9781C29.0313 64.0036 28.6525 65.8737 28.4996 66.6949C28.4559 66.9298 28.5997 67.1593 28.8292 67.2266C29.2826 67.3614 29.6322 67.325 29.8744 67.2521C30.1093 67.1811 30.2513 66.9444 30.1967 66.704C30.0091 65.901 29.532 63.9526 29.2808 63.9781Z" fill="#455A64"/>
</g>
<defs>
<clipPath id="clip0_625_37845">
<rect width="120" height="67.1927" fill="white" transform="translate(0 0.403625)"/>
</clipPath>
</defs>
</svg>
