<svg width="1218" height="318" viewBox="0 0 1218 318" fill="none" xmlns="http://www.w3.org/2000/svg">
<g clip-path="url(#clip0_256_5392)">
<g filter="url(#filter0_d_256_5392)">
<path d="M1650.7 109.506V330.058H852.728C849.752 330.058 835.366 326.918 824.123 325.1C817.674 324.108 812.3 323.447 810.729 324.191C809.076 324.934 807.505 324.769 805.686 323.86C797.75 320.142 789.234 320.307 781.711 323.86C768.896 329.892 759.058 339.809 751.7 351.873C745.913 361.459 745.169 371.54 750.377 381.622C751.617 384.018 750.129 384.431 748.476 384.927C744.26 386.249 740.208 387.819 736.488 390.216C728.882 395.091 723.426 401.867 719.705 410.048C718.548 412.61 717.721 412.858 715.902 410.379C713.009 406.412 710.033 402.446 705.899 399.636C696.557 393.191 686.884 388.728 675.144 392.199C673.904 392.53 672.995 391.869 672.002 391.455C667.455 389.555 662.743 387.737 657.7 387.737C648.358 387.737 640.256 391.207 632.98 396.744C630.748 398.479 629.673 398.479 627.689 396.166C617.851 384.845 605.367 379.887 590.486 382.779C577.01 385.423 565.932 392.116 559.979 404.842C557.747 409.552 554.605 411.618 550.224 413.188C540.468 416.659 532.366 422.939 525.256 430.211C517.319 438.392 511.615 448.06 508.473 459.133C507.895 461.034 506.985 461.778 505.084 462.025C494.419 463.1 484.415 466.322 475.404 472.272C474.246 473.016 473.502 473.346 472.097 472.52C458.538 464.091 443.657 459.629 427.783 458.72C425.799 458.637 424.476 457.728 423.071 456.572C418.111 452.522 412.406 450.539 405.958 450.374C399.674 450.209 394.383 452.605 389.588 456.076C387.273 457.811 385.702 458.142 384.297 455.001C383.139 452.522 381.734 449.961 379.833 448.143C366.439 435.83 345.688 436.574 334.196 450.374C331.386 453.679 329.236 457.398 327.086 462.356C325.02 453.349 321.299 446.325 316.008 440.375C299.308 421.369 277.895 415.502 253.424 418.973C234.409 421.7 219.61 430.624 211.012 448.308C210.599 449.217 209.937 449.961 208.945 450.126C200.595 452.027 193.816 447.978 186.871 444.424C185.879 443.928 186.127 442.441 186.045 441.367C185.301 433.269 182.49 425.914 177.86 419.221C171.742 410.461 164.219 403.355 155.29 397.24C143.137 388.976 130.322 386.001 115.937 387.902C112.547 388.315 109.654 391.703 107.008 390.712C104.28 389.72 102.379 386.249 100.146 383.853C99.981 383.688 99.733 383.522 99.4849 383.357C87.7452 375.176 73.4426 375.011 62.0336 385.506C60.6282 386.745 59.4707 387.158 57.6519 386.745C49.5498 384.845 41.4478 385.754 33.7591 388.481C30.2868 389.72 28.7987 389.307 28.22 385.588C26.5665 376.251 21.8541 368.318 16.0669 361.046C12.8426 356.997 9.53563 352.7 4.40984 350.799C0.772181 349.477 0.110789 347.163 0.110789 343.61C0.193463 245.275 0.110789 147.022 0.0281154 48.6865C0.0281154 47.6122 0.110789 46.4553 0.0281154 45.3811C-0.219907 42.5715 1.18555 41.5799 3.74845 42.1583C8.95691 43.2326 14.3307 44.0589 19.4565 45.629C49.3018 54.8014 70.6317 73.8074 83.8596 102.069C84.8516 104.134 85.8437 105.457 88.324 105.622C95.5166 106.035 101.056 109.506 105.686 114.794C109.489 119.257 109.489 119.174 112.63 114.546C126.271 94.2182 155.042 89.5907 172.817 108.597C174.718 110.58 175.545 110.167 176.702 108.183C177.364 107.109 178.191 106.2 178.935 105.209C188.111 93.5571 200.678 89.2601 214.733 90.1691C235.566 91.5739 253.92 108.183 257.64 127.851C258.054 129.999 258.88 131.239 261.361 131.239C264.006 131.239 266.817 131.982 268.636 133.8C272.604 137.684 276.655 137.849 281.285 135.536C281.616 135.37 282.112 135.37 282.525 135.288C304.186 131.982 323.366 137.932 340.397 151.319C342.464 152.971 343.621 153.467 345.853 151.649C349.491 148.674 353.708 146.609 358.337 145.452C373.467 141.651 390.994 148.261 400.088 161.4C401.658 163.631 402.899 164.54 405.792 163.466C414.142 160.409 422.823 159.169 431.752 159.334C436.051 159.417 439.11 156.607 438.862 152.31C438.2 141.403 442.582 132.395 449.196 124.38C459.365 112.067 476.065 103.886 493.344 111.819C495.824 112.976 496.072 111.654 496.651 110.001C500.454 98.7631 507.977 91.326 519.552 88.2685C521.288 87.7727 522.693 87.1116 522.28 84.9631C520.626 75.708 524.595 68.3535 530.134 61.5775C537.575 52.5703 550.472 50.0912 560.889 55.9583C562.211 56.702 563.534 57.6936 565.105 57.1152C568.412 55.9583 571.719 56.8673 574.86 57.5284C577.258 58.0242 578.498 57.611 580.069 55.6278C594.95 36.7871 622.894 38.8529 638.437 56.8673C642.736 61.908 645.877 67.5272 647.531 74.9643C656.79 64.1392 668.447 62.4865 679.939 65.4613C697.135 69.841 708.71 81.0793 712.43 99.1763C712.843 101.242 713.587 101.738 715.572 102.069C726.319 103.804 736.488 107.027 745.334 113.472C747.236 114.877 748.393 114.464 749.799 112.894C752.362 109.919 756.743 108.679 759.141 110.58C765.589 115.621 770.798 112.315 777.164 110.663C792.872 106.613 810.399 115.29 817.674 129.834C818.501 131.486 821.229 134.048 824.04 135.949L826.685 141.898C826.851 144.212 827.347 139.419 829.248 138.345C829.827 138.428 830.323 138.428 830.737 138.263C835.862 140.163 839.169 144.543 842.394 148.509C848.181 155.781 852.893 163.714 854.547 173.052C855.208 176.853 856.614 177.183 860.086 175.944C867.774 173.134 875.877 172.225 883.979 174.209C885.797 174.622 887.038 174.209 888.36 172.969C899.769 162.557 914.072 162.722 925.812 170.821C926.06 170.986 926.308 171.069 926.473 171.316C928.705 173.713 930.607 177.183 933.335 178.175C936.063 179.167 938.874 175.779 942.264 175.366C956.649 173.465 969.546 176.522 981.617 184.703C990.545 190.736 997.986 197.925 1004.19 206.684C1008.82 213.377 1011.71 220.649 1012.37 228.83C1012.45 229.904 1012.21 231.392 1013.2 231.888C1020.06 235.441 1026.92 239.407 1035.27 237.589C1036.26 237.342 1036.93 236.598 1037.34 235.772C1046.02 218.088 1060.74 209.08 1079.75 206.436C1104.22 202.966 1125.63 208.833 1142.33 227.839C1147.63 233.788 1151.35 240.895 1153.41 249.819C1155.65 244.861 1157.79 241.143 1160.61 237.837C1172.1 223.955 1192.85 223.294 1206.24 235.606C1208.23 237.424 1209.63 239.986 1210.71 242.465C1212.11 245.605 1213.68 245.192 1216 243.539C1220.88 239.986 1226.08 237.589 1232.37 237.837C1238.82 238.085 1244.52 240.069 1249.48 244.035C1250.89 245.192 1252.21 246.018 1254.19 246.183C1270.15 247.092 1284.95 251.555 1298.51 259.984C1299.83 260.81 1300.66 260.479 1301.81 259.736C1310.82 253.786 1320.75 250.563 1331.49 249.489C1333.39 249.324 1334.39 248.58 1334.88 246.679C1338.02 235.689 1343.65 225.938 1351.67 217.757C1358.78 210.485 1366.88 204.205 1376.63 200.734C1381.01 199.164 1384.16 197.098 1386.39 192.306C1392.34 179.58 1403.42 172.804 1416.9 170.242C1431.86 167.35 1444.26 172.308 1454.1 183.629C1456.08 185.943 1457.16 185.86 1459.39 184.207C1466.67 178.671 1474.77 175.2 1484.11 175.2C1489.15 175.2 1493.78 177.018 1498.41 178.919C1499.4 179.332 1500.31 179.993 1501.55 179.663C1513.29 176.192 1522.97 180.654 1532.31 187.1C1536.52 189.992 1539.5 193.876 1542.39 197.925C1544.21 200.486 1545.04 200.156 1546.2 197.594C1549.92 189.413 1555.37 182.637 1562.98 177.762C1566.7 175.366 1570.83 173.795 1574.97 172.473C1576.62 171.895 1578.11 171.564 1576.87 169.085C1571.58 158.921 1572.32 148.84 1578.19 139.337C1585.55 127.272 1595.39 117.356 1608.2 111.324C1615.81 107.77 1624.24 107.605 1632.18 111.324C1634 112.233 1635.57 112.398 1637.22 111.654C1641.6 109.258 1646.15 109.588 1650.7 109.506Z" fill="white"/>
</g>
</g>
<defs>
<filter id="filter0_d_256_5392" x="-11" y="28" width="1672.7" height="453.004" filterUnits="userSpaceOnUse" color-interpolation-filters="sRGB">
<feFlood flood-opacity="0" result="BackgroundImageFix"/>
<feColorMatrix in="SourceAlpha" type="matrix" values="0 0 0 0 0 0 0 0 0 0 0 0 0 0 0 0 0 0 127 0" result="hardAlpha"/>
<feOffset dy="-3"/>
<feGaussianBlur stdDeviation="5.5"/>
<feComposite in2="hardAlpha" operator="out"/>
<feColorMatrix type="matrix" values="0 0 0 0 0 0 0 0 0 0 0 0 0 0 0 0 0 0 0.25 0"/>
<feBlend mode="normal" in2="BackgroundImageFix" result="effect1_dropShadow_256_5392"/>
<feBlend mode="normal" in="SourceGraphic" in2="effect1_dropShadow_256_5392" result="shape"/>
</filter>
<clipPath id="clip0_256_5392">
<rect width="1651" height="318" fill="white"/>
</clipPath>
</defs>
</svg>
