<?xml version="1.0" encoding="utf-8"?>
<!-- Generator: Adobe Illustrator 24.3.0, SVG Export Plug-In . SVG Version: 6.00 Build 0)  -->
<svg version="1.1" xmlns="http://www.w3.org/2000/svg" xmlns:xlink="http://www.w3.org/1999/xlink" x="0px" y="0px"
	 viewBox="0 0 1300 268.7" style="enable-background:new 0 0 1300 268.7;" xml:space="preserve">
<style type="text/css">
	.st0{display:none;}
	.st1{display:inline;fill:#F5F5F5;}
	.st2{fill:#FFFFFF;}
</style>
<g id="Background_Complete">
</g>
<g id="Background_Simple" class="st0">
	<path class="st1" d="M819.2-99.8l-2.2-3.7c-18.7-30.9-52.6-49.4-88.3-47.2c-4.6,0.3-9.2,0.9-13.7,1.9
		c-32.4,6.9-60.7,31.5-72.4,62.9c-6.9,18.5-8.8,39.8-21.9,54.4c-17,19.1-45.9,19.7-71.2,18.9c-25.4-0.8-54.3-0.1-71.2,19.1
		c-10.6,12-14,29.1-13.1,45.2c2.3,42.6,31.9,80.6,69.6,99.5s82.1,20.6,123.4,12.3c57.8-11.7,112.8-43.7,145.9-93.1
		C837.3,21,845.6-46.4,819.2-99.8z"/>
</g>
<g id="Floor">
</g>
<g id="Plant">
</g>
<g id="Speech_Bubble">
</g>
<g id="Characters">
	<g>
		<path class="st2" d="M1001.4,134.8c0.5-0.3,1.1-0.4,1.8-0.1C1002.7,134.9,1002.1,134.9,1001.4,134.8z"/>
		<path class="st2" d="M1029.6,366.9H995v-6C1008.6,363,1026.1,366.9,1029.6,366.9z"/>
		<path class="st2" d="M1994.8,99.9v266.9h-965.2c-3.6,0-21-3.8-34.6-6c-7.8-1.2-14.3-2-16.2-1.1c-2,0.9-3.9,0.7-6.1-0.4
			c-9.6-4.5-19.9-4.3-29,0c-15.5,7.3-27.4,19.3-36.3,33.9c-7,11.6-7.9,23.8-1.6,36c1.5,2.9-0.3,3.4-2.3,4c-5.1,1.6-10,3.5-14.5,6.4
			c-9.2,5.9-15.8,14.1-20.3,24c-1.4,3.1-2.4,3.4-4.6,0.4c-3.5-4.8-7.1-9.6-12.1-13c-11.3-7.8-23-13.2-37.2-9
			c-1.5,0.4-2.6-0.4-3.8-0.9c-5.5-2.3-11.2-4.5-17.3-4.5c-11.3,0-21.1,4.2-29.9,10.9c-2.7,2.1-4,2.1-6.4-0.7
			c-11.9-13.7-27-19.7-45-16.2c-16.3,3.2-29.7,11.3-36.9,26.7c-2.7,5.7-6.5,8.2-11.8,10.1c-11.8,4.2-21.6,11.8-30.2,20.6
			c-9.6,9.9-16.5,21.6-20.3,35c-0.7,2.3-1.8,3.2-4.1,3.5c-12.9,1.3-25,5.2-35.9,12.4c-1.4,0.9-2.3,1.3-4,0.3
			c-16.4-10.2-34.4-15.6-53.6-16.7c-2.4-0.1-4-1.2-5.7-2.6c-6-4.9-12.9-7.3-20.7-7.5c-7.6-0.2-14,2.7-19.8,6.9
			c-2.8,2.1-4.7,2.5-6.4-1.3c-1.4-3-3.1-6.1-5.4-8.3c-16.2-14.9-41.3-14-55.2,2.7c-3.4,4-6,8.5-8.6,14.5c-2.5-10.9-7-19.4-13.4-26.6
			c-20.2-23-46.1-30.1-75.7-25.9c-23,3.3-40.9,14.1-51.3,35.5c-0.5,1.1-1.3,2-2.5,2.2c-10.1,2.3-18.3-2.6-26.7-6.9
			c-1.2-0.6-0.9-2.4-1-3.7c-0.9-9.8-4.3-18.7-9.9-26.8c-7.4-10.6-16.5-19.2-27.3-26.6c-14.7-10-30.2-13.6-47.6-11.3
			c-4.1,0.5-7.6,4.6-10.8,3.4c-3.3-1.2-5.6-5.4-8.3-8.3c-0.2-0.2-0.5-0.4-0.8-0.6c-14.2-9.9-31.5-10.1-45.3,2.6
			c-1.7,1.5-3.1,2-5.3,1.5c-9.8-2.3-19.6-1.2-28.9,2.1c-4.2,1.5-6,1-6.7-3.5c-2-11.3-7.7-20.9-14.7-29.7
			c-3.9-4.9-7.9-10.1-14.1-12.4c-4.4-1.6-5.2-4.4-5.2-8.7c0.1-119,0-237.9-0.1-356.9c0-1.3,0.1-2.7,0-4c-0.3-3.4,1.4-4.6,4.5-3.9
			c6.3,1.3,12.8,2.3,19,4.2c36.1,11.1,61.9,34.1,77.9,68.3c1.2,2.5,2.4,4.1,5.4,4.3c8.7,0.5,15.4,4.7,21,11.1
			c4.6,5.4,4.6,5.3,8.4-0.3c16.5-24.6,51.3-30.2,72.8-7.2c2.3,2.4,3.3,1.9,4.7-0.5c0.8-1.3,1.8-2.4,2.7-3.6
			c11.1-14.1,26.3-19.3,43.3-18.2c25.2,1.7,47.4,21.8,51.9,45.6c0.5,2.6,1.5,4.1,4.5,4.1c3.2,0,6.6,0.9,8.8,3.1
			c4.8,4.7,9.7,4.9,15.3,2.1c0.4-0.2,1-0.2,1.5-0.3c26.2-4,49.4,3.2,70,19.4c2.5,2,3.9,2.6,6.6,0.4c4.4-3.6,9.5-6.1,15.1-7.5
			c18.3-4.6,39.5,3.4,50.5,19.3c1.9,2.7,3.4,3.8,6.9,2.5c10.1-3.7,20.6-5.2,31.4-5c5.2,0.1,8.9-3.3,8.6-8.5
			c-0.8-13.2,4.5-24.1,12.5-33.8c12.3-14.9,32.5-24.8,53.4-15.2c3,1.4,3.3-0.2,4-2.2c4.6-13.6,13.7-22.6,27.7-26.3
			c2.1-0.6,3.8-1.4,3.3-4c-2-11.2,2.8-20.1,9.5-28.3C648.4,31,664,28,676.6,35.1c1.6,0.9,3.2,2.1,5.1,1.4c4-1.4,8-0.3,11.8,0.5
			c2.9,0.6,4.4,0.1,6.3-2.3c18-22.8,51.8-20.3,70.6,1.5c5.2,6.1,9,12.9,11,21.9c11.2-13.1,25.3-15.1,39.2-11.5
			c20.8,5.3,34.8,18.9,39.3,40.8c0.5,2.5,1.4,3.1,3.8,3.5c13,2.1,25.3,6,36,13.8c2.3,1.7,3.7,1.2,5.4-0.7c3.1-3.6,8.4-5.1,11.3-2.8
			c7.8,6.1,14.1,2.1,21.8,0.1c19-4.9,40.2,5.6,49,23.2c1,2,4.3,5.1,7.7,7.4l3.2,7.2c0.2,2.8,0.8-3,3.1-4.3c0.7,0.1,1.3,0.1,1.8-0.1
			c6.2,2.3,10.2,7.6,14.1,12.4c7,8.8,12.7,18.4,14.7,29.7c0.8,4.6,2.5,5,6.7,3.5c9.3-3.4,19.1-4.5,28.9-2.1c2.2,0.5,3.7,0,5.3-1.5
			c13.8-12.6,31.1-12.4,45.3-2.6c0.3,0.2,0.6,0.3,0.8,0.6c2.7,2.9,5,7.1,8.3,8.3c3.3,1.2,6.7-2.9,10.8-3.4
			c17.4-2.3,33,1.4,47.6,11.3c10.8,7.3,19.8,16,27.3,26.6c5.6,8.1,9.1,16.9,9.9,26.8c0.1,1.3-0.2,3.1,1,3.7
			c8.3,4.3,16.6,9.1,26.7,6.9c1.2-0.3,2-1.2,2.5-2.2c10.5-21.4,28.3-32.3,51.3-35.5c29.6-4.2,55.5,2.9,75.7,25.9
			c6.4,7.2,10.9,15.8,13.4,26.6c2.7-6,5.3-10.5,8.7-14.5c13.9-16.8,39-17.6,55.2-2.7c2.4,2.2,4.1,5.3,5.4,8.3
			c1.7,3.8,3.6,3.3,6.4,1.3c5.9-4.3,12.2-7.2,19.8-6.9c7.8,0.3,14.7,2.7,20.7,7.5c1.7,1.4,3.3,2.4,5.7,2.6
			c19.3,1.1,37.2,6.5,53.6,16.7c1.6,1,2.6,0.6,4-0.3c10.9-7.2,22.9-11.1,35.9-12.4c2.3-0.2,3.5-1.1,4.1-3.4
			c3.8-13.3,10.6-25.1,20.3-35c8.6-8.8,18.4-16.4,30.2-20.6c5.3-1.9,9.1-4.4,11.8-10.2c7.2-15.4,20.6-23.6,36.9-26.7
			c18.1-3.5,33.1,2.5,45,16.2c2.4,2.8,3.7,2.7,6.4,0.7c8.8-6.7,18.6-10.9,29.9-10.9c6.1,0,11.7,2.2,17.3,4.5
			c1.2,0.5,2.3,1.3,3.8,0.9c14.2-4.2,25.9,1.2,37.2,9c5.1,3.5,8.7,8.2,12.2,13.1c2.2,3.1,3.2,2.7,4.6-0.4c4.5-9.9,11.1-18.1,20.3-24
			c4.5-2.9,9.5-4.8,14.5-6.4c2-0.7,3.8-1.1,2.3-4.1c-6.4-12.3-5.5-24.5,1.6-36c8.9-14.6,20.8-26.6,36.3-33.9c9.2-4.3,19.4-4.5,29,0
			c2.2,1.1,4.1,1.3,6.1,0.4C1983.8,99.6,1989.3,100,1994.8,99.9z"/>
		<path class="st2" d="M1001.4,134.8c-2.3,1.3-2.9,7.1-3.1,4.3l-3.2-7.2C997.3,133.4,999.6,134.5,1001.4,134.8z"/>
	</g>
</g>
</svg>
