<svg width="20" height="21" viewBox="0 0 20 21" fill="none" xmlns="http://www.w3.org/2000/svg">
<path d="M10.173 2.87994C6.09578 2.87994 2.75989 6.21585 2.75989 10.2931C2.75989 14.3703 6.09578 17.7062 10.173 17.7062C14.2502 17.7062 17.5861 14.3703 17.5861 10.2931C17.5861 6.21585 14.2502 2.87994 10.173 2.87994ZM10.173 5.10388C11.3954 5.10388 12.3969 6.10536 12.3969 7.32782C12.3969 8.55027 11.3954 9.55175 10.173 9.55175C8.95054 9.55175 7.94906 8.55027 7.94906 7.32782C7.94906 6.10536 8.95054 5.10388 10.173 5.10388ZM10.173 15.8101C8.31972 15.8101 6.68741 14.8479 5.72513 13.4365C5.76077 11.9539 8.69037 11.1377 10.173 11.1377C11.6556 11.1377 14.5852 11.9539 14.6209 13.4365C13.6586 14.8443 12.0263 15.8101 10.173 15.8101Z" fill="black"/>
</svg>
