<svg width="15" height="17" viewBox="0 0 15 17" fill="none" xmlns="http://www.w3.org/2000/svg">
<path d="M12.4953 12.9712H4.89211C4.48881 12.9712 4.10203 12.811 3.81686 12.5258C3.53168 12.2406 3.37147 11.8539 3.37147 11.4506V2.32672C3.37147 1.92342 3.53168 1.53664 3.81686 1.25146C4.10203 0.966286 4.48881 0.806076 4.89211 0.806076H5.65243V4.60768L7.17306 3.4672L8.6937 4.60768V0.806076H12.4953C12.8986 0.806076 13.2854 0.966286 13.5705 1.25146C13.8557 1.53664 14.0159 1.92342 14.0159 2.32672V11.4506C14.0159 11.8539 13.8557 12.2406 13.5705 12.5258C13.2854 12.811 12.8986 12.9712 12.4953 12.9712ZM10.9747 14.4918V16.0125H1.85084C1.44754 16.0125 1.06076 15.8523 0.775584 15.5671C0.49041 15.2819 0.3302 14.8951 0.3302 14.4918V3.84736H1.85084V14.4918H10.9747Z" fill="black"/>
</svg>
