<svg width="20" height="21" viewBox="0 0 20 21" fill="none" xmlns="http://www.w3.org/2000/svg">
<g clip-path="url(#clip0_78_227)">
<path d="M10.173 19.0601C9.9576 19.0601 9.77715 18.9873 9.63167 18.8419C9.48569 18.6959 9.4127 18.5152 9.4127 18.2997V17.5394C7.82871 17.362 6.46976 16.7064 5.33587 15.5725C4.20148 14.4381 3.54558 13.0789 3.36817 11.4949H2.60785C2.39243 11.4949 2.21173 11.4219 2.06575 11.2759C1.92027 11.1304 1.84753 10.95 1.84753 10.7346C1.84753 10.5191 1.92027 10.3384 2.06575 10.1925C2.21173 10.047 2.39243 9.97424 2.60785 9.97424H3.36817C3.54558 8.39024 4.20148 7.03104 5.33587 5.89664C6.46976 4.76275 7.82871 4.10711 9.4127 3.9297V3.16938C9.4127 2.95395 9.48569 2.77325 9.63167 2.62727C9.77715 2.48179 9.9576 2.40906 10.173 2.40906C10.3884 2.40906 10.5691 2.48179 10.7151 2.62727C10.8606 2.77325 10.9333 2.95395 10.9333 3.16938V3.9297C12.5173 4.10711 13.8765 4.76275 15.0109 5.89664C16.1448 7.03104 16.8005 8.39024 16.9779 9.97424H17.7382C17.9536 9.97424 18.1343 10.047 18.2803 10.1925C18.4258 10.3384 18.4985 10.5191 18.4985 10.7346C18.4985 10.95 18.4258 11.1304 18.2803 11.2759C18.1343 11.4219 17.9536 11.4949 17.7382 11.4949H16.9779C16.8005 13.0789 16.1448 14.4381 15.0109 15.5725C13.8765 16.7064 12.5173 17.362 10.9333 17.5394V18.2997C10.9333 18.5152 10.8606 18.6959 10.7151 18.8419C10.5691 18.9873 10.3884 19.0601 10.173 19.0601ZM10.173 16.0568C11.643 16.0568 12.8975 15.5372 13.9366 14.4981C14.9757 13.459 15.4952 12.2045 15.4952 10.7346C15.4952 9.26461 14.9757 8.01008 13.9366 6.97098C12.8975 5.93187 11.643 5.41232 10.173 5.41232C8.70307 5.41232 7.44855 5.93187 6.40944 6.97098C5.37034 8.01008 4.85079 9.26461 4.85079 10.7346C4.85079 12.2045 5.37034 13.459 6.40944 14.4981C7.44855 15.5372 8.70307 16.0568 10.173 16.0568ZM10.173 13.7758C9.33667 13.7758 8.6207 13.478 8.02512 12.8825C7.42954 12.2869 7.13175 11.5709 7.13175 10.7346C7.13175 9.89821 7.42954 9.18224 8.02512 8.58666C8.6207 7.99107 9.33667 7.69328 10.173 7.69328C11.0094 7.69328 11.7253 7.99107 12.3209 8.58666C12.9165 9.18224 13.2143 9.89821 13.2143 10.7346C13.2143 11.5709 12.9165 12.2869 12.3209 12.8825C11.7253 13.478 11.0094 13.7758 10.173 13.7758Z" fill="black"/>
</g>
<defs>
<clipPath id="clip0_78_227">
<rect width="18.2476" height="18.2477" fill="white" transform="translate(1.04919 1.61072)"/>
</clipPath>
</defs>
</svg>
