<?xml version="1.0" encoding="utf-8"?>
<!-- Generator: Adobe Illustrator 24.3.0, SVG Export Plug-In . SVG Version: 6.00 Build 0)  -->
<svg version="1.1" xmlns="http://www.w3.org/2000/svg" xmlns:xlink="http://www.w3.org/1999/xlink" x="0px" y="0px"
	 viewBox="0 0 500 500" style="enable-background:new 0 0 500 500;" xml:space="preserve">
<style type="text/css">
	.st0{fill:#F5F5F5;}
	.st1{fill:#E0E0E0;}
	.st2{fill:#EBEBEB;}
	.st3{fill:#FAFAFA;}
	.st4{display:none;}
	.st5{display:inline;fill:#F5F5F5;}
	.st6{fill:#263238;}
	.st7{opacity:0.3;}
	.st8{fill:#FF725E;}
	.st9{fill:#FFFFFF;}
	.st10{fill:none;stroke:#455A64;stroke-width:2;stroke-miterlimit:10;}
	.st11{fill:#455A64;}
	.st12{font-family:'Montserrat-ExtraBold';}
	.st13{font-size:14.6842px;}
	.st14{opacity:0.7;}
	.st15{fill:#FFBF9D;}
	.st16{fill:#FF9A6C;}
	.st17{opacity:0.2;}
</style>
<g id="Background_Complete">
	<g>
		<g>
			<g>
				<g>
					<g>
						<g>
							<g>
								<g>
									<g>
										
											<rect x="30.42" y="286.45" transform="matrix(0.9829 -0.1839 0.1839 0.9829 -56.6515 17.3132)" class="st0" width="69.22" height="55.34"/>
										<g>
											<path class="st1" d="M93.96,280.56c0,0-0.12,0.03-0.33,0.08c-0.23,0.05-0.55,0.11-0.96,0.19
												c-0.86,0.17-2.09,0.41-3.7,0.72c-3.24,0.62-7.96,1.53-13.92,2.67c-11.95,2.26-28.92,5.48-49.09,9.3l0.19-0.28
												c3.04,16.19,6.52,34.75,10.2,54.39l0,0.01l-0.31-0.21c25.19-4.7,48.6-9.06,68.05-12.68l-0.18,0.26
												c-3.01-16.37-5.51-29.95-7.26-39.46c-0.86-4.75-1.54-8.48-2.01-11.04c-0.23-1.27-0.4-2.24-0.52-2.92
												C94.01,280.92,93.96,280.56,93.96,280.56s0.08,0.32,0.21,0.96c0.13,0.67,0.32,1.62,0.56,2.87
												c0.49,2.55,1.2,6.25,2.11,10.97c1.81,9.53,4.4,23.14,7.52,39.55l0.04,0.22l-0.22,0.04
												c-19.44,3.65-42.85,8.04-68.03,12.77L35.88,348l-0.05-0.26l0-0.01c-3.66-19.64-7.13-38.2-10.15-54.4l-0.04-0.24
												l0.24-0.04c20.25-3.74,37.29-6.88,49.28-9.1c5.96-1.09,10.66-1.94,13.89-2.53c1.59-0.28,2.81-0.5,3.66-0.66
												c0.4-0.07,0.71-0.12,0.93-0.16C93.86,280.57,93.96,280.55,93.96,280.56z"/>
										</g>
									</g>
								</g>
							</g>
						</g>
					</g>
				</g>
			</g>
		</g>
		<g>
			<g>
				<g>
					<g>
						
							<rect x="32.8" y="289.94" transform="matrix(0.9829 -0.1839 0.1839 0.9829 -56.6534 17.305)" class="st2" width="64.36" height="48.37"/>
					</g>
				</g>
			</g>
		</g>
		<g>
			<g>
				<g>
					<g>
						<polygon class="st1" points="37.8,343.82 54.37,310.13 71.51,326.06 78.95,314.44 101.06,331.99 						"/>
					</g>
				</g>
			</g>
		</g>
		<g>
			<g>
				<g>
					<g>
						<g>
							<g>
								<path class="st1" d="M73.19,302.87c0.51,2.75-1.3,5.4-4.05,5.91c-2.75,0.51-5.4-1.3-5.91-4.05c-0.51-2.75,1.3-5.4,4.05-5.91
									C70.02,298.3,72.67,300.11,73.19,302.87z"/>
							</g>
						</g>
					</g>
				</g>
			</g>
		</g>
	</g>
	<g>
		<g>
			
				<rect x="151.97" y="89.38" transform="matrix(0.1781 -0.984 0.984 0.1781 46.0714 378.7081)" class="st3" width="195.57" height="144.8"/>
			<g>
				<path class="st1" d="M303.57,270.89c0,0,0.05-0.32,0.15-0.93c0.11-0.61,0.27-1.52,0.47-2.7c0.42-2.38,1.05-5.9,1.87-10.48
					c1.64-9.15,4.04-22.53,7.08-39.48c6.1-33.86,14.76-81.94,25.02-138.9l0.2,0.28c-42.83-7.75-91.31-16.51-142.47-25.77l-0.02,0
					l0.31-0.22c-13.01,71.78-25.07,138.28-34.89,192.43l-0.18-0.25c43.13,7.86,78.71,14.34,103.53,18.86
					c12.42,2.27,22.13,4.05,28.76,5.26c3.31,0.61,5.84,1.08,7.56,1.39C302.68,270.71,303.57,270.89,303.57,270.89
					s-0.86-0.14-2.56-0.44c-1.71-0.3-4.23-0.75-7.52-1.34c-6.62-1.18-16.33-2.92-28.73-5.14c-24.86-4.47-60.5-10.89-103.7-18.66
					l-0.22-0.04l0.04-0.22c9.79-54.15,21.81-120.66,34.79-192.45l0.05-0.26l0.26,0.05l0.02,0c51.16,9.27,99.64,18.06,142.46,25.82
					l0.24,0.04l-0.04,0.24c-10.37,57-19.13,105.13-25.29,139.01c-3.09,16.91-5.53,30.27-7.2,39.4c-0.84,4.55-1.48,8.05-1.92,10.42
					c-0.22,1.17-0.38,2.06-0.5,2.67C303.63,270.59,303.57,270.89,303.57,270.89z"/>
			</g>
		</g>
		
			<rect x="202.69" y="78.04" transform="matrix(0.984 0.1781 -0.1781 0.984 22.4086 -39.9084)" class="st1" width="61.48" height="53.56"/>
		
			<rect x="277.03" y="89.12" transform="matrix(0.984 0.1781 -0.1781 0.984 21.2459 -51.3781)" class="st1" width="39.36" height="6.99"/>
		
			<rect x="195.71" y="146.52" transform="matrix(0.984 0.1781 -0.1781 0.984 30.7544 -42.4721)" class="st1" width="112.34" height="6.99"/>
		
			<rect x="193.52" y="158.63" transform="matrix(0.984 0.1781 -0.1781 0.984 32.8756 -41.8878)" class="st1" width="112.34" height="6.99"/>
		
			<rect x="191.33" y="170.73" transform="matrix(0.984 0.1781 -0.1781 0.984 34.9971 -41.304)" class="st1" width="112.34" height="6.99"/>
		
			<rect x="189.13" y="182.84" transform="matrix(0.984 0.1781 -0.1781 0.984 37.1183 -40.7197)" class="st1" width="112.34" height="6.99"/>
		
			<rect x="186.94" y="194.94" transform="matrix(0.984 0.1781 -0.1781 0.984 39.2399 -40.1359)" class="st1" width="112.34" height="6.99"/>
		
			<rect x="179.43" y="236.44" transform="matrix(0.984 0.1781 -0.1781 0.984 46.5117 -38.1336)" class="st1" width="112.34" height="6.99"/>
		
			<rect x="185.16" y="202.53" transform="matrix(0.984 0.1781 -0.1781 0.984 40.1582 -35.1826)" class="st1" width="61.67" height="6.99"/>
		
			<rect x="275.02" y="100.25" transform="matrix(0.984 0.1781 -0.1781 0.984 23.1962 -50.841)" class="st1" width="39.36" height="6.99"/>
		
			<rect x="273" y="111.38" transform="matrix(0.984 0.1781 -0.1781 0.984 25.1467 -50.3041)" class="st1" width="39.36" height="6.99"/>
		
			<rect x="271.11" y="121.16" transform="matrix(0.984 0.1781 -0.1781 0.984 26.7389 -48.4661)" class="st1" width="24.27" height="6.99"/>
	</g>
	<g>
		<g>
			<path class="st1" d="M368,51.76l-12.29,0.49l-1.33,3.45c-0.43,1.15-0.64,2.09-0.61,2.83c0.04,0.97,0.46,1.68,1.27,2.11
				c0.47,0.26,1.62,0.41,3.44,0.48l0.04,0.95l-11.57,0.46l-0.04-0.95c1.24-0.24,2.25-0.8,3.02-1.68c0.77-0.88,1.69-2.67,2.77-5.37
				l11.33-28.26l0.49-0.02l13.69,28.03c1.31,2.65,2.36,4.32,3.16,4.99c0.6,0.51,1.44,0.78,2.5,0.83l0.04,0.95l-16.83,0.68
				l-0.04-0.95l0.69-0.03c1.35-0.05,2.29-0.28,2.83-0.68c0.36-0.29,0.54-0.69,0.52-1.2c-0.01-0.31-0.08-0.62-0.19-0.94
				c-0.04-0.15-0.32-0.78-0.85-1.89L368,51.76z M367.05,49.9l-5.66-11.77l-4.86,12.2L367.05,49.9z"/>
		</g>
	</g>
	<g>
		<g>
			<g>
				<g>
					<g>
						<g>
							<g>
								<g>
									<g>
										
											<rect x="341.04" y="132.61" transform="matrix(0.9485 -0.3168 0.3168 0.9485 -30.4204 125.4626)" class="st0" width="59.26" height="47.38"/>
									</g>
								</g>
							</g>
						</g>
					</g>
				</g>
			</g>
			<g>
				<g>
					<g>
						<g>
							
								<rect x="343.08" y="135.6" transform="matrix(0.9485 -0.3168 0.3168 0.9485 -30.426 125.4499)" class="st2" width="55.09" height="41.41"/>
						</g>
					</g>
				</g>
			</g>
			<g>
				<g>
					<g>
						<g>
							<polygon class="st1" points="351.06,184.67 361.16,154.16 377.56,165.66 382.51,154.93 403.32,167.22 							"/>
						</g>
					</g>
				</g>
			</g>
			<g>
				<g>
					<g>
						<g>
							<g>
								<g>
									<path class="st1" d="M376.26,145.79c0.76,2.27-0.47,4.73-2.74,5.49c-2.27,0.76-4.73-0.47-5.49-2.74
										c-0.76-2.27,0.47-4.73,2.74-5.49C373.05,142.29,375.5,143.52,376.26,145.79z"/>
								</g>
							</g>
						</g>
					</g>
				</g>
			</g>
		</g>
		<g>
			<g>
				<g>
					<g>
						<g>
							<g>
								<g>
									<g>
										<g>
											
												<rect x="394.11" y="71.12" transform="matrix(0.1922 -0.9814 0.9814 0.1922 233.5417 515.5078)" class="st0" width="71.59" height="89.54"/>
											<g>
												<path class="st1" d="M480.72,89.37c0,0-0.15-0.02-0.43-0.07c-0.29-0.05-0.7-0.13-1.24-0.23
													c-1.1-0.21-2.7-0.51-4.78-0.91c-4.18-0.8-10.28-1.98-18-3.46c-15.44-2.99-37.38-7.25-63.47-12.31l0.28-0.19
													c-4.09,20.91-8.77,44.88-13.73,70.25l0,0.01l-0.21-0.31c32.53,6.39,62.76,12.32,87.86,17.25l-0.26,0.18
													c4.19-21.14,7.66-38.67,10.09-50.93c1.23-6.13,2.19-10.94,2.85-14.23c0.33-1.63,0.59-2.89,0.76-3.75
													C480.61,89.82,480.72,89.37,480.72,89.37s-0.07,0.42-0.22,1.26c-0.16,0.86-0.4,2.1-0.7,3.72
													c-0.63,3.29-1.55,8.09-2.72,14.2c-2.38,12.3-5.79,29.89-9.89,51.11l-0.04,0.22l-0.22-0.04
													c-25.11-4.9-55.35-10.81-87.88-17.17l-0.26-0.05l0.05-0.26l0-0.01c4.98-25.36,9.68-49.33,13.78-70.24l0.05-0.24
													l0.23,0.05c26.13,5.17,48.11,9.51,63.58,12.57c7.69,1.53,13.76,2.74,17.93,3.58c2.06,0.42,3.64,0.73,4.72,0.95
													c0.52,0.11,0.92,0.19,1.2,0.25C480.59,89.34,480.72,89.37,480.72,89.37z"/>
											</g>
										</g>
									</g>
								</g>
							</g>
						</g>
					</g>
				</g>
			</g>
			<g>
				<g>
					<g>
						<g>
							
								<rect x="398.56" y="74.26" transform="matrix(0.1922 -0.9814 0.9814 0.1922 233.5065 515.4425)" class="st2" width="62.57" height="83.25"/>
						</g>
					</g>
				</g>
			</g>
			<g>
				<g>
					<g>
						<g>
							<polygon class="st1" points="382.98,138.59 418.99,106.01 431.99,133.35 446.48,122.93 464.68,154.59 							"/>
						</g>
					</g>
				</g>
			</g>
			<g>
				<g>
					<g>
						<g>
							<g>
								<g>
									<path class="st1" d="M445.09,106.26c-0.7,3.55-4.14,5.87-7.69,5.17c-3.55-0.7-5.87-4.14-5.17-7.69
										c0.7-3.55,4.14-5.87,7.69-5.17C443.47,99.26,445.78,102.71,445.09,106.26z"/>
								</g>
							</g>
						</g>
					</g>
				</g>
			</g>
		</g>
	</g>
	<g>
		<g>
			<polygon class="st0" points="54.74,33.21 59.29,86.19 79.83,91.76 119.69,87.13 114.08,27.49 			"/>
			<path class="st2" d="M65.55,81.43l-6.26,4.77c0,0,3.79,3.4,8.17,4.54c4.38,1.14,8.39,1.5,12.38,1.03
				C79.83,91.76,70.34,90.12,65.55,81.43z"/>
		</g>
		<g>
			<path class="st1" d="M109.28,46.97c0.01,0.1-10.08,1.16-22.54,2.36c-12.46,1.21-22.56,2.11-22.57,2.01
				c-0.01-0.1,10.08-1.16,22.54-2.36C99.17,47.77,109.27,46.87,109.28,46.97z"/>
		</g>
		<g>
			<path class="st1" d="M109.87,55.12c0.01,0.1-10.08,1.16-22.54,2.36c-12.46,1.21-22.56,2.11-22.57,2.01
				c-0.01-0.1,10.08-1.16,22.54-2.36C99.76,55.92,109.86,55.02,109.87,55.12z"/>
		</g>
		<g>
			<path class="st1" d="M110.82,62.31c0.01,0.1-10.08,1.16-22.54,2.36c-12.46,1.21-22.56,2.11-22.57,2.01
				c-0.01-0.1,10.08-1.16,22.54-2.36C100.71,63.11,110.81,62.21,110.82,62.31z"/>
		</g>
		<g>
			<path class="st1" d="M111.45,69.26c0.01,0.1-10.08,1.16-22.53,2.36c-12.46,1.21-22.56,2.11-22.57,2.01
				c-0.01-0.1,10.08-1.16,22.54-2.36C101.33,70.06,111.44,69.16,111.45,69.26z"/>
		</g>
	</g>
</g>
<g id="Background_Simple" class="st4">
	<path class="st5" d="M441.53,59.16l-1.09-1.79c-9.15-15.07-25.69-24.16-43.12-23.06c-2.24,0.14-4.47,0.45-6.68,0.92
		C374.8,38.62,361,50.61,355.28,65.97c-3.36,9.03-4.3,19.43-10.68,26.6c-8.31,9.33-22.41,9.62-34.8,9.24
		c-12.4-0.39-26.51-0.06-34.77,9.31c-5.18,5.87-6.82,14.21-6.4,22.06c1.11,20.8,15.6,39.39,34.03,48.63
		c18.43,9.24,40.13,10.07,60.3,6c28.26-5.7,55.13-21.34,71.28-45.5C450.37,118.15,454.46,85.23,441.53,59.16z"/>
	<circle class="st5" cx="305.68" cy="64.19" r="21.73"/>
</g>
<g id="Floor">
	<g>
		<path class="st6" d="M484.39,459.9c0,0.15-105.4,0.27-235.38,0.27c-130.03,0-235.4-0.12-235.4-0.27c0-0.15,105.37-0.27,235.4-0.27
			C378.99,459.63,484.39,459.75,484.39,459.9z"/>
	</g>
</g>
<g id="Thesis">
	<g>
		<polygon class="st1" points="41.94,125.35 84.1,366.78 261.87,338.86 270.12,318.95 222.02,95.72 55.38,105.66 		"/>
		<polygon class="st7" points="84.1,366.78 96.73,347.42 54.57,105.99 41.94,125.35 		"/>
		<g>
			<polygon class="st3" points="54.57,105.99 96.73,347.42 270.12,318.95 226.31,81.5 			"/>
			<g>
				<path class="st6" d="M54.57,105.99c1.76-0.25,67.49-9.71,171.72-24.71l0.21-0.03l0.04,0.21
					c12.25,66.35,27.43,148.54,43.85,237.44l0.05,0.27l-0.27,0.04c-0.9,0.15-1.88,0.31-2.86,0.47
					c-61.01,10.01-118.92,19.51-170.53,27.97l-0.24,0.04l-0.04-0.24C71.73,204.86,54.94,108.12,54.57,105.99
					c0.37,2.13,17.36,98.83,42.4,241.38l-0.28-0.2c51.6-8.48,109.51-17.99,170.52-28.02c0.98-0.16,1.96-0.32,2.86-0.47l-0.22,0.31
					c-16.38-88.91-31.52-171.1-43.75-237.46l0.24,0.18C122.09,96.45,56.33,105.74,54.57,105.99z"/>
			</g>
		</g>
		
			<ellipse transform="matrix(0.1317 -0.9913 0.9913 0.1317 -71.8789 350.7754)" class="st8" cx="164.29" cy="216.42" rx="29.55" ry="29.55"/>
		<path class="st9" d="M150.74,224.18l-1.34-8.5l29.47-4.66l1.26,7.97c0,0-1.8,6.88-13.72,8.76
			C154.49,229.63,150.74,224.18,150.74,224.18z"/>
		<polygon class="st9" points="144.75,215.72 165.78,219.46 184.02,209.2 162.96,205.87 		"/>
		<path class="st1" d="M204.68,140.06l-104.5,16.51c-1.28,0.2-2.48-0.67-2.68-1.95l-0.35-2.24c-0.2-1.28,0.67-2.48,1.95-2.68
			l104.5-16.51c1.28-0.2,2.48,0.67,2.68,1.95l0.35,2.24C206.83,138.65,205.96,139.86,204.68,140.06z"/>
		<path class="st1" d="M188.14,157.45l-66.27,10.47c-1.28,0.2-2.48-0.67-2.68-1.95l-0.35-2.24c-0.2-1.28,0.67-2.48,1.95-2.68
			l66.27-10.47c1.28-0.2,2.48,0.67,2.68,1.95l0.35,2.24C190.29,156.04,189.42,157.24,188.14,157.45z"/>
		<path class="st1" d="M212.01,305.57l-66.27,10.47c-1.28,0.2-2.48-0.67-2.68-1.95l-0.35-2.24c-0.2-1.28,0.67-2.48,1.95-2.68
			l66.27-10.47c1.28-0.2,2.48,0.67,2.68,1.95l0.35,2.24C214.16,304.17,213.29,305.37,212.01,305.57z"/>
		<g>
			<path class="st6" d="M261.19,325.66c0,0-0.28,0.06-0.84,0.16c-0.57,0.1-1.4,0.24-2.48,0.43c-2.2,0.37-5.42,0.9-9.59,1.6
				c-8.36,1.37-20.49,3.36-35.61,5.84c-30.26,4.92-72.47,11.78-120.3,19.56l-0.26,0.04l-0.05-0.26c-1.69-9.55-3.45-19.55-5.25-29.74
				c-9.63-54.75-18.35-104.3-24.66-140.18c-3.13-17.93-5.66-32.45-7.41-42.49c-0.86-5.01-1.53-8.9-1.99-11.56
				c-0.22-1.31-0.39-2.32-0.5-3.01c-0.11-0.68-0.15-1.03-0.15-1.03s0.08,0.34,0.21,1.02c0.13,0.69,0.31,1.69,0.56,3
				c0.48,2.65,1.18,6.54,2.09,11.54c1.79,10.04,4.38,24.54,7.58,42.46c6.35,35.87,15.13,85.42,24.82,140.15
				c1.8,10.19,3.56,20.2,5.25,29.74l-0.3-0.21c47.85-7.71,90.06-14.5,120.33-19.38c15.13-2.41,27.26-4.35,35.63-5.68
				c4.17-0.65,7.4-1.16,9.6-1.51c1.09-0.17,1.92-0.29,2.49-0.38C260.9,325.69,261.19,325.66,261.19,325.66z"/>
		</g>
		<g>
			<path class="st6" d="M247.97,334.74c0,0-0.27,0.06-0.79,0.16c-0.54,0.09-1.32,0.23-2.34,0.41c-2.08,0.35-5.12,0.87-9.06,1.54
				c-7.9,1.32-19.37,3.24-33.68,5.63c-28.65,4.74-68.69,11.37-114.28,18.92l-0.26,0.04l-0.05-0.25c-2.1-11.51-4.28-23.48-6.5-35.71
				c-9.79-53.98-18.66-102.84-25.07-138.23c-3.18-17.68-5.76-31.99-7.54-41.9c-0.88-4.94-1.56-8.78-2.02-11.4
				c-0.22-1.29-0.4-2.29-0.51-2.97c-0.11-0.67-0.16-1.01-0.16-1.01s0.08,0.34,0.21,1c0.13,0.68,0.32,1.67,0.57,2.96
				c0.49,2.61,1.2,6.45,2.12,11.38c1.82,9.9,4.45,24.2,7.71,41.87c6.46,35.37,15.38,84.23,25.23,138.2
				c2.22,12.23,4.4,24.2,6.49,35.71l-0.3-0.21c45.59-7.47,85.64-14.04,114.3-18.74c14.32-2.33,25.8-4.19,33.7-5.47
				c3.94-0.63,6.99-1.12,9.07-1.45c1.03-0.16,1.81-0.28,2.35-0.36C247.7,334.77,247.97,334.74,247.97,334.74z"/>
		</g>
		<g>
			<polygon class="st6" points="58.76,208.23 54.86,213.75 64.34,270.64 69.99,272.56 			"/>
			
				<rect x="64.17" y="205.38" transform="matrix(0.9851 -0.172 0.172 0.9851 -39.7892 16.9523)" class="st6" width="27.48" height="65.3"/>
			<path class="st6" d="M98.73,269.78l-1.76,0.31c-1.01,0.18-1.96-0.5-2.14-1.5l-11.38-65.15c-0.18-1.01,0.5-1.96,1.5-2.14
				l1.76-0.31c1.01-0.18,1.96,0.5,2.14,1.5l11.38,65.15C100.41,268.65,99.74,269.61,98.73,269.78z"/>
			<path class="st10" d="M80.01,224.6l-17.57,9.97c-2.47-2.64-6.15-4.06-9.98-3.5c-6.09,0.9-10.48,6.7-9.65,12.81
				c0.87,6.45,6.91,10.82,13.26,9.71c3.97-0.69,7.09-3.36,8.54-6.81l19.83,3.16c0.89,0.14,1.66-0.64,1.5-1.53l-4-22.89
				C81.8,224.62,80.8,224.15,80.01,224.6z"/>
			<g>
				<path class="st11" d="M94.68,267.75c-0.02,0-0.07-0.23-0.14-0.64c-0.09-0.48-0.2-1.09-0.35-1.84c-0.31-1.67-0.73-3.97-1.24-6.79
					c-1.03-5.8-2.44-13.7-4-22.43c-1.51-8.74-2.88-16.65-3.89-22.45c-0.47-2.83-0.85-5.14-1.12-6.81c-0.11-0.76-0.21-1.38-0.28-1.86
					c-0.06-0.43-0.08-0.65-0.06-0.65c0.02,0,0.08,0.22,0.17,0.63c0.1,0.48,0.22,1.09,0.38,1.84c0.32,1.67,0.75,3.97,1.29,6.78
					c1.07,5.73,2.5,13.66,4.04,22.43c1.54,8.76,2.9,16.7,3.85,22.46c0.47,2.88,0.84,5.21,1.08,6.82c0.11,0.81,0.21,1.43,0.25,1.87
					C94.69,267.53,94.7,267.75,94.68,267.75z"/>
			</g>
			<g>
				<path class="st11" d="M69.45,272.78c-0.02,0-0.07-0.23-0.14-0.64c-0.09-0.48-0.2-1.09-0.35-1.84c-0.31-1.67-0.73-3.97-1.24-6.79
					c-1.04-5.8-2.45-13.7-4-22.43c-1.51-8.74-2.88-16.65-3.89-22.45c-0.47-2.83-0.85-5.14-1.12-6.81c-0.11-0.76-0.21-1.38-0.28-1.86
					c-0.06-0.43-0.08-0.65-0.06-0.65c0.02,0,0.08,0.22,0.17,0.63c0.1,0.48,0.22,1.09,0.38,1.84c0.32,1.67,0.75,3.97,1.29,6.78
					c1.07,5.73,2.5,13.66,4.04,22.43c1.54,8.76,2.9,16.7,3.85,22.46c0.47,2.88,0.84,5.21,1.08,6.82c0.11,0.81,0.21,1.43,0.25,1.87
					C69.46,272.56,69.47,272.78,69.45,272.78z"/>
			</g>
		</g>
		<g>
			<path class="st6" d="M184.02,209.2c0.02,0.03-0.47,0.35-1.38,0.9c-0.99,0.58-2.29,1.35-3.86,2.27c-3.28,1.9-7.82,4.49-12.87,7.33
				l-0.08,0.05l-0.09-0.02c-0.06-0.01-0.14-0.02-0.21-0.04c-5.75-1.02-10.95-1.97-14.71-2.69c-1.81-0.36-3.3-0.65-4.45-0.88
				c-1.05-0.22-1.62-0.36-1.62-0.39c0.01-0.04,0.6,0.03,1.65,0.19c1.15,0.18,2.66,0.42,4.48,0.71c3.78,0.62,8.99,1.52,14.73,2.54
				c0.07,0.01,0.14,0.02,0.21,0.04l-0.18,0.03c5.05-2.84,9.62-5.38,12.95-7.19c1.6-0.86,2.93-1.58,3.95-2.12
				C183.48,209.42,184,209.16,184.02,209.2z"/>
		</g>
		<text transform="matrix(0.9877 -0.156 0.156 0.9877 121.2645 135.835)" class="st6 st12 st13">THESIS</text>
	</g>
</g>
<g id="Books">
	<g>
		<g>
			<path class="st8" d="M284.44,370.54h-85.26c-9.75,0-17.65-7.9-17.65-17.65v-9.45c0-9.75,7.9-17.65,17.65-17.65h85.26V370.54z"/>
			<path class="st8" d="M441.98,333.22H262.15v-7.43h179.83c1.62,0,2.93,1.31,2.93,2.93v1.57
				C444.91,331.91,443.6,333.22,441.98,333.22z"/>
			<path class="st8" d="M441.98,370.54H262.15v-7.43h179.83c1.62,0,2.93,1.31,2.93,2.93v1.57
				C444.91,369.22,443.6,370.54,441.98,370.54z"/>
			<path class="st0" d="M439.46,363.11H282.55c-8.25,0-14.94-6.69-14.94-14.94l0,0c0-8.25,6.69-14.94,14.94-14.94h156.91
				C435.25,343.18,435.25,353.15,439.46,363.11z"/>
			<path class="st7" d="M267.61,370.54h-68.07c-9.94,0-18-8.06-18-18v-8.89c0-9.86,8-17.86,17.86-17.86h69.91
				C253.11,335.61,254.32,359.11,267.61,370.54z"/>
			<g>
				<path class="st6" d="M420.4,349.55c0,0.15-32.21,0.27-71.93,0.27c-39.73,0-71.93-0.12-71.93-0.27c0-0.15,32.2-0.27,71.93-0.27
					C388.19,349.28,420.4,349.4,420.4,349.55z"/>
			</g>
			<g>
				<path class="st6" d="M435.2,356.19c0,0.15-32.21,0.27-71.93,0.27c-39.73,0-71.93-0.12-71.93-0.27c0-0.15,32.2-0.27,71.93-0.27
					C402.99,355.93,435.2,356.05,435.2,356.19z"/>
			</g>
			<g>
				<path class="st6" d="M430.84,340.13c0,0.15-32.21,0.27-71.93,0.27c-39.73,0-71.93-0.12-71.93-0.27c0-0.15,32.2-0.27,71.93-0.27
					C398.63,339.86,430.84,339.98,430.84,340.13z"/>
			</g>
			<g>
				<path class="st6" d="M259.73,367.4c0,0.15-15.08,0.27-33.67,0.27c-18.6,0-33.67-0.12-33.67-0.27c0-0.15,15.07-0.27,33.67-0.27
					C244.65,367.13,259.73,367.25,259.73,367.4z"/>
			</g>
			<g>
				<path class="st6" d="M259.73,329.51c0,0.15-15.08,0.27-33.67,0.27c-18.6,0-33.67-0.12-33.67-0.27c0-0.15,15.07-0.27,33.67-0.27
					C244.65,329.24,259.73,329.36,259.73,329.51z"/>
			</g>
		</g>
		<g>
			<path class="st8" d="M276.43,459.56H161.54c-9.75,0-17.65-7.9-17.65-17.65v-22.33c0-9.75,7.9-17.65,17.65-17.65h114.88V459.56z"
				/>
			<path class="st8" d="M480.15,411.51H247.72v-9.57h232.43c1.62,0,2.93,1.31,2.93,2.93v3.71
				C483.08,410.2,481.77,411.51,480.15,411.51z"/>
			<path class="st8" d="M480.15,459.56H247.72V450h232.43c1.62,0,2.93,1.31,2.93,2.93v3.71
				C483.08,458.25,481.77,459.56,480.15,459.56z"/>
			<path class="st0" d="M476.06,450l-202.08,0c-10.63,0-19.24-8.62-19.24-19.24v0c0-10.63,8.62-19.24,19.24-19.24h202.08
				C470.64,424.34,470.64,437.17,476.06,450z"/>
			<path class="st7" d="M254.74,459.56h-93.43c-9.62,0-17.42-7.8-17.42-17.42v-22.17c0-9.96,8.07-18.04,18.04-18.04h95
				C236.07,414.58,237.63,444.85,254.74,459.56z"/>
			<g>
				<path class="st6" d="M451.51,432.54c0,0.15-41.48,0.27-92.63,0.27c-51.17,0-92.64-0.12-92.64-0.27c0-0.15,41.47-0.27,92.64-0.27
					C410.03,432.27,451.51,432.39,451.51,432.54z"/>
			</g>
			<g>
				<path class="st6" d="M470.58,441.09c0,0.15-41.48,0.27-92.63,0.27c-51.17,0-92.64-0.12-92.64-0.27c0-0.15,41.47-0.27,92.64-0.27
					C429.1,440.83,470.58,440.95,470.58,441.09z"/>
			</g>
			<g>
				<path class="st6" d="M464.95,424.6c0,0.15-41.48,0.27-92.63,0.27c-51.17,0-92.64-0.12-92.64-0.27c0-0.15,41.47-0.27,92.64-0.27
					C423.48,424.33,464.95,424.45,464.95,424.6z"/>
			</g>
			<g>
				<path class="st6" d="M244.59,455.52c0,0.15-19.42,0.27-43.36,0.27c-23.95,0-43.36-0.12-43.36-0.27c0-0.15,19.41-0.27,43.36-0.27
					C225.18,455.26,244.59,455.38,244.59,455.52z"/>
			</g>
			<g>
				<path class="st6" d="M244.59,406.73c0,0.15-19.42,0.27-43.36,0.27c-23.95,0-43.36-0.12-43.36-0.27c0-0.15,19.41-0.27,43.36-0.27
					C225.18,406.46,244.59,406.58,244.59,406.73z"/>
			</g>
		</g>
		<g>
			<path class="st11" d="M310.84,402.15h-94.66c-7.19,0-13.01-5.83-13.01-13.01v-6.97c0-7.19,5.83-13.01,13.01-13.01h94.66V402.15z"
				/>
			<path class="st11" d="M475.68,376.93H287.52v-7.77h188.16c1.69,0,3.07,1.37,3.07,3.07v1.64
				C478.75,375.56,477.37,376.93,475.68,376.93z"/>
			<path class="st11" d="M475.68,402.15H287.52v-7.77h188.16c1.69,0,3.07,1.37,3.07,3.07v1.64
				C478.75,400.78,477.37,402.15,475.68,402.15z"/>
			<path class="st0" d="M473.04,394.38h-171.1c-4.82,0-8.72-3.91-8.72-8.72l0,0c0-4.82,3.91-8.72,8.72-8.72h171.1
				C468.64,382.75,468.64,388.56,473.04,394.38z"/>
			<path class="st7" d="M293.22,402.15h-76.96c-7.23,0-13.1-5.86-13.1-13.1v-6.53c0-7.38,5.98-13.36,13.36-13.36H295
				C278.05,376.4,279.32,393.73,293.22,402.15z"/>
			<g>
				<path class="st6" d="M453.09,384.28c0,0.15-33.7,0.27-75.26,0.27c-41.58,0-75.27-0.12-75.27-0.27c0-0.15,33.69-0.27,75.27-0.27
					C419.39,384.02,453.09,384.14,453.09,384.28z"/>
			</g>
			<g>
				<path class="st6" d="M468.58,388.98c0,0.15-33.7,0.27-75.26,0.27c-41.58,0-75.27-0.12-75.27-0.27c0-0.15,33.69-0.27,75.27-0.27
					C434.88,388.71,468.58,388.83,468.58,388.98z"/>
			</g>
			<g>
				<path class="st6" d="M284.98,398.87c0,0.15-15.77,0.27-35.23,0.27c-19.46,0-35.23-0.12-35.23-0.27c0-0.15,15.77-0.27,35.23-0.27
					C269.21,398.6,284.98,398.72,284.98,398.87z"/>
			</g>
			<g>
				<path class="st6" d="M284.98,373.05c0,0.15-15.77,0.27-35.23,0.27c-19.46,0-35.23-0.12-35.23-0.27c0-0.15,15.77-0.27,35.23-0.27
					C269.21,372.78,284.98,372.9,284.98,373.05z"/>
			</g>
			<g>
				<path class="st6" d="M476.5,369.16c0,0.15-57.87,0.27-129.23,0.27c-71.39,0-129.24-0.12-129.24-0.27
					c0-0.15,57.85-0.27,129.24-0.27C418.63,368.89,476.5,369.01,476.5,369.16z"/>
			</g>
		</g>
		<polygon class="st8" points="372.73,339.64 372.73,357.56 378.94,353.58 385.86,357.56 385.86,339.64 		"/>
	</g>
</g>
<g id="Pencil">
	<g>
		<g>
			<g>
				<polygon class="st8" points="435.84,161.77 404.57,187.82 357.01,281.78 386.66,295.18 432.92,203.03 				"/>
				<g class="st14">
					<path class="st9" d="M432.92,203.03c-1.6,0.21-3.07-0.8-2.95-2.42c-1.96,2.28-5.42,3.13-8.2,2c-2.79-1.12-4.7-4.13-4.52-7.13
						c-2.62,1.41-5.99,1.29-8.51-0.3c-2.51-1.59-4.07-4.58-3.92-7.55l31.03-25.85L432.92,203.03z"/>
				</g>
				<path class="st8" d="M423.26,172.25c0,0,0.47,7.78,11.38,6.43l1.2-16.9L423.26,172.25z"/>
			</g>
		</g>
		<path class="st7" d="M417.24,195.48l-45.85,92.3l-14.39-5.99l47.56-93.97l0.24-0.19c0,0-0.18,1.74,0.65,3.66
			c0.55,1.28,1.55,2.73,3.08,3.76c1.96,1.33,4.05,1.59,5.69,1.39C415.99,196.21,417.24,195.48,417.24,195.48z"/>
		<path class="st7" d="M429.96,200.61l-47.11,92.86l3.8,1.72l46.25-92.16c0,0-2.32,0.4-2.93-1.82
			C429.94,201.03,429.97,200.82,429.96,200.61z"/>
		<g>
			<path class="st9" d="M417.01,186.52c0.02,0.01-0.15,0.11-0.16,0.42c-0.01,0.28,0.21,0.8,0.8,0.86c0.56,0.07,1.28-0.15,1.97-0.56
				c0.34-0.21,0.67-0.52,0.84-0.94c0.18-0.41,0.2-0.94-0.09-1.34c-0.28-0.41-0.81-0.62-1.35-0.68c-0.55-0.07-1.14,0-1.74,0.1
				c-1.19,0.21-2.45,0.64-3.57,1.39c-0.54,0.39-1.03,0.94-1.1,1.62c-0.07,0.68,0.31,1.37,0.88,1.81c1.19,0.86,2.88,0.85,4.38,0.55
				c3.07-0.67,5.52-3.1,6.11-5.74c0.12-0.66-0.04-1.33-0.47-1.8c-0.41-0.48-0.98-0.78-1.53-1c-1.13-0.42-2.27-0.61-3.3-0.66
				c-2.07-0.11-3.73,0.33-4.82,0.72c-0.54,0.21-0.95,0.39-1.23,0.53c-0.27,0.14-0.42,0.2-0.42,0.2s0.53-0.37,1.62-0.81
				c1.08-0.41,2.75-0.89,4.86-0.8c1.05,0.05,2.19,0.22,3.36,0.65c0.57,0.23,1.17,0.53,1.62,1.05c0.46,0.5,0.66,1.26,0.52,1.96
				c-0.61,2.75-3.11,5.23-6.27,5.92c-0.79,0.18-1.59,0.22-2.37,0.16c-0.78-0.07-1.57-0.27-2.19-0.75c-0.61-0.47-1.03-1.23-0.95-2
				c0.08-0.78,0.63-1.37,1.19-1.77c1.17-0.78,2.45-1.2,3.66-1.41c0.61-0.1,1.21-0.17,1.79-0.09c0.57,0.07,1.15,0.3,1.46,0.77
				c0.32,0.46,0.28,1.06,0.09,1.49c-0.19,0.45-0.55,0.77-0.91,0.99c-0.73,0.41-1.45,0.62-2.05,0.53c-0.63-0.09-0.87-0.66-0.83-0.95
				C416.83,186.6,417.02,186.51,417.01,186.52z"/>
		</g>
		<g>
			<path class="st9" d="M433.78,185.95c0,0.03-0.46-0.07-1.29-0.04c-0.82,0.03-2.02,0.27-3.35,0.9c-1.35,0.62-2.78,1.65-4.32,2.88
				c-1.54,1.2-3.26,2.61-5.44,3.37c-2.17,0.76-4.45,0.75-6.36,0.25c-1.93-0.5-3.47-1.51-4.57-2.52c-1.1-1.02-1.76-2.06-2.15-2.79
				c-0.39-0.74-0.52-1.18-0.52-1.18c0.01,0,0.06,0.1,0.15,0.3c0.09,0.2,0.24,0.49,0.44,0.84c0.41,0.71,1.09,1.72,2.19,2.72
				c1.09,0.98,2.61,1.96,4.51,2.44c1.88,0.48,4.11,0.48,6.24-0.26c2.13-0.74,3.83-2.14,5.39-3.32c1.54-1.22,3.01-2.25,4.38-2.86
				c1.36-0.62,2.58-0.84,3.42-0.84C433.33,185.82,433.78,185.95,433.78,185.95z"/>
		</g>
		<g>
			<path class="st9" d="M433.6,195.37c-0.02,0.06-0.6-0.87-2.14-1.03c-1.5-0.15-3.6,0.28-5.83,0.85c-2.24,0.6-4.19,1.41-5.56,2.07
				c-0.69,0.33-1.23,0.62-1.61,0.81c-0.37,0.2-0.59,0.31-0.59,0.3c-0.01-0.01,0.19-0.15,0.55-0.37c0.36-0.22,0.9-0.53,1.58-0.88
				c1.36-0.7,3.31-1.54,5.57-2.14c1.13-0.31,2.22-0.53,3.22-0.68c1-0.15,1.92-0.22,2.69-0.11c0.77,0.1,1.35,0.41,1.68,0.69
				C433.48,195.16,433.6,195.37,433.6,195.37z"/>
		</g>
		<g>
			<path class="st9" d="M420.62,201.99c-0.02-0.02,0.37-0.36,1.05-0.84c0.68-0.47,1.68-1.11,2.96-1.33c1.28-0.24,2.5,0.19,3.12,0.77
				c0.32,0.28,0.52,0.57,0.62,0.78c0.11,0.21,0.13,0.34,0.12,0.34c-0.04,0.02-0.21-0.49-0.85-1c-0.62-0.52-1.75-0.9-2.98-0.67
				c-1.23,0.21-2.22,0.81-2.91,1.24C421.06,201.72,420.64,202.02,420.62,201.99z"/>
		</g>
		<g>
			<path class="st9" d="M434.6,180.35c0,0.01-0.05,0.05-0.15,0.12c-0.1,0.07-0.25,0.19-0.46,0.32c-0.2,0.13-0.47,0.29-0.81,0.36
				c-0.35,0.08-0.76,0.03-1.18-0.07c-0.85-0.19-1.8-0.62-2.86-0.99c-1.07-0.37-2.28-0.68-3.57-0.89c-2.58-0.42-4.97-0.44-6.69-0.45
				c-0.75,0-1.42,0-2.04,0c-0.48,0-0.75-0.01-0.75-0.03c0-0.02,0.27-0.04,0.75-0.06c0.48-0.02,1.18-0.05,2.04-0.07
				c1.72-0.03,4.12-0.04,6.72,0.39c1.3,0.21,2.52,0.53,3.6,0.92c1.08,0.39,2,0.82,2.83,1.03c0.83,0.28,1.51,0.05,1.91-0.21
				C434.36,180.48,434.59,180.34,434.6,180.35z"/>
		</g>
	</g>
</g>
<g id="Graduation_Cap">
	<g>
		<g>
			<path class="st8" d="M467.74,265.27c0,21.25,0,42.49,0,63.74c0,6.06,0,12.12,0,18.17c0,0.83,1.28,0.83,1.28,0
				c0-21.25,0-42.49,0-63.74c0-6.06,0-12.12,0-18.17C469.03,264.44,467.74,264.44,467.74,265.27L467.74,265.27z"/>
		</g>
		<path class="st8" d="M473.02,329.13c0,2.55-2.07,4.62-4.62,4.62c-2.55,0-4.62-2.07-4.62-4.62c0-2.55,2.07-4.62,4.62-4.62
			C470.95,324.51,473.02,326.58,473.02,329.13z"/>
		<path class="st8" d="M467.1,331.52c0,0-3.36,3.36-4.37,13.23c-1.01,9.87-1.23,14.8-1.23,14.8l9.08,0.56c0,0,0-7.4,0-7.07
			c0,0.34,1.79,5.27,1.79,5.27l7.18-2.36C479.55,355.97,476.97,329.73,467.1,331.52z"/>
		<rect x="265.67" y="271.97" class="st6" width="154.2" height="55.59"/>
		<rect x="210.28" y="262.41" class="st6" width="263.75" height="9.57"/>
		<path class="st7" d="M265.67,311.79c0,0,46.85-16.81,77.1-23.01s77.1-4.14,77.1-4.14v-12.67h-154.2V311.79z"/>
		<rect x="210.28" y="262.41" class="st7" width="95.4" height="9.57"/>
		<g>
			<path class="st11" d="M472.12,271.97c0,0.15-58.65,0.27-130.97,0.27c-72.35,0-130.99-0.12-130.99-0.27
				c0-0.15,58.63-0.27,130.99-0.27C413.47,271.71,472.12,271.83,472.12,271.97z"/>
		</g>
		<g>
			<path class="st11" d="M305.53,272.05c-0.15,0-0.27-2.18-0.27-4.86c0-2.69,0.12-4.86,0.27-4.86c0.15,0,0.27,2.18,0.27,4.86
				C305.79,269.88,305.67,272.05,305.53,272.05z"/>
		</g>
		<g>
			<path class="st11" d="M327.52,327.57c-0.15,0-0.27-10.85-0.27-24.22c0-13.38,0.12-24.23,0.27-24.23c0.15,0,0.27,10.84,0.27,24.23
				C327.79,316.72,327.67,327.57,327.52,327.57z"/>
		</g>
	</g>
</g>
<g id="Character">
	<g>
		<g>
			<g>
				<g>
					<path class="st15" d="M104.45,395.84l17.73-7.15l13.54-35.38l18.05,9.3c0,0-1.75,3.49-5.48,12.14
						c-1.44,3.34-6.21,12.64-8.16,17.17c-3.67,8.55-11.96,14.2-21.27,14.45l-16.64,0.43L104.45,395.84z"/>
				</g>
			</g>
			<path class="st15" d="M95.64,388.99l-2.68-2.82c-0.52-0.33-1.12-0.5-1.73-0.48l-8.49,0.26c-1.6,0.16-3.04,1.03-3.93,2.38
				l-3.09,5.25c0,0-2.07,3.59-1.81,4.47c0.4,1.32,1.79,1.05,1.79,1.05s0.29,1.66,0.85,2c0.93,0.56,2.06,0.13,2.06,0.13
				c0.31,0.64,0.96,1.06,1.67,1.01c0.14-0.01,0.29-0.04,0.44-0.08c1.01-0.31,1.46-2.26,1.46-2.26l4.3-0.8c0,0,6.18,4.13,8.36,6.84
				c2.18,2.71,7.88,0.64,7.88,0.64l2.13-10.2L95.64,388.99z"/>
			<g>
				<path class="st16" d="M89.39,390.21c0.01,0.06-0.68,0.19-1.86,0.31c-1.17,0.13-2.83,0.18-4.69,0.42l0.2-0.15
					c-0.3,0.66-0.68,1.35-1.1,2.03c-1.32,2.11-2.87,3.75-4.08,4.83c-1.22,1.07-2.09,1.57-2.13,1.52c-0.05-0.07,0.74-0.67,1.87-1.8
					c1.12-1.13,2.6-2.78,3.88-4.83c0.42-0.66,0.78-1.33,1.09-1.96l0.06-0.13l0.14-0.02c1.92-0.22,3.56-0.19,4.73-0.23
					C88.68,390.16,89.38,390.15,89.39,390.21z"/>
			</g>
			<g>
				<path class="st16" d="M89.58,394.26c0.01,0.05-0.57,0.28-1.6,0.43c-1.02,0.15-2.5,0.2-4.15-0.14l0.3-0.17
					c-0.17,0.5-0.37,1.02-0.62,1.54c-0.9,1.88-2.16,3.32-3.19,4.19c-1.03,0.88-1.79,1.25-1.82,1.19c-0.05-0.07,0.63-0.55,1.57-1.47
					c0.94-0.92,2.1-2.34,2.96-4.14c0.24-0.5,0.44-0.99,0.61-1.47l0.08-0.22l0.22,0.05C87.12,394.74,89.57,394.1,89.58,394.26z"/>
			</g>
			<g>
				<path class="st15" d="M100.36,396.35c-2.52-1.17-5.05-2.35-7.57-3.52c-1.05-0.49-2.14-0.98-3.3-0.98
					c-1.24,0.01-2.4,0.59-3.51,1.16c-1.36,0.7-2.71,1.41-4.07,2.11c-0.22,0.11-0.46,0.25-0.54,0.49c-0.1,0.31,0.12,0.63,0.35,0.86
					c2.03,2.06,5.69,2.21,7.88,0.32c0.65,1.78,1.33,3.59,2.55,5.04c1.22,1.45,3.12,2.47,4.99,2.13"/>
				<g>
					<path class="st16" d="M97.15,403.96c0,0.01-0.07,0.04-0.2,0.07c-0.14,0.03-0.34,0.06-0.62,0.07c-0.54,0.01-1.36-0.09-2.28-0.55
						c-0.91-0.45-1.9-1.27-2.68-2.45c-0.8-1.17-1.39-2.64-1.98-4.22l0.38,0.1c-1.12,0.98-2.74,1.51-4.41,1.38
						c-0.83-0.06-1.68-0.28-2.46-0.69c-0.38-0.21-0.76-0.45-1.09-0.76c-0.16-0.15-0.34-0.29-0.49-0.5c-0.14-0.19-0.3-0.48-0.22-0.82
						c0.07-0.28,0.28-0.46,0.45-0.57c0.18-0.11,0.33-0.18,0.49-0.27c0.32-0.16,0.63-0.33,0.94-0.49c0.62-0.32,1.24-0.64,1.85-0.95
						c1.21-0.6,2.36-1.3,3.65-1.59c1.31-0.32,2.58,0.09,3.59,0.54c1.02,0.47,1.95,0.92,2.8,1.33c1.64,0.8,2.99,1.46,4.03,1.97
						c0.95,0.48,1.46,0.75,1.45,0.79c-0.02,0.03-0.56-0.18-1.53-0.6c-1.05-0.47-2.43-1.08-4.1-1.81c-0.87-0.39-1.81-0.81-2.82-1.26
						c-1-0.43-2.14-0.77-3.31-0.47c-1.17,0.27-2.3,0.96-3.51,1.57c-0.6,0.31-1.22,0.63-1.84,0.96c-0.31,0.16-0.63,0.33-0.94,0.49
						c-0.32,0.16-0.66,0.32-0.67,0.49c-0.06,0.2,0.23,0.54,0.54,0.79c0.3,0.27,0.64,0.49,0.99,0.69c0.71,0.37,1.48,0.58,2.25,0.64
						c1.53,0.13,3.03-0.34,4.06-1.22l0.26-0.23l0.12,0.32c0.57,1.59,1.12,3.03,1.86,4.17c0.73,1.15,1.63,1.94,2.49,2.41
						C95.93,404.25,97.17,403.86,97.15,403.96z"/>
				</g>
			</g>
		</g>
		<g>
			<g>
				<path class="st6" d="M198.8,297.27c0.07-5.68,0.96-11.34,0.75-17.02c-0.22-5.68-1.71-11.59-5.67-15.66
					c-3.96-4.07-10.84-5.63-15.47-2.34l-0.95,4.83c1.82,21.9,1.58,44.16,3.4,66.06c0.24,2.88,2.57,5.48,3.88,8.05
					c1.31,2.57,3.93,4.7,6.82,4.52c3.77-0.23,6.24-4.05,7.42-7.64C203.21,325.06,198.63,310.96,198.8,297.27z"/>
			</g>
			<g>
				<path class="st8" d="M185.14,267.82c-0.83-1.4-1.67-2.83-2.89-3.91c-1.21-1.09-2.87-1.8-4.47-1.49
					c-0.75,0.14-1.52,0.57-1.77,1.29c-0.25,0.72,0.29,1.69,1.05,1.63l0.16,0.14c1.7,1.5,3.43,2.98,5.19,4.41
					c0.44,0.36,0.9,0.73,1.45,0.9c0.55,0.17,1.21,0.09,1.59-0.34C186.08,269.74,185.62,268.63,185.14,267.82z"/>
			</g>
			<g>
				<path class="st6" d="M188.35,273.4c-5.66-6.92-13.26-10.9-22.2-11.05c-5.04-0.08-7.13,0.96-10.76,1.94
					c-3.63,0.98-6.91,2.93-9.07,6c-2.57,3.65-4.73,7.74-5.22,12.18c-0.5,4.56-1,9.15-0.66,13.73c0.34,4.58,1.59,9.18,4.28,12.9
					l11.64,2.02c6.43,0.22,12.95,0.43,19.21-1.04c6.26-1.47,12.35-4.84,15.71-10.33C195.94,292.14,194.01,280.31,188.35,273.4z"/>
			</g>
			<g>
				<path class="st15" d="M177.99,273.32l-15.52-6.17l-4.05,0.47c-9.12,0.03-15.42,10.09-15.48,17.48
					c-0.07,8.21,0.18,18.24,1.48,24.29c2.62,12.17,13.01,13.18,13.01,13.18s-0.21,6.48-0.29,10.57l23.76-1.72l1.19-53.94
					C182.01,275.24,180.23,273.43,177.99,273.32z"/>
				<g>
					<g>
						<path class="st16" d="M162.67,306.54c-0.08-0.64-0.44-1.21-0.9-1.6c-0.91-0.78-2.24-0.85-3.21-0.18
							c-0.97,0.67-1.53,2.05-1.35,3.33l0,0c0.55,0.75,1.38,1.26,2.31,1.34c0.14,0.01,0.29,0.02,0.43,0.01
							c0.7-0.02,1.42-0.26,1.95-0.77C162.44,308.15,162.77,307.34,162.67,306.54z"/>
					</g>
				</g>
				<g>
					<g>
						<g>
							<g>
								<g>
									<g>
										<g>
											<g>
												<g>
													<g>
														<g>
															<g>
																<g>
																	<g>
																		<g>
																			<g>
																				<g>
																					<g>
																						<g>
																							<g>
																								<path class="st6" d="M147.05,295.49c0.02,0.83,0.74,1.51,1.61,1.51c0.87,0,1.56-0.68,1.54-1.51
																									c-0.02-0.83-0.74-1.51-1.6-1.51C147.72,293.99,147.03,294.66,147.05,295.49z"/>
																							</g>
																						</g>
																					</g>
																				</g>
																			</g>
																		</g>
																	</g>
																</g>
															</g>
														</g>
													</g>
												</g>
											</g>
										</g>
									</g>
								</g>
							</g>
							<g>
								<g>
									<g>
										<g>
											<g>
												<g>
													<g>
														<g>
															<g>
																<g>
																	<g>
																		<g>
																			<g>
																				<g>
																					<g>
																						<g>
																							<g>
																								<g>
																									<path class="st6" d="M145.72,289.21c0.21,0.19,1.35-0.75,3.05-0.84c1.69-0.11,2.98,0.69,3.15,0.47
																										c0.09-0.1-0.13-0.46-0.7-0.82c-0.55-0.36-1.48-0.69-2.54-0.63c-1.05,0.06-1.92,0.5-2.41,0.93
																										C145.77,288.74,145.61,289.12,145.72,289.21z"/>
																								</g>
																							</g>
																						</g>
																					</g>
																				</g>
																			</g>
																		</g>
																	</g>
																</g>
															</g>
														</g>
													</g>
												</g>
											</g>
										</g>
									</g>
								</g>
							</g>
							<g>
								<g>
									<g>
										<g>
											<g>
												<g>
													<g>
														<g>
															<g>
																<g>
																	<g>
																		<g>
																			<g>
																				<g>
																					<g>
																						<g>
																							<g>
																								<path class="st6" d="M156.6,302.5c0-0.1-1.06-0.22-2.78-0.35c-0.43-0.02-0.85-0.08-0.94-0.38
																									c-0.12-0.31,0.04-0.78,0.22-1.3c0.35-1.07,0.71-2.19,1.1-3.36c1.52-4.79,2.59-8.71,2.4-8.77
																									c-0.19-0.06-1.58,3.77-3.1,8.56c-0.36,1.18-0.71,2.3-1.04,3.38c-0.14,0.5-0.39,1.07-0.13,1.71
																									c0.13,0.32,0.46,0.53,0.75,0.59c0.28,0.07,0.53,0.06,0.74,0.06C155.54,302.64,156.6,302.59,156.6,302.5z"/>
																							</g>
																						</g>
																					</g>
																				</g>
																			</g>
																		</g>
																	</g>
																</g>
															</g>
														</g>
													</g>
												</g>
											</g>
										</g>
									</g>
								</g>
							</g>
							<g>
								<g>
									<g>
										<g>
											<g>
												<g>
													<g>
														<g>
															<g>
																<g>
																	<g>
																		<g>
																			<g>
																				<g>
																					<g>
																						<g>
																							<path class="st16" d="M157.4,322.56c0,0,8.29,0.08,16.2-5.29c0,0-3.91,8.75-16.26,8.27L157.4,322.56z"/>
																						</g>
																					</g>
																				</g>
																			</g>
																		</g>
																	</g>
																</g>
															</g>
														</g>
													</g>
												</g>
											</g>
										</g>
									</g>
								</g>
							</g>
							<g>
								<g>
									<g>
										<g>
											<g>
												<g>
													<g>
														<g>
															<g>
																<g>
																	<g>
																		<g>
																			<g>
																				<g>
																					<g>
																						<g>
																							<g>
																								<path class="st6" d="M161.65,303.39c-0.28,0-0.18,1.84-1.68,3.23c-1.5,1.4-3.47,1.3-3.47,1.55
																									c-0.02,0.12,0.46,0.33,1.28,0.31c0.81-0.02,1.98-0.34,2.9-1.19c0.92-0.85,1.27-1.94,1.29-2.7
																									C162.01,303.82,161.78,303.38,161.65,303.39z"/>
																							</g>
																						</g>
																					</g>
																				</g>
																			</g>
																		</g>
																	</g>
																</g>
															</g>
														</g>
													</g>
												</g>
											</g>
										</g>
									</g>
								</g>
							</g>
							<g>
								<g>
									<g>
										<g>
											<g>
												<g>
													<g>
														<g>
															<g>
																<g>
																	<g>
																		<g>
																			<g>
																				<g>
																					<g>
																						<g>
																							<g>
																								<g>
																									<g>
																										<path class="st6" d="M146.29,283.28c0.31,0.4,1.59,0.05,3.11,0.09c1.52-0.01,2.8,0.37,3.11-0.02
																											c0.14-0.19-0.05-0.58-0.6-0.97c-0.54-0.39-1.46-0.72-2.5-0.73c-1.05-0.01-1.97,0.3-2.51,0.67
																											C146.35,282.69,146.16,283.08,146.29,283.28z"/>
																									</g>
																								</g>
																							</g>
																						</g>
																					</g>
																				</g>
																			</g>
																		</g>
																	</g>
																</g>
															</g>
														</g>
													</g>
												</g>
											</g>
										</g>
									</g>
								</g>
							</g>
							<g>
								<g>
									<g>
										<g>
											<g>
												<g>
													<g>
														<g>
															<g>
																<g>
																	<g>
																		<g>
																			<g>
																				<g>
																					<g>
																						<g>
																							<g>
																								<path class="st6" d="M165.54,295.07c0.04,0.83-0.62,1.56-1.49,1.62c-0.87,0.06-1.61-0.56-1.65-1.39
																									c-0.04-0.83,0.62-1.56,1.49-1.62C164.75,293.61,165.49,294.23,165.54,295.07z"/>
																							</g>
																						</g>
																					</g>
																				</g>
																			</g>
																		</g>
																	</g>
																</g>
															</g>
														</g>
													</g>
												</g>
											</g>
										</g>
									</g>
								</g>
							</g>
							<g>
								<g>
									<g>
										<g>
											<g>
												<g>
													<g>
														<g>
															<g>
																<g>
																	<g>
																		<g>
																			<g>
																				<g>
																					<g>
																						<g>
																							<g>
																								<g>
																									<path class="st6" d="M168.64,288.55c-0.19,0.21-1.4-0.65-3.1-0.62c-1.69,0.01-2.92,0.9-3.11,0.7
																										c-0.09-0.09,0.1-0.46,0.64-0.87c0.53-0.4,1.43-0.8,2.49-0.81c1.06-0.01,1.95,0.36,2.47,0.75
																										C168.55,288.09,168.74,288.46,168.64,288.55z"/>
																								</g>
																							</g>
																						</g>
																					</g>
																				</g>
																			</g>
																		</g>
																	</g>
																</g>
															</g>
														</g>
													</g>
												</g>
											</g>
										</g>
									</g>
								</g>
							</g>
							<g>
								<g>
									<g>
										<g>
											<g>
												<g>
													<g>
														<g>
															<g>
																<g>
																	<g>
																		<g>
																			<g>
																				<g>
																					<g>
																						<g>
																							<g>
																								<g>
																									<g>
																										<path class="st6" d="M167.62,283.13c-0.33,0.39-1.64,0.01-3.22,0.02c-1.57-0.04-2.9,0.31-3.22-0.09
																											c-0.14-0.19,0.07-0.58,0.64-0.96c0.57-0.37,1.52-0.69,2.6-0.68c1.08,0.01,2.02,0.34,2.58,0.73
																											C167.58,282.54,167.77,282.94,167.62,283.13z"/>
																									</g>
																								</g>
																							</g>
																						</g>
																					</g>
																				</g>
																			</g>
																		</g>
																	</g>
																</g>
															</g>
														</g>
													</g>
												</g>
											</g>
										</g>
									</g>
								</g>
							</g>
						</g>
					</g>
				</g>
				<g>
					<g>
						<g>
							<g>
								<g>
									<g>
										<g>
											<g>
												<g>
													<g>
														<g>
															<g>
																<g>
																	<g>
																		<g>
																			<g>
																				<g>
																					<path class="st15" d="M179.98,298.11c-0.05-0.91,0.89-3.13,1.79-3.32c2.39-0.51,6.75-0.55,7.12,5.57
																						c0.51,8.37-7.99,7.16-8.02,6.92C180.85,307.09,180.15,301.27,179.98,298.11z"/>
																				</g>
																			</g>
																		</g>
																	</g>
																</g>
															</g>
														</g>
													</g>
												</g>
											</g>
										</g>
									</g>
								</g>
							</g>
						</g>
					</g>
					<g>
						<g>
							<g>
								<g>
									<g>
										<g>
											<g>
												<g>
													<g>
														<g>
															<g>
																<g>
																	<g>
																		<g>
																			<g>
																				<g>
																					<g>
																						<path class="st16" d="M182.99,304.08c0.03-0.03,0.15,0.09,0.4,0.19c0.25,0.09,0.67,0.15,1.09-0.04
																							c0.86-0.38,1.52-1.83,1.47-3.34c-0.03-0.76-0.23-1.48-0.54-2.06c-0.29-0.6-0.72-1-1.17-1.05
																							c-0.45-0.08-0.75,0.21-0.84,0.45c-0.1,0.24-0.03,0.41-0.08,0.42c-0.02,0.02-0.19-0.13-0.14-0.48
																							c0.02-0.17,0.11-0.37,0.3-0.55c0.19-0.18,0.48-0.28,0.79-0.26c0.65,0.01,1.26,0.56,1.6,1.2
																							c0.37,0.64,0.62,1.44,0.65,2.3c0.05,1.69-0.72,3.32-1.9,3.74c-0.58,0.19-1.08,0.04-1.35-0.14
																							C183.02,304.29,182.96,304.1,182.99,304.08z"/>
																					</g>
																				</g>
																			</g>
																		</g>
																	</g>
																</g>
															</g>
														</g>
													</g>
												</g>
											</g>
										</g>
									</g>
								</g>
							</g>
						</g>
					</g>
				</g>
			</g>
			<g>
				<g>
					<path class="st6" d="M182.11,294.82l-2.13,2.2c-9.18-8.79-27.12-30.79-26.12-29.48c0,0,6.29-2.59,13.11-1.42
						c6.83,1.16,19.77,4.58,19.57,12.63C186.35,286.81,182.11,294.82,182.11,294.82z"/>
				</g>
			</g>
			<g>
				<path class="st11" d="M194.27,292.97c0.01,0-0.03-0.17-0.13-0.48c-0.1-0.31-0.28-0.77-0.57-1.32c-0.58-1.1-1.69-2.59-3.5-3.93
					c-1.77-1.38-4.24-2.5-7.04-3.39c-2.8-0.91-5.95-1.62-9.05-2.95c-3.12-1.28-5.9-2.93-8.27-4.63c-2.36-1.72-4.31-3.5-5.83-5.1
					c-1.52-1.6-2.63-3.02-3.37-4c-0.34-0.47-0.62-0.85-0.84-1.15c-0.19-0.26-0.3-0.4-0.31-0.39c-0.01,0.01,0.07,0.16,0.24,0.44
					c0.17,0.28,0.42,0.69,0.78,1.2c0.71,1.02,1.78,2.47,3.29,4.11c1.5,1.64,3.45,3.46,5.82,5.21c2.38,1.73,5.18,3.41,8.33,4.71
					c3.14,1.35,6.31,2.05,9.1,2.93c2.79,0.86,5.21,1.93,6.98,3.25c1.79,1.29,2.91,2.71,3.53,3.77
					C194.04,292.32,194.22,292.99,194.27,292.97z"/>
			</g>
			<g>
				<path class="st11" d="M191.83,294.29c0,0,0.08-0.69-0.32-1.83c-0.39-1.13-1.38-2.68-3.14-3.94c-1.75-1.3-4.24-2.11-6.98-2.74
					c-2.75-0.61-5.74-1.38-8.68-2.75c-2.93-1.36-5.56-3-7.73-4.77c-2.18-1.76-3.94-3.58-5.3-5.21c-1.37-1.62-2.3-3.08-2.96-4.06
					c-0.29-0.48-0.52-0.86-0.71-1.17c-0.17-0.27-0.26-0.4-0.27-0.4c-0.01,0.01,0.06,0.16,0.2,0.44c0.17,0.32,0.38,0.72,0.64,1.22
					c0.62,1.02,1.51,2.51,2.86,4.17c1.34,1.67,3.1,3.53,5.29,5.33c2.18,1.81,4.84,3.48,7.8,4.86c2.97,1.38,6.02,2.16,8.76,2.75
					c2.74,0.6,5.18,1.36,6.9,2.6c1.74,1.2,2.74,2.66,3.16,3.75C191.8,293.62,191.77,294.3,191.83,294.29z"/>
			</g>
			<g>
				<g>
					<path class="st11" d="M181.83,308.99c-0.01-0.06,0.71-0.15,1.95-0.47c1.23-0.34,2.97-1.1,4.68-2.62
						c1.73-1.5,3.26-3.83,4.35-6.65c1.08-2.83,1.73-6.15,1.81-9.65c0.04-1.75-0.1-3.45-0.4-5.07c-0.33-1.62-0.81-3.13-1.39-4.53
						c-1.2-2.79-2.79-5.05-4.33-6.75c-3.11-3.41-5.71-4.78-5.62-4.9c0.01-0.02,0.17,0.07,0.46,0.24c0.29,0.18,0.74,0.42,1.26,0.8
						c1.07,0.73,2.57,1.89,4.18,3.59c1.61,1.69,3.27,3.97,4.51,6.81c0.6,1.43,1.11,2.98,1.45,4.63c0.32,1.66,0.46,3.41,0.43,5.19
						c-0.09,3.56-0.76,6.94-1.89,9.82c-1.13,2.88-2.75,5.26-4.57,6.76c-1.79,1.53-3.62,2.25-4.88,2.53
						c-0.63,0.17-1.15,0.18-1.48,0.24C182.01,308.99,181.84,309,181.83,308.99z"/>
				</g>
			</g>
		</g>
		<g>
			<g>
				<path class="st6" d="M192.48,411.91L143,419.1c-18.59,5.26-38.17,6.8-58.64,5.02l74.47,34.74l29.9,0.46c0,0,9.1,0.03,10.69-7.94
					c1.62-8.09,3.36-32.13,3.36-32.13S196.87,414.12,192.48,411.91z"/>
			</g>
			<g class="st7">
				<g>
					<g>
						<path d="M192.33,432.74c0.81,4.95,1.11,9.98,0.87,14.99c3.06-3.3,4.46-8.07,3.67-12.5c-0.44-2.45-1.45-5.13-0.17-7.26
							c0.86-1.43,3.13-3.07,2.8-4.7c0,0-1.99,0-3.79-0.07c-1.45-0.06-4.46-0.15-4.46-0.15c1.52,3.92,1.41,6.33,0.8,9.83"/>
					</g>
				</g>
			</g>
			<g>
				<g>
					<g>
						<polygon class="st15" points="157.21,331.1 181.25,328.5 185.65,332.51 168.49,342.6 160.92,346.52 153.44,344.25 
							151.07,339.79 						"/>
					</g>
				</g>
				<g>
					<g>
						<g>
							<path class="st11" d="M124.8,360.37c0,0,7.54-14.46,9.4-17.62c3.18-5.39,9.12-8.44,9.12-8.44l13.89-3.21
								c0,0-1.44,6.96,7.2,7.44c10.99,0.61,17.82-9.93,17.82-9.93s12.54,1.29,16.01,2.75c3.46,1.46,13.26,5.55,14.7,18.58
								l3.36,21.27l-26.5,2.02l0.37,28.31l-11.26,9.21c0,0-32.34,11.13-34.4,11.87c-0.98,0.35-0.74-13.4-3.05-25.17l-4.36-10.6
								c-1.75-4.24-2.83-8.74-3.09-13.32c-0.17-3.01-0.09-5.3-0.09-5.3S127.11,365.9,124.8,360.37z"/>
						</g>
					</g>
					<g>
						<g>
							<g>
								<path class="st15" d="M145.68,411.49l44.43-13.34l-0.31-24.93l22.63-1.72c0,0-1.81,12.92-2.07,19.54
									c-0.38,9.53-4.96,22.84-8.03,25.67c-3.07,2.83-57.82,5.9-57.82,5.9L145.68,411.49z"/>
							</g>
						</g>
						<g>
							<g>
								<path class="st15" d="M120.48,419.33c0.37,0.61,1.06,0.97,1.76,0.85c0.14-0.02,0.28-0.06,0.43-0.12
									c0.97-0.4,0.72-2.43,0.72-2.43l4.73-1.15c0,0,6.54,3.53,8.96,6.02c2.42,2.49,7.91-0.1,7.91-0.1l1.17-10.36l-9.43-7.29
									c0,0,0.58,0.43-0.15-1.01c-0.72-1.44-3.45-0.67-3.45-0.67c-0.49-0.7-2.32-0.83-2.32-0.83l-7.66,1.49
									c-1.58,0.31-2.93,1.31-3.69,2.73l-2.87,5.43c0,0-1.44,3.86-1.09,4.7c0.52,1.27,1.88,0.88,1.88,0.88s0.57,2.42,1.22,2.46
									C119.26,419.98,120.48,419.33,120.48,419.33L120.48,419.33z"/>
							</g>
						</g>
						<g>
							<g>
								<g>
									<path class="st16" d="M136.37,410.73c0,0.08-1.04,0.07-2.68,0.27c-1.64,0.21-3.9,0.67-6.22,1.67
										c-1.16,0.49-2.22,1.06-3.15,1.64c-0.89,0.6-1.83,1.11-2.08,1.81c-0.12,0.34-0.03,0.68,0.16,0.91
										c0.18,0.24,0.42,0.38,0.62,0.45c0.42,0.14,0.67,0,0.69,0.05c0.02,0.01-0.22,0.23-0.73,0.14c-0.25-0.05-0.54-0.19-0.79-0.46
										c-0.25-0.26-0.42-0.73-0.28-1.2c0.13-0.46,0.49-0.84,0.88-1.16c0.4-0.31,0.82-0.62,1.29-0.93c0.93-0.62,2.01-1.21,3.2-1.71
										c2.37-1.02,4.7-1.44,6.38-1.56C135.34,410.53,136.38,410.67,136.37,410.73z"/>
								</g>
							</g>
						</g>
						<g>
							<g>
								<g>
									<path class="st16" d="M137.3,415.62c0,0.15-3.15,0.26-7,0.79c-3.85,0.51-6.92,1.24-6.96,1.1
										c-0.02-0.06,0.73-0.33,1.98-0.64c1.24-0.32,2.98-0.68,4.92-0.94c1.94-0.26,3.71-0.37,4.99-0.39
										C136.5,415.5,137.29,415.55,137.3,415.62z"/>
								</g>
							</g>
						</g>
						<g>
							<g>
								<g>
									<path class="st16" d="M120.51,419.13c-0.03,0-0.08-0.28-0.16-0.82c-0.07-0.53-0.17-1.3-0.18-2.26
										c0-0.48,0.01-1.01,0.09-1.58c0.08-0.57,0.3-1.19,0.63-1.74c0.62-1.11,1.5-2.28,2.67-3.19c1.17-0.9,2.34-1.68,3.55-2.16
										c1.2-0.47,2.35-0.65,3.3-0.77c0.95-0.11,1.73-0.15,2.26-0.17c0.53-0.02,0.83-0.01,0.83,0.02c0.01,0.08-1.17,0.21-3.04,0.49
										c-0.93,0.16-2.04,0.37-3.18,0.84c-1.13,0.46-2.29,1.24-3.41,2.12c-1.13,0.89-1.95,1.96-2.58,3.04
										c-0.67,1.03-0.72,2.16-0.77,3.1C120.48,417.94,120.62,419.13,120.51,419.13z"/>
								</g>
							</g>
						</g>
						<g>
							<g>
								<g>
									<path class="st16" d="M130.6,404.24c0.01,0.07-1.15,0.19-2.98,0.55c-1.76,0.41-4.59,0.76-6.03,3.34
										c-1.58,2.37-2.91,4.59-3.43,6.37c-0.56,1.77-0.41,2.95-0.51,2.95c-0.03,0-0.09-0.29-0.11-0.82
										c-0.02-0.53,0.03-1.31,0.28-2.23c0.45-1.87,1.77-4.17,3.36-6.55c0.41-0.6,0.85-1.17,1.39-1.64c0.53-0.47,1.17-0.77,1.75-1
										c1.19-0.44,2.31-0.63,3.24-0.77C129.42,404.18,130.59,404.18,130.6,404.24z"/>
								</g>
							</g>
						</g>
						<g>
							<g>
								<g>
									<path class="st16" d="M135.27,420.99c-0.01,0.01-0.18-0.1-0.49-0.32c-0.35-0.24-0.81-0.55-1.37-0.94
										c-1.21-0.79-3.01-1.92-5.35-3.11l0.11,0.01c-1.41,0.35-3,0.75-4.72,1.19l0.15-0.21c0.04,0.39,0.05,0.77,0,1.18
										c-0.05,0.4-0.14,0.83-0.45,1.19c-0.16,0.18-0.41,0.3-0.61,0.34c-0.21,0.07-0.44,0.11-0.67,0.09
										c-0.46-0.03-0.91-0.24-1.24-0.57c-0.08-0.08-0.16-0.17-0.23-0.27l-0.05-0.07l-0.02-0.04l-0.01-0.02l0,0
										c-0.06-0.02,0.55,0.15,0.29,0.08l0,0l-0.01,0l-0.15,0.07c-0.2,0.1-0.4,0.18-0.6,0.27c-0.21,0.08-0.42,0.16-0.64,0.21
										c-0.11,0.03-0.23,0.05-0.35,0.07c-0.12,0.01-0.26,0.03-0.45-0.05c-0.28-0.17-0.4-0.39-0.52-0.6
										c-0.11-0.21-0.21-0.42-0.29-0.64c-0.17-0.43-0.3-0.87-0.41-1.33l0.29,0.17c-0.61,0.16-1.36,0.06-1.83-0.47
										c-0.21-0.25-0.4-0.56-0.4-0.94c-0.01-0.34,0.04-0.64,0.1-0.94c0.24-1.2,0.63-2.36,1.05-3.55l0-0.01l0.01-0.02
										c0.49-0.92,1.01-1.9,1.53-2.9c0.33-0.62,0.65-1.23,0.97-1.84c0.32-0.59,0.6-1.24,1.08-1.79c0.46-0.54,1.02-0.98,1.65-1.29
										c0.62-0.32,1.32-0.45,1.94-0.56c2.54-0.49,4.96-0.95,7.23-1.38l0.03-0.01l0.03,0c0.45,0.04,0.88,0.11,1.3,0.24
										c0.41,0.13,0.85,0.28,1.17,0.69l-0.27-0.06c0.79-0.4,1.74-0.48,2.49-0.05c0.76,0.42,1.15,1.16,1.38,1.86l-0.07-0.1
										c2.71,2.08,4.92,3.78,6.5,4.99c0.73,0.57,1.31,1.03,1.75,1.38c0.4,0.32,0.6,0.5,0.59,0.51c-0.01,0.01-0.24-0.13-0.65-0.43
										c-0.46-0.33-1.06-0.76-1.81-1.3c-1.6-1.18-3.85-2.84-6.6-4.86l-0.04-0.03l-0.02-0.06c-0.21-0.62-0.59-1.29-1.21-1.62
										c-0.61-0.34-1.44-0.27-2.1,0.07l-0.16,0.08l-0.11-0.15c-0.19-0.25-0.57-0.41-0.95-0.52c-0.38-0.11-0.8-0.18-1.21-0.21
										l0.06,0c-2.26,0.45-4.68,0.92-7.22,1.42c-0.65,0.12-1.25,0.23-1.82,0.53c-0.56,0.28-1.07,0.68-1.49,1.17
										c-0.42,0.48-0.69,1.09-1.02,1.7c-0.32,0.61-0.64,1.22-0.97,1.84c-0.52,0.99-1.04,1.97-1.53,2.9l0.01-0.03
										c-0.42,1.16-0.8,2.32-1.04,3.46c-0.05,0.28-0.1,0.57-0.09,0.83c-0.01,0.22,0.12,0.45,0.28,0.64
										c0.31,0.37,0.88,0.45,1.34,0.34l0.24-0.06l0.06,0.23c0.11,0.43,0.23,0.87,0.39,1.27c0.15,0.39,0.36,0.85,0.58,1
										c0.01,0,0.1,0.02,0.2,0.01c0.09-0.01,0.19-0.03,0.29-0.05c0.2-0.05,0.39-0.12,0.59-0.19c0.19-0.08,0.39-0.16,0.57-0.25
										l0.14-0.07l0.01,0l0,0c-0.26-0.07,0.36,0.1,0.29,0.08l0,0l0.01,0.01l0.02,0.03l0.04,0.06c0.06,0.07,0.11,0.15,0.18,0.21
										c0.26,0.26,0.61,0.43,0.96,0.45c0.18,0.02,0.35-0.01,0.52-0.07c0.19-0.04,0.31-0.11,0.42-0.22
										c0.42-0.51,0.42-1.36,0.37-2.04l-0.01-0.18l0.16-0.04c1.73-0.41,3.32-0.79,4.74-1.12l0.06-0.01l0.05,0.03
										c2.35,1.24,4.12,2.41,5.31,3.25c0.59,0.43,1.04,0.77,1.33,1.01C135.13,420.85,135.28,420.98,135.27,420.99z"/>
								</g>
							</g>
						</g>
					</g>
				</g>
			</g>
			<g>
				<g>
					<g>
						<g>
							<path class="st6" d="M112.18,427.42c0,0-31.35-9.85-41.2-13.04c-16.95-5.5-28.05,0.06-31.55,6.13
								c-4.54,7.87,6.35,23.22,10.54,26.75c12.43,10.45,33.74,11.86,33.74,11.86l0,0l76.62-0.14l-22.37-30.33L112.18,427.42z"/>
						</g>
					</g>
					<g>
						<g>
							<g>
								<path class="st1" d="M116.87,441.64c-12.7,1.49-25.77-0.29-37.61-5.12c-2.07-0.84-4.11-1.78-6.28-2.33
									c-2.11-0.53-4.31-0.69-6.47-0.46c-1.71,0.18-3.53,0.7-4.57,2.07c-1.53,2.02-0.74,4.88,0.11,7.26
									c0.99,2.79,2.03,5.66,3.98,7.89c2.28,2.62,5.57,4.11,8.88,5.15c6.47,2.04,13.3,2.62,20.08,2.89l23.29-1.27L116.87,441.64z"
									/>
							</g>
						</g>
						<g>
							<g>
								<g>
									<path class="st6" d="M71.91,434.2c0.03-0.01,0.16,0.2,0.36,0.63c0.19,0.42,0.43,1.05,0.62,1.86
										c0.39,1.6,0.52,3.99-0.26,6.43c-0.79,2.44-2.28,4.3-3.53,5.38c-0.63,0.55-1.18,0.92-1.59,1.15
										c-0.4,0.23-0.64,0.33-0.65,0.3c-0.05-0.07,0.84-0.58,2-1.71c1.16-1.11,2.55-2.93,3.3-5.28c0.75-2.34,0.68-4.63,0.39-6.21
										C72.25,435.16,71.83,434.23,71.91,434.2z"/>
								</g>
							</g>
						</g>
					</g>
					<g>
						<g>
							<path class="st6" d="M192.19,425.5c-1.82-5.16-2.12-12.74-13.35-16.38c-11.22-3.64-19.72,3.34-25.48,5.76
								c-5.76,2.43-37.31,19.72-37.31,19.72s-5.94,10.59-4.25,15.27c1.69,4.67,9.37,9.3,9.37,9.3h22.78c0,0,3.39,0,12.49,0
								c9.1,0,26.03-0.3,26.03-0.3c3.12-4.89,6.07-11.53,6.07-11.53l0.3-1.52C188.85,444.61,194.01,430.66,192.19,425.5z"/>
						</g>
					</g>
					<g>
						<g>
							<g>
								<path class="st6" d="M172.65,452.29c0,0-0.03,0.2-0.26,0.48c-0.23,0.28-0.61,0.65-1.16,1.05c-1.09,0.8-2.79,1.79-4.99,2.79
									c-1.1,0.5-2.32,1.02-3.68,1.45c-1.36,0.43-2.86,0.75-4.44,0.96c-3.18,0.45-6.7,0.35-10.36,0.41
									c-7.34,0.12-13.98,0.39-18.8,0.34c-2.41-0.02-4.36-0.12-5.7-0.25c-0.67-0.07-1.19-0.14-1.54-0.22
									c-0.35-0.07-0.53-0.11-0.53-0.13c0.01-0.05,0.74,0.08,2.08,0.15c1.34,0.08,3.28,0.12,5.69,0.1
									c4.81-0.04,11.45-0.37,18.8-0.48c3.68-0.05,7.17,0.06,10.31-0.36c1.57-0.2,3.04-0.5,4.38-0.9c1.34-0.4,2.56-0.9,3.66-1.38
									c2.2-0.96,3.91-1.89,5.02-2.63c0.56-0.37,0.95-0.7,1.2-0.95C172.56,452.46,172.62,452.28,172.65,452.29z"/>
							</g>
						</g>
					</g>
				</g>
				<g>
					<g>
						<g>
							<path class="st6" d="M121.18,459.17c0,0-0.17-0.07-0.47-0.25c-0.3-0.17-0.74-0.45-1.31-0.82c-1.13-0.76-2.79-1.89-4.64-3.69
								c-0.91-0.91-1.88-1.99-2.62-3.38c-0.78-1.41-0.82-3.24-0.52-5.02c0.62-3.61,2.2-7.46,4.26-11.51l0.02-0.05l0.05-0.03
								c5.77-3.18,12.4-6.79,19.64-10.68c3.62-1.94,7.4-3.95,11.32-5.97c1.96-1,3.94-2.04,6.03-2.97c2.07-0.88,4.05-2.03,6.12-3.08
								c2.93-1.5,5.95-2.82,9.12-3.43c1.57-0.34,3.17-0.44,4.75-0.44c1.57,0.08,3.13,0.26,4.62,0.66c2.97,0.79,5.77,2.03,8.08,3.86
								c1.13,0.94,2.12,2.01,2.94,3.18c0.8,1.18,1.4,2.45,1.9,3.73c0.49,1.28,0.85,2.57,1.21,3.83c0.33,1.26,0.84,2.44,1.01,3.74
								c0.25,2.56-0.17,4.97-0.6,7.21c-0.46,2.25-1.01,4.35-1.57,6.31c-0.28,0.98-0.56,1.92-0.83,2.83
								c-0.26,0.9-0.56,1.81-0.69,2.61l0,0.03c-0.12,0.57-0.21,1.05-0.31,1.52l0,0.01l0,0c-1.27,3.98-2.82,6.91-4.05,8.79
								c-1.24,1.88-2.15,2.7-2.15,2.7c0,0,0.04-0.07,0.13-0.18c0.11-0.13,0.24-0.3,0.42-0.51c0.36-0.45,0.87-1.14,1.47-2.09
								c1.18-1.89,2.69-4.84,3.91-8.79l0,0.01c0.57-0.48,0.46-0.95,0.3-1.52l0,0.03c0.14-0.93,0.43-1.77,0.68-2.7
								c0.26-0.91,0.53-1.86,0.8-2.84c0.54-1.96,1.08-4.05,1.52-6.29c0.42-2.23,0.82-4.63,0.56-7.09c-0.16-1.19-0.68-2.41-1.01-3.67
								c-0.36-1.26-0.72-2.54-1.21-3.79c-0.49-1.25-1.08-2.49-1.86-3.63c-0.8-1.13-1.75-2.17-2.85-3.08c-2.24-1.77-5-2.99-7.91-3.75
								c-1.46-0.4-2.98-0.57-4.51-0.64c-1.54,0-3.1,0.09-4.64,0.43c-3.1,0.59-6.08,1.89-8.99,3.39c-2.06,1.05-4.05,2.2-6.15,3.1
								c-2.05,0.92-4.04,1.95-6,2.95c-3.92,2.02-7.69,4.02-11.32,5.95c-7.23,3.9-13.87,7.48-19.68,10.61l0.08-0.08
								c-2.06,4-3.66,7.84-4.3,11.37c-0.31,1.76-0.29,3.48,0.45,4.85c0.71,1.36,1.66,2.44,2.54,3.35c1.81,1.8,3.45,2.97,4.55,3.75
								c0.55,0.37,0.97,0.65,1.28,0.86C121.04,459.06,121.18,459.17,121.18,459.17z"/>
						</g>
					</g>
				</g>
				<g>
					<g>
						<path class="st1" d="M178.58,446.08c0,0,10.51,1.25,9.57,6.4c-0.93,5.14-4.37,6.87-4.37,6.87l-28.56,0.06
							C155.23,459.41,172.28,458.23,178.58,446.08z"/>
					</g>
					<g>
						<g>
							<path class="st6" d="M179.6,443.59c0.06,0.02-0.02,0.58-0.32,1.46c-0.3,0.87-0.84,2.05-1.7,3.18c-1.76,2.29-4,3.18-4.02,3.08
								c-0.09-0.14,1.96-1.2,3.63-3.38C178.86,445.75,179.44,443.53,179.6,443.59z"/>
						</g>
					</g>
				</g>
				<g>
					<g>
						<g>
							<path class="st6" d="M175.95,445.6c0.14,0.01-0.02,1.77-1.01,3.66c-0.96,1.89-2.2,3.12-2.29,3.03
								c-0.11-0.09,0.92-1.42,1.85-3.25C175.46,447.22,175.82,445.58,175.95,445.6z"/>
						</g>
					</g>
				</g>
				<g>
					<g>
						<g>
							<path class="st11" d="M189.36,457.92c-0.08-0.04,0.6-1.34,1.42-3.55c0.83-2.2,1.73-5.35,2.14-8.92
								c0.4-3.57,0.23-6.84-0.08-9.17c-0.31-2.34-0.67-3.76-0.58-3.78c0.03-0.01,0.15,0.34,0.33,0.98c0.19,0.64,0.4,1.58,0.6,2.75
								c0.4,2.34,0.63,5.66,0.22,9.28c-0.42,3.62-1.39,6.79-2.31,8.99c-0.46,1.1-0.87,1.97-1.2,2.54
								C189.58,457.62,189.39,457.93,189.36,457.92z"/>
						</g>
					</g>
				</g>
				<g class="st7">
					<g>
						<g>
							<path d="M183.42,443.31c-0.07-0.69-0.35-1.51-1.03-1.65c-0.83-0.17-1.4,0.79-1.74,1.57c-3.62,8.38-15.53,14.9-24.62,15.74
								c3.74,0.03,9.51-0.41,13.19-1.08c3.68-0.67,7.3-2.08,10.06-4.6C182.03,450.77,183.81,447.03,183.42,443.31z"/>
						</g>
					</g>
				</g>
				<g>
					<g>
						<g>
							<path class="st6" d="M113.84,431.92c-0.06,0.12-2.32-0.74-5.05-1.92c-2.73-1.18-4.91-2.25-4.86-2.37
								c0.05-0.13,2.31,0.73,5.06,1.92C111.72,430.73,113.89,431.79,113.84,431.92z"/>
						</g>
					</g>
				</g>
			</g>
			<g class="st17">
				<g>
					<path d="M124.02,427.5c-13.6-2.6-27.25-4.91-40.95-6.93l-10.2,3.23c2.86,5.32,8.51,8.7,14.38,10.11
						c5.87,1.4,12.01,1.07,18.02,0.51c6.62-0.61,13.42-1.54,19.18-4.85c0.44-0.25,0.93-0.63,0.88-1.14
						C125.28,427.85,124.59,427.61,124.02,427.5z"/>
				</g>
			</g>
			<g>
				<g>
					<g>
						<g>
							<path class="st1" d="M57.06,386.99l17.13,37.91c0.71,1.57,2.26,2.59,3.98,2.61l49.98,0.65l6.3-3.39l-9.87-0.72l-15.36-36.86
								c-0.49-1.18-1.63-1.94-2.91-1.95l-47.88-0.36C57.35,384.86,56.61,385.99,57.06,386.99z"/>
						</g>
						<g>
							<g>
								<path class="st6" d="M57.06,386.99c0,0-0.1-0.14-0.15-0.46c-0.05-0.31,0-0.85,0.47-1.31c0.23-0.22,0.57-0.4,0.97-0.42
									c0.38,0,0.8-0.01,1.26-0.01c0.91,0,1.96,0,3.13,0c4.74,0.02,11.57,0.04,20.06,0.07c4.25,0.02,8.92,0.05,13.93,0.07
									c2.51,0.01,5.11,0.03,7.79,0.04c0.68,0.01,1.36,0.01,2.04,0.02c0.73,0.05,1.45,0.35,2,0.84c0.58,0.47,0.9,1.22,1.15,1.84
									c0.27,0.65,0.54,1.3,0.82,1.95c4.37,10.48,9.21,22.05,14.32,34.3l-0.24-0.17c3.04,0.22,6.26,0.46,9.53,0.7
									c0.12,0.01,0.23,0.02,0.34,0.02l0.96,0.07l-0.85,0.46c-2.16,1.16-4.3,2.31-6.3,3.39l-0.06,0.03l-0.07,0
									c-13.52-0.18-26.31-0.36-37.9-0.52c-2.9-0.04-5.72-0.08-8.46-0.12c-1.38-0.03-2.7-0.01-4.07-0.08
									c-1.39-0.15-2.66-0.96-3.39-2.09c-2.23-4.69-4.09-9.04-5.9-13.01c-3.54-7.92-6.4-14.31-8.38-18.75
									c-0.97-2.19-1.72-3.9-2.24-5.08c-0.24-0.57-0.43-1.01-0.57-1.33C57.11,387.15,57.06,386.99,57.06,386.99
									s0.09,0.14,0.23,0.44c0.15,0.31,0.35,0.75,0.62,1.3c0.54,1.17,1.33,2.87,2.33,5.04c2.02,4.42,4.93,10.78,8.54,18.68
									c1.82,3.93,3.75,8.35,5.93,12.92c0.66,1.02,1.81,1.75,3.06,1.88c1.28,0.06,2.66,0.04,4.02,0.07
									c2.74,0.03,5.56,0.06,8.46,0.1c11.59,0.14,24.39,0.3,37.9,0.46l-0.14,0.03c2-1.08,4.14-2.23,6.3-3.39l0.11,0.53
									c-0.11-0.01-0.22-0.02-0.34-0.02c-3.26-0.24-6.49-0.48-9.53-0.7l-0.17-0.01l-0.07-0.16c-5.09-12.25-9.91-23.83-14.27-34.32
									c-0.27-0.66-0.54-1.31-0.81-1.95c-0.26-0.67-0.51-1.25-1.01-1.67c-0.48-0.42-1.09-0.68-1.72-0.73
									c-0.67-0.01-1.34-0.02-2.01-0.03c-2.68-0.03-5.28-0.05-7.79-0.07c-5.02-0.05-9.68-0.1-13.93-0.14
									c-8.48-0.1-15.31-0.18-20.05-0.24c-1.18-0.02-2.22-0.03-3.13-0.05c-0.45-0.01-0.87-0.01-1.25-0.02
									c-0.37,0.01-0.68,0.17-0.9,0.36c-0.45,0.41-0.52,0.93-0.49,1.23C56.99,386.84,57.08,386.98,57.06,386.99z"/>
							</g>
						</g>
					</g>
				</g>
				<g>
					<g>
						<g>
							<path class="st6" d="M123.12,428.09c-0.02,0.01-0.09-0.14-0.23-0.41c-0.15-0.33-0.34-0.74-0.57-1.22
								c-0.5-1.14-1.18-2.68-2.01-4.54c-1.67-3.84-3.94-9.17-6.38-15.08c-2.44-5.91-4.6-11.29-6.09-15.21
								c-0.74-1.96-1.34-3.55-1.72-4.66c-0.17-0.51-0.32-0.93-0.43-1.28c-0.09-0.29-0.14-0.45-0.12-0.46
								c0.02-0.01,0.09,0.14,0.21,0.42c0.14,0.34,0.31,0.75,0.52,1.25c0.47,1.16,1.1,2.71,1.87,4.6c1.62,3.94,3.8,9.26,6.22,15.15
								c2.43,5.88,4.62,11.2,6.25,15.14c0.77,1.89,1.39,3.44,1.86,4.6c0.19,0.5,0.35,0.92,0.49,1.26
								C123.09,427.92,123.14,428.08,123.12,428.09z"/>
						</g>
					</g>
				</g>
				<g>
					<g>
						<path class="st9" d="M92.12,405.37c0,1.35-1.1,2.45-2.45,2.45c-1.35,0-2.45-1.1-2.45-2.45c0-1.35,1.1-2.45,2.45-2.45
							C91.02,402.92,92.12,404.01,92.12,405.37z"/>
					</g>
				</g>
			</g>
			<g>
				<path class="st6" d="M140.77,344.4c0.08,0.04-0.64,1.39-1.65,3.64c-1.01,2.24-2.27,5.41-3.28,9.02
					c-1.01,3.62-1.57,6.98-1.87,9.42c-0.3,2.44-0.38,3.97-0.47,3.97c-0.04,0-0.05-0.38-0.05-1.08c0-0.69,0.04-1.69,0.14-2.93
					c0.2-2.47,0.71-5.87,1.73-9.52c1.02-3.65,2.34-6.82,3.45-9.04c0.55-1.11,1.03-1.99,1.39-2.58
					C140.53,344.7,140.74,344.38,140.77,344.4z"/>
			</g>
			<g>
				<path class="st6" d="M216.3,371.2c0,0.02-0.19,0.04-0.55,0.09c-0.41,0.04-0.94,0.09-1.59,0.16c-1.45,0.12-3.45,0.29-5.94,0.5
					c-5.12,0.39-12.2,0.92-20.31,1.53l-0.26,0.02l-0.02-0.26c-0.17-2.7-0.35-5.55-0.53-8.47c-0.29-5.1-0.53-9.96-0.61-14.39
					c-0.23-4.45,0.86-8.52,2.61-11.41c1.73-2.93,4.02-4.64,5.69-5.47c0.85-0.4,1.53-0.67,2.02-0.78c0.48-0.13,0.73-0.2,0.73-0.18
					c0.02,0.07-1.01,0.28-2.65,1.15c-1.62,0.88-3.82,2.59-5.46,5.48c-1.67,2.86-2.69,6.81-2.44,11.21
					c0.11,4.42,0.37,9.27,0.65,14.37c0.18,2.93,0.35,5.77,0.52,8.47l-0.28-0.24c8.12-0.54,15.2-1.01,20.32-1.34
					c2.49-0.14,4.5-0.26,5.95-0.34c0.66-0.03,1.18-0.05,1.6-0.07C216.11,371.19,216.3,371.19,216.3,371.2z"/>
			</g>
			<g>
				<path class="st6" d="M166.48,388.52c-0.01,0.03-0.33-0.08-0.89-0.33c-0.28-0.12-0.62-0.27-0.99-0.5
					c-0.37-0.22-0.82-0.44-1.26-0.77c-0.91-0.6-1.92-1.44-2.93-2.48c-0.99-1.06-1.97-2.33-2.8-3.78c-0.82-1.46-1.4-2.95-1.81-4.34
					c-0.38-1.4-0.59-2.69-0.64-3.78c-0.06-0.54-0.02-1.04-0.02-1.47c0-0.43,0.04-0.8,0.08-1.11c0.08-0.6,0.14-0.93,0.17-0.93
					c0.11,0.01-0.07,1.35,0.14,3.48c0.09,1.07,0.34,2.32,0.73,3.68c0.42,1.35,1.01,2.79,1.8,4.21c0.82,1.41,1.76,2.65,2.7,3.7
					c0.97,1.03,1.92,1.88,2.78,2.51C165.28,387.89,166.52,388.43,166.48,388.52z"/>
			</g>
		</g>
	</g>
</g>
</svg>
