<svg width="19" height="19" viewBox="0 0 19 19" fill="none" xmlns="http://www.w3.org/2000/svg">
<path fill-rule="evenodd" clip-rule="evenodd" d="M0.742624 11.0567H3.35204C3.58926 11.0567 3.78998 11.2574 3.78998 11.4946V16.8229C3.78998 17.0602 3.58926 17.2609 3.35204 17.2609H0.742624C0.505405 17.2609 0.30468 17.0602 0.30468 16.8229V11.4946C0.286433 11.2574 0.487157 11.0567 0.742624 11.0567ZM4.3739 16.7682V11.5676H7.14755C8.13292 11.7501 9.13654 12.2793 10.1219 12.8997H11.9467C12.7678 12.9544 13.2058 13.7756 12.4029 14.3413C11.7642 14.8157 10.9248 14.7792 10.0672 14.7062C9.465 14.6697 9.44675 15.4726 10.0672 15.4726C10.2861 15.4909 10.5234 15.4361 10.7241 15.4361C11.8007 15.4361 12.6948 15.2354 13.224 14.3777L13.4977 13.7391L16.1984 12.407C17.5487 11.9691 18.5158 13.3741 17.5122 14.3595C15.6327 15.7281 13.6072 16.9324 11.4905 17.8996C9.99418 18.8119 8.49787 18.7754 7.01981 17.8996L4.3739 16.7682ZM2.62213 15.2719C2.89585 15.2719 3.13306 15.4909 3.13306 15.7828C3.13306 16.0748 2.91409 16.2938 2.62213 16.2938C2.34842 16.2938 2.1112 16.0748 2.1112 15.7828C2.1112 15.5091 2.34842 15.2719 2.62213 15.2719Z" fill="black"/>
<path d="M6.85559 6.64074C7.83315 6.64074 8.62561 5.84828 8.62561 4.87072C8.62561 3.89316 7.83315 3.10069 6.85559 3.10069C5.87804 3.10069 5.08557 3.89316 5.08557 4.87072C5.08557 5.84828 5.87804 6.64074 6.85559 6.64074Z" stroke="black" stroke-width="2.28096" stroke-miterlimit="10"/>
<path d="M10.8701 11.0567C11.8476 11.0567 12.6401 10.2642 12.6401 9.28666C12.6401 8.3091 11.8476 7.51663 10.8701 7.51663C9.8925 7.51663 9.10004 8.3091 9.10004 9.28666C9.10004 10.2642 9.8925 11.0567 10.8701 11.0567Z" stroke="black" stroke-width="2.28096" stroke-miterlimit="10"/>
<path d="M16.2714 4.87072C17.2489 4.87072 18.0414 4.07826 18.0414 3.1007C18.0414 2.12314 17.2489 1.33067 16.2714 1.33067C15.2938 1.33067 14.5013 2.12314 14.5013 3.1007C14.5013 4.07826 15.2938 4.87072 16.2714 4.87072Z" stroke="black" stroke-width="2.28096" stroke-miterlimit="10"/>
<path d="M8.13293 6.09331L9.88471 7.80859" stroke="black" stroke-width="2.28096" stroke-miterlimit="10"/>
<path d="M12.0562 7.97283L15.1765 4.48752" stroke="black" stroke-width="2.28096" stroke-miterlimit="10"/>
</svg>
