<svg width="20" height="20" viewBox="0 0 20 20" fill="none" xmlns="http://www.w3.org/2000/svg">
<g clip-path="url(#clip0_622_15124)">
<path d="M2.11715 20C0.94566 20 0 19.0367 0 17.8433V13.5874C0 12.394 0.94566 11.4307 2.11715 11.4307C3.28864 11.4307 4.2343 12.394 4.2343 13.5874V17.8433C4.2343 19.0367 3.28864 20 2.11715 20Z" fill="#F58840"/>
<path d="M10.007 20C8.83555 20 7.88989 19.0366 7.88989 17.8433V7.87919C7.88989 6.68581 8.83555 5.72247 10.007 5.72247C11.1785 5.72247 12.1242 6.68581 12.1242 7.87919V17.8576C12.1242 19.0366 11.1644 20 10.007 20Z" fill="#F58840"/>
<path d="M17.8829 20C16.7114 20 15.7657 19.0367 15.7657 17.8433V2.15672C15.7657 0.963336 16.7114 0 17.8829 0C19.0544 0 20 0.963336 20 2.15672V17.8433C20 19.0367 19.0544 20 17.8829 20Z" fill="#F58840"/>
</g>
<defs>
<clipPath id="clip0_622_15124">
<rect width="20" height="20" fill="white"/>
</clipPath>
</defs>
</svg>
