<svg width="503" height="387" viewBox="0 0 503 387" fill="none" xmlns="http://www.w3.org/2000/svg">
<path d="M311.47 84.8083L315.389 86.01L318.024 79.9207L323.974 80.9714L326.69 76.7377L328.835 78.1098L325.202 83.7743L319.562 82.7767L316.824 89.1119L310.924 87.3038L311.47 84.8083Z" fill="#50BFA5"/>
<path d="M60.0157 303.818L63.9375 305.02L66.5725 298.931L72.5223 299.981L75.2385 295.748L77.384 297.12L73.7504 302.784L68.111 301.787L65.3725 308.122L59.473 306.314L60.0157 303.818Z" fill="#50BFA5"/>
<path d="M335.627 375.909C335.627 375.909 356.551 305.062 358.229 289.432C359.907 273.805 348.209 278.648 348.209 278.648C348.209 278.648 358.053 248.869 350.934 241.802C343.817 234.735 337.398 247.908 337.398 247.908C337.398 247.908 335.244 211.758 327.655 211.744C313.52 211.719 313.8 251.169 313.8 251.169C313.8 251.169 310.191 235.724 302.625 239.958C291.212 246.343 307.579 277.295 307.579 277.295C307.579 277.295 293.035 277.306 287.928 284.631C278.761 297.776 335.627 375.909 335.627 375.909Z" fill="#50BFA5"/>
<path d="M328.788 366.53C328.788 366.53 389.106 356.453 402.225 345.775C415.344 335.097 402.359 330.282 402.359 330.282C402.359 330.282 432.659 314.764 432.31 304.212C431.96 293.66 416.905 299.026 416.905 299.026C416.905 299.026 442.436 269.94 436.391 264.418C425.132 254.129 395.618 284.363 395.618 284.363C395.618 284.363 404.382 269.985 395.151 267.71C381.231 264.278 370.957 299.733 370.957 299.733C370.957 299.733 373.567 285.732 363.969 287.596C346.752 290.944 328.788 366.53 328.788 366.53Z" fill="#50BFA5"/>
<path d="M363.972 287.599C373.595 285.861 370.96 299.735 370.96 299.735C370.96 299.735 381.234 264.281 395.153 267.713C404.384 269.988 395.621 284.365 395.621 284.365C395.621 284.365 425.138 254.131 436.394 264.421L328.992 366.55C330.902 356.794 347.84 290.513 363.972 287.599Z" fill="#3C8F7C"/>
<path d="M311.626 374.844C311.626 374.844 343.392 342.573 359.387 339.211C375.385 335.849 372.506 347.22 372.506 347.22C372.506 347.22 404.244 319.493 411.598 326.211C418.953 332.929 410.997 339.415 410.997 339.415C410.997 339.415 437.434 334.734 441.219 343.403C447.035 356.721 403.556 363.968 403.556 363.968C403.556 363.968 421.775 365.228 417.551 373.578C411.182 386.17 311.626 374.844 311.626 374.844Z" fill="#355389"/>
<path d="M441.222 343.4C437.437 334.734 411 339.412 411 339.412C411 339.412 418.955 332.926 411.601 326.208C404.247 319.49 373.494 343.447 373.494 343.447C373.494 343.447 380.744 329.603 364.747 332.962C348.749 336.324 311.623 374.841 311.623 374.841L441.222 343.4Z" fill="#466EB6"/>
<path d="M261.057 42.0046C271.748 43.7623 274.926 57.7824 266.036 64.0534C264.439 65.1796 263.334 66.873 262.864 68.7677L261.244 75.2902C260.799 77.087 259.046 78.2412 257.216 77.9394L253.166 77.2743C251.336 76.9725 250.047 75.3209 250.201 73.4737C250.763 66.7417 251.457 64.2993 249.266 61.2952C242.86 52.512 250.36 40.2468 261.057 42.0046Z" fill="#F7CC7F"/>
<path d="M259.963 70.5059C260.66 64.738 261.636 58.6488 261.969 56.9217C268.098 57.2599 265.767 50.8045 262.939 53.4286C262.134 54.1775 261.753 55.1919 261.502 56.3014C259.465 56.1169 257.476 55.5384 255.661 54.6023C255.759 53.1799 255.899 52.1012 255.501 51.1902C254.9 49.8153 253.157 49.4408 252.447 50.7794C252.181 51.2824 252.133 51.9251 252.326 52.4589C252.738 53.5963 253.974 54.348 255.054 54.9376C254.732 59.5234 254.285 64.1456 253.722 68.6951L254.301 68.7677C254.855 64.2909 255.297 59.7442 255.619 55.231C257.42 56.1253 259.378 56.6842 261.384 56.8742C260.964 59.0819 260.039 65.0175 259.384 70.4333L259.963 70.5059ZM264.881 55.5608C264.335 56.1477 263.423 56.4047 262.092 56.3433C262.321 55.3624 262.662 54.4821 263.337 53.8561C264.861 52.4449 265.795 54.5771 264.881 55.5608ZM254.97 51.4249C255.306 52.1906 255.177 53.1715 255.101 54.2977C254.226 53.8003 253.208 53.1771 252.88 52.2661C252.648 51.6261 252.908 50.7235 253.56 50.5558C253.63 50.5362 254.735 50.8884 254.97 51.4249Z" fill="#FAE0B2"/>
<path d="M262.911 68.6056C262.897 68.6587 262.878 68.7118 262.864 68.7677L261.244 75.2902C260.799 77.087 259.046 78.2412 257.216 77.9394L253.166 77.2743C251.336 76.9725 250.047 75.3209 250.2 73.4737C250.449 70.478 250.726 68.3346 250.763 66.6104L262.911 68.6056Z" fill="#96D9C9"/>
<path d="M268.982 37.1337L272.179 31.3043C272.489 30.7399 272.282 30.0328 271.717 29.7226C271.152 29.4125 270.445 29.6192 270.134 30.1837L266.937 36.0131C266.626 36.5776 266.833 37.2846 267.398 37.5948C267.966 37.9078 268.674 37.6954 268.982 37.1337Z" fill="#FAE0B2"/>
<path d="M275.969 51.2377L282.94 50.6285C283.581 50.5726 284.056 50.0081 284 49.3653C283.944 48.7254 283.379 48.2503 282.736 48.3062L275.768 48.9154C275.127 48.9713 274.652 49.5358 274.708 50.1786C274.764 50.8185 275.329 51.2936 275.969 51.2377Z" fill="#FAE0B2"/>
<path d="M282.881 72.5851C283.335 72.1268 283.329 71.389 282.87 70.9363C281.158 69.2456 279.273 67.7086 277.27 66.3728C276.736 66.0151 276.011 66.1605 275.653 66.6942C275.295 67.228 275.441 67.9517 275.975 68.3094C277.855 69.5642 279.623 71.0062 281.231 72.5935C281.687 73.0434 282.425 73.0434 282.881 72.5851Z" fill="#FAE0B2"/>
<path d="M251.762 36.8207C252.385 36.6558 252.755 36.0159 252.587 35.3955C251.798 32.4445 251.314 29.4013 251.149 26.3496C251.115 25.7069 250.564 25.2123 249.921 25.2486C249.278 25.2821 248.785 25.8326 248.819 26.4754C248.992 29.6863 249.501 32.8916 250.332 35.9991C250.5 36.6195 251.143 36.9856 251.762 36.8207Z" fill="#FAE0B2"/>
<path d="M244.583 45.7688C244.768 45.1512 244.421 44.5029 243.803 44.3157L236.558 42.1331C235.94 41.9487 235.291 42.2952 235.103 42.9128C234.919 43.5276 235.266 44.1787 235.884 44.3632L243.129 46.5457C243.747 46.7329 244.399 46.3864 244.583 45.7688Z" fill="#FAE0B2"/>
<path d="M232.681 65.0315C232.785 65.0315 232.891 65.0175 232.997 64.9868C235.506 64.2825 237.948 63.3045 240.253 62.0804C240.821 61.7786 241.037 61.0744 240.734 60.5043C240.432 59.937 239.725 59.7191 239.157 60.0209C237 61.1666 234.715 62.0804 232.365 62.74C231.744 62.9132 231.383 63.556 231.559 64.1763C231.705 64.6933 232.172 65.0315 232.681 65.0315Z" fill="#FAE0B2"/>
<path d="M126.555 116.532L130.211 107.897L139.406 106.01C140.452 105.795 140.799 104.473 139.99 103.775L132.899 97.6324L133.943 88.3155C134.063 87.2536 132.91 86.5186 131.996 87.0691L123.959 91.9092L115.411 88.0388C114.437 87.5973 113.38 88.4636 113.62 89.5031L115.743 98.6357L109.416 105.56C108.694 106.349 109.192 107.62 110.258 107.712L119.609 108.517L124.247 116.666C124.776 117.594 126.138 117.515 126.555 116.532Z" fill="#F7CC7F"/>
<path d="M68.3656 86.9014L69.8677 92.946L79.8708 91.6074L83.1605 100.175L90.811 100.393L90.6991 104.264L80.4667 103.97L77.3505 95.8495L66.9418 97.244L64.6816 88.1478L68.3656 86.9014Z" fill="#F48C7F"/>
<path d="M157.493 376.702H333.344C340.061 376.702 345.507 371.06 345.507 364.102V356.61C345.507 349.648 340.061 344.009 333.344 344.009H157.493C165.538 353.119 165.675 367.044 157.817 376.325L157.493 376.702Z" fill="#B75742"/>
<path d="M160.209 347.751H257.745C264.461 347.751 269.907 353.393 269.907 360.354C269.907 367.313 264.464 372.955 257.745 372.955H160.201C164.757 365.222 164.749 355.461 160.209 347.751Z" fill="#FAE0B2"/>
<path d="M219.274 321.298C219.019 320.82 219.408 320.264 219.998 320.264H313.047C320.34 320.264 326.253 325.579 326.253 332.138C326.253 338.694 320.34 344.012 313.047 344.012H219.973C219.38 344.012 218.989 343.453 219.249 342.972C222.93 336.106 222.922 328.128 219.274 321.298Z" fill="#86B1F2"/>
<path d="M219.858 322.472H265.975C274.534 322.472 281.474 326.926 281.474 332.42C281.474 337.914 274.534 342.369 265.975 342.369H219.556C222.728 336.039 222.818 328.832 219.858 322.472Z" fill="#F7CC7F"/>
<path d="M231.769 327.189H237.775C239.067 327.189 240.114 327.622 240.114 328.156V328.242H231.769V327.189Z" fill="#B75742"/>
<path d="M226.647 329.614C226.647 328.273 228.217 327.189 230.15 327.189H237.856C236.388 327.189 235.199 328.013 235.199 329.03L235.235 355.045L230.978 351.7L226.636 355.045L226.647 329.614Z" fill="#F47458"/>
<path d="M236.379 319.406H290.521C295.321 319.406 299.215 314.792 299.215 309.1C299.215 303.407 295.324 298.794 290.521 298.794H236.379C240.516 304.508 240.679 312.889 236.765 318.822L236.379 319.406Z" fill="#FAE0B2"/>
<path d="M299.209 309.1C299.209 303.407 295.226 298.794 290.311 298.794H235.35C235.092 298.794 234.885 298.55 234.888 298.254C234.891 297.961 235.095 297.726 235.35 297.726H322.541C327.965 297.726 332.363 302.818 332.363 309.103C332.363 315.385 327.965 320.479 322.541 320.479H235.353C235.101 320.479 234.894 320.242 234.891 319.951C234.888 319.655 235.095 319.412 235.353 319.412H290.311C295.226 319.406 299.209 314.792 299.209 309.1Z" fill="#466EB6"/>
<path d="M245.834 303.857H251.84C253.132 303.857 254.178 304.282 254.178 304.807V304.891H245.834V303.857Z" fill="#184655"/>
<path d="M240.709 306.238C240.709 304.925 242.279 303.857 244.212 303.857H251.918C250.45 303.857 249.261 304.665 249.261 305.663L249.297 331.174L245.04 327.893L240.698 331.174L240.709 306.238Z" fill="#3C8F7C"/>
<path d="M150.116 146.28L142.125 144.178L147.543 216.361L157.132 216.679L152.296 148.901C152.206 147.652 151.33 146.598 150.116 146.28Z" fill="#184655"/>
<path d="M146.824 218.42C147.003 218.437 147.185 218.434 147.372 218.412C148.958 218.225 150.136 216.649 149.996 214.888L144.676 147.015C144.539 145.257 143.14 143.982 141.551 144.17C139.962 144.357 138.787 145.933 138.927 147.694L144.248 215.567C144.371 217.121 145.476 218.294 146.824 218.42Z" fill="#F7CC7F"/>
<path d="M220.384 222.034C220.381 222.084 220.379 222.134 220.373 222.184C220.121 224.945 217.981 227.011 215.59 226.798L148.091 220.762C145.699 220.55 143.965 218.135 144.214 215.374C144.225 215.257 144.239 215.142 144.256 215.028L220.384 222.034Z" fill="#F7CC7F"/>
<path d="M173.381 294.937C177.801 297.385 191.312 293.093 191.312 292.704C191.505 296.393 206.44 332.498 206.44 332.498L206.429 343.607C206.429 343.607 175.656 345.071 176.098 342.355C176.539 339.638 178.196 341.405 184.333 336.274C184.878 335.818 193.497 333.82 191.164 328.723C186.47 318.459 176.492 301.345 173.381 294.937Z" fill="#F7A491"/>
<path d="M207.441 344.003L173.756 344.012C172.539 343.889 172.257 342.9 172.685 342.299C173.569 341.061 180.025 338.146 184.364 336.21C191.922 337.093 205.209 334.189 206.426 332.465C209.626 336.752 208.118 343.864 207.441 344.003Z" fill="#3C8F7C"/>
<path d="M214.832 269.015C215.288 267.649 185.829 255.16 184.512 256.588C182.179 259.111 200.451 306.49 200.451 306.49L179.46 312.898C179.46 312.898 157.638 258.161 158.547 248.148C159.459 238.136 170.391 226.759 194.079 234.042C217.763 241.324 214.832 269.015 214.832 269.015Z" fill="#355389"/>
<path d="M153.839 301.166C158.813 300.261 165.258 300.004 170.416 299.914C169.809 304.503 166.855 328.038 167.395 329.483C169.583 335.34 174.433 338.082 174.433 338.082C174.433 338.082 151.56 358.7 150.178 356.319C148.796 353.938 151.199 354.257 152.693 346.401C152.824 345.702 156.133 334.74 156.337 328.824C156.726 317.545 154.01 307.429 153.839 301.166Z" fill="#F7A491"/>
<path d="M161.177 224.177C164.369 222.475 172.651 222.416 181.762 223.006C199.522 224.155 217.05 227.648 233.943 233.237L245.247 236.979L245.21 225.401C245.21 225.401 281.172 219.39 282.423 228.293C284.308 241.701 281.969 268.926 269.986 275.001C232.768 293.875 180.612 244.935 180.425 251.337C180.171 259.936 172.914 291.936 171.06 305.945C165.899 306.034 157.034 306.031 153.191 305.148C152.444 277.703 152.094 229.017 161.177 224.177Z" fill="#466EB6"/>
<path d="M175.13 338.565L149.417 359.086C148.399 359.759 147.551 359.175 147.504 358.44C147.403 356.923 150.547 350.579 152.676 346.337C159.082 342.235 167.532 331.531 167.381 329.43C170.089 331.713 175.566 338.029 175.13 338.565Z" fill="#3C8F7C"/>
<path d="M233.33 112.256C234.194 104.367 235.104 96.4503 241.649 90.6684C246.947 85.9904 253.68 85.1968 260.341 87.7007C279.208 94.7932 269.488 111.532 293.544 128.411C301.022 133.657 309.26 137.245 314.888 144.307C322.765 154.191 319.791 166.082 312.611 174.021C278.257 212.004 239.901 160.708 237.148 148.392C235.101 139.235 232.773 117.334 233.33 112.256Z" fill="#13375B"/>
<path d="M240.306 156.614C243.112 151.447 246.005 147.344 246.005 147.344C248.916 142.174 256.436 139.561 256.436 139.561C256.436 139.561 258.95 139.612 261.84 139.754C262.019 140.232 262.201 140.576 262.385 140.713C263.471 141.526 269.692 140.475 273.709 143.203C287.178 154.736 283.452 210.64 282.392 228.296L241.375 228.685C241.375 228.685 246.547 190.693 238.211 180.932C232.407 174.13 236.144 164.279 240.306 156.614Z" fill="#50BFA5"/>
<path d="M258.794 120.645C258.794 120.645 261.048 136.731 262.623 140.64C264.198 144.55 253.966 152.908 245.451 155.446C236.936 157.983 248.052 146.81 247.7 142.633C247.347 138.455 245.8 118.67 245.8 118.67L258.794 120.645Z" fill="#F7A491"/>
<path d="M246.231 124.345C245.982 121.073 245.8 118.672 245.8 118.672L258.797 120.648C258.797 120.648 259.124 122.537 259.488 125.212C254.217 128.263 249.479 127.299 246.231 124.345Z" fill="#F47458"/>
<path d="M254.721 91.2637C254.721 91.2637 259.843 92.4178 263.006 97.2384C266.17 102.059 268.338 116.255 257.924 122.881C247.507 129.507 239.406 120.134 239.271 110.993C239.134 101.852 241.095 89.6512 254.721 91.2637Z" fill="#F7A491"/>
<path d="M236.886 108.131C237.775 110.336 239.537 111.706 240.824 111.189C242.111 110.672 242.433 108.464 241.543 106.259C240.653 104.054 238.891 102.685 237.604 103.202C236.318 103.719 235.996 105.927 236.886 108.131Z" fill="#F7A491"/>
<path d="M253.183 90.9646C253.183 90.9646 259.711 105.597 265.449 106.905C271.186 108.212 271.102 115.573 271.102 115.573C271.102 115.573 270.973 98.5713 265.597 94.6702C260.223 90.7718 253.183 90.9646 253.183 90.9646Z" fill="#13375B"/>
<path d="M263.172 109.945C262.416 112.32 263.107 114.662 264.716 115.171C266.324 115.679 268.24 114.168 268.996 111.792C269.751 109.417 269.06 107.075 267.451 106.567C265.84 106.055 263.927 107.57 263.172 109.945Z" fill="#F7A491"/>
<path d="M189.804 215.584C192.266 214.695 195.927 214.583 195.866 214.259C195.62 212.946 184.747 217.16 186.215 215.243C187.032 214.175 195.169 210.394 197.147 211.02C199.066 211.627 211.668 215.159 211.668 215.159L246.105 207.097C246.105 207.097 254.796 187.365 255.647 170.41C262.833 171.38 267.723 173.155 273.969 176.617C270.956 192.831 263.639 219.111 255.546 224.04C252.142 226.114 211.5 221.559 211.5 221.559C211.5 221.559 202.543 220.927 201.08 220.365C199.97 219.938 197.114 218.331 195.558 217.892C192.025 216.892 185.729 219.401 185.709 218.711C185.692 218.205 187.289 216.492 189.804 215.584Z" fill="#F7A491"/>
<path d="M255.437 152.296C255.767 147.079 257.745 142.043 263.303 140.419C266.747 139.413 270.61 140.375 273.362 142.622C276.635 145.293 277.55 149.577 277.536 153.632C277.502 162.84 276.873 172.389 275.189 181.454C268.945 177.992 261.656 175.91 254.469 174.94C254.469 174.89 254.998 159.19 255.437 152.296Z" fill="#96D9C9"/>
<path d="M362.131 162.138L415.52 152.207C416.592 152.008 417.299 150.977 417.101 149.907L410.413 114.025C410.214 112.955 409.182 112.248 408.11 112.446L354.721 122.378C353.65 122.576 352.942 123.608 353.141 124.678L359.829 160.56C360.028 161.633 361.06 162.34 362.131 162.138Z" fill="#F7CC7F"/>
<path d="M387.545 121.12L403.797 118.097C404.868 117.898 405.576 116.867 405.377 115.797L404.359 110.336C404.161 109.266 403.128 108.559 402.057 108.757L385.805 111.781C384.734 111.98 384.026 113.011 384.224 114.081L385.243 119.541C385.444 120.612 386.473 121.319 387.545 121.12Z" fill="#F7CC7F"/>
<path d="M359.7 160.766C359.977 161.747 360.959 162.356 361.963 162.169L415.699 152.173C416.698 151.986 417.395 151.075 417.305 150.06L414.494 117.898C414.446 117.345 414.164 116.836 413.722 116.498C413.277 116.163 412.712 116.029 412.166 116.129L352.469 127.235C351.924 127.335 351.446 127.662 351.152 128.135C350.858 128.607 350.777 129.177 350.928 129.711L359.7 160.766Z" fill="#FAE0B2"/>
<path d="M114.829 43.2481L123.97 45.7408L125.939 34.6717L122.946 34.1407L121.559 41.9375L115.629 40.3194L114.829 43.2481Z" fill="#50BFA5"/>
<path d="M406.088 195.248C403.8 195.061 400.284 196.07 398.709 197.137C398.471 197.358 396.658 198.079 394.776 201.198L395.201 201.491C397.19 199.412 398.527 198.945 400.118 198.47C402.742 197.797 405.389 198.3 405.607 198.417L406.088 195.248Z" fill="#355389"/>
<path d="M394.986 201.346C394.986 201.346 408.936 203.671 407.635 214.558C406.334 225.446 391.618 233.913 378.484 227.181C360.814 218.124 367.793 195.094 380.37 193.314C392.946 191.531 394.986 201.346 394.986 201.346Z" fill="#F47458"/>
<path d="M389.069 196.55C389.069 196.55 385.43 192.817 377.455 196.212C369.48 199.607 368.904 215.444 376.014 214.525C383.128 213.605 394.756 198.836 389.069 196.55Z" fill="#F48C7F"/>
<path d="M293.105 51.9195L350.478 72.3643C352.327 73.0238 354.36 72.0597 355.021 70.2125L365.611 40.5542C366.271 38.707 365.306 36.6754 363.457 36.0159L306.085 15.5711C304.236 14.9116 302.202 15.8757 301.542 17.7229L290.951 47.3784C290.291 49.2284 291.256 51.2628 293.105 51.9195Z" fill="#86B1F2"/>
<path d="M331.132 44.2989C329.022 50.2065 332.105 56.7066 338.021 58.8136C343.935 60.9207 350.441 57.8411 352.55 51.9307C354.66 46.0231 351.577 39.523 345.661 37.4159C339.747 35.3089 333.244 38.3884 331.132 44.2989Z" fill="white"/>
<path d="M340.212 42.7088C339.591 44.4498 340.5 46.3668 342.243 46.99C343.985 47.6104 345.904 46.7022 346.528 44.9612C347.152 43.2202 346.24 41.3031 344.497 40.68C342.752 40.0568 340.835 40.965 340.212 42.7088Z" fill="#86B1F2"/>
<path d="M334.749 52.0481L344.841 55.6446L345.244 54.5128C345.98 52.4477 344.903 50.1785 342.838 49.4408L340.228 48.5102C338.161 47.7724 335.89 48.8511 335.151 50.9135L334.749 52.0481Z" fill="#86B1F2"/>
<path d="M329.719 38.0978C330.332 38.0978 330.88 37.7121 331.084 37.1365C331.353 36.3847 330.958 35.5548 330.206 35.2865L305.125 26.3496C304.969 26.2937 304.804 26.2657 304.639 26.2657C304.026 26.2657 303.478 26.6514 303.274 27.2271C303.005 27.9788 303.399 28.8088 304.152 29.077L329.232 38.0139C329.389 38.0698 329.554 38.0978 329.719 38.0978Z" fill="white"/>
<path d="M322.95 44.3436C323.562 44.3436 324.11 43.9579 324.315 43.3823C324.583 42.6305 324.189 41.8005 323.436 41.5323L303.847 34.5515C303.69 34.4957 303.525 34.4677 303.36 34.4677C302.748 34.4677 302.199 34.8534 301.995 35.429C301.866 35.7923 301.886 36.1863 302.051 36.5357C302.216 36.885 302.51 37.1505 302.873 37.279L322.463 44.2597C322.619 44.3156 322.782 44.3436 322.95 44.3436Z" fill="white"/>
<path d="M203.962 275.619H342.494C346.797 275.619 350.285 279.103 350.285 283.401V289.946C350.285 294.244 346.797 297.729 342.494 297.729H203.962L204.034 297.653C209.962 291.489 209.928 281.741 203.962 275.619Z" fill="#F47458"/>
<path d="M206.415 278.891H280.47C284.772 278.891 288.26 282.376 288.26 286.674C288.26 290.972 284.772 294.456 280.47 294.456H206.415C209.139 289.636 209.134 283.706 206.415 278.891Z" fill="#FAE0B2"/>
<path d="M90.5818 276.256L101.083 249.937C101.612 248.612 100.965 247.112 99.6394 246.583L61.8536 231.538C60.5277 231.01 59.0256 231.655 58.4969 232.98L47.9959 259.299C47.4672 260.623 48.1134 262.124 49.4393 262.652L87.2251 277.698C88.551 278.223 90.0531 277.578 90.5818 276.256Z" fill="#FAE0B2"/>
<path d="M54.9359 261.037L64.3711 237.387C64.5222 237.007 64.3376 236.576 63.9571 236.425C63.5767 236.274 63.1459 236.459 62.9949 236.839L53.5596 260.489C53.4086 260.869 53.5932 261.299 53.9736 261.45C54.3513 261.601 54.782 261.417 54.9359 261.037Z" fill="#466EB6"/>
<path d="M59.4312 257.921L67.1797 238.502C67.3308 238.122 67.1462 237.691 66.7657 237.54C66.3853 237.389 65.9545 237.574 65.8034 237.954L58.055 257.373C57.9039 257.753 58.0885 258.184 58.469 258.334C58.8494 258.485 59.2802 258.301 59.4312 257.921Z" fill="#466EB6"/>
<path d="M60.5501 263.272L69.9854 239.622C70.1364 239.242 69.9518 238.812 69.5714 238.661C69.191 238.51 68.7602 238.695 68.6091 239.075L59.1739 262.725C59.0228 263.105 59.2074 263.535 59.5879 263.686C59.9655 263.837 60.3963 263.652 60.5501 263.272Z" fill="#466EB6"/>
<path d="M65.5098 258.991L72.794 240.737C72.945 240.357 72.7604 239.927 72.38 239.776C71.9995 239.625 71.5688 239.81 71.4177 240.19L64.1336 258.443C63.9825 258.824 64.1671 259.254 64.5476 259.405C64.928 259.558 65.3588 259.371 65.5098 258.991Z" fill="#466EB6"/>
<path d="M55.1878 234.863L55.378 234.388C55.448 234.212 55.6382 234.123 55.8032 234.19L59.3893 235.618C59.5544 235.682 59.6327 235.878 59.5628 236.054L59.3725 236.529C59.3026 236.705 59.1124 236.794 58.9474 236.727L55.3612 235.299C55.1962 235.235 55.1179 235.039 55.1878 234.863Z" fill="#355389"/>
<path d="M54.3765 236.9L54.5668 236.425C54.6367 236.249 54.8269 236.16 54.9919 236.227L58.5781 237.655C58.7431 237.719 58.8214 237.915 58.7515 238.091L58.5613 238.566C58.4914 238.742 58.3011 238.832 58.1361 238.764L54.55 237.336C54.3821 237.269 54.3066 237.077 54.3765 236.9Z" fill="#355389"/>
<path d="M53.5626 238.938L53.7528 238.463C53.8227 238.287 54.0129 238.197 54.178 238.264L57.7641 239.692C57.9291 239.756 58.0075 239.952 57.9375 240.128L57.7473 240.603C57.6774 240.779 57.4872 240.869 57.3221 240.802L53.736 239.374C53.571 239.307 53.4927 239.114 53.5626 238.938Z" fill="#355389"/>
<path d="M52.7513 240.975L52.9415 240.5C53.0114 240.324 53.2016 240.234 53.3667 240.301L56.9528 241.729C57.1179 241.796 57.1962 241.989 57.1262 242.165L56.936 242.643C56.8661 242.819 56.6759 242.909 56.5108 242.842L52.9247 241.414C52.7569 241.344 52.6813 241.148 52.7513 240.975Z" fill="#355389"/>
<path d="M51.9373 243.012L52.1275 242.537C52.1975 242.361 52.3877 242.272 52.5527 242.339L56.1388 243.767C56.3039 243.834 56.3822 244.029 56.3123 244.203L56.122 244.678C56.0521 244.854 55.8619 244.943 55.6969 244.876L52.1107 243.448C51.9457 243.381 51.8674 243.185 51.9373 243.012Z" fill="#355389"/>
<path d="M51.126 245.049L51.3163 244.574C51.3862 244.398 51.5764 244.309 51.7415 244.376L55.3276 245.804C55.4926 245.871 55.5709 246.064 55.501 246.24L55.3108 246.715C55.2409 246.891 55.0506 246.98 54.8856 246.913L51.2995 245.485C51.1316 245.418 51.0561 245.223 51.126 245.049Z" fill="#355389"/>
<path d="M50.3121 247.087L50.5023 246.611C50.5722 246.435 50.7625 246.346 50.9275 246.413L54.5136 247.841C54.6786 247.908 54.757 248.101 54.687 248.277L54.4968 248.752C54.4269 248.928 54.2367 249.018 54.0716 248.95L50.4855 247.522C50.3205 247.455 50.2421 247.26 50.3121 247.087Z" fill="#355389"/>
<path d="M49.501 249.121L49.6912 248.646C49.7612 248.47 49.9514 248.38 50.1164 248.447L53.7026 249.875C53.8676 249.943 53.9459 250.135 53.876 250.311L53.6858 250.786C53.6158 250.963 53.4256 251.052 53.2606 250.985L49.6745 249.557C49.5066 249.493 49.4311 249.297 49.501 249.121Z" fill="#355389"/>
<path d="M48.6868 251.158L48.8771 250.683C48.947 250.507 49.1372 250.418 49.3022 250.485L52.8884 251.913C53.0534 251.98 53.1317 252.173 53.0618 252.349L52.8716 252.824C52.8016 253 52.6114 253.089 52.4464 253.022L48.8603 251.594C48.6952 251.53 48.6169 251.334 48.6868 251.158Z" fill="#355389"/>
<path d="M47.8729 253.195L48.0631 252.72C48.133 252.544 48.3232 252.455 48.4883 252.522L52.0744 253.95C52.2394 254.017 52.3178 254.21 52.2478 254.386L52.0576 254.861C51.9877 255.037 51.7975 255.126 51.6324 255.059L48.0463 253.631C47.8813 253.567 47.8029 253.371 47.8729 253.195Z" fill="#355389"/>
<path d="M47.0616 255.233L47.2518 254.755C47.3217 254.579 47.512 254.489 47.677 254.556L51.2631 255.984C51.4282 256.051 51.5065 256.244 51.4365 256.42L51.2463 256.895C51.1764 257.071 50.9862 257.161 50.8212 257.094L47.235 255.666C47.0672 255.604 46.9916 255.409 47.0616 255.233Z" fill="#355389"/>
<path d="M46.2476 257.27L46.4378 256.795C46.5077 256.619 46.698 256.529 46.863 256.596L50.4491 258.024C50.6142 258.089 50.6925 258.284 50.6226 258.46L50.4323 258.935C50.3624 259.111 50.1722 259.201 50.0072 259.134L46.421 257.706C46.256 257.641 46.1777 257.446 46.2476 257.27Z" fill="#355389"/>
<path d="M36.3396 255.174L51.3359 276.507C51.3695 276.555 51.3947 276.608 51.4142 276.664L52.9415 281.35C53.1206 281.895 52.4884 282.345 52.0296 282.001L48.0155 278.978C47.9652 278.941 47.9232 278.897 47.8869 278.846L32.8514 257.457C32.6584 257.183 32.7339 256.806 33.0165 256.624L35.5396 255.015C35.8082 254.847 36.1606 254.917 36.3396 255.174Z" fill="#B75742"/>
<path d="M47.9065 278.871L47.9429 278.925L51.8171 281.842L52.8745 281.135L51.4255 276.692C50.2898 277.309 48.9303 277.946 47.9065 278.871Z" fill="#F7CC7F"/>
<path d="M188.274 24.2145C186.115 25.936 182.361 31.4747 177.569 35.3619C174.766 37.6366 172.607 37.0582 169.029 37.4885C152.055 39.5369 156.654 43.0049 154.617 43.3459C155.196 44.6761 160.483 55.9045 161.471 58.1764C162.382 60.2695 163.957 61.2085 166.24 60.8927C169.751 60.4092 173.292 60.046 176.749 59.2998C185.608 57.38 190.537 52.9534 196.887 47.5768C198.571 46.1516 198.985 44.3715 198.112 42.3566C194.053 32.9754 188.716 25.078 188.274 24.2145Z" fill="#466EB6"/>
<path d="M152.779 56.8574C152.855 60.5518 152.572 61.2951 154.161 60.7334C155.118 60.3953 156.044 59.9566 156.947 59.4899C157.585 59.1601 157.61 58.727 157.093 58.2072C156.34 57.4499 155.566 56.7149 154.81 55.9799C155.361 54.5296 154.729 52.8445 153.372 52.0508C153.096 51.8888 153.297 52.2325 150.933 46.7971C158.752 45.833 164.265 45.1875 173.804 44.0166C176.355 43.7036 178.621 42.7143 180.593 41.0656C187.404 35.3703 194.216 29.6779 201.024 23.977C201.947 23.2029 202.065 22.0712 201.332 21.1993C200.772 20.5314 200.028 20.5006 199.228 20.6012C197.052 20.8751 175.712 23.5215 173.544 23.7758C170.696 24.1084 168.19 25.1787 165.988 27.0203C159.297 32.6177 152.586 38.1984 145.887 43.7846C144.967 44.5503 144.718 45.2546 145.042 46.1069C145.397 47.0431 146.172 47.4902 147.344 47.2387C148.189 47.057 148.564 47.3113 148.855 48.0938C150.17 51.6289 151.087 52.4113 150.768 53.7024C150.525 54.7001 151.708 56.4243 152.779 56.8574Z" fill="#86B1F2"/>
<path d="M117.377 307.901L113.489 311.607C104.289 320.373 96.7864 330.757 91.3596 342.24L90.7638 343.5C90.7638 343.5 80.5789 344.4 79.1579 335.201C88.0924 325.121 95.4493 314.362 101.519 302.393L103.36 298.092L117.377 307.901Z" fill="#466EB6"/>
<path d="M103.365 298.078C102.865 298.794 105.598 301.56 109.466 304.257C113.335 306.954 116.896 308.591 117.397 307.876C117.897 307.16 115.148 304.36 111.276 301.664C107.408 298.967 103.866 297.363 103.365 298.078Z" fill="#86B1F2"/>
<path d="M103.349 298.103L103.36 298.089C103.36 298.089 111.111 304.645 114.308 305.313L113.321 306.655C112.154 306.023 110.829 305.204 109.463 304.254C105.642 301.591 102.929 298.858 103.349 298.103Z" fill="#355389"/>
<path d="M92.9932 317.137C92.9792 318.266 93.4128 323.145 101.536 325.179C101.002 325.906 100.476 326.641 99.9613 327.382C94.8198 325.864 92.5065 323.226 91.4687 321.217C91.3036 320.898 91.105 320.474 90.9736 320.144C91.6561 319.152 92.3302 318.148 92.9932 317.137Z" fill="#B75742"/>
<path d="M100.806 323.738L112.759 323.313L109.928 325.713L111.62 328.782L100.305 325.9L100.806 323.738Z" fill="#B75742"/>
<path d="M99.715 326.515L103.964 333.91L100.977 332.772L99.8269 335.12L97.8297 327.345L99.715 326.515Z" fill="#B75742"/>
<path d="M98.0926 328.519C100.191 328.667 102.017 327.035 102.171 324.875C102.325 322.715 100.747 320.842 98.6465 320.694C96.5485 320.546 94.7219 322.178 94.568 324.338C94.417 326.501 95.9946 328.371 98.0926 328.519Z" fill="#F47458"/>
<path d="M72.7182 160.803L97.8938 138.36C99.5302 136.901 98.8476 133.9 96.5902 132.623L76.4973 121.257C75.2106 120.531 73.7615 120.598 72.83 121.428L47.6544 143.871C46.018 145.329 46.7006 148.331 48.958 149.608L69.0509 160.973C70.3349 161.7 71.7839 161.633 72.7182 160.803Z" fill="#9BC1F9"/>
<path d="M73.9097 142.948L76.0077 125.706C76.0888 125.047 75.6076 124.34 74.9335 124.13C74.2594 123.92 73.6467 124.287 73.5684 124.946L71.6355 140.813L52.544 145.424C51.923 145.575 51.6349 146.246 51.9034 146.922C52.172 147.598 52.8965 148.026 53.5203 147.875L73.9097 142.948Z" fill="white"/>
<path d="M498.93 376.495C500.278 376.495 501.369 377.759 501.369 379.315C501.369 380.872 500.278 382.135 498.639 380.243H2.78607C2.15109 380.243 1.63638 379.41 1.6308 378.382C1.62799 377.342 2.14548 376.495 2.78607 376.495H498.93Z" fill="#184655"/>
<path d="M402.667 63.9667L400.063 69.1087L394.185 68.9186L391.676 74.8905L385.477 72.7583L382.342 79.3869L376.389 78.1266L372.33 84.0091L374.56 85.5461L377.595 81.1475L383.875 82.4749L386.887 76.1034L393.192 78.2719L395.959 71.6824L401.702 71.8669L404.113 67.1022L407.859 68.0104L408.496 65.3836L402.667 63.9667Z" fill="#F7CC7F"/>
<path d="M87.8152 195.527L82.4723 197.696L78.1645 193.694L72.3461 196.55L69.0733 190.875L62.3542 193.814L58.6954 188.958L51.7637 190.729L52.4351 193.351L57.6156 192.026L61.4787 197.148L67.9404 194.323L71.2664 200.094L77.6862 196.944L81.8933 200.851L86.8473 198.839L89.0711 201.983L91.281 200.421L87.8152 195.527Z" fill="#50BFA5"/>
</svg>
