<?xml version="1.0" encoding="utf-8"?>
<!-- Generator: Adobe Illustrator 24.3.0, SVG Export Plug-In . SVG Version: 6.00 Build 0)  -->
<svg version="1.1" xmlns="http://www.w3.org/2000/svg" xmlns:xlink="http://www.w3.org/1999/xlink" x="0px" y="0px"
	 viewBox="0 0 449.37 449.37" style="enable-background:new 0 0 449.37 449.37;" xml:space="preserve">
<g id="Background_Complete">
	<g>
		<g>
			<g>
				<g>
					<g>
						<path style="fill:#F5F5F5;" d="M253.12,436.74c-17.23-8.16-24.11-27.56-26.54-45.62c-0.41-3.02-1.27-6.12-0.29-8.99
							c0.98-2.87,4.01-5.23,6.9-4.42c2.4,0.67,3.81,3.1,5.42,5.03c2.14,2.57,5.01,4.51,8.17,5.53c2.08,0.67,4.54,0.87,6.25-0.48
							c2.35-1.86,2.05-5.49,1.52-8.47c-0.98-5.55-1.95-11.11-2.93-16.66c-0.52-2.98-1.05-6.02-0.6-9.01
							c0.45-2.99,2.05-5.96,4.76-7.24c2.7-1.27,6.49-0.23,7.58,2.59c0.46,1.17,0.42,2.48,0.71,3.7c0.29,1.22,1.1,2.5,2.34,2.64
							c1.25,0.15,2.3-0.9,3.04-1.92c2.57-3.53,4-7.77,5.3-11.95c1.3-4.19,2.53-8.46,4.76-12.22c2.24-3.76,5.66-7.01,9.89-7.98
							c4.23-0.96,9.23,0.9,11.02,4.91c1.79,4.02,0.06,8.7-2.03,12.56c-3.11,5.72-7.04,10.98-11.63,15.56
							c-0.83,0.83-1.72,1.72-1.9,2.89c-0.31,2.1,1.91,3.75,3.98,4.08c2.35,0.36,4.72-0.27,7.09-0.39c2.37-0.12,5.07,0.48,6.32,2.53
							c1.74,2.84-0.27,6.47-2.43,8.99c-4.31,5.04-9.49,9.32-15.23,12.6c-2.06,1.17-4.25,2.27-5.76,4.11
							c-1.51,1.84-2.12,4.7-0.7,6.62c1.43,1.92,4.28,2.13,6.51,1.32c2.23-0.81,4.07-2.41,6.12-3.61c3.84-2.24,9.18-2.85,12.4,0.24
							c2.12,2.04,2.82,5.25,2.42,8.18c-0.4,2.92-1.77,5.61-3.27,8.14c-5.27,8.82-12.63,16.45-21.58,21.35
							C271.81,436.22,263.15,438.6,253.12,436.74"/>
					</g>
				</g>
			</g>
		</g>
		<g>
			<g>
				<g>
					<g>
						<g>
							<path style="fill:#E0E0E0;" d="M255.85,424.69c1.11-9.51,3.19-19.84,5.74-30.57c0.65-2.68,1.29-5.33,1.92-7.94
								c0.64-2.6,1.26-5.18,2.04-7.67c1.52-4.98,3.37-9.65,5.25-14.04c1.89-4.38,3.84-8.47,5.69-12.29
								c1.86-3.81,3.66-7.33,5.44-10.46c3.54-6.29,6.99-11.01,9.48-14.16c1.25-1.58,2.25-2.77,2.95-3.57
								c0.33-0.38,0.6-0.68,0.79-0.9c0.18-0.2,0.28-0.3,0.28-0.29c0.01,0.01-0.07,0.12-0.24,0.33c-0.19,0.23-0.44,0.54-0.75,0.94
								c-0.66,0.82-1.64,2.04-2.86,3.63c-2.44,3.18-5.83,7.93-9.31,14.22c-1.75,3.14-3.53,6.66-5.37,10.47
								c-1.83,3.82-3.76,7.91-5.63,12.29c-1.87,4.38-3.7,9.04-5.2,13.99c-0.76,2.47-1.39,5.03-2.02,7.64
								c-0.63,2.61-1.27,5.25-1.91,7.93c-2.55,10.72-4.64,21.02-5.77,30.5"/>
						</g>
					</g>
				</g>
			</g>
		</g>
		<g>
			<g>
				<g>
					<g>
						<g>
							<path style="fill:#E0E0E0;" d="M265.7,378.47c-0.04,0.01-0.21-0.42-0.51-1.22c-0.3-0.8-0.69-1.97-1.15-3.42
								c-0.92-2.9-2.06-6.94-3.3-11.41c-1.24-4.47-2.43-8.49-3.4-11.36c-0.48-1.44-0.88-2.6-1.16-3.4c-0.28-0.8-0.42-1.25-0.39-1.27
								c0.04-0.01,0.24,0.41,0.59,1.19c0.35,0.78,0.81,1.92,1.33,3.35c1.07,2.85,2.32,6.87,3.56,11.34
								c1.21,4.41,2.31,8.4,3.15,11.45c0.39,1.37,0.71,2.53,0.98,3.46C265.63,378,265.74,378.46,265.7,378.47z"/>
						</g>
					</g>
				</g>
			</g>
		</g>
		<g>
			<g>
				<g>
					<g>
						<g>
							<path style="fill:#E0E0E0;" d="M302.84,364.82c0.01,0.04-0.53,0.19-1.5,0.44c-0.97,0.25-2.37,0.61-4.09,1.11
								c-3.45,0.97-8.16,2.48-13.29,4.38c-5.13,1.9-9.7,3.83-12.96,5.31c-1.64,0.73-2.95,1.36-3.85,1.79
								c-0.91,0.43-1.42,0.65-1.43,0.62c-0.02-0.04,0.46-0.32,1.34-0.82c0.88-0.49,2.17-1.17,3.79-1.95
								c3.23-1.58,7.79-3.57,12.93-5.48c5.15-1.9,9.9-3.36,13.38-4.23c1.74-0.45,3.16-0.76,4.15-0.94
								C302.28,364.86,302.83,364.78,302.84,364.82z"/>
						</g>
					</g>
				</g>
			</g>
		</g>
		<g>
			<g>
				<g>
					<g>
						<g>
							<path style="fill:#E0E0E0;" d="M256.21,423.91c-0.02,0.01-0.13-0.13-0.34-0.42c-0.24-0.35-0.53-0.77-0.89-1.28
								c-0.77-1.11-1.84-2.75-3.13-4.79c-2.59-4.08-6-9.83-9.67-16.22c-3.67-6.4-7.02-12.17-9.52-16.3
								c-1.22-2.01-2.23-3.66-2.98-4.88c-0.32-0.53-0.59-0.97-0.8-1.33c-0.18-0.31-0.26-0.47-0.25-0.49
								c0.02-0.01,0.13,0.14,0.34,0.42c0.24,0.35,0.53,0.77,0.89,1.28c0.77,1.11,1.84,2.75,3.13,4.79c2.59,4.08,6,9.83,9.67,16.23
								c3.67,6.39,7.02,12.17,9.52,16.3c1.22,2,2.23,3.66,2.98,4.88c0.32,0.53,0.59,0.97,0.8,1.33
								C256.14,423.73,256.22,423.9,256.21,423.91z"/>
						</g>
					</g>
				</g>
			</g>
		</g>
		<g>
			<g>
				<g>
					<g>
						<g>
							<path style="fill:#E0E0E0;" d="M304.38,398.86c0.01,0.02-0.15,0.12-0.47,0.29c-0.38,0.2-0.84,0.45-1.4,0.75
								c-1.29,0.67-3.04,1.58-5.16,2.69c-4.35,2.27-10.33,5.48-16.93,9.04c-6.6,3.56-12.62,6.71-17.02,8.9
								c-2.2,1.09-3.99,1.96-5.24,2.53c-0.58,0.26-1.05,0.48-1.44,0.65c-0.33,0.14-0.51,0.21-0.52,0.19
								c-0.01-0.02,0.15-0.12,0.47-0.29c0.38-0.2,0.84-0.45,1.4-0.75c1.29-0.67,3.04-1.58,5.16-2.69
								c4.35-2.27,10.33-5.48,16.94-9.04c6.6-3.56,12.61-6.71,17.02-8.9c2.2-1.09,3.99-1.96,5.24-2.53
								c0.58-0.26,1.05-0.48,1.44-0.65C304.2,398.91,304.38,398.85,304.38,398.86z"/>
						</g>
					</g>
				</g>
			</g>
		</g>
	</g>
	<g>
		<g>
			<g>
				<path style="fill:#EBEBEB;" d="M128.08,222.09c0,0-11.88,1.65-5.21,27.67c6.67,26.02,12.33,39.44,12.33,39.44
					s0.9,5.89-3.86,5.71c-4.75-0.18-14.44-4.04-17.73,1.09c-3.41,5.32-0.43,11.72,7.02,18.43c7.45,6.71,23.24,22,24.66,23.39
					c1.4,1.36,2.46,4.25-0.8,4.64c-3.26,0.39-26.39-2.32-27.02,8.73c-0.63,11.05,23.2,26.32,25.77,28.04
					c2.57,1.72,2.98,3.06,2.4,4.56c-0.58,1.49-8.26-0.15-14.87-0.65c-6.61-0.5-14.36,0.07-14.19,6.48
					c0.17,6.41,12.68,22.6,49.19,34.63l17.28,4.47l12.77-12.58c25.7-28.59,28.51-48.85,25.48-54.5c-3.04-5.64-10.05-2.29-15.54,1.43
					c-5.49,3.72-11.34,8.97-12.58,7.96c-1.24-1.01-1.56-2.38-0.18-5.15c1.38-2.77,14.47-27.87,8.43-37.14
					c-6.04-9.28-24.76,4.57-27.78,5.85c-3.02,1.28-3.54-1.76-3-3.63c0.54-1.91,6.65-23.03,9.78-32.55
					c3.13-9.52,2.54-16.56-3.06-19.48c-5.4-2.82-11.89,5.35-15.92,7.86c-4.03,2.52-6.18-3.04-6.18-3.04s-1.75-14.45-8.9-40.35
					c-7.14-25.9-18.53-21.26-18.53-21.26"/>
			</g>
		</g>
		<g>
			<g>
				<g>
					<path style="fill:#E0E0E0;" d="M183.05,433.03c-5.17-19.04-13.79-53.03-21.35-82.18c-7.55-29.14-14.41-55.51-19.49-74.58
						c-2.54-9.51-4.6-17.22-6.03-22.57c-0.71-2.65-1.26-4.71-1.64-6.14c-0.18-0.69-0.31-1.22-0.41-1.6
						c-0.09-0.36-0.12-0.55-0.12-0.55s0.07,0.18,0.18,0.53c0.11,0.38,0.27,0.91,0.46,1.59c0.4,1.42,0.99,3.48,1.74,6.11
						c1.5,5.31,3.62,13.01,6.2,22.53c5.17,19.04,12.09,45.4,19.64,74.54c7.55,29.15,16.12,63.16,21.19,82.22"/>
				</g>
			</g>
		</g>
		<g>
			<g>
				<g>
					<path style="fill:#E0E0E0;" d="M126.95,301.94c0.02-0.03,0.42,0.19,1.14,0.61c0.72,0.42,1.73,1.06,2.98,1.86
						c2.49,1.61,5.88,3.91,9.57,6.53c3.63,2.59,6.91,4.93,9.43,6.72c1.14,0.8,2.1,1.48,2.87,2.02c0.68,0.47,1.05,0.75,1.03,0.78
						c-0.02,0.03-0.43-0.18-1.14-0.6c-0.71-0.42-1.73-1.06-2.97-1.88c-2.48-1.63-5.83-3.98-9.52-6.6c-3.65-2.56-6.95-4.88-9.47-6.65
						c-1.14-0.8-2.1-1.47-2.88-2.01C127.3,302.26,126.93,301.98,126.95,301.94z"/>
				</g>
			</g>
		</g>
		<g>
			<g>
				<g>
					<path style="fill:#E0E0E0;" d="M155.4,319.62c-0.13-0.08,4.32-7.27,9.93-16.06c5.62-8.79,10.27-15.85,10.4-15.77
						c0.13,0.08-4.32,7.27-9.94,16.06C160.19,312.65,155.53,319.71,155.4,319.62z"/>
				</g>
			</g>
		</g>
		<g>
			<g>
				<g>
					<path style="fill:#E0E0E0;" d="M164.98,364.9c-0.02-0.03,0.32-0.35,0.95-0.92c0.72-0.63,1.62-1.42,2.7-2.36
						c2.27-1.99,5.4-4.76,8.74-7.94c3.35-3.17,6.28-6.15,8.38-8.32c0.99-1.02,1.83-1.88,2.49-2.57c0.59-0.6,0.93-0.93,0.96-0.9
						c0.03,0.03-0.26,0.4-0.8,1.05c-0.54,0.65-1.35,1.57-2.37,2.69c-2.03,2.24-4.93,5.27-8.28,8.46c-3.35,3.19-6.53,5.92-8.87,7.84
						c-1.17,0.96-2.13,1.72-2.81,2.23C165.39,364.66,165,364.93,164.98,364.9z"/>
				</g>
			</g>
		</g>
		<g>
			<g>
				<g>
					<path style="fill:#E0E0E0;" d="M135.73,354.57c0.01-0.04,0.43,0.07,1.18,0.29c0.86,0.27,1.92,0.59,3.16,0.98
						c2.66,0.85,6.33,2.06,10.37,3.43c4.04,1.37,7.69,2.64,10.32,3.58c1.22,0.45,2.26,0.83,3.11,1.15c0.73,0.28,1.13,0.46,1.12,0.49
						c-0.01,0.04-0.43-0.07-1.18-0.29c-0.86-0.27-1.92-0.59-3.16-0.98c-2.66-0.85-6.33-2.06-10.37-3.43
						c-4.04-1.37-7.69-2.64-10.32-3.58c-1.22-0.45-2.26-0.83-3.11-1.15C136.11,354.78,135.72,354.61,135.73,354.57z"/>
				</g>
			</g>
		</g>
		<g>
			<g>
				<g>
					<path style="fill:#E0E0E0;" d="M139.11,395.62c0.01-0.04,0.55,0.1,1.51,0.38c1.06,0.32,2.42,0.74,4.06,1.24
						c3.42,1.07,8.13,2.58,13.33,4.29c5.2,1.7,9.89,3.28,13.28,4.44c1.62,0.57,2.96,1.04,4,1.41c0.94,0.34,1.46,0.55,1.44,0.59
						c-0.01,0.04-0.55-0.1-1.51-0.38c-1.06-0.32-2.42-0.74-4.06-1.24c-3.42-1.07-8.13-2.58-13.33-4.29
						c-5.19-1.7-9.89-3.28-13.28-4.44c-1.62-0.57-2.96-1.04-4-1.41C139.61,395.86,139.1,395.65,139.11,395.62z"/>
				</g>
			</g>
		</g>
		<g>
			<g>
				<g>
					<path style="fill:#E0E0E0;" d="M175.92,407.42c-0.03-0.03,0.39-0.45,1.17-1.19c0.85-0.8,1.97-1.85,3.31-3.11
						c2.79-2.63,6.63-6.28,10.76-10.43c4.13-4.14,7.78-7.99,10.4-10.8c1.26-1.35,2.3-2.46,3.1-3.32c0.74-0.78,1.16-1.2,1.19-1.18
						c0.03,0.03-0.34,0.49-1.02,1.32c-0.69,0.83-1.7,2.01-2.98,3.44c-2.55,2.88-6.15,6.77-10.29,10.93
						c-4.13,4.16-8.03,7.77-10.89,10.33c-1.43,1.28-2.61,2.3-3.43,2.99C176.41,407.08,175.95,407.44,175.92,407.42z"/>
				</g>
			</g>
		</g>
	</g>
	<g>
		<path style="fill:#F5F5F5;" d="M76.48,66.92l-9.76-3.04c0,0-2.56,8.19-11.12,5.68c-4.45-1.3-5.84-4.92-6.07-7.43
			c-0.28-2.91,0.97-5.75,3.16-7.69c2.51-2.21,6.91-3.56,13.12-0.35l6.86-22l-9.65-3.01l-4.02,12.89c0,0-14.63-0.72-19.28,14.19
			c-4.45,14.27,7.31,21.58,12.79,23.29C56.71,80.76,71.29,84.2,76.48,66.92z"/>
		
			<rect x="65.52" y="16.68" transform="matrix(-0.9546 -0.2978 0.2978 -0.9546 131.7023 63.0005)" style="fill:#F5F5F5;" width="10.26" height="9.58"/>
	</g>
	<g>
		<path style="fill:#EBEBEB;" d="M103.42,42.08l3.91-1.03c0,0-0.87-3.28,2.53-4.24c1.76-0.5,2.99,0.42,3.59,1.21
			c0.71,0.92,0.88,2.13,0.56,3.24c-0.37,1.27-1.56,2.64-4.32,2.87l2.32,8.81l3.86-1.02l-1.36-5.16c0,0,5.05-2.83,3.47-8.8
			c-1.51-5.71-6.98-5.69-9.18-5.11C107.13,33.29,101.52,35.2,103.42,42.08z"/>
		
			<rect x="112.89" y="54.18" transform="matrix(0.9669 -0.2551 0.2551 0.9669 -10.5016 31.1658)" style="fill:#EBEBEB;" width="4.06" height="3.79"/>
	</g>
	<g>
		<path style="fill:#EBEBEB;" d="M426.23,143.29l3.8,1.38c0,0,1.16-3.19,4.49-2.05c1.73,0.59,2.22,2.05,2.27,3.04
			c0.06,1.16-0.48,2.25-1.39,2.98c-1.03,0.83-2.79,1.28-5.19-0.1l-3.1,8.57l3.76,1.36l1.82-5.02c0,0,5.76,0.55,7.87-5.26
			c2.01-5.56-2.5-8.65-4.64-9.43C434.28,138.18,428.58,136.56,426.23,143.29z"/>
		
			<rect x="425.69" y="159.45" transform="matrix(0.9402 0.3406 -0.3406 0.9402 80.5318 -136.0382)" style="fill:#EBEBEB;" width="4.06" height="3.79"/>
	</g>
	<g>
		<path style="fill:#F5F5F5;" d="M22.94,186.81l8.04-3.1c0,0-2.6-6.75,4.37-9.58c3.62-1.47,6.43,0.19,7.9,1.73
			c1.71,1.78,2.37,4.3,1.94,6.73c-0.5,2.77-2.7,5.97-8.49,7.1l6.99,18.13l7.95-3.06l-4.09-10.62c0,0,10.04-7.18,5.31-19.47
			c-4.53-11.76-16.13-10.43-20.64-8.69C28.76,167.32,17.32,172.68,22.94,186.81z"/>
		
			<rect x="46.27" y="209.75" transform="matrix(0.9331 -0.3595 0.3595 0.9331 -73.4749 32.4798)" style="fill:#F5F5F5;" width="8.65" height="8.08"/>
	</g>
	<g>
		<path style="fill:#F5F5F5;" d="M429.35,217.32l-5.7,2.2c0,0,1.84,4.79-3.1,6.79c-2.57,1.04-4.56-0.14-5.6-1.22
			c-1.21-1.26-1.68-3.05-1.37-4.77c0.35-1.97,1.91-4.23,6.01-5.03l-4.95-12.85l-5.64,2.17l2.9,7.53c0,0-7.12,5.09-3.76,13.8
			c3.21,8.33,11.43,7.39,14.63,6.16C425.23,231.14,433.33,227.33,429.35,217.32z"/>
		
			<rect x="406.69" y="195.34" transform="matrix(-0.9331 0.3595 -0.3595 -0.9331 863.3719 235.8497)" style="fill:#F5F5F5;" width="6.13" height="5.72"/>
	</g>
</g>
<g id="Background_Simple" style="display:none;">
	<path style="display:inline;fill:#EBEBEB;" d="M414.98,77.2c-23.61-35.23-63.69-60.28-106.1-60.93
		c-42.41-0.65-85.28,25.62-99.56,65.55c-6.96,19.47-7.19,40.62-11.28,60.88c-4.09,20.27-13.57,41.35-32.11,50.49
		c-25.11,12.38-54.89-1.76-82.86-0.43c-31.65,1.51-60.34,24.65-71.5,54.3s-5.74,64.25,11.25,91c16.98,26.75,44.58,45.85,74.69,55.73
		c30.11,9.87,101.07,15.61,132.47,11.39l0,0c14.8-0.64,29.48-2.99,43.68-7.21c43.18-12.84,78.33-34.39,107.55-64.71
		c34.84-36.14,56.56-84.47,61.42-134.43C446.73,156.63,438.59,112.43,414.98,77.2z"/>
</g>
<g id="Floor">
	<g>
		<path style="fill:#263238;" d="M445.45,438.45c0,0.14-98.85,0.26-220.76,0.26c-121.95,0-220.78-0.12-220.78-0.26
			s98.83-0.26,220.78-0.26C346.6,438.19,445.45,438.31,445.45,438.45z"/>
	</g>
</g>
<g id="Plant">
	<g>
		<g>
			<g>
				<g>
					<path style="fill:#F58840;" d="M67.32,412.48c0.95-3.68-1.46-7.37-4.17-10.04c-2.7-2.67-5.93-5.06-7.34-8.59
						c-2.28-5.72,0.78-13.12-3.1-17.89c-2.29-2.81-6.39-3.74-8.42-6.74c-1.06-1.57-1.41-3.5-1.83-5.36
						c-2.13-9.45-6.86-18.29-13.53-25.32c-0.46,8.41,1.39,16.94,5.31,24.4c1.57,3,3.51,5.92,4.03,9.27
						c0.85,5.43-2.19,11.03-0.85,16.37c1.53,6.1,8.38,10.19,8.71,16.47c0.27,5.31-4.35,9.97-4.01,15.28c0.15,2.26,1.2,4.36,2.36,6.3
						c4.11,6.83,10.14,11.53,19.28,11.37l11.2,0.39L67.32,412.48z"/>
				</g>
			</g>
		</g>
		<g>
			<g>
				<g>
					<g>
						<g>
							<g>
								<path style="fill:#263238;" d="M77.23,438.69c0,0,1.07,0.25,3.08-0.07c1-0.15,2.24-0.41,3.64-0.92
									c1.39-0.51,2.98-1.23,4.49-2.46c0.73-0.64,1.46-1.42,1.85-2.46c0.39-1.04,0.46-2.18,0.53-3.35
									c0.06-1.17,0.06-2.39,0.26-3.62c0.19-1.23,0.67-2.44,1.37-3.6c1.32-2.32,3.51-4.51,4.22-7.66c0.77-3.1,0.22-6.45-0.3-9.82
									c-0.52-3.36-1.02-7.02,0.26-10.52c1.2-3.5,3.66-6.66,4.88-10.61c1.22-3.99,0.65-8.28,0.91-12.51
									c0.12-2.12,0.53-4.25,1.46-6.22c0.91-1.98,2.16-3.85,3.14-5.94c1.99-4.22,2.34-9,2.88-13.68c0.27-2.36,0.53-4.75,0.8-7.15
									c0.27-2.42,0.48-4.83,1.24-7.16c0.69-2.35,1.69-4.62,2.68-6.93c0.48-1.16,1-2.33,1.3-3.62c0.22-1.32,0.28-2.56,0.36-3.85
									c0.13-2.57,0.02-5.17-0.3-7.75c-0.3-2.58-0.77-5.15-1.05-7.74c-0.02-0.15-0.03-0.31-0.05-0.45l-0.06-0.52l-0.46,0.23
									c-2.4,1.2-4.45,2.99-6.03,5.09c-1.6,2.08-2.77,4.43-3.7,6.83c-1.87,4.81-2.54,9.85-3.49,14.66
									c-0.92,4.81-2.13,9.54-4.6,13.54c-1.23,1.99-2.71,3.81-4.01,5.76c-1.3,1.93-2.44,4.05-2.78,6.38
									c-0.66,4.74,1.95,8.9,1.4,13.09c-0.19,2.08-1.02,4.03-2.04,5.81c-1.02,1.79-2.21,3.45-3.35,5.12
									c-1.13,1.67-2.21,3.36-3.01,5.17c-0.81,1.8-1.25,3.73-1.38,5.61c-0.27,3.78,0.26,7.36-0.01,10.74
									c-0.23,3.39-1.42,6.46-2.76,9.2c-1.35,2.76-2.86,5.25-4.12,7.66c-0.64,1.21-1.22,2.39-1.7,3.57
									c-0.5,1.18-0.75,2.39-0.98,3.54c-0.37,2.32-0.33,4.48-0.08,6.39c0.49,3.84,1.92,6.6,3.2,8.15c0.29,0.41,0.64,0.71,0.91,0.98
									c0.26,0.28,0.52,0.47,0.74,0.62C77,438.55,77.23,438.69,77.23,438.69c0.05-0.06-0.92-0.57-2.17-2.14
									c-1.23-1.56-2.6-4.3-3.04-8.1c-0.22-1.88-0.24-4.02,0.14-6.3c0.24-1.13,0.49-2.31,0.99-3.46c0.48-1.16,1.07-2.33,1.71-3.52
									c1.27-2.39,2.79-4.88,4.18-7.65c1.37-2.76,2.61-5.89,2.86-9.36c0.29-3.45-0.23-7.05,0.06-10.74
									c0.13-1.84,0.56-3.68,1.35-5.42c0.78-1.75,1.84-3.41,2.97-5.06c1.13-1.66,2.34-3.32,3.39-5.15
									c1.05-1.81,1.92-3.84,2.14-6.05c0.54-4.47-2.05-8.66-1.38-13.06c0.32-2.18,1.41-4.21,2.68-6.1
									c1.28-1.91,2.77-3.73,4.03-5.78c2.54-4.11,3.78-8.94,4.71-13.77c0.95-4.84,1.63-9.83,3.46-14.54
									c0.91-2.34,2.06-4.63,3.61-6.65c1.53-2.03,3.49-3.73,5.77-4.88l-0.52-0.29c0.02,0.14,0.03,0.3,0.05,0.45
									c0.28,2.62,0.75,5.19,1.05,7.74c0.31,2.55,0.42,5.1,0.3,7.63c-0.07,1.25-0.15,2.56-0.34,3.74
									c-0.27,1.18-0.78,2.34-1.26,3.49c-0.98,2.3-2,4.61-2.7,7.01c-0.78,2.39-1,4.89-1.26,7.28c-0.27,2.41-0.53,4.8-0.79,7.16
									c-0.54,4.71-0.89,9.41-2.8,13.48c-0.95,2.03-2.2,3.9-3.13,5.95c-0.96,2.04-1.39,4.29-1.5,6.45
									c-0.24,4.32,0.32,8.55-0.85,12.37c-1.16,3.81-3.6,6.99-4.84,10.6c-1.32,3.65-0.77,7.43-0.24,10.78
									c0.54,3.37,1.08,6.65,0.36,9.63c-0.65,3.01-2.78,5.18-4.12,7.57c-0.7,1.18-1.2,2.47-1.39,3.74c-0.2,1.28-0.19,2.5-0.24,3.67
									c-0.06,1.15-0.12,2.28-0.48,3.25c-0.35,0.97-1.04,1.73-1.74,2.36c-1.46,1.21-3.02,1.95-4.39,2.47
									c-1.38,0.52-2.6,0.81-3.59,0.97c-0.99,0.18-1.76,0.21-2.28,0.22C77.49,438.69,77.23,438.69,77.23,438.69z"/>
							</g>
						</g>
					</g>
				</g>
				<g>
					<g>
						<g>
							<g>
								<path style="fill:#263238;" d="M112.61,306.78c-0.01,0-0.05,0.11-0.11,0.34c-0.07,0.27-0.15,0.6-0.25,1.01
									c-0.22,0.88-0.48,2.21-0.91,3.88c-0.44,1.66-1.46,3.54-2.32,5.85c-0.9,2.29-1.82,4.95-2.66,7.94
									c-0.85,2.99-1.61,6.3-2.4,9.85c-0.82,3.55-1.63,7.35-3.58,10.94c-0.92,1.82-1.95,3.66-2.77,5.67
									c-0.84,2.01-1.3,4.22-1.61,6.43c-0.54,4.44-1.35,8.94-2.41,13.55c-2.25,9.18-4.38,17.92-6.33,25.87
									c-1.99,7.93-3.79,15.08-5.31,21.1c-1.47,5.97-2.67,10.82-3.52,14.24c-0.39,1.64-0.7,2.94-0.92,3.88
									c-0.09,0.41-0.16,0.74-0.22,1.01c-0.05,0.23-0.06,0.35-0.05,0.35c0.01,0,0.05-0.11,0.12-0.33c0.08-0.26,0.17-0.59,0.29-1
									c0.26-0.93,0.61-2.22,1.05-3.85c0.9-3.41,2.17-8.24,3.74-14.19c1.56-6.01,3.41-13.15,5.46-21.06
									c1.97-7.96,4.12-16.7,6.39-25.88c1.06-4.6,1.88-9.19,2.41-13.6c0.31-2.19,0.74-4.32,1.55-6.27
									c0.79-1.96,1.81-3.79,2.73-5.63c1.97-3.65,2.79-7.57,3.57-11.1c0.77-3.56,1.49-6.87,2.31-9.85
									c0.81-2.98,1.68-5.64,2.55-7.93c0.82-2.31,1.81-4.2,2.22-5.92c0.39-1.7,0.6-3.02,0.78-3.92c0.07-0.41,0.13-0.75,0.18-1.02
									C112.61,306.9,112.62,306.78,112.61,306.78z"/>
							</g>
						</g>
					</g>
				</g>
			</g>
			<g>
				<g>
					<g>
						<g>
							<path style="fill:#F59758;" d="M79.2,438.73c7.31-4.35,9.41-17.54,6.36-25.49s-8.39-15.2-9.21-23.67
								c-0.63-6.51,1.5-13.19-0.02-19.55c-2.05-8.59-10.43-15.24-10.33-24.06c0.05-4.95,2.87-9.61,2.65-14.56
								c-0.28-6.07-4.93-10.88-7.82-16.23c-4.42-8.18-4.71-17.86-6.22-27.03c-1.51-9.17-5.01-19-13.14-23.51
								c-1.2,7.79-3.25,13.12-2.61,23.68c0.23,3.79,4.63,11.04,5.23,19.35c0.36,4.96,0.61,9.94,0.91,14.9
								c0.3,4.83,0.61,9.76,2.34,14.28c1.33,3.47,3.46,6.61,4.45,10.19c1.85,6.73-0.58,14.02,0.92,20.84
								c1.27,5.78,5.27,10.75,6.09,16.61c1.15,8.23-4.18,16.79-1.45,24.64c1.35,3.9,4.56,7.03,5.47,11.05
								c0.71,3.12-0.06,6.43,0.58,9.56c1.03,5.05,10.67,8.98,15.81,8.66"/>
						</g>
					</g>
				</g>
				<g>
					<g>
						<g>
							<g>
								<path style="fill:#263238;" d="M43.49,272.36c-0.01,0,0,0.15,0.03,0.44c0.04,0.33,0.1,0.75,0.16,1.28
									c0.17,1.12,0.36,2.78,0.74,4.91c0.41,2.15,1.52,4.57,2.4,7.48c0.93,2.91,1.86,6.26,2.68,10.02
									c0.83,3.75,1.53,7.91,2.27,12.38c0.76,4.44,1.53,9.34,3.75,13.99c1.03,2.34,2.18,4.68,3.04,7.17
									c0.89,2.48,1.29,5.16,1.54,7.9c0.38,5.52,1.11,11.26,2.15,17.04c2.24,11.54,4.37,22.53,6.32,32.54
									c2.05,9.97,3.89,18.95,5.44,26.51c1.57,7.5,2.84,13.59,3.73,17.86c0.45,2.07,0.8,3.69,1.05,4.85
									c0.12,0.52,0.22,0.94,0.29,1.26c0.07,0.28,0.11,0.43,0.12,0.42c0.01,0-0.01-0.15-0.05-0.44c-0.06-0.32-0.13-0.74-0.22-1.27
									c-0.22-1.16-0.53-2.79-0.92-4.87c-0.84-4.28-2.03-10.38-3.51-17.9c-1.51-7.57-3.3-16.56-5.29-26.54
									c-1.92-10-4.04-20.99-6.26-32.53c-1.03-5.79-1.76-11.44-2.15-16.98c-0.26-2.76-0.68-5.52-1.6-8.06
									c-0.89-2.55-2.06-4.9-3.08-7.21c-2.2-4.59-2.98-9.37-3.77-13.83c-0.76-4.46-1.49-8.63-2.36-12.39
									c-0.86-3.76-1.82-7.12-2.8-10.03c-0.93-2.93-2.07-5.32-2.51-7.42c-0.42-2.1-0.65-3.77-0.87-4.88
									c-0.1-0.53-0.18-0.94-0.24-1.27C43.54,272.5,43.5,272.36,43.49,272.36z"/>
							</g>
						</g>
					</g>
				</g>
			</g>
		</g>
	</g>
</g>
<g id="Speech_Bubble">
	<g>
		<g>
			<path style="fill:#F58840;" d="M396.16,63.46h-3.98c0,0,0,3.34-3.47,3.4c-1.8,0.03-2.74-1.15-3.12-2.06
				c-0.44-1.05-0.31-2.25,0.28-3.22c0.68-1.11,2.15-2.13,4.84-1.65v-8.98h-3.94v5.26c0,0-5.52,1.43-5.52,7.51
				c0,5.82,5.22,7.17,7.45,7.17C390.41,70.89,396.23,70.48,396.16,63.46z"/>
			
				<rect x="386.72" y="45.37" transform="matrix(-1 -1.224647e-16 1.224647e-16 -1 777.4353 94.4709)" style="fill:#F58840;" width="3.99" height="3.73"/>
		</g>
		<g>
			<g>
				<g>
					<g>
						<g>
							<g>
								<path style="fill:#263238;" d="M417.96,58.13c0.01,0,0.01-0.17,0.01-0.5c-0.01-0.37-0.02-0.86-0.04-1.48
									c-0.02-0.33-0.01-0.69-0.05-1.09c-0.06-0.4-0.12-0.84-0.18-1.31c-0.07-0.47-0.14-0.98-0.22-1.52
									c-0.13-0.53-0.27-1.1-0.42-1.7c-0.62-2.39-1.67-5.29-3.6-8.25c-1.9-2.96-4.62-6.04-8.31-8.53
									c-3.7-2.45-8.35-4.34-13.58-4.84c-1.31-0.05-2.64-0.21-3.99-0.08c-0.67,0.05-1.36,0.03-2.04,0.13
									c-0.68,0.1-1.37,0.21-2.06,0.31c-2.73,0.56-5.52,1.37-8.12,2.77c-2.61,1.37-5.09,3.14-7.3,5.3
									c-2.16,2.2-4.04,4.78-5.49,7.64c-1.46,2.86-2.47,6.02-2.86,9.31c-0.16,0.82-0.16,1.65-0.21,2.48
									c-0.05,0.83-0.09,1.67-0.05,2.51c0.07,1.68,0.28,3.37,0.64,5.03c0.77,3.62,2.24,7.02,4.21,10.01l-0.03-0.3
									c-1.39,3.47-2.76,6.88-4.09,10.2l-0.24,0.6l0.63-0.17c3.74-1.03,7.38-2.03,10.91-3l-0.27-0.05
									c3.8,2.86,8.15,4.69,12.46,5.44c2.15,0.38,4.31,0.54,6.38,0.4c1.04-0.04,2.07-0.09,3.07-0.29c0.5-0.08,1-0.15,1.49-0.23
									c0.49-0.09,0.97-0.24,1.44-0.36c7.68-1.97,13.35-6.7,16.59-11.38c1.65-2.34,2.83-4.66,3.57-6.77
									c0.19-0.53,0.37-1.04,0.55-1.53c0.13-0.5,0.25-0.99,0.37-1.45c0.11-0.46,0.22-0.9,0.33-1.33c0.08-0.43,0.13-0.84,0.18-1.22
									c0.1-0.77,0.23-1.45,0.26-2.04c0.02-0.58,0.04-1.08,0.05-1.5c0.01-0.38,0.02-0.68,0.02-0.92
									C417.97,58.23,417.97,58.13,417.96,58.13c-0.01,0-0.02,0.1-0.04,0.31c-0.02,0.23-0.04,0.53-0.07,0.91
									c-0.03,0.41-0.06,0.91-0.1,1.49c-0.05,0.59-0.19,1.26-0.31,2.02c-0.55,3-1.75,7.5-5.11,12.1
									c-3.25,4.59-8.86,9.2-16.41,11.09c-0.47,0.11-0.94,0.26-1.42,0.34c-0.49,0.07-0.97,0.15-1.47,0.22
									c-0.98,0.19-1.99,0.23-3.01,0.27c-2.04,0.13-4.15-0.03-6.26-0.41c-4.22-0.76-8.47-2.56-12.19-5.37l-0.12-0.09l-0.15,0.04
									c-3.52,0.96-7.17,1.95-10.91,2.98l0.38,0.43c1.34-3.32,2.71-6.73,4.11-10.2l0.06-0.16l-0.1-0.14
									c-1.93-2.93-3.36-6.26-4.12-9.79c-0.35-1.63-0.55-3.27-0.62-4.92c-0.04-0.82-0.01-1.64,0.04-2.46
									c0.05-0.81,0.05-1.63,0.2-2.43c0.38-3.22,1.36-6.31,2.79-9.11c1.41-2.8,3.24-5.32,5.36-7.49c2.16-2.12,4.58-3.86,7.13-5.21
									c2.54-1.38,5.28-2.19,7.95-2.74c0.68-0.1,1.35-0.21,2.01-0.31c0.67-0.1,1.34-0.09,2-0.14c1.33-0.13,2.63,0.02,3.92,0.06
									c5.13,0.47,9.71,2.3,13.37,4.68c3.65,2.43,6.36,5.44,8.26,8.35c1.94,2.91,3.01,5.76,3.66,8.12
									c0.16,0.59,0.31,1.15,0.45,1.68c0.09,0.54,0.17,1.04,0.25,1.51c0.08,0.47,0.15,0.9,0.21,1.29c0.04,0.4,0.05,0.76,0.08,1.08
									c0.05,0.62,0.08,1.11,0.11,1.47C417.93,57.96,417.95,58.13,417.96,58.13z"/>
							</g>
						</g>
					</g>
				</g>
			</g>
		</g>
	</g>
</g>
<g id="Question_Mark">
	<g>
		<g>
			<g>
				<path style="fill:#E8505B;" d="M119.75,176.07h57.75c0,0,0-48.49,50.39-49.36c26.17-0.45,39.74,16.69,45.25,29.83
					c6.4,15.25,4.46,32.63-4.11,46.78c-9.8,16.15-30.89,32.38-69.81,25.52l-0.37,128.67h57.11v-76.28c0,0,80.09-20.7,80.09-108.97
					c0-84.45-68.29-102.69-105-103.87c-20.42-0.65-27.83-1.53-53.09,2.06C145.78,75.01,119.07,112.39,119.75,176.07z"/>
				<rect x="198.69" y="384.33" style="fill:#E8505B;" width="57.96" height="54.13"/>
				<rect x="198.69" y="384.33" style="fill:#F59758;" width="57.96" height="54.13"/>
				<path style="fill:#F59758;" d="M119.75,176.07h57.75c0,0,0-48.49,50.39-49.36c26.17-0.45,39.74,16.69,45.25,29.83
					c6.4,15.25,4.46,32.63-4.11,46.78c-9.8,16.15-30.89,32.38-69.81,25.52l-0.37,128.67h57.11v-76.28c0,0,80.09-20.7,80.09-108.97
					c0-84.45-68.29-102.69-105-103.87c-20.42-0.65-27.83-1.53-53.09,2.06C145.78,75.01,119.07,112.39,119.75,176.07z"/>
			</g>
			<g>
				<path style="fill:#E8505B;" d="M95.83,176.07h57.75c0,0,0-48.49,50.39-49.36c26.17-0.45,39.74,16.69,45.25,29.83
					c6.4,15.25,4.46,32.63-4.11,46.78c-9.8,16.15-31.26,30.83-70.18,23.97V357.5h57.11v-76.28c0,0,80.09-20.7,80.09-108.97
					c0-84.45-75.73-104.07-108.15-104.06C179.19,68.19,94.74,74.18,95.83,176.07z"/>
				<path style="fill:#F58840;" d="M95.83,176.07h57.75c0,0,0-48.49,50.39-49.36c26.17-0.45,39.74,16.69,45.25,29.83
					c6.4,15.25,4.46,32.63-4.11,46.78c-9.8,16.15-31.26,30.83-70.18,23.97V357.5h57.11v-76.28c0,0,80.09-20.7,80.09-108.97
					c0-84.45-75.73-104.07-108.15-104.06C179.19,68.19,94.74,74.18,95.83,176.07z"/>
				<rect x="174.77" y="384.33" style="fill:#E8505B;" width="57.96" height="54.13"/>
				<rect x="174.77" y="384.33" style="fill:#F58840;" width="57.96" height="54.13"/>
			</g>
		</g>
		<g>
			<path style="fill:#263238;" d="M210.5,126.98c0,0.02-0.3,0-0.86-0.05c-0.57-0.03-1.39-0.19-2.46-0.2
				c-2.14-0.14-5.25-0.09-9.06,0.38c-3.8,0.48-8.29,1.42-13.07,3.07c-2.38,0.86-4.85,1.84-7.28,3.13c-2.45,1.24-4.88,2.76-7.12,4.61
				c-2.26,1.83-4.17,3.97-5.83,6.16c-1.67,2.19-3.12,4.42-4.37,6.62c-2.46,4.43-4.13,8.7-5.17,12.39c-1.06,3.68-1.53,6.76-1.74,8.89
				c-0.12,1.07-0.16,1.9-0.18,2.46c-0.03,0.56-0.06,0.86-0.08,0.86c-0.02,0-0.03-0.3-0.03-0.86c0-0.57,0-1.4,0.09-2.48
				c0.15-2.15,0.56-5.26,1.58-8.98c1-3.72,2.65-8.04,5.11-12.52c1.25-2.22,2.7-4.48,4.38-6.7c1.67-2.21,3.6-4.39,5.9-6.25
				c2.28-1.88,4.74-3.41,7.22-4.66c2.46-1.3,4.96-2.28,7.36-3.13c4.83-1.65,9.36-2.56,13.19-2.99c3.83-0.42,6.97-0.42,9.11-0.21
				c1.08,0.04,1.9,0.24,2.46,0.3C210.21,126.91,210.5,126.96,210.5,126.98z"/>
		</g>
		<g>
			<path style="fill:#263238;" d="M297.51,116.67c-0.01,0-0.07-0.07-0.19-0.23c-0.13-0.18-0.3-0.41-0.51-0.7
				c-0.46-0.65-1.09-1.55-1.9-2.7c-0.42-0.58-0.85-1.25-1.38-1.94c-0.56-0.67-1.16-1.4-1.8-2.19c-0.65-0.79-1.34-1.63-2.07-2.52
				c-0.75-0.87-1.63-1.72-2.5-2.66c-0.9-0.91-1.79-1.92-2.8-2.88c-1.04-0.94-2.11-1.91-3.23-2.92c-0.56-0.5-1.11-1.03-1.71-1.53
				c-0.61-0.48-1.23-0.97-1.86-1.47c-1.27-0.98-2.53-2.04-3.9-3.03c-5.48-3.97-11.89-7.79-18.92-11.18c-1.78-0.8-3.54-1.6-5.27-2.38
				c-1.77-0.69-3.52-1.37-5.24-2.03c-1.7-0.71-3.44-1.21-5.12-1.76c-1.69-0.52-3.32-1.13-4.97-1.52c-1.64-0.43-3.23-0.85-4.78-1.26
				c-1.55-0.41-3.09-0.65-4.56-0.97c-1.48-0.28-2.89-0.64-4.28-0.82c-1.38-0.2-2.71-0.39-3.98-0.58c-2.53-0.43-4.85-0.52-6.87-0.72
				c-1.01-0.08-1.96-0.19-2.83-0.23c-0.87-0.02-1.66-0.04-2.38-0.06c-1.4-0.05-2.51-0.08-3.3-0.11c-0.35-0.02-0.64-0.03-0.86-0.04
				c-0.19-0.01-0.29-0.02-0.29-0.03c0-0.01,0.1-0.02,0.29-0.02c0.22,0,0.51-0.01,0.86-0.01c0.79,0,1.9,0,3.3,0.01
				c0.72,0.01,1.52,0.01,2.39,0.02c0.87,0.03,1.82,0.12,2.84,0.19c2.03,0.18,4.36,0.24,6.9,0.65c1.27,0.17,2.61,0.35,3.99,0.54
				c1.39,0.16,2.81,0.52,4.3,0.79c1.48,0.31,3.02,0.55,4.58,0.95c1.56,0.4,3.16,0.82,4.81,1.24c1.66,0.38,3.29,0.98,4.99,1.51
				c1.69,0.55,3.44,1.05,5.15,1.76c1.72,0.67,3.48,1.34,5.26,2.03c1.74,0.79,3.51,1.58,5.29,2.39c7.06,3.4,13.49,7.25,18.98,11.26
				c1.38,0.99,2.64,2.07,3.91,3.06c0.63,0.5,1.25,1,1.86,1.48c0.6,0.5,1.15,1.04,1.71,1.54c1.11,1.02,2.19,2.01,3.22,2.95
				c1.01,0.97,1.9,1.99,2.79,2.91c0.87,0.94,1.74,1.81,2.49,2.69c0.72,0.9,1.41,1.75,2.04,2.55c0.64,0.8,1.23,1.54,1.77,2.22
				c0.51,0.71,0.94,1.38,1.34,1.98c0.78,1.17,1.39,2.1,1.82,2.76c0.19,0.3,0.34,0.54,0.46,0.72
				C297.47,116.57,297.52,116.66,297.51,116.67z"/>
		</g>
		<g>
			<path style="fill:#263238;" d="M291.49,240.66c0.01,0.01-0.14,0.22-0.44,0.6c-0.34,0.42-0.78,0.97-1.33,1.66
				c-0.58,0.72-1.3,1.59-2.18,2.56c-0.88,0.98-1.84,2.12-3.01,3.29c-1.14,1.2-2.39,2.5-3.81,3.83c-1.38,1.37-2.94,2.74-4.57,4.2
				c-3.31,2.85-7.08,5.84-11.22,8.72c-4.16,2.85-8.3,5.31-12.14,7.39c-1.94,1-3.78,1.98-5.55,2.78c-1.75,0.85-3.41,1.56-4.94,2.2
				c-1.51,0.67-2.92,1.17-4.14,1.64c-1.22,0.48-2.29,0.84-3.17,1.13c-0.84,0.27-1.51,0.49-2.02,0.66c-0.46,0.14-0.71,0.21-0.72,0.19
				c-0.01-0.02,0.23-0.12,0.68-0.29c0.5-0.19,1.16-0.44,1.99-0.75c0.87-0.31,1.92-0.7,3.13-1.21c1.21-0.5,2.61-1.02,4.1-1.71
				c1.51-0.66,3.16-1.38,4.89-2.25c1.76-0.81,3.58-1.8,5.51-2.81c3.82-2.09,7.92-4.56,12.07-7.4c4.13-2.86,7.89-5.83,11.2-8.65
				c1.63-1.44,3.2-2.79,4.58-4.15c1.42-1.31,2.69-2.6,3.84-3.77c1.18-1.15,2.16-2.27,3.05-3.23c0.9-0.95,1.64-1.8,2.24-2.5
				c0.58-0.66,1.05-1.19,1.41-1.59C291.3,240.83,291.48,240.65,291.49,240.66z"/>
		</g>
		<g>
			<path style="fill:#263238;" d="M231.03,352.97c-0.14,0-0.26-16.06-0.26-35.87c0-19.82,0.12-35.88,0.26-35.88
				c0.14,0,0.26,16.06,0.26,35.88C231.29,336.9,231.17,352.97,231.03,352.97z"/>
		</g>
		<g>
			<path style="fill:#263238;" d="M233.23,434.78c-0.14,0-0.26-11.27-0.26-25.17c0-13.91,0.12-25.18,0.26-25.18
				c0.14,0,0.26,11.27,0.26,25.18C233.49,423.51,233.37,434.78,233.23,434.78z"/>
		</g>
	</g>
</g>
<g id="Character">
	<g>
		<g>
			<path style="fill:#E8505B;" d="M290.08,168.39c-1.01,2.01,2.73,3.64,4.88,4.29c2.16,0.65,4.46,0.58,6.7,0.46
				c2.98-0.16,6.07-0.44,8.66-1.92c2.3-1.32,4.02-3.49,5.22-5.85c1.2-2.37,1.93-4.94,2.65-7.49
				C318.2,157.88,294.57,159.43,290.08,168.39z"/>
			<g style="opacity:0.4;">
				<path style="fill:#F58840;" d="M290.08,168.39c-1.01,2.01,2.73,3.64,4.88,4.29c2.16,0.65,4.46,0.58,6.7,0.46
					c2.98-0.16,6.07-0.44,8.66-1.92c2.3-1.32,4.02-3.49,5.22-5.85c1.2-2.37,1.93-4.94,2.65-7.49
					C318.2,157.88,294.57,159.43,290.08,168.39z"/>
			</g>
			<g>
				<path style="fill:#E8505B;" d="M356.83,161.99c3.86,2.75,8.6,4.24,13.34,4.19c2.27-0.03,4.68-0.47,6.35-2
					c0.77-0.7,1.35-1.61,2.14-2.28c0.54-0.46,1.17-0.81,1.68-1.31s0.89-1.21,0.74-1.9c-0.16-0.71-0.75-1.85-1.38-2.21
					c-2.71-1.54-5.95-1.48-9.07-1.41c-3.12,0.07-6.19,0.8-9.15,1.79c-2.42,0.81-4.95,1.96-6.18,4.2"/>
				<g style="opacity:0.4;">
					<path style="fill:#F58840;" d="M381.07,158.69c-0.16-0.71-1.14-1.65-1.77-2.01c-2.71-1.54-5.56-1.68-8.68-1.61
						c-3.12,0.07-6.19,0.8-9.15,1.79c-2.42,0.81-4.95,1.96-6.18,4.2l1.54,0.92c3.86,2.75,8.6,4.24,13.34,4.19
						c2.27-0.03,4.67-0.47,6.35-2c0.77-0.7,1.35-1.61,2.14-2.28c0.54-0.46,1.17-0.81,1.68-1.31S381.22,159.38,381.07,158.69z"/>
				</g>
			</g>
			<path style="fill:#F59758;" d="M310.7,197.89l49.85,0.65c0.44,0.01,0.75-0.42,0.62-0.84l-5.85-18.24c0,0,0.86-9.11,2.05-20.08
				c1.81-16.64,4.21-37.57,4.24-37.52c-3.4-9.56-23.52-11.18-23.52-11.18l-22.93,1.36l-0.81-1.35l-6.6,3.07
				c-1.44,0.67-2.82,1.45-4.14,2.33c-4.35,2.92-14.86,9.6-16.78,17.06c-4.43,17.24,3.07,36.49,3.07,36.49l4.81-3.76
				c1.26-0.95,2.45-1.78,3.82-2.55l9.66,25.89c0,0-2.01,1.22-2.1,3.32C306.03,194.64,307.15,197.17,310.7,197.89"/>
			<g style="opacity:0.3;">
				<path d="M332.07,167.36c1.58-8.5,0.75-17.24-0.1-25.84c-2.77,7.04-2.67,14.97-5.6,21.94c-0.32,0.75-0.67,1.5-0.78,2.31
					c-0.11,0.81,0.06,1.7,0.67,2.25c0.8,0.73,1.98,0.34,3.05,0.21C330.46,168.1,331.05,167.71,332.07,167.36"/>
			</g>
			<g style="opacity:0.4;">
				<path d="M313.71,187.04c4.02,1.4,8.26-1.19,12.49-1.65c2.8-0.3,5.6,0.34,8.38,0.79c5.61,0.91,11.35,1.05,17,0.42
					c0.86-0.1,1.75-0.22,2.5-0.65s1.36-1.62,1.31-2.48c-9.41-0.97-18.83-1.54-28.24-2.51c-2.36-0.24-4.8-0.48-7.06,0.22
					c-2.85,0.88-5.04,3.12-7.04,5.32"/>
			</g>
			<path style="fill:#F59758;" d="M379.63,155.4c-4.08-9.16-18.43-34.52-18.43-34.52l-11.11,13.93l2.59,27.35
				c0,0,5.87-6.55,22.28-6.68c3.82-0.03,6.11,3.22,6.11,3.22L379.63,155.4z"/>
			<g>
				<path style="fill:#263238;" d="M312.91,150.56c-0.14,0.04-0.98-2.64-1.87-5.98c-0.9-3.34-1.51-6.08-1.37-6.12
					c0.14-0.04,0.98,2.64,1.87,5.98C312.44,147.78,313.05,150.52,312.91,150.56z"/>
			</g>
			<g>
				<path style="fill:#263238;" d="M349.25,132.95c0.02-0.03,0.39,0.29,1.03,0.87c0.62,0.6,1.51,1.5,2.48,2.72
					c1.94,2.4,4.31,6.16,5.31,10.86c0.5,2.34,0.58,4.64,0.32,6.7c-0.26,2.05-0.65,3.85-0.9,5.37c-0.26,1.52-0.42,2.76-0.5,3.62
					c-0.08,0.86-0.1,1.34-0.14,1.34c-0.03,0-0.08-0.48-0.06-1.35c0.02-0.87,0.12-2.13,0.34-3.66c0.21-1.54,0.56-3.35,0.79-5.37
					c0.23-2.01,0.13-4.25-0.35-6.53c-0.97-4.59-3.24-8.31-5.09-10.74C350.61,134.31,349.17,133.03,349.25,132.95z"/>
			</g>
			<g>
				<path style="fill:#263238;" d="M339.07,195.71c0.01,0.04-0.38,0.15-1.09,0.32c-0.35,0.09-0.79,0.19-1.3,0.25
					c-0.51,0.07-1.09,0.18-1.75,0.21c-1.3,0.13-2.86,0.12-4.58-0.03c-1.72-0.18-3.59-0.52-5.5-1.1c-1.9-0.6-3.64-1.38-5.16-2.21
					c-1.5-0.85-2.79-1.73-3.79-2.57c-0.52-0.39-0.94-0.81-1.32-1.16c-0.39-0.34-0.69-0.67-0.93-0.95c-0.49-0.54-0.74-0.85-0.72-0.87
					c0.07-0.07,1.15,1.13,3.19,2.69c1.01,0.79,2.3,1.62,3.79,2.44c1.5,0.79,3.22,1.54,5.08,2.13c1.87,0.57,3.71,0.92,5.4,1.12
					c1.69,0.17,3.22,0.21,4.51,0.14C337.48,195.99,339.05,195.6,339.07,195.71z"/>
			</g>
			<g>
				<path style="fill:#263238;" d="M354.47,190c0.06-0.01,0.26,0.53,0.38,1.46c0.12,0.92,0.14,2.25-0.27,3.64
					c-0.4,1.4-1.23,2.5-1.96,3.1c-0.73,0.61-1.29,0.8-1.32,0.75c-0.04-0.07,0.44-0.38,1.07-1.02c0.62-0.63,1.34-1.67,1.71-2.98
					C354.84,192.32,354.27,190.01,354.47,190z"/>
			</g>
			<g>
				<path style="fill:#263238;" d="M351.75,193.53c0.13-0.03,0.39,1.43-0.25,3.08c-0.63,1.65-1.81,2.55-1.89,2.44
					c-0.11-0.11,0.82-1.1,1.4-2.63C351.62,194.9,351.6,193.53,351.75,193.53z"/>
			</g>
			<g>
				<path style="fill:#263238;" d="M342.83,160.62c0.11,0.11-0.82,1.15-1.78,2.56c-0.97,1.4-1.61,2.64-1.75,2.58
					c-0.13-0.05,0.32-1.42,1.32-2.87C341.62,161.43,342.74,160.52,342.83,160.62z"/>
			</g>
			<g>
				<path style="fill:#263238;" d="M308.62,136.4c-0.06,0.06-0.85-0.57-2.21-1.46c-1.36-0.89-3.33-1.99-5.66-2.87
					c-2.33-0.86-4.54-1.32-6.15-1.54c-1.61-0.22-2.63-0.26-2.63-0.34c0-0.06,1.02-0.15,2.67-0.02c1.65,0.13,3.92,0.54,6.29,1.42
					c2.37,0.89,4.36,2.07,5.68,3.05C307.95,135.62,308.65,136.36,308.62,136.4z"/>
			</g>
			<g>
				<path style="fill:#263238;" d="M361.21,120.54c0.1,0.14-2.6,1.78-5.05,4.73c-2.48,2.92-3.65,5.86-3.8,5.79
					c-0.06-0.02,0.15-0.78,0.7-1.94c0.54-1.15,1.45-2.68,2.7-4.18c1.26-1.49,2.61-2.65,3.66-3.38
					C360.46,120.83,361.18,120.49,361.21,120.54z"/>
			</g>
			<g>
				<path style="fill:#263238;" d="M340.62,112.3c0.02-0.01,0.09,0.15,0.23,0.46c0.15,0.31,0.3,0.78,0.47,1.4
					c0.32,1.24,0.49,3.15-0.02,5.42c-0.52,2.24-1.77,4.84-4.08,6.89c-2.29,2.06-5.67,3.29-9.2,3.28c-3.54-0.02-6.87-1.24-9.29-3.1
					c-2.45-1.85-4.08-4.15-5.11-6.2c-1.02-2.07-1.49-3.89-1.7-5.15c-0.1-0.63-0.17-1.13-0.18-1.46c-0.02-0.34-0.03-0.51-0.01-0.51
					c0.05-0.01,0.11,0.7,0.39,1.94c0.27,1.24,0.79,3.01,1.83,5.02c1.06,1.98,2.67,4.21,5.07,5.98c2.36,1.79,5.58,2.94,9.01,2.97
					c3.42,0.01,6.67-1.16,8.88-3.12c2.24-1.95,3.49-4.45,4.04-6.62c0.54-2.19,0.43-4.05,0.18-5.29
					C340.87,112.97,340.56,112.32,340.62,112.3z"/>
			</g>
			<g style="opacity:0.3;">
				<path d="M344.12,162.39c-0.02-0.5-0.08-1.09-0.51-1.34c-0.27-0.16-0.62-0.12-0.91,0.02c-0.28,0.14-0.51,0.37-0.72,0.6
					c-1.21,1.31-2.06,2.59-2.67,4.27l4.9-0.42C344.17,164.48,344.15,163.43,344.12,162.39z"/>
			</g>
			<g style="opacity:0.3;">
				<path d="M360.39,152.08c-0.38-2.8-1.81-5.37-3.55-7.6c2.11,6.92,1.4,10.83,0.22,15.56l0.26-0.66
					C358.67,156.62,360.77,154.88,360.39,152.08z"/>
			</g>
		</g>
		<g>
			<g>
				<polygon style="fill:#FFBE9D;" points="350.6,384.54 347.61,429.4 328.11,429.17 325.04,382.53 				"/>
			</g>
			<g>
				<g>
					<g>
						<g>
							<path style="fill:#E8505B;" d="M348.17,423.49l0,1.3c0,0,21.98,8.85,22.21,13.02l-43.66-0.26l0.68-14.52
								C333.87,426.07,340.67,426.45,348.17,423.49z"/>
						</g>
					</g>
					<g>
						<g>
							<g>
								<path style="fill:#FFFFFF;" d="M331.79,427.7c-0.85,0.23-1.44,1.17-1.24,2.03c0.19,0.86,1.15,1.46,2,1.25
									c0.85-0.21,1.59-1.33,1.31-2.15c-0.29-0.83-1.45-1.48-2.22-1.07"/>
							</g>
						</g>
					</g>
					<g>
						<g>
							<path style="fill:#263238;" d="M326.72,437.55l0.16-3.49l41.79,1.52c0,0,1.94,0.86,1.71,2.22L326.72,437.55z"/>
						</g>
					</g>
					<g>
						<g>
							<g>
								<path style="fill:#263238;" d="M348.32,424.91c-0.01,0.21-1.07,0.3-2.13,0.98c-1.07,0.65-1.62,1.57-1.81,1.49
									c-0.2-0.04,0.13-1.32,1.42-2.12C347.08,424.45,348.37,424.72,348.32,424.91z"/>
							</g>
						</g>
					</g>
					<g>
						<g>
							<g>
								<path style="fill:#263238;" d="M352.89,426.83c0.05,0.21-0.88,0.56-1.61,1.46c-0.76,0.88-0.94,1.85-1.16,1.84
									c-0.2,0.03-0.34-1.22,0.59-2.32C351.63,426.71,352.89,426.63,352.89,426.83z"/>
							</g>
						</g>
					</g>
					<g>
						<g>
							<g>
								<path style="fill:#263238;" d="M355.46,432.33c-0.19,0.04-0.48-1.02,0.07-2.19c0.55-1.17,1.55-1.62,1.64-1.45
									c0.12,0.18-0.53,0.8-0.97,1.76C355.74,431.41,355.67,432.31,355.46,432.33z"/>
							</g>
						</g>
					</g>
				</g>
			</g>
		</g>
		<g>
			<path style="fill:#263238;" d="M347.04,56.54c1.12-2.8-0.24-6.2-2.67-7.99c-2.43-1.79-5.68-2.18-8.66-1.7
				c-2.98,0.47-5.78,1.72-8.54,2.95c-2.5-2.51-6.46-3.47-9.83-2.37c-3.37,1.1-6,4.2-6.54,7.71c-2.15-0.55-4.57,0.19-6.06,1.83
				s-1.97,4.13-1.2,6.21l13.52,4.75l14.76,25.97c4.32,3.68,11.37,3.58,15.58-0.22c4.21-3.8,5.02-10.82,1.79-15.48
				c0.83-0.73,1.52-1.61,2.07-2.56c2.34-1.45,4.17-3.7,4.78-6.4C357.33,63.53,352.86,57.22,347.04,56.54z"/>
			<g>
				<g>
					<g>
						<g>
							<g>
								<g>
									<g>
										<g>
											<g>
												<g>
													<g>
														<g>
															<g>
																<g>
																	<g>
																		<g>
																			<g>
																				<path style="fill:#FFBE9D;" d="M338.1,110.68c-0.84-4.23-1.42-7.12-1.42-7.09c0,0,7.97-3.1,7.42-14.24
																					c-0.27-5.54-2.39-14.26-4.34-21.35c-1.76-6.38-7.71-13.41-14.01-11.38l-19.04,9.3
																					c-1.91,0.62-2.25,2.41-1.8,4.37l0.03,0.96l7.41,30.66l3.13,13.7c1.39,5.83,6.99,9.64,12.92,8.78l0,0
																					C334.96,123.44,339.39,117.18,338.1,110.68z"/>
																			</g>
																		</g>
																	</g>
																</g>
															</g>
														</g>
													</g>
													<g>
														<g>
															<g>
																<g>
																	<g>
																		<g>
																			<g>
																				<g>
																					<path style="fill:#263238;" d="M339.63,75.41c0.18,0.72-0.29,1.47-1.04,1.67c-0.75,0.2-1.51-0.22-1.69-0.95
																						c-0.18-0.72,0.29-1.47,1.04-1.67C338.7,74.26,339.45,74.68,339.63,75.41z"/>
																				</g>
																			</g>
																		</g>
																	</g>
																</g>
															</g>
														</g>
														<g>
															<g>
																<g>
																	<g>
																		<g>
																			<g>
																				<g>
																					<g>
																						<path style="fill:#263238;" d="M338.81,73.28c-0.13,0.22-1.34-0.34-2.83-0.02c-1.49,0.29-2.42,1.29-2.62,1.14
																							c-0.1-0.06,0.01-0.43,0.41-0.87c0.4-0.44,1.12-0.94,2.05-1.14c0.93-0.19,1.78-0.01,2.3,0.24
																							C338.65,72.88,338.88,73.18,338.81,73.28z"/>
																					</g>
																				</g>
																			</g>
																		</g>
																	</g>
																</g>
															</g>
														</g>
													</g>
													<g>
														<g>
															<g>
																<g>
																	<g>
																		<g>
																			<g>
																				<g>
																					<path style="fill:#263238;" d="M325.16,78.72c0.18,0.72-0.29,1.47-1.04,1.67c-0.75,0.2-1.51-0.22-1.69-0.95
																						c-0.18-0.72,0.29-1.47,1.04-1.67C324.23,77.57,324.98,78,325.16,78.72z"/>
																				</g>
																			</g>
																		</g>
																	</g>
																</g>
															</g>
														</g>
														<g>
															<g>
																<g>
																	<g>
																		<g>
																			<g>
																				<g>
																					<g>
																						<path style="fill:#263238;" d="M324.43,76.8c-0.13,0.22-1.34-0.34-2.83-0.02c-1.49,0.29-2.42,1.29-2.62,1.14
																							c-0.1-0.06,0.01-0.43,0.41-0.87c0.4-0.44,1.12-0.94,2.05-1.14c0.93-0.19,1.78-0.01,2.3,0.24
																							C324.27,76.41,324.5,76.7,324.43,76.8z"/>
																					</g>
																				</g>
																			</g>
																		</g>
																	</g>
																</g>
															</g>
														</g>
													</g>
													<g>
														<g>
															<g>
																<g>
																	<g>
																		<g>
																			<g>
																				<g>
																					<path style="fill:#263238;" d="M331.96,86.21c-0.02-0.08,0.87-0.44,2.32-0.94c0.37-0.12,0.71-0.27,0.72-0.54
																						c0.03-0.29-0.21-0.67-0.49-1.07c-0.55-0.84-1.13-1.73-1.73-2.66c-2.42-3.79-4.26-6.94-4.11-7.03
																						c0.15-0.1,2.24,2.9,4.66,6.69c0.59,0.94,1.15,1.83,1.69,2.68c0.23,0.4,0.58,0.84,0.51,1.45
																						c-0.04,0.31-0.28,0.57-0.51,0.69c-0.23,0.13-0.44,0.17-0.63,0.22C332.92,86.09,331.99,86.29,331.96,86.21z"/>
																				</g>
																			</g>
																		</g>
																	</g>
																</g>
															</g>
														</g>
													</g>
													<g>
														<g>
															<g>
																<g>
																	<g>
																		<g>
																			<g>
																				<path style="fill:#EB996E;" d="M336.68,103.59c0,0-7.15,1.99-15.24-0.82c0,0,5.23,6.84,15.81,3.57
																					L336.68,103.59z"/>
																			</g>
																		</g>
																	</g>
																</g>
															</g>
														</g>
													</g>
												</g>
											</g>
										</g>
										<g>
											<g>
												<g>
													<g>
														<g>
															<g>
																<g>
																	<path style="fill:#263238;" d="M324.71,74.68c-0.1,0.43-1.63,0.42-3.37,0.85c-1.75,0.39-3.12,1.09-3.4,0.75
																		c-0.13-0.16,0.08-0.58,0.6-1.05c0.52-0.47,1.39-0.95,2.44-1.2c1.05-0.25,2.04-0.2,2.72-0.01
																		C324.39,74.2,324.75,74.48,324.71,74.68z"/>
																</g>
															</g>
														</g>
													</g>
												</g>
											</g>
										</g>
										<g>
											<g>
												<g>
													<g>
														<g>
															<g>
																<g>
																	<path style="fill:#263238;" d="M338.25,68.55c-0.24,0.4-1.52,0.31-2.98,0.6c-1.47,0.25-2.64,0.79-3,0.5
																		c-0.16-0.15-0.04-0.52,0.44-0.96c0.46-0.43,1.3-0.88,2.31-1.06c1.01-0.18,1.94-0.06,2.52,0.18
																		C338.1,68.04,338.35,68.35,338.25,68.55z"/>
																</g>
															</g>
														</g>
													</g>
												</g>
											</g>
										</g>
									</g>
								</g>
							</g>
						</g>
						<g>
							<path style="fill:#263238;" d="M311.39,58.76c0.44,2.16,1.88,4.09,3.82,5.14c1.94,1.04,4.35,1.17,6.39,0.34
								c1.58-0.64,3.22-1.85,4.82-1.27c1.69,0.61,2.22,2.86,3.79,3.74c2.24,1.26,4.94-0.92,7.5-0.7c1.98,0.17,3.51,1.71,5.06,2.95
								c1.55,1.24,3.7,2.28,5.45,1.34c-0.47-1.65-0.94-3.32-1.77-4.82c-0.83-1.5-2.07-2.84-3.66-3.46
								c-0.88-0.34-1.83-0.46-2.67-0.89c-1.81-0.93-2.61-3.03-3.93-4.57c-1.7-1.99-4.4-3.08-7-2.81c-2.17,0.22-4.22,1.31-6.39,1.22
								c-1.61-0.07-3.15-0.78-4.76-0.76c-3.13,0.05-5.49,2.8-7.23,5.4"/>
						</g>
					</g>
				</g>
				<path style="fill:#263238;" d="M321.93,61.05c-1.43-0.11-4.38-0.41-5.35-1.43c-2.1-2.22-5.24-3.38-8.04-2.64
					c-2.8,0.74-5.06,3.55-5.02,6.66c-3.43,0.74-6.33,3.59-7.3,7.17c-0.97,3.58,0.02,7.76,2.5,10.5c0.65,0.72,1.64,2.38,1.64,2.38
					s-1.29,1.61-1.78,2.7c-2.28,5.06,3.92,7,3.92,7c0.02,3.4,3.15,3.39,5.16,3.37c1.93-0.01,3.12,5.35,4.69,5.14l-1.59-16.56
					c0.19,0.08,0.43,0.13,0.73,0.13c3.79,0.07,2.8-7.1,1.57-8.96c1.07-1.43,2.15-2.89,2.84-4.57c0.69-1.69,0.74-5.9,0.15-7.67
					C317.38,64.09,322.56,61.1,321.93,61.05z"/>
				<g>
					<g>
						<g>
							<g>
								<g>
									<g>
										<g>
											<g>
												<g>
													<g>
														<g>
															<path style="fill:#FFBE9D;" d="M311.33,86.22c-0.59-2.27-3.41-3.28-5.16-1.72c-0.96,0.86-1.53,2.3-0.93,4.71
																c1.61,6.44,7.74,3.49,7.71,3.3C312.93,92.4,312.02,88.88,311.33,86.22z"/>
														</g>
													</g>
												</g>
											</g>
										</g>
									</g>
								</g>
							</g>
						</g>
					</g>
					<g>
						<g>
							<g>
								<g>
									<g>
										<g>
											<g>
												<g>
													<g>
														<g>
															<g>
																<path style="fill:#EB996E;" d="M310.38,90.57c-0.03-0.01-0.09,0.11-0.26,0.24c-0.16,0.13-0.47,0.27-0.83,0.23
																	c-0.74-0.08-1.59-1.02-1.91-2.17c-0.16-0.58-0.18-1.17-0.09-1.68c0.08-0.52,0.3-0.93,0.63-1.07
																	c0.32-0.16,0.61-0.02,0.74,0.14c0.13,0.16,0.12,0.3,0.16,0.3c0.02,0.01,0.11-0.14-0.01-0.4
																	c-0.06-0.12-0.17-0.25-0.35-0.34c-0.19-0.09-0.43-0.09-0.66-0.01c-0.49,0.16-0.82,0.73-0.92,1.29
																	c-0.13,0.57-0.12,1.24,0.06,1.89c0.37,1.29,1.34,2.33,2.33,2.37c0.48,0,0.83-0.23,0.98-0.43
																	C310.4,90.73,310.4,90.58,310.38,90.57z"/>
															</g>
														</g>
													</g>
												</g>
											</g>
										</g>
									</g>
								</g>
							</g>
						</g>
					</g>
				</g>
			</g>
			<g>
				<path style="fill:#455A64;" d="M345.86,77.23c-0.04-0.05,0.58-0.45,1.4-1.45c0.8-1,1.78-2.69,2.01-5
					c0.11-1.14,0.05-2.43-0.36-3.71c-0.41-1.27-1.15-2.56-2.29-3.55c-2.22-2.02-5.89-2.95-9.19-1.79c-0.3,0.1-0.58,0.25-0.87,0.37
					c-0.27,0.14-0.53,0.3-0.79,0.45l-0.4,0.22l-0.01-0.44c-0.01-0.78-0.3-1.53-0.81-2.1c-0.5-0.58-1.15-1.02-1.85-1.32
					c-1.4-0.62-2.91-0.63-4.29-0.31c-2.76,0.63-5.1,1.89-7.31,2.14c-2.19,0.28-4.01-0.26-4.99-1c-0.51-0.35-0.79-0.75-0.98-1
					c-0.16-0.28-0.24-0.42-0.22-0.43c0.05-0.04,0.32,0.61,1.31,1.27c0.97,0.66,2.72,1.12,4.83,0.81c1.05-0.15,2.17-0.53,3.36-0.97
					c1.19-0.44,2.47-0.96,3.9-1.28c0.72-0.15,1.47-0.27,2.26-0.23c0.78,0.04,1.57,0.22,2.33,0.54c0.75,0.32,1.47,0.8,2.04,1.45
					c0.58,0.65,0.93,1.53,0.94,2.44l-0.4-0.22c0.27-0.15,0.55-0.33,0.84-0.48c0.3-0.13,0.6-0.29,0.92-0.39
					c3.51-1.23,7.35-0.23,9.69,1.92c1.19,1.06,1.97,2.44,2.38,3.78c0.41,1.35,0.45,2.69,0.31,3.88c-0.28,2.39-1.35,4.11-2.22,5.09
					c-0.44,0.49-0.83,0.84-1.12,1.03C346.02,77.15,345.87,77.25,345.86,77.23z"/>
			</g>
			<g>
				<path style="fill:#455A64;" d="M344.55,54.63c-0.04,0.07-0.68-0.51-2.07-0.71c-0.68-0.09-1.55-0.09-2.46,0.22
					c-0.91,0.28-1.87,0.89-2.53,1.84l-0.24,0.35l-0.15-0.4c-0.81-2.16-3.17-4.21-6.1-4.53c-2.2-0.25-4.2,0.74-5.86,1.69
					c-1.68,0.98-3.21,1.94-4.65,2.4c-1.43,0.5-2.69,0.56-3.52,0.41c-0.42-0.07-0.73-0.17-0.93-0.26c-0.2-0.09-0.31-0.14-0.3-0.16
					c0.02-0.05,0.45,0.13,1.26,0.21c0.81,0.08,2-0.03,3.37-0.56c1.38-0.49,2.84-1.45,4.53-2.47c0.85-0.5,1.77-1.01,2.8-1.37
					c1.03-0.37,2.19-0.55,3.36-0.43c3.14,0.35,5.64,2.56,6.46,4.89l-0.4-0.05c0.75-1.05,1.82-1.67,2.8-1.94
					c0.98-0.3,1.9-0.26,2.61-0.13c0.72,0.14,1.24,0.4,1.57,0.6C344.41,54.47,344.56,54.61,344.55,54.63z"/>
			</g>
			<path style="fill:#E8505B;" d="M331.39,89.16c-0.45-0.44-1.13-0.58-1.76-0.51c-0.59,0.07-1.31,0.59-1.69,1.23
				c-0.01,0.01-0.02,0.02-0.03,0.04c-0.02,0.03-0.04,0.05-0.06,0.08l0.02-0.02c-0.14,0.23-0.22,0.49-0.19,0.76
				c0.06,0.59,0.51,1.09,1.04,1.35c0.84,0.42,1.96,0.3,2.62-0.38C332.02,91.03,332.06,89.82,331.39,89.16z"/>
			<g>
				<path style="fill:#263238;" d="M331.88,92.27c-0.08,0.02-0.18-0.3-0.44-0.72c-0.26-0.42-0.73-0.94-1.39-1.24
					c-0.67-0.3-1.37-0.31-1.85-0.23c-0.49,0.07-0.79,0.21-0.83,0.14c-0.04-0.05,0.21-0.31,0.74-0.5c0.52-0.19,1.35-0.25,2.16,0.11
					c0.8,0.37,1.3,1.04,1.5,1.55C331.98,91.91,331.95,92.27,331.88,92.27z"/>
			</g>
			<g>
				<path style="fill:#E8505B;" d="M311.47,93.51c0.05-0.03,0.29,0.5-0.09,1.26c-0.19,0.36-0.53,0.76-1.07,0.96
					c-0.53,0.21-1.22,0.13-1.76-0.21c-0.55-0.34-0.91-0.92-0.95-1.5c-0.05-0.57,0.17-1.05,0.41-1.38c0.52-0.67,1.1-0.68,1.1-0.62
					c0.03,0.08-0.44,0.23-0.79,0.83c-0.17,0.29-0.3,0.7-0.24,1.12c0.05,0.42,0.33,0.84,0.75,1.11c0.42,0.26,0.93,0.33,1.33,0.2
					c0.41-0.13,0.72-0.42,0.91-0.7C311.46,94,311.39,93.51,311.47,93.51z"/>
			</g>
			<g>
				<path style="fill:#E8505B;" d="M308.1,93.13c0.06,0.03-0.03,0.34-0.47,0.55c-0.21,0.1-0.51,0.16-0.83,0.08
					c-0.33-0.08-0.64-0.32-0.82-0.65c-0.18-0.33-0.21-0.73-0.1-1.04c0.11-0.31,0.32-0.53,0.52-0.65c0.42-0.25,0.73-0.15,0.72-0.09
					c0.01,0.08-0.25,0.13-0.49,0.38c-0.25,0.24-0.44,0.71-0.19,1.15c0.24,0.45,0.73,0.55,1.07,0.47
					C307.86,93.26,308.04,93.08,308.1,93.13z"/>
			</g>
		</g>
		<g>
			<path style="fill:#FFBE9D;" d="M319.1,181.94c0,0,24.76,1.44,39.39,1.57c11.34,0.1,16.39-2.91,18.65-10.19
				c1.9-6.12-2.19-17.84-2.19-17.84c-7.66,0.04-12.4,1.1-17.33,3.41l1.31,5.36l-39.92,3.44L319.1,181.94z"/>
			<g>
				<path style="fill:#EB996E;" d="M367.27,169.97c-0.14,0.09-1.3-2.08-3.74-3.71c-2.41-1.67-4.86-1.96-4.82-2.12
					c0.01-0.06,0.62-0.08,1.59,0.14c0.96,0.21,2.27,0.7,3.52,1.56c1.25,0.86,2.19,1.89,2.73,2.71
					C367.11,169.36,367.32,169.94,367.27,169.97z"/>
			</g>
			<g>
				<path style="fill:#FFBE9D;" d="M310.03,158.85L310.03,158.85c0,0-7.66,1.84-13.28,5.6l5.98,16.26c2,5.34,8.12,7.96,12.96,5.19
					c7.53-4.3,10.19-16.86,10.19-16.86l8.28-35.88l-13.71-8.59L310.03,158.85"/>
				<g>
					<path style="fill:#FFBE9D;" d="M320.44,124.57l0.55-11.8l-3.06-11.95c-0.17-0.66-0.25-1.49,0.28-1.89
						c0.56-0.42,1.4-0.4,1.85,0.06c0.84,0.86,4.84,11.35,4.84,11.35s6.07-3.65,7.15-3.82c1.08-0.18,2.43,3.09,2.52,3.34
						c0.08,0.26,0.01,2.19,0.01,2.19s3.75,0.11,4.09,0.63c0.34,0.51,0.43,3.18,0.43,3.18s1.59,0.51,1.84,1.71
						c0.26,1.2,0.77,3.18,0.02,3.62c-0.75,0.43-2.33,1.3-2.33,1.3s-0.64,6.12-0.8,6.68c-0.16,0.56-3.68,3.99-3.68,3.99
						L320.44,124.57z"/>
					<g>
						<path style="fill:#EB996E;" d="M307.69,186.14c0.02-0.03,0.37,0.21,1.15,0.47c0.77,0.26,1.98,0.49,3.53,0.28
							c1.54-0.21,3.43-0.88,5.12-2.36c1.67-1.51,3.36-3.51,4.76-6.02c0.7-1.26,1.33-2.64,1.85-4.13c0.54-1.49,0.89-3.11,1.28-4.79
							c0.79-3.37,1.63-7,2.53-10.85c1.8-7.71,3.82-16.34,6-25.63l0.02-0.07l0.05-0.05c0.69-0.68,1.38-1.37,2.07-2.08
							c0.34-0.36,0.68-0.72,1.01-1.09c0.16-0.19,0.33-0.38,0.45-0.56c0.12-0.12,0.12-0.36,0.17-0.62c0.27-2,0.48-4.07,0.7-6.15
							l0.01-0.13l0.12-0.07c0.63-0.35,1.26-0.71,1.91-1.07c0.15-0.09,0.36-0.19,0.45-0.26c0.08-0.06,0.15-0.18,0.18-0.34
							c0.07-0.3,0.05-0.68,0.01-1.04c-0.09-0.7-0.26-1.52-0.44-2.17c-0.25-0.61-0.93-1.04-1.59-1.28l-0.17-0.06l-0.01-0.17
							c-0.02-0.58-0.06-1.18-0.13-1.77c-0.03-0.3-0.07-0.59-0.13-0.88c-0.03-0.13-0.07-0.29-0.11-0.37
							c-0.03-0.07-0.02-0.02-0.06-0.06c-0.05-0.02-0.1-0.05-0.17-0.07c-1.11-0.31-2.42-0.35-3.66-0.41l-0.26-0.01l0.01-0.26
							c0.02-0.62,0.05-1.31,0.02-1.95c0.02-0.17-0.14-0.43-0.23-0.67c-0.11-0.24-0.22-0.48-0.34-0.71
							c-0.24-0.47-0.51-0.92-0.82-1.32c-0.16-0.2-0.33-0.38-0.51-0.5c-0.2-0.12-0.29-0.15-0.53-0.06c-0.46,0.16-0.94,0.41-1.41,0.65
							c-1.87,0.97-3.68,2.03-5.46,3.09l-0.26,0.15l-0.11-0.28c-0.95-2.37-1.88-4.71-2.8-7.01c-0.46-1.15-0.92-2.3-1.37-3.43
							c-0.17-0.57-0.57-0.9-1.1-1.03c-0.53-0.14-1.05,0.03-1.3,0.48c-0.12,0.21-0.18,0.47-0.15,0.71c0.03,0.22,0.14,0.56,0.2,0.83
							c0.15,0.58,0.3,1.15,0.45,1.72c0.3,1.14,0.6,2.28,0.89,3.4c0.59,2.24,1.17,4.45,1.73,6.6l0.01,0.04l0,0.04
							c-0.2,4.11-0.39,8.05-0.57,11.8l0,0.03l-0.01,0.03c-3.78,12.3-6.91,22.5-9.11,29.64c-1.1,3.54-1.97,6.33-2.57,8.25
							c-0.3,0.93-0.53,1.65-0.69,2.16c-0.16,0.49-0.26,0.74-0.26,0.74s0.06-0.26,0.19-0.75c0.15-0.52,0.36-1.24,0.63-2.18
							c0.57-1.93,1.4-4.73,2.46-8.29c2.15-7.16,5.23-17.38,8.93-29.7l-0.01,0.05c0.17-3.75,0.35-7.69,0.54-11.8l0.01,0.07
							c-0.57-2.15-1.15-4.35-1.75-6.6c-0.3-1.12-0.6-2.25-0.9-3.4c-0.15-0.57-0.3-1.15-0.46-1.72c-0.07-0.31-0.16-0.54-0.22-0.91
							c-0.04-0.35,0.04-0.71,0.22-1.02c0.18-0.31,0.46-0.56,0.81-0.68c0.35-0.12,0.7-0.11,1.03-0.03c0.33,0.08,0.65,0.23,0.92,0.47
							c0.27,0.22,0.45,0.6,0.54,0.86c0.45,1.13,0.91,2.28,1.37,3.43c0.92,2.3,1.86,4.64,2.81,7.01l-0.37-0.13
							c1.79-1.06,3.6-2.12,5.49-3.11c0.48-0.24,0.94-0.49,1.48-0.68c0.15-0.04,0.29-0.1,0.5-0.07c0.18,0.03,0.35,0.1,0.47,0.19
							c0.27,0.17,0.46,0.39,0.63,0.61c0.35,0.44,0.62,0.92,0.87,1.41c0.12,0.24,0.24,0.49,0.36,0.74c0.09,0.26,0.26,0.47,0.28,0.85
							c0.03,0.71,0,1.38-0.02,2.01l-0.25-0.27c1.29,0.07,2.53,0.09,3.82,0.44c0.08,0.02,0.17,0.07,0.26,0.11
							c0.08,0.04,0.24,0.18,0.26,0.26c0.1,0.19,0.12,0.34,0.16,0.51c0.07,0.32,0.11,0.62,0.14,0.93c0.07,0.61,0.11,1.21,0.13,1.81
							l-0.18-0.24c0.77,0.29,1.54,0.74,1.91,1.58c0.24,0.82,0.37,1.52,0.48,2.31c0.04,0.39,0.07,0.79-0.02,1.21
							c-0.04,0.21-0.15,0.45-0.36,0.62c-0.21,0.15-0.34,0.2-0.51,0.3c-0.65,0.36-1.29,0.72-1.92,1.07l0.13-0.2
							c-0.22,2.09-0.44,4.15-0.71,6.17l-0.06,0.39c-0.01,0.12-0.1,0.34-0.19,0.44c-0.16,0.23-0.33,0.42-0.49,0.61
							c-0.34,0.38-0.68,0.75-1.03,1.11c-0.69,0.72-1.39,1.41-2.08,2.09l0.07-0.12c-2.2,9.28-4.24,17.9-6.07,25.61
							c-0.92,3.85-1.78,7.48-2.58,10.84c-0.4,1.68-0.77,3.32-1.32,4.82c-0.54,1.51-1.19,2.9-1.9,4.17
							c-1.44,2.53-3.16,4.54-4.87,6.05c-1.75,1.5-3.69,2.16-5.25,2.34c-1.58,0.19-2.82-0.08-3.58-0.36
							c-0.39-0.14-0.67-0.28-0.85-0.38C307.78,186.2,307.69,186.15,307.69,186.14z"/>
					</g>
					<g>
						<path style="fill:#EB996E;" d="M334.58,112.03c0,0.07-0.34,0.11-0.87,0.14c-0.53,0.03-1.25,0.05-1.99,0.24
							c-0.74,0.19-1.34,0.56-1.7,0.91c-0.37,0.34-0.53,0.63-0.6,0.6c-0.06-0.02-0.02-0.38,0.32-0.84c0.33-0.46,1-0.95,1.84-1.17
							c0.84-0.21,1.61-0.16,2.14-0.1C334.26,111.87,334.58,111.96,334.58,112.03z"/>
					</g>
					<g>
						<path style="fill:#EB996E;" d="M331.65,112.14c-0.13-0.05-0.14-0.36-0.02-0.69c0.12-0.33,0.33-0.56,0.47-0.51
							c0.13,0.05,0.14,0.36,0.02,0.69C331.99,111.96,331.78,112.19,331.65,112.14z"/>
					</g>
					<g>
						<path style="fill:#EB996E;" d="M339.27,115.77c0,0.15-1.34,0.31-2.97,0.41c-0.81,0.07-1.41,0.36-1.65,0.8
							c-0.26,0.41-0.18,0.75-0.25,0.77c-0.05,0.05-0.32-0.34-0.08-0.94c0.11-0.28,0.36-0.59,0.71-0.79c0.35-0.2,0.78-0.3,1.2-0.35
							C337.92,115.56,339.27,115.64,339.27,115.77z"/>
					</g>
					<g>
						<path style="fill:#EB996E;" d="M338.6,119.37c0.14,0.01,0.23,0.75,0.19,1.65c-0.04,0.91-0.19,1.63-0.33,1.63
							c-0.14-0.01-0.23-0.75-0.19-1.65C338.31,120.09,338.46,119.36,338.6,119.37z"/>
					</g>
				</g>
			</g>
		</g>
		<g>
			<path style="fill:#FFFFFF;" d="M342.76,146.3l0.89-3.07c0.18-0.62,0.95-0.81,1.4-0.35l1.16,1.18l0.72-2.88
				c0.19-0.76,1.23-0.86,1.57-0.16l1.64,3.41L342.76,146.3z"/>
			<g>
				<path style="fill:#FFFFFF;" d="M350.15,145.75c0.03,0.14-1.55,0.65-3.53,1.14c-1.99,0.49-3.62,0.78-3.66,0.64
					c-0.03-0.14,1.55-0.65,3.53-1.14C348.48,145.9,350.12,145.61,350.15,145.75z"/>
			</g>
		</g>
		<g>
			<path style="fill:#FFFFFF;" d="M290.68,128.66c0.02,0.02-0.37,0.38-0.89,1.19c-0.51,0.8-1.08,2.09-1.36,3.78
				c-0.29,1.68-0.31,3.73-0.18,5.99c0.11,2.26,0.29,4.75,0.57,7.35c0.55,5.2,1.39,9.87,2.11,13.22c0.36,1.68,0.68,3.03,0.9,3.96
				c0.1,0.41,0.18,0.77,0.26,1.07c0.06,0.25,0.08,0.38,0.08,0.38s-0.05-0.12-0.12-0.37c-0.08-0.3-0.18-0.65-0.3-1.06
				c-0.25-0.93-0.59-2.27-0.96-3.95c-0.76-3.35-1.62-8.02-2.17-13.23c-0.28-2.6-0.45-5.09-0.55-7.36c-0.12-2.26-0.09-4.33,0.23-6.03
				c0.3-1.7,0.89-3,1.43-3.79C290.27,129.01,290.68,128.66,290.68,128.66z"/>
		</g>
		<g>
			<path style="fill:#FFFFFF;" d="M311.73,115.06c0,0.01-0.07,0.05-0.22,0.12c-0.2,0.1-0.42,0.2-0.66,0.31
				c-0.57,0.27-1.4,0.67-2.39,1.22c-2,1.07-4.66,2.73-7.51,4.7c-2.85,1.96-5.39,3.82-7.23,5.14c-0.85,0.6-1.58,1.12-2.2,1.55
				c-0.22,0.15-0.42,0.29-0.6,0.41c-0.14,0.09-0.21,0.14-0.22,0.13c0-0.01,0.06-0.06,0.19-0.17c0.18-0.14,0.37-0.28,0.58-0.44
				c0.6-0.45,1.32-0.99,2.16-1.61c1.83-1.35,4.34-3.23,7.2-5.19c2.86-1.97,5.54-3.61,7.56-4.65c1-0.53,1.84-0.92,2.43-1.17
				c0.25-0.1,0.47-0.19,0.68-0.28C311.64,115.09,311.73,115.06,311.73,115.06z"/>
		</g>
		<g>
			<path style="fill:#FFFFFF;" d="M359.42,121.57c-0.01,0.01-0.06-0.04-0.17-0.13c-0.14-0.12-0.29-0.25-0.45-0.39
				c-0.39-0.33-0.98-0.8-1.75-1.31c-1.53-1.04-3.81-2.21-6.43-3.25c-2.62-1.05-5.07-1.79-6.85-2.28c-0.89-0.25-1.62-0.43-2.12-0.55
				c-0.2-0.05-0.39-0.1-0.58-0.15c-0.13-0.04-0.2-0.06-0.2-0.07c0-0.01,0.07,0,0.21,0.02c0.19,0.03,0.38,0.07,0.59,0.11
				c0.51,0.1,1.24,0.26,2.14,0.49c1.8,0.45,4.26,1.18,6.89,2.23c2.63,1.05,4.92,2.25,6.43,3.32
				C358.67,120.68,359.42,121.57,359.42,121.57z"/>
		</g>
		<g>
			<path style="fill:#FFFFFF;" d="M312.01,197.9c-0.01,0.01-0.15-0.03-0.39-0.13c-0.24-0.1-0.59-0.27-0.99-0.53
				c-0.79-0.5-1.85-1.47-2.17-2.95c-0.33-1.44-0.02-2.81,0.39-3.66c0.2-0.43,0.41-0.76,0.58-0.97c0.16-0.21,0.27-0.31,0.28-0.3
				c0.03,0.02-0.36,0.47-0.72,1.33c-0.36,0.85-0.64,2.17-0.32,3.55c0.3,1.4,1.3,2.35,2.05,2.87
				C311.48,197.65,312.03,197.87,312.01,197.9z"/>
		</g>
		<g>
			<path style="fill:#FFFFFF;" d="M308.83,187.07c0.06-0.02,0.27,0.55,0.48,1.26c0.21,0.71,0.33,1.3,0.28,1.31
				c-0.06,0.02-0.27-0.55-0.48-1.26C308.9,187.68,308.77,187.09,308.83,187.07z"/>
		</g>
		<g>
			<g>
				<path style="fill:#263238;" d="M322.35,411.28l30.5-0.15l-0.55-105.46l-0.28-107.27l-41.31-0.51l-7.43,14
					c-3,5.65-5.03,11.79-5.71,18.15c-0.52,4.85,3.11,20.65,4.38,24.67l11.37,36.06L322.35,411.28z"/>
				<path style="fill:#263238;" d="M360.97,198.54l33.52,91.37c3.94,12.25,2.62,24.39-4.13,35.7l-38.91,75.95l-21.88-27.37
					l32.56-68.04l-28.7-46.5l4.83-61.01l13.52-0.22L360.97,198.54z"/>
			</g>
			<g>
				<path style="fill:#455A64;" d="M349.23,229.15c0,0,0.02,0.16,0.05,0.47c0.02,0.33,0.05,0.79,0.09,1.38
					c0.07,1.24,0.16,3.02,0.28,5.3c0.22,4.63,0.55,11.28,0.94,19.49c0.38,8.24,0.83,18.03,1.33,28.9c0.24,5.44,0.5,11.15,0.77,17.07
					c0.19,2.96,0.1,5.98,0.14,9.03c0.01,3.06,0.02,6.16,0.03,9.31c0.04,25.13,0.08,47.88,0.11,64.37
					c-0.01,8.22-0.02,14.88-0.03,19.51c-0.01,2.28-0.03,4.07-0.03,5.3c-0.01,0.59-0.02,1.05-0.02,1.38
					c-0.01,0.31-0.03,0.47-0.03,0.47s-0.02-0.16-0.03-0.47c-0.01-0.33-0.02-0.79-0.03-1.38c-0.01-1.24-0.04-3.02-0.06-5.3
					c-0.03-4.63-0.08-11.29-0.14-19.51c-0.07-16.49-0.16-39.24-0.26-64.37c-0.01-3.14-0.02-6.25-0.03-9.3
					c-0.03-3.06,0.06-6.08-0.13-9.03c-0.26-5.92-0.5-11.63-0.74-17.07c-0.46-10.87-0.87-20.67-1.22-28.9
					c-0.33-8.21-0.59-14.86-0.78-19.49c-0.08-2.28-0.14-4.06-0.18-5.3c-0.01-0.59-0.03-1.05-0.04-1.38
					C349.22,229.31,349.23,229.15,349.23,229.15z"/>
			</g>
			<g>
				<path style="fill:#455A64;" d="M348.47,200.35c0.04,0,0.11,0.35,0.21,0.99c0.1,0.64,0.23,1.58,0.36,2.73
					c0.27,2.31,0.55,5.52,0.71,9.07c0.16,3.55,0.17,6.77,0.11,9.1c-0.03,1.16-0.07,2.11-0.11,2.76c-0.04,0.65-0.09,1.01-0.12,1.01
					c-0.08,0-0.1-1.44-0.13-3.76c-0.04-2.32-0.1-5.53-0.26-9.07c-0.16-3.54-0.38-6.74-0.56-9.06
					C348.5,201.79,348.39,200.35,348.47,200.35z"/>
			</g>
			<g>
				<path style="fill:#455A64;" d="M341.74,202.4c0.05,0.07-0.52,0.33-0.68,1.14c-0.07,0.39,0.01,0.89,0.39,1.22
					c0.36,0.34,0.99,0.5,1.5,0.27c0.51-0.23,0.79-0.82,0.77-1.31c0-0.51-0.33-0.89-0.67-1.09
					C342.34,202.22,341.77,202.48,341.74,202.4c0-0.03,0.11-0.14,0.36-0.21c0.25-0.07,0.67-0.09,1.12,0.11
					c0.44,0.19,0.94,0.69,0.98,1.39c0.05,0.67-0.29,1.46-1.04,1.81c-0.76,0.33-1.58,0.07-2.05-0.4c-0.51-0.49-0.56-1.19-0.41-1.65
					c0.14-0.48,0.42-0.78,0.65-0.92C341.58,202.39,341.73,202.38,341.74,202.4z"/>
			</g>
			<g>
				<path style="fill:#455A64;" d="M325.74,200.59c0.03-0.01,0.15,0.33,0.27,0.96c0.12,0.63,0.2,1.57,0.09,2.72
					c-0.11,1.15-0.46,2.51-1.15,3.87c-0.69,1.37-1.77,2.73-3.21,3.78c-1.46,1.03-3.09,1.61-4.61,1.83
					c-1.52,0.22-2.92,0.12-4.04-0.15c-1.13-0.26-1.99-0.63-2.55-0.95c-0.56-0.32-0.83-0.54-0.82-0.57c0.05-0.1,1.23,0.74,3.44,1.16
					c2.15,0.43,5.48,0.23,8.27-1.75c2.77-2.01,4.02-5.1,4.3-7.27C326.05,202,325.63,200.61,325.74,200.59z"/>
			</g>
			<g>
				<path style="fill:#455A64;" d="M364.98,209.35c0,0.05-0.76,0.11-1.92-0.23c-1.16-0.33-2.68-1.14-3.94-2.52
					c-1.25-1.38-1.91-2.98-2.13-4.16c-0.22-1.19-0.09-1.94-0.04-1.93c0.09,0,0.1,0.73,0.4,1.85c0.29,1.11,0.97,2.59,2.15,3.9
					c1.19,1.3,2.59,2.12,3.67,2.52C364.26,209.18,364.99,209.26,364.98,209.35z"/>
			</g>
			<g>
				<path style="fill:#455A64;" d="M376.89,307.85c0.04,0.05-0.58,0.66-1.77,1.41c-0.6,0.36-1.35,0.76-2.28,0.99
					c-0.91,0.24-2.02,0.27-3.07-0.08c-2.13-0.7-3.46-2.3-4.27-3.4c-0.81-1.13-1.22-1.89-1.17-1.92c0.06-0.05,0.59,0.64,1.46,1.7
					c0.87,1.03,2.19,2.49,4.14,3.13c1.96,0.65,3.83-0.11,5-0.74C376.14,308.29,376.84,307.79,376.89,307.85z"/>
			</g>
			<g>
				<path style="fill:#455A64;" d="M369.26,313.69c-0.12,0.08-1.53-1.7-3.16-3.99c-1.63-2.29-2.85-4.21-2.73-4.29
					c0.12-0.08,1.53,1.7,3.16,3.99C368.15,311.69,369.37,313.61,369.26,313.69z"/>
			</g>
			<g>
				<path style="fill:#FAFAFA;" d="M318.01,232.7c-0.13,0.05-0.49-0.52-0.8-1.29c-0.31-0.76-0.45-1.43-0.31-1.48
					c0.13-0.05,0.49,0.52,0.79,1.29C318,231.98,318.14,232.65,318.01,232.7z"/>
			</g>
			<g>
				<path style="fill:#FAFAFA;" d="M337.37,235.47c-0.14,0-0.26-0.5-0.26-1.11c0-0.61,0.12-1.11,0.26-1.11
					c0.14,0,0.26,0.5,0.26,1.11C337.63,234.97,337.51,235.47,337.37,235.47z"/>
			</g>
			<g>
				<path style="fill:#FAFAFA;" d="M329.41,245.98c-0.14,0.01-0.3-0.6-0.35-1.37c-0.05-0.76,0.02-1.39,0.17-1.4
					c0.14-0.01,0.3,0.6,0.35,1.37C329.63,245.34,329.56,245.97,329.41,245.98z"/>
			</g>
			<g>
				<path style="fill:#FAFAFA;" d="M314.87,253.72c-0.12,0.09-0.53-0.28-1.07-0.67c-0.53-0.39-1.01-0.67-0.96-0.81
					c0.04-0.13,0.66-0.05,1.27,0.39C314.72,253.08,314.99,253.64,314.87,253.72z"/>
			</g>
			<g>
				<path style="fill:#FAFAFA;" d="M340.51,263.5c-0.12-0.08,0.03-0.52,0.34-0.97c0.31-0.46,0.65-0.77,0.77-0.69
					c0.12,0.08-0.03,0.52-0.34,0.97C340.97,263.27,340.62,263.58,340.51,263.5z"/>
			</g>
			<g>
				<path style="fill:#FAFAFA;" d="M324.65,266.26c-0.14,0-0.26-0.83-0.26-1.84c0-1.02,0.12-1.84,0.26-1.84
					c0.14,0,0.26,0.83,0.26,1.84C324.91,265.44,324.79,266.26,324.65,266.26z"/>
			</g>
			<g>
				<path style="fill:#FAFAFA;" d="M319.51,277.48c-0.08,0.12-0.61-0.12-1.17-0.53c-0.56-0.41-0.95-0.83-0.86-0.95
					c0.08-0.12,0.61,0.12,1.17,0.53C319.2,276.94,319.59,277.36,319.51,277.48z"/>
			</g>
			<g>
				<path style="fill:#FAFAFA;" d="M335.53,281.38c0.06,0.13-0.27,0.4-0.72,0.61c-0.46,0.2-0.88,0.26-0.94,0.13
					c-0.06-0.13,0.27-0.4,0.72-0.61C335.05,281.31,335.47,281.25,335.53,281.38z"/>
			</g>
			<g>
				<path style="fill:#FAFAFA;" d="M324.65,299.64c-0.13,0.06-0.65-0.71-1.15-1.73c-0.51-1.02-0.82-1.9-0.69-1.96
					c0.13-0.06,0.65,0.71,1.15,1.73C324.47,298.7,324.77,299.58,324.65,299.64z"/>
			</g>
			<g>
				<path style="fill:#FAFAFA;" d="M342.35,297.98c-0.13-0.07,0.1-0.74,0.51-1.51c0.41-0.76,0.84-1.33,0.97-1.26
					c0.13,0.07-0.1,0.74-0.51,1.51C342.91,297.48,342.48,298.05,342.35,297.98z"/>
			</g>
			<g>
				<path style="fill:#FAFAFA;" d="M334.6,313.47c-0.15-0.02-0.14-0.81-0.29-1.75c-0.14-0.94-0.4-1.69-0.26-1.75
					c0.12-0.07,0.62,0.64,0.78,1.67C335,312.67,334.74,313.5,334.6,313.47z"/>
			</g>
			<g>
				<path style="fill:#FAFAFA;" d="M326.31,322.32c-0.11,0.1-0.61-0.28-1.11-0.84c-0.51-0.56-0.84-1.09-0.73-1.19
					c0.11-0.1,0.61,0.28,1.11,0.84C326.09,321.69,326.41,322.23,326.31,322.32z"/>
			</g>
			<g>
				<path style="fill:#FAFAFA;" d="M346.45,325.68c-0.1-0.1,0.27-0.64,0.82-1.2c0.56-0.56,1.09-0.94,1.19-0.84
					c0.1,0.1-0.27,0.64-0.82,1.2C347.08,325.41,346.55,325.78,346.45,325.68z"/>
			</g>
			<g>
				<path style="fill:#FAFAFA;" d="M334.86,338.93c-0.14-0.02-0.14-0.78-0.01-1.7c0.14-0.92,0.37-1.65,0.51-1.62
					c0.14,0.02,0.14,0.78,0,1.7C335.23,338.22,335,338.95,334.86,338.93z"/>
			</g>
			<g>
				<path style="fill:#FAFAFA;" d="M327.07,345.36c-0.12,0.07-0.56-0.44-0.98-1.15c-0.41-0.71-0.65-1.34-0.53-1.41
					c0.12-0.07,0.56,0.44,0.98,1.15C326.96,344.65,327.19,345.29,327.07,345.36z"/>
			</g>
			<g>
				<path style="fill:#FAFAFA;" d="M345.85,353.48c0.08,0.12-0.43,0.63-1.14,1.14c-0.71,0.51-1.36,0.83-1.44,0.71
					c-0.08-0.12,0.43-0.63,1.14-1.14C345.12,353.68,345.76,353.36,345.85,353.48z"/>
			</g>
			<g>
				<path style="fill:#FAFAFA;" d="M330.21,364.01c-0.14-0.05,0.04-0.86,0.12-1.85c0.09-0.99,0.06-1.82,0.2-1.84
					c0.14-0.03,0.41,0.82,0.31,1.89C330.75,363.28,330.33,364.06,330.21,364.01z"/>
			</g>
			<g>
				<path style="fill:#FAFAFA;" d="M336.45,379.12c-0.11,0.09-0.53-0.25-0.94-0.76c-0.41-0.51-0.65-0.99-0.53-1.08
					c0.11-0.09,0.53,0.25,0.94,0.76C336.32,378.54,336.56,379.03,336.45,379.12z"/>
			</g>
			<g>
				<path style="fill:#FAFAFA;" d="M329.63,389.26c-0.12,0.08-0.67-0.51-1.23-1.33c-0.56-0.82-0.92-1.54-0.8-1.62
					s0.67,0.51,1.23,1.33C329.39,388.45,329.74,389.18,329.63,389.26z"/>
			</g>
			<g>
				<path style="fill:#FAFAFA;" d="M348.43,376.54c-0.13-0.05-0.12-0.42,0.03-0.83c0.15-0.41,0.39-0.7,0.52-0.65
					c0.13,0.05,0.12,0.42-0.03,0.83C348.8,376.3,348.57,376.59,348.43,376.54z"/>
			</g>
			<g>
				<path style="fill:#FAFAFA;" d="M340.14,400.69c-0.13-0.07,0.12-0.78,0.31-1.67c0.2-0.89,0.28-1.64,0.42-1.65
					c0.14-0.01,0.3,0.79,0.08,1.76C340.75,400.1,340.26,400.76,340.14,400.69z"/>
			</g>
			<g>
				<path style="fill:#FAFAFA;" d="M345.53,246.14c-0.13,0.06-0.45-0.34-0.71-0.9c-0.26-0.56-0.37-1.06-0.24-1.12
					c0.13-0.06,0.45,0.34,0.71,0.9C345.55,245.58,345.66,246.08,345.53,246.14z"/>
			</g>
			<g>
				<path style="fill:#FAFAFA;" d="M331.65,215c0.08,0.13-0.62,0.69-1.37,1.49c-0.75,0.79-1.27,1.53-1.4,1.46
					c-0.12-0.06,0.21-0.96,1.02-1.82C330.7,215.27,331.59,214.88,331.65,215z"/>
			</g>
			<g>
				<path style="fill:#FAFAFA;" d="M344.01,214.63c-0.14,0.03-0.38-0.56-0.73-1.25c-0.34-0.69-0.67-1.23-0.56-1.33
					c0.1-0.1,0.65,0.34,1.03,1.1C344.13,213.9,344.15,214.61,344.01,214.63z"/>
			</g>
			<g>
				<path style="fill:#FAFAFA;" d="M305.52,224.79c-0.13-0.05,0-0.72,0.31-1.48c0.3-0.77,0.66-1.34,0.79-1.29
					c0.13,0.05,0,0.72-0.31,1.48C306,224.27,305.65,224.84,305.52,224.79z"/>
			</g>
			<g>
				<path style="fill:#FAFAFA;" d="M306.76,239.89c-0.09,0.11-0.66-0.21-1.27-0.72c-0.61-0.51-1.03-1.01-0.94-1.12
					c0.09-0.11,0.66,0.21,1.27,0.72C306.43,239.28,306.85,239.78,306.76,239.89z"/>
			</g>
			<g>
				<path style="fill:#FAFAFA;" d="M332.02,203.01c-0.13,0.05-0.41-0.32-0.61-0.83c-0.2-0.51-0.26-0.97-0.13-1.02
					s0.41,0.32,0.61,0.83C332.1,202.5,332.16,202.96,332.02,203.01z"/>
			</g>
			<g>
				<path style="fill:#FAFAFA;" d="M356.21,210.39c-0.14-0.03-0.13-0.63,0.03-1.35c0.16-0.71,0.4-1.26,0.54-1.23
					c0.14,0.03,0.13,0.63-0.03,1.35C356.59,209.87,356.35,210.43,356.21,210.39z"/>
			</g>
			<g>
				<path style="fill:#FAFAFA;" d="M361.9,221.82c-0.13-0.05,0.05-0.8,0.4-1.67c0.36-0.87,0.75-1.52,0.89-1.47
					c0.13,0.05-0.05,0.8-0.4,1.67C362.43,221.22,362.03,221.88,361.9,221.82z"/>
			</g>
			<g>
				<path style="fill:#FAFAFA;" d="M357.84,231.04c-0.13,0.06-0.6-0.63-1.06-1.54c-0.46-0.92-0.73-1.71-0.6-1.78
					c0.13-0.06,0.6,0.63,1.06,1.54C357.7,230.18,357.97,230.98,357.84,231.04z"/>
			</g>
			<g>
				<path style="fill:#FAFAFA;" d="M366.51,240.26c-0.13-0.05-0.04-0.63,0.22-1.29c0.25-0.66,0.57-1.16,0.7-1.11
					c0.13,0.05,0.04,0.63-0.22,1.29C366.96,239.82,366.64,240.31,366.51,240.26z"/>
			</g>
			<g>
				<path style="fill:#FAFAFA;" d="M358.76,249.3c-0.12,0.08-0.43-0.19-0.68-0.6c-0.25-0.41-0.36-0.8-0.24-0.88
					c0.12-0.08,0.43,0.19,0.68,0.6C358.78,248.83,358.88,249.22,358.76,249.3z"/>
			</g>
			<g>
				<path style="fill:#FAFAFA;" d="M360.41,267.93c-0.11,0.1-0.73-0.4-1.39-1.11c-0.66-0.71-1.11-1.37-1.01-1.47
					c0.11-0.1,0.73,0.4,1.39,1.11C360.07,267.17,360.52,267.83,360.41,267.93z"/>
			</g>
			<g>
				<path style="fill:#FAFAFA;" d="M370.56,257.23c-0.11,0.09-0.66-0.42-1.22-1.13c-0.56-0.71-0.92-1.36-0.81-1.45
					c0.11-0.09,0.66,0.42,1.22,1.13C370.31,256.49,370.68,257.14,370.56,257.23z"/>
			</g>
			<g>
				<path style="fill:#FAFAFA;" d="M376.13,272c-0.13-0.06,0.1-0.81,0.51-1.68c0.41-0.86,0.85-1.52,0.98-1.45
					c0.13,0.06-0.1,0.81-0.51,1.68C376.7,271.41,376.26,272.06,376.13,272z"/>
			</g>
			<g>
				<path style="fill:#FAFAFA;" d="M364.29,284.15c-0.13,0.08-0.59-0.48-1.24-1.07c-0.64-0.59-1.23-1.01-1.16-1.15
					c0.06-0.13,0.81,0.11,1.52,0.76C364.12,283.35,364.42,284.08,364.29,284.15z"/>
			</g>
			<g>
				<path style="fill:#FAFAFA;" d="M365.03,296.69c0,0.14-0.5,0.26-1.11,0.26c-0.61,0-1.11-0.12-1.11-0.26s0.5-0.26,1.11-0.26
					C364.54,296.43,365.03,296.55,365.03,296.69z"/>
			</g>
			<g>
				<path style="fill:#FAFAFA;" d="M377.2,293.19c-0.13-0.08,0.13-0.7,0.32-1.49c0.2-0.78,0.27-1.45,0.42-1.46
					c0.14-0.02,0.31,0.72,0.09,1.59C377.81,292.7,377.32,293.26,377.2,293.19z"/>
			</g>
			<g>
				<path style="fill:#FAFAFA;" d="M389.29,297.39c-0.14,0.05-0.51-0.65-0.82-1.56c-0.32-0.91-0.47-1.69-0.33-1.74
					c0.14-0.05,0.5,0.65,0.82,1.56C389.28,296.57,389.43,297.34,389.29,297.39z"/>
			</g>
			<g>
				<path style="fill:#FAFAFA;" d="M387.37,314.59c-0.13-0.07,0.18-0.91,0.69-1.87c0.51-0.97,1.02-1.7,1.15-1.63
					c0.13,0.07-0.18,0.91-0.69,1.87C388.01,313.92,387.49,314.66,387.37,314.59z"/>
			</g>
			<g>
				<path style="fill:#FAFAFA;" d="M376.33,324.7c-0.13,0.05-0.54-0.64-0.92-1.55c-0.37-0.91-0.57-1.69-0.44-1.75
					c0.13-0.05,0.54,0.64,0.92,1.55C376.27,323.86,376.47,324.64,376.33,324.7z"/>
			</g>
			<g>
				<path style="fill:#FAFAFA;" d="M364.11,328.59c0,0.14-0.41,0.26-0.92,0.26c-0.51,0-0.92-0.12-0.92-0.26s0.41-0.26,0.92-0.26
					C363.7,328.33,364.11,328.45,364.11,328.59z"/>
			</g>
			<g>
				<path style="fill:#FAFAFA;" d="M371.12,344.64c-0.14,0.04-0.42-0.55-0.62-1.32c-0.2-0.76-0.26-1.41-0.12-1.45
					c0.14-0.04,0.42,0.55,0.62,1.32C371.2,343.95,371.26,344.6,371.12,344.64z"/>
			</g>
			<g>
				<path style="fill:#FAFAFA;" d="M362.27,339.29c-0.12-0.07,0.02-0.55,0.33-1.06c0.31-0.51,0.65-0.86,0.78-0.79
					c0.12,0.07-0.02,0.55-0.33,1.06C362.74,339.01,362.39,339.36,362.27,339.29z"/>
			</g>
			<g>
				<path style="fill:#FAFAFA;" d="M362.08,356.99c-0.14,0.02-0.34-0.67-0.44-1.54c-0.1-0.87-0.07-1.58,0.07-1.6
					c0.14-0.02,0.34,0.67,0.44,1.54C362.26,356.26,362.22,356.97,362.08,356.99z"/>
			</g>
		</g>
	</g>
</g>
</svg>
