<?xml version="1.0" encoding="utf-8"?>
<!-- Generator: Adobe Illustrator 24.3.0, SVG Export Plug-In . SVG Version: 6.00 Build 0)  -->
<svg version="1.1" id="Layer_1" xmlns="http://www.w3.org/2000/svg" xmlns:xlink="http://www.w3.org/1999/xlink" x="0px" y="0px"
	 viewBox="0 0 400 400" style="enable-background:new 0 0 400 400;" xml:space="preserve">
<g>
	<path style="fill:#2E2C2D;" d="M271.83,183.8c-3-2.23-6-4.46-9.94-7.39c1.32,11.02,0.68,20.86-4.92,29.69
		c-5.35,8.42-12.48,14.91-21.58,19.05c0.14,0.44,0.14,0.78,0.3,0.9c1.2,0.9,3.8-0.43,3.88,1.94c0.06,2.05-2.59,2.48-3.45,3.58
		c-4.76,6.1-12.06,3.41-17.76,5.86c-0.61,0.26-1.84,0.4-1.84,0.57c0.17,5.6-3.68,2.38-5.83,2.62c-2.15,0.25-4.33,0.19-6.5,0.23
		c-2.15,0.04-3.92-0.48-4.16-3.05c4.31-2.3,9.03-1.75,13.64-1.96c0.65-0.03,1.65,0.43,2.06-1.23c-2.68,0-5.21-0.17-7.71,0.05
		c-2.71,0.24-5.71-0.91-8.04,1.46c-4.93-0.54-9.67,0.71-14.48,1.37c-1.56,0.21-4.6,1.5-4.62-0.91c-0.01-1.88,1.23-5.23,4.64-5.07
		c4.52,0.2,8.59-1.71,13.91-2.44c-5.16-2.24-9.74-3.46-13.85-5.88c-11.24-6.6-18.63-15.47-18.44-29.2c0.03-2.31,0.21-4.63,0.07-6.92
		c-0.1-1.55,1.65-4.84-2.63-3.39c-0.37,0.12-1.34-0.85-1.69-1.5c-2.77-5.04-8.14-6.68-12.53-9.56c-1.59-1.04-4.23,0.44-5.45-0.29
		c-4.19-2.5-5.69,1.14-8.12,2.8c-1.29,0.88-2.46,1.86-4.04,2.42c-4.39,1.57-6.25,4.49-6.25,9.17c0,2.85,0.08,5.7,0.1,8.56
		c0.08,13.08-6.42,22.76-16.04,30.73c-1.86,1.54-3.88,2.89-5.6,4.62c2.28,1.79,4.87,0.52,7.3,0.64c2.98,0.15,5.97-0.06,8.96-0.07
		c0.73,0,1.75-0.39,1.96,0.78c0.18,1.01-0.75,1.48-1.41,1.74c-0.97,0.38-2.08,0.55-3.14,0.58c-4.85,0.12-9.43,0.91-13.35,4.17
		c-1.06,0.88-2.35,1.55-4.28,0.91c-2.9-0.95-5.71,0.39-8.16,2.18c-3.39-0.32-6.81-1.14-10.13,0.45c2.12,0.42,4.23,0.51,6.35,0.61
		c0.81,0.04,1.71,0.06,1.66,1.23c-0.03,0.78,0.01,1.76-1.1,1.83c-3.72,0.25-0.99,2.1-0.85,3.31c-4.5-0.48-8.93,0.57-13.4,0.62
		c-1.02,0.01-2.41,0.21-2.62-1.24c-0.18-1.23,1.68-0.6,2-2.05c-3.25-1.01-6.6-0.3-9.86-0.31c-1.33,0-2.24,0.39-2.14-1.46
		c0.09-1.56-0.86-2.27-2.33-2.02c-2.72,0.46-4.74,0.07-5.6-3.06c-0.35-1.28-1.87-0.72-2.89-0.68c-2.44,0.09-4.89,0.24-7.32,0.41
		c-1.55,0.11-2.89-0.44-3.13-1.95c-0.28-1.79,1.65-2.1,2.71-2.32c2.4-0.5,4.91-0.49,7.44-1.13c-4.36-1.29-7.71-4.26-11.39-6.4
		c-10.31-6-18.27-14.19-21.74-26.41c-2.08-7.33-2.13-14.52-1.09-21.65c1.12-7.67,4.88-14.31,10.38-20.19
		c2.73-2.92,5.67-5.45,8.57-8.12c1.64-1.52,2.93-3.32,3.68-5.83c1.45-4.85,6.38-6.62,10.5-8.5c3.48-1.58,6.45-3.03,9.09-6.16
		c4.28-5.07,9.66-9.2,14.49-13.81c2.59-2.46,5.14-2.11,7.31,0.21c3.95,4.22,9.32,6.47,14.39,7.48c6.68,1.33,12.21,4.01,17.37,8.03
		c2.17,1.69,3.98,2.16,6.7,0.49c3.69-2.26,8.35-2.05,12.49-2.54c4.65-0.55,8.9-1.74,12.73-4.01c2.99-1.77,5.21-1.17,7.63,0.51
		c0.99,0.69,2.08,1.37,2.77,2.31c6.23,8.44,15.22,6.3,22.69,3.27c2.62-1.06,4.86-3.46,8.24-2.59c1.48,0.38,2.81-0.98,3.71-2.02
		c5.05-5.82,12.03-8.11,18.9-10.62c3.02-1.1,5.36,0.79,6.97,2.82c3.33,4.19,8.43,6.29,11.51,10.99c1.9,2.9,6.39,3.98,9.99,5.33
		c-0.06,1.99,2.15,1.26,2.77,2.3c0.56,0.93,1.14,1.46,2.21,1.16c0.32-0.09,0.74-0.39,0.37-0.86c-0.65-0.83-0.17-2.63-2.09-2.36
		c-1.39,0.2-2.03-0.38-1.75-1.83l0.04-0.04c2.74,0.04,5.48,0.07,8.22,0.11c10.92,2.22,21.68,5.03,32.44,7.9
		c14.69,3.92,28.69,9.74,43.08,14.45c4.67,1.53,9.6,2.4,14.4,3.61c2.87,0.72,5.39,2.12,7.93,3.39c4.53,2.26,9.52,2.82,14.22,4.41
		c8.93,3.02,14.03,9.16,16.84,17.58c3.39,10.16,4.87,20.38-1.26,30.2c-0.72,1.16-0.45,1.76,0.89,1.86c2.06,0.15,3.57,2.23,5.89,1.56
		c0.99-0.29,1.48,0.6,1.52,1.46c0.04,0.89-0.42,1.54-1.44,1.59c-5.41,0.26-10.47,2.43-15.83,2.96c-2.86,0.29-5.9-0.15-7.76,2.83
		c-0.13,0.2-0.45,0.43-0.66,0.41c-5.84-0.51-11.23,2.94-17.08,2c-1.46-0.24-2.77-0.37-3.35,1.04c-0.71,1.72,1.11,1.94,1.99,2.84
		c4.61,4.66,10.81,8.52,9.29,16.64c-0.56,2.99,0.58,6.02-0.69,9.11c-2.24,5.45-7.07,7.35-11.76,9.59c-0.45,0.22-1.07,0.23-0.98,1.64
		c2.24,0,4.56,0.14,6.86-0.07c0.95-0.08,1.82,0.01,1.92,0.77c0.07,0.59-0.62,1.5-1.21,1.9c-0.62,0.42-1.54,0.53-2.33,0.55
		c-7.98,0.27-15.81,2.46-23.87,1.9c-1.36-0.09-3.07-0.54-2.96,1.99c0.08,1.69-1.74,2.28-2.83,2.36c-3.2,0.23-6.23,1.53-9.22,1.87
		c-9.55,1.11-19.18,2.1-28.84,1.52c-0.68-0.04-1.59,0.13-1.99-0.23c-5.11-4.69-11.32-3-17.08-2.68
		c-7.33,0.41-18.08-8.94-17.55-16.65c0.27-3.93-0.06-7.85-1.25-11.89c-1.43-4.83,2.88-8.25,5.75-11.68
		c6.33-7.56,15.05-11.9,23.34-16.75c7.46-4.36,15.17-8.3,22.54-12.84c1.67-1.03,2.27-1.88,1.97-3.72c-0.34-2.07-1.85-1.6-3.1-1.57
		c-1.97,0.05-3.76-0.03-4.58-2.3c-0.49-1.36-1.78-0.89-2.8-1.05c-0.98-0.15-2.46,0.73-2.83-0.74c-0.45-1.77,1.09-2.4,3.11-3.1
		c-5.15-1.1-3.45-4.88-4.11-7.76c-0.32-1.38-0.01-3.79-2.84-3.47c-0.69,0.08-1.59-0.48-1.45-1.53c0.16-1.23,1.12-1.38,2.12-1.42
		c1.41,0.27,2.91,0.08,4.07,1.37c0.34,0.38,1.69,0.55,2.03-0.42c0.16-0.46-0.44-1.17-0.7-1.77c1.11-1.85,3.19,0.43,4.35-0.98
		c2.4-2.91,1.12-6.86-2.48-7.86c-0.64-0.18-1.24-0.5-1.87-0.71c-5.33-1.8-10.41-4.37-16.44-5.6c0.76,1.71,1,3.73,1.95,4.15
		c3.89,1.71,6.15,5.5,10,7.32c1.48,0.7,4.36,0.88,4.39,3.72C275.31,184.35,273.57,184.08,271.83,183.8z M224.44,211.6
		c-1.64,0.03-3.28,0.05-4.91,0.08c-0.33-1.12,0.17-1.4,1.2-1.97c4.77-2.64,9.89-4.78,12.38-10.41c1.14-2.58,3.52-6.48,4.97-6.83
		c4.31-1.03,2.89-3.79,2.7-5.81c-0.91-9.8-4.24-18.51-11.23-25.87c-3.2-3.37-6.18-4.95-10.89-4.8c-6.31,0.19-11.9,0.6-17.58,4.57
		c-6.15,4.3-10.52,8.89-11.07,16.43c-0.1,1.42-0.36,2.11-1.69,1.98c-3.71-0.37-3.46,2.4-2.66,4.16c1.54,3.41,1.09,6.88,1.27,10.33
		c0.38,7.48,3.77,12.95,10.33,16.61c2.95,1.65,5.68,3.81,6.24-1.93c0.05-0.54,0.93-0.94,1.21-1.51c1.91-3.98,6.25-5.88,8.3-9.74
		c3.37-0.62,0.42-3.48,1.71-4.83c3.65-1.67,6.83-4.41,10.98-4.94c0.71-0.09,1.78-0.49,1.95,0.7c0.08,0.58-0.17,1.46-0.6,1.82
		c-2.93,2.45-5.88,4.89-8.95,7.16c-5.06,3.75-9.45,8.11-12.66,13.56c-0.66,1.12-0.91,2.15,1.04,3.07c4.53,2.13,8.72,1.44,13.02-0.34
		c1.54-0.79,4.1,1.62,4.88-1.56c1.17-0.39,3.31,1.24,3.31-1.59c2.05,0.32,3.4-0.95,4.75-2.16c0.11-0.1-0.23-0.98-0.34-0.97
		c-1.96,0.09-3.15,1.41-4.27,2.81c-0.07,0.09-0.05,0.26-0.08,0.39C226.42,210.08,224.86,209.67,224.44,211.6z M201.41,146.18
		c-1.59,0.1-3.31-0.25-5.32,1.48c2.52,0.08,4.49,1.49,5.59-1.24c0.53-0.06,1.06-0.11,1.59-0.17c3.89-0.24,7.55,1.28,11.24,1.99
		c4.39,0.83,8.98,1.67,13.2,3.81c7.41,3.76,12.4,10.04,17.73,15.97c7.46,8.29,9.43,17.76,5.14,28.19
		c-1.95,4.74-5.32,8.72-8.56,12.58c-5,5.96-11.33,10.48-18.94,12.56c-7.1,1.93-14.39,0.42-21.52-0.17
		c-3.26-0.27-6.77-1.74-9.66-3.84c-13.26-9.62-16.42-25.37-12.75-39.31c2.24-8.52,5.95-16.64,11.59-23.58
		c1.24-1.53,0.14-1.9-0.35-2.54c-0.87-1.14-1.22-0.18-2.03,0.46c-4.86,3.78-8.46,8.57-11.25,13.93c-3.38,6.5-5.73,13.27-7.05,20.65
		c-1.56,8.71,0.34,16.01,5.07,23.03c8.45,12.54,21.4,16.39,35.32,17.66c8.3,0.76,16.59-1.35,23.94-5.04
		c14.1-7.08,24.66-17.19,24.38-34.62c-0.04-2.84,1.67-5.86,0.99-8.23c-1.13-3.93-2.06-7.98-4.06-11.75
		c-7.34-13.85-19.01-21.09-34.14-23.42c-6.1-0.94-12.17-0.43-18.24,0.3C202.36,144.85,201.16,144.46,201.41,146.18z M232.66,213.28
		c-2.66-0.43-4.03,1.04-4.85,3.31c-1.1,0.07-2.33-0.39-3.53,0.73c1.72,1.11,2.81,1.01,3.47-0.8c2.08-0.41,4.2-0.77,4.84-3.3
		c0.61-0.1,1.45,0.17,1.62-0.73c0.13-0.7-0.46-0.95-1.01-0.81C232.3,211.91,232.47,212.62,232.66,213.28z M154.46,149.81
		c2.16-2.01,2.09-4.69-0.18-6.77c-1.02-1.72-1.61-3.6-2.97-5.25c-5.16-6.27-14.58-6-22.23-3.46c-7.17,2.38-13.71,4.6-19.93-1.31
		c-1.88-1.79-4.23-2.61-6.27-4.01c-1.33-0.91-3.38-1.72-4.66,0.29c-1.71,2.67-2.83,1.63-4.5-0.13c-3.3-3.48-11.83-3.09-15.3,0.19
		c-1.43,1.35-0.82,2.71-0.91,4.11c-0.08,1.11,0.74,1.3,1.62,1.28c4.2-0.08,8.23,0.98,12.34,1.61c4.94,0.75,8.77,2.88,12.25,6.26
		c3.94,3.81,5.51,8.99,8.3,13.46c0.15,0.25,0.66,0.27,0.94,0.38c0.89-0.98,0.04-2.54,1.71-3.44c4,8.64,6.11,17.99,10.84,26.59
		c3.92-5.2,8.06-9.46,13.94-11.73c6.35-2.46,9.93-7.8,13.2-13.38C155.61,153.85,153.74,151.33,154.46,149.81z M336.66,166.25
		c0.02,1.56,1.06,1.38,2.09,1.23c6.02,3.7,12.61,6.49,17.92,11.35c0.86,0.78,1.99,1.07,0.89,2.33c-0.96,1.09-1.6,0.4-2.64-0.31
		c-1.98-1.37-3.81-2.94-5.87-4.25c-7.71-4.91-15.71-8.84-24.81-10.3c-1.11-0.18-1.84-0.51-2.12,1.31c-0.32,2.1-1.65,3.96-4.16,1.72
		c-0.99-0.88-2.13-1.35-3.36-1.13c-6.4,1.16-12.67-1.28-19.05-0.64c-1.18,0.12-2.84,0.21-3.27-1.09c-1.02-3.08-3.42-2.39-5.58-2.4
		c-4.49-0.03-8.97-0.02-13.46,0.05c-2.92,0.05-5.67,0.38-7.96-2.37c-1.38-1.65-3.78-0.89-5.62-0.06c-1.35,0.61-1.04,1.9-0.91,3.19
		c0.27,2.66,2.53,1.88,3.94,2.43c1.1,0.43,2.48,0.14,3.59,0.55c6.96,2.58,14.04,4.92,20.77,8.02c5.86,2.7,12.63,4.41,15.88,11.07
		c0.45,0.92,1.26,2.34,2.81,1.83c2.62-0.85,1.9,1.02,1.85,2.22c-0.21,4.93-1.81,9.79-0.08,14.81c2.81,8.14-2.7,12.06-8.45,15.66
		c-9.94,6.22-20.87,10.68-30.43,17.65c-6.19,4.52-12.15,9.24-17.71,14.48c-0.88,0.83-2.52,1.77-1.74,3.33
		c0.63,1.26,2.2,0.7,3.34,0.67c4.76-0.11,9.51-0.33,14.27-0.51c2.84-0.03,5.84,0.89,8.32-1.36c7.02-0.1,14.04-0.2,21.06-0.3
		c3.24,0,6.48-0.05,9.71,0.03c1.1,0.03,3.08-0.5,1.94,1.93c-1.65,0.05-3.3,0.1-4.95,0.15c-7.29,0.05-14.59,0.1-21.88,0.13
		c-1.11,0.01-2.18,0.05-2.8,1.18c-11.25-0.78-22.26,2.92-33.57,1.71c-2.71-0.29-4.3,3.09-5.17,4.66c-1.33,2.4-0.56,6.05,2.19,8.26
		c2.56,2.06,5.36,3.47,8.82,3.46c5.49-0.02,10.94-1.03,16.34-1.22c15.25-0.54,30.52-0.82,45.45-4.06c4.7-1.02,9.52-0.81,14.21-2.31
		c2.53-0.81,3.32-4.02,6.32-3.49c4.91,0.88,5.51-2.86,5.73-6.09c0.34-5.13,0.07-10.3,0.06-15.46c0.17-2.15,0.49-4.32-0.68-6.39
		c-1.01,2.08-0.71,4.26-0.64,6.41c-0.34,3.84-3.71,7.05-5.95,7.57c-5.15,1.19-9.9,4.2-15.4,3.91c-1.32,0.01-2.64,0.09-3.95,0.02
		c-1.14-0.06-1.79-0.56-0.98-1.78c5.45-1.29,11.11-1.8,16.58-3.99c-3.25-3.39-6.12-6.76-10.16-8.61c-1.42-0.65-1.64-1.41-1.61-2.72
		c0.12-5.15,0.21-10.31,0.24-15.46c0.01-2.27,1.04-4.15,2.96-4.83c5.52-1.97,11.09-4.02,16.81-5.17c5.24-1.05,10.29-2.57,15.34-4.22
		c2.18-0.71,4.96-0.84,3.96-4.43c-0.15-0.53,0.19-1.01,0.87-1.09c3.6-0.44,5.3-4.06,8.61-5.15c1.48-0.49,1.96-2.2,2.06-4.01
		c0.29-5.38-1.97-9.78-5.06-13.82c-5.84-7.62-12.93-13.41-22.87-14.67c-0.43-0.11-0.86-0.23-1.29-0.34c-1.83-2.12-4.57-1.9-6.92-2.7
		c-5.32-1.62-10.43-4.24-16.26-3.29c-1.51-2.87-3.66-1.27-5.65-0.98c2.24-0.05,3.67,2,5.75,2.23c5.34,1.51,10.49,3.83,16.2,3.67
		C331.92,167.26,334.66,165.51,336.66,166.25z M92.38,139.7c-1.35-2.76-3.34-1.28-5.64-1.14c1.16,1.59,2.28,1.56,3.46,1.33
		c3.92,2.82,7.84,5.64,11.75,8.46c-0.36,2.36,1.53,3.16,3,4.28c-0.49-2.35-0.7-4.79-2.89-6.33
		C101.32,142.71,97.59,140.17,92.38,139.7z M23.45,185.41c0.45-1.19,0.71-2.47,1.09-3.65c1.19-3.7,3.87-6.84,4.11-10.87
		c2.08-1.38,1.71-3.1,0.66-5.06c-0.06,1.7-2.63,1.49-2.28,3.38c-2.53,3.98-5.13,7.94-5.03,12.95c-2.53,2.38-1.35,5.14-0.86,7.89
		C21.81,188.41,23.52,187.35,23.45,185.41z M342.55,262.76c4.45-4.23,4.26-16.92-0.65-20.19c-0.18,6.48,0.25,12.78-0.84,18.99
		c-0.96,0.67-0.92,1.73-0.22,2.25C341.6,264.35,342.56,264.06,342.55,262.76z M319.09,227.94c-0.1,2.97-0.26,5.93-0.27,8.9
		c-0.02,3.68,3.38,4.89,5.65,5.48c2.26,0.59,0.83-2.62,1.47-4.03c0.6-1.31,1.01-2.77,1.19-4.2c0.12-0.91,0.54-2.06-0.87-2.76
		c-1.94-0.97-3.73-2.22-5.59-3.35c-0.03-1.49-0.93-1.73-2.16-1.54c-0.63,0.09-1.01,0.37-0.79,1.04
		C317.96,228.18,318.57,227.98,319.09,227.94z M78.94,219.58c-0.93,0-1.85,0-2.78,0.01c-0.62-2.08-2.28-1.12-3.58-1.23
		c-5.93-0.56-12.09,0.91-17.78-1.92c-2.08-2.66-5.17-3.67-8.1-4.94c-0.67-0.29-1.36-0.37-1.67,0.43c-0.3,0.79,0.34,1.04,0.92,1.47
		c1.96,1.46,3.71,3.23,6.38,3.31c0.21,0.35,0.33,0.86,0.64,1.02c9.35,4.89,18.94,7.89,29.4,3.47c1.47,0.37,1.7-1.41,2.91-1.69
		c0.67-0.16,0.41-1.45-0.27-1.35C82.96,218.46,80.47,217.11,78.94,219.58z M82.74,215.11c3.98-0.92,7.76-2.48,9.67-6.25
		c1.22-2.42,2.84-4.54,4.11-6.9c3.81-7.05,6.69-17.87,1.05-26.4c-1.29,4.78,1.18,9.05,0.16,13.81c-1.78,8.28-5.69,14.74-11.4,20.61
		c-1.8,1.85-4.79,2.15-5.83,4.82c-1.12-0.1-2.27-0.25-3.4,1.43C79.39,216.13,81.38,217.84,82.74,215.11z M304.32,153.18
		c-5.02-1.73-9.99-3.58-15.06-5.14c-5.28-1.62-10.67-2.84-15.95-4.45c-2.36-0.72-3.28-0.17-3.19,2.28c0.08,2.19,1.3,3.1,3.27,3.84
		c9.49,3.53,19.3,4.91,29.37,4.83c1.9,2.5,4.18,1.41,7.49,0.92C307.6,154.44,305.96,153.81,304.32,153.18z M100.62,172.4
		c0.18-1.83-1-3.13-1.7-4.65c-5.05-10.9-18.31-21.63-32.72-19.58c-2.22,0.68-4.44,1.36-6.65,2.03c0.07,0.33,0.14,0.66,0.2,0.99
		c2.16-0.32,4.61,1.39,6.37-1.66c1.35,0.02,2.71-0.02,4.05,0.09c0.83,0.07,2.08-0.58,2.36,0.76c0.24,1.14-0.23,2.08-1.57,2.36
		c-0.61,0.13-1.37,0.31-1.15,1.3c4.4,2.01,9.42,2.47,13.5,5.38c5.53,3.94,11.91,6.82,15.6,12.96c0.47,1.67,1.99,2.8,1.97,4.65
		c1.99-0.5,1.99-3.31,4.26-2.75c0.12,1.9-0.32,4.07,0.45,5.64c2.95,6.03,0.48,11.93-1.03,17.3c-2.77,9.86-8.9,18-17.38,24.02
		c-8.35,5.92-17.65,6.62-26.89,3.02c-6.47-2.52-12.73-5.87-17.96-10.57c-0.95,0.9,0.17,2.64-1.44,2.77c-1.5,0.12-1.8-1.43-2.26-2.39
		c-0.55-1.18-0.51-2.52-1.22-3.79c-5.29-9.3-7.2-18.99-4.37-29.69c0.82-3.1,2.53-6.17,2.22-9.59c2.04-2.36,4.06-4.73,4.18-8.08
		c-1.64,1.9-4.59,2.81-4.39,5.95c-0.39,0.12-0.97,0.12-1.14,0.38c-5.31,8.24-8.24,17.39-10.06,26.94c-0.15,0.8,0.29,1.56,0.78,2.43
		c2.12,3.68,4.49,7.16,6.94,10.63c10.29,14.57,24.66,21.68,42.02,23.33c5.86,0.56,11.53-0.65,17.04-2.92
		c7.42-3.06,14.09-6.91,17.39-14.7c1.55-3.67,3.47-7.12,5.32-10.63c1.61-3.05,2.81-6.42,3.87-9.83c1.82-5.86-0.37-11.17-0.64-16.7
		c-0.09-1.93-0.95-4.78-2.71-5c-2.5-0.31-2.95-1.67-3.76-3.35c-2.31-4.81-3.62-10.85-7.35-14.07c-6.07-5.25-12.68-10.84-21.68-10.88
		c-1.26-2.43-3.45-0.97-5.22-1.25c-1.04,0.01-2.08,0.02-3.12,0.03c-2.93-0.28-5.04,2.05-7.77,2.88c3.13,0,6.26,0,9.4,0
		c5.67,0.35,10.34,2.89,15.02,5.99c5.46,3.62,8.36,9.35,12.56,13.96c1.01,1.11,2.42,3.99,0.71,6.31
		C101.98,172.4,101.3,172.4,100.62,172.4z M304.27,203.52c0.18-1.65,0.61-3.34-0.46-5.01c-1.16,0.93-1.27,1.92-1.08,3
		c-2.17,0.35-2.44,2.6-3.7,3.86c-9.25,9.18-20.8,14.77-32.07,20.77c-2.34,1.24-3.21,2.68-3.27,5.15c-0.03,1.54,0.86,4.07-0.57,4.43
		c-2.1,0.53-1.14-2.43-2.23-3.5c-0.42-0.41-0.34-1.36-1.27-1.24c-0.91,0.11-0.9,0.84-0.93,1.51c-0.12,2.44-0.26,4.89-0.35,7.33
		c-0.03,0.88-0.72,1.97,0.39,2.59c1.09,0.61,1.55-0.55,2.3-1.01c7.5-4.63,14.11-10.66,22.2-14.37c6.52-2.98,12.78-6.4,18.47-10.76
		c2.93-2.25,6.01-4.68,3.03-9.14C304.12,206.22,304.4,204.73,304.27,203.52z M57.95,169.14c3.09-1.79,6.08-3.72,8.7-6.18
		c0.45-0.42,1.4-0.48,1.06-1.38c-0.39-1.04-1.49-0.83-2.05-0.52c-3.31,1.89-6.96,3.3-9.46,6.39c-1.89-0.1-3.58,1.32-4.47,2.22
		c-1.63,1.64-3.97-0.12-5.28,2.05c-2.3,3.81-4.64,7.43-4.85,12.13c-0.33,7.51,2.04,14.31,5.29,20.79c0.84,1.67,2.35,3.47,4.95,4.08
		c4.23,0.99,8.19,3.1,12.4,4.24c3.58,0.97,6.73,2.58,11.18,0.63c14.23-6.26,26.15-24.6,16.68-41.29
		c-3.89-6.84-9.71-10.75-17.65-11.27c-1.06-0.07-2.29-0.23-3.06,0.63c-4.24,4.78-9.81,7.84-14.77,11.69
		c-1.14,0.89-4.14,2.09-0.85,4.32c0.76,0.51-0.51,0.88-0.8,1.34c-0.98,1.56-2.89,1.74-4.19,2.87c-0.64,0.55-3.23,2.36-4.31,0.12
		c-0.74-1.53-0.29-3.39,1.5-4.73C51.41,174.7,54.64,171.86,57.95,169.14z M157.36,173.11c0.06-0.65,0.17-1.19,0.15-1.72
		c-0.06-2.05-0.17-5.32,1.8-5.19c3.72,0.24,5.59-2.3,8.23-3.65c3.53-1.8,6.84-3.75,8.82-7.63c1-1.96,2.9-4.88,5.06-4.69
		c3.26,0.28,5.75-0.94,7.9-2.53c5.78-4.28,12.53-5.47,19.25-6.22c12.79-1.42,24.73,1.46,35.35,8.96c1.2,0.85,2.39,1.08,3.18,0.29
		c0.66-0.66-0.29-1.68-0.96-2.4c-1.22-1.32-2.34-2.71-3.59-4.02c-5.75-6-13.6-8.44-20.53-12.4c-0.56-0.32-1.87-0.81-2.31,0.66
		c-0.72,2.41-2.14,0.85-2.42,0.06c-1.06-2.91-3.39-2.4-5.6-2.57c-6.55-0.51-12.96,0.92-19.36,1.77c-3.82,0.51-7.76,1.27-11.56,2.66
		c-3.56,1.3-6.92,3.66-10.88,3.61c-11.63-0.14-9.32,2.18-8.91,9.88c0.42,8.07-2.4,14.27-9.02,18.73c-1.19,0.8-1.62,1.75-0.58,2.4
		C153.38,170.35,154.45,173.04,157.36,173.11z M342.01,225.53c6.24-2.09,11.99-3.62,18.01-4.45c5.31-0.73,10.77-2.27,13.77-7.81
		c3.26-6.03,2.41-12.47,2.11-18.81c-0.08-1.7-2.09-1.02-2.6-0.05c-1.75,3.3-4.79,5.48-7.04,8.35c-4.82,6.13-12.03,8.8-19.45,10.41
		c-3.4,0.74-5.28,1.9-4.83,5.68C342.21,220.85,342.01,222.9,342.01,225.53z M38.06,182.26c-1.31,0.57-1.24,1.32-1.41,1.93
		c-0.21,0.77-0.18,1.66-0.57,2.32c-2.7,4.69,0.43,12.74,4.16,16.21c0.74,0.69,1.76,1.2,2.52,0.72c0.91-0.57,0.56-1.81,0.11-2.59
		c-1.84-3.25-2.57-6.72-3.25-10.38C39.15,187.87,39.15,185.02,38.06,182.26z M370.17,194.01c2.98-2.27,3.32-5.15,2.44-7.55
		c-1.44-3.92-3.06-7.98-7.6-9.79c-0.84-0.33-1.51-1.16-2.27-0.43c-0.71,0.69,0.2,1.64,0.54,2.09
		C366.74,182.91,369.21,187.91,370.17,194.01z M269,154.34c-0.01-0.47-0.03-0.95-0.04-1.42c-4.37,0-8.75-0.11-13.12,0.07
		c-1.29,0.05-3.73-1.24-3.67,1.59c0.05,2.32,1.69,3.63,4.04,3.29C260.61,157.22,264.97,156.31,269,154.34z M147.12,128.69
		c-0.02,0.01-1.69-0.87-2.32,0.88c-0.21,0.6-0.26,1.59,0.57,1.69c4.25,0.52,6.64,3.54,9.31,6.37c0.86,0.91,2.37,0.68,3.42-0.73
		c1.28-1.71-0.43-1.6-1.07-2.22c-1.47-1.41-2.8-2.99-4.38-4.28C151.41,129.39,150.3,127.8,147.12,128.69z M302.32,165.46
		c5.51,0,11.03,0,16.54,0c-3.07-1.4-6.03-2.59-8.93-4.01c-1.13-0.55-3.77-1.22-3.88,0.24C305.83,164.59,303.69,164.14,302.32,165.46
		z M302.06,160.62c-7.44-3.02-13.87-4.32-20.49,0C288.24,160.62,294.66,160.62,302.06,160.62z M43.31,145.95
		c6.22-0.17,9.43-6.28,16.03-6.35C53.68,136.53,45.09,140.26,43.31,145.95z M69.41,136.48c-1.59,0.12-3.71-0.56-5.45,1.56
		c-0.81,0.98-1.35,1.83-0.84,2.75c0.51,0.92,1.8,0.57,2.63,0.31c1.79-0.56,3.49-1.35,5.43-1.38c1.34-0.02,3.06-0.01,3.04-1.87
		c-0.03-2.24-2-1.05-3.12-1.35C70.73,136.4,70.3,136.48,69.41,136.48z M246.46,188.87c-1.52,2.24-0.55,4.64-1.96,6.79
		c-1.21,1.85-2.31,4-3.21,6.11c-0.67,1.58-3.7,3.19-1.9,4.52c1.94,1.42,3.06-1.86,3.84-3.13
		C247.02,196.94,248.95,193.51,246.46,188.87z M218.04,217.56c-0.02-0.39-0.03-0.78-0.05-1.17c-4.34,0-8.68-0.02-13.02,0.03
		c-0.52,0.01-1.34-0.78-1.59,0.35c-0.26,1.17,0.7,1.1,1.42,1.42C209.35,220.16,213.71,219.33,218.04,217.56z M184.88,197.64
		c-0.56-5.07-1.26-10.12-2.15-15.14C182.1,187.71,180.63,193.02,184.88,197.64z M334.81,228.49c1.09-3.53,0.65-7.12,0.66-10.69
		c0-0.74-0.2-1.37-1.11-1.24c-1.05,0.15-2.17,0.96-1.66,1.82C334.61,221.57,333.03,225.27,334.81,228.49z M339.09,226.18
		c0.34-0.03,0.67-0.06,1.01-0.09c0-2.91,0.03-5.83-0.02-8.74c-0.01-0.93-0.05-2.09-1.44-1.93c-1.48,0.17-1.8,1.71-1.31,2.45
		C339.03,220.43,338.36,223.46,339.09,226.18z M124.66,189.47c-1.92,2.2-3.57,4.37-2.93,7.24c0.17,0.78,0.17,1.61,1.32,1.65
		c1.28,0.05,1.61-0.68,1.62-1.75C124.67,194.23,124.66,191.85,124.66,189.47z M206.28,150.31c-3.71-1.5-6.61,0.21-9.49,1.35
		c-0.42,0.16-2.67,1.05-1.59,2.6c0.74,1.07,2.08,0.3,2.99-0.09C200.81,153.05,203.35,151.73,206.28,150.31z M67.78,153.64
		c-4.66-2.02-7.59,0.8-11.39,3.85C61.51,158.41,64.26,154.87,67.78,153.64z M43.57,154.95c-4.45-0.54-8.85,4.12-7.89,7.03
		C38.11,159.82,40.73,157.48,43.57,154.95z M254.1,245.94c0.3-0.01,0.6-0.01,0.9-0.02c0-4.27,0-8.54,0-12.8
		c-0.3,0.01-0.6,0.02-0.9,0.03C254.1,237.41,254.1,241.67,254.1,245.94z M259.33,148.09c2.07-1.67,2.88-3.49,2.65-5.74
		c-0.13-1.3-1.32-1.91-2.16-2.04c-1.36-0.22-1.11,1.27-1.13,2.05C258.67,144.16,258.16,146.04,259.33,148.09z M248.66,250.72
		c0.73,0,1.46,0.01,2.2,0.01c0-3.93,0.01-7.85-0.01-11.78c0-0.65-0.07-1.43-0.97-1.47c-1.16-0.06-1.19,0.89-1.2,1.67
		C248.64,243.01,248.66,246.86,248.66,250.72z M242.52,177.71c0,1.89-0.05,3.78,0.03,5.67c0.03,0.73-0.03,1.74,1.14,1.74
		c0.91,0,0.75-0.9,1.04-1.45C245.95,181.25,243.88,179.66,242.52,177.71z M121.31,204.96c-1.89,1.01-1.6,2.77-2.7,3.84
		c-0.66,0.63-1.84,3.27-0.65,3.96c2.43,1.41,1.91-1.68,2.81-2.66C122.01,208.72,121.95,207.02,121.31,204.96z M55.22,232.18
		c2.67-0.54,4.22,3.94,7.8,1.22C60.11,233.01,58.22,230.51,55.22,232.18z M254.72,147.07c0.9-2.24,1.58-3.75,2.1-5.32
		c0.25-0.75,0.25-1.63-0.92-1.77c-1-0.12-1.95-0.13-1.94,1.26C253.97,142.9,253.57,144.61,254.72,147.07z M323.97,223.38
		c0.09-2.12-1.04-3.26-2.41-3.44c-1.05-0.14-2.18,1.31-2.18,2.3c-0.01,1.47,0.88,2.8,2.73,2.82
		C323.48,225.07,324.01,224.28,323.97,223.38z M281.73,155.61c-3.85-2.83-5.3,1.05-7.8,1.35
		C276.77,158.23,278.87,156.44,281.73,155.61z M285.09,193.62c-0.48,0.89-0.45,1.67,1.23,1.72c1.35,0.04,2.78-0.41,2.48-1.8
		c-0.29-1.34-0.77-3.39-2.86-3.23C282.7,190.58,286.21,192.44,285.09,193.62z M58.03,153.39c-3.4-1.07-5.1,0.12-6.15,2.75
		C53.71,155.33,55.53,154.51,58.03,153.39z M267.17,143.57c-0.41-0.52,0.34-2.16-1.36-2.08c-2.53,0.12-0.87,2.63-1.91,3.77
		c-0.56,0.61,0.09,1.46,1.17,1.38C266.83,146.52,267.16,145.32,267.17,143.57z M201.36,127.38c3.52,1.73,5.06,0.19,6.64-1.75
		C205.13,124.2,204.16,127.24,201.36,127.38z M329.8,273.1c-0.03-0.34-0.06-0.68-0.09-1.02c-2.2,0.13-4.39,0.25-6.59,0.38
		C325.4,273.44,327.61,273.59,329.8,273.1z M330.97,246.6c1.34-2.15,0.71-4.2,0-6.26C330.97,242.43,330.97,244.52,330.97,246.6z
		 M288.02,188.75c0.6,0,1.2-0.01,1.81-0.01c0-2.33,0.02-4.67-0.01-7c-0.01-0.62,0.03-1.4-0.95-1.4c-0.74,0-0.83,0.59-0.83,1.1
		C288,183.87,288.02,186.31,288.02,188.75z M64.96,134.61c0.6-0.67,1.25-1.39,1.91-2.12c-0.3-0.2-0.57-0.5-0.9-0.58
		c-1.7-0.45-1.17,1.41-1.95,2C63.63,134.2,64.41,134.31,64.96,134.61z M119.12,174.06c-0.96,2.38-0.73,4.01,0.12,5.61
		C119.86,178.03,120.22,176.41,119.12,174.06z M290.67,199.21c1.29,0.5,2.53,1.4,3.63,0.2c0.24-0.26-0.06-1.01-0.11-1.53
		C293.02,198.33,291.85,198.77,290.67,199.21z M39.5,207.28c1.5,2.24,1.5,2.24,3.64,1.82C41.54,209.17,41.65,206.25,39.5,207.28z
		 M326.37,221.44c-1.22,2.54,0.64,3.43,1.78,4.93C330.03,223.47,327.5,222.89,326.37,221.44z M167.72,181.37
		c-0.16-0.41-0.44-0.76-1.04-0.73c-0.66,0.03-0.86,0.45-0.84,1.02c0.02,0.5,0.06,1.08,0.73,1.1
		C167.39,182.79,167.59,182.17,167.72,181.37z"/>
	<path style="fill:#B6B7BB;" d="M88.77,249c-0.14-1.21-2.87-3.06,0.85-3.31c1.12-0.07,1.07-1.05,1.1-1.83
		c0.05-1.16-0.85-1.18-1.66-1.23c-2.12-0.11-4.23-0.19-6.35-0.61c3.32-1.59,6.74-0.76,10.13-0.45
		C94.09,246.58,93.38,247.88,88.77,249z"/>
	<path style="fill:#B6B7BB;" d="M199.98,236.12c2.33-2.37,5.33-1.23,8.04-1.46c2.5-0.22,5.03-0.05,7.71-0.05
		c-0.42,1.65-1.41,1.19-2.06,1.23c-4.61,0.22-9.33-0.34-13.64,1.96C200.01,237.24,199.99,236.68,199.98,236.12z"/>
	<path style="fill:#B6B7BB;" d="M247.3,134.91c-2.74-0.04-5.48-0.07-8.22-0.11C241.55,132.09,245.27,132.14,247.3,134.91z"/>
	<path style="fill:#B6B7BB;" d="M239.04,134.84c-0.29,1.44,0.36,2.02,1.75,1.83c1.92-0.27,1.44,1.53,2.09,2.36
		c0.37,0.47-0.05,0.76-0.37,0.86c-1.07,0.3-1.65-0.22-2.21-1.16c-0.62-1.04-2.83-0.3-2.77-2.3
		C237.37,135.26,237.87,134.73,239.04,134.84z"/>
	<path style="fill:#B6B7BB;" d="M271.83,183.8c1.74,0.27,3.48,0.55,5.22,0.82c0,0,0.1-0.05,0.1-0.05c0.26,0.6,0.86,1.32,0.7,1.77
		c-0.33,0.97-1.69,0.79-2.03,0.42c-1.16-1.29-2.66-1.1-4.07-1.37C271.78,184.86,271.8,184.33,271.83,183.8z"/>
	<path style="fill:#F1F2F5;" d="M296.19,255.45c-7.02,0.1-14.04,0.2-21.06,0.3c-2.81,0.22-5.94-1.5-8.32,1.36
		c-4.75,0.18-9.51,0.4-14.27,0.51c-1.14,0.03-2.71,0.59-3.34-0.67c-0.78-1.56,0.86-2.5,1.74-3.33c5.56-5.23,11.52-9.96,17.71-14.48
		c9.56-6.97,20.49-11.43,30.43-17.65c5.76-3.6,11.26-7.52,8.45-15.66c-1.73-5.02-0.13-9.88,0.08-14.81
		c0.05-1.21,0.77-3.08-1.85-2.22c-1.56,0.51-2.36-0.91-2.81-1.83c-3.25-6.66-10.02-8.36-15.88-11.07
		c-6.73-3.1-13.81-5.44-20.77-8.02c-1.11-0.41-2.49-0.12-3.59-0.55c-1.41-0.55-3.68,0.24-3.94-2.43c-0.13-1.29-0.44-2.58,0.91-3.19
		c1.84-0.83,4.24-1.59,5.62,0.06c2.29,2.74,5.05,2.42,7.96,2.37c4.49-0.08,8.97-0.08,13.46-0.05c2.16,0.01,4.56-0.68,5.58,2.4
		c0.43,1.3,2.09,1.21,3.27,1.09c6.38-0.64,12.65,1.79,19.05,0.64c1.23-0.22,2.38,0.25,3.36,1.13c2.51,2.24,3.83,0.38,4.16-1.72
		c0.28-1.82,1.01-1.49,2.12-1.31c9.09,1.46,17.1,5.38,24.81,10.3c2.06,1.31,3.89,2.88,5.87,4.25c1.03,0.72,1.68,1.4,2.64,0.31
		c1.1-1.25-0.04-1.54-0.89-2.33c-5.31-4.86-11.9-7.65-17.92-11.35c-0.02-0.54-0.03-1.07-0.04-1.61c9.95,1.27,17.04,7.06,22.87,14.67
		c3.09,4.04,5.35,8.43,5.06,13.82c-0.1,1.8-0.58,3.52-2.06,4.01c-3.31,1.09-5,4.71-8.61,5.15c-0.68,0.08-1.01,0.57-0.87,1.09
		c1,3.59-1.78,3.72-3.96,4.43c-5.05,1.65-10.09,3.16-15.34,4.22c-5.72,1.15-11.29,3.2-16.81,5.17c-1.92,0.68-2.95,2.57-2.96,4.83
		c-0.02,5.15-0.12,10.31-0.24,15.46c-0.03,1.31,0.19,2.06,1.61,2.72c4.04,1.86,6.91,5.23,10.16,8.61
		c-5.48,2.19-11.13,2.71-16.58,3.99c-4.11,0-8.22-0.01-12.33,0.01C297.59,254.07,296.46,253.99,296.19,255.45z"/>
	<path style="fill:#F1F2F5;" d="M213.01,196.9c-2.04,3.86-6.38,5.76-8.3,9.74c-0.27,0.57-1.15,0.98-1.21,1.51
		c-0.56,5.74-3.28,3.58-6.24,1.93c-6.56-3.66-9.95-9.14-10.33-16.61c-0.17-3.46,0.28-6.92-1.27-10.33c-0.8-1.76-1.04-4.53,2.66-4.16
		c1.33,0.13,1.59-0.56,1.69-1.98c0.54-7.55,4.92-12.13,11.07-16.43c5.67-3.97,11.27-4.38,17.58-4.57c4.71-0.15,7.68,1.43,10.89,4.8
		c7,7.37,10.32,16.07,11.23,25.87c0.19,2.02,1.6,4.78-2.7,5.81c-1.46,0.35-3.83,4.25-4.97,6.83c-2.49,5.63-7.61,7.77-12.38,10.41
		c-1.03,0.57-1.53,0.85-1.2,1.97c-0.01,0.47-0.02,0.94-0.03,1.41c-4.29,1.79-8.49,2.47-13.02,0.34c-1.96-0.92-1.7-1.95-1.04-3.07
		c3.2-5.45,7.59-9.81,12.66-13.56c3.07-2.27,6.02-4.71,8.95-7.16c0.43-0.36,0.68-1.24,0.6-1.82c-0.17-1.19-1.24-0.79-1.95-0.7
		c-4.15,0.53-7.33,3.27-10.98,4.94c-0.99-0.11-1.69-0.52-1.68-1.65c4.36-4.65,9.79-8.17,13.91-13.09c0.84-1,1.06-2.11,0.49-2.83
		c-0.72-0.92-1.89-0.42-2.83,0.24c-4.62,3.25-9.27,6.41-13.46,10.27c-2.89,2.67-6.41,4.67-9.75,6.81c-0.73,0.47-2.31,0.69-2.77,0.25
		c-0.76-0.72,0.46-1.45,0.81-2.2c1.18-2.56,3.29-4.2,5.11-6.18c4.04-4.38,9.12-7.54,13.34-11.69c0.9-0.88,2.58-2.16,1.35-3.67
		c-1.12-1.38-2.33-0.36-3.73,0.4c-3.89,2.1-6.87,5.44-10.71,7.51c-2.53,1.36-4.36,4.33-8.9,4.34c3.98-3.32,6.7-6.18,9.8-8.7
		c2.76-2.25,5.99-4.13,7.98-7.46c0.72-1.19,1.3-2.32,0.59-3.01c-1-0.98-1.93,0.33-2.6,1.09c-2.85,3.21-6.26,5.79-9.41,8.66
		c-3.73,3.41-7.85,6.52-10.62,10.92c-0.72,1.15-1.95,1.98-0.61,3.35c1.06,1.09,2.17,2.06,3.7,0.57c0.35-0.33,1.01-0.32,1.49-0.53
		c0.66-0.29,1.35-1.3,1.99-0.2c0.39,0.65,0.35,1.48-0.55,2.08c-0.49,0.32-0.78,1.03-1.03,1.62c-0.93,2.18-4.24,4.06-1.41,6.81
		c2.79,2.71,4.57-0.64,6.77-1.52c1.2-0.48,2.86-1.91,2.93,1.15c0.05,2.14,1.46,2.55,3.38,1.92c1.54-0.51,3.15-0.73,4.78-0.35
		L213.01,196.9z"/>
	<path style="fill:#F1F2F5;" d="M57.95,169.14c-3.31,2.72-6.53,5.56-9.96,8.13c-1.79,1.34-2.24,3.2-1.5,4.73
		c1.08,2.24,3.67,0.43,4.31-0.12c1.31-1.13,3.21-1.31,4.19-2.87c0.29-0.46,1.56-0.83,0.8-1.34c-3.29-2.23-0.29-3.43,0.85-4.32
		c4.96-3.84,10.53-6.91,14.77-11.69c0.77-0.86,2-0.7,3.06-0.63c7.94,0.52,13.76,4.43,17.65,11.27c9.48,16.69-2.45,35.03-16.68,41.29
		c-4.45,1.96-7.6,0.34-11.18-0.63c-4.21-1.14-8.17-3.25-12.4-4.24c-2.6-0.61-4.11-2.41-4.95-4.08c-3.25-6.48-5.63-13.28-5.29-20.79
		c0.21-4.7,2.55-8.32,4.85-12.13c1.31-2.17,3.65-0.41,5.28-2.05c0.9-0.9,2.58-2.32,4.47-2.22
		C57.25,167.54,58.01,167.91,57.95,169.14z M69.37,198.51c-2.65,2.55-5.26,5.1-7.21,8.28c-0.73,1.18-1.24,2.14,0.26,2.88
		c1.27,0.62,1.85-0.01,2.18-1.38c0.54-2.22,2.41-3.55,3.98-5.06c3.94-3.77,7.96-7.46,11.7-11.42c0.52-0.55,2.61-1.44,1.22-2.99
		c-0.48-0.54-0.35-1.83-1.5-1.61c-1.66,0.33-2.45,1.48-2.53,3.15c-1.24,0.14-2.27-0.13-3.4-0.84c-1.5-0.94-1.29,0.58-1.43,1.42
		c-1.77,0.34-3.27,1.25-4.71,2.27c-0.72,0.51-1.66,0.7-2.21,0.04c-0.8-0.97,0.41-2.07,0.79-2.33c4.65-3.14,8.77-6.95,13.3-10.2
		c1.03-0.74,2.32-0.8,1.54-2.32c-0.91-1.77-2.07-1.09-3.26-0.09c-5.81,4.92-12.16,9.18-17.33,14.9c-1.53,1.69-2.22,3.21-1.07,4.67
		c1.11,1.4,3.37,1.16,4.61-0.09c1.08-1.09,2.22-0.66,3.3-0.99C68.6,196.95,69.4,197.3,69.37,198.51z M75.41,167.69
		c-2.99,1.96-5.05,4.55-7.64,6.58c-5.14,4.02-9.89,8.56-14.58,13.11c-0.81,0.78-2.32,2.25-1.25,3.84c0.96,1.44,2.6,1.12,4.08,0.87
		c0.51-0.09,1.01-0.31,1.93-0.61c-3.25-2.17-1.63-3.86,0.29-5.52c5.16-4.46,10.34-8.87,15.44-13.4
		C74.97,171.41,76.7,170.21,75.41,167.69z"/>
	<path style="fill:#F1F2F5;" d="M203.31,144.88c6.07-0.74,12.15-1.25,18.24-0.3c15.13,2.34,26.8,9.58,34.14,23.42
		c1.99,3.77,2.92,7.82,4.06,11.75c0.68,2.37-1.03,5.38-0.99,8.23c0.28,17.44-10.28,27.54-24.38,34.62
		c-7.35,3.69-15.64,5.79-23.94,5.04c-13.92-1.27-26.87-5.12-35.32-17.66c-4.73-7.02-6.63-14.32-5.07-23.03
		c1.32-7.38,3.67-14.15,7.05-20.65c2.79-5.36,6.39-10.14,11.25-13.93c0.81-0.63,1.16-1.6,2.03-0.46c0.49,0.64,1.6,1.01,0.35,2.54
		c-5.63,6.94-9.35,15.07-11.59,23.58c-3.66,13.94-0.5,29.68,12.75,39.31c2.89,2.1,6.4,3.57,9.66,3.84
		c7.13,0.59,14.42,2.1,21.52,0.17c7.61-2.07,13.94-6.59,18.94-12.56c3.24-3.86,6.61-7.84,8.56-12.58
		c4.29-10.43,2.32-19.9-5.14-28.19c-5.33-5.93-10.32-12.21-17.73-15.97c-4.22-2.14-8.81-2.98-13.2-3.81
		c-3.69-0.7-7.36-2.23-11.24-1.99C203.29,145.79,203.3,145.33,203.31,144.88z"/>
	<path style="fill:#F1F2F5;" d="M338.59,244.31c0.01,5.16,0.28,10.33-0.06,15.46c-0.22,3.23-0.82,6.97-5.73,6.09
		c-3-0.54-3.79,2.68-6.32,3.49c-4.69,1.5-9.51,1.3-14.21,2.31c-14.93,3.23-30.2,3.52-45.45,4.06c-5.4,0.19-10.85,1.2-16.34,1.22
		c-3.47,0.01-6.26-1.4-8.82-3.46c-2.75-2.21-3.52-5.86-2.19-8.26c0.87-1.56,2.46-4.95,5.17-4.66c11.31,1.21,22.32-2.49,33.57-1.71
		c7.53,0.02,15.05,0.05,22.58,0.06c0.99,0,1.91-0.14,2.1-1.37c1.65-0.05,3.3-0.1,4.95-0.15c2.73-0.32,5.86,1.37,8.08-1.59
		c5.5,0.29,10.24-2.72,15.4-3.91c2.24-0.52,5.62-3.72,5.95-7.57C337.71,244.32,338.15,244.32,338.59,244.31z"/>
	<path style="fill:#F1F2F5;" d="M81.08,144.49c9,0.04,15.61,5.64,21.68,10.88c3.72,3.22,5.03,9.25,7.35,14.07
		c0.81,1.68,1.27,3.04,3.76,3.35c1.76,0.22,2.61,3.08,2.71,5c0.27,5.54,2.46,10.85,0.64,16.7c-1.06,3.41-2.26,6.78-3.87,9.83
		c-1.85,3.51-3.77,6.96-5.32,10.63c-3.3,7.8-9.96,11.64-17.39,14.7c-5.51,2.27-11.18,3.47-17.04,2.92
		c-17.36-1.65-31.73-8.76-42.02-23.33c-2.45-3.47-4.82-6.95-6.94-10.63c-0.5-0.86-0.94-1.63-0.78-2.43
		c1.81-9.55,4.74-18.7,10.06-26.94c0.17-0.26,0.75-0.26,1.14-0.38c0.07,0.71,0.14,1.42,0.21,2.12c0.32,3.42-1.4,6.49-2.22,9.59
		c-2.83,10.7-0.92,20.39,4.37,29.69c0.72,1.26,0.67,2.61,1.22,3.79c0.46,0.96,0.76,2.52,2.26,2.39c1.61-0.13,0.49-1.87,1.44-2.77
		c5.23,4.7,11.49,8.05,17.96,10.57c9.23,3.59,18.53,2.9,26.89-3.02c8.49-6.02,14.61-14.17,17.38-24.02
		c1.51-5.37,3.98-11.28,1.03-17.3c-0.77-1.58-0.33-3.75-0.45-5.64c0.36-2.2-1.15-1.92-2.49-1.88c1.7-2.31,0.3-5.2-0.71-6.31
		c-4.21-4.62-7.11-10.34-12.56-13.96c-4.67-3.1-9.35-5.64-15.02-5.99c0.19-1.38-1.69-1.58-1.63-2.88c1.04-0.01,2.08-0.02,3.12-0.03
		C77.1,145.73,79.23,144.5,81.08,144.49z"/>
	<path style="fill:#F1F2F5;" d="M152.65,154.49c-3.27,5.58-6.85,10.92-13.2,13.38c-5.87,2.27-10.01,6.53-13.94,11.73
		c-4.73-8.59-6.84-17.95-10.84-26.59c-1.67,0.9-0.82,2.46-1.71,3.44c-0.28-0.11-0.79-0.13-0.94-0.38c-2.78-4.47-4.36-9.65-8.3-13.46
		c-3.49-3.38-7.31-5.51-12.25-6.26c-4.11-0.63-8.14-1.69-12.34-1.61c-0.88,0.02-1.7-0.17-1.62-1.28c0.1-1.39-0.51-2.76,0.91-4.11
		c3.47-3.28,12-3.66,15.3-0.19c1.68,1.77,2.8,2.8,4.5,0.13c1.29-2.01,3.34-1.21,4.66-0.29c2.04,1.41,4.39,2.22,6.27,4.01
		c6.21,5.9,12.76,3.69,19.93,1.31c7.65-2.54,17.07-2.81,22.23,3.46c1.36,1.65,1.94,3.53,2.97,5.25c-0.34,1.13,0.66,2.87-1.44,3.21
		c-1.67-3.35-5.35-3.47-8.02-5.17c-3.66-2.33-5.5-0.67-7,1.98c-1.69,3-4.93,5.92-1.62,9.91c3.21,3.87,8.41,4.48,14.79,1.49
		C151.54,154.48,152.09,154.49,152.65,154.49z"/>
	<path style="fill:#F1F2F5;" d="M157.36,173.11c-2.9-0.07-3.98-2.76-5.98-4c-1.05-0.65-0.62-1.59,0.58-2.4
		c6.62-4.46,9.44-10.66,9.02-18.73c-0.4-7.71-2.72-10.02,8.91-9.88c3.95,0.05,7.31-2.31,10.88-3.61c3.8-1.39,7.74-2.15,11.56-2.66
		c6.4-0.85,12.81-2.27,19.36-1.77c2.2,0.17,4.54-0.34,5.6,2.57c0.29,0.79,1.7,2.35,2.42-0.06c0.44-1.47,1.76-0.98,2.31-0.66
		c6.94,3.96,14.78,6.4,20.53,12.4c1.25,1.31,2.38,2.7,3.59,4.02c0.67,0.72,1.62,1.74,0.96,2.4c-0.79,0.79-1.98,0.56-3.18-0.29
		c-10.61-7.5-22.56-10.38-35.35-8.96c-6.71,0.75-13.47,1.94-19.25,6.22c-2.16,1.6-4.64,2.82-7.9,2.53
		c-2.16-0.19-4.06,2.73-5.06,4.69c-1.98,3.88-5.29,5.83-8.82,7.63c-2.63,1.35-4.51,3.89-8.23,3.65c-1.98-0.13-1.87,3.14-1.8,5.19
		C157.52,171.92,157.42,172.45,157.36,173.11z"/>
	<path style="fill:#F1F2F5;" d="M304.27,203.52c0.13,1.21-0.15,2.7,0.45,3.6c2.98,4.46-0.1,6.9-3.03,9.14
		c-5.68,4.36-11.95,7.78-18.47,10.76c-8.09,3.7-14.7,9.74-22.2,14.37c-0.75,0.46-1.21,1.63-2.3,1.01c-1.1-0.62-0.42-1.7-0.39-2.59
		c0.09-2.44,0.23-4.89,0.35-7.33c0.03-0.67,0.03-1.4,0.93-1.51c0.94-0.12,0.85,0.83,1.27,1.24c1.09,1.06,0.13,4.03,2.23,3.5
		c1.43-0.36,0.54-2.89,0.57-4.43c0.06-2.47,0.93-3.9,3.27-5.15c11.27-6,22.81-11.58,32.07-20.77c1.27-1.26,1.53-3.51,3.7-3.86
		C302.78,202.53,303.12,203.33,304.27,203.52z"/>
	<path style="fill:#F1F2F5;" d="M342.01,225.53c0-2.64,0.2-4.69-0.04-6.69c-0.45-3.77,1.43-4.94,4.83-5.68
		c7.42-1.61,14.64-4.28,19.45-10.41c2.25-2.87,5.29-5.04,7.04-8.35c0.51-0.97,2.52-1.65,2.6,0.05c0.31,6.34,1.15,12.78-2.11,18.81
		c-2.99,5.54-8.46,7.08-13.77,7.81C354,221.92,348.25,223.45,342.01,225.53z"/>
	<path style="fill:#F1F2F5;" d="M66.21,148.17c14.41-2.06,27.66,8.67,32.72,19.58c0.7,1.52,1.88,2.82,1.7,4.65
		c-0.57-0.01-1.14-0.01-1.7-0.02c-3.69-6.14-10.07-9.02-15.6-12.96c-4.08-2.91-9.1-3.37-13.5-5.38c-0.22-0.99,0.53-1.17,1.15-1.3
		c1.34-0.29,1.82-1.22,1.57-2.36c-0.29-1.34-1.53-0.69-2.36-0.76c-1.34-0.11-2.7-0.07-4.05-0.09
		C66.15,149.08,66.18,148.63,66.21,148.17z"/>
	<path style="fill:#F1F2F5;" d="M302.75,154.53c-10.07,0.08-19.88-1.3-29.37-4.83c-1.97-0.73-3.19-1.65-3.27-3.84
		c-0.09-2.45,0.83-3,3.19-2.28c5.28,1.6,10.68,2.83,15.95,4.45c5.07,1.56,10.05,3.41,15.06,5.14
		C304.13,154.01,303.35,154.16,302.75,154.53z"/>
	<path style="fill:#F1F2F5;" d="M277.14,184.58c0,0-0.1,0.05-0.1,0.05c-0.03-2.85-2.91-3.02-4.39-3.72c-3.86-1.82-6.11-5.61-10-7.32
		c-0.95-0.42-1.19-2.43-1.95-4.15c6.04,1.22,11.12,3.79,16.44,5.6c0.63,0.21,1.23,0.53,1.87,0.71c3.6,1,4.87,4.95,2.48,7.86
		C280.34,185,278.26,182.72,277.14,184.58z"/>
	<path style="fill:#F1F2F5;" d="M80.5,214.81c1.04-2.67,4.03-2.98,5.83-4.82c5.7-5.86,9.62-12.32,11.4-20.61
		c1.02-4.76-1.45-9.04-0.16-13.81c5.64,8.53,2.76,19.34-1.05,26.4c-1.27,2.36-2.89,4.48-4.11,6.9c-1.91,3.77-5.68,5.33-9.67,6.25
		C81.99,215.01,81.25,214.91,80.5,214.81z"/>
	<path style="fill:#F1F2F5;" d="M54.8,216.44c5.69,2.82,11.84,1.35,17.78,1.92c0.58,2.21,2.18,1.44,3.58,1.23
		c0.93,0,1.85,0,2.78-0.01c1.06,0.7,3.01-0.45,3.42,1.62c-10.46,4.42-20.04,1.43-29.4-3.47c-0.31-0.16-0.43-0.67-0.63-1.02
		C53.16,216.62,53.98,216.53,54.8,216.44z"/>
	<path style="fill:#F1F2F5;" d="M320.68,227.98c1.86,1.13,3.65,2.38,5.59,3.35c1.41,0.7,0.98,1.85,0.87,2.76
		c-0.18,1.43-0.59,2.89-1.19,4.2c-0.64,1.4,0.78,4.62-1.47,4.03c-2.27-0.59-5.67-1.8-5.65-5.48c0.01-2.97,0.18-5.93,0.27-8.9
		C319.62,227.96,320.15,227.97,320.68,227.98z"/>
	<path style="fill:#B6B7BB;" d="M38.06,182.26c1.09,2.76,1.09,5.6,1.57,8.22c0.68,3.66,1.4,7.14,3.25,10.38
		c0.45,0.78,0.8,2.02-0.11,2.59c-0.76,0.48-1.78-0.03-2.52-0.72c-3.72-3.47-6.86-11.52-4.16-16.21c0.38-0.66,0.35-1.55,0.57-2.32
		C36.82,183.59,36.75,182.83,38.06,182.26z"/>
	<path style="fill:#F1F2F5;" d="M370.17,194.01c-0.96-6.1-3.44-11.1-6.88-15.68c-0.34-0.45-1.25-1.41-0.54-2.09
		c0.76-0.73,1.43,0.1,2.27,0.43c4.54,1.81,6.15,5.87,7.6,9.79C373.5,188.86,373.15,191.74,370.17,194.01z"/>
	<path style="fill:#B6B7BB;" d="M269,154.34c-4.03,1.97-8.39,2.89-12.8,3.52c-2.34,0.34-3.99-0.97-4.04-3.29
		c-0.06-2.83,2.38-1.53,3.67-1.59c4.37-0.17,8.75-0.07,13.12-0.07C268.98,153.39,268.99,153.86,269,154.34z"/>
	<path style="fill:#F1F2F5;" d="M341.04,261.55c1.11-6.21,0.68-12.51,0.86-18.99c4.91,3.28,5.1,15.96,0.65,20.19
		C342.05,262.35,341.55,261.95,341.04,261.55z"/>
	<path style="fill:#F1F2F5;" d="M147.12,128.69c3.19-0.9,4.29,0.69,5.54,1.72c1.57,1.29,2.9,2.87,4.38,4.28
		c0.64,0.62,2.35,0.51,1.07,2.22c-1.05,1.41-2.57,1.64-3.42,0.73c-2.67-2.83-5.07-5.85-9.31-6.37c-0.82-0.1-0.78-1.09-0.57-1.69
		C145.42,127.83,147.1,128.7,147.12,128.69z"/>
	<path style="fill:#F1F2F5;" d="M22,182.16c-0.1-5,2.5-8.96,5.03-12.95c1.23-0.1,1.4,0.82,1.62,1.68
		c-0.24,4.03-2.92,7.16-4.11,10.87c-0.38,1.18-0.64,2.46-1.09,3.65C21.65,184.91,22.5,183.23,22,182.16z"/>
	<path style="fill:#F1F2F5;" d="M302.32,165.46c1.36-1.32,3.51-0.87,3.73-3.77c0.11-1.46,2.75-0.79,3.88-0.24
		c2.9,1.42,5.87,2.61,8.93,4.01C313.35,165.46,307.84,165.46,302.32,165.46z"/>
	<path style="fill:#F1F2F5;" d="M302.06,160.62c-7.4,0-13.81,0-20.49,0C288.19,156.31,294.62,157.6,302.06,160.62z"/>
	<path style="fill:#B6B7BB;" d="M43.31,145.95c1.78-5.69,10.37-9.42,16.03-6.35C52.75,139.67,49.53,145.78,43.31,145.95z"/>
	<path style="fill:#B6B7BB;" d="M69.41,136.48c0.88,0,1.32-0.09,1.7,0.02c1.12,0.3,3.09-0.89,3.12,1.35
		c0.02,1.86-1.71,1.85-3.04,1.87c-1.94,0.03-3.64,0.82-5.43,1.38c-0.83,0.26-2.12,0.61-2.63-0.31c-0.5-0.92,0.04-1.77,0.84-2.75
		C65.71,135.92,67.82,136.6,69.41,136.48z"/>
	<path style="fill:#F1F2F5;" d="M314.22,159.54c5.83-0.94,10.95,1.68,16.26,3.29c0.01,0.54,0.03,1.08,0.04,1.63
		c-5.72,0.16-10.87-2.16-16.2-3.67C314.29,160.37,314.26,159.95,314.22,159.54z"/>
	<path style="fill:#B6B7BB;" d="M302.89,257.55c-0.2,1.23-1.11,1.38-2.1,1.37c-7.53-0.02-15.05-0.04-22.58-0.06
		c0.62-1.13,1.69-1.18,2.8-1.18C288.3,257.64,295.6,257.59,302.89,257.55z"/>
	<path style="fill:#B6B7BB;" d="M246.46,188.87c2.49,4.65,0.56,8.07-3.22,14.29c-0.77,1.27-1.9,4.55-3.84,3.13
		c-1.81-1.33,1.23-2.94,1.9-4.52c0.9-2.11,2-4.26,3.21-6.11C245.91,193.51,244.94,191.11,246.46,188.87z"/>
	<path style="fill:#F1F2F5;" d="M101.96,148.35c-3.92-2.82-7.84-5.64-11.75-8.46c0.72-0.06,1.45-0.13,2.17-0.19
		c5.22,0.48,8.94,3.01,9.68,6.6C102.03,146.98,101.99,147.66,101.96,148.35z"/>
	<path style="fill:#B6B7BB;" d="M315.92,255.81c-2.22,2.96-5.34,1.27-8.08,1.59c1.14-2.42-0.84-1.9-1.94-1.93
		c-3.23-0.08-6.47-0.03-9.71-0.03c0.26-1.45,1.4-1.38,2.46-1.38c4.11-0.01,8.22-0.01,12.33-0.01c-0.8,1.22-0.16,1.71,0.98,1.78
		C313.28,255.91,314.6,255.83,315.92,255.81z"/>
	<path style="fill:#B6B7BB;" d="M218.04,217.56c-4.33,1.77-8.7,2.6-13.23,0.61c-0.72-0.32-1.69-0.25-1.42-1.42
		c0.25-1.12,1.07-0.34,1.59-0.35c4.34-0.05,8.68-0.03,13.02-0.03C218.01,216.78,218.03,217.17,218.04,217.56z"/>
	<path style="fill:#B6B7BB;" d="M57.95,169.14c0.06-1.23-0.7-1.6-1.74-1.69c2.5-3.09,6.15-4.5,9.46-6.39
		c0.56-0.32,1.66-0.53,2.05,0.52c0.34,0.9-0.61,0.96-1.06,1.38C64.03,165.42,61.04,167.35,57.95,169.14z"/>
	<path style="fill:#B6B7BB;" d="M184.88,197.64c-4.25-4.62-2.78-9.93-2.15-15.14C183.62,187.52,184.32,192.57,184.88,197.64z"/>
	<path style="fill:#F1F2F5;" d="M334.81,228.49c-1.78-3.22-0.2-6.92-2.11-10.11c-0.51-0.85,0.62-1.67,1.66-1.82
		c0.91-0.13,1.11,0.5,1.11,1.24C335.46,221.37,335.9,224.96,334.81,228.49z"/>
	<path style="fill:#B6B7BB;" d="M339.09,226.18c-0.73-2.72-0.06-5.76-1.76-8.31c-0.49-0.74-0.17-2.28,1.31-2.45
		c1.39-0.16,1.43,1,1.44,1.93c0.04,2.91,0.02,5.83,0.02,8.74C339.76,226.13,339.42,226.15,339.09,226.18z"/>
	<path style="fill:#B6B7BB;" d="M124.66,189.47c0,2.38,0,4.76,0,7.14c0,1.07-0.34,1.8-1.62,1.75c-1.14-0.04-1.14-0.87-1.32-1.65
		C121.1,193.85,122.74,191.67,124.66,189.47z"/>
	<path style="fill:#B6B7BB;" d="M206.28,150.31c-2.93,1.42-5.47,2.73-8.09,3.86c-0.91,0.4-2.25,1.16-2.99,0.09
		c-1.08-1.56,1.17-2.44,1.59-2.6C199.67,150.53,202.57,148.82,206.28,150.31z"/>
	<path style="fill:#B6B7BB;" d="M67.78,153.64c-3.52,1.23-6.27,4.77-11.39,3.85C60.18,154.44,63.12,151.62,67.78,153.64z"/>
	<path style="fill:#B6B7BB;" d="M43.57,154.95c-2.84,2.53-5.46,4.86-7.89,7.03C34.72,159.08,39.12,154.41,43.57,154.95z"/>
	<path style="fill:#B6B7BB;" d="M254.1,245.94c0-4.26,0-8.53,0-12.79c0.3-0.01,0.6-0.02,0.9-0.03c0,4.27,0,8.54,0,12.8
		C254.71,245.92,254.41,245.93,254.1,245.94z"/>
	<path style="fill:#B6B7BB;" d="M259.33,148.09c-1.18-2.05-0.66-3.93-0.64-5.73c0.01-0.79-0.23-2.27,1.13-2.05
		c0.85,0.13,2.03,0.74,2.16,2.04C262.21,144.6,261.4,146.42,259.33,148.09z"/>
	<path style="fill:#F1F2F5;" d="M248.66,250.72c0-3.86-0.02-7.71,0.02-11.57c0.01-0.77,0.03-1.72,1.2-1.67
		c0.9,0.04,0.96,0.82,0.97,1.47c0.03,3.92,0.01,7.85,0.01,11.78C250.12,250.73,249.39,250.72,248.66,250.72z"/>
	<path style="fill:#B6B7BB;" d="M54.8,216.44c-0.82,0.09-1.64,0.18-2.47,0.27c-2.67-0.07-4.42-1.85-6.38-3.31
		c-0.58-0.43-1.22-0.68-0.92-1.47c0.31-0.81,0.99-0.73,1.67-0.43C49.63,212.77,52.72,213.78,54.8,216.44z"/>
	<path style="fill:#B6B7BB;" d="M72.73,143.26c-0.06,1.3,1.82,1.5,1.63,2.88c-3.13,0-6.26,0-9.4,0
		C67.7,145.31,69.8,142.98,72.73,143.26z"/>
	<path style="fill:#B6B7BB;" d="M242.52,177.71c1.36,1.95,3.44,3.54,2.2,5.96c-0.28,0.55-0.12,1.44-1.04,1.45
		c-1.16,0-1.11-1.01-1.14-1.74C242.47,181.5,242.52,179.6,242.52,177.71z"/>
	<path style="fill:#B6B7BB;" d="M121.31,204.96c0.64,2.06,0.7,3.77-0.54,5.14c-0.89,0.99-0.37,4.07-2.81,2.66
		c-1.19-0.69,0-3.33,0.65-3.96C119.71,207.73,119.42,205.97,121.31,204.96z"/>
	<path style="fill:#B6B7BB;" d="M35.26,171c-0.07-0.71-0.14-1.42-0.21-2.12c-0.2-3.15,2.74-4.06,4.39-5.95
		C39.32,166.27,37.3,168.64,35.26,171z"/>
	<path style="fill:#B6B7BB;" d="M98.92,172.38c0.57,0.01,1.14,0.01,1.7,0.02c0.68,0,1.36,0,2.03,0c1.34-0.05,2.85-0.32,2.49,1.88
		c-2.27-0.56-2.27,2.25-4.26,2.75C100.91,175.18,99.39,174.05,98.92,172.38z"/>
	<path style="fill:#B6B7BB;" d="M213.04,190.42c-0.01,1.13,0.69,1.54,1.68,1.65c-1.29,1.36,1.66,4.21-1.71,4.83
		c0,0,0.06,0.07,0.06,0.07c-0.33-0.7-0.48-1.71-1.03-2.04C207.72,192.33,211.24,191.59,213.04,190.42z"/>
	<path style="fill:#B6B7BB;" d="M55.22,232.18c3-1.67,4.89,0.83,7.8,1.22C59.43,236.12,57.89,231.64,55.22,232.18z"/>
	<path style="fill:#B6B7BB;" d="M254.72,147.07c-1.15-2.45-0.75-4.17-0.76-5.83c-0.01-1.39,0.94-1.38,1.94-1.26
		c1.17,0.14,1.17,1.02,0.92,1.77C256.3,143.31,255.61,144.83,254.72,147.07z"/>
	<path style="fill:#B6B7BB;" d="M323.97,223.38c0.04,0.9-0.48,1.69-1.86,1.67c-1.85-0.02-2.73-1.35-2.73-2.82
		c0-0.99,1.14-2.45,2.18-2.3C322.93,220.13,324.06,221.27,323.97,223.38z"/>
	<path style="fill:#B6B7BB;" d="M22,182.16c0.5,1.07-0.35,2.75,1.45,3.25c0.07,1.94-1.64,3-2.31,4.65
		C20.65,187.3,19.47,184.54,22,182.16z"/>
	<path style="fill:#B6B7BB;" d="M281.73,155.61c-2.86,0.82-4.96,2.62-7.8,1.35C276.43,156.66,277.88,152.78,281.73,155.61z"/>
	<path style="fill:#B6B7BB;" d="M285.09,193.62c1.13-1.18-2.39-3.05,0.86-3.3c2.09-0.17,2.57,1.88,2.86,3.23
		c0.29,1.38-1.13,1.84-2.48,1.8C284.64,195.29,284.61,194.51,285.09,193.62z"/>
	<path style="fill:#B6B7BB;" d="M330.52,164.46c-0.01-0.54-0.03-1.08-0.04-1.63c2.35,0.8,5.09,0.58,6.92,2.7
		c-0.25,0.24-0.5,0.48-0.75,0.72C334.66,165.51,331.92,167.26,330.52,164.46z"/>
	<path style="fill:#B6B7BB;" d="M58.03,153.39c-2.5,1.12-4.33,1.94-6.15,2.75C52.93,153.51,54.63,152.32,58.03,153.39z"/>
	<path style="fill:#B6B7BB;" d="M267.17,143.57c-0.01,1.75-0.34,2.95-2.09,3.08c-1.08,0.08-1.73-0.77-1.17-1.38
		c1.04-1.14-0.63-3.65,1.91-3.77C267.51,141.41,266.76,143.05,267.17,143.57z"/>
	<path style="fill:#B6B7BB;" d="M201.36,127.38c2.8-0.14,3.77-3.18,6.64-1.75C206.42,127.57,204.88,129.11,201.36,127.38z"/>
	<path style="fill:#B6B7BB;" d="M82.36,221.19c-0.42-2.07-2.36-0.91-3.42-1.62c1.53-2.47,4.02-1.12,6.07-1.43
		c0.68-0.1,0.94,1.2,0.27,1.35C84.06,219.78,83.83,221.56,82.36,221.19z"/>
	<path style="fill:#B6B7BB;" d="M314.22,159.54c0.03,0.42,0.07,0.83,0.1,1.25c-2.08-0.22-3.51-2.27-5.75-2.23
		C310.56,158.26,312.71,156.67,314.22,159.54z"/>
	<path style="fill:#B6B7BB;" d="M329.8,273.1c-2.18,0.49-4.4,0.34-6.68-0.64c2.2-0.13,4.39-0.25,6.59-0.38
		C329.74,272.42,329.77,272.76,329.8,273.1z"/>
	<path style="fill:#B6B7BB;" d="M66.21,148.17c-0.03,0.46-0.06,0.91-0.08,1.37c-1.76,3.05-4.21,1.34-6.37,1.66
		c-0.07-0.33-0.14-0.66-0.2-0.99C61.77,149.53,63.99,148.85,66.21,148.17z"/>
	<path style="fill:#B6B7BB;" d="M266.82,257.11c2.38-2.87,5.51-1.14,8.32-1.36C272.66,258,269.66,257.08,266.82,257.11z"/>
	<path style="fill:#B6B7BB;" d="M152.65,154.49c-0.55-0.01-1.11-0.01-1.66-0.02c0.28-1.09,0.56-2.17,0.84-3.26
		c0.04-0.59,0.09-1.19,0.13-1.78c0.72,0.01,1.43,0.01,2.15,0.02c0.13,0.11,0.25,0.23,0.36,0.36
		C153.74,151.33,155.61,153.85,152.65,154.49z"/>
	<path style="fill:#B6B7BB;" d="M330.97,246.6c0-2.09,0-4.17,0-6.26C331.68,242.4,332.31,244.45,330.97,246.6z"/>
	<path style="fill:#B6B7BB;" d="M101.96,148.35c0.03-0.68,0.07-1.37,0.1-2.05c2.2,1.54,2.41,3.98,2.89,6.33
		C103.49,151.5,101.6,150.71,101.96,148.35z"/>
	<path style="fill:#B6B7BB;" d="M302.75,154.53c0.6-0.37,1.38-0.52,1.57-1.36c1.64,0.63,3.28,1.26,5.92,2.28
		C306.93,155.94,304.65,157.03,302.75,154.53z"/>
	<path style="fill:#F1F2F5;" d="M288.02,188.75c0-2.44-0.02-4.88,0.01-7.31c0.01-0.51,0.1-1.1,0.83-1.1c0.98,0,0.94,0.78,0.95,1.4
		c0.03,2.33,0.01,4.67,0.01,7C289.22,188.74,288.62,188.74,288.02,188.75z"/>
	<path style="fill:#B6B7BB;" d="M152.84,146.26c2.1-0.35,1.1-2.08,1.44-3.21c2.27,2.08,2.34,4.76,0.18,6.77
		c-0.11-0.13-0.23-0.25-0.36-0.36C153.76,148.36,152.36,147.68,152.84,146.26z"/>
	<path style="fill:#B6B7BB;" d="M64.96,134.61c-0.55-0.3-1.32-0.42-0.94-0.7c0.78-0.59,0.25-2.45,1.95-2
		c0.33,0.09,0.6,0.38,0.9,0.58C66.21,133.22,65.56,133.95,64.96,134.61z"/>
	<path style="fill:#B6B7BB;" d="M119.12,174.06c1.1,2.35,0.74,3.97,0.12,5.61C118.38,178.07,118.16,176.44,119.12,174.06z"/>
	<path style="fill:#B6B7BB;" d="M290.67,199.21c1.17-0.44,2.35-0.88,3.52-1.32c0.05,0.52,0.35,1.27,0.11,1.53
		C293.2,200.61,291.96,199.71,290.67,199.21z"/>
	<path style="fill:#B6B7BB;" d="M39.5,207.28c2.15-1.03,2.04,1.89,3.64,1.82C41,209.52,41,209.52,39.5,207.28z"/>
	<path style="fill:#B6B7BB;" d="M227.75,210.01c0.02-0.13,0-0.3,0.08-0.39c1.12-1.39,2.31-2.71,4.27-2.81
		c0.11-0.01,0.44,0.88,0.34,0.97c-1.35,1.21-2.7,2.48-4.75,2.16C227.69,209.95,227.75,210.01,227.75,210.01z"/>
	<path style="fill:#B6B7BB;" d="M232.59,213.22c-0.63,2.53-2.76,2.89-4.84,3.3l0.06,0.07c0.82-2.27,2.19-3.74,4.85-3.31
		L232.59,213.22z"/>
	<path style="fill:#B6B7BB;" d="M326.37,221.44c1.14,1.46,3.66,2.04,1.78,4.93C327,224.86,325.14,223.98,326.37,221.44z"/>
	<path style="fill:#B6B7BB;" d="M338.59,244.31c-0.44,0.01-0.88,0.01-1.33,0.02c-0.07-2.15-0.37-4.32,0.64-6.41
		C339.09,239.99,338.76,242.16,338.59,244.31z"/>
	<path style="fill:#B6B7BB;" d="M28.65,170.9c-0.22-0.87-0.39-1.78-1.62-1.68c-0.35-1.89,2.22-1.68,2.28-3.38
		C30.36,167.79,30.73,169.52,28.65,170.9z"/>
	<path style="fill:#B6B7BB;" d="M81.08,144.49c-1.84,0.01-3.98,1.25-5.22-1.25C77.63,143.51,79.82,142.05,81.08,144.49z"/>
	<path style="fill:#B6B7BB;" d="M201.69,146.42c-1.11,2.73-3.07,1.32-5.59,1.24c2-1.73,3.72-1.38,5.32-1.48
		C201.42,146.18,201.69,146.42,201.69,146.42z"/>
	<path style="fill:#B6B7BB;" d="M92.38,139.7c-0.72,0.06-1.45,0.13-2.17,0.19c-1.18,0.23-2.3,0.26-3.46-1.33
		C89.04,138.42,91.02,136.93,92.38,139.7z"/>
	<path style="fill:#B6B7BB;" d="M304.27,203.52c-1.15-0.19-1.49-0.98-1.54-2.01c-0.19-1.08-0.09-2.07,1.08-3
		C304.88,200.18,304.45,201.87,304.27,203.52z"/>
	<path style="fill:#B6B7BB;" d="M219.5,213.09c0.01-0.47,0.02-0.94,0.03-1.41c1.64-0.03,3.28-0.05,4.91-0.08l-0.06-0.07
		C223.6,214.72,221.04,212.31,219.5,213.09z"/>
	<path style="fill:#B6B7BB;" d="M80.5,214.81c0.74,0.1,1.49,0.2,2.23,0.3c-1.36,2.73-3.35,1.02-5.63,1.13
		C78.23,214.55,79.38,214.71,80.5,214.81z"/>
	<path style="fill:#B6B7BB;" d="M224.44,211.6c0.43-1.94,1.99-1.53,3.32-1.59c0,0-0.07-0.06-0.07-0.07c0,2.83-2.14,1.2-3.31,1.59
		C224.37,211.53,224.44,211.6,224.44,211.6z"/>
	<path style="fill:#B6B7BB;" d="M320.68,227.98c-0.53-0.01-1.06-0.03-1.59-0.04c-0.52,0.03-1.13,0.23-1.36-0.46
		c-0.22-0.66,0.15-0.94,0.79-1.04C319.75,226.26,320.65,226.49,320.68,227.98z"/>
	<path style="fill:#B6B7BB;" d="M227.75,216.52c-0.66,1.81-1.75,1.91-3.47,0.8c1.2-1.12,2.43-0.66,3.53-0.73
		C227.81,216.59,227.75,216.52,227.75,216.52z"/>
	<path style="fill:#B6B7BB;" d="M76.16,219.58c-1.41,0.22-3.01,0.99-3.58-1.23C73.87,218.46,75.54,217.5,76.16,219.58z"/>
	<path style="fill:#B6B7BB;" d="M203.31,144.88c-0.01,0.46-0.02,0.92-0.04,1.37c-0.53,0.06-1.06,0.11-1.59,0.17
		c0,0-0.27-0.24-0.27-0.24C201.16,144.46,202.36,144.85,203.31,144.88z"/>
	<path style="fill:#F1F2F5;" d="M167.72,181.37c-0.13,0.8-0.33,1.42-1.15,1.39c-0.67-0.02-0.71-0.6-0.73-1.1
		c-0.02-0.57,0.17-0.99,0.84-1.02C167.28,180.62,167.56,180.96,167.72,181.37z"/>
	<path style="fill:#F1F2F5;" d="M342.55,262.76c0.01,1.31-0.96,1.59-1.71,1.04c-0.7-0.51-0.74-1.58,0.21-2.25
		C341.55,261.95,342.05,262.35,342.55,262.76z"/>
	<path style="fill:#B6B7BB;" d="M232.66,213.28c-0.19-0.66-0.36-1.37,0.54-1.6c0.55-0.14,1.14,0.11,1.01,0.81
		c-0.17,0.9-1.01,0.63-1.62,0.73L232.66,213.28z"/>
	<path style="fill:#B6B7BB;" d="M338.7,165.88c0.01,0.54,0.03,1.07,0.04,1.61c-1.03,0.15-2.07,0.33-2.09-1.23
		c0.25-0.24,0.5-0.48,0.75-0.72C337.84,165.65,338.27,165.76,338.7,165.88z"/>
	<path style="fill:#2E2C2D;" d="M213.04,190.42c-1.8,1.17-5.32,1.91-1,4.51c0.55,0.33,0.69,1.34,1.03,2.04
		c-1.63-0.38-3.24-0.15-4.78,0.35c-1.92,0.63-3.33,0.22-3.38-1.92c-0.07-3.06-1.73-1.63-2.93-1.15c-2.2,0.88-3.98,4.24-6.77,1.52
		c-2.83-2.75,0.48-4.63,1.41-6.81c0.25-0.59,0.54-1.3,1.03-1.62c0.9-0.59,0.94-1.42,0.55-2.08c-0.64-1.09-1.33-0.08-1.99,0.2
		c-0.49,0.21-1.15,0.2-1.49,0.53c-1.54,1.48-2.65,0.51-3.7-0.57c-1.34-1.38-0.11-2.21,0.61-3.35c2.77-4.41,6.89-7.52,10.62-10.92
		c3.15-2.87,6.56-5.45,9.41-8.66c0.67-0.76,1.6-2.07,2.6-1.09c0.7,0.69,0.12,1.82-0.59,3.01c-1.99,3.32-5.22,5.2-7.98,7.46
		c-3.1,2.52-5.82,5.38-9.8,8.7c4.54-0.01,6.36-2.98,8.9-4.34c3.84-2.07,6.82-5.41,10.71-7.51c1.41-0.76,2.62-1.77,3.73-0.4
		c1.23,1.52-0.45,2.79-1.35,3.67c-4.21,4.15-9.3,7.31-13.34,11.69c-1.82,1.97-3.93,3.62-5.11,6.18c-0.35,0.76-1.57,1.49-0.81,2.2
		c0.46,0.44,2.04,0.22,2.77-0.25c3.34-2.14,6.86-4.14,9.75-6.81c4.19-3.86,8.84-7.02,13.46-10.27c0.94-0.66,2.11-1.17,2.83-0.24
		c0.57,0.72,0.35,1.83-0.49,2.83C222.83,182.25,217.41,185.77,213.04,190.42z"/>
	<path style="fill:#2E2C2D;" d="M67.6,196.8c-1.08,0.33-2.22-0.1-3.3,0.99c-1.24,1.25-3.5,1.49-4.61,0.09
		c-1.15-1.45-0.46-2.98,1.07-4.67c5.17-5.73,11.52-9.98,17.33-14.9c1.18-1,2.35-1.68,3.26,0.09c0.78,1.51-0.51,1.58-1.54,2.32
		c-4.53,3.25-8.65,7.07-13.3,10.2c-0.38,0.26-1.59,1.37-0.79,2.33c0.55,0.66,1.49,0.46,2.21-0.04c1.45-1.02,2.94-1.93,4.71-2.27
		c0.55,0.92,1.1,1.84,1.64,2.75l0.05-0.06C71.3,193.05,69.4,194.81,67.6,196.8z"/>
	<path style="fill:#2E2C2D;" d="M75.41,167.69c1.29,2.52-0.44,3.71-1.74,4.86c-5.09,4.52-10.28,8.94-15.44,13.4
		c-1.92,1.66-3.54,3.35-0.29,5.52c-0.93,0.3-1.42,0.53-1.93,0.61c-1.47,0.25-3.11,0.57-4.08-0.87c-1.07-1.59,0.45-3.06,1.25-3.84
		c4.7-4.55,9.44-9.09,14.58-13.11C70.36,172.25,72.42,169.65,75.41,167.69z"/>
	<path style="fill:#2E2C2D;" d="M77.47,190.36c0.08-1.66,0.88-2.82,2.53-3.15c1.14-0.22,1.01,1.06,1.5,1.61
		c1.39,1.56-0.7,2.44-1.22,2.99c-3.74,3.96-7.76,7.65-11.7,11.42c-1.57,1.5-3.43,2.83-3.98,5.06c-0.33,1.37-0.91,2-2.18,1.38
		c-1.5-0.73-0.99-1.69-0.26-2.88c1.95-3.18,4.57-5.73,7.21-8.28c2.31-0.95,3.87-2.67,4.95-4.87c0,0-0.05,0.06-0.05,0.06
		C75.78,193,77.45,192.48,77.47,190.36z"/>
	<path style="fill:#B6B7BB;" d="M74.32,193.64c-1.08,2.2-2.64,3.92-4.95,4.87c0.03-1.22-0.77-1.57-1.77-1.71
		C69.4,194.81,71.3,193.05,74.32,193.64z"/>
	<path style="fill:#B6B7BB;" d="M77.47,190.36c-0.01,2.12-1.69,2.64-3.19,3.34c-0.55-0.92-1.1-1.84-1.64-2.75
		c0.14-0.84-0.06-2.36,1.43-1.42C75.19,190.23,76.23,190.5,77.47,190.36z"/>
	<path style="fill:#2E2C2D;" d="M152.84,146.26c-0.49,1.42,0.91,2.1,1.26,3.19c-0.72-0.01-1.43-0.01-2.15-0.02
		c-1.89-3.88-4.95-5.36-9.27-5.06c-3.11,0.22-4.44,1.62-4.73,4.56c-0.3,3.1,1.65,3.88,4.09,4.35c3.56,0.69,6.62-0.9,9.77-2.07
		c-0.28,1.09-0.56,2.17-0.84,3.26c-6.38,2.99-11.58,2.38-14.79-1.49c-3.31-3.99-0.07-6.91,1.62-9.91c1.5-2.65,3.34-4.31,7-1.98
		C147.49,142.79,151.17,142.91,152.84,146.26z"/>
	<path style="fill:#F1F2F5;" d="M151.82,151.21c-3.16,1.17-6.21,2.76-9.77,2.07c-2.45-0.47-4.39-1.25-4.09-4.35
		c0.28-2.94,1.61-4.35,4.73-4.56c4.32-0.3,7.38,1.18,9.27,5.06C151.91,150.03,151.87,150.62,151.82,151.21z"/>
</g>
</svg>
