<?xml version="1.0" encoding="utf-8"?>
<!-- Generator: Adobe Illustrator 24.3.0, SVG Export Plug-In . SVG Version: 6.00 Build 0)  -->
<svg version="1.1" xmlns="http://www.w3.org/2000/svg" xmlns:xlink="http://www.w3.org/1999/xlink" x="0px" y="0px"
	 viewBox="0 0 435.37 395.06" style="enable-background:new 0 0 435.37 395.06;" xml:space="preserve">
<style type="text/css">
	.st0{fill:#EBEBEB;}
	.st1{fill:#E6E6E6;}
	.st2{fill:#E0E0E0;}
	.st3{fill:#FAFAFA;}
	.st4{fill:#F0F0F0;}
	.st5{fill:#F5F5F5;}
	.st6{fill:#FFFFFF;}
	.st7{display:none;}
	.st8{display:inline;}
	.st9{fill:#407BFF;}
	.st10{opacity:0.9;}
	.st11{fill:#B55B52;}
	.st12{opacity:0.8;fill:#FFFFFF;}
	.st13{opacity:0.6;fill:#FFFFFF;}
	.st14{fill:#263238;}
	.st15{opacity:0.2;}
	.st16{fill:#A02724;}
	.st17{opacity:0.2;fill:#407BFF;}
	.st18{opacity:0.2;fill:#FFFFFF;}
	.st19{opacity:0.4;fill:#FFFFFF;}
</style>
<g id="Background_Complete">
	<g>
		<rect x="8.91" y="336.01" class="st0" width="417.54" height="0.25"/>
		<rect x="384.46" y="352.1" class="st0" width="33.12" height="0.25"/>
		<rect x="290.21" y="354.82" class="st0" width="8.69" height="0.25"/>
		<rect x="364.27" y="342.82" class="st0" width="19.19" height="0.25"/>
		<rect x="20.14" y="344.5" class="st0" width="43.19" height="0.25"/>
		<rect x="72.24" y="344.5" class="st0" width="6.33" height="0.25"/>
		<rect x="99.15" y="348.72" class="st0" width="93.68" height="0.25"/>
		<path class="st0" d="M204.7,291.41H11.6c-3.15,0-5.71-2.56-5.71-5.71V14.27c0-3.15,2.56-5.71,5.71-5.71h193.1
			c3.15,0,5.71,2.56,5.71,5.71V285.7C210.4,288.85,207.84,291.41,204.7,291.41z M11.6,8.81c-3.01,0-5.46,2.45-5.46,5.46V285.7
			c0,3.01,2.45,5.46,5.46,5.46h193.1c3.01,0,5.46-2.45,5.46-5.46V14.27c0-3.01-2.45-5.46-5.46-5.46H11.6z"/>
		<path class="st0" d="M420.99,291.41h-193.1c-3.15,0-5.71-2.56-5.71-5.71V14.27c0-3.15,2.56-5.71,5.71-5.71h193.1
			c3.15,0,5.71,2.56,5.71,5.71V285.7C426.7,288.85,424.14,291.41,420.99,291.41z M227.89,8.81c-3.01,0-5.46,2.45-5.46,5.46V285.7
			c0,3.01,2.45,5.46,5.46,5.46h193.1c3.01,0,5.46-2.45,5.46-5.46V14.27c0-3.01-2.45-5.46-5.46-5.46H227.89z"/>
	</g>
	<g>
		<g>
			<rect x="34.65" y="64.84" class="st1" width="59.65" height="88.92"/>
			
				<rect x="94.3" y="64.84" transform="matrix(-1 -1.224647e-16 1.224647e-16 -1 189.5393 218.6068)" class="st2" width="0.94" height="88.92"/>
			
				<rect x="23.39" y="82.85" transform="matrix(-1.836970e-16 1 -1 -1.836970e-16 173.7768 44.8301)" class="st3" width="82.17" height="52.9"/>
			<g>
				
					<ellipse transform="matrix(0.7071 -0.7071 0.7071 0.7071 -46.5665 72.7)" class="st4" cx="64.47" cy="92.56" rx="14.14" ry="14.14"/>
				<rect x="47.03" y="114.88" class="st0" width="34.89" height="3.57"/>
				<rect x="47.03" y="124.38" class="st0" width="34.89" height="3.57"/>
				<rect x="47.03" y="133.87" class="st0" width="34.89" height="3.57"/>
			</g>
		</g>
		<g>
			<rect x="109.61" y="77.65" class="st1" width="59.65" height="88.92"/>
			
				<rect x="169.26" y="77.65" transform="matrix(-1 -1.224647e-16 1.224647e-16 -1 339.4585 244.2133)" class="st2" width="0.94" height="88.92"/>
			
				<rect x="98.35" y="95.66" transform="matrix(-1.836970e-16 1 -1 -1.836970e-16 261.5396 -17.3263)" class="st3" width="82.17" height="52.9"/>
			<g>
				
					<ellipse transform="matrix(0.2298 -0.9732 0.9732 0.2298 4.8524 216.8592)" class="st4" cx="139.43" cy="105.36" rx="14.14" ry="14.14"/>
				<rect x="121.99" y="127.69" class="st0" width="34.89" height="3.57"/>
				<rect x="121.99" y="137.18" class="st0" width="34.89" height="3.57"/>
				<rect x="121.99" y="146.67" class="st0" width="34.89" height="3.57"/>
			</g>
		</g>
		<g>
			<rect x="118.92" y="203.61" class="st0" width="260.69" height="2.78"/>
			
				<rect x="379.61" y="203.61" transform="matrix(-1 -1.224647e-16 1.224647e-16 -1 780.3279 409.9966)" class="st2" width="21.11" height="2.78"/>
			<rect x="122.5" y="206.39" class="st5" width="257.11" height="129.62"/>
			<rect x="178.72" y="206.39" class="st1" width="1.44" height="129.62"/>
			<rect x="246.72" y="232.74" class="st1" width="1.44" height="103.26"/>
			
				<rect x="150.25" y="281.18" transform="matrix(-1.836970e-16 1 -1 -1.836970e-16 460.6207 158.6819)" class="st1" width="1.44" height="56.94"/>
			
				<rect x="150.25" y="255.54" transform="matrix(-1.836970e-16 1 -1 -1.836970e-16 434.9855 133.0466)" class="st1" width="1.44" height="56.94"/>
			
				<rect x="150.25" y="229.91" transform="matrix(-1.836970e-16 1 -1 -1.836970e-16 409.3502 107.4114)" class="st1" width="1.44" height="56.94"/>
			
				<rect x="250.33" y="104.19" transform="matrix(-1.836970e-16 1 -1 -1.836970e-16 483.7975 -18.3082)" class="st1" width="1.44" height="257.11"/>
			
				<rect x="379.61" y="206.39" transform="matrix(-1 -1.224647e-16 1.224647e-16 -1 777.6915 542.395)" class="st0" width="18.47" height="129.62"/>
		</g>
		<g>
			<rect x="292.96" y="30.32" class="st3" width="91" height="129.58"/>
			<path class="st0" d="M384.96,31.88h-93c-0.86,0-1.56-0.7-1.56-1.56l0,0c0-0.86,0.7-1.56,1.56-1.56h93c0.86,0,1.56,0.7,1.56,1.56
				l0,0C386.51,31.18,385.82,31.88,384.96,31.88z"/>
			<path class="st0" d="M384.96,161.46h-93c-0.86,0-1.56-0.7-1.56-1.56l0,0c0-0.86,0.7-1.56,1.56-1.56h93c0.86,0,1.56,0.7,1.56,1.56
				l0,0C386.51,160.76,385.82,161.46,384.96,161.46z"/>
			<g>
				<path class="st4" d="M341.87,104.82h-6.83c-5.82,0-10.59-4.76-10.59-10.59V72.91c0-5.82,4.76-10.59,10.59-10.59h6.83
					c5.82,0,10.59,4.76,10.59,10.59v21.33C352.46,100.06,347.69,104.82,341.87,104.82z"/>
				<path class="st4" d="M330.46,147.99L330.46,147.99c-3.3,0-6-2.7-6-6V96.66c0-3.3,2.7-6,6-6l0,0c3.3,0,6,2.7,6,6v45.33
					C336.46,145.29,333.76,147.99,330.46,147.99z"/>
				<path class="st4" d="M318.75,101.71L318.75,101.71c-1.97,0-3.58-1.61-3.58-3.58V71.06c0-1.97,1.61-3.58,3.58-3.58h0
					c1.97,0,3.58,1.61,3.58,3.58v27.07C322.33,100.1,320.72,101.71,318.75,101.71z"/>
				<path class="st4" d="M358.17,101.71L358.17,101.71c-1.97,0-3.58-1.61-3.58-3.58V71.06c0-1.97,1.61-3.58,3.58-3.58l0,0
					c1.97,0,3.58,1.61,3.58,3.58v27.07C361.75,100.1,360.14,101.71,358.17,101.71z"/>
				<path class="st4" d="M346.46,147.99L346.46,147.99c-3.3,0-6-2.7-6-6V96.66c0-3.3,2.7-6,6-6l0,0c3.3,0,6,2.7,6,6v45.33
					C352.46,145.29,349.76,147.99,346.46,147.99z"/>
				
					<ellipse transform="matrix(0.7071 -0.7071 0.7071 0.7071 64.1373 253.8201)" class="st4" cx="338.46" cy="49.49" rx="8.83" ry="8.83"/>
			</g>
		</g>
		<g>
			<rect x="306.95" y="178.28" class="st5" width="41.89" height="25.33"/>
			
				<rect x="348.84" y="178.28" transform="matrix(-1 -1.224647e-16 1.224647e-16 -1 708.0074 381.8855)" class="st0" width="10.32" height="25.33"/>
			<polygon class="st6" points="335.9,188.52 330.32,188.52 330.32,182.94 325.48,182.94 325.48,188.52 319.9,188.52 319.9,193.36 
				325.48,193.36 325.48,198.94 330.32,198.94 330.32,193.36 335.9,193.36 			"/>
		</g>
		<g>
			<path class="st0" d="M270.28,203.61h-4V158.8c0-8.33-6.78-15.11-15.11-15.11c-8.33,0-15.11,6.78-15.11,15.11h-4
				c0-10.54,8.57-19.11,19.11-19.11c10.54,0,19.11,8.57,19.11,19.11V203.61z"/>
			<rect x="273.72" y="197.05" class="st0" width="4" height="6.56"/>
			<rect x="146.51" y="201.28" class="st0" width="4" height="2.33"/>
			<rect x="139.43" y="201.28" class="st0" width="4" height="2.33"/>
		</g>
		<g>
			<rect x="53.42" y="262.88" class="st5" width="52.07" height="73.13"/>
			<rect x="55.45" y="261.05" class="st1" width="48.02" height="1.84"/>
			<path class="st5" d="M69.92,244.55h19.07c9.11,0,16.5,7.39,16.5,16.5l0,0H53.42l0,0C53.42,251.93,60.81,244.55,69.92,244.55z"/>
			<path class="st1" d="M60.34,327.99h-5.51c-4.43,0-8.02,3.59-8.02,8.02l0,0h21.55l0,0C68.36,331.58,64.77,327.99,60.34,327.99z"/>
		</g>
	</g>
</g>
<g id="Background_Simple" class="st7">
	<g class="st8">
		<g>
			<path class="st9" d="M248.24,224.73c-44-10.79-61.91-70.32-56.57-108.35c5.25-37.38,30.7-74.94-21.97-97.22
				c-39.41-16.67-86.45,11.09-97.62,48.2c-13.54,44.98,42.98,48.13,48.46,87.18c3.87,27.6-28.42,39.07-29.58,64.55
				c-2.57,56.62,68.64,32.28,92.33,55.56c16.12,15.85,16.55,37.49,40.81,48.5c21.64,9.82,45.12,4.35,62.59-8.39
				C334.92,279.56,296.35,236.49,248.24,224.73z"/>
		</g>
		<g class="st10">
			<path class="st6" d="M248.24,224.73c-44-10.79-61.91-70.32-56.57-108.35c5.25-37.38,30.7-74.94-21.97-97.22
				c-39.41-16.67-86.45,11.09-97.62,48.2c-13.54,44.98,42.98,48.13,48.46,87.18c3.87,27.6-28.42,39.07-29.58,64.55
				c-2.57,56.62,68.64,32.28,92.33,55.56c16.12,15.85,16.55,37.49,40.81,48.5c21.64,9.82,45.12,4.35,62.59-8.39
				C334.92,279.56,296.35,236.49,248.24,224.73z"/>
		</g>
	</g>
</g>
<g id="Shadow_1_">
	<ellipse id="_x3C_Path_x3E__359_" class="st5" cx="217.68" cy="369.85" rx="193.89" ry="11.32"/>
</g>
<g id="Character_1_">
	<g>
		<path class="st11" d="M159.39,99.74l-4.53-5.57l-6.34,3.98c0,0,2.9,3.09,6.42,7.43L159.39,99.74z"/>
		<g>
			<path class="st9" d="M216,100.19c-0.26,0.56-0.44,0.9-0.66,1.33l-0.63,1.2c-0.43,0.79-0.85,1.57-1.3,2.33
				c-0.88,1.54-1.8,3.04-2.77,4.53c-1.94,2.97-4.02,5.88-6.42,8.67c-2.39,2.78-5.08,5.48-8.3,7.89c-1.63,1.19-3.4,2.31-5.36,3.26
				l-1.51,0.68l-1.59,0.59c-0.53,0.19-1.11,0.33-1.66,0.49l-0.42,0.11c-0.12,0.04-0.41,0.09-0.6,0.13c-0.44,0.09-0.87,0.15-1.29,0.2
				c-1.7,0.18-3.24,0.03-4.58-0.23c-1.35-0.27-2.53-0.65-3.61-1.07c-2.15-0.86-3.92-1.89-5.56-2.95c-3.25-2.14-5.96-4.48-8.53-6.86
				c-2.56-2.39-4.94-4.85-7.23-7.38c-1.14-1.26-2.27-2.53-3.37-3.82c-1.12-1.31-2.15-2.56-3.3-4.01l11.06-8.58
				c0.86,1.09,1.89,2.34,2.88,3.49c1,1.17,2.02,2.33,3.07,3.46c2.09,2.25,4.25,4.42,6.46,6.41c2.21,1.98,4.5,3.8,6.71,5.16
				c1.09,0.67,2.17,1.22,3.04,1.53c0.86,0.33,1.51,0.32,1.31,0.27c-0.02,0-0.05,0-0.09,0c0-0.01-0.08,0.03-0.01,0l0.16-0.06
				c0.22-0.08,0.44-0.13,0.66-0.23l0.68-0.28l0.69-0.35c0.93-0.51,1.89-1.15,2.85-1.91c1.91-1.55,3.78-3.52,5.48-5.75
				c1.72-2.21,3.32-4.65,4.78-7.19c0.73-1.27,1.42-2.58,2.07-3.89c0.33-0.66,0.64-1.32,0.95-1.98l0.44-0.98
				c0.13-0.3,0.3-0.69,0.37-0.87L216,100.19z"/>
			<path class="st12" d="M216,100.19c-0.26,0.56-0.44,0.9-0.66,1.33l-0.63,1.2c-0.43,0.79-0.85,1.57-1.3,2.33
				c-0.88,1.54-1.8,3.04-2.77,4.53c-1.94,2.97-4.02,5.88-6.42,8.67c-2.39,2.78-5.08,5.48-8.3,7.89c-1.63,1.19-3.4,2.31-5.36,3.26
				l-1.51,0.68l-1.59,0.59c-0.53,0.19-1.11,0.33-1.66,0.49l-0.42,0.11c-0.12,0.04-0.41,0.09-0.6,0.13c-0.44,0.09-0.87,0.15-1.29,0.2
				c-1.7,0.18-3.24,0.03-4.58-0.23c-1.35-0.27-2.53-0.65-3.61-1.07c-2.15-0.86-3.92-1.89-5.56-2.95c-3.25-2.14-5.96-4.48-8.53-6.86
				c-2.56-2.39-4.94-4.85-7.23-7.38c-1.14-1.26-2.27-2.53-3.37-3.82c-1.12-1.31-2.15-2.56-3.3-4.01l11.06-8.58
				c0.86,1.09,1.89,2.34,2.88,3.49c1,1.17,2.02,2.33,3.07,3.46c2.09,2.25,4.25,4.42,6.46,6.41c2.21,1.98,4.5,3.8,6.71,5.16
				c1.09,0.67,2.17,1.22,3.04,1.53c0.86,0.33,1.51,0.32,1.31,0.27c-0.02,0-0.05,0-0.09,0c0-0.01-0.08,0.03-0.01,0l0.16-0.06
				c0.22-0.08,0.44-0.13,0.66-0.23l0.68-0.28l0.69-0.35c0.93-0.51,1.89-1.15,2.85-1.91c1.91-1.55,3.78-3.52,5.48-5.75
				c1.72-2.21,3.32-4.65,4.78-7.19c0.73-1.27,1.42-2.58,2.07-3.89c0.33-0.66,0.64-1.32,0.95-1.98l0.44-0.98
				c0.13-0.3,0.3-0.69,0.37-0.87L216,100.19z"/>
		</g>
		<g>
			<polygon class="st9" points="213.79,260.01 246.06,260.01 233.83,198.83 218.02,198.83 			"/>
			<polygon class="st13" points="213.79,260.01 246.06,260.01 233.83,198.83 218.02,198.83 			"/>
		</g>
		<polygon class="st11" points="220.7,360.71 212.48,360.71 212.13,341.66 220.35,341.66 		"/>
		<polygon class="st11" points="266.27,360.71 258.04,360.71 254.38,341.66 262.6,341.66 		"/>
		<path class="st14" d="M257.48,359.76h9.24c0.34,0,0.62,0.23,0.69,0.56l1.45,7.31c0.15,0.76-0.46,1.48-1.24,1.46
			c-3.22-0.06-4.79-0.24-8.85-0.24c-2.5,0-7.66,0.26-11.11,0.26c-3.38,0-3.82-3.41-2.4-3.72c6.37-1.39,8.81-3.3,10.88-5.12
			C256.51,359.93,256.99,359.76,257.48,359.76z"/>
		<path class="st14" d="M212.56,359.76h8.98c0.34,0,0.62,0.23,0.69,0.56l1.45,7.31c0.15,0.76-0.44,1.48-1.22,1.46
			c-3.24-0.05-7.92-0.24-11.99-0.24c-4.76,0-5.15,0.26-10.73,0.26c-3.38,0-4.23-3.41-2.81-3.72c6.47-1.41,7.99-1.56,13.64-4.99
			C211.17,360.03,211.85,359.76,212.56,359.76z"/>
		<path class="st11" d="M151.79,92.28l-5.32-0.07l-1.03,6.86c0,0,5.22,1.12,10.09-1.02l-0.1-2.23
			C155.34,93.86,153.74,92.31,151.79,92.28z"/>
		<polygon class="st11" points="138.15,92.52 139.17,96.85 145.44,99.06 146.47,92.2 		"/>
		<g>
			<polygon class="st15" points="212.13,341.67 212.31,351.49 220.54,351.49 220.36,341.67 			"/>
			<polygon class="st15" points="262.61,341.67 254.38,341.67 256.27,351.49 264.5,351.49 			"/>
		</g>
		<path class="st6" d="M202.41,95.08c-2.28,8.71-6.36,30.72-1.89,65.71h44c0.43-6.13-2.37-33.86,2.58-62.73
			c0.85-4.98-2.6-9.66-7.62-10.21c-1.71-0.19-3.52-0.35-5.31-0.44c-5.62-0.27-13.48,0.15-18.43,0.6c-2.91,0.27-5.62,0.85-7.73,1.42
			C205.26,90.17,203.13,92.33,202.41,95.08z"/>
		<path class="st11" d="M232.14,69.92c-1.33,6.02-2.1,13.48,2.02,17.49c0,0-2.57,6.1-13.75,6.1c-10.22,0-4.95-6.1-4.95-6.1
			c6.75-1.6,6.6-9.9,5.55-14.58L232.14,69.92z"/>
		<path class="st9" d="M219.88,92.68l-2.42,2.68c-0.17,0.19-0.23,0.46-0.15,0.7l0.78,2.36c0.09,0.27,0.33,0.46,0.62,0.47l2.61,0.13
			c0.25,0.01,0.49-0.11,0.63-0.32l1.56-2.29c0.18-0.27,0.16-0.62-0.05-0.86l-2.52-2.87C220.66,92.36,220.17,92.36,219.88,92.68z"/>
		<path class="st9" d="M219.27,98.86c0,0-4,29.45-4.09,34.57c-0.13,7.04,2.26,14.28,2.26,14.28s2.75-5.21,3.23-14.5
			c0.47-9.16-0.1-29.13,0.1-34.35H219.27z"/>
		<path class="st15" d="M221,72.84c0.63,2.74,0.94,6.72-0.29,9.88c0.81,0.35,4.1-0.92,5.47-1.79c3.04-1.94,4.22-3.83,5.35-7.89
			c0.17-1.07,0.38-2.11,0.6-3.12L221,72.84z"/>
		<g>
			<path class="st11" d="M210.56,66.99c0.78,2.05,2.44,3.52,4.09,4.19c2.49,1.02,4.09-1.18,3.7-3.73c-0.35-2.29-2.08-5.59-4.72-5.52
				C211.03,62,209.67,64.64,210.56,66.99z"/>
			<path class="st15" d="M210.56,66.99c0.78,2.05,2.44,3.52,4.09,4.19c2.49,1.02,4.09-1.18,3.7-3.73c-0.35-2.29-2.08-5.59-4.72-5.52
				C211.03,62,209.67,64.64,210.56,66.99z"/>
		</g>
		<path class="st14" d="M220.71,57.98c-0.47,3.53-2.67,6.15-4.91,5.84c-2.24-0.3-3.67-3.4-3.19-6.93c0.47-3.53,2.67-6.15,4.91-5.84
			C219.75,51.34,221.18,54.45,220.71,57.98z"/>
		<path class="st11" d="M236.08,62.12c-2.01,7.99-2.78,12.76-7.59,16.22c-7.23,5.21-16.37-0.15-16.76-8.53
			c-0.35-7.54,2.99-19.34,11.4-21.24C231.42,46.71,238.09,54.13,236.08,62.12z"/>
		<path class="st14" d="M222.8,45.78c-4.79,1.03-10.09,4.91-5.52,7.76c4.57,2.84,14.86,3.3,14.86,3.3s-3.4,7.99,1.26,12.13
			c1.55-0.78-1.76,6.21-1.76,6.21s2.37-0.61,4-3.37c2.77-0.71,11.03-13.96,5.52-17.75C240.12,46.3,229.23,44.39,222.8,45.78z"/>
		<path class="st6" d="M234.36,66.94c-0.04,0-0.07-0.01-0.11-0.02l-7.21-3.3c-0.13-0.06-0.19-0.21-0.13-0.34
			c0.06-0.13,0.21-0.19,0.34-0.13l7.21,3.3c0.13,0.06,0.19,0.21,0.13,0.34C234.56,66.88,234.46,66.94,234.36,66.94z"/>
		<path class="st11" d="M238.01,71.63c-1.48,1.66-3.57,2.5-5.37,2.6c-2.71,0.14-3.41-2.45-2.11-4.71c1.17-2.04,3.99-4.56,6.44-3.63
			C239.39,66.79,239.7,69.72,238.01,71.63z"/>
		<path class="st9" d="M200.52,160.79c0,0-2.64,61.5-2.36,86.59c0.29,26.09,11.13,102.21,11.13,102.21h13.93
			c0,0-1.25-74.59-0.01-100.22c1.36-27.94,6.22-88.58,6.22-88.58H200.52z"/>
		<path class="st14" d="M223.88,343.43c0.06,0,0.26,6.44,0.26,6.44h-16.06l-0.92-7L223.88,343.43z"/>
		<path class="st15" d="M219.36,177.07c-0.48,30.52,0.9,49.06,4.31,63.96c0.84-14.56,2.22-33.8,3.42-49.8L219.36,177.07z"/>
		<path class="st9" d="M216.12,160.79c0,0,7.79,62.86,12.34,86.41c4.98,25.79,24.02,102.38,24.02,102.38h15.07
			c0,0-11.89-74.51-14.46-100.04c-2.8-27.71-8.57-88.75-8.57-88.75H216.12z"/>
		<path class="st14" d="M267.18,343.77c0.06,0,1.12,6.09,1.12,6.09h-16.56l-1.82-6.72L267.18,343.77z"/>
		<path class="st14" d="M223.57,62.33c-0.12,0.66-0.57,1.13-0.99,1.06c-0.42-0.07-0.67-0.66-0.54-1.32
			c0.12-0.66,0.57-1.13,0.99-1.06C223.45,61.08,223.69,61.67,223.57,62.33z"/>
		<path class="st14" d="M215.5,60.43c-0.12,0.66-0.57,1.13-0.99,1.06c-0.42-0.07-0.67-0.66-0.54-1.32c0.12-0.66,0.57-1.13,0.99-1.06
			C215.38,59.18,215.63,59.77,215.5,60.43z"/>
		<path class="st16" d="M218.86,62.08c0,0-2.59,3.26-4.73,4.57c0.79,1.38,2.84,1.46,2.84,1.46L218.86,62.08z"/>
		<path class="st14" d="M218.89,70.16c-0.1-0.02-0.17-0.12-0.15-0.23c0.02-0.11,0.12-0.18,0.23-0.16c2.85,0.48,4.56-1.31,4.57-1.33
			c0.08-0.08,0.2-0.08,0.27-0.01c0.08,0.07,0.08,0.2,0,0.28C223.74,68.79,221.94,70.67,218.89,70.16z"/>
		<path class="st14" d="M227.48,60.19c-0.11-0.03-0.21-0.11-0.26-0.23c-0.63-1.61-2.02-1.89-2.04-1.89c-0.2-0.03-0.34-0.24-0.3-0.46
			c0.04-0.21,0.25-0.35,0.46-0.31c0.07,0.01,1.83,0.36,2.6,2.36c0.08,0.2-0.02,0.43-0.22,0.51
			C227.64,60.2,227.56,60.21,227.48,60.19z"/>
		<path class="st14" d="M213.44,57.28c-0.06-0.01-0.11-0.04-0.15-0.08c-0.16-0.14-0.18-0.38-0.04-0.55
			c1.39-1.68,3.17-1.52,3.24-1.51c0.21,0.01,0.36,0.21,0.34,0.43c-0.03,0.21-0.22,0.37-0.43,0.35l0,0
			c-0.06-0.01-1.45-0.12-2.56,1.22C213.73,57.27,213.57,57.31,213.44,57.28z"/>
		<path class="st6" d="M223.43,67.01c-0.2,0-0.4-0.02-0.6-0.05c-0.93-0.16-1.75-0.71-2.32-1.52c-0.68-0.97-0.93-2.25-0.7-3.51
			c0.44-2.4,2.52-4.04,4.61-3.67c0.93,0.16,1.75,0.71,2.32,1.52c0.68,0.97,0.93,2.25,0.7,3.51c0,0,0,0,0,0
			C227.04,65.45,225.31,67.01,223.43,67.01z M223.82,58.72c-1.64,0-3.15,1.38-3.5,3.3c-0.21,1.12,0.02,2.26,0.62,3.12
			c0.49,0.7,1.19,1.17,1.98,1.31c1.83,0.32,3.62-1.14,4.01-3.26c0.21-1.12-0.02-2.26-0.62-3.12c-0.49-0.7-1.19-1.17-1.98-1.31
			C224.16,58.73,223.99,58.72,223.82,58.72z M227.19,63.24L227.19,63.24L227.19,63.24z"/>
		<path class="st6" d="M220.06,62.23c-0.08,0-0.17-0.04-0.21-0.12c-0.79-1.18-1.79-0.77-1.84-0.75c-0.13,0.06-0.28,0-0.34-0.13
			c-0.06-0.13,0-0.28,0.13-0.34c0.01-0.01,1.44-0.62,2.48,0.94c0.08,0.12,0.05,0.28-0.07,0.36
			C220.16,62.22,220.11,62.23,220.06,62.23z"/>
		<path class="st6" d="M214.15,64.9c-0.2,0-0.4-0.02-0.6-0.05c-0.93-0.16-1.75-0.71-2.32-1.52c-0.68-0.97-0.93-2.25-0.7-3.51
			c0.44-2.4,2.52-4.04,4.61-3.67c0.93,0.16,1.75,0.71,2.32,1.52c0.68,0.97,0.93,2.25,0.7,3.51l0,0
			C217.77,63.34,216.03,64.9,214.15,64.9z M214.54,56.61c-1.64,0-3.15,1.38-3.5,3.3c-0.21,1.12,0.02,2.26,0.62,3.12
			c0.49,0.7,1.19,1.17,1.98,1.31c1.83,0.33,3.62-1.14,4.01-3.26c0.21-1.12-0.02-2.26-0.62-3.12c-0.49-0.7-1.19-1.17-1.98-1.31
			C214.88,56.62,214.71,56.61,214.54,56.61z M217.91,61.13L217.91,61.13L217.91,61.13z"/>
		<path class="st9" d="M254.73,361.19c-0.63,0-1.21-0.11-1.57-0.42c-0.29-0.25-0.42-0.6-0.38-1.03c0.03-0.32,0.2-0.48,0.35-0.55
			c0.91-0.47,3.53,1.16,3.83,1.35c0.07,0.04,0.1,0.12,0.08,0.2c-0.01,0.08-0.07,0.14-0.15,0.16
			C256.31,361.04,255.49,361.19,254.73,361.19z M253.55,359.49c-0.1,0-0.19,0.02-0.25,0.05c-0.05,0.03-0.12,0.08-0.13,0.23
			c-0.03,0.31,0.05,0.54,0.25,0.71c0.44,0.38,1.51,0.43,2.92,0.15C255.41,360.09,254.18,359.49,253.55,359.49z"/>
		<path class="st9" d="M256.84,360.9c-0.03,0-0.06-0.01-0.09-0.02c-0.84-0.46-2.44-2.26-2.24-3.18c0.04-0.17,0.16-0.45,0.63-0.51
			c0.31-0.04,0.58,0.05,0.82,0.25c0.94,0.78,1.07,3.16,1.08,3.26c0,0.07-0.03,0.14-0.09,0.18
			C256.92,360.89,256.88,360.9,256.84,360.9z M255.26,357.57c-0.03,0-0.06,0-0.09,0.01c-0.25,0.03-0.28,0.15-0.29,0.2
			c-0.12,0.54,0.9,1.9,1.73,2.55c-0.08-0.69-0.31-2.08-0.91-2.58C255.57,357.63,255.42,357.57,255.26,357.57z"/>
		<path class="st9" d="M209.1,361.2c-0.82,0-1.57-0.13-1.99-0.51c-0.27-0.24-0.38-0.56-0.34-0.95c0.02-0.23,0.14-0.41,0.33-0.52
			c1.01-0.56,4.28,1.12,4.65,1.31c0.07,0.04,0.11,0.12,0.1,0.2c-0.01,0.08-0.08,0.15-0.16,0.16
			C210.99,361.04,210.01,361.2,209.1,361.2z M207.65,359.49c-0.15,0-0.28,0.02-0.37,0.07c-0.08,0.04-0.12,0.11-0.13,0.21
			c-0.03,0.26,0.05,0.47,0.22,0.63c0.5,0.45,1.85,0.53,3.67,0.22C209.92,360.08,208.43,359.49,207.65,359.49z"/>
		<path class="st9" d="M211.65,360.9c-0.03,0-0.05-0.01-0.08-0.02c-0.98-0.45-2.91-2.22-2.73-3.16c0.04-0.22,0.2-0.49,0.74-0.54
			c0.39-0.05,0.76,0.07,1.07,0.33c1.03,0.86,1.19,3.07,1.2,3.17c0,0.07-0.03,0.14-0.09,0.18
			C211.73,360.89,211.69,360.9,211.65,360.9z M209.73,357.57c-0.04,0-0.08,0-0.12,0.01c-0.35,0.04-0.38,0.17-0.39,0.22
			c-0.1,0.56,1.2,1.96,2.2,2.56c-0.09-0.65-0.35-1.97-1.02-2.54C210.2,357.65,209.98,357.57,209.73,357.57z"/>
		<g>
			<path class="st9" d="M234.63,86.86l9.5,1.14c3.27,0.39,5.69,3.21,5.58,6.5c-0.49,14.81-2.45,35.16-0.87,66.29
				c0.79,15.7,11.76,100.94,11.76,100.94l-21.61,3.79c0,0-15.37-45.96-21.55-100.51c-2.65-23.4-0.16-44.6-0.16-44.6L234.63,86.86z"
				/>
			<path class="st12" d="M234.63,86.86l9.5,1.14c3.27,0.39,5.69,3.21,5.58,6.5c-0.49,14.81-2.45,35.16-0.87,66.29
				c0.79,15.7,11.76,100.94,11.76,100.94l-21.61,3.79c0,0-15.37-45.96-21.55-100.51c-2.65-23.4-0.16-44.6-0.16-44.6L234.63,86.86z"
				/>
		</g>
		<path class="st17" d="M242.44,105.76c0,2.22,1.71,13.53,5.91,21.32c0.11-5.32,0.31-10.18,0.53-14.64L242.44,105.76z"/>
		<path class="st17" d="M201.55,103.78c-1.22,2.33-4.74,12.21-6.53,23c0.82-0.57,1.59-1.16,2.35-1.76c2.9-2.38,5.36-4.96,7.58-7.63
			c0.15-0.18,0.29-0.36,0.43-0.54L201.55,103.78z"/>
		<g>
			<path class="st9" d="M214.61,87.83L209,88.51c-5.57,0.67-9.83,5.28-10.04,10.89c-0.64,16.62-1.94,49.82-2.65,61.39
				c-0.96,15.69-0.28,100.94-0.28,100.94l13.47,2.36c0,0,3.42-46.94,7.95-99.09c1.94-22.3,0.83-46.53,0.83-46.53L214.61,87.83z"/>
			<path class="st12" d="M214.61,87.83L209,88.51c-5.57,0.67-9.83,5.28-10.04,10.89c-0.64,16.62-1.94,49.82-2.65,61.39
				c-0.96,15.69-0.28,100.94-0.28,100.94l13.47,2.36c0,0,3.42-46.94,7.95-99.09c1.94-22.3,0.83-46.53,0.83-46.53L214.61,87.83z"/>
		</g>
		<path class="st5" d="M220.42,92.44c1.93,3.01,2.98,6.42,2.98,6.42s13.14-4.51,12.66-11.74c0,0-1.96-1.18-3.2-2.14
			C232.86,84.98,232.28,89.54,220.42,92.44z"/>
		<path class="st5" d="M220.42,92.44c-2.58,3.02-3.74,5.72-3.74,5.72s-5.39-3.6-3.31-10.75c0,0,1.81-0.75,3.61-1.14
			C216.98,86.27,216.04,90.89,220.42,92.44z"/>
		<polygon class="st17" points="234.05,165.16 249.1,178.09 238.82,173.06 		"/>
		<g>
			<path class="st9" d="M249.16,91.79c0.65,0.89,1.12,1.59,1.66,2.38l1.53,2.31c1,1.55,1.97,3.11,2.91,4.69
				c1.89,3.16,3.68,6.41,5.31,9.79c1.62,3.4,3.12,6.91,4.32,10.73c0.6,1.9,1.11,3.89,1.47,6c0.37,2.09,0.57,4.38,0.51,6.66
				c-0.16,4.49-1.12,8.58-2.4,12.34c-1.29,3.77-2.94,7.26-4.72,10.59c-1.79,3.32-3.75,6.49-5.85,9.53c-1.04,1.53-2.11,3.03-3.22,4.5
				c-0.55,0.74-1.12,1.47-1.7,2.2c-0.6,0.75-1.13,1.42-1.85,2.26l-10.58-9.18c0.41-0.48,0.97-1.16,1.45-1.77l1.48-1.92
				c0.97-1.3,1.92-2.62,2.83-3.97c1.81-2.7,3.47-5.47,4.93-8.27c1.45-2.81,2.68-5.67,3.57-8.49c0.89-2.81,1.42-5.59,1.41-8.05
				c-0.02-2.31-0.62-4.95-1.61-7.75c-0.98-2.78-2.3-5.63-3.81-8.42c-1.52-2.8-3.2-5.57-5.02-8.28c-0.91-1.35-1.85-2.69-2.81-4.01
				l-1.46-1.95c-0.48-0.62-1.02-1.32-1.43-1.81L249.16,91.79z"/>
			<path class="st12" d="M249.16,91.79c0.65,0.89,1.12,1.59,1.66,2.38l1.53,2.31c1,1.55,1.97,3.11,2.91,4.69
				c1.89,3.16,3.68,6.41,5.31,9.79c1.62,3.4,3.12,6.91,4.32,10.73c0.6,1.9,1.11,3.89,1.47,6c0.37,2.09,0.57,4.38,0.51,6.66
				c-0.16,4.49-1.12,8.58-2.4,12.34c-1.29,3.77-2.94,7.26-4.72,10.59c-1.79,3.32-3.75,6.49-5.85,9.53c-1.04,1.53-2.11,3.03-3.22,4.5
				c-0.55,0.74-1.12,1.47-1.7,2.2c-0.6,0.75-1.13,1.42-1.85,2.26l-10.58-9.18c0.41-0.48,0.97-1.16,1.45-1.77l1.48-1.92
				c0.97-1.3,1.92-2.62,2.83-3.97c1.81-2.7,3.47-5.47,4.93-8.27c1.45-2.81,2.68-5.67,3.57-8.49c0.89-2.81,1.42-5.59,1.41-8.05
				c-0.02-2.31-0.62-4.95-1.61-7.75c-0.98-2.78-2.3-5.63-3.81-8.42c-1.52-2.8-3.2-5.57-5.02-8.28c-0.91-1.35-1.85-2.69-2.81-4.01
				l-1.46-1.95c-0.48-0.62-1.02-1.32-1.43-1.81L249.16,91.79z"/>
		</g>
		<g>
			<g>
				<path class="st14" d="M235.67,109.13c-0.62,1.53-2.41,2.45-4,2.06c-1.59-0.39-2.37-1.96-1.75-3.49c0.62-1.53,2.41-2.45,4-2.06
					C235.51,106.04,236.29,107.6,235.67,109.13z"/>
				<path class="st18" d="M235.67,109.13c-0.62,1.53-2.41,2.45-4,2.06c-1.59-0.39-2.37-1.96-1.75-3.49c0.62-1.53,2.41-2.45,4-2.06
					C235.51,106.04,236.29,107.6,235.67,109.13z"/>
			</g>
			<path class="st14" d="M232.39,107.58c-0.08,0-0.16-0.02-0.23-0.07c-0.17-0.12-0.21-0.37-0.09-0.54
				c7.44-10.35,5.35-19.55,5.33-19.64c-0.05-0.21,0.08-0.42,0.29-0.47c0.22-0.05,0.42,0.08,0.47,0.29c0.02,0.1,2.2,9.62-5.46,20.27
				C232.63,107.53,232.51,107.58,232.39,107.58z"/>
			<path class="st14" d="M206.45,102.35c-0.2,0-0.37-0.15-0.39-0.36c-0.81-10.16,4.57-13.91,4.8-14.06c0.18-0.12,0.42-0.07,0.54,0.1
				c0.12,0.18,0.07,0.42-0.1,0.54c-0.05,0.04-5.23,3.68-4.46,13.36c0.02,0.21-0.14,0.4-0.36,0.42
				C206.47,102.35,206.46,102.35,206.45,102.35z"/>
			<g>
				<path class="st14" d="M234.59,108.86c-0.62,1.53-2.41,2.45-4,2.06c-1.59-0.39-2.37-1.96-1.75-3.49c0.62-1.53,2.41-2.45,4-2.06
					C234.43,105.77,235.21,107.33,234.59,108.86z"/>
				<path class="st19" d="M234.59,108.86c-0.62,1.53-2.41,2.45-4,2.06c-1.59-0.39-2.37-1.96-1.75-3.49c0.62-1.53,2.41-2.45,4-2.06
					C234.43,105.77,235.21,107.33,234.59,108.86z"/>
				<path class="st19" d="M232.91,108.32c-0.33,0.8-1.27,1.29-2.1,1.08c-0.83-0.21-1.25-1.03-0.92-1.83c0.33-0.8,1.27-1.29,2.1-1.08
					C232.82,106.7,233.24,107.52,232.91,108.32z"/>
			</g>
			<g>
				<path class="st14" d="M209.5,126c-0.21,0-0.39-0.17-0.39-0.39c0-0.21,0.17-0.39,0.39-0.39c1.51,0,2.8-1.23,2.89-2.73l0.75-13.04
					c0.11-1.89-0.53-3.67-1.8-5.01c-1.26-1.34-3-2.08-4.88-2.08c-3.93,0-7.31,3.2-7.54,7.13l-0.75,13.04
					c-0.04,0.72,0.2,1.4,0.68,1.91c0.48,0.51,1.14,0.78,1.86,0.78c0.21,0,0.39,0.17,0.39,0.39c0,0.21-0.17,0.39-0.39,0.39
					c-0.94,0-1.79-0.36-2.42-1.03c-0.63-0.66-0.94-1.55-0.89-2.48l0.75-13.04c0.25-4.34,3.98-7.86,8.31-7.86
					c2.1,0,4.03,0.82,5.45,2.32c1.42,1.5,2.13,3.48,2.01,5.59l-0.75,13.04C213.05,124.44,211.41,126,209.5,126z"/>
				<path class="st14" d="M201.35,125.61c-0.04,0.63-0.35,1.13-0.71,1.13c-0.36,0-0.62-0.51-0.58-1.13
					c0.04-0.63,0.35-1.13,0.71-1.13C201.12,124.47,201.38,124.98,201.35,125.61z"/>
				<path class="st14" d="M210.14,125.61c-0.04,0.63-0.35,1.13-0.71,1.13s-0.62-0.51-0.58-1.13c0.04-0.63,0.35-1.13,0.71-1.13
					C209.92,124.47,210.18,124.98,210.14,125.61z"/>
			</g>
		</g>
	</g>
</g>
<g id="Heart">
	<g>
		<path class="st9" d="M129.63,46.65l-0.71-0.51c1.56-2.16,3.57-3.88,5.97-5.11c4-2.05,8.57-2.42,12.84-1.04l-0.27,0.84
			c-4.06-1.31-8.38-0.96-12.17,0.99C133.01,42.98,131.1,44.61,129.63,46.65z"/>
		<path class="st9" d="M126.6,55.57l-0.88-0.03c0.05-1.58,0.32-3.16,0.81-4.7l0.84,0.27C126.9,52.57,126.64,54.07,126.6,55.57z"/>
		<path class="st9" d="M173.61,56.31c-3.27-7.2-11.85-10.13-18.81-6.57c-3.5-6.84-11.95-9.49-18.75-5.85
			c-6.68,3.58-8.99,12.06-5.53,18.81l9.01,17.58c1.84,3.59,6.25,5.01,9.84,3.17l17.64-9.04C173.6,71.03,176.68,63.05,173.61,56.31z"
			/>
	</g>
</g>
</svg>
