<?xml version="1.0" encoding="utf-8"?>
<!-- Generator: Adobe Illustrator 24.3.0, SVG Export Plug-In . SVG Version: 6.00 Build 0)  -->
<svg version="1.1" xmlns="http://www.w3.org/2000/svg" xmlns:xlink="http://www.w3.org/1999/xlink" x="0px" y="0px"
	 viewBox="0 0 500 500" style="enable-background:new 0 0 500 500;" xml:space="preserve">
<g id="Background_Simple">
	<g>
		<path style="fill:#92E3A9;" d="M417.69,51.84c-30.45-18.93-66.96-21.01-99.11-5.23c-27.38,13.44-48.69,36.17-76.12,49.57
			c-37.51,18.33-78.59,28.35-116.46,45.9c-37.88,17.56-74.12,45.08-87.7,84.56c-16.04,46.63-10.38,101.47,14.1,144.1
			c39.77,69.29,118.68,93.89,194.63,93C407.53,461.84,490.21,267.44,464,127.77C458.31,97.46,444.37,68.43,417.69,51.84z"/>
		<path style="opacity:0.7;fill:#FFFFFF;" d="M417.69,51.84c-30.45-18.93-66.96-21.01-99.11-5.23
			c-27.38,13.44-48.69,36.17-76.12,49.57c-37.51,18.33-78.59,28.35-116.46,45.9c-37.88,17.56-74.12,45.08-87.7,84.56
			c-16.04,46.63-10.38,101.47,14.1,144.1c39.77,69.29,118.68,93.89,194.63,93C407.53,461.84,490.21,267.44,464,127.77
			C458.31,97.46,444.37,68.43,417.69,51.84z"/>
	</g>
</g>
<g id="Graphics">
	<g>
		<polygon style="fill:none;stroke:#92E3A9;stroke-linecap:round;stroke-linejoin:round;stroke-miterlimit:10;" points="
			120.61,310.27 112.21,311.79 110.57,302.69 100.58,304.5 102.23,313.6 93.84,315.12 95.71,325.45 104.1,323.93 105.75,333.03 
			115.73,331.23 114.08,322.12 122.48,320.6 		"/>
		<polygon style="fill:none;stroke:#92E3A9;stroke-linecap:round;stroke-linejoin:round;stroke-miterlimit:10;" points="
			204.46,170.87 196.42,168.03 199.5,159.31 189.94,155.93 186.86,164.65 178.82,161.81 175.32,171.71 183.36,174.55 180.28,183.27 
			189.85,186.65 192.93,177.93 200.97,180.77 		"/>
		<polygon style="fill:none;stroke:#92E3A9;stroke-linecap:round;stroke-linejoin:round;stroke-miterlimit:10;" points="
			407.51,275.09 399.97,279.08 395.64,270.9 386.67,275.64 391,283.82 383.46,287.81 388.37,297.09 395.91,293.1 400.24,301.28 
			409.21,296.53 404.88,288.35 412.42,284.36 		"/>
		
			<circle style="fill:none;stroke:#92E3A9;stroke-linecap:round;stroke-linejoin:round;stroke-miterlimit:10;" cx="85.53" cy="282.47" r="6.12"/>
		<path style="fill:none;stroke:#92E3A9;stroke-linecap:round;stroke-linejoin:round;stroke-miterlimit:10;" d="M180.86,200.65
			c0,0.89-0.72,1.62-1.62,1.62c-0.89,0-1.62-0.72-1.62-1.62c0-0.89,0.72-1.62,1.62-1.62C180.13,199.03,180.86,199.76,180.86,200.65z
			"/>
		<path style="fill:none;stroke:#92E3A9;stroke-linecap:round;stroke-linejoin:round;stroke-miterlimit:10;" d="M106.73,172.86
			c0,3.16-2.56,5.72-5.72,5.72c-3.16,0-5.72-2.56-5.72-5.72c0-3.16,2.56-5.72,5.72-5.72C104.17,167.14,106.73,169.7,106.73,172.86z"
			/>
		<path style="fill:none;stroke:#92E3A9;stroke-linecap:round;stroke-linejoin:round;stroke-miterlimit:10;" d="M358.76,250.34
			c0,1.79-1.45,3.24-3.24,3.24c-1.79,0-3.24-1.45-3.24-3.24c0-1.79,1.45-3.24,3.24-3.24C357.31,247.1,358.76,248.55,358.76,250.34z"
			/>
		
			<circle style="fill:none;stroke:#92E3A9;stroke-linecap:round;stroke-linejoin:round;stroke-miterlimit:10;" cx="326.01" cy="144.34" r="7.25"/>
	</g>
</g>
<g id="Character">
	<g>
		<path style="fill:#FFFFFF;" d="M281.37,209.51c0.39,0.58,11.86,2.86,17.8,11.51c5.94,8.65,8.66,15.91,8.66,15.91
			s9.95,5.92,15.05,10.8s11.18,11.36,15.87,14.76c4.69,3.4,14.33,9.85,16.77,17.4c0,0-14.47,39.62-18.56,48.38
			c-4.09,8.76-14.19,27.35-14.19,27.35l-17.96,76.47H200.37l-3.56-26.23c0,0-31.96-6.28-45.37-17.98c0,0-1.26-28.99,4.33-54.88
			c5.6-25.89,24.6-79.65,37.48-96.08c0,0,20.57-9.84,38.72-13.04c0,0,11.78-9.31,19.5-10.3
			C259.18,212.59,281.37,209.51,281.37,209.51z"/>
		<g>
			<path style="fill:#92E3A9;" d="M198.22,417.69c9.27,1.77,17.35,3.3,26.79,3.19c9.43-0.11,19.08-2.23,26.81-7.64
				c1.59-1.11,3.13-2.38,5-2.9c4.1-1.15,8.16,1.56,12.23,2.82c5.16,1.6,10.82,0.84,15.88-1.08c5.05-1.92,9.61-4.92,14.12-7.89
				c-0.67,9.2-0.89,18.43-0.64,27.65l6.43,0.26l16.47-72.47c0,0-28.17,32.73-41.91,42.49l-26.33-6.78c0,0-2.49,2.06-7.7,3.1
				c0,0-2.39,9.19-15.83,9.21c-13.44,0.02-32.71-1.78-32.71-1.78L198.22,417.69z"/>
			<path style="opacity:0.5;fill:#FFFFFF;" d="M198.22,417.69c9.27,1.77,17.35,3.3,26.79,3.19c9.43-0.11,19.08-2.23,26.81-7.64
				c1.59-1.11,3.13-2.38,5-2.9c4.1-1.15,8.16,1.56,12.23,2.82c5.16,1.6,10.82,0.84,15.88-1.08c5.05-1.92,9.61-4.92,14.12-7.89
				c-0.67,9.2-0.89,18.43-0.64,27.65l6.43,0.26l16.47-72.47c0,0-28.17,32.73-41.91,42.49l-26.33-6.78c0,0-2.49,2.06-7.7,3.1
				c0,0-2.39,9.19-15.83,9.21c-13.44,0.02-32.71-1.78-32.71-1.78L198.22,417.69z"/>
		</g>
		<g>
			<path style="fill:#92E3A9;" d="M171.23,282.47c0,0-12.26,59.37-11.61,79.76c0,0,16.61-4.66,28.21,0c0,0-19.74-2.2-28.24,6.85
				c-8.5,9.05,17.66,32.83,70.01,28c0,0,10.44,3.28,15.74,1.36c0,0-1.42,9.45-15.83,9.21c-14.35-0.57-56.34-0.92-78.08-19.76
				C151.44,387.89,148.7,333.31,171.23,282.47z"/>
			<path style="opacity:0.6;fill:#FFFFFF;" d="M171.23,282.47c0,0-12.26,59.37-11.61,79.76c0,0,16.61-4.66,28.21,0
				c0,0-19.74-2.2-28.24,6.85c-8.5,9.05,17.66,32.83,70.01,28c0,0,10.44,3.28,15.74,1.36c0,0-1.42,9.45-15.83,9.21
				c-14.35-0.57-56.34-0.92-78.08-19.76C151.44,387.89,148.7,333.31,171.23,282.47z"/>
		</g>
		<g>
			<path style="fill:#92E3A9;" d="M196.24,293.85c0,0,3.62,26.29,9.44,31.79s33.03,3.71,43.77,9.63c0,0,10.12-17.54,28.44-28.53
				l-24.84,39.12l-21.47-5.08l-26.21-4.05l-2.2,5.06l-3.94-0.03C199.23,341.76,198.79,313.78,196.24,293.85z"/>
			<path style="opacity:0.5;fill:#FFFFFF;" d="M196.24,293.85c0,0,3.62,26.29,9.44,31.79s33.03,3.71,43.77,9.63
				c0,0,10.12-17.54,28.44-28.53l-24.84,39.12l-21.47-5.08l-26.21-4.05l-2.2,5.06l-3.94-0.03
				C199.23,341.76,198.79,313.78,196.24,293.85z"/>
		</g>
		<g>
			<path style="fill:#92E3A9;" d="M298.93,240.29c11.23,6.61,12.48,14.06,14.8,19.38c-5.84,1.16-11.88,2.4-16.71,5.89
				c-6.04,4.37-9.25,11.58-11.77,18.59c-2.38,6.63-4.38,13.4-5.98,20.26c5.39-9.76,13.18-18.19,22.48-24.33
				c5.4-3.56,12.06-6.43,18.2-4.42c-5.16,2.18-10.99,5.15-12.08,10.64c-0.18,0.92-0.21,1.89,0.1,2.76c0.92,2.59,4.15,3.29,6.59,4.55
				c4.76,2.45,7.23,8.04,7.45,13.39c0.22,5.35-1.44,10.57-3.07,15.67c-1.43,4.46-2.86,8.92-4.29,13.37c-1.83,5.7-3.7,11.48-7,16.48
				c-3.3,4.99-8.28,9.19-14.19,10.18c-2.47,0.41-5.08,0.24-7.34-0.83c-1.79-0.85-3.28-2.2-4.82-3.45
				c-7.04-5.7-15.67-9.43-24.65-10.64c11.62,7.68,17.12,21.62,21.94,34.69c-2.2-3.85-5.42-7.11-9.25-9.36
				c-1.03-0.61-2.17-1.15-3.37-1.06c-3.15,0.25-4.15,4.27-6.06,6.8c-2.27,3.01-6.44,4.07-10.19,3.6c-3.74-0.47-7.18-2.23-10.54-3.96
				c-14.17-7.31-28.34-14.62-42.52-21.93l-3.04,9c0,0,33.86,26.99,85.74,36.55c0,0,33.71-26.63,45.64-50.24
				c11.94-23.61,30.49-71.99,30.49-71.99s-6.79-12.86-18.44-19.58c0,0-8.69-4.11-10.52-9.19c-1.83-5.08-18.16-13.85-18.16-13.85
				S310.55,242.65,298.93,240.29z"/>
			<path style="opacity:0.6;fill:#FFFFFF;" d="M298.93,240.29c11.23,6.61,12.48,14.06,14.8,19.38c-5.84,1.16-11.88,2.4-16.71,5.89
				c-6.04,4.37-9.25,11.58-11.77,18.59c-2.38,6.63-4.38,13.4-5.98,20.26c5.39-9.76,13.18-18.19,22.48-24.33
				c5.4-3.56,12.06-6.43,18.2-4.42c-5.16,2.18-10.99,5.15-12.08,10.64c-0.18,0.92-0.21,1.89,0.1,2.76c0.92,2.59,4.15,3.29,6.59,4.55
				c4.76,2.45,7.23,8.04,7.45,13.39c0.22,5.35-1.44,10.57-3.07,15.67c-1.43,4.46-2.86,8.92-4.29,13.37c-1.83,5.7-3.7,11.48-7,16.48
				c-3.3,4.99-8.28,9.19-14.19,10.18c-2.47,0.41-5.08,0.24-7.34-0.83c-1.79-0.85-3.28-2.2-4.82-3.45
				c-7.04-5.7-15.67-9.43-24.65-10.64c11.62,7.68,17.12,21.62,21.94,34.69c-2.2-3.85-5.42-7.11-9.25-9.36
				c-1.03-0.61-2.17-1.15-3.37-1.06c-3.15,0.25-4.15,4.27-6.06,6.8c-2.27,3.01-6.44,4.07-10.19,3.6c-3.74-0.47-7.18-2.23-10.54-3.96
				c-14.17-7.31-28.34-14.62-42.52-21.93l-3.04,9c0,0,33.86,26.99,85.74,36.55c0,0,33.71-26.63,45.64-50.24
				c11.94-23.61,30.49-71.99,30.49-71.99s-6.79-12.86-18.44-19.58c0,0-8.69-4.11-10.52-9.19c-1.83-5.08-18.16-13.85-18.16-13.85
				S310.55,242.65,298.93,240.29z"/>
		</g>
		<path style="fill:#999999;" d="M295.36,148.25c0,0,2.27-26.47-9.14-29.02c-11.41-2.55-17.82-12.98-17.82-12.98l-40.48,11.3
			l-6.28,24.34l4.04,12.33c0,0,0.84,11.42,1.03,17.08c0.19,5.65,0.02,10.04,4.29,16.86c4.27,6.82,8.25,13.67,17.5,19.6v15.59
			c0,0-5.72,16.69-2.56,26.93c0,0,1.89,1.99,7.12-1.01c5.23-3.01,27.55-17.92,35.34-33.5l2.42-39.61c0,0,6.43,0.99,9.2-4.86
			c4.06-5.73,3.9-12.42,2.33-17.86c-1.57-5.44-8.38-1.91-8.38-1.91L295.36,148.25z"/>
		<path style="fill:#737373;" d="M248.87,187.06c0,0,3.23-3.98,9.07-3.62c0,0,4.87-7.69,9.99-6.28c0,0,1.58,8.15-4.57,11.35
			C255.38,192.69,248.87,187.06,248.87,187.06z"/>
		<path style="fill:none;stroke:#263238;stroke-linecap:round;stroke-linejoin:round;stroke-miterlimit:10;" d="M233.83,114.18
			c0,0-9.68,12.73-9.13,26c0.55,13.28,2.49,22.68,1.94,32.92c-0.55,10.24,10.24,27.39,21.3,34.3c8.28,5.17,18.64,4.29,26.69-1.05
			c8.98-5.96,13.96-16.79,15.76-27.13c0.18-1.02,0.32-2.05,0.43-3.08"/>
		<path style="fill:none;stroke:#263238;stroke-linecap:round;stroke-linejoin:round;stroke-miterlimit:10;" d="M247.94,207.41
			c0,0,1.58,14.33,0,19.25c-1.73,5.39-3.82,17.94-2,23.61c1.82,5.68,35.87-18.16,42.46-34.51c0,0,0.9-31.77,3.17-39.71"/>
		<path style="fill:none;stroke:#263238;stroke-linecap:round;stroke-linejoin:round;stroke-miterlimit:10;" d="M247.03,186.71
			c0,0,15.49,4.38,21.82-11.61"/>
		<path style="fill:#263238;" d="M248.25,210.86c0,0,3.3,10.23,10.42,10.84c7.12,0.61,24.92-13.66,30.96-30.47v-8.42
			c0,0-5.02,21.96-19.65,26.02c-14.63,4.06-21.49-1.09-21.49-1.09L248.25,210.86z"/>
		<path style="fill:none;stroke:#263238;stroke-linecap:round;stroke-linejoin:round;stroke-miterlimit:10;" d="M267.94,177.16
			c-6.88-0.48-9.99,6.28-9.99,6.28c-5.86-0.71-9.07,3.62-9.07,3.62s4.88,5.02,12.69,2.3C269.37,186.64,267.94,177.16,267.94,177.16z
			"/>
		<path style="fill:none;stroke:#263238;stroke-linecap:round;stroke-linejoin:round;stroke-miterlimit:10;" d="M250.69,147.01
			c0.03,3.15,0,6.38-0.41,9.51c-0.38,2.83-1.68,5.53-2.77,8.2c-0.99,2.42-2.67,6.14-1.28,8.69c1.58,2.89,6.83,0,6.83,0"/>
		<path style="fill:none;stroke:#263238;stroke-linecap:round;stroke-linejoin:round;stroke-miterlimit:10;" d="M256.28,172.79
			c1.77,0.25,4.28,0.02,4.78-3.07"/>
		<path style="fill:none;stroke:#263238;stroke-width:2;stroke-linecap:round;stroke-linejoin:round;stroke-miterlimit:10;" d="
			M262.02,143.18c0,0,5.93-5.83,12.7,0"/>
		<path style="fill:none;stroke:#263238;stroke-width:2;stroke-linecap:round;stroke-linejoin:round;stroke-miterlimit:10;" d="
			M241.82,145.68c0,0-4.68-6.04-10.83,0"/>
		<path style="fill:none;stroke:#263238;stroke-linecap:round;stroke-linejoin:round;stroke-miterlimit:10;" d="M287.13,160.85
			c0,0,5.36-12.84,12.33-10.08c4.81,1.91,5.1,10.2,2.55,15.94c-2.55,5.74-3.83,11.69-12.33,8.4"/>
		<path style="fill:#263238;" d="M288.08,158.88c0,0-5.14-1.82-6.09-10.16c-0.95-8.34,4.17-16.69,2.28-22.75
			c-1.9-6.07-16.87-3.03-20.29-13.46c0,0-11.24,8.38-32.98,6.58c0,0-4.6,7.82-5.4,12.6c-0.77,4.63-1.31,14.51,0.08,22.54
			c0.04,0.26,0.09,0.51,0.14,0.76c1.57,8.15-6.21-11.08-6.02-19.29c0.19-8.21-4.74-18.64,1.71-26.41
			c6.45-7.77,30.12-12.32,34.78-15.93c4.66-3.6,13.76,6.07,24.19,9.67c10.43,3.6,19.15,7.85,17.82,22.7s0.08,16.84,0.13,24.66
			C298.43,150.38,293.59,148.56,288.08,158.88z"/>
		<path style="fill:#263238;" d="M268.37,154.03c0,2.02-0.77,3.66-1.72,3.66c-0.95,0-1.72-1.64-1.72-3.66
			c0-2.02,0.77-3.66,1.72-3.66C267.6,150.38,268.37,152.01,268.37,154.03z"/>
		<path style="fill:#263238;" d="M241.82,154.03c0,2.02-0.77,3.66-1.72,3.66c-0.95,0-1.72-1.64-1.72-3.66
			c0-2.02,0.77-3.66,1.72-3.66C241.05,150.38,241.82,152.01,241.82,154.03z"/>
		<path style="fill:none;stroke:#263238;stroke-linecap:round;stroke-linejoin:round;stroke-miterlimit:10;" d="M262.02,158.88
			c0,0,3.57,3.79,8.1,4.34"/>
		<path style="fill:none;stroke:#263238;stroke-linecap:round;stroke-linejoin:round;stroke-miterlimit:10;" d="M237.68,163.21
			c0,0,6.52-0.47,8.01-4.34"/>
		<path style="fill:none;stroke:#263238;stroke-linecap:round;stroke-linejoin:round;stroke-miterlimit:10;" d="M252.86,252.7
			c4.86-3.09,11.29-1.94,16.62,0.26c2.92,1.2,5.7,2.73,8.61,3.96c1.45,0.61,2.92,1.18,4.44,1.57c3.65,0.95,2.34-3.58,2.13-5.61
			c-0.3-2.9-0.51-5.82-0.86-8.72c-0.07-0.6-0.13-1.26,0.2-1.78c0.31-0.48,0.88-0.7,1.43-0.87c6.41-2.04,13.32-1.12,20.04-0.98
			c0.6,0.01,1.25,0.01,1.76-0.33c0.99-0.66,0.89-2.13,0.62-3.29c-2.31-9.88-10.46-19.71-19.32-24.65"/>
		<path style="fill:none;stroke:#263238;stroke-linecap:round;stroke-linejoin:round;stroke-miterlimit:10;" d="M248.5,213.9
			c-4.41,1.84-8.94,3.75-12.74,6.57c-1.37,1.01-2.65,2.14-3.79,3.42c-0.83,0.94-1.62,2.05-1.63,3.31c-0.01,1.19,0.67,2.18,1.59,2.97
			c0.66,0.56,1.44,1.02,2.2,1.38c1.84,0.87,3.95,1.72,4.78,3.57c0.17,0.39,0.28,0.83,0.2,1.25c-0.07,0.39-0.3,0.73-0.56,1.04
			c-1.52,1.85-4.2,3.28-4.03,5.67c0.13,1.85,1.98,3.04,3.66,3.82c1.68,0.79,3.6,1.67,4.17,3.44"/>
		<path style="fill:none;stroke:#FFFFFF;stroke-linecap:round;stroke-linejoin:round;stroke-miterlimit:10;" d="M222.39,120.13
			c0.64-4.02,4.83-6.58,8.85-7.24c4.02-0.65,8.14,0.03,12.2-0.35c6.76-0.62,13.17-4.35,17.06-9.91"/>
		<path style="fill:none;stroke:#FFFFFF;stroke-linecap:round;stroke-linejoin:round;stroke-miterlimit:10;" d="M226.94,108.89
			c7.26-4.29,17.46,0.17,24.54-4.4c2.08-1.34,3.64-3.33,5.15-5.29"/>
		<path style="fill:none;stroke:#263238;stroke-linecap:round;stroke-linejoin:round;stroke-miterlimit:10;" d="M319.55,273.02
			c-26.03,5.18-35.7,24.32-35.7,24.32l-30.8,48.51"/>
		<path style="fill:none;stroke:#263238;stroke-linecap:round;stroke-linejoin:round;stroke-miterlimit:10;" d="M297.57,267.77
			c2.18-1.99,4.59-3.69,7.25-4.94"/>
		<path style="fill:none;stroke:#263238;stroke-linecap:round;stroke-linejoin:round;stroke-miterlimit:10;" d="M279.39,304.38
			c0,0,3.29-17.52,12.71-30.42"/>
		<path style="fill:none;stroke:#263238;stroke-linecap:round;stroke-linejoin:round;stroke-miterlimit:10;" d="M199.23,341.76
			c0,0-1.35-53.67-5.98-61.86"/>
		<path style="fill:none;stroke:#263238;stroke-linecap:round;stroke-linejoin:round;stroke-miterlimit:10;" d="M307.83,236.93
			c0,0,15,8.98,21.66,17.46c6.66,8.48,22.4,14.08,26.03,25.51c0,0-20.74,65.31-42.46,88.93s-33.68,33.3-33.68,33.3
			s-52.25-9.08-86.14-37.54l12.12-27.85c0,0,34.17,4.32,47.68,9.12c13.51,4.8,26.33,33.86,26.33,33.86"/>
		<path style="fill:none;stroke:#263238;stroke-linecap:round;stroke-linejoin:round;stroke-miterlimit:10;" d="M253.05,345.85
			c0,0,23.92,4.64,31.69,15.54"/>
		<polyline style="fill:none;stroke:#263238;stroke-linecap:round;stroke-linejoin:round;stroke-miterlimit:10;" points="
			321.88,357.05 304.82,432.1 200.37,432.1 196.81,405.87 		"/>
		<path style="fill:none;stroke:#263238;stroke-linecap:round;stroke-linejoin:round;stroke-miterlimit:10;" d="M245.35,398.44
			c-5.77,11.82-13.38,9.21-13.38,9.21c-58.85,2.23-80.53-19.76-80.53-19.76s-2.98-30.93,8.57-72.67
			c11.55-41.75,33.24-78.29,33.24-78.29c9.61-6.39,31.05-11.38,37.1-12.7c1.03-0.22,1.62-0.34,1.62-0.34"/>
		<path style="fill:none;stroke:#263238;stroke-linecap:round;stroke-linejoin:round;stroke-miterlimit:10;" d="M231.97,407.65
			c0,0-3.12-0.51-2.32-21.13"/>
		<path style="fill:none;stroke:#263238;stroke-linecap:round;stroke-linejoin:round;stroke-miterlimit:10;" d="M194.84,365.9
			c0,0-14.7-5.18-32.91,7.43"/>
		<path style="fill:none;stroke:#263238;stroke-linecap:round;stroke-linejoin:round;stroke-miterlimit:10;" d="M165.23,361.39
			c0,0,19.26-5.73,28.01,3.45"/>
		<path style="fill:#999999;stroke:#263238;stroke-miterlimit:10;" d="M191.15,364.32l2.5,1.25l9.52-23.78
			c0,0-9.86-1.61-25.48,17.84C177.69,359.63,184.36,359.25,191.15,364.32z"/>
		<path style="fill:#999999;stroke:#263238;stroke-miterlimit:10;" d="M229.65,386.52l-0.05,10.56c0,0,13.48,4,23.45-1.74
			L229.65,386.52z"/>
		<g>
			<g>
				<path style="fill:#263238;" d="M302.66,240.45c0.01,0.19-0.01,0.39-0.06,0.58c-0.42,1.65-10.69,40.42-43.56,57.67
					c-0.3,0.16-0.61,0.23-0.93,0.23c-0.72,0-1.41-0.39-1.77-1.07c-0.51-0.98-0.14-2.19,0.84-2.7
					c29.97-15.73,40.57-51.58,41.49-54.88L302.66,240.45z"/>
			</g>
			<g>
				<path style="fill:#263238;" d="M231.93,230.17c-3.36,7.43-7.75,20.3-8.25,37.6c-0.02,1.05-0.04,2.12-0.04,3.21
					c0,0.27,0,0.54,0.01,0.81c-0.3,0.01-0.59,0.04-0.89,0.09c-1.08,0.16-2.13,0.49-3.11,0.97c-0.03-1.47-0.03-2.9,0-4.31
					c0.43-22.44,7.13-37.71,10.7-44.31c1.03-0.22,1.62-0.34,1.62-0.34c-0.83,0.94-1.62,2.05-1.63,3.31
					C230.33,228.39,231.01,229.38,231.93,230.17z"/>
			</g>
			<g>
				<path style="fill:#FFFFFF;stroke:#263238;stroke-linecap:round;stroke-linejoin:round;stroke-miterlimit:10;" d="M271.31,289.68
					c2.35,3.25,0.43,8.65-4.29,12.06c-4.72,3.41-10.45,3.53-12.8,0.28c-2.35-3.25-0.43-8.65,4.29-12.06
					C263.23,286.56,268.96,286.43,271.31,289.68z"/>
				<path style="fill:#FFFFFF;stroke:#263238;stroke-linecap:round;stroke-linejoin:round;stroke-miterlimit:10;" d="M265.49,287.75
					c1.66,2.3,0.3,6.12-3.03,8.52c-3.34,2.41-7.39,2.5-9.05,0.2c-1.66-2.3-0.3-6.12,3.03-8.52
					C259.78,285.54,263.83,285.46,265.49,287.75z"/>
			</g>
			<g>
				<g>
					<path style="fill:#263238;stroke:#263238;stroke-miterlimit:10;" d="M239.06,328.34c-0.89,0.66-2.14,0.46-2.79-0.42
						c-0.65-0.89-0.47-2.12,0.4-2.78c0.17-0.14,6.88-5.85,3.94-25.08c-0.25-1.63-0.57-3.37-0.97-5.2
						c-1.27-5.83-3.23-13.21-7.24-18.63c-2.29-3.1-5.37-4.65-8.75-4.44c-0.3,0.01-0.59,0.04-0.89,0.09
						c-1.08,0.16-2.13,0.49-3.11,0.97c-2.84,1.4-5.14,4.03-6.32,7.38l-0.36,1.04c-1.51,4.28-4.01,11.36-5.55,18.79
						c-1.6,7.85-2.14,16.08,0.7,21.83c1.61,3.25,4.15,5.4,7.76,6.57c1.05,0.34,1.62,1.47,1.28,2.52c-0.27,0.84-1.06,1.38-1.9,1.38
						c-0.2,0-0.41-0.03-0.62-0.1c-4.62-1.5-8.02-4.39-10.1-8.6c-3.2-6.47-2.78-15.28-1.16-23.6c1.54-8.01,4.21-15.57,5.82-20.12
						l0.36-1.03c1.77-5.03,5.51-8.82,10.09-10.37c0.81-0.28,1.65-0.49,2.51-0.62c0.51-0.07,1.02-0.12,1.52-0.15
						c4.62-0.18,8.91,1.98,11.94,6.09c4.46,6.03,6.58,13.93,7.93,20.15c0.47,2.14,0.83,4.15,1.1,6.05
						C247.78,321.64,239.45,328.06,239.06,328.34z"/>
				</g>
				<path style="fill:#263238;stroke:#263238;stroke-miterlimit:10;" d="M213.83,331.98c0,0,7.25,2.98,9.08,0
					c1.83-2.98,0.36-4.41-2.15-4.65c-2.51-0.24-7.52,0-7.52,0L213.83,331.98z"/>
				<path style="fill:#FFFFFF;stroke:#263238;stroke-linecap:round;stroke-linejoin:round;stroke-miterlimit:10;" d="M217.16,330.98
					c-0.27,0.84-1.06,1.38-1.9,1.38c-0.2,0-0.41-0.03-0.62-0.1c-4.62-1.5-8.02-4.39-10.1-8.6c-3.2-6.47-2.78-15.28-1.16-23.6h4.04
					c-1.6,7.85-2.14,16.08,0.7,21.83c1.61,3.25,4.15,5.4,7.76,6.57C216.93,328.8,217.5,329.93,217.16,330.98z"/>
				<path style="fill:#263238;stroke:#263238;stroke-miterlimit:10;" d="M232.38,326.17c-0.57,0.74-0.94,1.7-0.76,2.61
					c0.28,1.39,1.82,2.28,3.24,2.18c1.42-0.1,2.68-0.98,3.64-2.03c1.02-1.12,4.47-8.44,1.27-7.19
					C237.44,322.65,233.94,324.14,232.38,326.17z"/>
				<path style="fill:#FFFFFF;stroke:#263238;stroke-linecap:round;stroke-linejoin:round;stroke-miterlimit:10;" d="M239.06,328.34
					c-0.89,0.66-2.14,0.46-2.79-0.42c-0.65-0.89-0.47-2.12,0.4-2.78c0.17-0.14,6.88-5.85,3.94-25.08h4.04
					C247.78,321.64,239.45,328.06,239.06,328.34z"/>
			</g>
		</g>
		<g>
			<path style="opacity:0.2;fill:#FFFFFF;" d="M257,151.59c0,0,12.59-6.54,24.15,0c0,0,0.19,9.65-4.17,13.62
				c-1.55,1.41-8.66,1.65-11.34,1.41C254.72,165.63,257,151.59,257,151.59z"/>
			<path style="opacity:0.2;fill:#FFFFFF;" d="M249.1,151.59c0,0-12.59-6.54-24.15,0c0,0-0.19,9.65,4.17,13.62
				c1.55,1.41,8.66,1.65,11.34,1.41C251.38,165.63,249.1,151.59,249.1,151.59z"/>
			<path style="fill:none;stroke:#263238;stroke-miterlimit:10;" d="M257,151.59c0,0,12.59-6.54,24.15,0c0,0,0.19,9.65-4.17,13.62
				c-1.55,1.41-8.66,1.65-11.34,1.41C254.72,165.63,257,151.59,257,151.59z"/>
			<path style="fill:none;stroke:#263238;stroke-miterlimit:10;" d="M249.1,151.59c0,0-12.59-6.54-24.15,0c0,0-0.19,9.65,4.17,13.62
				c1.55,1.41,8.66,1.65,11.34,1.41C251.38,165.63,249.1,151.59,249.1,151.59z"/>
			<path style="fill:none;stroke:#263238;stroke-miterlimit:10;" d="M249.1,151.59c0,0,2.82-2.07,7.9,0"/>
			<line style="fill:none;stroke:#263238;stroke-miterlimit:10;" x1="281.16" y1="151.59" x2="286.42" y2="154.03"/>
		</g>
	</g>
</g>
<g id="Table">
	<g>
		<polyline style="fill:#FFFFFF;stroke:#263238;stroke-linecap:round;stroke-linejoin:round;stroke-miterlimit:10;" points="
			79.82,458.72 116.83,423.76 410.57,423.76 432.81,458.72 79.82,458.72 		"/>
		
			<rect x="79.82" y="458.72" style="fill:#263238;stroke:#263238;stroke-linecap:round;stroke-linejoin:round;stroke-miterlimit:10;" width="352.99" height="9.41"/>
	</g>
</g>
<g id="Notebook">
	<g>
		<polygon style="fill:#FFFFFF;stroke:#263238;stroke-miterlimit:10;" points="116.83,450.08 116.83,442.83 174.83,442.83 
			174.83,450.08 163.64,450.08 		"/>
		<polygon style="fill:#FFFFFF;stroke:#263238;stroke-linecap:round;stroke-linejoin:round;stroke-miterlimit:10;" points="
			116.83,442.83 151.09,419.85 196.81,420.93 174.83,442.83 		"/>
		<polygon style="fill:#FFFFFF;stroke:#263238;stroke-linecap:round;stroke-linejoin:round;stroke-miterlimit:10;" points="
			174.83,450.08 196.81,428.06 196.81,420.93 174.83,442.83 		"/>
		<path style="fill:none;stroke:#263238;stroke-width:2;stroke-linecap:round;stroke-linejoin:round;stroke-miterlimit:10;" d="
			M173.26,441.01c0,0-4.63,0.92-4.63,4.93c0,4.01,3.97,5.18,3.97,5.18"/>
		<path style="fill:none;stroke:#263238;stroke-width:2;stroke-linecap:round;stroke-linejoin:round;stroke-miterlimit:10;" d="
			M168.63,441.01c0,0-4.63,0.92-4.63,4.93c0,4.01,3.97,5.18,3.97,5.18"/>
		<path style="fill:none;stroke:#263238;stroke-width:2;stroke-linecap:round;stroke-linejoin:round;stroke-miterlimit:10;" d="
			M164,441.01c0,0-4.63,0.92-4.63,4.93c0,4.01,3.97,5.18,3.97,5.18"/>
		<path style="fill:none;stroke:#263238;stroke-width:2;stroke-linecap:round;stroke-linejoin:round;stroke-miterlimit:10;" d="
			M159.37,441.01c0,0-4.63,0.92-4.63,4.93c0,4.01,3.97,5.18,3.97,5.18"/>
		<path style="fill:none;stroke:#263238;stroke-width:2;stroke-linecap:round;stroke-linejoin:round;stroke-miterlimit:10;" d="
			M154.74,441.01c0,0-4.63,0.92-4.63,4.93c0,4.01,3.97,5.18,3.97,5.18"/>
		<path style="fill:none;stroke:#263238;stroke-width:2;stroke-linecap:round;stroke-linejoin:round;stroke-miterlimit:10;" d="
			M150.11,441.01c0,0-4.63,0.92-4.63,4.93c0,4.01,3.97,5.18,3.97,5.18"/>
		<path style="fill:none;stroke:#263238;stroke-width:2;stroke-linecap:round;stroke-linejoin:round;stroke-miterlimit:10;" d="
			M145.48,441.01c0,0-4.63,0.92-4.63,4.93c0,4.01,3.97,5.18,3.97,5.18"/>
		<path style="fill:none;stroke:#263238;stroke-width:2;stroke-linecap:round;stroke-linejoin:round;stroke-miterlimit:10;" d="
			M140.85,441.01c0,0-4.63,0.92-4.63,4.93c0,4.01,3.97,5.18,3.97,5.18"/>
		<path style="fill:none;stroke:#263238;stroke-width:2;stroke-linecap:round;stroke-linejoin:round;stroke-miterlimit:10;" d="
			M135.65,441.01c0,0-4.63,0.92-4.63,4.93c0,4.01,3.97,5.18,3.97,5.18"/>
		<path style="fill:none;stroke:#263238;stroke-width:2;stroke-linecap:round;stroke-linejoin:round;stroke-miterlimit:10;" d="
			M130.44,441.01c0,0-4.63,0.92-4.63,4.93c0,4.01,3.97,5.18,3.97,5.18"/>
		<path style="fill:none;stroke:#263238;stroke-width:2;stroke-linecap:round;stroke-linejoin:round;stroke-miterlimit:10;" d="
			M124.65,441.01c0,0-4.63,0.92-4.63,4.93c0,4.01,3.97,5.18,3.97,5.18"/>
		<path style="fill:none;stroke:#263238;stroke-width:0.75;stroke-linecap:round;stroke-linejoin:round;stroke-miterlimit:10;" d="
			M154.01,425.48c-3.17,1.74-5.74,4.54-7.21,7.85c4.18-1.29,7.53-4.38,10.72-7.38c-1.16,2.86-2.31,5.72-3.47,8.58
			c3.18-0.23,6.2-2.09,7.84-4.82c-1.14,0.41-1.68,1.96-1.04,2.99c2.9-0.42,4.75-3.23,6.21-5.76c0.26,1.41,0.37,2.85,0.31,4.29
			c2.41,0.35,4.91,0.03,7.15-0.91"/>
	</g>
</g>
<g id="Box">
	<g>
		
			<rect x="307.8" y="388.74" style="fill:#FFFFFF;stroke:#263238;stroke-linecap:round;stroke-linejoin:round;stroke-miterlimit:10;" width="100.81" height="55.35"/>
		<polygon style="fill:#FFFFFF;stroke:#263238;stroke-linecap:round;stroke-linejoin:round;stroke-miterlimit:10;" points="
			307.41,444.08 291.2,428.67 291.2,373.32 307.41,388.74 		"/>
		<polygon style="fill:#FFFFFF;stroke:#263238;stroke-linecap:round;stroke-linejoin:round;stroke-miterlimit:10;" points="
			408.61,388.74 392.4,373.32 291.6,373.32 307.8,388.74 		"/>
		<polygon style="fill:#92E3A9;stroke:#263238;stroke-miterlimit:10;" points="371.54,409.5 362.63,409.5 362.63,400.18 
			350.07,400.18 350.07,409.5 340.35,409.5 340.35,422.05 350.07,422.05 350.07,431.37 362.63,431.37 362.63,422.05 371.54,422.05 
					"/>
		
			<line style="fill:#FFFFFF;stroke:#263238;stroke-linecap:round;stroke-linejoin:round;stroke-miterlimit:10;" x1="357.33" y1="388.74" x2="341.12" y2="373.32"/>
	</g>
</g>
<g id="Medicine">
	<g>
		<g>
			
				<ellipse transform="matrix(0.7071 -0.7071 0.7071 0.7071 -57.4656 125.666)" style="fill:#FFFFFF;stroke:#263238;stroke-linecap:round;stroke-linejoin:round;stroke-miterlimit:10;" cx="122.96" cy="132.2" rx="30.11" ry="30.11"/>
			<path style="fill:#FFFFFF;" d="M147.97,127.59c0,4.02-2.54,7.78-6.55,9.13l-13.44,4.53l-16.37,5.53
				c-5.01,1.69-10.5-1.02-12.19-6.04c-0.34-1.01-0.5-2.04-0.5-3.05c0-4.01,2.54-7.78,6.54-9.14l14.87-5.01l14.94-5.04
				c5.02-1.7,10.5,1.02,12.19,6.03C147.8,125.54,147.97,126.58,147.97,127.59z"/>
			<path style="fill:#92E3A9;" d="M147.97,127.59c0,4.02-2.54,7.78-6.55,9.13l-13.44,4.53c-0.58-9.33-5.28-15.29-7.65-17.71
				l14.94-5.04c5.02-1.7,10.5,1.02,12.19,6.03C147.8,125.54,147.97,126.58,147.97,127.59z"/>
			<path style="fill:none;stroke:#263238;stroke-linecap:round;stroke-linejoin:round;stroke-miterlimit:10;" d="M147.97,127.59
				c0,4.02-2.54,7.78-6.55,9.13l-13.44,4.53l-16.37,5.53c-5.01,1.69-10.5-1.02-12.19-6.04c-0.34-1.01-0.5-2.04-0.5-3.05
				c0-4.01,2.54-7.78,6.54-9.14l14.87-5.01l14.94-5.04c5.02-1.7,10.5,1.02,12.19,6.03C147.8,125.54,147.97,126.58,147.97,127.59z"/>
			<path style="fill:none;stroke:#263238;stroke-linecap:round;stroke-linejoin:round;stroke-miterlimit:10;" d="M127.98,141.25
				c0,0,0.14-9.6-7.65-17.71"/>
			<path style="fill:none;stroke:#FFFFFF;stroke-linecap:round;stroke-linejoin:round;stroke-miterlimit:10;" d="M144.78,123.95
				c0.56,0.93,0.92,2.08,0.92,3.52"/>
			<path style="fill:none;stroke:#FFFFFF;stroke-linecap:round;stroke-linejoin:round;stroke-miterlimit:10;" d="M124.15,125.01
				l11.97-3.95c2.19-0.72,4.62-0.49,6.54,0.73"/>
		</g>
		<g>
			
				<ellipse transform="matrix(0.9209 -0.3898 0.3898 0.9209 0.1848 128.1376)" style="fill:#FFFFFF;stroke:#263238;stroke-linecap:round;stroke-linejoin:round;stroke-miterlimit:10;" cx="315.81" cy="63.61" rx="30.11" ry="30.11"/>
			<g>
				<path style="fill:#92E3A9;" d="M326.19,76.23l-26.26-8.79c-4.52-1.51-6.98-6.45-5.47-10.97v0c1.51-4.52,6.45-6.98,10.97-5.47
					l26.26,8.79c4.52,1.51,6.98,6.45,5.47,10.97l0,0C335.65,75.28,330.71,77.74,326.19,76.23z"/>
				
					<line style="fill:none;stroke:#263238;stroke-linecap:round;stroke-linejoin:round;stroke-miterlimit:10;" x1="306.95" y1="66.74" x2="311.35" y2="56.23"/>
				
					<line style="fill:none;stroke:#263238;stroke-linecap:round;stroke-linejoin:round;stroke-miterlimit:10;" x1="321.42" y1="71.55" x2="325.8" y2="61.07"/>
				<circle style="fill:#263238;" cx="310.58" cy="66.47" r="0.89"/>
				<path style="fill:#263238;" d="M319.33,69.09c0,0.49-0.4,0.89-0.89,0.89c-0.49,0-0.89-0.4-0.89-0.89c0-0.49,0.4-0.89,0.89-0.89
					C318.93,68.2,319.33,68.6,319.33,69.09z"/>
				<circle style="fill:#263238;" cx="314.03" cy="58.55" r="0.89"/>
				<path style="fill:#263238;" d="M322.65,61.09c0,0.49-0.4,0.89-0.89,0.89c-0.49,0-0.89-0.4-0.89-0.89s0.4-0.89,0.89-0.89
					C322.25,60.2,322.65,60.6,322.65,61.09z"/>
				<path style="fill:none;stroke:#263238;stroke-linecap:round;stroke-linejoin:round;stroke-miterlimit:10;" d="M326.19,76.23
					l-26.26-8.79c-4.52-1.51-6.98-6.45-5.47-10.97v0c1.51-4.52,6.45-6.98,10.97-5.47l26.26,8.79c4.52,1.51,6.98,6.45,5.47,10.97l0,0
					C335.65,75.28,330.71,77.74,326.19,76.23z"/>
			</g>
		</g>
		<g>
			
				<circle style="fill:#FFFFFF;stroke:#263238;stroke-linecap:round;stroke-linejoin:round;stroke-miterlimit:10;" cx="202.14" cy="61.99" r="30.11"/>
			<g>
				<path style="fill:#FFFFFF;stroke:#263238;stroke-linecap:round;stroke-linejoin:round;stroke-miterlimit:10;" d="M219.39,62.76
					V75.1c0,3.13-1.99,5.67-4.45,5.67h-25.6c-2.46,0-4.45-2.54-4.45-5.67V62.76c0-3.13,1.99-5.67,4.45-5.67h4.21v-7.16h17.03v7.16
					h4.36C217.39,57.09,219.39,59.63,219.39,62.76z"/>
				<rect x="184.89" y="64.18" style="fill:#92E3A9;stroke:#263238;stroke-miterlimit:10;" width="34.49" height="7.65"/>
				<g>
					<path style="fill:#92E3A9;stroke:#263238;stroke-miterlimit:10;" d="M213.92,52.52h-23.41v-5.59c0-2.97,2.41-5.38,5.38-5.38
						h12.64c2.97,0,5.38,2.41,5.38,5.38V52.52z"/>
					
						<line style="fill:none;stroke:#263238;stroke-linecap:round;stroke-linejoin:round;stroke-miterlimit:10;" x1="194.6" y1="41.88" x2="194.6" y2="52.52"/>
					
						<line style="fill:none;stroke:#263238;stroke-linecap:round;stroke-linejoin:round;stroke-miterlimit:10;" x1="200.13" y1="41.55" x2="200.13" y2="52.52"/>
					
						<line style="fill:none;stroke:#263238;stroke-linecap:round;stroke-linejoin:round;stroke-miterlimit:10;" x1="205.66" y1="41.55" x2="205.66" y2="52.52"/>
					
						<line style="fill:none;stroke:#263238;stroke-linecap:round;stroke-linejoin:round;stroke-miterlimit:10;" x1="211.19" y1="42.17" x2="211.19" y2="52.52"/>
				</g>
			</g>
		</g>
		<g>
			<g>
				
					<ellipse transform="matrix(0.1618 -0.9868 0.9868 0.1618 -138.9292 279.8856)" style="fill:#FFFFFF;stroke:#263238;stroke-linecap:round;stroke-linejoin:round;stroke-miterlimit:10;" cx="95.29" cy="221.72" rx="30.11" ry="30.11"/>
				<g>
					
						<ellipse transform="matrix(0.4275 -0.904 0.904 0.4275 -146.4894 212.5235)" style="fill:#92E3A9;stroke:#263238;stroke-linecap:round;stroke-linejoin:round;stroke-miterlimit:10;" cx="94.55" cy="221.92" rx="13.89" ry="17.71"/>
					
						<ellipse transform="matrix(0.4275 -0.904 0.904 0.4275 -143.721 212.156)" style="fill:#92E3A9;stroke:#263238;stroke-linecap:round;stroke-linejoin:round;stroke-miterlimit:10;" cx="95.64" cy="219.55" rx="13.03" ry="17.71"/>
					
						<line style="fill:#FFFFFF;stroke:#263238;stroke-linecap:round;stroke-linejoin:round;stroke-miterlimit:10;" x1="100.75" y1="210.66" x2="89.82" y2="226.03"/>
				</g>
			</g>
			<path style="fill:none;stroke:#FFFFFF;stroke-linecap:round;stroke-linejoin:round;stroke-miterlimit:10;" d="M94.17,208.17
				c2.46,0.32,4.31,0.97,4.31,0.97"/>
			<path style="fill:none;stroke:#FFFFFF;stroke-linecap:round;stroke-linejoin:round;stroke-miterlimit:10;" d="M84.46,222.64
				c0,0-5.59-6.11-0.13-11.99c1.26-1.36,2.91-2.08,4.64-2.41"/>
		</g>
		<g>
			
				<ellipse transform="matrix(0.1617 -0.9868 0.9868 0.1617 126.9262 592.8586)" style="fill:#FFFFFF;stroke:#263238;stroke-linecap:round;stroke-linejoin:round;stroke-miterlimit:10;" cx="412.42" cy="221.72" rx="30.11" ry="30.11"/>
			<g>
				<path style="fill:#92E3A9;stroke:#263238;stroke-miterlimit:10;" d="M429.73,224.76c-0.23,0.33-0.46,0.67-0.7,1
					c-4.51,6.25-11.46,12.08-16.61,13.23v-0.08c-5.01-1.12-11.73-6.67-16.24-12.73c-0.25-0.33-0.49-0.67-0.72-1
					c-4.34-6.22-6.17-12.75-1.34-15.45c9.82-5.48,18.3,6.27,18.3,6.27s8.5-11.66,18.3-6.19
					C435.42,212.43,433.81,218.69,429.73,224.76z"/>
				<g>
					<path style="fill:#FFFFFF;" d="M429.73,224.76c-0.23,0.33-0.46,0.67-0.7,1h-2.48l-2.84,3.75l-1.93-11.12l-2.98,7.56h-7.09
						l-3.65,6.09l-2.8-12.25l-3.61,6.39h-5.47c-0.25-0.33-0.49-0.67-0.72-1h5.61l4.59-8.13l2.82,12.35l2.67-4.45h6.97l4.04-10.24
						l2.14,12.36l1.75-2.31H429.73z"/>
				</g>
			</g>
		</g>
		<g>
			
				<circle style="fill:#FFFFFF;stroke:#263238;stroke-linecap:round;stroke-linejoin:round;stroke-miterlimit:10;" cx="383.46" cy="132.54" r="30.11"/>
			<g>
				<g>
					<path style="fill:#FFFFFF;stroke:#263238;stroke-linecap:round;stroke-linejoin:round;stroke-miterlimit:10;" d="M381.2,118.62
						c0.29,0.65-1.51,2.1-4.04,3.22c-2.52,1.13-4.8,1.51-5.09,0.86c-0.29-0.65,1.52-2.1,4.04-3.22
						C378.62,118.35,380.9,117.97,381.2,118.62z"/>
					<polygon style="fill:#FFFFFF;stroke:#263238;stroke-linecap:round;stroke-linejoin:round;stroke-miterlimit:10;" points="
						394.75,146.55 385.74,150.91 377.66,134.27 372.08,122.76 381.09,118.4 386.53,129.62 					"/>
					<path style="fill:#92E3A9;stroke:#263238;stroke-linecap:round;stroke-linejoin:round;stroke-miterlimit:10;" d="M373.75,126.2
						c-0.02-0.04,3.91-1.81,3.91-1.81"/>
					<path style="fill:#92E3A9;stroke:#263238;stroke-linecap:round;stroke-linejoin:round;stroke-miterlimit:10;" d="
						M375.45,129.82c-0.02-0.04,3.91-1.81,3.91-1.81"/>
					<polygon style="fill:#FFFFFF;stroke:#263238;stroke-linecap:round;stroke-linejoin:round;stroke-miterlimit:10;" points="
						389.2,149.24 393.84,155.34 391.52,148.11 					"/>
					<path style="fill:#92E3A9;stroke:#263238;stroke-miterlimit:10;" d="M394.75,146.55L394.75,146.55
						c-2.11,2.12-4.8,3.55-7.73,4.12l-1.28,0.25l-8.07-16.64l8.87-4.65L394.75,146.55z"/>
					
						<line style="fill:#92E3A9;stroke:#263238;stroke-linecap:round;stroke-linejoin:round;stroke-miterlimit:10;" x1="379.36" y1="137.43" x2="383.04" y2="135.73"/>
					<path style="fill:#92E3A9;stroke:#263238;stroke-linecap:round;stroke-linejoin:round;stroke-miterlimit:10;" d="M381.38,141.3
						c-0.02-0.04,3.61-1.66,3.61-1.66"/>
				</g>
				<polygon style="fill:#FFFFFF;stroke:#263238;stroke-linecap:round;stroke-linejoin:round;stroke-miterlimit:10;" points="
					375.21,121.25 372.35,114.84 374.59,113.57 377.66,120.06 				"/>
				<g>
					<path style="fill:#FFFFFF;stroke:#263238;stroke-linecap:round;stroke-linejoin:round;stroke-miterlimit:10;" d="
						M380.09,112.79l-0.67-1.51l-12,5.37l0.67,1.51c0.28,0.63,3.2-0.06,6.51-1.55C377.91,115.14,380.37,113.42,380.09,112.79z"/>
					<path style="fill:#FFFFFF;stroke:#263238;stroke-linecap:round;stroke-linejoin:round;stroke-miterlimit:10;" d="
						M379.41,111.29c-0.28-0.63-3.2,0.06-6.51,1.55c-3.31,1.48-5.77,3.2-5.49,3.83c0.28,0.63,3.2-0.06,6.51-1.55
						C377.24,113.63,379.69,111.92,379.41,111.29z"/>
				</g>
			</g>
		</g>
	</g>
</g>
</svg>
