<svg width="54" height="54" viewBox="0 0 54 54" fill="none" xmlns="http://www.w3.org/2000/svg">
<path d="M27 3.59998L0 16.2L7.2 19.44V25.56C5.04 26.28 3.6 28.44 3.6 30.6C3.6 32.76 5.04 34.92 7.2 35.64V36L3.96 43.56C2.88 46.8 3.6 50.4 9 50.4C14.4 50.4 15.12 46.8 14.04 43.56L10.8 36C12.96 34.92 14.4 33.12 14.4 30.6C14.4 28.08 12.96 26.28 10.8 25.56V21.24L27 28.8L54 16.2L27 3.59998ZM42.84 27L26.64 34.2L18 30.24V30.6C18 33.12 16.92 35.28 15.12 37.08L17.28 42.12V42.48C17.64 43.92 18 45.36 17.64 46.8C20.16 47.88 23.04 48.6 26.64 48.6C38.52 48.6 42.84 41.4 42.84 37.8V27Z" fill="black"/>
</svg>
