<svg width="54" height="54" viewBox="0 0 54 54" fill="none" xmlns="http://www.w3.org/2000/svg">
<path d="M5.87027 14.0985C6.28201 13.545 6.82427 12.7957 7.25852 12.2603C8.55902 10.7842 8.72777 10.5908 9.91127 9.4995C10.2623 9.2115 10.6785 8.865 11.0858 8.53875C8.08202 11.0813 7.69951 13.896 10.4558 15.6353C10.4513 15.6353 10.4513 15.6353 10.4513 15.6398C14.3055 17.9618 22.752 17.46 29.4165 14.4855C35.8718 11.6055 38.2545 7.48575 35.0685 5.03775C32.2718 4.5135 28.9373 4.45275 25.4093 4.92525L25.0425 4.32L25.3463 3.3165C27.4208 3.12975 29.3918 3.17475 31.0928 3.465C31.5045 3.53475 32.0468 3.654 32.4518 3.7395C33.2348 3.93075 33.66 4.0455 34.1708 4.20975C34.6928 4.365 35.1383 4.52025 35.9145 4.80825C36.675 5.1075 37.0035 5.2425 37.6133 5.54625C38.2961 5.8578 38.9596 6.21018 39.6 6.6015C44.676 9.79425 41.5193 15.6195 32.562 19.611C23.6295 23.589 12.2468 24.2145 7.14602 21.06C7.14377 21.0555 7.13701 21.051 7.12351 21.0465H7.13252C4.34702 19.2825 4.05452 16.722 5.87027 14.0985ZM29.1105 36.4185L29.0385 32.832L26.4893 29.997C18.0675 31.905 9.78977 31.4955 5.18627 28.7843C5.17052 28.7663 5.13226 28.7483 5.11651 28.7302C2.51101 27.126 1.86752 25.056 2.06327 22.806C1.45352 26.0977 1.40402 27.2857 1.49177 30.1027C1.59977 31.8667 2.61902 33.4935 4.66877 34.776L4.68451 34.794C9.59177 37.845 19.8158 38.5065 29.1105 36.4185ZM39.7418 40.5247C27.855 45.2925 12.978 45.5737 6.51602 41.1615C7.21387 42.8669 8.16342 44.4581 9.33301 45.882C15.264 49.932 28.9193 49.6732 39.825 45.297C46.2083 42.7388 50.2358 39.3345 51.2933 36.144L51.5903 35.1833C52.2945 32.7487 52.4273 30.7215 52.5398 28.917C52.4115 32.8343 47.7968 37.2892 39.7418 40.5247ZM13.5023 49.707C13.8758 50.0625 15.0503 51.5048 21.0015 53.0978C22.6103 53.4533 26.6603 54.594 34.1415 52.9358L34.1865 52.254L33.5948 51.327C26.6535 52.9695 18.9428 52.4205 13.5023 49.707ZM30.6788 21.3368L36.999 26.127C36.999 26.127 38.3513 27.1012 37.0755 27.7852C35.8043 28.4625 32.5395 30.1208 32.5395 30.1208L29.3153 28.917L27.6975 29.637L30.5505 32.1143L30.573 35.9685L32.2493 35.2238L33.3608 31.968C33.3608 31.968 36.774 30.654 38.1285 30.159C39.4898 29.6753 39.3075 31.3313 39.3075 31.3313L38.637 39.231L40.8645 38.241L44.532 27.5828C44.532 27.5828 46.476 26.6378 47.844 25.8075C49.2098 24.9773 49.6778 23.6003 49.6778 23.6003C49.6778 23.6003 48.3458 23.0265 46.8113 23.4878C45.2768 23.9445 43.2765 24.759 43.2765 24.759L32.8995 20.3512L30.6788 21.3368ZM17.307 6.18075L21.5978 9.5985L22.77 9.423L20.4345 6.35625C20.4345 6.35625 19.926 5.72175 20.61 5.571C21.2985 5.418 23.04 5.0625 23.04 5.0625L24.3495 6.10875L25.2315 5.97825L24.2325 4.38975L24.759 2.628L23.9063 2.75175L22.896 4.09275C22.896 4.09275 21.123 4.25925 20.4255 4.31775C19.7235 4.37175 20.025 3.618 20.025 3.618L21.3705 0L20.1915 0.17325L17.0865 4.6935C17.0865 4.6935 16.0515 4.8825 15.3023 5.09625C14.5508 5.30775 14.1548 5.88825 14.1548 5.88825C14.1548 5.88825 14.706 6.33375 15.4823 6.318C16.2653 6.30225 17.307 6.18075 17.307 6.18075ZM38.5133 50.0962L35.7368 48.645L35.0978 48.8677L36.7425 50.3392C36.7425 50.3392 37.0935 50.6385 36.7245 50.7982C36.3555 50.9557 35.415 51.3428 35.415 51.3428L34.6388 50.9963L34.1775 51.1628L34.8233 51.8512L34.7603 52.857L35.2418 52.6905L35.6018 51.8737C35.6018 51.8737 36.5783 51.5835 36.9675 51.48C37.3545 51.3742 37.2668 51.8288 37.2668 51.8288L36.9 54L37.5413 53.7772L38.799 50.9062C38.799 50.9062 39.3548 50.688 39.753 50.4877C40.1513 50.2875 40.3088 49.9185 40.3088 49.9185C40.3088 49.9185 39.9555 49.725 39.519 49.8218C39.0803 49.914 38.5133 50.0962 38.5133 50.0962Z" fill="black"/>
</svg>
