<svg width="20" height="22" viewBox="0 0 20 22" fill="none" xmlns="http://www.w3.org/2000/svg">
<g clip-path="url(#clip0_78_92)">
<path d="M16.7308 15.6614C17.1228 15.8574 17.4762 16.098 17.791 16.3831C18.1059 16.6682 18.3732 16.986 18.5929 17.3365C18.8127 17.6869 18.985 18.0671 19.1097 18.477C19.2345 18.8868 19.2968 19.3086 19.2968 19.7422H18.1564C18.1564 19.2729 18.0673 18.8304 17.8891 18.4146C17.7109 17.9988 17.4673 17.6364 17.1584 17.3276C16.8496 17.0187 16.4842 16.7722 16.0625 16.588C15.6408 16.4039 15.1982 16.3148 14.7349 16.3207C14.2597 16.3207 13.8172 16.4098 13.4073 16.588C12.9975 16.7662 12.6351 17.0098 12.3203 17.3187C12.0055 17.6275 11.759 17.9928 11.5808 18.4146C11.4026 18.8363 11.3135 19.2789 11.3135 19.7422H10.173C10.173 19.3086 10.2324 18.8868 10.3512 18.477C10.47 18.0671 10.6423 17.6869 10.868 17.3365C11.0937 16.986 11.364 16.6682 11.6788 16.3831C11.9936 16.098 12.347 15.8574 12.7391 15.6614C12.2936 15.3406 11.9461 14.9397 11.6966 14.4585C11.4471 13.9774 11.3194 13.4577 11.3135 12.8993C11.3135 12.43 11.4026 11.9875 11.5808 11.5717C11.759 11.1559 12.0025 10.7936 12.3114 10.4847C12.6203 10.1758 12.9826 9.9293 13.3984 9.74516C13.8142 9.56102 14.2597 9.47192 14.7349 9.47786C15.2042 9.47786 15.6467 9.56696 16.0625 9.74516C16.4783 9.92336 16.8406 10.1669 17.1495 10.4758C17.4584 10.7847 17.7049 11.15 17.8891 11.5717C18.0732 11.9934 18.1623 12.436 18.1564 12.8993C18.1564 13.4577 18.0316 13.9774 17.7821 14.4585C17.5327 14.9397 17.1822 15.3406 16.7308 15.6614ZM14.7349 15.1803C15.0497 15.1803 15.3438 15.1209 15.617 15.0021C15.8903 14.8833 16.1338 14.7199 16.3476 14.512C16.5615 14.3041 16.7248 14.0635 16.8377 13.7903C16.9505 13.5171 17.0099 13.2201 17.0159 12.8993C17.0159 12.5845 16.9565 12.2904 16.8377 12.0172C16.7189 11.744 16.5555 11.5004 16.3476 11.2866C16.1397 11.0727 15.8992 10.9094 15.6259 10.7965C15.3527 10.6837 15.0557 10.6243 14.7349 10.6183C14.4201 10.6183 14.1261 10.6777 13.8528 10.7965C13.5796 10.9153 13.3361 11.0787 13.1222 11.2866C12.9084 11.4945 12.745 11.7351 12.6322 12.0083C12.5193 12.2815 12.4599 12.5785 12.454 12.8993C12.454 13.2141 12.5134 13.5081 12.6322 13.7814C12.751 14.0546 12.9143 14.2982 13.1222 14.512C13.3301 14.7258 13.5707 14.8892 13.8439 15.0021C14.1172 15.1149 14.4142 15.1743 14.7349 15.1803ZM10.173 15.8931C9.98293 16.1128 9.81067 16.3415 9.65623 16.5791C9.5018 16.8167 9.36518 17.0721 9.24638 17.3454C8.93156 17.0187 8.5514 16.7662 8.1059 16.588C7.6604 16.4098 7.20896 16.3207 6.75158 16.3207H3.33015V4.91594H2.18967V17.4612H9.20183C9.11867 17.6454 9.05036 17.8325 8.9969 18.0225C8.94344 18.2126 8.89889 18.4057 8.86325 18.6017H1.04919V3.77546H3.33015V2.63498H6.75158C7.2743 2.63498 7.77623 2.71517 8.25737 2.87555C8.73851 3.03593 9.18698 3.2765 9.60277 3.59726C10.0126 3.2765 10.4581 3.03593 10.9393 2.87555C11.4204 2.71517 11.9253 2.63498 12.454 2.63498H15.8754V3.77546H18.1564V9.47786C17.8118 9.13928 17.4317 8.85713 17.0159 8.63141V4.91594H15.8754V8.20373C15.6853 8.15027 15.4952 8.11166 15.3052 8.0879C15.1151 8.06414 14.925 8.05226 14.7349 8.05226V3.77546H12.454C12.0382 3.77546 11.6343 3.84674 11.2422 3.9893C10.8502 4.13186 10.4938 4.34273 10.173 4.62191V15.8931ZM9.03254 15.7772V4.62191C8.71178 4.34867 8.35538 4.14077 7.96334 3.99821C7.5713 3.85565 7.16738 3.7814 6.75158 3.77546H4.47063V15.1803H6.75158C7.14956 15.1803 7.5416 15.2307 7.9277 15.3317C8.3138 15.4327 8.68208 15.5812 9.03254 15.7772Z" fill="black"/>
</g>
<defs>
<clipPath id="clip0_78_92">
<rect width="18.2476" height="18.2477" fill="white" transform="translate(1.04919 1.4945)"/>
</clipPath>
</defs>
</svg>
