<?xml version="1.0" encoding="utf-8"?>
<!-- Generator: Adobe Illustrator 24.3.0, SVG Export Plug-In . SVG Version: 6.00 Build 0)  -->
<svg version="1.1" xmlns="http://www.w3.org/2000/svg" xmlns:xlink="http://www.w3.org/1999/xlink" x="0px" y="0px"
	 viewBox="0 0 421.33 373.33" style="enable-background:new 0 0 421.33 373.33;" xml:space="preserve">
<g id="BACKGROUND">
	<g id="XMLID_58_" style="opacity:0.2;">
		<path id="XMLID_76_" style="fill:#AEBDD2;" d="M22.99,138.68c15.8,44.7-8.51,93.11-8.7,140.52c-0.08,18.5,4.58,38.65,19.19,50.01
			c9.79,7.61,22.59,10.11,34.95,11.14c23.22,1.92,46.79-0.59,69.08-7.36c12.32-3.74,24.29-8.78,36.95-11.12
			c46.79-8.66,92.24,20.38,139.73,23.44c23.18,1.49,47.13-3.58,66.45-16.48c19.32-12.9,33.54-34.01,35.9-57.12
			c3.2-31.41-14.67-60.68-31.82-87.19c-12.72-19.66-25.45-39.32-38.17-58.98c-8.61-13.3-17.24-26.64-27.38-38.82
			c-29.1-34.94-69.97-59.09-113.6-71.88S115.57,0.2,70.36,5.15C56.2,6.7,41.5,9.14,29.97,17.51C16.07,27.6,8.96,45.01,7.44,62.12
			S19.63,121.83,22.99,138.68"/>
	</g>
</g>
<g id="OBJECTS">
	
		<line id="XMLID_57_" style="opacity:0.2;fill:none;stroke:#AEBDD2;stroke-width:4;stroke-linecap:round;stroke-miterlimit:10;" x1="12.99" y1="361.87" x2="390.95" y2="361.87"/>
	<g id="XMLID_59_">
		<polygon id="XMLID_34_" style="fill:#00576B;" points="267.63,39.54 156.54,39.54 156.54,346.24 267.63,346.24 378.71,346.24 
			378.71,39.54 		"/>
		<polygon id="XMLID_32_" style="fill:#FFFFFF;" points="332.39,330.79 171.99,330.79 171.99,54.98 363.27,54.98 363.27,299.91 		
			"/>
		<polygon id="XMLID_31_" style="fill:#EBEBEB;" points="332.39,299.91 363.27,299.91 332.39,330.79 		"/>
		
			<rect id="XMLID_33_" x="202.87" y="151.85" style="fill:none;stroke:#858585;stroke-width:2.12;stroke-miterlimit:10;" width="33.32" height="33.32"/>
		
			<rect id="XMLID_39_" x="202.87" y="200.61" style="fill:none;stroke:#858585;stroke-width:2.12;stroke-miterlimit:10;" width="33.32" height="33.32"/>
		
			<rect id="XMLID_42_" x="202.87" y="103.09" style="fill:none;stroke:#858585;stroke-width:2.12;stroke-miterlimit:10;" width="33.32" height="33.32"/>
		
			<polyline id="XMLID_36_" style="fill:none;stroke:#B51F2B;stroke-width:4.24;stroke-linecap:round;stroke-miterlimit:10;" points="
			209.52,118.76 218.77,128.02 243.7,103.09 		"/>
		
			<polyline id="XMLID_41_" style="fill:none;stroke:#B51F2B;stroke-width:4.24;stroke-linecap:round;stroke-miterlimit:10;" points="
			209.52,167.52 218.77,176.78 243.7,151.85 		"/>
		
			<polyline id="XMLID_43_" style="fill:none;stroke:#B51F2B;stroke-width:4.24;stroke-linecap:round;stroke-miterlimit:10;" points="
			209.52,216.28 218.77,225.54 243.7,200.61 		"/>
		<rect id="XMLID_40_" x="256.73" y="107.29" style="fill:#858585;" width="75.66" height="3.56"/>
		<rect id="XMLID_46_" x="256.73" y="114.41" style="fill:#858585;" width="75.66" height="3.56"/>
		<rect id="XMLID_48_" x="256.73" y="121.53" style="fill:#858585;" width="75.66" height="3.56"/>
		<rect id="XMLID_49_" x="256.73" y="128.65" style="fill:#858585;" width="37.83" height="3.56"/>
		<rect id="XMLID_51_" x="256.73" y="156.05" style="fill:#858585;" width="75.66" height="3.56"/>
		<rect id="XMLID_50_" x="256.73" y="163.17" style="fill:#858585;" width="75.66" height="3.56"/>
		<rect id="XMLID_47_" x="256.73" y="170.29" style="fill:#858585;" width="75.66" height="3.56"/>
		<rect id="XMLID_45_" x="256.73" y="177.41" style="fill:#858585;" width="57.96" height="3.56"/>
		<rect id="XMLID_55_" x="256.73" y="204.81" style="fill:#858585;" width="75.66" height="3.56"/>
		<rect id="XMLID_54_" x="256.73" y="211.93" style="fill:#858585;" width="75.66" height="3.56"/>
		<rect id="XMLID_53_" x="256.73" y="219.05" style="fill:#858585;" width="75.66" height="3.56"/>
		<rect id="XMLID_52_" x="256.73" y="226.17" style="fill:#858585;" width="37.83" height="3.56"/>
		
			<rect id="XMLID_69_" x="202.87" y="249.37" style="fill:none;stroke:#858585;stroke-width:2.12;stroke-miterlimit:10;" width="33.32" height="33.32"/>
		
			<polyline id="XMLID_67_" style="fill:none;stroke:#B51F2B;stroke-width:4.24;stroke-linecap:round;stroke-miterlimit:10;" points="
			209.52,265.04 218.77,274.3 243.7,249.37 		"/>
		<rect id="XMLID_65_" x="256.73" y="253.57" style="fill:#858585;" width="75.66" height="3.56"/>
		<rect id="XMLID_64_" x="256.73" y="260.69" style="fill:#858585;" width="75.66" height="3.56"/>
		<rect id="XMLID_63_" x="256.73" y="267.81" style="fill:#858585;" width="75.66" height="3.56"/>
		<rect id="XMLID_62_" x="256.73" y="274.93" style="fill:#858585;" width="57.96" height="3.56"/>
		<path id="XMLID_107_" style="fill:none;" d="M301.62,28.41c1.02,0,1.86-0.83,1.86-1.86c0-1.02-0.83-1.85-1.86-1.85h-9.04v3.71
			H301.62z"/>
		<path id="XMLID_108_" style="fill:none;" d="M281.68,26.56c0,1.02,0.83,1.86,1.86,1.86h9.04V24.7h-9.04
			C282.51,24.7,281.68,25.54,281.68,26.56z"/>
		<path id="XMLID_109_" style="fill:#AEBDD2;" d="M258.59,28.41c-1.02,0-1.86-0.83-1.86-1.86c0-1.02,0.83-1.85,1.86-1.85h9.04v-3.04
			h-14.7c-3.9,0-7.09,3.19-7.09,7.1v1.84h-14.08c-9.2,0-16.66,7.46-16.66,16.66v16.66h52.54V28.41H258.59z"/>
		<path id="XMLID_110_" style="fill:#BECADB;" d="M320.17,47.26c0-9.2-7.46-16.66-16.66-16.66h-14.08v-1.84c0-3.9-3.19-7.1-7.1-7.1
			h-14.7v3.04h9.04c1.02,0,1.85,0.83,1.85,1.85c0,1.02-0.83,1.86-1.85,1.86h-9.04v35.51h52.54V47.26z"/>
	</g>
	<g id="XMLID_81_">
		<g id="XMLID_56_">
			
				<rect id="XMLID_86_" x="85.59" y="122.9" transform="matrix(0.9895 -0.1445 0.1445 0.9895 -18.6133 14.8708)" style="fill:#FFA581;" width="15" height="25.4"/>
			<path id="XMLID_61_" style="fill:#FFA581;" d="M108.4,110.52c0,18.25-7.8,25.08-17.43,25.08c-9.63,0-17.43-8.09-17.43-25.08
				c0-13.85,7.8-21.05,17.43-21.05C100.6,89.47,108.4,96.67,108.4,110.52z"/>
			<path id="XMLID_38_" style="fill:#FFFFFF;" d="M84.62,123.84c0.33,2.71,3.19,4.68,6.53,4.45c3.33-0.24,5.89-2.6,5.83-5.32
				c-1.72,0.47-3.84,0.82-6.14,0.99C88.53,124.12,86.38,124.06,84.62,123.84z"/>
			<path id="XMLID_112_" style="fill:#004150;" d="M102.23,93.73c-2.09-11.03-17.94-7.67-22.93-5.11
				c-4.98,2.56-10.87-1.38-10.87-1.38c-10.69,14.49,5.14,21.9,5.14,21.9l0.02-0.04c0.1-2.54,0.47-4.84,1.08-6.89
				c2.05-1.86,4.25-3.56,6.44-4.78c0.41-0.23,0.82-0.45,1.23-0.64c8.8-4.13,19.99,0.36,19.99,8.62c0,5.64,3.65,7.59,5.97,8.27
				C108.34,113.18,117.47,92.84,102.23,93.73z"/>
		</g>
		<polygon id="XMLID_35_" style="fill:#FFA581;" points="129.21,218.8 134.87,212.01 141.09,217.56 134.53,223.67 		"/>
		<g id="XMLID_44_">
			
				<rect id="XMLID_60_" x="132.51" y="330.82" transform="matrix(0.6687 -0.7435 0.7435 0.6687 -203.2517 211.9599)" style="fill:#FFA581;" width="7.46" height="6.51"/>
			<path id="XMLID_83_" style="fill:#3F2D1F;" d="M141.08,332.78l-6.97,7.45c-0.38,0.4-0.62,0.91-0.7,1.46
				c-0.37,2.54-1.71,10.31-4.67,15.09c-0.75,1.22-0.48,2.8,0.67,3.64l0,0c1.16,0.85,2.78,0.64,3.69-0.48l16.09-19.81
				c0.89-1.1,0.79-2.7-0.25-3.67l-4.05-3.81C143.81,331.64,142.1,331.69,141.08,332.78z"/>
		</g>
		<g id="XMLID_82_">
			
				<rect id="XMLID_85_" x="109.98" y="347.52" transform="matrix(0.013 -0.9999 0.9999 0.013 -239.4563 459.9135)" style="fill:#FFA581;" width="6.51" height="7.46"/>
			<path id="XMLID_102_" style="fill:#3F2D1F;" d="M112.97,353.47c-10.75,0-10.31,6.59-10.31,6.59c0,1.34,10.31,1.81,10.31,1.81
				s10.31-0.48,10.31-1.81C123.28,360.06,123.72,353.47,112.97,353.47z"/>
		</g>
		<g id="XMLID_84_">
			<path id="XMLID_104_" style="fill:#004150;" d="M127.13,216.3c-4.82,1.66-19.63,3.16-31.07,4.41
				c2.32,10.03,14.57,63.94,13.24,76.08c-1.47,13.4-1.75,52.68-1.75,52.68h11.31c0,0,9.92-50.58,9.5-63.99
				c-0.33-10.66,0.86-52.24,1.54-68.09c0.02-0.37-0.23-0.66-0.56-0.88C128.69,216.09,127.86,216.05,127.13,216.3z"/>
			<path id="XMLID_106_" style="fill:#00576B;" d="M99.41,279.32c-4.92-7.24,9.91-53.17,12.24-60.35
				c-13.93,1.86-29.18,3.2-33.26,3.2c-0.01,0-0.01,0-0.02,0c-1.05,0-1.86,0.92-1.86,1.97v55.91c0,13.2,52.19,60.78,52.19,60.78
				l11.58-16.19C140.29,324.63,104.75,287.18,99.41,279.32z"/>
		</g>
		<g id="XMLID_78_">
			<path id="XMLID_80_" style="fill:#AEBDD2;" d="M85.45,139.12c0,0,2.63,3.37,8.76,2.4c6.83-1.08,6.54-5.4,6.54-5.4
				s19.74,0.8,22.52,3.76c0,0,7.59,51.39,6.69,83.71c0,0-23.59,8.04-54.58,5.43c0,0,1.15-26.43-9.81-84.49
				C65.56,144.53,80.99,139.6,85.45,139.12z"/>
			<path id="XMLID_99_" style="fill:#AEBDD2;" d="M72.31,147.47c0,0-3.24-4.7-10.06-1.79c-6.82,2.91-37.84,14.33-36.11,22.61
				c1.74,8.28,12.91,5.37,19.11,4.7C51.46,172.32,85.63,162.41,72.31,147.47z"/>
			<path id="XMLID_79_" style="fill:#AEBDD2;" d="M113.79,154.53l38.68,24.35l-19.34,34.24l7.17,6.6c0,0,32.91-35.15,30.71-45.69
				c-2.2-10.54-45.18-42.52-57.67-34.04S113.79,154.53,113.79,154.53z"/>
		</g>
		<g id="XMLID_87_">
			<path id="XMLID_98_" style="fill:#B51F2B;" d="M71.95,154.96l-25.07-2.41l1.36-14.11c0.33-3.39,3.37-5.9,6.76-5.58l12.73,1.22
				c3.39,0.33,5.9,3.37,5.58,6.76L71.95,154.96z"/>
			<polygon id="XMLID_97_" style="fill:#FFE5CF;" points="54.82,329.21 30.48,326.87 36.22,349.44 44.87,350.27 			"/>
			<polygon id="XMLID_96_" style="fill:#B51F2B;" points="44.87,350.27 36.22,349.44 39.39,361.88 			"/>
			
				<rect id="XMLID_95_" x="-39.35" y="242.13" transform="matrix(0.0957 -0.9954 0.9954 0.0957 -206.7702 264.5224)" style="fill:#BF9662;" width="163.11" height="7.88"/>
			
				<rect id="XMLID_94_" x="-27.18" y="238.95" transform="matrix(0.0957 -0.9954 0.9954 0.0957 -196.9306 277.6951)" style="fill:#FFC882;" width="163.11" height="16.57"/>
			<path id="XMLID_93_" style="fill:#D8D8D8;" d="M54.32,161.29l-8.21-0.79c-0.95-0.09-1.8,0.62-1.89,1.59l-0.05,0.47
				c-0.09,0.96,0.61,1.83,1.55,1.92l0.37,0.04l7.85,0.75L54.32,161.29z"/>
			<path id="XMLID_92_" style="fill:#EBEBEB;" d="M53.94,165.27l16.49,1.59l0.37,0.04c0.95,0.09,1.8-0.62,1.89-1.59l0.05-0.47
				c0.09-0.96-0.61-1.83-1.55-1.92l-16.86-1.62L53.94,165.27z"/>
			<path id="XMLID_91_" style="fill:#EBEBEB;" d="M54.32,161.29l16.86,1.62c0.95,0.09,1.8-0.62,1.89-1.59l0.05-0.47
				c0.09-0.96-0.61-1.83-1.55-1.92l-16.86-1.62L54.32,161.29z"/>
			<path id="XMLID_90_" style="fill:#D8D8D8;" d="M54.7,157.31l-8.21-0.79c-0.95-0.09-1.8,0.62-1.89,1.59l-0.05,0.47
				c-0.09,0.96,0.61,1.83,1.55,1.92l8.21,0.79L54.7,157.31z"/>
			<path id="XMLID_89_" style="fill:#D8D8D8;" d="M55.09,153.34l-8.21-0.79c-0.95-0.09-1.8,0.62-1.89,1.59l-0.05,0.47
				c-0.09,0.96,0.61,1.83,1.55,1.92l8.21,0.79L55.09,153.34z"/>
			<path id="XMLID_88_" style="fill:#EBEBEB;" d="M73.45,157.35l0.05-0.47c0.09-0.96-0.61-1.83-1.55-1.92l-16.86-1.62l-0.38,3.98
				l16.86,1.62C72.51,159.03,73.36,158.31,73.45,157.35z"/>
		</g>
		<path id="XMLID_68_" style="fill:#FFA581;" d="M119.55,225.3c-0.26,2.11,2.04,12.82,9.91,7.18c7.88-5.65,4.78-8.07,5.96-9.65
			c1.18-1.58-3.96-6.74-6.21-4.04C124.8,223.67,119.99,221.71,119.55,225.3z"/>
		<g id="XMLID_30_">
			<polygon id="XMLID_105_" style="fill:#FFA581;" points="55.32,212.66 50.01,203.95 58.39,199.22 62.63,208.67 			"/>
			<path id="XMLID_37_" style="fill:#FFA581;" d="M54.38,211.12c-0.96,1.54,0.1,5.99,1.62,8.61c1.52,2.61,2.83,7.22,5.46,7.7
				c2.62,0.48,6.84-1.27,7.22-4.51c0.38-3.24-2.72-15.68-7.1-15C57.41,208.57,55.49,209.33,54.38,211.12z"/>
			<path id="XMLID_66_" style="fill:#FFA581;" d="M62.72,207.81c0,0,7.82,1.96,7.15,4.7c-0.67,2.74-7.69-0.1-8.55-1.05
				C60.47,210.5,60.45,207.88,62.72,207.81z"/>
		</g>
		<path id="XMLID_101_" style="fill:#AEBDD2;" d="M50.46,208.91l11.72-5.94l-21.21-39.31c0,0-2.21-5.32-10.74-1.46
			c-8.53,3.86-3.56,11.75-3.56,11.75L50.46,208.91z"/>
	</g>
</g>
<g id="DESIGNED_BY_FREEPIK">
</g>
</svg>
