<svg width="54" height="54" viewBox="0 0 54 54" fill="none" xmlns="http://www.w3.org/2000/svg">
<path fill-rule="evenodd" clip-rule="evenodd" d="M24.75 6.75C22.9598 6.75 21.2429 7.46116 19.977 8.72703C18.7112 9.9929 18 11.7098 18 13.5V15.75H11.25C9.45979 15.75 7.7429 16.4612 6.47703 17.727C5.21116 18.9929 4.5 20.7098 4.5 22.5V40.5C4.5 42.2902 5.21116 44.0071 6.47703 45.273C7.7429 46.5388 9.45979 47.25 11.25 47.25H42.75C44.5402 47.25 46.2571 46.5388 47.523 45.273C48.7888 44.0071 49.5 42.2902 49.5 40.5V22.5C49.5 20.7098 48.7888 18.9929 47.523 17.727C46.2571 16.4612 44.5402 15.75 42.75 15.75H36V13.5C36 11.7098 35.2888 9.9929 34.023 8.72703C32.7571 7.46116 31.0402 6.75 29.25 6.75H24.75ZM31.5 15.75H22.5V13.5C22.5 12.9033 22.7371 12.331 23.159 11.909C23.581 11.4871 24.1533 11.25 24.75 11.25H29.25C29.8467 11.25 30.419 11.4871 30.841 11.909C31.2629 12.331 31.5 12.9033 31.5 13.5V15.75Z" fill="black"/>
</svg>
