<svg width="503" height="387" viewBox="0 0 503 387" fill="none" xmlns="http://www.w3.org/2000/svg">
<g clip-path="url(#clip0_376_1851)">
<g opacity="0.2">
<path d="M99.99 126.68C115.79 171.38 91.48 219.79 91.29 267.2C91.21 285.7 95.87 305.85 110.48 317.21C120.27 324.82 133.07 327.32 145.43 328.35C168.65 330.27 192.22 327.76 214.51 320.99C226.83 317.25 238.8 312.21 251.46 309.87C298.25 301.21 343.7 330.25 391.19 333.31C414.37 334.8 438.32 329.73 457.64 316.83C476.96 303.93 491.18 282.82 493.54 259.71C496.74 228.3 478.87 199.03 461.72 172.52C449 152.86 436.27 133.2 423.55 113.54C414.94 100.24 406.31 86.9 396.17 74.72C367.07 39.78 326.2 15.63 282.57 2.84004C238.94 -9.94995 192.57 -11.8 147.36 -6.84995C133.2 -5.29995 118.5 -2.85995 106.97 5.51005C93.07 15.6 85.96 33.01 84.44 50.12C82.92 67.23 96.63 109.83 99.99 126.68Z" fill="#AEBDD2"/>
</g>
<path opacity="0.2" d="M89.99 349.87H467.95" stroke="#AEBDD2" stroke-width="4" stroke-miterlimit="10" stroke-linecap="round"/>
<path d="M344.63 27.54H233.54V334.24H344.63H455.71V27.54H344.63Z" fill="#00576B"/>
<path d="M409.39 318.79H248.99V42.98H440.27V287.91L409.39 318.79Z" fill="white"/>
<path d="M409.39 287.91H440.27L409.39 318.79V287.91Z" fill="#EBEBEB"/>
<path d="M313.19 139.85H279.87V173.17H313.19V139.85Z" stroke="#858585" stroke-width="2.12" stroke-miterlimit="10"/>
<path d="M313.19 188.61H279.87V221.93H313.19V188.61Z" stroke="#858585" stroke-width="2.12" stroke-miterlimit="10"/>
<path d="M313.19 91.0901H279.87V124.41H313.19V91.0901Z" stroke="#858585" stroke-width="2.12" stroke-miterlimit="10"/>
<path d="M286.52 106.76L295.77 116.02L320.7 91.0901" stroke="#B51F2B" stroke-width="4.24" stroke-miterlimit="10" stroke-linecap="round"/>
<path d="M286.52 155.52L295.77 164.78L320.7 139.85" stroke="#B51F2B" stroke-width="4.24" stroke-miterlimit="10" stroke-linecap="round"/>
<path d="M286.52 204.28L295.77 213.54L320.7 188.61" stroke="#B51F2B" stroke-width="4.24" stroke-miterlimit="10" stroke-linecap="round"/>
<path d="M409.39 95.29H333.73V98.85H409.39V95.29Z" fill="#858585"/>
<path d="M409.39 102.41H333.73V105.97H409.39V102.41Z" fill="#858585"/>
<path d="M409.39 109.53H333.73V113.09H409.39V109.53Z" fill="#858585"/>
<path d="M371.56 116.65H333.73V120.21H371.56V116.65Z" fill="#858585"/>
<path d="M409.39 144.05H333.73V147.61H409.39V144.05Z" fill="#858585"/>
<path d="M409.39 151.17H333.73V154.73H409.39V151.17Z" fill="#858585"/>
<path d="M409.39 158.29H333.73V161.85H409.39V158.29Z" fill="#858585"/>
<path d="M391.69 165.41H333.73V168.97H391.69V165.41Z" fill="#858585"/>
<path d="M409.39 192.81H333.73V196.37H409.39V192.81Z" fill="#858585"/>
<path d="M409.39 199.93H333.73V203.49H409.39V199.93Z" fill="#858585"/>
<path d="M409.39 207.05H333.73V210.61H409.39V207.05Z" fill="#858585"/>
<path d="M371.56 214.17H333.73V217.73H371.56V214.17Z" fill="#858585"/>
<path d="M313.19 237.37H279.87V270.69H313.19V237.37Z" stroke="#858585" stroke-width="2.12" stroke-miterlimit="10"/>
<path d="M286.52 253.04L295.77 262.3L320.7 237.37" stroke="#B51F2B" stroke-width="4.24" stroke-miterlimit="10" stroke-linecap="round"/>
<path d="M409.39 241.57H333.73V245.13H409.39V241.57Z" fill="#858585"/>
<path d="M409.39 248.69H333.73V252.25H409.39V248.69Z" fill="#858585"/>
<path d="M409.39 255.81H333.73V259.37H409.39V255.81Z" fill="#858585"/>
<path d="M391.69 262.93H333.73V266.49H391.69V262.93Z" fill="#858585"/>
<path d="M335.59 16.41C334.57 16.41 333.73 15.58 333.73 14.55C333.73 13.53 334.56 12.7 335.59 12.7H344.63V9.66003H329.93C326.03 9.66003 322.84 12.85 322.84 16.76V18.6H308.76C299.56 18.6 292.1 26.06 292.1 35.26V51.92H344.64V16.41H335.59Z" fill="#AEBDD2"/>
<path d="M397.17 35.26C397.17 26.06 389.71 18.6 380.51 18.6H366.43V16.76C366.43 12.86 363.24 9.66003 359.33 9.66003H344.63V12.7H353.67C354.69 12.7 355.52 13.53 355.52 14.55C355.52 15.57 354.69 16.41 353.67 16.41H344.63V51.92H397.17V35.26Z" fill="#BECADB"/>
<path d="M175.68 109.945L160.837 112.113L164.507 137.246L179.35 135.078L175.68 109.945Z" fill="#FFA581"/>
<path d="M185.4 98.5201C185.4 116.77 177.6 123.6 167.97 123.6C158.34 123.6 150.54 115.51 150.54 98.5201C150.54 84.6701 158.34 77.4701 167.97 77.4701C177.6 77.4701 185.4 84.6701 185.4 98.5201Z" fill="#FFA581"/>
<path d="M161.62 111.84C161.95 114.55 164.81 116.52 168.15 116.29C171.48 116.05 174.04 113.69 173.98 110.97C172.26 111.44 170.14 111.79 167.84 111.96C165.53 112.12 163.38 112.06 161.62 111.84Z" fill="white"/>
<path d="M179.23 81.73C177.14 70.7 161.29 74.06 156.3 76.62C151.32 79.18 145.43 75.24 145.43 75.24C134.74 89.73 150.57 97.14 150.57 97.14L150.59 97.1C150.69 94.56 151.06 92.26 151.67 90.21C153.72 88.35 155.92 86.65 158.11 85.43C158.52 85.2 158.93 84.98 159.34 84.79C168.14 80.66 179.33 85.15 179.33 93.41C179.33 99.05 182.98 101 185.3 101.68C185.34 101.18 194.47 80.84 179.23 81.73Z" fill="#004150"/>
<path d="M206.21 206.8L211.87 200.01L218.09 205.56L211.53 211.67L206.21 206.8Z" fill="#FFA581"/>
<path d="M213.311 317.112L208.322 322.658L213.162 327.011L218.151 321.465L213.311 317.112Z" fill="#FFA581"/>
<path d="M218.08 320.78L211.11 328.23C210.73 328.63 210.49 329.14 210.41 329.69C210.04 332.23 208.7 340 205.74 344.78C204.99 346 205.26 347.58 206.41 348.42C207.57 349.27 209.19 349.06 210.1 347.94L226.19 328.13C227.08 327.03 226.98 325.43 225.94 324.46L221.89 320.65C220.81 319.64 219.1 319.69 218.08 320.78Z" fill="#3F2D1F"/>
<path d="M186.543 335.953L186.459 342.462L193.918 342.559L194.003 336.05L186.543 335.953Z" fill="#FFA581"/>
<path d="M189.97 341.47C179.22 341.47 179.66 348.06 179.66 348.06C179.66 349.4 189.97 349.87 189.97 349.87C189.97 349.87 200.28 349.39 200.28 348.06C200.28 348.06 200.72 341.47 189.97 341.47Z" fill="#3F2D1F"/>
<path d="M204.13 204.3C199.31 205.96 184.5 207.46 173.06 208.71C175.38 218.74 187.63 272.65 186.3 284.79C184.83 298.19 184.55 337.47 184.55 337.47H195.86C195.86 337.47 205.78 286.89 205.36 273.48C205.03 262.82 206.22 221.24 206.9 205.39C206.92 205.02 206.67 204.73 206.34 204.51C205.69 204.09 204.86 204.05 204.13 204.3Z" fill="#004150"/>
<path d="M176.41 267.32C171.49 260.08 186.32 214.15 188.65 206.97C174.72 208.83 159.47 210.17 155.39 210.17C155.38 210.17 155.38 210.17 155.37 210.17C154.32 210.17 153.51 211.09 153.51 212.14V268.05C153.51 281.25 205.7 328.83 205.7 328.83L217.28 312.64C217.29 312.63 181.75 275.18 176.41 267.32Z" fill="#00576B"/>
<path d="M162.45 127.12C162.45 127.12 165.08 130.49 171.21 129.52C178.04 128.44 177.75 124.12 177.75 124.12C177.75 124.12 197.49 124.92 200.27 127.88C200.27 127.88 207.86 179.27 206.96 211.59C206.96 211.59 183.37 219.63 152.38 217.02C152.38 217.02 153.53 190.59 142.57 132.53C142.56 132.53 157.99 127.6 162.45 127.12Z" fill="#AEBDD2"/>
<path d="M149.31 135.47C149.31 135.47 146.07 130.77 139.25 133.68C132.43 136.59 101.41 148.01 103.14 156.29C104.88 164.57 116.05 161.66 122.25 160.99C128.46 160.32 162.63 150.41 149.31 135.47Z" fill="#AEBDD2"/>
<path d="M190.79 142.53L229.47 166.88L210.13 201.12L217.3 207.72C217.3 207.72 250.21 172.57 248.01 162.03C245.81 151.49 202.83 119.51 190.34 127.99C177.85 136.47 190.79 142.53 190.79 142.53Z" fill="#AEBDD2"/>
<path d="M148.95 142.96L123.88 140.55L125.24 126.44C125.57 123.05 128.61 120.54 132 120.86L144.73 122.08C148.12 122.41 150.63 125.45 150.31 128.84L148.95 142.96Z" fill="#B51F2B"/>
<path d="M131.82 317.21L107.48 314.87L113.22 337.44L121.87 338.27L131.82 317.21Z" fill="#FFE5CF"/>
<path d="M121.87 338.27L113.22 337.44L116.39 349.88L121.87 338.27Z" fill="#B51F2B"/>
<path d="M123.09 152.504L107.48 314.863L115.324 315.617L130.934 153.258L123.09 152.504Z" fill="#BF9662"/>
<path d="M130.929 153.258L115.319 315.618L131.813 317.203L147.423 154.844L130.929 153.258Z" fill="#FFC882"/>
<path d="M131.32 149.29L123.11 148.5C122.16 148.41 121.31 149.12 121.22 150.09L121.17 150.56C121.08 151.52 121.78 152.39 122.72 152.48L123.09 152.52L130.94 153.27L131.32 149.29Z" fill="#D8D8D8"/>
<path d="M130.94 153.27L147.43 154.86L147.8 154.9C148.75 154.99 149.6 154.28 149.69 153.31L149.74 152.84C149.83 151.88 149.13 151.01 148.19 150.92L131.33 149.3L130.94 153.27Z" fill="#EBEBEB"/>
<path d="M131.32 149.29L148.18 150.91C149.13 151 149.98 150.29 150.07 149.32L150.12 148.85C150.21 147.89 149.51 147.02 148.57 146.93L131.71 145.31L131.32 149.29Z" fill="#EBEBEB"/>
<path d="M131.7 145.31L123.49 144.52C122.54 144.43 121.69 145.14 121.6 146.11L121.55 146.58C121.46 147.54 122.16 148.41 123.1 148.5L131.31 149.29L131.7 145.31Z" fill="#D8D8D8"/>
<path d="M132.09 141.34L123.88 140.55C122.93 140.46 122.08 141.17 121.99 142.14L121.94 142.61C121.85 143.57 122.55 144.44 123.49 144.53L131.7 145.32L132.09 141.34Z" fill="#D8D8D8"/>
<path d="M150.45 145.35L150.5 144.88C150.59 143.92 149.89 143.05 148.95 142.96L132.09 141.34L131.71 145.32L148.57 146.94C149.51 147.03 150.36 146.31 150.45 145.35Z" fill="#EBEBEB"/>
<path d="M196.55 213.3C196.29 215.41 198.59 226.12 206.46 220.48C214.34 214.83 211.24 212.41 212.42 210.83C213.6 209.25 208.46 204.09 206.21 206.79C201.8 211.67 196.99 209.71 196.55 213.3Z" fill="#FFA581"/>
<path d="M132.32 200.66L127.01 191.95L135.39 187.22L139.63 196.67L132.32 200.66Z" fill="#FFA581"/>
<path d="M131.38 199.12C130.42 200.66 131.48 205.11 133 207.73C134.52 210.34 135.83 214.95 138.46 215.43C141.08 215.91 145.3 214.16 145.68 210.92C146.06 207.68 142.96 195.24 138.58 195.92C134.41 196.57 132.49 197.33 131.38 199.12Z" fill="#FFA581"/>
<path d="M139.72 195.81C139.72 195.81 147.54 197.77 146.87 200.51C146.2 203.25 139.18 200.41 138.32 199.46C137.47 198.5 137.45 195.88 139.72 195.81Z" fill="#FFA581"/>
<path d="M127.46 196.91L139.18 190.97L117.97 151.66C117.97 151.66 115.76 146.34 107.23 150.2C98.7 154.06 103.67 161.95 103.67 161.95L127.46 196.91Z" fill="#AEBDD2"/>
</g>
<defs>
<clipPath id="clip0_376_1851">
<rect width="503" height="387" fill="white" transform="matrix(-1 0 0 1 503 0)"/>
</clipPath>
</defs>
</svg>
