<?xml version="1.0" encoding="utf-8"?>
<!-- Generator: Adobe Illustrator 24.3.0, SVG Export Plug-In . SVG Version: 6.00 Build 0)  -->
<svg version="1.1" id="Layer_1" xmlns="http://www.w3.org/2000/svg" xmlns:xlink="http://www.w3.org/1999/xlink" x="0px" y="0px"
	 viewBox="0 0 874.9 1000" style="enable-background:new 0 0 874.9 1000;" xml:space="preserve">
<style type="text/css">
	.st0{fill:#FEF07A;}
	.st1{fill:#A2FFE7;}
	.st2{fill:#FFCC7E;}
	.st3{fill:#FEB5A9;}
	.st4{fill:#D4CCB6;}
	.st5{fill:#D3AF82;}
	.st6{fill:#DBF06C;}
	.st7{fill:#CDBD84;}
	.st8{fill:#A3C38B;}
	.st9{fill:#6B875D;}
	.st10{fill:#A9FFAE;}
	.st11{fill:#D8FE92;}
	.st12{fill:#A2D07F;}
	.st13{fill:#595959;}
	.st14{font-family:'Raleway-Medium';}
	.st15{font-size:25.8338px;}
	.st16{font-family:'Raleway-SemiBold';}
	.st17{fill:#FFFFFF;}
	.st18{font-family:'Raleway-Bold';}
	.st19{font-size:38.7507px;}
</style>
<g>
	<path class="st0" d="M674.1,194.3c-20.5-4.8-41-8.5-62.8-8.5c-68.8,0-130.4,27.8-173.8,72.4c-44.7-44.7-106.2-72.4-173.8-72.4
		c-21.7,0-42.3,2.4-62.8,8.5C228.6,89.3,324,12,437.4,12C550.9,12,646.3,89.3,674.1,194.3z"/>
	<path class="st1" d="M674.1,668.8C646.3,773.8,550.9,851,437.4,851s-208.8-77.3-236.6-182.3c20.5,4.8,41,8.5,62.8,8.5
		c68.8,0,130.4-27.8,173.8-72.4c44.7,44.7,106.2,72.4,173.8,72.4C633,677.2,654.7,673.6,674.1,668.8z"/>
	<path class="st2" d="M682.5,257.1c0,68.8-27.8,130.4-72.4,173.8c-30.2-30.2-67.6-51.9-109.9-62.8c-10.9-42.3-32.6-79.7-62.8-109.9
		c44.7-44.7,106.2-72.4,173.8-72.4c21.7,0,42.3,2.4,62.8,8.5C680.1,214.9,682.5,235.4,682.5,257.1z"/>
	<path class="st3" d="M856.3,432.1c0,113.5-77.3,208.8-182.3,236.6c4.8-20.5,8.5-41,8.5-62.8c0-68.8-27.8-130.4-72.4-173.8
		c44.7-44.7,72.4-106.2,72.4-173.8c0-21.7-2.4-42.3-8.5-62.8C779.1,222.1,856.3,318.7,856.3,432.1z"/>
	<path class="st4" d="M682.5,606c0,21.7-2.4,42.3-8.5,62.8l0,0c-20.5,6-41,8.5-62.8,8.5c-68.8,0-130.4-27.8-173.8-72.4
		c30.2-30.2,51.9-67.6,62.8-109.9c42.3-10.9,79.7-32.6,109.9-62.8C654.7,475.6,682.5,537.2,682.5,606z"/>
	<path class="st5" d="M500.2,494.9c4.8-20.5,8.5-41,8.5-62.8s-2.4-42.3-8.5-62.8c42.3,10.9,79.7,32.6,109.9,62.8
		C579.9,461.1,542.5,484.1,500.2,494.9z"/>
	<path class="st6" d="M437.4,259.5c-30.2,30.2-51.9,67.6-62.8,109.9l0,0c-42.3,10.9-79.7,32.6-109.9,62.8
		c-44.7-44.7-72.4-106.2-72.4-173.8c0-21.7,2.4-42.3,8.5-62.8c20.5-4.8,41-8.5,62.8-8.5C331.2,187.1,392.8,214.9,437.4,259.5z"/>
	<path class="st7" d="M500.2,369.4c-20.5-6-41-8.5-62.8-8.5c-21.7,0-42.3,2.4-62.8,8.5c10.9-42.3,32.6-79.7,62.8-109.9
		C467.6,289.7,489.4,327.1,500.2,369.4z"/>
	<path class="st8" d="M500.2,494.9c-10.9,42.3-32.6,79.7-62.8,109.9c-30.2-30.2-51.9-67.6-62.8-109.9c20.5,4.8,41,8.5,62.8,8.5
		C459.2,502.2,479.7,499.7,500.2,494.9z"/>
	<path class="st9" d="M508.7,432.1c0,21.7-2.4,42.3-8.5,62.8c-20.5,6-41,8.5-62.8,8.5c-21.7,0-42.3-2.4-62.8-8.5
		c-6-20.5-8.5-41-8.5-62.8s2.4-42.3,8.5-62.8l0,0c20.5-4.8,41-8.5,62.8-8.5c21.7,0,42.3,2.4,62.8,8.5
		C505,388.7,508.7,410.4,508.7,432.1z"/>
	<path class="st10" d="M437.4,603.6C392.8,648.2,331.2,676,263.6,676c-21.7,0-42.3-2.4-62.8-8.5c-6-20.5-8.5-41-8.5-62.8
		c0-68.8,27.8-130.4,72.4-173.8c30.2,30.2,67.6,51.9,109.9,62.8C385.5,537.2,407.3,574.6,437.4,603.6z"/>
	<path class="st11" d="M192.4,606c0,21.7,2.4,42.3,8.5,62.8C95.8,641,18.6,545.6,18.6,432.1s77.3-208.8,182.3-236.6
		c-6,20.5-8.5,41-8.5,62.8c0,68.8,27.8,130.4,72.4,173.8C220.2,475.6,192.4,537.2,192.4,606z"/>
	<path class="st12" d="M374.7,494.9c-42.3-10.9-79.7-32.6-109.9-62.8c30.2-30.2,67.6-51.9,109.9-62.8c-4.8,20.5-8.5,41-8.5,62.8
		C366.2,453.9,369.8,474.4,374.7,494.9z"/>
	<text transform="matrix(0.9346 0 0 1 213.3916 945.9756)" class="st13 st14 st15">Ikigai is a Japanese concept that means</text>
	<text transform="matrix(0.9346 0 0 1 313.5909 982.1455)" class="st13 st14 st15">your reason for being.</text>
	<text transform="matrix(0.9346 0 0 1 382.6133 126.0815)" class="st13 st14 st15">What you</text>
	<text transform="matrix(0.9346 0 0 1 409.169 162.2515)" class="st13 st14 st15">Love</text>
	<text transform="matrix(0.9346 0 0 1 524.7447 313.3423)" class="st13 st16 st15">Missions</text>
	<text transform="matrix(0.9346 0 0 1 384.2295 444.0386)" class="st17 st18 st19">IKIGAI</text>
	<text transform="matrix(0.9346 0 0 1 245.46 313.3423)" class="st13 st16 st15">Passions</text>
	<text transform="matrix(0.9346 0 0 1 680.8677 432.9673)" class="st13 st14 st15">What the</text>
	<text transform="matrix(0.9346 0 0 1 662.7593 469.1372)" class="st13 st14 st15">world needs</text>
	<text transform="matrix(0.9346 0 0 1 505.1275 571.0283)" class="st13 st14 st15">What you</text>
	<text transform="matrix(0.9346 0 0 1 531.69 607.1973)" class="st13 st14 st15">Love</text>
	<text transform="matrix(0.9346 0 0 1 341.3506 725.7559)" class="st13 st14 st15">What you can be</text>
	<text transform="matrix(0.9346 0 0 1 394.4619 761.9258)" class="st13 st14 st15">paid for</text>
	<text transform="matrix(0.9346 0 0 1 260.1367 571.0283)" class="st13 st14 st15">What you</text>
	<text transform="matrix(0.9346 0 0 1 286.6924 607.1973)" class="st13 st14 st15">Love</text>
	<text transform="matrix(0.9346 0 0 1 65.5948 432.9673)" class="st13 st14 st15">What you are</text>
	<text transform="matrix(0.9346 0 0 1 98.189 469.1372)" class="st13 st14 st15">good at</text>
</g>
</svg>
