<?xml version="1.0" encoding="utf-8"?>
<!-- Generator: Adobe Illustrator 24.3.0, SVG Export Plug-In . SVG Version: 6.00 Build 0)  -->
<svg version="1.1" xmlns="http://www.w3.org/2000/svg" xmlns:xlink="http://www.w3.org/1999/xlink" x="0px" y="0px"
	 viewBox="0 0 442.3 442.3" style="enable-background:new 0 0 442.3 442.3;" xml:space="preserve">
<style type="text/css">
	.st0{fill:#E0E0E0;}
	.st1{fill:#FFFFFF;}
	.st2{fill-rule:evenodd;clip-rule:evenodd;fill:#FFFFFF;}
	.st3{fill:#EBEBEB;}
	.st4{fill:#F5F5F5;}
	.st5{display:none;}
	.st6{display:inline;}
	.st7{fill:#263238;}
	.st8{fill:#FF725E;}
	.st9{fill:#455A64;}
	.st10{opacity:0.3;}
	.st11{opacity:0.1;}
	.st12{fill:#FFBF9D;}
	.st13{fill:#FF9A6C;}
</style>
<g id="Background_Complete">
	<g>
		<g>
			<g>
				<g>
					<g>
						<path class="st0" d="M137.97,75.67h-26.08c-5.61,0-10.16-4.55-10.16-10.16V39.44c0-5.61,4.55-10.16,10.16-10.16h26.08
							c5.61,0,10.16,4.55,10.16,10.16v26.08C148.13,71.13,143.58,75.67,137.97,75.67z"/>
					</g>
				</g>
			</g>
		</g>
		<g>
			<g>
				<g>
					<g>
						<path class="st1" d="M114.11,63.73l1.69-6.31c-0.96-1.73-1.46-3.66-1.46-5.63c0-6.42,5.22-11.64,11.64-11.64
							c6.42,0,11.64,5.22,11.64,11.64c0,6.42-5.22,11.64-11.64,11.64c-1.93,0-3.83-0.49-5.54-1.41L114.11,63.73z M120.76,59.67
							l0.4,0.24c1.47,0.87,3.13,1.34,4.82,1.34c5.21,0,9.44-4.24,9.44-9.44c0-5.21-4.24-9.44-9.44-9.44c-5.21,0-9.44,4.24-9.44,9.44
							c0,1.72,0.48,3.41,1.38,4.9l0.24,0.4l-0.94,3.52L120.76,59.67z"/>
					</g>
				</g>
			</g>
		</g>
		<g>
			<g>
				<g>
					<g>
						<path class="st2" d="M130.18,53.49c-0.48-0.29-1.1-0.61-1.67-0.38c-0.43,0.18-0.71,0.86-0.99,1.2
							c-0.14,0.18-0.32,0.21-0.54,0.12c-1.63-0.65-2.87-1.73-3.77-3.23c-0.15-0.23-0.12-0.42,0.06-0.63
							c0.27-0.32,0.61-0.68,0.68-1.11c0.07-0.43-0.13-0.93-0.31-1.32c-0.23-0.49-0.48-1.19-0.97-1.46
							c-0.45-0.25-1.04-0.11-1.45,0.21c-0.69,0.56-1.03,1.45-1.02,2.33c0,0.25,0.03,0.5,0.09,0.74c0.14,0.58,0.41,1.12,0.71,1.63
							c0.23,0.39,0.47,0.76,0.74,1.12c0.87,1.18,1.95,2.21,3.2,2.98c0.63,0.38,1.3,0.72,2,0.95c0.78,0.26,1.48,0.53,2.33,0.37
							c0.89-0.17,1.76-0.72,2.11-1.57c0.1-0.25,0.16-0.53,0.1-0.8C131.38,54.08,130.63,53.76,130.18,53.49z"/>
					</g>
				</g>
			</g>
		</g>
	</g>
	<g>
		<g>
			<g>
				<g>
					<g>
						<g>
							<path class="st3" d="M373.29,357.48c2.27-1.37,4.69-2.41,7.18-3.12l1.48-7.1l12-0.21l1.73,7.05
								c2.52,0.62,4.97,1.57,7.28,2.87l6.07-3.98l8.64,8.34l-3.76,6.2c1.37,2.27,2.41,4.69,3.12,7.18l7.1,1.48l0.21,12l-7.05,1.73
								c-0.62,2.51-1.57,4.97-2.86,7.28l3.98,6.07l-8.34,8.64l-6.2-3.76c-2.27,1.37-4.69,2.41-7.18,3.12l-1.48,7.1l-12,0.21
								l-1.73-7.05c-2.52-0.62-4.97-1.57-7.28-2.87l-6.07,3.98l-8.64-8.34l3.76-6.2c-1.37-2.27-2.41-4.69-3.12-7.18l-7.1-1.48
								l-0.21-12l7.05-1.73c0.62-2.51,1.57-4.97,2.87-7.28l-3.98-6.07l8.34-8.64L373.29,357.48L373.29,357.48z M379.69,373.47
								c-4.94,5.12-4.8,13.27,0.32,18.21c5.12,4.94,13.27,4.8,18.21-0.32c4.94-5.12,4.8-13.27-0.32-18.21
								C392.78,368.21,384.63,368.35,379.69,373.47z"/>
						</g>
					</g>
				</g>
			</g>
		</g>
		<g>
			<g>
				<g>
					<g>
						<g>
							<g>
								<path class="st3" d="M379.69,373.47c0,0,0.67-0.95,2.4-2.1c1.69-1.13,4.65-2.38,8.4-1.99c1.85,0.21,3.87,0.81,5.71,2.03
									c1.82,1.22,3.54,2.95,4.62,5.2c0.57,1.11,0.96,2.33,1.17,3.62c0.23,1.28,0.26,2.63,0.07,3.96c-0.33,2.69-1.6,5.34-3.58,7.42
									c-2.01,2.05-4.62,3.42-7.3,3.84c-1.33,0.24-2.68,0.25-3.97,0.07c-1.29-0.17-2.53-0.52-3.65-1.04
									c-2.29-1-4.08-2.65-5.36-4.43c-1.28-1.8-1.96-3.8-2.23-5.64c-0.53-3.74,0.62-6.74,1.69-8.47
									C378.77,374.17,379.69,373.47,379.69,373.47c0.07,0.06-0.78,0.85-1.77,2.61c-0.97,1.74-2,4.67-1.42,8.24
									c0.29,1.76,0.97,3.66,2.21,5.36c1.24,1.68,2.96,3.24,5.14,4.17c1.07,0.49,2.25,0.81,3.47,0.97
									c1.22,0.17,2.49,0.15,3.75-0.08c2.53-0.41,4.98-1.7,6.89-3.64c1.87-1.97,3.07-4.46,3.39-7.01c0.19-1.27,0.16-2.54-0.05-3.75
									c-0.19-1.21-0.56-2.38-1.09-3.43c-1-2.14-2.62-3.81-4.34-4.99c-1.74-1.18-3.66-1.79-5.43-2.02
									c-3.59-0.45-6.49,0.68-8.19,1.71C380.51,372.66,379.75,373.54,379.69,373.47z"/>
							</g>
						</g>
					</g>
				</g>
			</g>
		</g>
		<g>
			<g>
				<g>
					<g>
						<g>
							<g>
								<path class="st3" d="M373.29,357.48c0,0.01-0.13-0.06-0.4-0.21c-0.29-0.17-0.68-0.39-1.19-0.69
									c-1.08-0.64-2.65-1.56-4.67-2.76l0.15-0.02c-2.12,2.22-4.91,5.15-8.29,8.69l0.02-0.23c1.21,1.83,2.56,3.87,4,6.05l0.07,0.11
									l-0.06,0.12c-1.18,2.14-2.17,4.57-2.82,7.23l-0.03,0.14l-0.14,0.04c-2.2,0.55-4.57,1.13-7.04,1.75l0.2-0.26
									c0.08,3.78,0.15,7.79,0.24,12l-0.23-0.28c2.2,0.45,4.62,0.95,7.11,1.46l0.18,0.04l0.05,0.18c0.66,2.32,1.69,4.78,3.1,7.1
									l0.1,0.16l-0.1,0.17c-1.16,1.92-2.45,4.05-3.75,6.21l-0.05-0.41c2.72,2.62,5.64,5.44,8.65,8.33l-0.43-0.04
									c1.89-1.24,3.96-2.6,6.06-3.98l0.18-0.12l0.19,0.1c2.12,1.18,4.59,2.19,7.2,2.82l0.21,0.05l0.05,0.21
									c0.54,2.21,1.13,4.62,1.73,7.05l-0.36-0.28c3.8-0.07,7.87-0.14,12-0.22l-0.35,0.29c0.47-2.24,0.97-4.67,1.48-7.1l0.05-0.22
									l0.21-0.06c2.36-0.67,4.81-1.7,7.08-3.08l0.01,0l0.19-0.11l0.19,0.11c2.08,1.26,4.15,2.52,6.2,3.76l-0.46,0.06
									c2.82-2.92,5.6-5.8,8.34-8.63l-0.04,0.45c-1.34-2.04-2.66-4.07-3.97-6.07l-0.12-0.18l0.11-0.19
									c1.27-2.28,2.22-4.71,2.83-7.19l0.05-0.21l0.21-0.05c2.38-0.58,4.73-1.16,7.05-1.72l-0.27,0.35c-0.07-4.1-0.13-8.1-0.2-12
									l0.27,0.33c-2.41-0.5-4.78-1-7.1-1.49l-0.2-0.04l-0.05-0.19c-0.72-2.55-1.77-4.94-3.07-7.1l-0.1-0.17l0.1-0.17
									c1.29-2.12,2.55-4.18,3.77-6.2l0.05,0.38c-3.03-2.94-5.89-5.71-8.62-8.36l0.35,0.03c-2.14,1.39-4.14,2.7-6.08,3.96
									l-0.14,0.09l-0.14-0.08c-2.42-1.35-4.84-2.27-7.21-2.86l-0.14-0.04l-0.03-0.14c-0.62-2.56-1.18-4.87-1.7-7.05l0.22,0.17
									c-4.65,0.06-8.61,0.11-12,0.16l0.16-0.13c-0.61,2.83-1.11,5.16-1.52,7.1l-0.02,0.07l-0.07,0.02
									c-2.54,0.71-4.33,1.54-5.49,2.11c-0.55,0.29-0.98,0.51-1.29,0.67C373.43,357.42,373.29,357.49,373.29,357.48
									c0-0.01,0.14-0.1,0.4-0.27c0.27-0.17,0.69-0.42,1.27-0.73c1.15-0.61,2.93-1.48,5.48-2.23l-0.08,0.09
									c0.39-1.94,0.86-4.27,1.43-7.11l0.03-0.13l0.13,0c3.39-0.07,7.35-0.16,12-0.26l0.17,0l0.04,0.17
									c0.54,2.18,1.11,4.48,1.75,7.04l-0.18-0.18c2.41,0.59,4.89,1.51,7.35,2.87l-0.27,0.01c1.93-1.27,3.93-2.59,6.06-3.99
									l0.19-0.12l0.16,0.16c2.74,2.63,5.61,5.39,8.65,8.32l0.18,0.17l-0.13,0.21c-1.22,2.02-2.46,4.08-3.75,6.21l0-0.33
									c1.34,2.21,2.42,4.65,3.16,7.25l-0.25-0.23c2.33,0.48,4.69,0.97,7.11,1.47l0.27,0.05l0,0.27c0.07,3.9,0.15,7.9,0.22,12
									l0.01,0.28l-0.27,0.07c-2.32,0.57-4.66,1.15-7.05,1.73l0.26-0.26c-0.62,2.54-1.59,5.03-2.9,7.37l-0.01-0.37
									c1.31,2,2.64,4.02,3.98,6.06l0.16,0.24l-0.2,0.21c-2.74,2.84-5.52,5.72-8.34,8.64l-0.2,0.21l-0.25-0.15
									c-2.05-1.24-4.12-2.5-6.2-3.76h0.38l-0.01,0c-2.33,1.41-4.84,2.47-7.26,3.15l0.26-0.28c-0.51,2.44-1.01,4.86-1.48,7.1
									l-0.06,0.29l-0.29,0.01c-4.13,0.07-8.2,0.14-12,0.21l-0.29,0.01l-0.07-0.28c-0.59-2.43-1.18-4.84-1.72-7.05l0.26,0.26
									c-2.67-0.66-5.2-1.69-7.37-2.91l0.36-0.01c-2.1,1.38-4.18,2.73-6.07,3.97l-0.23,0.15l-0.2-0.19
									c-2.99-2.9-5.92-5.73-8.63-8.35l-0.19-0.18l0.14-0.22c1.31-2.16,2.6-4.28,3.77-6.2l0,0.33c-1.43-2.37-2.48-4.89-3.14-7.26
									l0.23,0.21c-2.48-0.52-4.9-1.03-7.1-1.49l-0.23-0.05l0-0.23c-0.06-4.21-0.13-8.22-0.18-12l0-0.21l0.2-0.05
									c2.48-0.6,4.85-1.18,7.05-1.71l-0.18,0.18c0.68-2.71,1.7-5.17,2.91-7.33l0.01,0.22c-1.42-2.19-2.75-4.24-3.95-6.08
									l-0.08-0.13l0.1-0.11c3.42-3.5,6.24-6.39,8.39-8.59l0.07-0.07l0.08,0.05c1.98,1.23,3.51,2.18,4.57,2.84
									c0.5,0.32,0.89,0.56,1.17,0.75C373.16,357.38,373.29,357.47,373.29,357.48z"/>
							</g>
						</g>
					</g>
				</g>
			</g>
		</g>
	</g>
	<g>
		<g>
			<g>
				<g>
					<g>
						<g>
							<path class="st3" d="M26.97,56.69c2.27-1.37,4.69-2.41,7.18-3.12l1.48-7.1l12-0.21l1.73,7.05c2.52,0.62,4.97,1.57,7.28,2.87
								l6.07-3.98l8.64,8.34l-3.76,6.2c1.37,2.27,2.41,4.69,3.12,7.18l7.1,1.48l0.21,12l-7.05,1.73c-0.62,2.51-1.57,4.97-2.86,7.28
								l3.98,6.07l-8.34,8.64l-6.2-3.76c-2.27,1.37-4.69,2.41-7.18,3.12l-1.48,7.1l-12,0.21l-1.73-7.05
								c-2.52-0.62-4.97-1.57-7.28-2.87l-6.07,3.98l-8.64-8.34l3.76-6.2c-1.37-2.27-2.41-4.69-3.12-7.18l-7.1-1.48l-0.21-12
								l7.05-1.73c0.62-2.51,1.57-4.97,2.87-7.28l-3.98-6.07l8.34-8.64L26.97,56.69L26.97,56.69z M33.36,72.68
								c-4.94,5.12-4.8,13.27,0.32,18.21c5.12,4.94,13.27,4.8,18.21-0.32c4.94-5.12,4.8-13.27-0.32-18.21
								C46.46,67.42,38.3,67.57,33.36,72.68z"/>
						</g>
					</g>
				</g>
			</g>
		</g>
		<g>
			<g>
				<g>
					<g>
						<g>
							<g>
								<path class="st3" d="M33.36,72.68c0,0,0.67-0.95,2.4-2.1c1.69-1.13,4.65-2.38,8.4-1.99c1.85,0.21,3.87,0.81,5.71,2.03
									c1.82,1.22,3.54,2.95,4.62,5.2c0.57,1.11,0.96,2.33,1.17,3.62c0.23,1.28,0.26,2.63,0.07,3.96c-0.33,2.69-1.6,5.34-3.58,7.42
									c-2.01,2.05-4.62,3.42-7.3,3.84c-1.33,0.24-2.68,0.25-3.97,0.07c-1.29-0.17-2.53-0.52-3.65-1.04
									c-2.29-1-4.08-2.65-5.36-4.43c-1.28-1.8-1.96-3.8-2.23-5.64c-0.53-3.74,0.62-6.74,1.69-8.47
									C32.44,73.39,33.36,72.68,33.36,72.68c0.07,0.06-0.78,0.85-1.77,2.61c-0.97,1.74-2,4.67-1.42,8.24
									c0.29,1.76,0.97,3.66,2.21,5.36c1.24,1.68,2.96,3.24,5.14,4.17c1.07,0.49,2.25,0.81,3.47,0.97
									c1.22,0.17,2.49,0.15,3.75-0.08c2.53-0.41,4.98-1.7,6.89-3.64c1.87-1.97,3.07-4.46,3.39-7.01c0.19-1.27,0.16-2.54-0.05-3.75
									c-0.19-1.21-0.56-2.38-1.09-3.43c-1-2.14-2.62-3.81-4.34-4.99c-1.74-1.18-3.66-1.79-5.43-2.02
									c-3.59-0.45-6.49,0.68-8.19,1.71C34.18,71.88,33.43,72.75,33.36,72.68z"/>
							</g>
						</g>
					</g>
				</g>
			</g>
		</g>
		<g>
			<g>
				<g>
					<g>
						<g>
							<g>
								<path class="st3" d="M26.97,56.69c0,0.01-0.13-0.06-0.4-0.21c-0.29-0.17-0.68-0.39-1.19-0.69
									c-1.08-0.64-2.65-1.56-4.67-2.76l0.15-0.02c-2.12,2.22-4.91,5.15-8.29,8.69l0.02-0.23c1.21,1.83,2.56,3.87,4,6.05l0.07,0.11
									l-0.06,0.12c-1.18,2.14-2.17,4.57-2.82,7.23l-0.03,0.14l-0.14,0.04c-2.2,0.55-4.57,1.13-7.04,1.75l0.2-0.26
									c0.08,3.78,0.15,7.79,0.24,12l-0.23-0.28c2.2,0.45,4.62,0.95,7.11,1.46l0.18,0.04l0.05,0.18c0.66,2.32,1.69,4.78,3.1,7.1
									l0.1,0.16l-0.1,0.17c-1.16,1.92-2.45,4.05-3.75,6.21l-0.05-0.41c2.72,2.62,5.65,5.44,8.65,8.33l-0.43-0.04
									c1.89-1.24,3.96-2.6,6.06-3.98l0.18-0.12l0.19,0.1c2.12,1.18,4.59,2.19,7.2,2.82l0.21,0.05l0.05,0.21
									c0.54,2.21,1.13,4.62,1.73,7.05l-0.36-0.28c3.8-0.07,7.87-0.14,12-0.22l-0.35,0.29c0.47-2.24,0.97-4.67,1.48-7.1l0.05-0.22
									l0.21-0.06c2.36-0.67,4.81-1.7,7.08-3.08l0.01,0l0.19-0.11l0.19,0.11c2.08,1.26,4.15,2.52,6.2,3.76l-0.46,0.06
									c2.82-2.92,5.6-5.8,8.34-8.63l-0.04,0.45c-1.34-2.04-2.66-4.07-3.97-6.07l-0.12-0.18l0.11-0.19
									c1.27-2.28,2.22-4.71,2.83-7.19l0.05-0.21l0.21-0.05c2.38-0.58,4.73-1.16,7.05-1.72l-0.27,0.35c-0.07-4.1-0.13-8.1-0.2-12
									l0.27,0.33c-2.41-0.5-4.78-1-7.1-1.49l-0.2-0.04l-0.05-0.19c-0.72-2.55-1.77-4.94-3.07-7.1l-0.1-0.17l0.1-0.17
									c1.29-2.12,2.55-4.18,3.77-6.19l0.05,0.38c-3.03-2.94-5.89-5.71-8.62-8.36l0.35,0.03c-2.14,1.39-4.14,2.7-6.08,3.96
									l-0.14,0.09l-0.14-0.08c-2.42-1.35-4.84-2.27-7.21-2.86l-0.14-0.04l-0.03-0.14c-0.62-2.56-1.18-4.87-1.7-7.05l0.22,0.17
									c-4.65,0.06-8.61,0.11-12,0.16l0.16-0.13c-0.61,2.83-1.11,5.16-1.52,7.1l-0.02,0.07l-0.07,0.02
									c-2.54,0.71-4.33,1.54-5.49,2.11c-0.55,0.29-0.98,0.51-1.29,0.67C27.1,56.64,26.97,56.7,26.97,56.69
									c0-0.01,0.14-0.1,0.4-0.27c0.27-0.17,0.69-0.42,1.27-0.73c1.15-0.61,2.93-1.48,5.48-2.23l-0.08,0.09
									c0.39-1.94,0.86-4.27,1.43-7.11l0.03-0.13l0.13,0c3.39-0.07,7.35-0.16,12-0.26l0.17,0l0.04,0.17
									c0.54,2.18,1.11,4.48,1.75,7.04l-0.18-0.18c2.41,0.59,4.89,1.51,7.35,2.87l-0.27,0.01c1.93-1.27,3.93-2.59,6.06-3.99
									l0.19-0.12l0.16,0.16c2.74,2.63,5.61,5.39,8.65,8.32l0.18,0.17l-0.13,0.21c-1.22,2.02-2.46,4.08-3.75,6.21l0-0.33
									c1.34,2.21,2.42,4.65,3.16,7.25l-0.25-0.23c2.33,0.48,4.69,0.97,7.11,1.47l0.27,0.05l0,0.27c0.07,3.9,0.15,7.9,0.22,12
									l0.01,0.28l-0.27,0.07c-2.32,0.57-4.66,1.15-7.05,1.73l0.26-0.26c-0.62,2.54-1.59,5.03-2.9,7.37l-0.01-0.37
									c1.31,2,2.64,4.02,3.98,6.06l0.16,0.24l-0.2,0.21c-2.74,2.84-5.52,5.72-8.34,8.64l-0.2,0.21l-0.25-0.15
									c-2.05-1.24-4.12-2.5-6.2-3.76h0.38l-0.01,0c-2.33,1.41-4.84,2.47-7.26,3.15l0.26-0.28c-0.51,2.44-1.01,4.86-1.48,7.1
									l-0.06,0.29l-0.29,0c-4.13,0.07-8.2,0.14-12,0.21l-0.29,0.01l-0.07-0.28c-0.59-2.43-1.18-4.84-1.72-7.05l0.26,0.26
									c-2.67-0.66-5.2-1.69-7.37-2.91l0.36-0.01c-2.1,1.38-4.18,2.73-6.07,3.97l-0.23,0.15l-0.2-0.19
									c-2.99-2.9-5.92-5.73-8.63-8.35l-0.19-0.18l0.14-0.22c1.31-2.16,2.6-4.28,3.77-6.2l0,0.33c-1.43-2.37-2.48-4.89-3.14-7.26
									l0.23,0.21c-2.48-0.52-4.9-1.03-7.1-1.49l-0.23-0.05l0-0.23c-0.06-4.21-0.13-8.22-0.18-12l0-0.21l0.2-0.05
									c2.48-0.6,4.85-1.18,7.05-1.71l-0.18,0.18c0.68-2.71,1.7-5.17,2.91-7.33l0.01,0.22c-1.42-2.19-2.75-4.24-3.95-6.08
									l-0.08-0.13l0.1-0.11c3.42-3.5,6.24-6.39,8.39-8.59l0.07-0.07l0.08,0.05c1.98,1.23,3.51,2.18,4.57,2.84
									c0.5,0.32,0.89,0.56,1.17,0.75C26.83,56.59,26.97,56.68,26.97,56.69z"/>
							</g>
						</g>
					</g>
				</g>
			</g>
		</g>
	</g>
	<g>
		<g>
			<g>
				<g>
					<g>
						<g>
							<path class="st3" d="M412.04,319.06c1.2-0.73,2.48-1.28,3.8-1.65l0.78-3.76l6.36-0.11l0.92,3.73
								c1.33,0.33,2.63,0.83,3.86,1.52l3.21-2.11l4.58,4.42l-1.99,3.29c0.73,1.2,1.28,2.48,1.65,3.8l3.76,0.78l0.11,6.36l-3.73,0.92
								c-0.33,1.33-0.83,2.63-1.52,3.86l2.11,3.21l-4.42,4.58l-3.29-1.99c-1.2,0.73-2.48,1.28-3.8,1.65l-0.78,3.76l-6.36,0.11
								l-0.92-3.73c-1.33-0.33-2.63-0.83-3.86-1.52l-3.21,2.11l-4.58-4.42l1.99-3.29c-0.73-1.2-1.28-2.48-1.65-3.8l-3.76-0.78
								l-0.11-6.36l3.73-0.92c0.33-1.33,0.83-2.63,1.52-3.86l-2.11-3.21l4.42-4.58L412.04,319.06L412.04,319.06z M415.43,327.53
								c-2.62,2.71-2.54,7.03,0.17,9.65c2.71,2.62,7.03,2.54,9.65-0.17c2.62-2.71,2.54-7.03-0.17-9.65
								C422.36,324.75,418.04,324.82,415.43,327.53z"/>
						</g>
					</g>
				</g>
			</g>
		</g>
		<g>
			<g>
				<g>
					<g>
						<g>
							<path class="st3" d="M55.82,12.32c1.2-0.73,2.48-1.28,3.8-1.65l0.78-3.76l6.36-0.11l0.92,3.73c1.33,0.33,2.63,0.83,3.86,1.52
								l3.21-2.11l4.58,4.42l-1.99,3.29c0.73,1.2,1.28,2.48,1.65,3.8l3.76,0.78l0.11,6.36l-3.73,0.92
								c-0.33,1.33-0.83,2.63-1.52,3.86l2.11,3.21l-4.42,4.58l-3.29-1.99c-1.2,0.73-2.48,1.28-3.8,1.65l-0.78,3.76l-6.36,0.11
								l-0.92-3.73c-1.33-0.33-2.63-0.83-3.86-1.52l-3.21,2.11l-4.58-4.42l1.99-3.29c-0.73-1.2-1.28-2.48-1.65-3.8l-3.76-0.78
								l-0.11-6.36l3.73-0.92c0.33-1.33,0.83-2.63,1.52-3.86l-2.11-3.21l4.42-4.58L55.82,12.32L55.82,12.32z M59.21,20.79
								c-2.62,2.71-2.54,7.03,0.17,9.65c2.71,2.62,7.03,2.54,9.65-0.17c2.62-2.71,2.54-7.03-0.17-9.65
								C66.15,18,61.83,18.08,59.21,20.79z"/>
						</g>
					</g>
				</g>
			</g>
		</g>
		<g>
			<g>
				<g>
					<g>
						<g>
							<g>
								<path class="st3" d="M415.43,327.53c0,0,0.36-0.5,1.27-1.11c0.9-0.6,2.46-1.26,4.45-1.05c0.98,0.11,2.05,0.43,3.03,1.07
									c0.97,0.65,1.88,1.56,2.45,2.76c0.3,0.59,0.51,1.24,0.62,1.92c0.12,0.68,0.14,1.39,0.04,2.1c-0.17,1.43-0.85,2.83-1.89,3.93
									c-1.07,1.09-2.45,1.81-3.87,2.03c-0.71,0.13-1.42,0.13-2.1,0.04c-0.68-0.09-1.34-0.27-1.94-0.55
									c-1.21-0.53-2.16-1.41-2.84-2.35c-0.68-0.95-1.04-2.01-1.18-2.99c-0.28-1.98,0.33-3.57,0.9-4.49
									C414.94,327.91,415.43,327.53,415.43,327.53c0.04,0.03-0.41,0.45-0.94,1.38c-0.51,0.92-1.06,2.47-0.75,4.37
									c0.16,0.93,0.51,1.94,1.17,2.84c0.66,0.89,1.57,1.72,2.72,2.21c0.57,0.26,1.19,0.43,1.84,0.51
									c0.65,0.09,1.32,0.08,1.99-0.04c1.34-0.22,2.64-0.9,3.65-1.93c0.99-1.04,1.63-2.37,1.8-3.71c0.1-0.67,0.09-1.35-0.03-1.99
									c-0.1-0.64-0.3-1.26-0.58-1.82c-0.53-1.13-1.39-2.02-2.3-2.64c-0.92-0.63-1.94-0.95-2.88-1.07
									c-1.9-0.24-3.44,0.36-4.34,0.91C415.86,327.11,415.46,327.57,415.43,327.53z"/>
							</g>
						</g>
					</g>
				</g>
			</g>
		</g>
		<g>
			<g>
				<g>
					<g>
						<g>
							<g>
								<path class="st3" d="M412.04,319.06c0,0.01-0.07-0.03-0.21-0.11c-0.15-0.09-0.36-0.21-0.63-0.36
									c-0.57-0.34-1.4-0.83-2.48-1.46l0.08-0.01c-1.12,1.18-2.6,2.73-4.39,4.6l0.01-0.12c0.64,0.97,1.36,2.05,2.12,3.21l0.04,0.06
									l-0.03,0.06c-0.62,1.13-1.15,2.42-1.49,3.83l-0.02,0.08l-0.08,0.02c-1.16,0.29-2.42,0.6-3.73,0.93l0.11-0.14
									c0.04,2,0.08,4.13,0.13,6.36l-0.12-0.15c1.17,0.24,2.45,0.5,3.77,0.78l0.1,0.02l0.03,0.09c0.35,1.23,0.9,2.53,1.64,3.76
									l0.05,0.09l-0.05,0.09c-0.62,1.02-1.3,2.14-1.99,3.29l-0.03-0.22c1.44,1.39,2.99,2.88,4.58,4.41l-0.23-0.02
									c1-0.66,2.1-1.38,3.21-2.11l0.09-0.06l0.1,0.05c1.12,0.63,2.43,1.16,3.81,1.5l0.11,0.03l0.03,0.11
									c0.29,1.17,0.6,2.45,0.92,3.73l-0.19-0.15c2.01-0.04,4.17-0.07,6.36-0.11l-0.19,0.15c0.25-1.19,0.51-2.47,0.78-3.76
									l0.02-0.12l0.11-0.03c1.25-0.35,2.55-0.9,3.75-1.63l0,0l0.1-0.06l0.1,0.06c1.1,0.67,2.2,1.33,3.29,1.99l-0.24,0.03
									c1.49-1.55,2.97-3.07,4.42-4.58l-0.02,0.24c-0.71-1.08-1.41-2.15-2.11-3.22l-0.06-0.1l0.06-0.1c0.68-1.21,1.18-2.5,1.5-3.81
									l0.03-0.11l0.11-0.03c1.26-0.31,2.51-0.61,3.73-0.91l-0.14,0.18c-0.04-2.17-0.07-4.29-0.11-6.36l0.14,0.17
									c-1.28-0.27-2.53-0.53-3.76-0.79l-0.1-0.02l-0.03-0.1c-0.38-1.35-0.94-2.61-1.63-3.76l-0.05-0.09l0.05-0.09
									c0.68-1.13,1.35-2.22,2-3.28l0.03,0.2c-1.61-1.56-3.12-3.03-4.57-4.43l0.19,0.02c-1.13,0.74-2.19,1.43-3.22,2.1l-0.07,0.05
									l-0.07-0.04c-1.28-0.72-2.57-1.2-3.82-1.52l-0.08-0.02l-0.02-0.08c-0.33-1.36-0.62-2.58-0.9-3.74l0.11,0.09
									c-2.46,0.03-4.56,0.06-6.36,0.08l0.08-0.07c-0.32,1.5-0.59,2.73-0.81,3.76l-0.01,0.04l-0.04,0.01
									c-1.35,0.38-2.29,0.82-2.91,1.12c-0.29,0.15-0.52,0.27-0.68,0.36C412.11,319.03,412.04,319.07,412.04,319.06
									c0-0.01,0.07-0.05,0.21-0.14c0.15-0.09,0.37-0.22,0.67-0.39c0.61-0.32,1.55-0.78,2.9-1.18l-0.04,0.05
									c0.21-1.03,0.46-2.26,0.76-3.77l0.01-0.07l0.07,0c1.8-0.04,3.9-0.09,6.36-0.14l0.09,0l0.02,0.09
									c0.29,1.15,0.59,2.38,0.93,3.73l-0.09-0.09c1.28,0.31,2.59,0.8,3.9,1.52l-0.15,0.01c1.02-0.67,2.08-1.37,3.21-2.11l0.1-0.07
									l0.09,0.08c1.45,1.39,2.97,2.86,4.58,4.41l0.09,0.09l-0.07,0.11c-0.64,1.07-1.31,2.16-1.99,3.29l0-0.18
									c0.71,1.17,1.28,2.47,1.68,3.84l-0.13-0.12c1.23,0.26,2.49,0.51,3.76,0.78l0.14,0.03l0,0.14c0.04,2.07,0.08,4.19,0.12,6.36
									l0,0.15l-0.14,0.04c-1.23,0.3-2.47,0.61-3.73,0.92l0.14-0.14c-0.33,1.35-0.84,2.67-1.53,3.91l-0.01-0.2
									c0.7,1.06,1.4,2.13,2.11,3.21l0.08,0.13l-0.11,0.11c-1.45,1.5-2.92,3.03-4.42,4.58l-0.11,0.11l-0.13-0.08
									c-1.09-0.66-2.18-1.32-3.29-1.99h0.2l0,0c-1.23,0.75-2.56,1.31-3.85,1.67l0.14-0.15c-0.27,1.29-0.54,2.58-0.78,3.76
									l-0.03,0.15l-0.16,0c-2.19,0.04-4.35,0.07-6.36,0.11l-0.15,0l-0.04-0.15c-0.32-1.29-0.63-2.56-0.91-3.73l0.14,0.14
									c-1.41-0.35-2.76-0.9-3.9-1.54l0.19-0.01c-1.11,0.73-2.21,1.45-3.22,2.1l-0.12,0.08l-0.1-0.1
									c-1.59-1.54-3.13-3.03-4.57-4.42l-0.1-0.1l0.07-0.12c0.7-1.14,1.38-2.27,2-3.28l0,0.17c-0.76-1.26-1.31-2.59-1.66-3.85
									l0.12,0.11c-1.32-0.28-2.6-0.55-3.76-0.79l-0.12-0.03l0-0.12c-0.03-2.23-0.07-4.36-0.1-6.36l0-0.11l0.11-0.03
									c1.31-0.32,2.57-0.62,3.74-0.9l-0.09,0.09c0.36-1.44,0.9-2.74,1.54-3.88l0,0.12c-0.75-1.16-1.46-2.25-2.09-3.22l-0.04-0.07
									l0.06-0.06c1.81-1.85,3.31-3.39,4.44-4.55l0.04-0.04l0.04,0.03c1.05,0.65,1.86,1.16,2.42,1.51c0.27,0.17,0.47,0.3,0.62,0.4
									C411.96,319.01,412.04,319.06,412.04,319.06z"/>
							</g>
						</g>
					</g>
				</g>
			</g>
		</g>
	</g>
	<g>
		<g>
			<g>
				<g>
					<g>
						<path class="st3" d="M299.01,371.87c5.15-2.41,11.21-2.72,16.93-1.86c3.07,0.46,6.27,1.29,8.36,3.38
							c2.09,2.09,2.49,5.77,0.09,7.56c-1.43,1.07-3.42,1.23-5.27,1.21c-4.48-0.05-9.44-0.76-13.02,1.68
							c-2.04,1.39-3.4,3.7-5.84,4.39c-2.39,0.67-5.08-0.61-6.34-2.56c-1.27-1.95-1.31-4.39-0.72-6.59
							C293.2,379.09,293.83,374.3,299.01,371.87z"/>
					</g>
				</g>
			</g>
			<g>
				<g>
					<g>
						<path class="st3" d="M287.21,351.25c3.15,4.07,9.27,2.72,12.11,0.24c2.84-2.49,4.04-6.09,5.13-9.53
							c2.49-7.85,5.01-16.09,3.15-24.08c-0.55-2.39-1.54-4.77-3.4-6.55c-1.85-1.77-4.71-2.83-7.31-2.2c-3.09,0.74-5,3.48-6.39,6.08
							c-4.07,7.65-6.23,16.14-6.26,24.64C284.23,343.81,284.74,347.97,287.21,351.25"/>
					</g>
				</g>
			</g>
			<g>
				<g>
					<g>
						<path class="st3" d="M278.57,357.09c3.42-3.67,4.07-9.03,2.55-13.64c-1.52-4.6-4.96-8.52-8.92-11.72
							c-4.64-3.75-10.1-6.67-15.97-8.53c-2.31-0.74-4.75-1.32-7.18-1.11c-2.44,0.21-4.89,1.34-6.03,3.3
							c-1.68,2.9-0.07,6.42,1.67,9.3c3.07,5.06,6.58,9.9,10.49,14.47c3.14,3.67,6.75,7.29,11.54,8.95
							c4.79,1.66,9.77,1.46,12.31-1.55"/>
					</g>
				</g>
			</g>
			<g>
				<g>
					<g>
						<g>
							<path class="st0" d="M287,412.69c0.06,0,0.15-0.66,0.28-1.85c0.14-1.35,0.33-3.04,0.54-5.05c0.26-2.13,0.6-4.65,1.25-7.41
								c0.65-2.75,1.67-5.72,2.97-8.74c1.35-3,3-5.73,4.93-7.91c1.91-2.19,4.14-3.78,6.23-4.69c2.09-0.93,3.96-1.31,5.25-1.48
								c1.3-0.12,2.03-0.21,2.03-0.27c0-0.05-0.73-0.06-2.07-0.03c-1.33,0.08-3.28,0.38-5.47,1.29c-2.21,0.89-4.57,2.5-6.58,4.73
								c-2.02,2.23-3.73,5.02-5.11,8.07c-1.33,3.07-2.33,6.08-2.95,8.89c-0.62,2.8-0.9,5.36-1.09,7.5
								c-0.18,2.14-0.24,3.88-0.28,5.08C286.93,412.02,286.94,412.68,287,412.69z"/>
						</g>
					</g>
				</g>
			</g>
			<g>
				<g>
					<g>
						<g>
							<path class="st0" d="M287.39,408.8c0.03,0,0.05-0.3,0.05-0.86c0-0.65,0-1.46-0.01-2.46c-0.01-2.13-0.01-5.22,0.12-9.02
								c0.21-7.62,0.93-15.81,2.33-27.37c1.32-10.87,3.1-23.51,4.98-31.74c0.4-1.87,0.81-3.55,1.19-5.03
								c0.36-1.48,0.67-2.75,0.97-3.78c0.26-0.97,0.47-1.76,0.63-2.39c0.14-0.55,0.19-0.84,0.17-0.85
								c-0.03-0.01-0.14,0.27-0.33,0.81c-0.21,0.62-0.47,1.4-0.79,2.35c-0.35,1.02-0.71,2.29-1.12,3.76
								c-0.43,1.47-0.87,3.15-1.31,5.01c-1.86,7.45-3.82,17.86-5.23,29.45c-1.4,11.58-2.03,22.13-2.09,29.76
								c-0.05,3.82,0.04,6.91,0.15,9.04c0.07,1,0.12,1.81,0.17,2.45C287.32,408.51,287.36,408.8,287.39,408.8z"/>
						</g>
					</g>
				</g>
			</g>
			<g>
				<g>
					<g>
						<g>
							<path class="st0" d="M287.44,388.46c0.06,0,0.05-0.91-0.02-2.57c-0.1-1.65-0.35-4.03-0.87-6.95
								c-0.54-2.91-1.3-6.37-2.5-10.13c-0.52-1.72-1.73-5.83-4.68-11.98c-3.88-8.33-9.15-15.14-13.73-19.36
								c-1.08-1.12-2.27-1.93-3.23-2.72c-0.5-0.38-0.93-0.76-1.38-1.06c-0.45-0.28-0.87-0.54-1.25-0.78
								c-1.51-0.93-2.35-1.43-2.38-1.38c-0.14,0.17,3.38,2.04,7.82,6.32c4.42,4.27,9.54,11.03,13.39,19.29
								c2.15,4.48,3.64,8.48,4.7,11.87c1.23,3.72,2.04,7.14,2.66,10.03c0.58,2.89,0.92,5.25,1.13,6.88
								C287.26,387.56,287.38,388.46,287.44,388.46z"/>
						</g>
					</g>
				</g>
			</g>
		</g>
		<g>
			<g>
				<g>
					<polygon class="st0" points="263.65,403.56 265.9,431.48 305.51,431.48 307.76,403.56 					"/>
				</g>
			</g>
		</g>
		<g>
			<g>
				<g>
					<rect x="259.82" y="392.55" class="st0" width="52.66" height="11.01"/>
				</g>
			</g>
		</g>
		<g>
			<g>
				<g>
					<polygon class="st3" points="259.82,430.41 259.82,433.46 262.3,433.46 311.61,433.46 311.61,430.41 					"/>
				</g>
			</g>
		</g>
		<g>
			<g>
				<g>
					<polygon class="st0" points="264.72,438.83 262.3,433.46 309.73,433.46 306.9,438.83 					"/>
				</g>
			</g>
		</g>
		<g>
			<g>
				<g>
					<g>
						<path class="st4" d="M307.02,412.68c0.01,0.01-0.05,0.09-0.18,0.26c-0.16,0.19-0.35,0.42-0.59,0.71
							c-0.56,0.65-1.34,1.55-2.31,2.67l-0.1,0.12l-0.1-0.12c-1.45-1.82-3.39-4.24-5.67-7.1h0.33c-1.69,2.16-3.56,4.57-5.58,7.16
							l-0.18,0.22l-0.2-0.21c-2.06-2.22-4.3-4.63-6.62-7.13l0.38,0c-0.11,0.13-0.24,0.27-0.36,0.41c-2.05,2.33-4.04,4.59-5.92,6.72
							l-0.2,0.22l-0.18-0.23c-2.01-2.57-3.89-4.98-5.58-7.15l0.32,0.01c-2.75,2.84-5.09,5.25-6.88,7.1l-0.12,0.13l-0.09-0.14
							c-0.91-1.38-1.63-2.48-2.15-3.28c-0.23-0.36-0.41-0.64-0.55-0.87c-0.12-0.2-0.18-0.31-0.17-0.31
							c0.01-0.01,0.09,0.09,0.23,0.28c0.16,0.22,0.36,0.5,0.61,0.84c0.55,0.78,1.31,1.86,2.26,3.22l-0.22-0.02
							c1.76-1.87,4.06-4.31,6.77-7.18l0.17-0.18l0.15,0.2c1.71,2.17,3.61,4.56,5.63,7.12l-0.38-0.01c1.87-2.14,3.86-4.4,5.9-6.73
							c0.12-0.14,0.25-0.28,0.36-0.41l0.19-0.21l0.19,0.21c2.32,2.51,4.55,4.92,6.6,7.15l-0.37,0.01c2.04-2.57,3.93-4.97,5.64-7.12
							l0.17-0.21l0.16,0.21c2.23,2.89,4.13,5.34,5.55,7.18l-0.2-0.01c1.01-1.1,1.82-1.97,2.4-2.61c0.26-0.27,0.47-0.49,0.64-0.67
							C306.93,412.75,307.01,412.68,307.02,412.68z"/>
					</g>
				</g>
			</g>
		</g>
		<g>
			<g>
				<g>
					<g>
						<path class="st4" d="M308.31,403.38c0,0.12-9.92,0.22-22.16,0.22c-12.24,0-22.17-0.1-22.17-0.22c0-0.12,9.92-0.22,22.17-0.22
							C298.38,403.15,308.31,403.25,308.31,403.38z"/>
					</g>
				</g>
			</g>
		</g>
		<g>
			<g>
				<g>
					<g>
						<path class="st4" d="M310.31,433.76c0,0.12-10.79,0.22-24.09,0.22c-13.31,0-24.09-0.1-24.09-0.22
							c0-0.12,10.78-0.22,24.09-0.22C299.52,433.54,310.31,433.64,310.31,433.76z"/>
					</g>
				</g>
			</g>
		</g>
	</g>
	<g>
		<g>
			<g>
				<g>
					<g>
						<path class="st0" d="M231.8,296h-28.17c-5.31,0-9.61-4.3-9.61-9.61v-28.17c0-5.31,4.3-9.61,9.61-9.61h28.17
							c5.31,0,9.61,4.3,9.61,9.61v28.17C241.41,291.7,237.11,296,231.8,296z"/>
					</g>
				</g>
			</g>
		</g>
		<g>
			<g>
				<g>
					<g>
						<path class="st1" d="M207.22,283.85c-0.28,0-0.55-0.11-0.74-0.31c-0.41-0.41-0.41-1.08,0-1.49l5.63-5.63
							c-3.04-3.79-2.74-9.39,0.7-12.84c1.82-1.82,4.24-2.82,6.81-2.82c2.57,0,4.99,1,6.81,2.82c3.75,3.76,3.75,9.87,0,13.62
							c-1.82,1.82-4.24,2.82-6.81,2.82c-2.22,0-4.3-0.73-6.03-2.12l-5.63,5.63C207.77,283.74,207.5,283.85,207.22,283.85z
							 M219.62,262.87c-2.01,0-3.9,0.78-5.32,2.2c-1.42,1.42-2.2,3.31-2.2,5.32s0.78,3.9,2.2,5.32c1.42,1.42,3.31,2.21,5.32,2.21
							c2.01,0,3.9-0.78,5.32-2.21c1.42-1.42,2.2-3.31,2.2-5.32s-0.78-3.9-2.2-5.32C223.53,263.65,221.64,262.87,219.62,262.87z"/>
					</g>
				</g>
			</g>
		</g>
	</g>
	<g>
		<g>
			<g>
				<g>
					<g>
						<g>
							<path class="st0" d="M427.14,85.2h-24.22c-5.73,0-10.38-4.65-10.38-10.38V50.59c0-5.74,4.65-10.38,10.38-10.38h24.22
								c5.74,0,10.38,4.65,10.38,10.38v24.22C437.53,80.55,432.88,85.2,427.14,85.2z"/>
						</g>
					</g>
				</g>
			</g>
		</g>
		<g>
			<g>
				<g>
					<g>
						<path class="st1" d="M416.88,70.49c0,1.05-0.86,1.89-1.9,1.89c-1.05,0-1.89-0.86-1.89-1.9c0-1.05,0.86-1.89,1.9-1.89
							C416.04,68.59,416.89,69.44,416.88,70.49z"/>
					</g>
					<g>
						<g>
							<path class="st1" d="M411.2,68.05c2.08-2.19,5.47-2.25,7.6-0.1c0.97,0.98,2.48-0.52,1.51-1.5
								c-2.93-2.95-7.74-2.94-10.62,0.09C408.75,67.53,410.25,69.05,411.2,68.05L411.2,68.05z"/>
						</g>
					</g>
					<g>
						<g>
							<path class="st1" d="M404.76,59.23c2.88-2.49,6.32-4.06,10.18-4.07c3.82-0.01,7.59,1.35,10.38,3.97
								c1,0.94,2.52-0.56,1.51-1.5c-3.2-3.01-7.5-4.62-11.89-4.61c-4.43,0.01-8.38,1.82-11.69,4.69
								C402.22,58.61,403.72,60.12,404.76,59.23L404.76,59.23z"/>
						</g>
					</g>
					<g>
						<g>
							<path class="st1" d="M407.3,64.12c1.93-2.09,4.64-3.4,7.5-3.46c2.94-0.07,5.78,1.14,7.82,3.24c0.96,0.98,2.47-0.52,1.51-1.5
								c-2.42-2.49-5.85-3.96-9.33-3.88c-3.4,0.08-6.7,1.58-9.01,4.08C404.87,63.61,406.36,65.13,407.3,64.12L407.3,64.12z"/>
						</g>
					</g>
				</g>
			</g>
		</g>
	</g>
</g>
<g id="Background_Simple" class="st5">
	<g class="st6">
		<path class="st4" d="M389.15,78.38l-1.99-3.28c-16.78-27.65-47.12-44.32-79.11-42.3c-4.11,0.26-8.21,0.82-12.25,1.68
			c-29.08,6.23-54.39,28.22-64.88,56.39c-6.17,16.57-7.89,35.64-19.6,48.79c-15.24,17.11-41.1,17.65-63.84,16.94
			s-48.63-0.1-63.79,17.08c-9.5,10.76-12.51,26.06-11.75,40.47c2.03,38.15,28.61,72.26,62.42,89.22
			c33.81,16.95,73.61,18.47,110.61,11.02c51.83-10.45,101.12-39.14,130.75-83.46S412.86,126.22,389.15,78.38z"/>
	</g>
	<g class="st6">
		<circle class="st4" cx="90.06" cy="54.63" r="25.69"/>
	</g>
	<g class="st6">
		
			<ellipse transform="matrix(0.7071 -0.7071 0.7071 0.7071 -168.959 329.1147)" class="st4" cx="312.8" cy="368.51" rx="25.69" ry="25.69"/>
	</g>
</g>
<g id="Icons">
	<g>
		<g>
			<path class="st7" d="M355.23,236.36c0.14,0,0.26,5.04,0.26,11.26c0,6.22-0.12,11.26-0.26,11.26c-0.14,0-0.26-5.04-0.26-11.26
				C354.97,241.41,355.08,236.36,355.23,236.36z"/>
		</g>
	</g>
	<g>
		<g>
			<path class="st7" d="M270.51,116.22c-0.14,0-0.26-8.4-0.26-18.76c0-10.36,0.12-18.76,0.26-18.76c0.14,0,0.26,8.4,0.26,18.76
				C270.77,107.82,270.66,116.22,270.51,116.22z"/>
		</g>
	</g>
	<g>
		<g>
			<path class="st7" d="M241.51,160.7c0,0.02-0.24,0.04-0.69,0.05c-0.51,0.01-1.17,0.03-1.99,0.05c-1.79,0.02-4.26,0.05-7.3,0.08
				c-6.22,0.02-14.71,0.05-24.09,0.08c-1.18,0-2.34,0-3.48,0c-0.57,0-1.15,0.01-1.74-0.07c-0.58-0.1-1.15-0.23-1.67-0.48
				c-2.14-0.94-3.52-2.92-4.13-4.89c-0.31-1-0.44-2.02-0.43-3.01c0.01-0.96,0.02-1.9,0.03-2.81c0.02-1.81,0.05-3.5,0.07-5.04
				c0.06-3.04,0.1-5.52,0.13-7.3c0.03-0.82,0.05-1.48,0.06-1.98c0.02-0.45,0.04-0.69,0.06-0.69c0.02,0,0.03,0.24,0.05,0.69
				c0.01,0.51,0.02,1.17,0.04,1.99c0.01,1.79,0.02,4.26,0.03,7.3c0,1.55,0,3.23,0,5.04c0.05,1.81-0.21,3.78,0.43,5.67
				c0.6,1.87,1.91,3.72,3.88,4.57c0.48,0.23,1.01,0.35,1.54,0.44c0.53,0.07,1.09,0.06,1.67,0.06c1.15,0,2.31,0,3.48,0
				c9.38,0.03,17.87,0.06,24.09,0.08c3.04,0.03,5.52,0.06,7.3,0.08c0.82,0.02,1.48,0.04,1.99,0.05
				C241.27,160.66,241.51,160.68,241.51,160.7z"/>
		</g>
	</g>
	<g>
		<g>
			<g>
				<g>
					<g>
						<g>
							<path class="st1" d="M288.87,78.49h-40.18c-5.74,0-10.38-4.65-10.38-10.38V27.93c0-5.74,4.65-10.38,10.38-10.38h40.18
								c5.74,0,10.38,4.65,10.38,10.38v40.18C299.25,73.84,294.6,78.49,288.87,78.49z"/>
						</g>
						<g>
							<g>
								<path class="st7" d="M288.87,78.49c0-0.05,0.8,0.01,2.26-0.31c1.43-0.34,3.62-1.17,5.49-3.33c0.93-1.06,1.74-2.46,2.16-4.13
									c0.48-1.66,0.3-3.57,0.33-5.6c-0.01-4.06-0.02-8.69-0.04-13.79c-0.01-5.11-0.02-10.71-0.03-16.72c0-1.5,0-3.03-0.01-4.58
									c-0.02-1.56,0.08-3.13-0.34-4.64c-0.75-3.04-3.1-5.75-6.2-6.92c-0.76-0.31-1.58-0.48-2.41-0.6
									c-0.82-0.09-1.68-0.08-2.55-0.08c-1.73,0-3.48,0-5.25,0c-3.54,0-7.15,0-10.83,0.01c-7.35,0-14.97,0-22.76,0.01
									c-1.9,0.02-3.79,0.54-5.37,1.55c-0.79,0.5-1.53,1.1-2.14,1.8c-0.63,0.68-1.16,1.46-1.56,2.3c-0.43,0.82-0.69,1.72-0.88,2.61
									c-0.17,0.91-0.18,1.81-0.18,2.76c0,1.87,0,3.73,0,5.56c-0.01,7.35-0.01,14.45-0.02,21.21c0,3.38-0.01,6.67-0.01,9.88
									c0.03,1.6-0.11,3.19,0.2,4.67c0.31,1.49,0.95,2.88,1.83,4.05c1.75,2.38,4.49,3.82,7.21,4.04c2.75,0.1,5.46,0.04,8,0.06
									c10.21,0.03,18.47,0.06,24.21,0.08c2.84,0.02,5.06,0.04,6.58,0.05c0.74,0.01,1.31,0.02,1.71,0.03
									C288.67,78.47,288.87,78.49,288.87,78.49s-0.2,0.02-0.58,0.03c-0.41,0.01-0.97,0.01-1.71,0.03
									c-1.52,0.01-3.74,0.03-6.58,0.05c-5.74,0.02-14,0.05-24.21,0.08c-2.56-0.02-5.22,0.06-8.04-0.03
									c-2.84-0.22-5.69-1.72-7.52-4.19c-0.92-1.22-1.6-2.67-1.92-4.23c-0.32-1.57-0.19-3.17-0.22-4.76c0-3.2-0.01-6.5-0.01-9.88
									c0-6.76-0.01-13.85-0.02-21.21c0-1.84,0-3.69,0-5.56c0-0.92,0-1.91,0.19-2.85c0.19-0.94,0.47-1.88,0.92-2.75
									c0.42-0.87,0.98-1.69,1.64-2.41c0.65-0.74,1.42-1.37,2.25-1.89c1.67-1.07,3.65-1.61,5.65-1.63c7.8,0,15.41,0,22.76,0.01
									c3.68,0,7.29,0,10.83,0.01c1.77,0,3.52,0,5.25,0c0.86,0,1.73-0.01,2.61,0.09c0.86,0.12,1.72,0.3,2.52,0.63
									c3.24,1.22,5.69,4.07,6.47,7.25c0.44,1.6,0.33,3.22,0.34,4.76c0,1.55,0,3.08-0.01,4.58c-0.01,6.01-0.02,11.61-0.03,16.72
									c-0.01,5.11-0.03,9.73-0.04,13.79c-0.04,2.01,0.13,3.95-0.38,5.66c-0.44,1.71-1.29,3.13-2.25,4.2
									c-1.93,2.19-4.17,2.99-5.62,3.3c-0.74,0.14-1.32,0.21-1.7,0.2C289.07,78.5,288.87,78.49,288.87,78.49z"/>
							</g>
						</g>
					</g>
				</g>
			</g>
		</g>
	</g>
	<g>
		<g>
			<g>
				<g>
					<g>
						<g>
							<path class="st1" d="M364.12,99.41h-40.18c-5.73,0-10.38-4.65-10.38-10.38V48.85c0-5.74,4.65-10.38,10.38-10.38h40.18
								c5.74,0,10.38,4.65,10.38,10.38v40.18C374.5,94.76,369.85,99.41,364.12,99.41z"/>
						</g>
						<g>
							<g>
								<path class="st7" d="M364.12,99.41c0-0.05,0.8,0.01,2.26-0.31c1.43-0.34,3.62-1.17,5.49-3.33c0.93-1.06,1.74-2.46,2.16-4.13
									c0.48-1.66,0.3-3.57,0.33-5.6c-0.01-4.06-0.02-8.69-0.04-13.79c-0.01-5.11-0.02-10.71-0.03-16.72c0-1.5,0-3.03-0.01-4.58
									c-0.02-1.56,0.08-3.13-0.34-4.64c-0.75-3.04-3.1-5.75-6.2-6.92c-0.76-0.31-1.58-0.48-2.41-0.6
									c-0.82-0.09-1.68-0.08-2.55-0.08c-1.73,0-3.48,0-5.25,0c-3.54,0-7.15,0-10.83,0.01c-7.35,0-14.97,0-22.76,0.01
									c-1.9,0.02-3.79,0.54-5.37,1.55c-0.79,0.5-1.53,1.1-2.14,1.8c-0.63,0.68-1.16,1.46-1.56,2.3c-0.43,0.82-0.69,1.72-0.88,2.61
									c-0.17,0.91-0.18,1.81-0.18,2.76c0,1.87,0,3.73,0,5.56c-0.01,7.35-0.01,14.45-0.02,21.21c0,3.38-0.01,6.67-0.01,9.88
									c0.03,1.6-0.11,3.19,0.2,4.67c0.31,1.49,0.95,2.88,1.83,4.05c1.76,2.38,4.49,3.82,7.21,4.04c2.75,0.1,5.46,0.04,8,0.06
									c10.21,0.03,18.47,0.06,24.21,0.08c2.84,0.02,5.06,0.04,6.58,0.05c0.74,0.01,1.31,0.02,1.71,0.03
									C363.92,99.39,364.12,99.41,364.12,99.41s-0.2,0.02-0.58,0.03c-0.41,0.01-0.97,0.01-1.71,0.03
									c-1.52,0.01-3.74,0.03-6.58,0.05c-5.74,0.02-14,0.05-24.21,0.08c-2.56-0.02-5.22,0.06-8.04-0.03
									c-2.84-0.22-5.69-1.72-7.52-4.19c-0.92-1.22-1.6-2.67-1.92-4.23c-0.32-1.57-0.19-3.17-0.22-4.76c0-3.2-0.01-6.5-0.01-9.88
									c0-6.76-0.01-13.85-0.02-21.21c0-1.84,0-3.69,0-5.56c0-0.92,0-1.91,0.19-2.85c0.19-0.94,0.47-1.88,0.92-2.75
									c0.43-0.87,0.98-1.69,1.64-2.41c0.65-0.74,1.42-1.37,2.25-1.89c1.67-1.07,3.65-1.61,5.65-1.63c7.8,0,15.41,0,22.76,0.01
									c3.68,0,7.29,0,10.83,0.01c1.77,0,3.52,0,5.25,0c0.86,0,1.73-0.01,2.61,0.09c0.86,0.12,1.72,0.3,2.52,0.63
									c3.24,1.22,5.69,4.07,6.47,7.25c0.44,1.6,0.33,3.22,0.34,4.76c0,1.55,0,3.08-0.01,4.58c-0.01,6.01-0.02,11.61-0.03,16.72
									c-0.01,5.11-0.03,9.73-0.04,13.79c-0.04,2.01,0.13,3.95-0.38,5.66c-0.44,1.71-1.29,3.13-2.25,4.2
									c-1.93,2.19-4.17,2.99-5.62,3.3c-0.74,0.14-1.32,0.21-1.7,0.2C364.31,99.42,364.12,99.41,364.12,99.41z"/>
							</g>
						</g>
					</g>
				</g>
			</g>
		</g>
	</g>
	<g>
		<g>
			<g>
				<g>
					<g>
						<g>
							<path class="st1" d="M430.4,173h-40.18c-5.74,0-10.38-4.65-10.38-10.38v-40.18c0-5.74,4.65-10.38,10.38-10.38h40.18
								c5.74,0,10.38,4.65,10.38,10.38v40.18C440.78,168.35,436.13,173,430.4,173z"/>
						</g>
						<g>
							<g>
								<path class="st7" d="M430.4,173c0-0.05,0.8,0.01,2.26-0.31c1.43-0.34,3.62-1.17,5.49-3.33c0.93-1.06,1.74-2.46,2.16-4.13
									c0.48-1.66,0.3-3.57,0.33-5.6c-0.01-4.06-0.02-8.69-0.04-13.79c-0.01-5.11-0.02-10.71-0.03-16.72c0-1.5,0-3.03-0.01-4.58
									c-0.02-1.56,0.08-3.13-0.34-4.64c-0.75-3.04-3.1-5.75-6.2-6.92c-0.76-0.31-1.58-0.48-2.41-0.6
									c-0.82-0.09-1.68-0.08-2.55-0.08c-1.73,0-3.48,0-5.25,0c-3.54,0-7.15,0-10.83,0.01c-7.35,0-14.97,0-22.76,0.01
									c-1.9,0.02-3.79,0.54-5.37,1.55c-0.79,0.5-1.53,1.1-2.14,1.8c-0.63,0.68-1.16,1.46-1.56,2.3c-0.43,0.82-0.69,1.72-0.88,2.61
									c-0.17,0.91-0.18,1.81-0.18,2.76c0,1.87,0,3.73,0,5.56c-0.01,7.35-0.01,14.45-0.02,21.21c0,3.38-0.01,6.67-0.01,9.88
									c0.03,1.6-0.11,3.19,0.2,4.67c0.31,1.49,0.95,2.88,1.83,4.05c1.76,2.38,4.49,3.82,7.21,4.04c2.75,0.1,5.46,0.04,8,0.06
									c10.21,0.03,18.47,0.06,24.21,0.08c2.84,0.02,5.06,0.04,6.58,0.05c0.74,0.01,1.31,0.02,1.71,0.03
									C430.2,172.99,430.4,173,430.4,173s-0.2,0.02-0.58,0.03c-0.41,0.01-0.97,0.01-1.71,0.03c-1.52,0.01-3.74,0.03-6.58,0.05
									c-5.74,0.02-14,0.05-24.21,0.08c-2.56-0.02-5.22,0.06-8.04-0.03c-2.84-0.22-5.69-1.72-7.52-4.19
									c-0.92-1.22-1.6-2.67-1.92-4.23c-0.32-1.57-0.19-3.17-0.22-4.76c0-3.2-0.01-6.5-0.01-9.88c0-6.76-0.01-13.85-0.02-21.21
									c0-1.84,0-3.69,0-5.56c0-0.92,0-1.91,0.19-2.85c0.19-0.94,0.47-1.88,0.92-2.75c0.43-0.87,0.98-1.69,1.64-2.41
									c0.65-0.74,1.42-1.37,2.25-1.89c1.67-1.07,3.65-1.61,5.65-1.63c7.8,0,15.41,0,22.76,0.01c3.68,0,7.29,0,10.83,0.01
									c1.77,0,3.52,0,5.25,0c0.86,0,1.73-0.01,2.61,0.09c0.86,0.12,1.72,0.3,2.52,0.63c3.24,1.22,5.69,4.07,6.47,7.25
									c0.44,1.6,0.33,3.22,0.34,4.76c0,1.55,0,3.08-0.01,4.58c-0.01,6.01-0.02,11.61-0.03,16.72c-0.01,5.11-0.03,9.73-0.04,13.79
									c-0.04,2.01,0.13,3.95-0.38,5.66c-0.44,1.71-1.29,3.13-2.25,4.2c-1.93,2.19-4.17,2.99-5.62,3.3
									c-0.74,0.14-1.32,0.21-1.7,0.2C430.6,173.01,430.4,173,430.4,173z"/>
							</g>
						</g>
					</g>
				</g>
			</g>
		</g>
	</g>
	<g>
		<g>
			<g>
				<g>
					<g>
						<g>
							<path class="st1" d="M205.68,129.88H165.5c-5.74,0-10.38-4.65-10.38-10.38V79.32c0-5.74,4.65-10.38,10.38-10.38h40.18
								c5.74,0,10.38,4.65,10.38,10.38v40.18C216.06,125.23,211.41,129.88,205.68,129.88z"/>
						</g>
						<g>
							<g>
								<path class="st7" d="M205.68,129.88c0-0.05,0.8,0.01,2.26-0.31c1.43-0.34,3.62-1.17,5.49-3.33
									c0.93-1.06,1.74-2.46,2.16-4.13c0.48-1.66,0.3-3.57,0.33-5.6c-0.01-4.06-0.02-8.69-0.04-13.79
									c-0.01-5.11-0.02-10.71-0.03-16.72c0-1.5,0-3.03-0.01-4.58c-0.02-1.56,0.08-3.13-0.34-4.64c-0.75-3.04-3.1-5.75-6.2-6.92
									c-0.76-0.31-1.58-0.48-2.41-0.6c-0.82-0.09-1.68-0.08-2.55-0.08c-1.73,0-3.48,0-5.25,0c-3.54,0-7.15,0-10.83,0.01
									c-7.35,0-14.97,0-22.76,0.01c-1.9,0.02-3.79,0.54-5.37,1.55c-0.79,0.5-1.53,1.1-2.14,1.8c-0.63,0.68-1.16,1.46-1.56,2.3
									c-0.43,0.82-0.69,1.72-0.88,2.61c-0.17,0.91-0.18,1.81-0.18,2.76c0,1.87,0,3.73,0,5.56c-0.01,7.35-0.01,14.45-0.02,21.21
									c0,3.38-0.01,6.67-0.01,9.88c0.03,1.6-0.11,3.19,0.2,4.67c0.31,1.49,0.95,2.88,1.83,4.06c1.76,2.38,4.49,3.82,7.21,4.04
									c2.75,0.1,5.46,0.04,8,0.06c10.21,0.03,18.47,0.06,24.21,0.08c2.84,0.02,5.06,0.04,6.58,0.05c0.74,0.01,1.31,0.02,1.71,0.03
									C205.48,129.87,205.68,129.88,205.68,129.88s-0.2,0.02-0.58,0.03c-0.41,0.01-0.97,0.01-1.71,0.03
									c-1.52,0.01-3.74,0.03-6.58,0.05c-5.74,0.02-14,0.05-24.21,0.08c-2.56-0.02-5.22,0.06-8.04-0.03
									c-2.84-0.22-5.69-1.72-7.52-4.19c-0.92-1.22-1.6-2.67-1.92-4.23c-0.32-1.57-0.19-3.17-0.22-4.76c0-3.2-0.01-6.5-0.01-9.88
									c0-6.76-0.01-13.85-0.02-21.21c0-1.84,0-3.69,0-5.56c0-0.92,0-1.91,0.19-2.85c0.19-0.94,0.47-1.88,0.92-2.75
									c0.43-0.87,0.98-1.69,1.64-2.41c0.65-0.74,1.42-1.37,2.25-1.89c1.67-1.07,3.65-1.61,5.65-1.63c7.8,0,15.41,0,22.76,0.01
									c3.68,0,7.29,0,10.83,0.01c1.77,0,3.52,0,5.25,0c0.86,0,1.73-0.01,2.61,0.09c0.86,0.12,1.72,0.3,2.52,0.63
									c3.24,1.22,5.69,4.07,6.47,7.25c0.44,1.6,0.33,3.22,0.34,4.76c0,1.55,0,3.08-0.01,4.58c-0.01,6.01-0.02,11.61-0.03,16.72
									c-0.01,5.11-0.03,9.73-0.04,13.79c-0.04,2.01,0.13,3.95-0.38,5.66c-0.44,1.71-1.29,3.13-2.25,4.2
									c-1.93,2.19-4.17,2.99-5.62,3.3c-0.74,0.14-1.32,0.21-1.7,0.2C205.88,129.89,205.68,129.88,205.68,129.88z"/>
							</g>
						</g>
					</g>
				</g>
			</g>
		</g>
	</g>
	<g>
		<g>
			<path class="st7" d="M381.25,143.77c0,0.14-6.92,0.26-15.45,0.26c-8.54,0-15.45-0.12-15.45-0.26s6.92-0.26,15.45-0.26
				C374.34,143.51,381.25,143.62,381.25,143.77z"/>
		</g>
	</g>
	<g>
		<g>
			<rect x="164.83" y="111.55" class="st8" width="7.69" height="5.89"/>
		</g>
		<g>
			<rect x="174.56" y="97.97" class="st8" width="7.69" height="19.47"/>
		</g>
		<g>
			<rect x="185.26" y="106.35" class="st8" width="7.69" height="11.08"/>
		</g>
		<g>
			<rect x="195.47" y="92.32" class="st8" width="7.69" height="25.11"/>
		</g>
		<g>
			<path class="st8" d="M168.16,105.48c-2.11,0-3.83-1.72-3.83-3.83c0-2.11,1.72-3.83,3.83-3.83c2.11,0,3.83,1.72,3.83,3.83
				C171.99,103.77,170.27,105.48,168.16,105.48z M168.16,98.83c-1.56,0-2.83,1.27-2.83,2.83c0,1.56,1.27,2.83,2.83,2.83
				c1.56,0,2.83-1.27,2.83-2.83C170.99,100.1,169.72,98.83,168.16,98.83z"/>
		</g>
		<g>
			<path class="st8" d="M179.16,90.92c-2.11,0-3.83-1.72-3.83-3.83c0-2.11,1.72-3.83,3.83-3.83c2.11,0,3.83,1.72,3.83,3.83
				C182.99,89.2,181.27,90.92,179.16,90.92z M179.16,84.26c-1.56,0-2.83,1.27-2.83,2.83c0,1.56,1.27,2.83,2.83,2.83
				c1.56,0,2.83-1.27,2.83-2.83C181.99,85.53,180.72,84.26,179.16,84.26z"/>
		</g>
		<g>
			<path class="st8" d="M189.11,100.14c-2.11,0-3.83-1.72-3.83-3.83c0-2.11,1.72-3.83,3.83-3.83c2.11,0,3.83,1.72,3.83,3.83
				C192.94,98.43,191.22,100.14,189.11,100.14z M189.11,93.49c-1.56,0-2.83,1.27-2.83,2.83s1.27,2.83,2.83,2.83
				c1.56,0,2.83-1.27,2.83-2.83S190.67,93.49,189.11,93.49z"/>
		</g>
		<g>
			<path class="st8" d="M199.74,86.77c-2.11,0-3.83-1.72-3.83-3.83c0-2.11,1.72-3.83,3.83-3.83c2.11,0,3.83,1.72,3.83,3.83
				C203.57,85.05,201.85,86.77,199.74,86.77z M199.74,80.12c-1.56,0-2.83,1.27-2.83,2.83c0,1.56,1.27,2.83,2.83,2.83
				c1.56,0,2.83-1.27,2.83-2.83C202.57,81.38,201.3,80.12,199.74,80.12z"/>
		</g>
		<g>
			
				<rect x="189.02" y="89.27" transform="matrix(0.575 -0.8181 0.8181 0.575 9.17 197.1893)" class="st8" width="10.74" height="1"/>
		</g>
		<g>
			
				<rect x="183.57" y="88.82" transform="matrix(0.7227 -0.6912 0.6912 0.7227 -12.6995 152.801)" class="st8" width="1" height="6.8"/>
		</g>
		<g>
			
				<rect x="167.81" y="93.92" transform="matrix(0.6132 -0.7899 0.7899 0.6132 -7.4915 173.5417)" class="st8" width="11.3" height="1"/>
		</g>
	</g>
	<g>
		<path class="st7" d="M200.39,130.6c0,1.61-1.3,2.91-2.91,2.91c-1.61,0-2.91-1.3-2.91-2.91c0-1.61,1.3-2.91,2.91-2.91
			C199.09,127.69,200.39,128.99,200.39,130.6z"/>
	</g>
	<g>
		<path class="st7" d="M273.38,78.49c0,1.61-1.3,2.91-2.91,2.91c-1.61,0-2.91-1.3-2.91-2.91c0-1.61,1.3-2.91,2.91-2.91
			C272.07,75.58,273.38,76.88,273.38,78.49z"/>
	</g>
	<g>
		<path class="st7" d="M382.53,143.77c0,1.61-1.3,2.91-2.91,2.91c-1.61,0-2.91-1.3-2.91-2.91s1.3-2.91,2.91-2.91
			C381.23,140.85,382.53,142.16,382.53,143.77z"/>
	</g>
	<g>
		<path class="st7" d="M347.7,99.84c0,1.61-1.3,2.91-2.91,2.91c-1.61,0-2.91-1.3-2.91-2.91c0-1.61,1.3-2.91,2.91-2.91
			C346.4,96.93,347.7,98.23,347.7,99.84z"/>
	</g>
	<g>
		<g>
			<g>
				<g>
					<g>
						<g>
							<path class="st1" d="M209.11,52.48h-18.75c-5.74,0-10.38-4.65-10.38-10.38V23.35c0-5.74,4.65-10.38,10.38-10.38h18.75
								c5.74,0,10.38,4.65,10.38,10.38v18.75C219.5,47.83,214.85,52.48,209.11,52.48z"/>
						</g>
						<g>
							<g>
								<path class="st7" d="M209.11,52.48c0-0.03,0.49-0.02,1.41-0.16c0.91-0.13,2.28-0.45,3.79-1.36c1.49-0.9,3.16-2.41,4.16-4.71
									c0.5-1.14,0.82-2.45,0.85-3.86c0.02-1.42,0-2.94,0-4.52c-0.01-3.17-0.02-6.65-0.03-10.38c0-0.93,0-1.88-0.01-2.84
									c-0.01-0.97,0.03-1.94-0.14-2.89c-0.14-0.96-0.44-1.91-0.88-2.81c-0.43-0.9-1-1.75-1.71-2.49
									c-1.38-1.51-3.29-2.59-5.39-3.04c-1.05-0.21-2.13-0.21-3.26-0.2c-1.12,0-2.25,0-3.39,0c-4.56,0-9.29,0-14.13,0.01
									c-2.36,0.01-4.67,0.85-6.45,2.32c-1.77,1.47-2.99,3.52-3.46,5.7c-0.23,1.09-0.23,2.19-0.23,3.32c0,1.12,0,2.23,0,3.33
									c0,2.2-0.01,4.34-0.01,6.44c0,2.1-0.01,4.14-0.01,6.13c0,1-0.03,1.98,0.08,2.9c0.1,0.94,0.38,1.83,0.7,2.68
									c1.43,3.39,4.56,5.6,7.63,6.09c1.53,0.26,3.06,0.14,4.48,0.18c1.43,0.01,2.77,0.01,4.04,0.02c2.51,0.02,4.68,0.03,6.46,0.04
									c1.75,0.02,3.12,0.04,4.08,0.05c0.45,0.01,0.8,0.02,1.06,0.03C208.99,52.46,209.11,52.47,209.11,52.48
									c0,0.01-0.12,0.02-0.36,0.03c-0.27,0.01-0.62,0.02-1.06,0.03c-0.97,0.01-2.34,0.03-4.08,0.05
									c-1.78,0.01-3.95,0.03-6.46,0.04c-1.26,0.01-2.61,0.01-4.04,0.02c-1.43-0.03-2.94,0.11-4.55-0.15
									c-3.18-0.48-6.45-2.75-7.96-6.28c-0.34-0.89-0.64-1.82-0.75-2.8c-0.12-0.99-0.09-1.97-0.1-2.96c0-1.99-0.01-4.03-0.01-6.13
									c0-2.1-0.01-4.25-0.01-6.44c0-1.1,0-2.21,0-3.33c-0.01-1.11-0.01-2.28,0.23-3.43c0.49-2.29,1.77-4.44,3.63-5.99
									c1.87-1.54,4.3-2.43,6.78-2.44c4.84,0,9.56,0,14.13,0.01c1.14,0,2.27,0,3.39,0c1.11,0,2.26,0,3.36,0.22
									c2.2,0.47,4.2,1.61,5.64,3.2c0.74,0.78,1.33,1.67,1.78,2.61c0.46,0.94,0.77,1.93,0.91,2.94c0.18,1.01,0.13,2.01,0.14,2.96
									c0,0.96,0,1.91-0.01,2.84c-0.01,3.73-0.02,7.2-0.03,10.38c-0.01,1.59,0,3.09-0.03,4.53c-0.05,1.45-0.39,2.8-0.91,3.96
									c-1.05,2.35-2.79,3.88-4.32,4.77c-1.55,0.9-2.95,1.2-3.88,1.29C209.61,52.52,209.11,52.48,209.11,52.48z"/>
							</g>
						</g>
					</g>
				</g>
			</g>
		</g>
		<g>
			<g>
				<g>
					<g>
						<g>
							<path class="st9" d="M201.46,32.52c1.68-0.71,2.88-2.44,2.89-4.49c0.01-2.68-2.02-4.86-4.53-4.88
								c-2.51-0.01-4.56,2.15-4.57,4.83c-0.01,2.07,1.2,3.82,2.9,4.53c-7,1.06-6.69,8.67-6.69,8.67l16.56,0.08
								C208.02,41.26,208.4,33.56,201.46,32.52z"/>
							<path class="st7" d="M208.05,41.28h-0.02l-16.59-0.08l0-0.02c0-0.02-0.07-1.93,0.72-3.95c0.46-1.18,1.13-2.17,1.98-2.94
								c1.04-0.94,2.36-1.54,3.93-1.79c-1.73-0.76-2.84-2.53-2.84-4.52c0.01-1.3,0.49-2.53,1.35-3.44c0.86-0.91,2.01-1.41,3.22-1.41
								c0.01,0,0.01,0,0.02,0c2.52,0.01,4.57,2.21,4.56,4.9c-0.01,1.97-1.12,3.72-2.83,4.48c1.55,0.25,2.86,0.85,3.88,1.8
								c0.84,0.77,1.49,1.77,1.94,2.97c0.77,2.04,0.68,3.97,0.68,3.99L208.05,41.28z M191.48,41.16L208,41.23
								c0.01-0.23,0.04-2.04-0.68-3.95c-0.45-1.19-1.1-2.18-1.93-2.95c-1.04-0.96-2.36-1.56-3.94-1.8l-0.09-0.01l0.08-0.03
								c1.74-0.73,2.87-2.48,2.88-4.47c0.01-2.66-2.01-4.84-4.51-4.85c-0.01,0-0.01,0-0.02,0c-1.2,0-2.33,0.5-3.18,1.4
								c-0.86,0.91-1.34,2.12-1.34,3.41c-0.01,2.01,1.12,3.78,2.89,4.51l0.08,0.03l-0.09,0.01c-1.59,0.24-2.93,0.84-3.99,1.79
								c-0.84,0.76-1.5,1.74-1.96,2.92C191.46,39.14,191.48,40.93,191.48,41.16z"/>
						</g>
					</g>
				</g>
			</g>
		</g>
	</g>
	<g>
		<g>
			<g>
				<g>
					<g>
						<g>
							<path class="st1" d="M418.48,236.36h-24.22c-5.73,0-10.38-4.65-10.38-10.38v-24.22c0-5.74,4.65-10.38,10.38-10.38h24.22
								c5.73,0,10.38,4.65,10.38,10.38v24.22C428.86,231.72,424.21,236.36,418.48,236.36z"/>
						</g>
						<g>
							<g>
								<path class="st7" d="M418.48,236.36c0-0.04,0.57-0.01,1.63-0.19c1.05-0.19,2.62-0.61,4.29-1.79c1.64-1.16,3.35-3.18,4.03-6
									c0.37-1.39,0.27-2.95,0.28-4.61c-0.01-1.65-0.01-3.4-0.02-5.23c-0.01-3.67-0.02-7.68-0.03-11.99c0-1.08,0-2.17-0.01-3.29
									c-0.02-1.12,0.05-2.24-0.18-3.34c-0.42-2.2-1.58-4.35-3.4-5.87c-1.8-1.54-4.2-2.44-6.69-2.42c-2.54,0-5.13,0-7.77,0.01
									c-5.28,0-10.74,0-16.33,0.01c-2.74-0.02-5.4,1.14-7.25,3.06c-1.87,1.9-2.89,4.51-2.88,7.09
									c-0.01,5.28-0.01,10.37-0.02,15.22c0,2.42-0.01,4.79-0.01,7.09c0.01,1.15-0.05,2.29,0.11,3.36
									c0.14,1.08,0.47,2.12,0.95,3.06c0.93,1.9,2.44,3.4,4.14,4.37c1.72,0.96,3.62,1.36,5.43,1.31
									c7.31,0.03,13.24,0.06,17.37,0.08c2.03,0.02,3.61,0.04,4.72,0.05c0.52,0.01,0.93,0.02,1.23,0.03
									C418.33,236.35,418.48,236.36,418.48,236.36s-0.14,0.02-0.42,0.03c-0.3,0.01-0.71,0.01-1.23,0.03
									c-1.11,0.01-2.69,0.03-4.72,0.05c-4.13,0.02-10.06,0.05-17.37,0.08c-1.85,0.07-3.84-0.34-5.63-1.32
									c-1.78-1-3.36-2.55-4.33-4.53c-0.5-0.98-0.85-2.06-1-3.19c-0.17-1.14-0.12-2.28-0.13-3.42c0-2.3-0.01-4.66-0.01-7.09
									c0-4.85-0.01-9.94-0.02-15.22c-0.01-2.7,1.06-5.46,3.02-7.45c1.94-2.01,4.74-3.24,7.62-3.22c5.59,0,11.06,0,16.33,0.01
									c2.64,0,5.23,0,7.77,0.01c2.6-0.01,5.13,0.94,7,2.55c1.91,1.6,3.11,3.86,3.54,6.16c0.24,1.16,0.16,2.32,0.18,3.42
									c0,1.11,0,2.21-0.01,3.29c-0.01,4.31-0.02,8.33-0.03,11.99c-0.01,1.83-0.01,3.58-0.02,5.23c-0.02,1.64,0.07,3.23-0.32,4.68
									c-0.72,2.89-2.5,4.94-4.19,6.09c-1.71,1.18-3.32,1.57-4.39,1.73c-0.54,0.09-0.95,0.09-1.23,0.1
									C418.62,236.38,418.48,236.37,418.48,236.36z"/>
							</g>
						</g>
					</g>
				</g>
			</g>
		</g>
	</g>
	<g>
		<g>
			<g>
				<g>
					<g>
						<g>
							<path class="st1" d="M213.14,226.28h-24.22c-5.74,0-10.38-4.65-10.38-10.38v-24.22c0-5.74,4.65-10.38,10.38-10.38h24.22
								c5.74,0,10.38,4.65,10.38,10.38v24.22C223.52,221.63,218.87,226.28,213.14,226.28z"/>
						</g>
						<g>
							<g>
								<path class="st7" d="M213.14,226.28c0-0.04,0.57-0.01,1.63-0.19c1.05-0.19,2.62-0.61,4.29-1.79c1.64-1.16,3.35-3.18,4.03-6
									c0.37-1.39,0.27-2.95,0.28-4.61c-0.01-1.65-0.01-3.4-0.02-5.23c-0.01-3.67-0.02-7.68-0.03-11.99c0-1.08,0-2.17-0.01-3.29
									c-0.02-1.12,0.05-2.24-0.18-3.34c-0.42-2.2-1.58-4.35-3.4-5.87c-1.8-1.54-4.2-2.44-6.69-2.42c-2.54,0-5.13,0-7.77,0.01
									c-5.28,0-10.74,0-16.33,0.01c-2.74-0.02-5.4,1.14-7.25,3.06c-1.87,1.9-2.89,4.51-2.88,7.09
									c-0.01,5.28-0.01,10.37-0.02,15.22c0,2.42-0.01,4.79-0.01,7.09c0.01,1.15-0.05,2.28,0.11,3.36
									c0.14,1.08,0.47,2.12,0.95,3.06c0.93,1.9,2.44,3.4,4.14,4.37c1.72,0.96,3.62,1.36,5.43,1.31
									c7.31,0.03,13.24,0.06,17.37,0.08c2.03,0.02,3.62,0.04,4.72,0.05c0.52,0.01,0.93,0.02,1.23,0.03
									C213,226.26,213.14,226.27,213.14,226.28s-0.14,0.02-0.42,0.03c-0.3,0.01-0.71,0.01-1.23,0.03
									c-1.11,0.01-2.69,0.03-4.72,0.05c-4.13,0.02-10.06,0.05-17.37,0.08c-1.85,0.07-3.84-0.34-5.63-1.32
									c-1.78-1-3.36-2.55-4.33-4.53c-0.5-0.98-0.85-2.06-1-3.19c-0.17-1.14-0.12-2.28-0.13-3.42c0-2.3-0.01-4.66-0.01-7.09
									c0-4.85-0.01-9.94-0.02-15.22c-0.01-2.7,1.06-5.46,3.02-7.45c1.94-2.01,4.74-3.24,7.62-3.22c5.59,0,11.06,0,16.33,0.01
									c2.64,0,5.23,0,7.77,0.01c2.6-0.01,5.13,0.94,7,2.55c1.91,1.6,3.11,3.86,3.54,6.16c0.24,1.16,0.16,2.32,0.18,3.42
									c0,1.11,0,2.21-0.01,3.29c-0.01,4.31-0.02,8.33-0.03,11.99c-0.01,1.83-0.01,3.58-0.02,5.23c-0.02,1.64,0.07,3.23-0.32,4.68
									c-0.72,2.89-2.5,4.94-4.19,6.09c-1.71,1.18-3.32,1.57-4.39,1.73c-0.54,0.09-0.95,0.09-1.23,0.1
									C213.28,226.29,213.14,226.29,213.14,226.28z"/>
							</g>
						</g>
					</g>
				</g>
			</g>
		</g>
		<g>
			<g>
				<g>
					<g>
						<g>
							<path class="st8" d="M202.98,203.55c1.92-0.8,3.28-2.78,3.29-5.11c0.01-3.05-2.3-5.54-5.16-5.55
								c-2.86-0.01-5.19,2.45-5.2,5.5c-0.01,2.35,1.36,4.35,3.3,5.16c-7.97,1.2-7.61,9.87-7.61,9.87l18.86,0.09
								C210.46,213.51,210.89,204.75,202.98,203.55z"/>
						</g>
					</g>
				</g>
			</g>
		</g>
	</g>
	<g>
		<g>
			<path class="st7" d="M266.48,55.8c-1.13,0-2.27-0.17-3.4-0.54c-5.83-1.88-9.04-8.16-7.16-13.99c1.88-5.83,8.16-9.04,13.99-7.16
				c2.83,0.91,5.12,2.87,6.48,5.51c1.35,2.64,1.6,5.65,0.68,8.48l0,0C275.54,52.8,271.17,55.8,266.48,55.8z M266.49,35.57
				c-3.85,0-7.43,2.46-8.68,6.31c-1.54,4.78,1.09,9.93,5.87,11.47c4.78,1.54,9.93-1.09,11.47-5.87l0,0
				c1.54-4.78-1.09-9.93-5.87-11.47C268.36,35.71,267.42,35.57,266.49,35.57z"/>
		</g>
		<g>
			<path class="st7" d="M281.19,62.47c-0.27,0-0.54-0.11-0.74-0.32l-8.26-8.99c-0.37-0.41-0.35-1.04,0.06-1.41
				c0.41-0.37,1.04-0.35,1.41,0.06l8.26,8.99c0.37,0.41,0.35,1.04-0.06,1.41C281.67,62.38,281.43,62.47,281.19,62.47z"/>
		</g>
	</g>
	<g>
		<g>
			<path class="st8" d="M411.09,161.04c-10.22,0-18.53-8.31-18.53-18.53c0-10.22,8.31-18.53,18.53-18.53s18.53,8.31,18.53,18.53
				C429.62,152.73,421.31,161.04,411.09,161.04z M411.09,124.97c-9.67,0-17.53,7.87-17.53,17.53c0,9.67,7.87,17.53,17.53,17.53
				s17.53-7.87,17.53-17.53C428.62,132.84,420.76,124.97,411.09,124.97z"/>
		</g>
		<g>
			<path class="st8" d="M410.53,160.98c-0.1-0.05-2.45-1.38-4.75-4.37c-2.12-2.75-4.59-7.5-4.34-14.48
				c0.26-6.97,2.9-11.51,5.08-14.1c2.37-2.81,4.66-3.96,4.76-4.01l0.44,0.9c-0.09,0.04-8.81,4.51-9.28,17.25
				c-0.47,12.73,8.49,17.89,8.58,17.94L410.53,160.98z"/>
		</g>
		<g>
			<path class="st8" d="M411.35,160.97l-0.53-0.85c0.09-0.05,8.76-5.58,8.29-18.33c-0.47-12.73-8.82-16.82-8.9-16.86l0.42-0.9
				c0.37,0.17,8.98,4.36,9.48,17.73C420.61,155.1,411.45,160.91,411.35,160.97z"/>
		</g>
		<g>
			<path class="st8" d="M411.34,136.63c-7.51,0-12.34-2.55-15.08-4.69l0.62-0.79c2.61,2.04,7.24,4.47,14.47,4.47
				c6.99,0,11.42-2.42,13.9-4.45l0.63,0.77C423.26,134.09,418.62,136.63,411.34,136.63z"/>
		</g>
		<g>
			<path class="st8" d="M425.29,153.31c-2.61-1.98-7.25-4.34-14.47-4.34c-6.99,0-11.42,2.35-13.91,4.32l-0.62-0.78
				c2.61-2.07,7.25-4.54,14.53-4.54c7.5,0,12.34,2.47,15.08,4.55L425.29,153.31z"/>
		</g>
		<g>
			<rect x="393.51" y="142.06" class="st8" width="35.64" height="1"/>
		</g>
	</g>
	<g>
		<g>
			<g>
				<rect x="326.39" y="283.17" class="st0" width="25.36" height="25.36"/>
			</g>
			<g>
				<rect x="358.14" y="284.71" class="st0" width="26.12" height="2.17"/>
			</g>
			<g>
				<rect x="358.14" y="289.73" class="st0" width="26.12" height="2.17"/>
			</g>
			<g>
				<rect x="358.14" y="294.74" class="st0" width="26.12" height="2.17"/>
			</g>
			<g>
				<rect x="358.14" y="299.76" class="st0" width="26.12" height="2.17"/>
			</g>
			<g>
				<rect x="358.14" y="304.77" class="st0" width="26.12" height="2.17"/>
			</g>
		</g>
		<g>
			<path class="st0" d="M388.98,276.29h-69.26v-10.01c0-3.84,3.11-6.95,6.95-6.95h55.26c3.89,0,7.05,3.16,7.05,7.05V276.29z"/>
		</g>
		<g>
			<g>
				<g>
					<g>
						<g>
							<g>
								<path class="st7" d="M382.52,320.28c-0.01-0.06,0.91,0.08,2.45-0.54c0.76-0.31,1.64-0.88,2.42-1.8
									c0.77-0.91,1.41-2.22,1.48-3.78c-0.02-6.32-0.04-15.44-0.07-26.7c-0.01-5.64-0.02-11.81-0.03-18.44c0-0.83,0-1.66,0-2.51
									c0.02-0.85-0.02-1.66-0.28-2.46c-0.47-1.59-1.62-2.99-3.14-3.77c-0.76-0.39-1.6-0.63-2.46-0.69
									c-0.86-0.05-1.79-0.01-2.69-0.02c-1.82,0-3.66,0-5.52,0.01c-14.91,0.01-31.3,0.01-48.5,0.02c-1.04-0.01-2.06,0.25-2.97,0.73
									c-0.9,0.5-1.68,1.2-2.23,2.06c-0.54,0.86-0.91,1.84-0.97,2.85c-0.05,1.01-0.01,2.09-0.03,3.13c0,4.19,0,8.32,0,12.38
									c-0.01,8.11-0.01,15.94-0.02,23.4c0,1.86,0,3.7-0.01,5.52c0,0.91,0,1.81,0,2.71c0.01,0.9-0.06,1.79,0.13,2.61
									c0.33,1.68,1.38,3.16,2.77,4.05c0.69,0.45,1.47,0.76,2.27,0.91c0.79,0.16,1.62,0.11,2.46,0.12
									c6.63,0.01,12.8,0.02,18.44,0.03c11.26,0.03,20.38,0.06,26.71,0.08c3.14,0.02,5.58,0.04,7.26,0.05
									c0.82,0.01,1.44,0.02,1.89,0.03C382.31,320.26,382.52,320.28,382.52,320.28s-0.22,0.02-0.64,0.03
									c-0.44,0.01-1.07,0.01-1.89,0.03c-1.68,0.01-4.12,0.03-7.26,0.05c-6.32,0.02-15.44,0.05-26.71,0.08
									c-5.64,0.01-11.82,0.02-18.44,0.03c-0.82-0.01-1.67,0.06-2.54-0.12c-0.86-0.16-1.69-0.49-2.43-0.97
									c-1.49-0.96-2.61-2.54-2.97-4.34c-0.2-0.91-0.12-1.82-0.14-2.71c0-0.9,0-1.8,0-2.71c0-1.82,0-3.66-0.01-5.52
									c0-7.46-0.01-15.28-0.02-23.4c0-4.06,0-8.19,0-12.38c0.01-1.06-0.03-2.08,0.03-3.17c0.07-1.1,0.46-2.17,1.05-3.1
									c0.6-0.93,1.45-1.69,2.42-2.23c0.98-0.52,2.1-0.8,3.22-0.79c17.2,0.01,33.59,0.01,48.5,0.02c1.86,0,3.7,0,5.52,0.01
									c0.92,0.01,1.79-0.02,2.72,0.03c0.92,0.07,1.83,0.33,2.64,0.75c1.63,0.84,2.85,2.35,3.35,4.05
									c0.27,0.84,0.31,1.76,0.29,2.59c0,0.84,0,1.68,0,2.51c-0.01,6.63-0.02,12.8-0.03,18.44c-0.03,11.28-0.03,20.4-0.1,26.71
									c-0.08,1.61-0.76,2.95-1.56,3.87c-0.81,0.93-1.72,1.49-2.5,1.79c-0.78,0.32-1.42,0.38-1.84,0.44
									C382.74,320.29,382.52,320.28,382.52,320.28z"/>
							</g>
						</g>
					</g>
				</g>
			</g>
		</g>
	</g>
	<g>
		<path class="st7" d="M358.14,259.33c0,1.61-1.3,2.91-2.91,2.91c-1.61,0-2.91-1.3-2.91-2.91c0-1.61,1.3-2.91,2.91-2.91
			C356.84,256.42,358.14,257.72,358.14,259.33z"/>
	</g>
	<g id="XMLID_00000126299447121899767360000014931297739666043554_">
		<path class="st9" d="M395.34,221.67c2.25,1.44,4.93,2.29,7.81,2.29c9.45,0,14.8-7.99,14.47-15.15c0.99-0.72,1.86-1.61,2.54-2.64
			c-0.91,0.4-1.9,0.68-2.92,0.8c1.05-0.63,1.86-1.63,2.24-2.82c-0.98,0.58-2.07,1.01-3.23,1.24c-0.93-0.99-2.25-1.61-3.72-1.61
			c-3.29,0-5.7,3.07-4.96,6.25c-4.23-0.21-7.98-2.24-10.49-5.32c-1.33,2.29-0.69,5.28,1.58,6.8c-0.84-0.03-1.62-0.26-2.31-0.64
			c-0.05,2.36,1.64,4.57,4.08,5.06c-0.72,0.2-1.5,0.24-2.3,0.09c0.65,2.02,2.53,3.49,4.76,3.54
			C400.74,221.24,398.04,221.99,395.34,221.67z"/>
	</g>
	<g>
		<g>
			<path class="st8" d="M367.07,71.34c1.54,5.36-1.96,10.6-7.45,10.6h-28.88c-4.68,0-8.34-4.52-7-9.07
				c0.07-0.24,0.15-0.48,0.25-0.71c1.31-3.18,4.96-5.16,8.29-4.5c0.8-5.86,5.84-10.83,11.62-11.47c5.78-0.64,11.75,3.13,13.76,8.68
				C357.66,64.88,365.1,64.47,367.07,71.34z"/>
		</g>
		<g>
			<path class="st1" d="M342.65,87.07V75.98h-4.34c-0.51,0-0.81-0.57-0.51-0.99l7.15-10.09c0.25-0.35,0.77-0.35,1.02,0l7.14,10.01
				c0.3,0.42,0,0.99-0.51,0.99h-4.23v11.17H342.65z"/>
		</g>
	</g>
</g>
<g id="Device">
	<g>
		<g>
			<g>
				<path class="st0" d="M368.41,233.91l-13.05-45.95c0,0,0,0,0,0h-114.1l-14.87,45.79c-0.9,2.78,1.14,5.63,4.03,5.63h52.11
					l2.11-2.11h24.61l2.11,2.11h52.96C367.16,239.39,369.19,236.66,368.41,233.91z"/>
			</g>
			<g class="st10">
				<path d="M368.41,233.91l-13.05-45.95c0,0,0,0,0,0h-114.1l-14.87,45.79c-0.9,2.78,1.14,5.63,4.03,5.63h52.11l2.11-2.11h24.61
					l2.11,2.11h52.96C367.16,239.39,369.19,236.66,368.41,233.91z"/>
			</g>
			<g>
				<g>
					<path class="st0" d="M241.21,186.78v-67.41c0-2.67,2.15-4.84,4.81-4.84h104.85c2.66,0,4.81,2.17,4.81,4.84v67.41H241.21z"/>
				</g>
				<g>
					<g>
						<rect x="248.13" y="121.2" class="st1" width="100.63" height="59.95"/>
					</g>
					<g>
						<g>
							<path class="st7" d="M348.76,181.15c0,0-0.01-0.38-0.02-1.09c-0.01-0.73-0.01-1.78-0.02-3.15
								c-0.01-2.77-0.03-6.82-0.05-12.01c-0.03-10.39-0.06-25.35-0.11-43.69l0.2,0.2c-27.14,0.02-62.31,0.04-100.62,0.06h-0.01
								l0.26-0.26c-0.01,21.23-0.01,41.5-0.02,59.95l-0.24-0.24c29.48,0.05,54.6,0.09,72.37,0.12c8.89,0.03,15.94,0.05,20.78,0.07
								c2.41,0.01,4.27,0.02,5.54,0.03c0.62,0.01,1.1,0.01,1.43,0.01C348.59,181.14,348.76,181.15,348.76,181.15
								s-0.15,0.01-0.47,0.01c-0.33,0-0.8,0.01-1.41,0.01c-1.26,0.01-3.1,0.02-5.49,0.03c-4.83,0.02-11.86,0.04-20.73,0.07
								c-17.81,0.03-42.99,0.07-72.53,0.12l-0.24,0v-0.24c-0.01-18.45-0.01-38.71-0.02-59.95l0-0.26h0.26h0.01
								c38.31,0.02,73.48,0.04,100.62,0.06l0.2,0l0,0.2c-0.04,18.4-0.08,33.4-0.11,43.82c-0.02,5.18-0.04,9.21-0.05,11.97
								c-0.01,1.36-0.02,2.39-0.02,3.11C348.78,180.8,348.76,181.15,348.76,181.15z"/>
						</g>
					</g>
				</g>
				<g>
					<path class="st7" d="M300.3,118.04c0,1.01-0.83,1.82-1.85,1.82c-1.02,0-1.85-0.81-1.85-1.82s0.83-1.82,1.85-1.82
						C299.47,116.22,300.3,117.04,300.3,118.04z"/>
				</g>
			</g>
			<g>
				<path class="st0" d="M368.41,232.21l-13.05-45.95c0,0,0,0,0,0h-114.1l-14.87,45.79c-0.9,2.78,1.14,5.63,4.03,5.63h52.11
					l2.11-2.11h24.61l2.11,2.11h52.96C367.16,237.69,369.19,234.96,368.41,232.21z"/>
			</g>
			<g>
				<path class="st3" d="M347.27,189.21l-99.44-0.34c-1.04,0-1.96,0.56-2.25,1.39l-7.97,22.61c-0.43,1.23,0.68,2.46,2.24,2.46
					h115.07c1.55,0,2.66-1.22,2.24-2.45l-7.66-22.28C349.21,189.79,348.3,189.22,347.27,189.21z"/>
			</g>
			<g class="st11">
				<path d="M316.38,232.6h-39.25c-1.61,0-2.79-1.66-2.38-3.37l2.22-9.28c0.28-1.18,1.26-2.01,2.38-2.01h35.06
					c1.14,0,2.14,0.86,2.4,2.08l1.97,9.28C319.14,230.99,317.97,232.6,316.38,232.6z"/>
			</g>
			<g>
				<g>
					<path class="st7" d="M316.25,196.37l-1.02-4.73c-0.07-0.33-0.36-0.56-0.69-0.56h-6.12c-0.43,0-0.76,0.38-0.7,0.81l0.68,4.74
						c0.05,0.35,0.35,0.61,0.7,0.61l6.47-0.01C316.01,197.22,316.34,196.81,316.25,196.37z"/>
				</g>
				<g>
					<path class="st7" d="M297.8,196.48l-0.44-4.76c-0.03-0.36-0.34-0.64-0.7-0.64h-6.26c-0.4,0-0.72,0.33-0.71,0.73l0.18,4.77
						c0.01,0.38,0.33,0.68,0.71,0.68l6.52-0.01C297.51,197.25,297.84,196.89,297.8,196.48z"/>
				</g>
				<g>
					<path class="st7" d="M307.51,196.43l-0.68-4.74c-0.05-0.35-0.35-0.61-0.7-0.61h-7.2c-0.42,0-0.74,0.36-0.7,0.77l0.44,4.75
						c0.03,0.36,0.34,0.64,0.7,0.64l7.44-0.01C307.24,197.23,307.57,196.85,307.51,196.43z"/>
				</g>
				<g>
					<path class="st7" d="M261.85,196.56l0.97-4.32c0.13-0.59-0.32-1.16-0.93-1.16h-5.93c-0.42,0-0.8,0.28-0.91,0.69l-1.24,4.33
						c-0.17,0.61,0.28,1.21,0.91,1.21l6.2-0.01C261.37,197.3,261.76,196.99,261.85,196.56z"/>
				</g>
				<g>
					<path class="st7" d="M348.24,196.22l-1.8-4.69c-0.1-0.27-0.37-0.45-0.66-0.45h-11.64c-0.49,0-0.83,0.49-0.66,0.95l1.75,4.7
						c0.1,0.28,0.37,0.46,0.66,0.46l11.69-0.02C348.07,197.18,348.41,196.68,348.24,196.22z"/>
				</g>
				<g>
					<path class="st7" d="M288.14,191.08h-6.77c-0.38,0-0.69,0.3-0.71,0.67l-0.23,4.78c-0.02,0.4,0.3,0.74,0.71,0.74l7.17-0.01
						c0.4,0,0.72-0.33,0.7-0.73l-0.18-4.77C288.84,191.38,288.52,191.08,288.14,191.08z"/>
				</g>
				<g>
					<path class="st7" d="M253.11,191.08h-4.72c-0.4,0-0.76,0.25-0.89,0.63l-1.56,4.34c-0.22,0.62,0.24,1.27,0.89,1.27l5.04-0.01
						c0.42,0,0.8-0.28,0.91-0.69l1.24-4.33C254.19,191.68,253.74,191.08,253.11,191.08z"/>
				</g>
				<g>
					<path class="st7" d="M270.61,196.67l0.63-4.8c0.06-0.42-0.27-0.8-0.7-0.8h-6.02c-0.33,0-0.62,0.23-0.69,0.55l-1.08,4.8
						c-0.1,0.44,0.24,0.86,0.69,0.86l6.47-0.01C270.26,197.28,270.56,197.02,270.61,196.67z"/>
				</g>
				<g>
					<path class="st7" d="M272.11,191.69l-0.63,4.79c-0.06,0.42,0.27,0.8,0.7,0.8l6.7-0.01c0.38,0,0.69-0.3,0.7-0.67l0.23-4.78
						c0.02-0.4-0.3-0.74-0.71-0.74h-6.3C272.46,191.08,272.16,191.34,272.11,191.69z"/>
				</g>
				<g>
					<path class="st7" d="M325.45,196.3l-1.4-4.72c-0.09-0.3-0.36-0.51-0.68-0.51h-6.53c-0.45,0-0.78,0.42-0.69,0.85l1.02,4.73
						c0.07,0.33,0.36,0.56,0.69,0.56l6.9-0.01C325.25,197.21,325.59,196.75,325.45,196.3z"/>
				</g>
				<g>
					<path class="st7" d="M334.14,196.24l-1.75-4.71c-0.1-0.28-0.37-0.46-0.66-0.46h-5.99c-0.47,0-0.81,0.45-0.68,0.91l1.4,4.72
						c0.09,0.3,0.36,0.51,0.68,0.51l6.35-0.01C333.97,197.2,334.31,196.71,334.14,196.24z"/>
				</g>
				<g>
					<path class="st7" d="M288.41,198.34l-7.38,0c-0.38,0-0.69,0.3-0.71,0.67l-0.24,4.93c-0.02,0.4,0.3,0.74,0.71,0.74l7.8-0.01
						c0.4,0,0.72-0.33,0.7-0.73l-0.18-4.92C289.1,198.64,288.79,198.34,288.41,198.34z"/>
				</g>
				<g>
					<path class="st7" d="M336.9,203.65l-1.81-4.85c-0.1-0.28-0.37-0.46-0.66-0.46l-6.54,0c-0.47,0-0.81,0.45-0.68,0.91l1.44,4.86
						c0.09,0.3,0.36,0.51,0.68,0.51l6.91-0.01C336.73,204.61,337.07,204.11,336.9,203.65z"/>
				</g>
				<g>
					<path class="st7" d="M327.65,203.71l-1.44-4.87c-0.09-0.3-0.36-0.51-0.68-0.51l-7.11,0c-0.45,0-0.79,0.42-0.69,0.85l1.05,4.88
						c0.07,0.33,0.36,0.56,0.69,0.56l7.5-0.01C327.44,204.62,327.78,204.16,327.65,203.71z"/>
				</g>
				<g>
					<path class="st7" d="M271.22,204.69l7.31-0.01c0.38,0,0.69-0.3,0.7-0.67l0.24-4.94c0.02-0.4-0.3-0.74-0.71-0.74l-6.9,0
						c-0.35,0-0.65,0.26-0.7,0.61l-0.65,4.95C270.46,204.32,270.79,204.69,271.22,204.69z"/>
				</g>
				<g>
					<path class="st7" d="M290.86,204.67l6.92-0.01c0.42,0,0.74-0.36,0.7-0.77l-0.45-4.91c-0.03-0.36-0.34-0.64-0.7-0.64l-6.65,0
						c-0.4,0-0.72,0.33-0.71,0.73l0.18,4.92C290.16,204.37,290.48,204.67,290.86,204.67z"/>
				</g>
				<g>
					<path class="st7" d="M298.9,199.11l0.45,4.9c0.03,0.36,0.34,0.64,0.7,0.64l7.82-0.01c0.43,0,0.76-0.38,0.7-0.81l-0.7-4.89
						c-0.05-0.35-0.35-0.61-0.7-0.61l-7.57,0C299.18,198.34,298.86,198.69,298.9,199.11z"/>
				</g>
				<g>
					<path class="st7" d="M317.85,203.78l-1.05-4.88c-0.07-0.32-0.36-0.56-0.69-0.56l-6.65,0c-0.43,0-0.76,0.38-0.7,0.81l0.7,4.89
						c0.05,0.35,0.35,0.61,0.7,0.61l7.01-0.01C317.61,204.63,317.94,204.22,317.85,203.78z"/>
				</g>
				<g>
					<path class="st7" d="M260.57,198.33l-14.74,0c-0.29,0-0.55,0.18-0.66,0.45l-1.92,4.99c-0.18,0.46,0.16,0.96,0.66,0.96
						l15.55-0.02c0.33,0,0.62-0.23,0.69-0.55l1.11-4.96C261.36,198.75,261.03,198.33,260.57,198.33z"/>
				</g>
				<g>
					<path class="st7" d="M261.78,204.7l7.16-0.01c0.35,0,0.65-0.26,0.7-0.61l0.65-4.95c0.06-0.42-0.27-0.8-0.7-0.8l-6.69,0
						c-0.33,0-0.62,0.23-0.69,0.55l-1.11,4.96C260.99,204.28,261.33,204.7,261.78,204.7z"/>
				</g>
				<g>
					<path class="st7" d="M345.7,204.59l4.61-0.01c0.5,0,0.84-0.51,0.65-0.97l-1.94-4.83c-0.11-0.27-0.37-0.44-0.65-0.44l-4.24,0
						c-0.48,0-0.82,0.47-0.67,0.92l1.57,4.84C345.12,204.4,345.39,204.59,345.7,204.59z"/>
				</g>
				<g>
					<path class="st7" d="M343.99,203.67l-1.57-4.84c-0.09-0.29-0.37-0.49-0.67-0.49l-4.91,0c-0.49,0-0.83,0.49-0.66,0.95l1.8,4.85
						c0.1,0.28,0.37,0.46,0.66,0.46l4.67-0.01C343.8,204.6,344.14,204.13,343.99,203.67z"/>
				</g>
				<g>
					<path class="st7" d="M270.54,213l7.25,0.01c0.57,0,1.04-0.44,1.06-1.01l0.25-5.15c0.03-0.61-0.45-1.11-1.06-1.11h-6.82
						c-0.53,0-0.98,0.4-1.05,0.93l-0.67,5.14C269.4,212.44,269.9,213,270.54,213z"/>
				</g>
				<g>
					<path class="st7" d="M351.24,205.74h-11.13c-0.74,0-1.25,0.74-1,1.43l1.96,5.25c0.15,0.42,0.55,0.69,0.99,0.69l11.23,0.02
						c0.75,0,1.26-0.75,0.99-1.45l-2.06-5.27C352.07,206.01,351.67,205.74,351.24,205.74z"/>
				</g>
				<g>
					<path class="st7" d="M260.48,206.57l-1.15,5.12c-0.15,0.66,0.36,1.29,1.04,1.3l7.17,0.01c0.53,0,0.99-0.4,1.06-0.93l0.67-5.13
						c0.08-0.64-0.41-1.2-1.05-1.2h-6.69C261.02,205.74,260.59,206.08,260.48,206.57z"/>
				</g>
				<g>
					<path class="st7" d="M250.75,206.51l-1.51,5.29c-0.17,0.59,0.27,1.17,0.88,1.17l7.32,0.01c0.43,0,0.8-0.3,0.9-0.72l1.21-5.39
						c0.13-0.58-0.31-1.12-0.91-1.12l-7.02,0.09C251.22,205.85,250.86,206.12,250.75,206.51z"/>
				</g>
				<g>
					<path class="st7" d="M319.42,207.03l1.13,5.22c0.11,0.49,0.54,0.84,1.04,0.84l7.42,0.01c0.71,0,1.22-0.68,1.02-1.37l-1.55-5.23
						c-0.13-0.45-0.55-0.76-1.02-0.76h-7C319.78,205.74,319.28,206.36,319.42,207.03z"/>
				</g>
				<g>
					<path class="st7" d="M279.95,206.75l-0.25,5.16c-0.03,0.61,0.45,1.11,1.06,1.11l37.78,0.06c0.68,0,1.18-0.62,1.04-1.29
						l-1.13-5.22c-0.11-0.49-0.54-0.84-1.04-0.84h-36.4C280.44,205.74,279.98,206.18,279.95,206.75z"/>
				</g>
				<g>
					<path class="st7" d="M242.49,206.29l-2.04,5.53c-0.2,0.55,0.2,1.13,0.79,1.13l6.14,0.01c0.38,0,0.71-0.25,0.81-0.61l1.58-5.54
						c0.15-0.54-0.25-1.07-0.81-1.07h-5.69C242.93,205.74,242.62,205.96,242.49,206.29z"/>
				</g>
				<g>
					<path class="st7" d="M329.54,207.1l1.55,5.24c0.13,0.45,0.55,0.76,1.02,0.76l6.78,0.01c0.74,0,1.26-0.74,1-1.43l-1.95-5.25
						c-0.15-0.42-0.55-0.69-1-0.69h-6.38C329.85,205.74,329.34,206.42,329.54,207.1z"/>
				</g>
			</g>
			<g>
				<g>
					<path class="st7" d="M355.77,186.44c0,0.14-25.58,0.26-57.12,0.26c-31.56,0-57.13-0.12-57.13-0.26s25.57-0.26,57.13-0.26
						C330.19,186.18,355.77,186.3,355.77,186.44z"/>
				</g>
			</g>
		</g>
		<g>
			<g>
				<g>
					<g>
						<g>
							<g>
								<g>
									<path class="st4" d="M276.32,138.42c1.06-0.88,2.22-1.6,3.45-2.15l0.21-3.76l6.15-1.03l1.43,3.49
										c1.34,0.13,2.67,0.43,3.96,0.91l2.81-2.51l5.08,3.62l-1.46,3.47c0.88,1.06,1.6,2.22,2.15,3.45l3.76,0.21l1.03,6.15
										l-3.49,1.43c-0.13,1.34-0.43,2.67-0.91,3.96l2.51,2.81l-3.62,5.08l-3.47-1.46c-1.06,0.88-2.22,1.6-3.45,2.15l-0.21,3.76
										l-6.15,1.03l-1.43-3.49c-1.34-0.13-2.67-0.43-3.96-0.91l-2.81,2.51l-5.08-3.62l1.46-3.47c-0.88-1.06-1.6-2.22-2.15-3.45
										l-3.76-0.21l-1.03-6.15l3.49-1.43c0.13-1.34,0.43-2.67,0.91-3.96l-2.51-2.81l3.62-5.08L276.32,138.42L276.32,138.42z
										 M280.84,146.14c-2.15,3.01-1.45,7.19,1.56,9.33c3.01,2.15,7.19,1.45,9.33-1.56c2.14-3.01,1.45-7.19-1.56-9.33
										C287.16,142.44,282.98,143.14,280.84,146.14z"/>
								</g>
							</g>
						</g>
					</g>
				</g>
			</g>
			<g>
				<g>
					<g>
						<g>
							<g>
								<g>
									<path class="st4" d="M310.21,154.08c0.72-0.59,1.5-1.08,2.33-1.46l0.14-2.55l4.16-0.7l0.97,2.36
										c0.91,0.08,1.81,0.29,2.68,0.62l1.9-1.7l3.44,2.45l-0.99,2.35c0.6,0.72,1.08,1.5,1.46,2.33l2.55,0.14l0.7,4.16l-2.36,0.97
										c-0.08,0.91-0.29,1.81-0.62,2.68l1.7,1.9l-2.45,3.44l-2.35-0.99c-0.72,0.6-1.5,1.08-2.33,1.46l-0.15,2.55l-4.16,0.7
										l-0.97-2.36c-0.91-0.08-1.81-0.29-2.68-0.62l-1.9,1.7l-3.44-2.45l0.99-2.35c-0.6-0.72-1.08-1.5-1.46-2.33l-2.55-0.14
										l-0.7-4.16l2.36-0.97c0.08-0.91,0.29-1.81,0.62-2.68l-1.7-1.9l2.45-3.44L310.21,154.08L310.21,154.08z M313.27,159.31
										c-1.45,2.04-0.98,4.86,1.06,6.32c2.04,1.45,4.86,0.98,6.32-1.06c1.45-2.04,0.98-4.86-1.06-6.32
										C317.55,156.8,314.72,157.28,313.27,159.31z"/>
								</g>
							</g>
						</g>
					</g>
				</g>
			</g>
			<g>
				<g>
					<g>
						<g>
							<g>
								<g>
									<path class="st4" d="M308.26,129.74c0.64-0.53,1.33-0.96,2.07-1.29l0.13-2.26l3.69-0.62l0.86,2.09
										c0.8,0.08,1.6,0.26,2.37,0.55l1.68-1.5l3.04,2.17l-0.87,2.08c0.53,0.64,0.96,1.33,1.29,2.07l2.26,0.13l0.62,3.69
										l-2.09,0.86c-0.07,0.8-0.26,1.6-0.55,2.37l1.5,1.68l-2.17,3.04l-2.08-0.87c-0.64,0.53-1.33,0.96-2.07,1.29l-0.13,2.26
										l-3.69,0.62l-0.86-2.09c-0.8-0.08-1.6-0.26-2.37-0.55l-1.68,1.5l-3.04-2.17l0.87-2.08c-0.53-0.64-0.96-1.33-1.29-2.07
										l-2.26-0.13l-0.62-3.69l2.09-0.86c0.08-0.8,0.26-1.6,0.55-2.37l-1.5-1.68l2.17-3.04L308.26,129.74L308.26,129.74z
										 M310.96,134.36c-1.29,1.8-0.87,4.31,0.94,5.59c1.8,1.29,4.31,0.87,5.59-0.94c1.29-1.8,0.87-4.31-0.94-5.59
										C314.75,132.14,312.25,132.56,310.96,134.36z"/>
								</g>
							</g>
						</g>
					</g>
				</g>
			</g>
		</g>
	</g>
</g>
<g id="Text">
	<g>
		<path class="st7" d="M264.33,152.21l0.72-1.62c0.69,0.45,1.66,0.76,2.56,0.76c0.91,0,1.26-0.25,1.26-0.63
			c0-1.23-4.4-0.33-4.4-3.21c0-1.38,1.13-2.51,3.43-2.51c1.01,0,2.05,0.23,2.81,0.67l-0.67,1.63c-0.74-0.4-1.47-0.6-2.15-0.6
			c-0.92,0-1.25,0.31-1.25,0.7c0,1.18,4.39,0.3,4.39,3.15c0,1.35-1.13,2.5-3.43,2.5C266.32,153.07,265.06,152.72,264.33,152.21z"/>
		<path class="st7" d="M271.63,149.04c0-2.32,1.83-4.03,4.3-4.03c2.48,0,4.3,1.7,4.3,4.03c0,2.32-1.83,4.03-4.3,4.03
			C273.46,153.07,271.63,151.36,271.63,149.04z M278.03,149.04c0-1.34-0.92-2.21-2.09-2.21c-1.17,0-2.09,0.87-2.09,2.21
			c0,1.34,0.92,2.21,2.09,2.21C277.11,151.25,278.03,150.38,278.03,149.04z"/>
		<path class="st7" d="M283.58,146.86v1.7H287v1.69h-3.42v2.65h-2.19v-7.74h6.07v1.69H283.58z"/>
		<path class="st7" d="M290.2,146.9h-2.38v-1.74h6.94v1.74h-2.37v6.01h-2.19V146.9z"/>
		<path class="st7" d="M307.53,145.17l-2.51,7.74h-2.35l-1.48-4.71l-1.55,4.71h-2.34l-2.51-7.74h2.26l1.56,4.94l1.64-4.94h2.01
			l1.56,4.99l1.63-4.99H307.53z"/>
		<path class="st7" d="M313.25,151.41h-3.27l-0.61,1.5h-2.24l3.42-7.74h2.16l3.43,7.74h-2.28L313.25,151.41z M312.6,149.79l-1-2.48
			l-1,2.48H312.6z"/>
		<path class="st7" d="M320.14,150.85h-1.19v2.06h-2.19v-7.74h3.54c2.11,0,3.44,1.1,3.44,2.87c0,1.14-0.55,1.98-1.52,2.44l1.67,2.43
			h-2.35L320.14,150.85z M320.16,146.89h-1.22v2.27h1.22c0.91,0,1.36-0.42,1.36-1.13C321.52,147.31,321.07,146.89,320.16,146.89z"/>
		<path class="st7" d="M331.16,151.22v1.69h-6.22v-7.74h6.07v1.69h-3.91v1.31h3.44v1.64h-3.44v1.42H331.16z"/>
	</g>
	<g>
		<path class="st7" d="M262.7,154.83h1.06v7.39h-1.06V154.83z"/>
		<path class="st7" d="M272.33,154.83v7.39h-0.87l-4.43-5.51v5.51h-1.06v-7.39h0.87l4.43,5.51v-5.51H272.33z"/>
		<path class="st7" d="M276.01,155.75h-2.53v-0.92h6.11v0.92h-2.53v6.47h-1.05V155.75z"/>
		<path class="st7" d="M286.1,161.3v0.92h-5.36v-7.39h5.22v0.92h-4.16v2.27h3.71v0.9h-3.71v2.39H286.1z"/>
		<path class="st7" d="M292.89,158.48h1.01v2.88c-0.74,0.62-1.76,0.94-2.8,0.94c-2.27,0-3.94-1.59-3.94-3.78
			c0-2.19,1.67-3.78,3.96-3.78c1.17,0,2.16,0.39,2.84,1.14l-0.65,0.65c-0.61-0.59-1.31-0.86-2.14-0.86c-1.71,0-2.95,1.19-2.95,2.84
			c0,1.63,1.24,2.84,2.94,2.84c0.62,0,1.2-0.14,1.73-0.48V158.48z"/>
		<path class="st7" d="M300.86,162.22l-1.59-2.27c-0.15,0.01-0.31,0.02-0.46,0.02h-1.83v2.25h-1.06v-7.39h2.88
			c1.92,0,3.08,0.97,3.08,2.58c0,1.14-0.59,1.96-1.63,2.33l1.75,2.48H300.86z M300.83,157.41c0-1.06-0.71-1.66-2.06-1.66h-1.79v3.33
			h1.79C300.12,159.07,300.83,158.46,300.83,157.41z"/>
		<path class="st7" d="M308.3,160.37h-3.93l-0.81,1.85h-1.09l3.35-7.39h1.04l3.36,7.39h-1.11L308.3,160.37z M307.93,159.53
			l-1.59-3.62l-1.59,3.62H307.93z"/>
		<path class="st7" d="M312.41,155.75h-2.53v-0.92h6.11v0.92h-2.53v6.47h-1.05V155.75z"/>
		<path class="st7" d="M317.14,154.83h1.06v7.39h-1.06V154.83z"/>
		<path class="st7" d="M319.81,158.52c0-2.16,1.67-3.78,3.94-3.78c2.25,0,3.92,1.61,3.92,3.78c0,2.18-1.67,3.78-3.92,3.78
			C321.48,162.3,319.81,160.69,319.81,158.52z M326.61,158.52c0-1.64-1.22-2.84-2.86-2.84c-1.66,0-2.88,1.2-2.88,2.84
			s1.22,2.84,2.88,2.84C325.38,161.36,326.61,160.16,326.61,158.52z"/>
		<path class="st7" d="M335.63,154.83v7.39h-0.87l-4.43-5.51v5.51h-1.06v-7.39h0.87l4.43,5.51v-5.51H335.63z"/>
	</g>
</g>
<g id="Character_00000136407533450433134240000009087209736535858326_">
	<g>
		<g>
			<g>
				<g>
					<g>
						<g>
							<g>
								<g>
									<g>
										<g>
											<path class="st7" d="M82.74,135.13c-4.57-2.81-5.76-9.46-3.38-14.27c2.38-4.81,7.55-7.78,12.83-8.71
												c7.65-1.35,15.88,1.25,21.37,6.74c2.97,2.97,5.39,6.86,9.38,8.18c3.5,1.16,7.34,0.01,11,0.43
												c4.91,0.56,9.17,3.99,11.74,8.21c2.58,4.22,3.69,9.17,4.34,14.07c0.6,4.5,1.02,9.44,4.2,12.68
												c3.1,3.16,7.92,3.77,11.75,6c7.2,4.19,9.66,14.79,5.06,21.72c-1.47,2.21-3.59,4.25-3.73,6.9
												c-0.12,2.42,1.47,4.55,2.24,6.85c1.97,5.92-2.79,13.06-9.02,13.51c-3.14,0.23-6.53-0.95-9.33,0.5
												c-2.78,1.44-3.77,4.83-5.53,7.42c-3.45,5.1-10.79,7.11-16.36,4.48c-2.33-1.1-4.54-2.94-7.11-2.73
												c-2.56,0.21-4.55,2.43-7.07,2.96c-3.3,0.69-6.47-1.7-8.47-4.4c-2-2.7-3.42-5.9-5.97-8.1c-3.34-2.88-7.97-3.54-12.16-4.91
												c-9.24-3.03-17.04-10.22-20.8-19.19c-3.77-8.97-3.45-19.56,0.85-28.29"/>
										</g>
									</g>
								</g>
							</g>
						</g>
					</g>
				</g>
			</g>
		</g>
		<g>
			<g>
				<g>
					<g>
						<g>
							<g>
								<g>
									<g>
										<g>
											<path class="st9" d="M131.53,193.65c0.93-1.03,2.26-1.99,3.64-2.47l-0.28-0.01c0.26-0.07,0.52-0.11,0.79-0.14
												c1.01-0.25,2.02-0.22,2.88,0.31l-0.03,0c1.58,0.56,2.99,1.69,3.77,3.18c1.36,2.6,0.92,5.95-0.83,8.31
												c-1.52,2.05-4.15,3.42-6.64,2.85c-2.28-0.52-4-2.56-4.68-4.8C129.41,198.41,129.81,195.55,131.53,193.65z"/>
										</g>
									</g>
								</g>
							</g>
						</g>
					</g>
				</g>
			</g>
		</g>
		<g>
			<g>
				<g>
					<g>
						<g>
							<path class="st12" d="M72.6,244.13l-6.1-88.28c-0.24-3.89,2.53-7.31,6.38-7.89l39.33-11.76
								c12.68-1.9,21.82,13.42,23.18,26.17c1.51,14.16,2.79,31.51,1.56,42.18c-2.47,21.45-19.96,24.95-19.96,24.95
								c-0.01-0.07,0.19,21.8,0.43,29.55l5.22,23.94L72.6,244.13z"/>
						</g>
					</g>
				</g>
			</g>
			<g>
				<g>
					<g>
						<g>
							<path class="st7" d="M127.65,180.71c0.11,1.44-1.01,2.72-2.52,2.87c-1.5,0.15-2.81-0.9-2.92-2.34
								c-0.11-1.44,1.01-2.73,2.51-2.87C126.22,178.22,127.53,179.27,127.65,180.71z"/>
						</g>
					</g>
				</g>
			</g>
			<g>
				<g>
					<g>
						<g>
							<path class="st7" d="M131.88,170.12c-0.32,0.37-2.46-1.07-5.4-0.94c-2.94,0.09-5.03,1.7-5.37,1.35
								c-0.16-0.15,0.15-0.81,1.06-1.54c0.9-0.72,2.44-1.45,4.28-1.52c1.83-0.07,3.4,0.54,4.32,1.19
								C131.7,169.33,132.04,169.96,131.88,170.12z"/>
						</g>
					</g>
				</g>
			</g>
			<g>
				<g>
					<g>
						<g>
							<path class="st7" d="M101.17,181.61c0.11,1.44-1.01,2.72-2.52,2.87c-1.5,0.15-2.81-0.9-2.92-2.34
								c-0.11-1.44,1.01-2.73,2.51-2.87C99.75,179.12,101.06,180.17,101.17,181.61z"/>
						</g>
					</g>
				</g>
			</g>
			<g>
				<g>
					<g>
						<g>
							<path class="st7" d="M103,171.92c-0.32,0.37-2.46-1.07-5.4-0.94c-2.94,0.09-5.03,1.7-5.37,1.35
								c-0.16-0.15,0.15-0.81,1.06-1.53c0.9-0.72,2.44-1.45,4.28-1.52c1.83-0.07,3.4,0.54,4.32,1.19
								C102.82,171.12,103.16,171.75,103,171.92z"/>
						</g>
					</g>
				</g>
			</g>
			<g>
				<g>
					<g>
						<g>
							<path class="st7" d="M114.61,193.26c-0.02-0.17,1.79-0.56,4.74-1.07c0.75-0.11,1.45-0.29,1.56-0.81
								c0.15-0.55-0.2-1.35-0.6-2.2c-0.78-1.79-1.6-3.66-2.47-5.62c-3.43-8.01-5.95-14.6-5.63-14.74c0.32-0.14,3.37,6.24,6.8,14.25
								c0.83,1.98,1.62,3.86,2.37,5.66c0.32,0.84,0.85,1.79,0.52,2.93c-0.18,0.57-0.71,1-1.19,1.15c-0.48,0.17-0.9,0.19-1.27,0.23
								C116.48,193.34,114.63,193.43,114.61,193.26z"/>
						</g>
					</g>
				</g>
			</g>
			<g>
				<g>
					<g>
						<g>
							<path class="st13" d="M116.86,228.05c0,0-13.01,1.46-27.58-6.47c0,0,6.4,15.76,27.64,12.85L116.86,228.05z"/>
						</g>
					</g>
				</g>
			</g>
			<g>
				<g>
					<g>
						<g>
							<path class="st13" d="M114.47,200.27c-1.51-1.95-3.89-3.08-6.09-2.9c-1.53,0.12-3,0.9-3.78,2.27
								c-0.78,1.37-0.74,3.37,0.28,4.75c1.14,1.55,3.2,1.98,4.85,1.51c1.64-0.47,2.97-1.67,4.21-2.86c0.35-0.33,0.7-0.68,0.88-1.14
								c0.19-0.46,0.17-1.08-0.18-1.49"/>
						</g>
					</g>
				</g>
			</g>
			<g>
				<g>
					<g>
						<g>
							<path class="st7" d="M106.04,195.67c0.48-0.05,0.62,3.14,3.45,5.29c2.82,2.16,6.21,1.65,6.25,2.1
								c0.05,0.2-0.73,0.65-2.16,0.75c-1.41,0.11-3.48-0.25-5.21-1.57c-1.73-1.32-2.52-3.14-2.69-4.44
								C105.5,196.47,105.82,195.66,106.04,195.67z"/>
						</g>
					</g>
				</g>
			</g>
			<g>
				<g>
					<g>
						<g>
							<path class="st7" d="M103.78,159.76c-0.26,0.81-3.21,0.56-6.64,1.12c-3.44,0.5-6.18,1.62-6.67,0.93
								c-0.22-0.33,0.23-1.11,1.33-1.93c1.08-0.82,2.83-1.63,4.89-1.95c2.06-0.32,3.97-0.07,5.25,0.39
								C103.22,158.77,103.89,159.37,103.78,159.76z"/>
						</g>
					</g>
				</g>
			</g>
			<g>
				<g>
					<g>
						<g>
							<path class="st7" d="M130.41,160.05c-0.49,0.69-2.54,0.08-4.98,0.16c-2.44-0.01-4.48,0.64-4.98-0.04
								c-0.22-0.33,0.07-1.01,0.95-1.68c0.86-0.67,2.32-1.25,4-1.27c1.68-0.02,3.15,0.52,4.03,1.17
								C130.31,159.04,130.62,159.72,130.41,160.05z"/>
						</g>
					</g>
				</g>
			</g>
		</g>
		<g>
			<g>
				<g>
					<g>
						<g>
							<g>
								<path class="st7" d="M149.56,156.24c-1.04-3.18-2.91-6.2-5.74-7.98c-1.55-0.98-3.34-1.56-4.79-2.69
									c-3.12-2.44-3.89-6.76-5.85-10.2c-2.52-4.44-7.3-7.51-12.38-7.96c-4.23-0.37-8.56,0.96-12.7-0.02
									c-3.05-0.72-5.74-2.66-8.83-3.2c-6.02-1.05-11.54,3.34-15.83,7.69c0.05,4.3,3.51,7.12,6.85,9.83
									c3.34,2.71,7.9,3.84,12.12,3.01c3.27-0.65,6.84-2.36,9.71-0.65c3.01,1.79,3.2,6.29,5.88,8.55
									c3.83,3.23,9.81,0.06,14.63,1.41c3.73,1.05,6.1,4.56,8.61,7.51c2.51,2.95,6.24,5.73,9.94,4.57
									C150.89,162.78,150.6,159.42,149.56,156.24z"/>
							</g>
						</g>
					</g>
				</g>
			</g>
		</g>
		<g>
			<g>
				<g>
					<g>
						<g>
							<g>
								<path class="st7" d="M104.21,138.73c-2.7-0.73-8.24-2.39-9.71-4.71c-3.21-5.02-8.79-8.41-14.43-8.01
									c-5.64,0.39-11,4.93-12.07,10.91c-6.83,0.15-13.44,4.54-16.62,11.05c-0.4,0.81-0.74,1.66-1.03,2.52
									c-2.07,3.78-2.41,8.48-0.81,12.49c0.97,2.42,2.59,5.1,1.38,7.4c-1.24,2.34-4.45,2.46-6.95,3.36
									c-4.34,1.57-7.09,6.61-6.05,11.11c0.37,1.61,1.17,3.22,0.86,4.84c-0.33,1.69-1.75,2.9-2.84,4.24
									c-2.71,3.31-3.49,8.09-1.98,12.09c1.51,4,5.25,7.08,9.47,7.78c1.92,0.32,3.99,0.21,5.67,1.21c1.92,1.14,2.78,3.42,4.15,5.18
									c2.62,3.38,7.48,4.83,11.53,3.42c0.82-0.28,1.58-0.71,2.29-1.19c1.31,1.76,3.34,2.93,6.78,2.88l-1.45-44.93
									c0.44,0.94,1.28,1.78,2.76,2.09c7.24,1.53,8.07-13.35,6.41-17.36c2.58-2.36,5.18-4.74,7.13-7.72
									c1.95-2.97,3.58-11.02,3.11-14.63C94.38,142.87,105.4,139.05,104.21,138.73z"/>
							</g>
						</g>
					</g>
				</g>
			</g>
		</g>
		<g>
			<g>
				<g>
					<g>
						<g>
							<g>
								<g>
									<g>
										<g>
											<g>
												<g>
													<g>
														<g>
															<g>
																<g>
																	<g>
																		<g>
																			<g>
																				<path class="st12" d="M74.42,184c-0.3-4.56-5.9-5.46-9.83-3.11c-2.16,1.29-3.78,3.84-3.51,8.69
																					c0.72,12.92,13.55,9.53,13.55,9.16C74.64,198.5,74.77,189.34,74.42,184z"/>
																			</g>
																		</g>
																	</g>
																</g>
															</g>
														</g>
													</g>
												</g>
											</g>
										</g>
									</g>
								</g>
							</g>
						</g>
					</g>
				</g>
			</g>
		</g>
		<g>
			<g>
				<g>
					<g>
						<g>
							<g>
								<g>
									<g>
										<g>
											<g>
												<g>
													<g>
														<g>
															<g>
																<g>
																	<g>
																		<g>
																			<g>
																				<g>
																					<path class="st13" d="M70.41,194.05c-0.06-0.04-0.22,0.17-0.59,0.37c-0.36,0.19-0.99,0.34-1.68,0.13
																						c-1.39-0.43-2.66-2.53-2.86-4.85c-0.1-1.17,0.09-2.31,0.45-3.26c0.34-0.97,0.92-1.66,1.6-1.82
																						c0.68-0.2,1.18,0.19,1.36,0.54c0.19,0.35,0.13,0.61,0.2,0.63c0.04,0.03,0.27-0.23,0.13-0.76
																						c-0.07-0.25-0.24-0.55-0.55-0.78c-0.32-0.24-0.79-0.34-1.26-0.26c-0.99,0.12-1.84,1.09-2.24,2.13
																						c-0.46,1.05-0.69,2.33-0.58,3.65c0.23,2.6,1.7,4.96,3.6,5.4c0.92,0.19,1.67-0.13,2.04-0.46
																						C70.41,194.37,70.46,194.08,70.41,194.05z"/>
																				</g>
																			</g>
																		</g>
																	</g>
																</g>
															</g>
														</g>
													</g>
												</g>
											</g>
										</g>
									</g>
								</g>
							</g>
						</g>
					</g>
				</g>
			</g>
		</g>
		<g>
			<g>
				<g>
					<g>
						<g>
							<g>
								<g>
									<g>
										<g>
											<path class="st9" d="M86.35,135.5c0.1,0.14-1.3,0.39-2.55,2.2c-1.25,1.78-1.69,5.16-0.82,8.96l0.07,0.33l-0.32,0.08
												c-3.19,0.84-6.67,3.44-8.22,7.46c-0.37,0.99-0.61,2.09-0.62,3.16c0.01,1.1,0.22,2.24,0.45,3.41
												c0.23,1.17,0.48,2.38,0.55,3.67c0.11,1.26-0.21,2.73-0.97,3.83c-1.57,2.47-4.14,3.71-6.35,4.91
												c-2.27,1.17-4.36,2.36-5.95,4.02c-3.23,3.27-4.63,7.46-4.67,10.91c-0.07,3.49,0.95,6.23,1.82,7.97
												c0.88,1.75,1.62,2.58,1.55,2.64c-0.02,0.02-0.22-0.18-0.56-0.57c-0.33-0.41-0.81-1.02-1.3-1.9
												c-0.99-1.72-2.14-4.51-2.15-8.14c-0.04-3.59,1.35-8.01,4.72-11.49c1.65-1.77,3.89-3.06,6.13-4.22
												c2.2-1.2,4.62-2.43,5.99-4.61c1.4-1.98,0.73-4.54,0.31-6.85c-0.22-1.18-0.45-2.36-0.45-3.58
												c0.03-1.24,0.3-2.38,0.71-3.46c1.72-4.32,5.45-6.99,8.85-7.82l-0.24,0.41c-0.82-3.98-0.27-7.48,1.17-9.34
												c0.69-0.92,1.46-1.43,2-1.68C86.05,135.57,86.34,135.47,86.35,135.5z"/>
										</g>
									</g>
								</g>
							</g>
						</g>
					</g>
				</g>
			</g>
		</g>
		<g>
			<g>
				<g>
					<g>
						<g>
							<g>
								<g>
									<path class="st9" d="M65.65,198.97c0.93-1.03,2.26-1.99,3.64-2.47l-0.28-0.01c0.26-0.08,0.52-0.11,0.79-0.15
										c1.01-0.25,2.02-0.22,2.88,0.31l-0.03,0c1.58,0.56,2.99,1.69,3.77,3.18c1.36,2.6,0.92,5.95-0.83,8.31
										c-1.52,2.05-4.15,3.42-6.64,2.85c-2.28-0.52-4-2.56-4.68-4.8C63.53,203.73,63.94,200.87,65.65,198.97z"/>
								</g>
							</g>
						</g>
					</g>
				</g>
			</g>
		</g>
	</g>
	<g>
		<g>
			<g>
				<g>
					<g>
						<g>
							<path class="st12" d="M253.09,296.47l8.81-3.38c0,0,2.4-7.69,4-9.94c1.6-2.26,10.11-9.16,10.6-9.35
								c0.5-0.19,6.09-12.72,8.63-12.31c2.55,0.41,4.3,2.2,3.59,5.6c-0.71,3.4-6.35,10.19-4.79,11.31c1.56,1.13,4.11,1.54,4.11,1.54
								s0.69-3.91,2.84-5.17c2.14-1.26,4.59,0.83,4.59,0.83l0.07,1.68l2.12-1.94c0,0,2.23-7.85,5.6-7.81c0,0,1.32-2.92,3.33-4.48
								c1.53-1.19,3.79-0.51,4.48,1.31l0,0L305,282.14l-16.67,18.36c0,0-7.81,3-9.8,3.92c-1.99,0.92-11.03,7.18-15.02,8.51
								c-4,1.34-8.64,3.37-8.64,3.37L253.09,296.47z"/>
						</g>
					</g>
				</g>
			</g>
			<g>
				<g>
					<g>
						<g>
							<g>
								<path class="st13" d="M276.46,291c0-0.11-1.2-0.28-3.16-0.32c-1.94-0.01-4.82,0.1-7.54,1.66c-1.36,0.77-2.41,1.89-3.13,3.01
									c-0.73,1.12-1.17,2.23-1.49,3.16c-0.62,1.87-0.82,3.07-0.72,3.1c0.12,0.04,0.54-1.1,1.29-2.88
									c0.76-1.74,1.97-4.23,4.48-5.65c2.49-1.43,5.22-1.66,7.13-1.79C275.24,291.17,276.46,291.12,276.46,291z"/>
							</g>
						</g>
					</g>
				</g>
			</g>
			<g>
				<g>
					<g>
						<g>
							<g>
								<path class="st13" d="M284.16,278.85c0.13-0.19-0.78-1.01-2.2-1.43c-1.42-0.43-2.63-0.24-2.62-0.01
									c0,0.24,1.09,0.44,2.38,0.83C283,278.61,284.03,279.05,284.16,278.85z"/>
							</g>
						</g>
					</g>
				</g>
			</g>
		</g>
		<g>
			<g>
				<g>
					<path class="st13" d="M303.04,282.17c-0.11-0.02,0.04-1.46,0.39-3.86c0.35-2.4,0.89-5.75,1.56-9.6l0.25,0.5
						c-0.59-0.27-1.3-0.69-1.82-0.86c-0.57-0.18-1.2-0.08-1.78,0.23c-0.95,0.49-1.59,1.49-2.06,2.49c-0.45,1.02-0.85,2.09-1.09,3.08
						c-0.48,2.06-0.8,3.97-1.1,5.55c-0.57,3.19-0.94,5.16-1.08,5.14c-0.13-0.02,0-2.02,0.4-5.24c0.21-1.61,0.46-3.52,0.91-5.65
						c0.24-1.1,0.62-2.15,1.1-3.27c0.5-1.08,1.2-2.28,2.48-2.95c0.73-0.4,1.67-0.55,2.49-0.29c0.84,0.29,1.33,0.64,1.98,0.94
						l0.32,0.15l-0.07,0.35c-0.72,3.84-1.38,7.18-1.89,9.54C303.51,280.79,303.16,282.19,303.04,282.17z"/>
				</g>
			</g>
		</g>
		<g>
			<g>
				<g>
					<path class="st13" d="M281.15,297.34c-0.04-0.01-0.01-0.27,0.08-0.76c0.11-0.48,0.32-1.19,0.72-2.04
						c0.77-1.71,2.21-3.97,4.37-6.37l-0.09,0.16c1.15-3.41,0.1-8.36,3.2-12.77c0.78-0.91,2.02-1.5,3.21-1.43
						c1.19,0.05,2.21,0.48,3.11,1.09l0.22,0.15l-0.03,0.28c-0.62,4.99-1.19,9.31-1.64,12.37c-0.11,1.54-0.7,2.77-1.12,3.48
						c-0.43,0.74-0.75,1.09-0.79,1.06c-0.05-0.03,0.17-0.44,0.51-1.2c0.33-0.79,0.79-1.86,0.82-3.44c0.28-3.08,0.73-7.39,1.29-12.37
						l0.19,0.43c-0.72-0.48-1.67-0.86-2.59-0.88c-0.93-0.04-1.81,0.38-2.46,1.11c-0.75,0.81-1.12,1.9-1.44,2.99
						c-0.31,1.09-0.53,2.19-0.7,3.27c-0.19,1.09-0.24,2.09-0.36,3.16c-0.15,1.05-0.37,2.02-0.65,2.95l-0.03,0.09l-0.07,0.07
						c-2.16,2.26-3.67,4.43-4.54,6.02C281.46,296.34,281.26,297.37,281.15,297.34z"/>
				</g>
			</g>
		</g>
	</g>
	<g>
		<g>
			<path class="st1" d="M66.92,241.97c0.53-0.77,4.07-7.6,4.07-7.6l20.06,17.29c0,0,19.66,16.47,19.66,15.4l3.14-15.84l3.86-14.41
				l7.21,10.9c0,0,22.66,44.43,22.66,44.97c0,0.53,14.03,46.52,14.03,46.52l-3.02,18.64l-0.36,66.05l-42.26-1.78l-8.35-13.32
				l-14.38-84.7L66.92,241.97z"/>
		</g>
		<g>
			<polygon class="st7" points="119.63,410.82 164.65,410.82 171.79,441.08 102.55,441.08 			"/>
		</g>
		<g>
			<path class="st8" d="M118.22,398.05c-1.42-21.69-0.82-62.62-9.13-83.97s-41.64-73.81-41.64-73.81l-8.18,12.72l-21.45,8.05
				l29.1,117.98c0,0-11.21,26.4-16.55,41.82c-1.59,4.61-3.75,12.43-6.11,20.24h73.65C118.57,423.92,118.88,408.3,118.22,398.05z"/>
		</g>
		<g>
			<path class="st8" d="M259.25,289.98l-56.78,31.56l-39.35-56.15c-0.11-0.14-0.22-0.3-0.34-0.46c-4.48-5.93-8.88-12.45-16.12-14.08
				l-1.1-0.25l2.11,67.21c0,0,27.98,30.84,43.66,43.59c4.67,3.8,16.51,1.42,22.15-1.69c22.6-12.47,61.19-44.45,61.19-44.45
				L259.25,289.98z"/>
		</g>
		<g>
			<path class="st8" d="M164.26,379.53c0,0,4.14-32.08,5.49-40.14c7.1-42.17-24.18-88.78-24.18-88.78l-14.3-2.37l-12.34-10.19
				l5.45,15.22c0,0,17.92,50.13,21.48,66.14c3.56,16.01,5.34,65.24,5.89,64.06c0.33-0.7,2.48,29.72,5.19,57.61h30.35L164.26,379.53z
				"/>
		</g>
		<g>
			<path class="st7" d="M161.61,343.81c-0.02,0-0.02-0.36,0.01-1.04c0.04-0.75,0.09-1.74,0.16-2.98c0.04-0.65,0.09-1.37,0.13-2.15
				c0-0.79,0-1.65,0.01-2.56c0-1.84,0.04-3.93-0.14-6.24c-0.42-9.22-2.41-21.96-7.02-35.31c-1.73-5.02-3.62-9.8-5.7-14.02
				l-0.01-0.02l0-0.01c-2.03-4.79-4.42-9.04-6.58-12.81c-2.17-3.77-4.17-7.06-5.85-9.78c-1.66-2.66-3-4.8-3.96-6.34
				c-0.43-0.7-0.78-1.26-1.06-1.7c-0.24-0.39-0.35-0.59-0.34-0.61c0.02-0.01,0.16,0.17,0.43,0.54c0.29,0.42,0.67,0.96,1.15,1.64
				c0.99,1.44,2.4,3.55,4.13,6.24c1.73,2.69,3.78,5.95,5.99,9.72c2.2,3.77,4.62,8,6.7,12.85l-0.01-0.03
				c2.12,4.26,4.03,9.05,5.76,14.1c4.64,13.41,6.56,26.24,6.86,35.52c0.15,2.32,0.07,4.42,0.03,6.26c-0.02,0.92-0.04,1.77-0.06,2.57
				c-0.07,0.78-0.14,1.5-0.19,2.15c-0.12,1.24-0.22,2.23-0.29,2.97C161.68,343.46,161.63,343.81,161.61,343.81z"/>
		</g>
		<g>
			<path class="st7" d="M110.33,267.3c-0.02,0.03-0.29-0.09-0.8-0.35c-0.59-0.31-1.31-0.69-2.17-1.14
				c-1.97-1.09-4.57-2.53-7.64-4.23l0.45-0.23c-0.37,3.43-1,7.44-1.63,11.71c-0.25,1.74-0.49,3.44-0.69,5.06l-0.08,0.63l-0.48-0.41
				c-4.08-3.48-7.64-6.53-10.15-8.74c-1.18-1.05-2.16-1.92-2.94-2.61c-0.68-0.62-1.04-0.98-1.01-1.01c0.03-0.03,0.44,0.26,1.16,0.83
				c0.81,0.65,1.84,1.47,3.07,2.46c2.59,2.11,6.2,5.11,10.31,8.56l-0.55,0.22c0.19-1.63,0.42-3.34,0.68-5.08
				c0.63-4.28,1.29-8.28,1.72-11.68l0.06-0.46l0.39,0.23c3.02,1.78,5.58,3.3,7.51,4.44c0.82,0.51,1.51,0.93,2.08,1.29
				C110.1,267.1,110.35,267.27,110.33,267.3z"/>
		</g>
		<g>
			<path class="st7" d="M122,247.71c0.05,0,0.07,0.65,0.06,1.81c-0.02,1.3-0.05,2.95-0.09,4.92c-0.1,4.15-0.3,9.89-0.55,16.22
				c-0.01,0.16-0.01,0.31-0.02,0.46l-0.04,1.11l-0.59-0.93c-2.88-4.53-5.51-8.68-7.59-11.97l0.48-0.06
				c-0.84,2.3-1.54,4.23-2.08,5.72c-0.51,1.35-0.82,2.09-0.87,2.08c-0.05-0.02,0.16-0.79,0.59-2.17c0.48-1.51,1.11-3.46,1.86-5.79
				l0.17-0.53l0.31,0.47c2.12,3.26,4.8,7.38,7.73,11.88l-0.64,0.17c0.01-0.15,0.01-0.31,0.02-0.46c0.26-6.33,0.53-12.07,0.76-16.21
				c0.12-1.97,0.23-3.62,0.31-4.91C121.88,248.35,121.95,247.71,122,247.71z"/>
		</g>
		<g>
			<path class="st8" d="M37.81,261.04c-1.75,1.09-3.41,2.37-4.98,3.83c-4,3.74-6.87,8.5-8.68,13.67c-2.02,5.79-4.03,12.9-5.2,17.39
				l-5.43,82.35c-0.48,7.31,0.7,14.64,3.46,21.43l16.82,41.37h36.26l-19.57-55.35l6.7-61.06L37.81,261.04z"/>
		</g>
		<g>
			<g>
				<polyline class="st8" points="60.15,251.62 68.12,275.54 76.62,275.54 71.11,279.05 114.71,362.38 				"/>
			</g>
			<g>
				<g>
					<path class="st7" d="M114.71,362.38c-0.01,0.01-0.08-0.09-0.19-0.29c-0.13-0.24-0.3-0.53-0.5-0.89
						c-0.45-0.83-1.08-1.98-1.87-3.44c-1.63-3.05-3.93-7.38-6.77-12.7c-5.68-10.8-13.48-25.63-22.1-42.02
						c-4.44-8.5-8.66-16.59-12.45-23.85l-0.14-0.26l0.25-0.16c1.91-1.21,3.75-2.37,5.52-3.49l0.16,0.56
						c-3.01-0.01-5.84-0.02-8.5-0.03l-0.2,0l-0.06-0.18c-2.38-7.31-4.33-13.29-5.71-17.5c-0.65-2.04-1.16-3.65-1.53-4.81
						c-0.16-0.52-0.28-0.93-0.38-1.26c-0.08-0.29-0.12-0.43-0.1-0.44c0.01,0,0.07,0.14,0.18,0.41c0.12,0.32,0.27,0.73,0.45,1.24
						c0.4,1.14,0.96,2.74,1.67,4.76c1.43,4.19,3.45,10.14,5.93,17.42l-0.26-0.19c2.66-0.01,5.49-0.02,8.5-0.03l1.04,0l-0.88,0.56
						c-1.77,1.13-3.6,2.31-5.5,3.52l0.11-0.42c3.81,7.26,8.04,15.33,12.5,23.83c8.55,16.42,16.29,31.29,21.92,42.11
						c2.76,5.37,4.99,9.73,6.57,12.8c0.74,1.48,1.33,2.65,1.76,3.5c0.18,0.37,0.32,0.67,0.44,0.92
						C114.67,362.27,114.72,362.38,114.71,362.38z"/>
				</g>
			</g>
		</g>
		<g>
			<g>
				<path class="st8" d="M44.06,272.7c10.62,12.17,15.12,29.45,11.77,45.25"/>
			</g>
			<g>
				<g>
					<path class="st7" d="M55.83,317.96c-0.14-0.03,0.46-2.68,0.71-7.04c0.14-2.18,0.11-4.78-0.11-7.64c-0.27-2.87-0.75-6-1.57-9.22
						c-0.85-3.21-1.95-6.19-3.12-8.82c-1.2-2.61-2.44-4.9-3.63-6.73c-2.34-3.68-4.15-5.71-4.04-5.8c0.04-0.03,0.5,0.46,1.31,1.39
						c0.41,0.46,0.9,1.03,1.41,1.74c0.52,0.7,1.15,1.48,1.73,2.41c1.25,1.82,2.55,4.1,3.8,6.73c1.21,2.65,2.34,5.66,3.21,8.91
						c0.83,3.26,1.3,6.44,1.54,9.34c0.19,2.91,0.17,5.54-0.04,7.73c-0.05,1.1-0.23,2.08-0.34,2.95c-0.1,0.87-0.25,1.61-0.39,2.21
						C56.04,317.31,55.88,317.97,55.83,317.96z"/>
				</g>
			</g>
		</g>
	</g>
	<g>
		<g>
			<path class="st7" d="M70.06,441.08c-0.01,0-0.05-0.09-0.13-0.28c-0.08-0.21-0.19-0.48-0.32-0.83c-0.28-0.76-0.68-1.83-1.18-3.2
				c-1.02-2.82-2.47-6.84-4.26-11.8c-3.56-10.02-8.48-23.84-13.93-39.16l-0.02-0.06l0.01-0.06c0.05-0.43,0.1-0.89,0.15-1.35
				c1.84-16.47,3.5-31.38,4.71-42.21c0.62-5.37,1.13-9.73,1.49-12.79c0.18-1.48,0.33-2.64,0.43-3.47c0.05-0.37,0.09-0.67,0.12-0.9
				c0.03-0.2,0.05-0.31,0.06-0.31c0.01,0,0.01,0.11-0.01,0.31c-0.02,0.23-0.04,0.53-0.07,0.91c-0.08,0.83-0.19,2-0.33,3.48
				c-0.32,3.06-0.77,7.42-1.32,12.8c-1.17,10.84-2.78,25.75-4.56,42.23c-0.05,0.46-0.1,0.92-0.15,1.35l-0.01-0.11
				c5.39,15.34,10.25,29.18,13.78,39.21c1.73,4.99,3.13,9.03,4.11,11.86c0.46,1.38,0.83,2.46,1.09,3.23
				c0.11,0.35,0.2,0.63,0.27,0.84C70.04,440.98,70.07,441.08,70.06,441.08z"/>
		</g>
	</g>
	<g>
		<g>
			<path class="st7" d="M155.1,272c0,0,2.71,4.03,5.89,11.2c0.84,1.77,1.54,3.8,2.4,5.93c0.72,2.18,1.58,4.49,2.24,7
				c0.75,2.48,1.33,5.13,1.95,7.88c0.25,1.39,0.51,2.79,0.77,4.23c0.27,1.43,0.42,2.9,0.63,4.38c1.52,11.86,1.12,22.74,0.4,30.51
				c-0.22,1.94-0.41,3.69-0.59,5.24c-0.16,1.54-0.41,2.86-0.56,3.94c-0.17,1.04-0.3,1.87-0.4,2.48c-0.1,0.57-0.16,0.86-0.17,0.86
				c-0.02,0,0.01-0.3,0.07-0.88c0.07-0.62,0.17-1.45,0.3-2.5c0.12-1.08,0.34-2.4,0.48-3.95c0.15-1.55,0.32-3.31,0.51-5.24
				c0.62-7.77,0.96-18.6-0.55-30.42c-0.22-1.47-0.37-2.93-0.63-4.36c-0.26-1.42-0.51-2.83-0.76-4.21c-0.61-2.73-1.18-5.38-1.91-7.85
				c-0.64-2.5-1.48-4.8-2.18-6.98c-0.84-2.13-1.51-4.16-2.33-5.93c-0.39-0.89-0.76-1.75-1.1-2.55c-0.36-0.8-0.74-1.54-1.08-2.24
				c-0.68-1.39-1.25-2.6-1.79-3.55c-0.5-0.93-0.9-1.67-1.19-2.22C155.22,272.28,155.09,272.01,155.1,272z"/>
		</g>
	</g>
	<g>
		<g>
			<path class="st7" d="M203.03,339.06c-0.05,0.02-0.53-0.89-1.04-2.46c-0.52-1.57-1.01-3.83-1.13-6.36
				c-0.11-2.54,0.19-4.83,0.56-6.44c0.37-1.62,0.77-2.57,0.82-2.55c0.08,0.02-0.19,1.01-0.46,2.62c-0.28,1.61-0.51,3.86-0.4,6.35
				c0.11,2.49,0.54,4.71,0.96,6.28C202.75,338.08,203.11,339.03,203.03,339.06z"/>
		</g>
	</g>
</g>
<g id="Table">
	<g>
		<g>
			<path class="st7" d="M431.75,441.08c0,0.14-94.3,0.26-210.59,0.26c-116.33,0-210.61-0.12-210.61-0.26
				c0-0.14,94.28-0.26,210.61-0.26C337.45,440.82,431.75,440.94,431.75,441.08z"/>
		</g>
	</g>
</g>
</svg>
