<?xml version="1.0" encoding="utf-8"?>
<!-- Generator: Adobe Illustrator 24.3.0, SVG Export Plug-In . SVG Version: 6.00 Build 0)  -->
<svg version="1.1" xmlns="http://www.w3.org/2000/svg" xmlns:xlink="http://www.w3.org/1999/xlink" x="0px" y="0px"
	 viewBox="0 0 2931.3 2931.3" style="enable-background:new 0 0 2931.3 2931.3;" xml:space="preserve">
<style type="text/css">
	.st0{fill:url(#SVGID_1_);}
	.st1{fill:#91B3FA;}
	.st2{fill:#BDD0FB;}
	.st3{fill:url(#SVGID_2_);}
	.st4{fill:url(#SVGID_3_);}
	.st5{fill:url(#SVGID_4_);}
	.st6{fill:url(#SVGID_5_);}
	.st7{fill:url(#SVGID_6_);}
	.st8{opacity:0.78;fill:#FFFFFF;}
	.st9{opacity:0.6;}
	.st10{fill:#FFFFFF;}
	.st11{fill:url(#SVGID_7_);}
	.st12{fill:url(#SVGID_8_);}
	.st13{fill:url(#SVGID_9_);}
	.st14{fill:url(#SVGID_10_);}
	.st15{fill:url(#SVGID_11_);}
	.st16{fill:url(#SVGID_12_);}
	.st17{fill:url(#SVGID_13_);}
	.st18{fill:url(#SVGID_14_);}
	.st19{fill:url(#SVGID_15_);}
	.st20{fill:url(#SVGID_16_);}
	.st21{fill:url(#SVGID_17_);}
	.st22{fill:url(#SVGID_18_);}
	.st23{fill:url(#SVGID_19_);}
	.st24{fill:url(#SVGID_20_);}
	.st25{fill:url(#SVGID_21_);}
	.st26{fill:url(#SVGID_22_);}
	.st27{fill:url(#SVGID_23_);}
	.st28{fill:url(#SVGID_24_);}
	.st29{fill:url(#SVGID_25_);}
	.st30{fill:url(#SVGID_26_);}
	.st31{fill:url(#SVGID_27_);}
	.st32{fill:url(#SVGID_28_);}
	.st33{fill:url(#SVGID_29_);}
</style>
<g id="Background">
</g>
<g id="Illustration">
	<g>
		<linearGradient id="SVGID_1_" gradientUnits="userSpaceOnUse" x1="3167.092" y1="3629.3623" x2="718.6927" y2="588.6038">
			<stop  offset="0" style="stop-color:#DAE3FE"/>
			<stop  offset="1" style="stop-color:#E9EFFD"/>
		</linearGradient>
		<path class="st0" d="M2493.52,2430.2c-56.24,59.21-109.45,97.39-151.49,127.55c-494.2,354.59-1078.97,251.23-1203.25,225.99
			c-183.52-37.27-538.27-109.32-794.74-410.93C-43.98,1916.5,16.44,1197.6,317.42,723.04c55.05-86.8,345.86-568.59,936.93-645.85
			c357.71-46.76,774.68,47.55,1076.64,300.53C2964.82,908.75,2919.7,1981.53,2493.52,2430.2z"/>
		<g>
			<g>
				<path class="st1" d="M2048.74,1631.81c0,0-8.05-338.25,147.75-428.78c155.79-90.53,452.02-147.13,463.12-632.83
					c6.5-284.35,13.54-408.67,18.25-462.88c1.84-21.15-16.95-38.22-37.81-34.29c-147.55,27.8-626.88,142.21-727.38,469.37
					C1793.54,930.26,2048.74,1631.81,2048.74,1631.81z"/>
				<path class="st2" d="M2525.95,208.17c-161.97,144.45-349.25,400.1-449.08,655.75c-12.81,42.13-50.29,131.73-66.57,290.93
					c-14.54,132.77-7.31,273.07,10.32,365.94c1.11,5.87,6.78,9.73,12.65,8.61c10.1-1.92,8.75-12.77,8.66-12.43
					c-20.13-158.67-11.78-356.17,34.35-534.36c58.93-218.81,190.38-430.95,326.34-610.87l13.99-17.72
					c105.34-135.28,127.51-136.27,117.66-145.7C2531.95,206.09,2528.31,206.07,2525.95,208.17z"/>
			</g>
			<g>
				<path class="st2" d="M1854.05,2252.25c-21.08,10.34,199.55-267.11,268.66-702.85c32.57-205.33,32.99-462.6,149.96-561.74
					c97.35-82.51,428.61-30.42,537-10.62c13.54,2.47,18.1,19.58,7.56,28.44c-51.98,43.65-163.17,146.62-192.14,250.39
					c-38.19,136.78-168.23,223.78-284.64,247.32c-116.42,23.54-181.18,46.39-237.89,232.57
					C2045.84,1921.93,1913.94,2222.88,1854.05,2252.25z"/>
				<linearGradient id="SVGID_2_" gradientUnits="userSpaceOnUse" x1="2126.6946" y1="1321.8727" x2="2660.3274" y2="1321.8727">
					<stop  offset="0" style="stop-color:#DAE3FE"/>
					<stop  offset="1" style="stop-color:#E9EFFD"/>
				</linearGradient>
				<path class="st3" d="M2657.23,1034.83c-138.29,5.79-286.73,68.87-362.06,187.2l-7.11,11.29
					c-16.42,26.48-109.49,214.69-161.18,370.71c-0.64,1.95,0.41,4.04,2.36,4.69c3.3,1.09,4.96-2.54,4.64-2.22
					c36.01-88.14,87.74-199.88,128.93-283.45c44.18-91.19,75.09-152.94,175.86-212.09c112.16-63.7,219.3-70.26,218.98-70.19
					c1.64-0.17,2.83-1.63,2.66-3.26C2660.15,1035.93,2658.78,1034.76,2657.23,1034.83z"/>
			</g>
		</g>
		<g>
			<linearGradient id="SVGID_3_" gradientUnits="userSpaceOnUse" x1="1472.9352" y1="2651.6667" x2="1349.209" y2="-1010.69">
				<stop  offset="0" style="stop-color:#09005D"/>
				<stop  offset="1" style="stop-color:#1A0F91"/>
			</linearGradient>
			<path class="st4" d="M602.47,722.2c0-87.37,70.82-158.19,158.19-158.19h1345.26c74.22,0,135.41,58.16,139.19,132.28l99.3,1950.37
				c2.95,58-42.71,106.93-100.77,107.98L701.8,2782.68c-54.56,0.99-99.33-42.97-99.33-97.54V722.2z"/>
			<path class="st1" d="M927.14,2749.52h-0.05l-172.52-2.23c-57.69-0.75-104.62-48.29-104.62-105.98v-260.48
				c0-2.04,1.65-3.68,3.68-3.68c2.03,0,3.68,1.65,3.68,3.68v260.48c0,53.68,43.67,97.92,97.35,98.61l172.52,2.23
				c2.03,0.02,3.66,1.7,3.64,3.73C930.79,2747.9,929.15,2749.52,927.14,2749.52z"/>
			<linearGradient id="SVGID_4_" gradientUnits="userSpaceOnUse" x1="423.959" y1="2133.146" x2="1826.2168" y2="3023.9937">
				<stop  offset="0" style="stop-color:#A737D5"/>
				<stop  offset="1" style="stop-color:#EF497A"/>
			</linearGradient>
			<path class="st5" d="M653.63,2303.83c-2.03,0-3.68-1.65-3.68-3.68v-42.18c0-2.04,1.65-3.68,3.68-3.68c2.03,0,3.68,1.65,3.68,3.68
				v42.18C657.31,2302.18,655.66,2303.83,653.63,2303.83z"/>
			<g>
				<linearGradient id="SVGID_5_" gradientUnits="userSpaceOnUse" x1="3601.6799" y1="-131.6214" x2="2612.0198" y2="678.7032">
					<stop  offset="0" style="stop-color:#E1473D"/>
					<stop  offset="1" style="stop-color:#E9605A"/>
				</linearGradient>
				<path class="st6" d="M712.68,594.03c-0.16-27.95,24.42-49.59,52.12-45.83c183.71,24.91,815.43,101.96,1337.73,61.87
					c23.82-1.83,44.49,16.22,45.76,40.07l104.12,1959.07c1.43,26.86-19.08,49.83-45.94,51.42
					c-219.67,13-1124.34,63.25-1447.02,29.46c-19.64-2.06-34.55-18.59-34.66-38.34L712.68,594.03z"/>
				<linearGradient id="SVGID_6_" gradientUnits="userSpaceOnUse" x1="2180.397" y1="1093.2615" x2="3734.6296" y2="-55.8072">
					<stop  offset="0" style="stop-color:#FEBBBA"/>
					<stop  offset="1" style="stop-color:#FF928E"/>
				</linearGradient>
				<path class="st7" d="M734.32,643.13c-0.16-26.9,23.5-47.72,50.15-44.1c176.79,23.97,784.72,98.12,1287.36,59.54
					c22.92-1.76,42.81,15.61,44.03,38.56l100.2,1885.3c1.37,25.85-18.37,47.96-44.21,49.49c-211.4,12.51-1082,60.87-1392.53,28.35
					c-18.9-1.98-33.25-17.89-33.36-36.89L734.32,643.13z"/>
				<path class="st8" d="M897.98,788.48l18.78,404.19c0.62,13.44,11.48,24.13,24.94,24.51c74.86,2.11,308.11,7.8,439.82,0.93
					c14.9-0.78,26.68-12.83,27.18-27.74c2.51-75.8,8.01-296.42-9.27-388.65c-2.79-14.9-15.6-25.81-30.74-26.34l-442.45-15.47
					C910.27,759.35,897.24,772.53,897.98,788.48z"/>
				<g class="st9">
					<path class="st10" d="M2005.65,823.67c8.27,0,14.86-6.1,14.65-13.56c-0.22-7.46-7.16-13.68-15.43-13.83l-486.62-8.67
						c-8.27-0.15-12.79,6.12-10.04,13.92l2.8,7.95c2.75,7.8,11.77,14.19,20.04,14.19H2005.65z"/>
				</g>
				<g class="st9">
					<path class="st10" d="M1518.23,862.96c-8.27-0.15-12.79,6.12-10.04,13.92l2.8,7.95c2.75,7.8,11.77,14.19,20.04,14.19h474.62
						c8.27,0,14.86-6.1,14.65-13.56c-0.22-7.46-7.16-13.68-15.43-13.83L1518.23,862.96z"/>
				</g>
				<g class="st9">
					<path class="st10" d="M1518.23,939.4c-8.27-0.15-12.79,6.12-10.04,13.92l2.8,7.95c2.75,7.8,11.77,14.19,20.04,14.19h474.62
						c8.27,0,14.86-6.1,14.65-13.56c-0.22-7.46-7.16-13.68-15.43-13.83L1518.23,939.4z"/>
				</g>
				<g class="st9">
					<path class="st10" d="M2052.77,1344.12c8.27,0,14.64-6.1,14.15-13.56c-0.49-7.46-7.66-13.61-15.94-13.68l-1138.1-8.97
						c-8.27-0.07-10.82,5.18-5.67,11.65l10.19,12.79c5.15,6.47,16.14,11.77,24.41,11.77H2052.77z"/>
				</g>
				<g class="st9">
					<path class="st10" d="M912.89,1383.26c-8.27-0.07-10.82,5.18-5.67,11.65l10.19,12.79c5.15,6.47,16.14,11.77,24.41,11.77
						h1110.96c8.27,0,14.64-6.1,14.15-13.56s-7.66-13.61-15.94-13.68L912.89,1383.26z"/>
				</g>
				<linearGradient id="SVGID_7_" gradientUnits="userSpaceOnUse" x1="747.5157" y1="1399.0385" x2="2042.5417" y2="2434.2324">
					<stop  offset="0" style="stop-color:#A737D5"/>
					<stop  offset="1" style="stop-color:#EF497A"/>
				</linearGradient>
				<path class="st11" d="M908.48,1509.08c27.33-2.09,78.51-3.07,106.68-3.46c11.94-0.17,22.41,7.92,25.21,19.53
					c5.44,22.54,12.94,61.68,11.99,103.15c-0.28,12.42-10.46,22.33-22.88,22.2l-103.96-1.12c-12.78-0.14-23.4-9.91-24.59-22.64
					l-9.14-97.8C890.84,1518.81,898.35,1509.85,908.48,1509.08z"/>
				<g class="st9">
					<path class="st10" d="M1100.01,1549.21c-8.27-0.35-14.02,6.07-12.79,14.25l2.73,18.19c1.23,8.18,9,14.87,17.28,14.87h253.93
						c8.27,0,14.96-6.77,14.85-15.04l-0.07-5.71c-0.1-8.27-6.95-15.32-15.22-15.67L1100.01,1549.21z"/>
				</g>
				<linearGradient id="SVGID_8_" gradientUnits="userSpaceOnUse" x1="1599.8777" y1="1535.1904" x2="3120.8972" y2="459.1849">
					<stop  offset="0" style="stop-color:#FF928E"/>
					<stop  offset="1" style="stop-color:#FE7062"/>
				</linearGradient>
				<path class="st12" d="M1474.85,1509.08c27.33-2.09,78.51-3.07,106.68-3.46c11.94-0.17,22.41,7.92,25.21,19.53
					c5.44,22.54,12.94,61.68,11.99,103.15c-0.28,12.42-10.46,22.33-22.88,22.2l-103.96-1.12c-12.78-0.14-23.4-9.91-24.59-22.64
					l-9.14-97.8C1457.22,1518.81,1464.72,1509.85,1474.85,1509.08z"/>
				<g class="st9">
					<path class="st10" d="M1666.38,1549.21c-8.27-0.35-14.02,6.07-12.79,14.25l2.73,18.19c1.23,8.18,9,14.87,17.28,14.87h253.93
						c8.27,0,14.96-6.77,14.85-15.04l-0.07-5.71c-0.1-8.27-6.95-15.32-15.22-15.67L1666.38,1549.21z"/>
				</g>
				<g>
					<g class="st9">
						<path class="st10" d="M876.61,1843.67c3.56,10.53,15.84,17.84,29.81,17.74l1138.78-7.57c12.88-0.09,23.19-8.37,22.91-18.41
							c-0.27-9.76-10.47-17.57-23-17.62l-1138.81-4.05C886.2,1813.7,871.49,1828.52,876.61,1843.67z"/>
					</g>
					<g class="st9">
						<path class="st10" d="M876.61,2049.27c3.56,10.53,15.84,17.84,29.81,17.74l1138.78-7.57c12.88-0.09,23.19-8.37,22.91-18.41
							c-0.27-9.76-10.47-17.57-23-17.62l-1138.81-4.05C886.2,2019.31,871.49,2034.12,876.61,2049.27z"/>
					</g>
					<g class="st9">
						<path class="st10" d="M876.61,2254.88c3.56,10.53,15.84,17.84,29.81,17.74l1138.78-7.57c12.88-0.09,23.19-8.37,22.91-18.41
							c-0.27-9.76-10.47-17.57-23-17.62l-1138.81-4.05C886.2,2224.91,871.49,2239.73,876.61,2254.88z"/>
					</g>
					<g class="st9">
						<path class="st10" d="M876.61,2460.49L876.61,2460.49c3.56,10.53,15.84,17.84,29.81,17.74l1138.78-7.57
							c12.88-0.09,23.19-8.37,22.91-18.41c-0.27-9.76-10.47-17.57-23-17.62l-1138.81-4.05
							C886.2,2430.52,871.49,2445.34,876.61,2460.49z"/>
					</g>
				</g>
			</g>
			<linearGradient id="SVGID_9_" gradientUnits="userSpaceOnUse" x1="1666.8118" y1="97.287" x2="1048.0402" y2="911.2665">
				<stop  offset="0" style="stop-color:#09005D"/>
				<stop  offset="1" style="stop-color:#1A0F91"/>
			</linearGradient>
			<path class="st13" d="M1516.72,298.09c-48.59-33.81-90.84-33.14-120.59-24.36c-27.13,8.01-44.72,34.2-42.14,62.37l12.83,140.01
				l152.64,13.55C1519.46,489.66,1612.02,364.39,1516.72,298.09z M1449.6,411.04c-21.02,0-38.06-17.04-38.06-38.06
				c0-21.02,17.04-38.06,38.06-38.06c21.02,0,38.06,17.04,38.06,38.06C1487.66,394,1470.62,411.04,1449.6,411.04z"/>
			<path class="st1" d="M1382.07,417.22c-1.88,0-3.49-1.44-3.66-3.35l-2.04-22.3c-0.19-2.03,1.31-3.82,3.33-4
				c2.07-0.19,3.82,1.31,4,3.33l2.04,22.3c0.19,2.03-1.31,3.82-3.33,4C1382.3,417.21,1382.18,417.22,1382.07,417.22z
				 M1378.07,373.52c-1.88,0-3.49-1.44-3.66-3.35l-1.55-16.93c-2.46-26.84,14.43-51.82,40.15-59.42
				c18.22-5.38,36.99-6.15,55.79-2.29c1.99,0.41,3.28,2.36,2.87,4.35c-0.41,1.99-2.34,3.26-4.35,2.87
				c-17.61-3.6-35.18-2.89-52.22,2.14c-22.36,6.6-37.04,28.34-34.9,51.68l1.55,16.93c0.19,2.03-1.31,3.82-3.33,4
				C1378.29,373.52,1378.18,373.52,1378.07,373.52z"/>
			<linearGradient id="SVGID_10_" gradientUnits="userSpaceOnUse" x1="1734.6863" y1="148.8821" x2="1115.9141" y2="962.8625">
				<stop  offset="0" style="stop-color:#09005D"/>
				<stop  offset="1" style="stop-color:#1A0F91"/>
			</linearGradient>
			<path class="st14" d="M1158.5,566.59V496.2c0-24.3,20.14-43.76,44.42-42.93l485.31,16.63c21.54,0.74,38.98,17.74,40.27,39.25
				l4.06,67.64L1158.5,566.59z"/>
			<path class="st1" d="M1339.46,479.79h-20.87c-2.03,0-3.68-1.65-3.68-3.68c0-2.04,1.65-3.68,3.68-3.68h20.87
				c2.03,0,3.68,1.65,3.68,3.68C1343.15,478.15,1341.5,479.79,1339.46,479.79z"/>
			<path class="st1" d="M1184.77,544.49c-2.03,0-3.68-1.65-3.68-3.68v-28.48c0-22,17.9-39.9,39.9-39.9h76.73
				c2.03,0,3.68,1.65,3.68,3.68c0,2.04-1.65,3.68-3.68,3.68h-76.73c-17.94,0-32.54,14.6-32.54,32.53v28.48
				C1188.45,542.84,1186.81,544.49,1184.77,544.49z"/>
			<linearGradient id="SVGID_11_" gradientUnits="userSpaceOnUse" x1="1656.7103" y1="198.6723" x2="1229.4612" y2="983.1884">
				<stop  offset="0" style="stop-color:#FF928E"/>
				<stop  offset="1" style="stop-color:#FE7062"/>
			</linearGradient>
			<path class="st15" d="M960.76,584.36c1.17-24.38,21.28-43.54,45.68-43.54l848.66-0.02c30.52,0,56.6,21.96,61.81,52.03l0.72,4.15
				c5.7,32.93-19.66,63.06-53.08,63.06H993.87c-20,0-35.94-16.73-34.98-36.71L960.76,584.36z"/>
		</g>
		<g>
			<g>
				<linearGradient id="SVGID_12_" gradientUnits="userSpaceOnUse" x1="983.0789" y1="2276.7747" x2="825.3315" y2="2499.2817">
					<stop  offset="0" style="stop-color:#09005D"/>
					<stop  offset="1" style="stop-color:#1A0F91"/>
				</linearGradient>
				<rect x="109.09" y="2506.93" class="st16" width="1220.04" height="284.34"/>
				<linearGradient id="SVGID_13_" gradientUnits="userSpaceOnUse" x1="1421.9915" y1="1751.5912" x2="335.3167" y2="3239.6165">
					<stop  offset="0" style="stop-color:#4F52FF"/>
					<stop  offset="1" style="stop-color:#4042E2"/>
				</linearGradient>
				<path class="st17" d="M1345.46,2773.08H91.43c-4.27,0-7.73-3.46-7.73-7.73v-101.45h1266.93v104.02
					C1350.63,2770.76,1348.31,2773.08,1345.46,2773.08z"/>
				<linearGradient id="SVGID_14_" gradientUnits="userSpaceOnUse" x1="723.7759" y1="2453.311" x2="753.8493" y2="1828.4465">
					<stop  offset="0" style="stop-color:#4F52FF"/>
					<stop  offset="1" style="stop-color:#4042E2"/>
				</linearGradient>
				<path class="st18" d="M1342.96,2649.1H93.26c-5.28,0-9.57-4.28-9.57-9.57v-99.62h1266.93v101.52
					C1350.63,2645.67,1347.19,2649.1,1342.96,2649.1z"/>
				<linearGradient id="SVGID_15_" gradientUnits="userSpaceOnUse" x1="1687.0254" y1="1540.2223" x2="1409.0485" y2="1821.5485">
					<stop  offset="0" style="stop-color:#09005D"/>
					<stop  offset="1" style="stop-color:#1A0F91"/>
				</linearGradient>
				<path class="st19" d="M1350.63,2539.92H83.69v-33.04c0-4.36,3.54-7.9,7.9-7.9h1251.03c4.42,0,8,3.58,8,8V2539.92z"/>
			</g>
			<g>
				<linearGradient id="SVGID_16_" gradientUnits="userSpaceOnUse" x1="2983.5718" y1="2859.1968" x2="3239.2898" y2="2922.2959">
					<stop  offset="0" style="stop-color:#4F52FF"/>
					<stop  offset="1" style="stop-color:#4042E2"/>
				</linearGradient>
				<path class="st20" d="M2464.16,2634.31c41.05,19.96,55.53,74.81,32.34,122.5c-23.19,47.69-75.27,70.17-116.32,50.21
					s-55.53-74.81-32.34-122.5S2423.11,2614.35,2464.16,2634.31z"/>
				<linearGradient id="SVGID_17_" gradientUnits="userSpaceOnUse" x1="1798.9315" y1="2341.2446" x2="2167.6145" y2="2572.1023">
					<stop  offset="0" style="stop-color:#4F52FF"/>
					<stop  offset="1" style="stop-color:#4042E2"/>
				</linearGradient>
				<path class="st21" d="M2397.72,2655.33l-42.04,86.45c-1.51,3.11-5.25,4.4-8.36,2.89l-52.61-25.58c-3.11-1.51-4.4-5.25-2.89-8.36
					l42.04-86.45c1.51-3.11,5.25-4.4,8.36-2.89l52.61,25.58C2397.94,2648.49,2399.23,2652.23,2397.72,2655.33z"/>
				
					<linearGradient id="SVGID_18_" gradientUnits="userSpaceOnUse" x1="2767.7212" y1="2735.207" x2="967.5621" y2="1858.4821" gradientTransform="matrix(0.9989 -0.0469 0.0469 0.9989 -22.1737 283.0491)">
					<stop  offset="0" style="stop-color:#4F52FF"/>
					<stop  offset="1" style="stop-color:#4042E2"/>
				</linearGradient>
				<path class="st22" d="M2343.83,2613.62c-7.54,38.71-24.73,73.28-50.86,104.02c-14.12,16.61-36.77,24.05-59.3,19.53
					c-215.37-43.24-666.74-322.22-1105.08-565.92c-29.05-16.15-49.13-34.47-35.44-62.62l30.23-62.17
					c13.6-27.98,46.16-12.23,76.72,0.33c463.67,190.5,955.46,356.55,1124.29,510.19C2340.59,2571.72,2347.81,2593.2,2343.83,2613.62
					z"/>
				<linearGradient id="SVGID_19_" gradientUnits="userSpaceOnUse" x1="849.5697" y1="1886.2406" x2="1129.379" y2="2086.5977">
					<stop  offset="0" style="stop-color:#09005D"/>
					<stop  offset="1" style="stop-color:#1A0F91"/>
				</linearGradient>
				<path class="st23" d="M1193.69,1982.92l-102.63,211.05c-1.45,2.98-5.04,4.22-8.02,2.77l-54.14-26.33
					c-2.98-1.45-4.22-5.04-2.77-8.02l102.63-211.05c1.45-2.98,5.04-4.22,8.02-2.77l54.14,26.33
					C1193.9,1976.35,1195.14,1979.94,1193.69,1982.92z"/>
				<linearGradient id="SVGID_20_" gradientUnits="userSpaceOnUse" x1="1580.1422" y1="2242.6221" x2="677.5082" y2="1871.7456">
					<stop  offset="0" style="stop-color:#4F52FF"/>
					<stop  offset="1" style="stop-color:#4042E2"/>
				</linearGradient>
				<path class="st24" d="M737.5,1772.23l-102.63,211.05c-1.45,2.98-5.04,4.22-8.02,2.77l-54.14-26.33
					c-2.98-1.45-4.22-5.04-2.77-8.02l102.63-211.05c1.45-2.98,5.04-4.22,8.02-2.77l54.14,26.33
					C737.71,1765.66,738.95,1769.25,737.5,1772.23z"/>
				<linearGradient id="SVGID_21_" gradientUnits="userSpaceOnUse" x1="625.7913" y1="1889.2791" x2="1049.2198" y2="2098.5027">
					<stop  offset="0" style="stop-color:#4F52FF"/>
					<stop  offset="1" style="stop-color:#4042E2"/>
				</linearGradient>
				<polygon class="st25" points="1238.73,1776.81 914.43,2443.7 462.62,2223.99 786.92,1557.1 				"/>
				<linearGradient id="SVGID_22_" gradientUnits="userSpaceOnUse" x1="340.6906" y1="2588.6799" x2="589.7661" y2="2409.3455">
					<stop  offset="0" style="stop-color:#09005D"/>
					<stop  offset="1" style="stop-color:#1A0F91"/>
				</linearGradient>
				<polygon class="st26" points="931.53,2408.52 890.75,2492.39 438.94,2272.69 479.73,2188.82 				"/>
				<linearGradient id="SVGID_23_" gradientUnits="userSpaceOnUse" x1="484.1414" y1="2876.4033" x2="630.2659" y2="2481.2036">
					<stop  offset="0" style="stop-color:#4F52FF"/>
					<stop  offset="1" style="stop-color:#4042E2"/>
				</linearGradient>
				<path class="st27" d="M909.17,2454.52l-20.27,41.68c-6.2,12.74-20.71,19.14-34.3,15.1c-140.84-41.83-277.15-107-408.3-198.78
					c-11.48-8.04-15.43-23.25-9.3-35.85l20.35-41.86L909.17,2454.52z"/>
				<linearGradient id="SVGID_24_" gradientUnits="userSpaceOnUse" x1="373.4511" y1="1449.3729" x2="523.8069" y2="1832.0974">
					<stop  offset="0" style="stop-color:#09005D"/>
					<stop  offset="1" style="stop-color:#1A0F91"/>
				</linearGradient>
				<path class="st28" d="M954.79,2391.66l-16.9,34.75c-1.51,3.1-5.25,4.4-8.35,2.89L456.5,2199.27c-3.1-1.51-4.4-5.25-2.89-8.35
					l16.9-34.75c1.51-3.1,5.25-4.4,8.35-2.89L951.9,2383.3C955.01,2384.81,956.3,2388.55,954.79,2391.66z"/>
				<linearGradient id="SVGID_25_" gradientUnits="userSpaceOnUse" x1="470.3828" y1="2956.2139" x2="689.2655" y2="2333.7649">
					<stop  offset="0" style="stop-color:#4F52FF"/>
					<stop  offset="1" style="stop-color:#4042E2"/>
				</linearGradient>
				<path class="st29" d="M952.09,2397.22l-11.49,23.64c-1.37,2.81-4.76,3.98-7.57,2.62l-474.09-230.54
					c-2.81-1.37-3.98-4.76-2.62-7.57l11.49-23.64c1.37-2.81,4.76-3.98,7.57-2.62l474.09,230.54
					C952.28,2391.02,953.45,2394.4,952.09,2397.22z"/>
				
					<linearGradient id="SVGID_26_" gradientUnits="userSpaceOnUse" x1="-362.0395" y1="6914.2227" x2="-89.5166" y2="6543.6577" gradientTransform="matrix(-0.4373 0.8993 0.8993 0.4373 5314.2729 -3033.8213)">
					<stop  offset="0" style="stop-color:#09005D"/>
					<stop  offset="1" style="stop-color:#1A0F91"/>
				</linearGradient>
				<polygon class="st30" points="1241.36,1771.4 1282.14,1687.53 830.33,1467.82 789.55,1551.69 				"/>
				<linearGradient id="SVGID_27_" gradientUnits="userSpaceOnUse" x1="1440.0548" y1="958.1935" x2="1237.473" y2="1286.9736">
					<stop  offset="0" style="stop-color:#4F52FF"/>
					<stop  offset="1" style="stop-color:#4042E2"/>
				</linearGradient>
				<path class="st31" d="M1263.72,1725.4l20.27-41.68c6.2-12.74,2.26-28.11-9.3-36.3c-119.87-84.95-255.31-151.92-408.48-198.4
					c-13.41-4.07-27.81,2.22-33.94,14.83l-20.35,41.86L1263.72,1725.4z"/>
				<linearGradient id="SVGID_28_" gradientUnits="userSpaceOnUse" x1="928.7549" y1="1058.012" x2="978.5743" y2="1435.9537">
					<stop  offset="0" style="stop-color:#09005D"/>
					<stop  offset="1" style="stop-color:#1A0F91"/>
				</linearGradient>
				<path class="st32" d="M1242.45,1800.1l16.9-34.75c1.51-3.1,0.22-6.84-2.89-8.35l-473.03-230.03c-3.1-1.51-6.84-0.22-8.35,2.89
					l-16.9,34.75c-1.51,3.1-0.22,6.84,2.89,8.35l473.03,230.03C1237.2,1804.5,1240.94,1803.21,1242.45,1800.1z"/>
				<linearGradient id="SVGID_29_" gradientUnits="userSpaceOnUse" x1="1477.5066" y1="1001.366" x2="1172.2201" y2="1433.5698">
					<stop  offset="0" style="stop-color:#4F52FF"/>
					<stop  offset="1" style="stop-color:#4042E2"/>
				</linearGradient>
				<path class="st33" d="M1245.15,1794.54l11.49-23.64c1.37-2.81,0.2-6.2-2.62-7.57L779.94,1532.8c-2.81-1.37-6.2-0.2-7.57,2.62
					l-11.49,23.63c-1.37,2.81-0.2,6.2,2.62,7.57l474.09,230.54C1240.4,1798.53,1243.79,1797.36,1245.15,1794.54z"/>
			</g>
		</g>
	</g>
</g>
</svg>
