<svg width="187" height="55" viewBox="0 0 187 55" fill="none" xmlns="http://www.w3.org/2000/svg">
<g clip-path="url(#clip0_483_2882)">
<path d="M46.34 5.51999C46.34 19.17 46.34 32.75 46.34 46.4C46.06 46.89 45.71 47.1 45.15 47.1C30.59 47.1 16.03 47.1 1.47003 47.1C0.630029 47.1 0.280029 46.75 0.280029 45.91C0.280029 32.61 0.280029 19.38 0.280029 6.07999C0.280029 5.23999 0.630029 4.88999 1.47003 4.88999C2.94003 4.88999 4.41003 4.88999 5.95003 4.88999C5.95003 5.51999 5.95003 6.21999 5.95003 6.84999C4.90003 6.84999 3.78003 6.84999 2.73003 6.84999C2.38003 6.84999 2.31003 6.91999 2.31003 7.26999C2.31003 9.01999 2.31003 10.77 2.31003 12.52C2.31003 12.87 2.38003 12.94 2.73003 12.94C4.55003 12.94 6.37003 12.94 8.19003 12.94C20.09 12.94 32.06 12.94 43.96 12.94C44.31 12.94 44.45 12.87 44.45 12.45C44.45 10.7 44.45 8.87999 44.45 7.12999C44.45 6.84999 44.38 6.77999 44.1 6.77999C42.98 6.77999 41.79 6.77999 40.67 6.77999C40.67 6.14999 40.67 5.44999 40.67 4.81999C42.14 4.81999 43.61 4.81999 45.08 4.81999C45.57 4.81999 46.06 4.95999 46.34 5.51999ZM23.31 14.97C16.45 14.97 9.52003 14.97 2.66003 14.97C2.31003 14.97 2.24003 15.04 2.24003 15.39C2.24003 25.19 2.24003 34.92 2.24003 44.72C2.24003 45.07 2.31003 45.14 2.66003 45.14C16.45 45.14 30.17 45.14 43.96 45.14C44.31 45.14 44.38 45.07 44.38 44.72C44.38 34.92 44.38 25.19 44.38 15.39C44.38 15.04 44.31 14.9 43.89 14.9C37.03 14.97 30.17 14.97 23.31 14.97Z" fill="white"/>
<path d="M40.6 6.84999C40.6 7.47999 40.6 8.10999 40.6 8.66999C40.6 9.08999 40.39 9.43999 39.97 9.64999C39.55 9.78999 39.27 9.71999 38.92 9.43999C38.71 9.22999 38.64 9.01999 38.64 8.73999C38.64 8.10999 38.64 7.47999 38.64 6.84999C38.64 6.21999 38.64 5.51999 38.64 4.88999C38.64 4.04999 38.64 3.20999 38.64 2.29999C38.64 1.66999 39.06 1.17999 39.62 1.17999C40.18 1.17999 40.6 1.59999 40.6 2.29999C40.6 3.13999 40.6 3.97999 40.6 4.88999C40.6 5.51999 40.6 6.14999 40.6 6.84999Z" fill="#B86565"/>
<path d="M7.91007 6.85C7.91007 7.48 7.91007 8.04 7.91007 8.67C7.91007 9.37 7.49007 9.79 6.93007 9.79C6.37007 9.79 5.95007 9.37 5.95007 8.67C5.95007 8.04 5.95007 7.48 5.95007 6.85C5.95007 6.22 5.95007 5.52 5.95007 4.89C5.95007 4.05 5.95007 3.21 5.95007 2.37C5.95007 1.67 6.37007 1.25 6.93007 1.25C7.56007 1.25 7.91007 1.67 7.91007 2.37C7.91007 3.21 7.91007 4.05 7.91007 4.89C7.91007 5.52 7.91007 6.15 7.91007 6.85Z" fill="#B86565"/>
<path d="M38.57 4.89C38.57 5.52 38.57 6.22 38.57 6.85C36.12 6.85 33.6 6.85 31.15 6.85C28.84 6.85 26.53 6.85 24.15 6.85C24.15 6.22 24.15 5.52 24.15 4.89C28.98 4.89 33.81 4.89 38.57 4.89Z" fill="white"/>
<path d="M7.91003 6.85C7.91003 6.22 7.91003 5.52 7.91003 4.89C12.46 4.89 17.08 4.89 21.63 4.89C21.77 4.89 21.98 4.89 22.12 4.89C22.12 5.52 22.12 6.22 22.12 6.85C17.92 6.85 13.79 6.85 9.59004 6.85C9.10004 6.85 8.47003 6.85 7.91003 6.85Z" fill="white"/>
<path d="M22.12 6.84999C22.12 6.21999 22.12 5.51999 22.12 4.88999C22.12 4.04999 22.12 3.27999 22.12 2.43999C22.12 1.80999 22.33 1.45999 22.82 1.31999C23.52 1.10999 24.15 1.52999 24.15 2.29999C24.15 2.85999 24.15 3.48999 24.15 4.04999C24.15 4.32999 24.15 4.60999 24.15 4.88999C24.15 5.51999 24.15 6.21999 24.15 6.84999C24.15 7.47999 24.15 8.10999 24.15 8.73999C24.15 9.15999 23.94 9.50999 23.52 9.71999C23.17 9.85999 22.82 9.78999 22.47 9.57999C22.19 9.36999 22.19 9.08999 22.12 8.80999C22.19 8.03999 22.26 7.40999 22.12 6.84999Z" fill="#B86565"/>
<path d="M23.24 19.94C28 19.94 32.76 19.94 37.52 19.94C38.5 19.94 38.78 20.22 38.78 21.2C38.78 27.01 38.78 32.75 38.78 38.56C38.78 39.54 38.43 39.82 37.52 39.82C28 39.82 18.41 39.82 8.89001 39.82C7.98001 39.82 7.63 39.47 7.63 38.56C7.63 32.82 7.63 27.01 7.63 21.27C7.63 20.29 7.98 20.01 8.96 20.01C13.72 19.94 18.48 19.94 23.24 19.94ZM12.32 33.8C11.55 33.8 10.78 33.8 10.01 33.8C9.73 33.8 9.66 33.87 9.66 34.15C9.66 35.27 9.66 36.32 9.66 37.44C9.66 37.72 9.73 37.79 10.01 37.79C11.55 37.79 13.09 37.79 14.63 37.79C14.91 37.79 14.98 37.72 14.98 37.44C14.98 36.32 14.98 35.27 14.98 34.15C14.98 33.8 14.84 33.8 14.56 33.8C13.79 33.8 13.09 33.8 12.32 33.8ZM19.6 37.79C20.37 37.79 21.14 37.79 21.91 37.79C22.19 37.79 22.26 37.72 22.26 37.44C22.26 36.32 22.26 35.2 22.26 34.08C22.26 33.8 22.19 33.73 21.91 33.73C20.37 33.73 18.76 33.73 17.22 33.73C16.94 33.73 16.87 33.8 16.87 34.08C16.87 35.2 16.87 36.32 16.87 37.44C16.87 37.72 17.01 37.79 17.22 37.79C18.06 37.79 18.83 37.79 19.6 37.79ZM26.88 37.79C27.65 37.79 28.42 37.79 29.19 37.79C29.47 37.79 29.54 37.79 29.54 37.44C29.54 36.32 29.54 35.2 29.54 34.08C29.54 33.87 29.47 33.73 29.19 33.73C27.65 33.73 26.04 33.73 24.5 33.73C24.22 33.73 24.15 33.8 24.15 34.08C24.15 35.2 24.15 36.32 24.15 37.44C24.15 37.72 24.29 37.79 24.5 37.79C25.34 37.79 26.11 37.79 26.88 37.79ZM34.23 37.79C35 37.79 35.77 37.79 36.54 37.79C36.82 37.79 36.89 37.72 36.89 37.44C36.89 36.32 36.89 35.27 36.89 34.15C36.89 33.87 36.82 33.8 36.54 33.8C35 33.8 33.46 33.8 31.92 33.8C31.64 33.8 31.57 33.87 31.57 34.15C31.57 35.27 31.57 36.32 31.57 37.44C31.57 37.79 31.71 37.79 31.99 37.79C32.69 37.79 33.46 37.79 34.23 37.79ZM12.32 21.9C11.55 21.9 10.71 21.9 9.94001 21.9C9.73001 21.9 9.66 21.97 9.66 22.18C9.66 23.3 9.66 24.42 9.66 25.54C9.66 25.75 9.73001 25.82 9.94001 25.82C11.55 25.82 13.09 25.82 14.7 25.82C14.91 25.82 14.98 25.75 14.98 25.54C14.98 24.42 14.98 23.3 14.98 22.18C14.98 21.9 14.84 21.9 14.63 21.9C13.86 21.9 13.09 21.9 12.32 21.9ZM19.6 21.9C18.83 21.9 18.06 21.9 17.29 21.9C17.01 21.9 16.94 21.97 16.94 22.25C16.94 23.37 16.94 24.42 16.94 25.54C16.94 25.82 17.01 25.89 17.29 25.89C18.83 25.89 20.37 25.89 21.91 25.89C22.19 25.89 22.26 25.82 22.26 25.54C22.26 24.42 22.26 23.37 22.26 22.25C22.26 21.9 22.12 21.9 21.91 21.9C21.14 21.9 20.37 21.9 19.6 21.9ZM26.88 21.9C26.11 21.9 25.27 21.9 24.5 21.9C24.29 21.9 24.22 21.97 24.22 22.18C24.22 23.3 24.22 24.42 24.22 25.54C24.22 25.75 24.29 25.82 24.5 25.82C26.04 25.82 27.65 25.82 29.19 25.82C29.4 25.82 29.47 25.75 29.47 25.54C29.47 24.42 29.47 23.3 29.47 22.18C29.47 21.9 29.4 21.9 29.12 21.9C28.42 21.9 27.65 21.9 26.88 21.9ZM34.16 25.89C34.93 25.89 35.7 25.89 36.47 25.89C36.75 25.89 36.82 25.89 36.82 25.54C36.82 24.42 36.82 23.3 36.82 22.18C36.82 21.9 36.75 21.83 36.47 21.83C34.93 21.83 33.32 21.83 31.78 21.83C31.5 21.83 31.43 21.9 31.43 22.18C31.43 23.3 31.43 24.42 31.43 25.54C31.43 25.82 31.5 25.89 31.78 25.89C32.62 25.82 33.39 25.89 34.16 25.89ZM12.32 27.85C11.55 27.85 10.78 27.85 10.01 27.85C9.73 27.85 9.66 27.92 9.66 28.2C9.66 29.32 9.66 30.37 9.66 31.49C9.66 31.77 9.73 31.84 10.01 31.84C11.55 31.84 13.16 31.84 14.7 31.84C14.91 31.84 14.98 31.77 14.98 31.56C14.98 30.44 14.98 29.32 14.98 28.2C14.98 27.92 14.91 27.85 14.63 27.85C13.86 27.85 13.09 27.85 12.32 27.85ZM19.6 31.84C20.37 31.84 21.14 31.84 21.91 31.84C22.19 31.84 22.33 31.84 22.33 31.49C22.33 30.37 22.33 29.32 22.33 28.2C22.33 27.92 22.26 27.85 21.98 27.85C20.44 27.85 18.9 27.85 17.36 27.85C17.08 27.85 17.01 27.92 17.01 28.2C17.01 29.32 17.01 30.37 17.01 31.49C17.01 31.77 17.08 31.84 17.36 31.84C18.06 31.84 18.83 31.84 19.6 31.84ZM26.88 27.85C26.11 27.85 25.34 27.85 24.57 27.85C24.29 27.85 24.22 27.92 24.22 28.2C24.22 29.32 24.22 30.37 24.22 31.49C24.22 31.77 24.29 31.84 24.57 31.84C26.11 31.84 27.65 31.84 29.19 31.84C29.47 31.84 29.54 31.77 29.54 31.49C29.54 30.37 29.54 29.32 29.54 28.2C29.54 27.85 29.4 27.85 29.12 27.85C28.42 27.85 27.65 27.85 26.88 27.85ZM34.16 27.85C33.39 27.85 32.62 27.85 31.85 27.85C31.57 27.85 31.5 27.92 31.5 28.2C31.5 29.32 31.5 30.37 31.5 31.49C31.5 31.77 31.57 31.84 31.85 31.84C33.39 31.84 34.93 31.84 36.47 31.84C36.75 31.84 36.82 31.77 36.82 31.49C36.82 30.37 36.82 29.32 36.82 28.2C36.82 27.85 36.68 27.85 36.4 27.85C35.7 27.85 34.93 27.85 34.16 27.85Z" fill="white"/>
<path d="M45.3601 53.75C53.4013 53.75 59.92 47.2313 59.92 39.19C59.92 31.1487 53.4013 24.63 45.3601 24.63C37.3188 24.63 30.8 31.1487 30.8 39.19C30.8 47.2313 37.3188 53.75 45.3601 53.75Z" fill="#B85252" stroke="white" stroke-width="1.64703" stroke-miterlimit="10"/>
<path d="M48.5801 34.92H46.0601C46.4801 35.27 46.8301 35.76 46.9001 36.46H48.5801V37.23H46.9001C46.7601 38.77 45.5001 39.82 43.5401 39.89C44.7301 41.15 46.0601 42.69 47.3201 44.3H45.8501C44.6601 42.83 43.5401 41.5 42.0701 39.96V38.98H42.9101C44.5901 38.98 45.5001 38.28 45.5701 37.23H42.0701V36.46H45.5701C45.3601 35.55 44.5201 35.13 43.1901 35.13H42.0701V34.15H48.5801V34.92Z" fill="white"/>
</g>
<path d="M80.288 23.85V17.346L77.48 22.35H76.82L74 17.346V23.85H72.92V15.33H74.06L77.144 20.862L80.24 15.33H81.368V23.85H80.288ZM82.6897 22.038C82.6897 21.638 82.8017 21.294 83.0257 21.006C83.2577 20.71 83.5737 20.482 83.9737 20.322C84.3737 20.162 84.8377 20.082 85.3657 20.082C85.6457 20.082 85.9417 20.106 86.2537 20.154C86.5657 20.194 86.8417 20.258 87.0817 20.346V19.89C87.0817 19.41 86.9377 19.034 86.6497 18.762C86.3617 18.482 85.9537 18.342 85.4257 18.342C85.0817 18.342 84.7497 18.406 84.4297 18.534C84.1177 18.654 83.7857 18.83 83.4337 19.062L83.0497 18.318C83.4577 18.038 83.8657 17.83 84.2737 17.694C84.6817 17.55 85.1057 17.478 85.5457 17.478C86.3457 17.478 86.9777 17.702 87.4417 18.15C87.9057 18.59 88.1377 19.206 88.1377 19.998V22.65C88.1377 22.778 88.1617 22.874 88.2097 22.938C88.2657 22.994 88.3537 23.026 88.4737 23.034V23.85C88.3697 23.866 88.2777 23.878 88.1977 23.886C88.1257 23.894 88.0657 23.898 88.0177 23.898C87.7697 23.898 87.5817 23.83 87.4537 23.694C87.3337 23.558 87.2657 23.414 87.2497 23.262L87.2257 22.866C86.9537 23.218 86.5977 23.49 86.1577 23.682C85.7177 23.874 85.2817 23.97 84.8497 23.97C84.4337 23.97 84.0617 23.886 83.7337 23.718C83.4057 23.542 83.1497 23.31 82.9657 23.022C82.7817 22.726 82.6897 22.398 82.6897 22.038ZM86.7697 22.482C86.8657 22.37 86.9417 22.258 86.9977 22.146C87.0537 22.026 87.0817 21.926 87.0817 21.846V21.066C86.8337 20.97 86.5737 20.898 86.3017 20.85C86.0297 20.794 85.7617 20.766 85.4977 20.766C84.9617 20.766 84.5257 20.874 84.1897 21.09C83.8617 21.298 83.6977 21.586 83.6977 21.954C83.6977 22.154 83.7497 22.35 83.8537 22.542C83.9657 22.726 84.1257 22.878 84.3337 22.998C84.5497 23.118 84.8137 23.178 85.1257 23.178C85.4537 23.178 85.7657 23.114 86.0617 22.986C86.3577 22.85 86.5937 22.682 86.7697 22.482ZM90.2942 17.586L91.9502 19.89L92.0462 20.082L92.1542 19.89L93.7982 17.586H94.9742L92.6582 20.73L94.9862 23.85H93.8102L92.1542 21.558L92.0462 21.378L91.9502 21.558L90.2942 23.85H89.1182L91.4462 20.73L89.1302 17.586H90.2942ZM95.9786 23.85V17.586H97.0346V23.85H95.9786ZM95.9786 16.41V15.09H97.0346V16.41H95.9786ZM108.188 23.85H107.132V20.346C107.132 19.69 107.024 19.206 106.808 18.894C106.6 18.582 106.288 18.426 105.872 18.426C105.448 18.426 105.064 18.582 104.72 18.894C104.376 19.198 104.132 19.594 103.988 20.082V23.85H102.932V20.346C102.932 19.682 102.828 19.198 102.62 18.894C102.412 18.582 102.1 18.426 101.684 18.426C101.268 18.426 100.884 18.578 100.532 18.882C100.188 19.178 99.9442 19.574 99.8002 20.07V23.85H98.7442V17.586H99.7042V18.93C99.9602 18.466 100.292 18.11 100.7 17.862C101.108 17.606 101.568 17.478 102.08 17.478C102.6 17.478 103.016 17.622 103.328 17.91C103.64 18.19 103.832 18.554 103.904 19.002C104.184 18.506 104.524 18.13 104.924 17.874C105.324 17.61 105.78 17.478 106.292 17.478C106.652 17.478 106.952 17.546 107.192 17.682C107.44 17.81 107.636 17.994 107.78 18.234C107.924 18.466 108.028 18.742 108.092 19.062C108.156 19.382 108.188 19.73 108.188 20.106V23.85ZM109.77 21.342V17.586H110.826V21.138C110.826 21.778 110.938 22.258 111.162 22.578C111.386 22.898 111.718 23.058 112.158 23.058C112.446 23.058 112.722 22.998 112.986 22.878C113.258 22.75 113.502 22.57 113.718 22.338C113.934 22.106 114.102 21.83 114.222 21.51V17.586H115.278V22.65C115.278 22.778 115.302 22.874 115.35 22.938C115.406 22.994 115.494 23.026 115.614 23.034V23.85C115.494 23.866 115.398 23.874 115.326 23.874C115.262 23.882 115.198 23.886 115.134 23.886C114.934 23.886 114.762 23.826 114.618 23.706C114.474 23.578 114.398 23.422 114.39 23.238L114.366 22.506C114.094 22.97 113.726 23.33 113.262 23.586C112.806 23.842 112.306 23.97 111.762 23.97C111.106 23.97 110.61 23.75 110.274 23.31C109.938 22.862 109.77 22.206 109.77 21.342ZM126.481 23.85H125.425V20.346C125.425 19.69 125.317 19.206 125.101 18.894C124.893 18.582 124.581 18.426 124.165 18.426C123.741 18.426 123.357 18.582 123.013 18.894C122.669 19.198 122.425 19.594 122.281 20.082V23.85H121.225V20.346C121.225 19.682 121.121 19.198 120.913 18.894C120.705 18.582 120.393 18.426 119.977 18.426C119.561 18.426 119.177 18.578 118.825 18.882C118.481 19.178 118.237 19.574 118.093 20.07V23.85H117.037V17.586H117.997V18.93C118.253 18.466 118.585 18.11 118.993 17.862C119.401 17.606 119.861 17.478 120.373 17.478C120.893 17.478 121.309 17.622 121.621 17.91C121.933 18.19 122.125 18.554 122.197 19.002C122.477 18.506 122.817 18.13 123.217 17.874C123.617 17.61 124.073 17.478 124.585 17.478C124.945 17.478 125.245 17.546 125.485 17.682C125.733 17.81 125.929 17.994 126.073 18.234C126.217 18.466 126.321 18.742 126.385 19.062C126.449 19.382 126.481 19.73 126.481 20.106V23.85ZM131.182 15.09H132.238V22.23C132.238 22.574 132.286 22.786 132.382 22.866C132.478 22.946 132.594 22.986 132.73 22.986C132.898 22.986 133.058 22.97 133.21 22.938C133.362 22.898 133.49 22.858 133.594 22.818L133.762 23.682C133.586 23.754 133.378 23.814 133.138 23.862C132.898 23.91 132.686 23.934 132.502 23.934C132.094 23.934 131.77 23.818 131.53 23.586C131.298 23.354 131.182 23.03 131.182 22.614V15.09ZM137.328 23.97C136.856 23.97 136.428 23.886 136.044 23.718C135.66 23.542 135.328 23.306 135.048 23.01C134.768 22.706 134.552 22.358 134.4 21.966C134.248 21.574 134.172 21.162 134.172 20.73C134.172 20.29 134.248 19.874 134.4 19.482C134.552 19.09 134.768 18.746 135.048 18.45C135.328 18.146 135.66 17.91 136.044 17.742C136.436 17.566 136.868 17.478 137.34 17.478C137.804 17.478 138.228 17.566 138.612 17.742C138.996 17.91 139.328 18.146 139.608 18.45C139.896 18.746 140.116 19.09 140.268 19.482C140.42 19.874 140.496 20.29 140.496 20.73C140.496 21.162 140.42 21.574 140.268 21.966C140.116 22.358 139.9 22.706 139.62 23.01C139.34 23.306 139.004 23.542 138.612 23.718C138.228 23.886 137.8 23.97 137.328 23.97ZM135.252 20.742C135.252 21.174 135.344 21.566 135.528 21.918C135.72 22.27 135.972 22.55 136.284 22.758C136.596 22.958 136.944 23.058 137.328 23.058C137.712 23.058 138.06 22.954 138.372 22.746C138.692 22.538 138.944 22.258 139.128 21.906C139.32 21.546 139.416 21.15 139.416 20.718C139.416 20.286 139.32 19.894 139.128 19.542C138.944 19.19 138.692 18.91 138.372 18.702C138.06 18.494 137.712 18.39 137.328 18.39C136.944 18.39 136.596 18.498 136.284 18.714C135.972 18.922 135.72 19.202 135.528 19.554C135.344 19.906 135.252 20.302 135.252 20.742ZM141.283 22.038C141.283 21.638 141.395 21.294 141.619 21.006C141.851 20.71 142.167 20.482 142.567 20.322C142.967 20.162 143.431 20.082 143.959 20.082C144.239 20.082 144.535 20.106 144.847 20.154C145.159 20.194 145.435 20.258 145.675 20.346V19.89C145.675 19.41 145.531 19.034 145.243 18.762C144.955 18.482 144.547 18.342 144.019 18.342C143.675 18.342 143.343 18.406 143.023 18.534C142.711 18.654 142.379 18.83 142.027 19.062L141.643 18.318C142.051 18.038 142.459 17.83 142.867 17.694C143.275 17.55 143.699 17.478 144.139 17.478C144.939 17.478 145.571 17.702 146.035 18.15C146.499 18.59 146.731 19.206 146.731 19.998V22.65C146.731 22.778 146.755 22.874 146.803 22.938C146.859 22.994 146.947 23.026 147.067 23.034V23.85C146.963 23.866 146.871 23.878 146.791 23.886C146.719 23.894 146.659 23.898 146.611 23.898C146.363 23.898 146.175 23.83 146.047 23.694C145.927 23.558 145.859 23.414 145.843 23.262L145.819 22.866C145.547 23.218 145.191 23.49 144.751 23.682C144.311 23.874 143.875 23.97 143.443 23.97C143.027 23.97 142.655 23.886 142.327 23.718C141.999 23.542 141.743 23.31 141.559 23.022C141.375 22.726 141.283 22.398 141.283 22.038ZM145.363 22.482C145.459 22.37 145.535 22.258 145.591 22.146C145.647 22.026 145.675 21.926 145.675 21.846V21.066C145.427 20.97 145.167 20.898 144.895 20.85C144.623 20.794 144.355 20.766 144.091 20.766C143.555 20.766 143.119 20.874 142.783 21.09C142.455 21.298 142.291 21.586 142.291 21.954C142.291 22.154 142.343 22.35 142.447 22.542C142.559 22.726 142.719 22.878 142.927 22.998C143.143 23.118 143.407 23.178 143.719 23.178C144.047 23.178 144.359 23.114 144.655 22.986C144.951 22.85 145.187 22.682 145.363 22.482ZM153.856 23.85H152.8V20.346C152.8 19.682 152.696 19.198 152.488 18.894C152.288 18.582 151.98 18.426 151.564 18.426C151.276 18.426 150.988 18.498 150.7 18.642C150.42 18.786 150.168 18.982 149.944 19.23C149.728 19.47 149.572 19.75 149.476 20.07V23.85H148.42V17.586H149.38V18.93C149.548 18.634 149.764 18.378 150.028 18.162C150.292 17.946 150.592 17.778 150.928 17.658C151.264 17.538 151.616 17.478 151.984 17.478C152.344 17.478 152.644 17.546 152.884 17.682C153.132 17.81 153.324 17.994 153.46 18.234C153.604 18.466 153.704 18.742 153.76 19.062C153.824 19.382 153.856 19.73 153.856 20.106V23.85ZM76.064 35.51C75.536 35.518 75.068 35.654 74.66 35.918C74.26 36.174 73.976 36.53 73.808 36.986V40.85H72.752V34.586H73.736V36.038C73.952 35.606 74.236 35.258 74.588 34.994C74.948 34.722 75.324 34.57 75.716 34.538C75.796 34.538 75.864 34.538 75.92 34.538C75.976 34.538 76.024 34.542 76.064 34.55V35.51ZM79.7428 40.97C79.2708 40.97 78.8388 40.886 78.4468 40.718C78.0628 40.542 77.7268 40.306 77.4388 40.01C77.1588 39.706 76.9388 39.358 76.7788 38.966C76.6268 38.574 76.5508 38.158 76.5508 37.718C76.5508 37.126 76.6868 36.586 76.9588 36.098C77.2308 35.61 77.6068 35.218 78.0868 34.922C78.5748 34.626 79.1308 34.478 79.7548 34.478C80.3868 34.478 80.9348 34.63 81.3988 34.934C81.8708 35.23 82.2348 35.622 82.4908 36.11C82.7548 36.59 82.8868 37.11 82.8868 37.67C82.8868 37.75 82.8828 37.83 82.8748 37.91C82.8748 37.982 82.8708 38.038 82.8628 38.078H77.6668C77.6988 38.486 77.8108 38.85 78.0028 39.17C78.2028 39.482 78.4588 39.73 78.7708 39.914C79.0828 40.09 79.4188 40.178 79.7788 40.178C80.1628 40.178 80.5228 40.082 80.8588 39.89C81.2028 39.698 81.4388 39.446 81.5668 39.134L82.4788 39.386C82.3428 39.69 82.1388 39.962 81.8668 40.202C81.6028 40.442 81.2868 40.63 80.9188 40.766C80.5588 40.902 80.1668 40.97 79.7428 40.97ZM77.6308 37.346H81.9028C81.8708 36.938 81.7548 36.578 81.5548 36.266C81.3548 35.954 81.0988 35.71 80.7868 35.534C80.4748 35.358 80.1308 35.27 79.7548 35.27C79.3868 35.27 79.0468 35.358 78.7348 35.534C78.4228 35.71 78.1668 35.954 77.9668 36.266C77.7748 36.578 77.6628 36.938 77.6308 37.346ZM87.4326 40.97C86.9206 40.97 86.4646 40.842 86.0646 40.586C85.6646 40.33 85.3486 40.006 85.1166 39.614V43.406H84.0606V34.586H84.9966V35.762C85.2446 35.378 85.5686 35.07 85.9686 34.838C86.3686 34.598 86.8046 34.478 87.2766 34.478C87.7086 34.478 88.1046 34.566 88.4646 34.742C88.8246 34.918 89.1366 35.158 89.4006 35.462C89.6646 35.766 89.8686 36.114 90.0126 36.506C90.1646 36.89 90.2406 37.294 90.2406 37.718C90.2406 38.31 90.1206 38.854 89.8806 39.35C89.6486 39.846 89.3206 40.242 88.8966 40.538C88.4726 40.826 87.9846 40.97 87.4326 40.97ZM87.1086 40.058C87.4206 40.058 87.7006 39.994 87.9486 39.866C88.2046 39.73 88.4206 39.554 88.5966 39.338C88.7806 39.114 88.9206 38.862 89.0166 38.582C89.1126 38.302 89.1606 38.014 89.1606 37.718C89.1606 37.406 89.1046 37.11 88.9926 36.83C88.8886 36.55 88.7366 36.302 88.5366 36.086C88.3446 35.87 88.1166 35.702 87.8526 35.582C87.5966 35.454 87.3166 35.39 87.0126 35.39C86.8206 35.39 86.6206 35.426 86.4126 35.498C86.2126 35.57 86.0206 35.674 85.8366 35.81C85.6526 35.938 85.4966 36.086 85.3686 36.254C85.2406 36.422 85.1566 36.602 85.1166 36.794V38.582C85.2366 38.854 85.3966 39.102 85.5966 39.326C85.7966 39.55 86.0286 39.73 86.2926 39.866C86.5566 39.994 86.8286 40.058 87.1086 40.058ZM91.0452 39.038C91.0452 38.638 91.1572 38.294 91.3812 38.006C91.6132 37.71 91.9292 37.482 92.3292 37.322C92.7292 37.162 93.1932 37.082 93.7212 37.082C94.0012 37.082 94.2972 37.106 94.6092 37.154C94.9212 37.194 95.1972 37.258 95.4372 37.346V36.89C95.4372 36.41 95.2932 36.034 95.0052 35.762C94.7172 35.482 94.3092 35.342 93.7812 35.342C93.4372 35.342 93.1052 35.406 92.7852 35.534C92.4732 35.654 92.1412 35.83 91.7892 36.062L91.4052 35.318C91.8132 35.038 92.2212 34.83 92.6292 34.694C93.0372 34.55 93.4612 34.478 93.9012 34.478C94.7012 34.478 95.3332 34.702 95.7972 35.15C96.2612 35.59 96.4932 36.206 96.4932 36.998V39.65C96.4932 39.778 96.5172 39.874 96.5652 39.938C96.6212 39.994 96.7092 40.026 96.8292 40.034V40.85C96.7252 40.866 96.6332 40.878 96.5532 40.886C96.4812 40.894 96.4212 40.898 96.3732 40.898C96.1252 40.898 95.9372 40.83 95.8092 40.694C95.6892 40.558 95.6212 40.414 95.6052 40.262L95.5812 39.866C95.3092 40.218 94.9532 40.49 94.5132 40.682C94.0732 40.874 93.6372 40.97 93.2052 40.97C92.7892 40.97 92.4172 40.886 92.0892 40.718C91.7612 40.542 91.5052 40.31 91.3212 40.022C91.1372 39.726 91.0452 39.398 91.0452 39.038ZM95.1252 39.482C95.2212 39.37 95.2972 39.258 95.3532 39.146C95.4092 39.026 95.4372 38.926 95.4372 38.846V38.066C95.1892 37.97 94.9292 37.898 94.6572 37.85C94.3852 37.794 94.1172 37.766 93.8532 37.766C93.3172 37.766 92.8812 37.874 92.5452 38.09C92.2172 38.298 92.0532 38.586 92.0532 38.954C92.0532 39.154 92.1052 39.35 92.2092 39.542C92.3212 39.726 92.4812 39.878 92.6892 39.998C92.9052 40.118 93.1692 40.178 93.4812 40.178C93.8092 40.178 94.1212 40.114 94.4172 39.986C94.7132 39.85 94.9492 39.682 95.1252 39.482ZM98.2705 42.554C98.3745 42.562 98.4785 42.57 98.5825 42.578C98.6865 42.594 98.7665 42.602 98.8225 42.602C98.9505 42.602 99.0625 42.558 99.1585 42.47C99.2545 42.382 99.3585 42.21 99.4705 41.954C99.5905 41.706 99.7425 41.338 99.9265 40.85L97.2745 34.586H98.3905L100.502 39.782L102.41 34.586H103.454L100.406 42.494C100.334 42.678 100.226 42.85 100.082 43.01C99.9465 43.178 99.7705 43.31 99.5545 43.406C99.3385 43.502 99.0785 43.55 98.7745 43.55C98.7025 43.55 98.6265 43.546 98.5465 43.538C98.4745 43.53 98.3825 43.514 98.2705 43.49V42.554ZM113.966 40.85H112.91V37.346C112.91 36.69 112.802 36.206 112.586 35.894C112.378 35.582 112.066 35.426 111.65 35.426C111.226 35.426 110.842 35.582 110.498 35.894C110.154 36.198 109.91 36.594 109.766 37.082V40.85H108.71V37.346C108.71 36.682 108.606 36.198 108.398 35.894C108.19 35.582 107.878 35.426 107.462 35.426C107.046 35.426 106.662 35.578 106.31 35.882C105.966 36.178 105.722 36.574 105.578 37.07V40.85H104.522V34.586H105.482V35.93C105.738 35.466 106.07 35.11 106.478 34.862C106.886 34.606 107.346 34.478 107.858 34.478C108.378 34.478 108.794 34.622 109.106 34.91C109.418 35.19 109.61 35.554 109.682 36.002C109.962 35.506 110.302 35.13 110.702 34.874C111.102 34.61 111.558 34.478 112.07 34.478C112.43 34.478 112.73 34.546 112.97 34.682C113.218 34.81 113.414 34.994 113.558 35.234C113.702 35.466 113.806 35.742 113.87 36.062C113.934 36.382 113.966 36.73 113.966 37.106V40.85ZM118.379 40.97C117.907 40.97 117.475 40.886 117.083 40.718C116.699 40.542 116.363 40.306 116.075 40.01C115.795 39.706 115.575 39.358 115.415 38.966C115.263 38.574 115.187 38.158 115.187 37.718C115.187 37.126 115.323 36.586 115.595 36.098C115.867 35.61 116.243 35.218 116.723 34.922C117.211 34.626 117.767 34.478 118.391 34.478C119.023 34.478 119.571 34.63 120.035 34.934C120.507 35.23 120.871 35.622 121.127 36.11C121.391 36.59 121.523 37.11 121.523 37.67C121.523 37.75 121.519 37.83 121.511 37.91C121.511 37.982 121.507 38.038 121.499 38.078H116.303C116.335 38.486 116.447 38.85 116.639 39.17C116.839 39.482 117.095 39.73 117.407 39.914C117.719 40.09 118.055 40.178 118.415 40.178C118.799 40.178 119.159 40.082 119.495 39.89C119.839 39.698 120.075 39.446 120.203 39.134L121.115 39.386C120.979 39.69 120.775 39.962 120.503 40.202C120.239 40.442 119.923 40.63 119.555 40.766C119.195 40.902 118.803 40.97 118.379 40.97ZM116.267 37.346H120.539C120.507 36.938 120.391 36.578 120.191 36.266C119.991 35.954 119.735 35.71 119.423 35.534C119.111 35.358 118.767 35.27 118.391 35.27C118.023 35.27 117.683 35.358 117.371 35.534C117.059 35.71 116.803 35.954 116.603 36.266C116.411 36.578 116.299 36.938 116.267 37.346ZM128.133 40.85H127.077V37.346C127.077 36.682 126.973 36.198 126.765 35.894C126.565 35.582 126.257 35.426 125.841 35.426C125.553 35.426 125.265 35.498 124.977 35.642C124.697 35.786 124.445 35.982 124.221 36.23C124.005 36.47 123.849 36.75 123.753 37.07V40.85H122.697V34.586H123.657V35.93C123.825 35.634 124.041 35.378 124.305 35.162C124.569 34.946 124.869 34.778 125.205 34.658C125.541 34.538 125.893 34.478 126.261 34.478C126.621 34.478 126.921 34.546 127.161 34.682C127.409 34.81 127.601 34.994 127.737 35.234C127.881 35.466 127.981 35.742 128.037 36.062C128.101 36.382 128.133 36.73 128.133 37.106V40.85ZM132.957 40.538C132.869 40.578 132.749 40.63 132.597 40.694C132.445 40.758 132.269 40.814 132.069 40.862C131.869 40.91 131.657 40.934 131.433 40.934C131.177 40.934 130.941 40.89 130.725 40.802C130.509 40.706 130.337 40.562 130.209 40.37C130.081 40.17 130.017 39.922 130.017 39.626V35.414H129.165V34.586H130.017V32.498H131.073V34.586H132.477V35.414H131.073V39.302C131.089 39.526 131.165 39.694 131.301 39.806C131.437 39.91 131.597 39.962 131.781 39.962C131.989 39.962 132.181 39.926 132.357 39.854C132.533 39.782 132.649 39.73 132.705 39.698L132.957 40.538ZM140.211 40.538C140.123 40.578 140.003 40.63 139.851 40.694C139.699 40.758 139.523 40.814 139.323 40.862C139.123 40.91 138.911 40.934 138.687 40.934C138.431 40.934 138.195 40.89 137.979 40.802C137.763 40.706 137.591 40.562 137.463 40.37C137.335 40.17 137.271 39.922 137.271 39.626V35.414H136.419V34.586H137.271V32.498H138.327V34.586H139.731V35.414H138.327V39.302C138.343 39.526 138.419 39.694 138.555 39.806C138.691 39.91 138.851 39.962 139.035 39.962C139.243 39.962 139.435 39.926 139.611 39.854C139.787 39.782 139.903 39.73 139.959 39.698L140.211 40.538ZM143.879 40.97C143.407 40.97 142.975 40.886 142.583 40.718C142.199 40.542 141.863 40.306 141.575 40.01C141.295 39.706 141.075 39.358 140.915 38.966C140.763 38.574 140.687 38.158 140.687 37.718C140.687 37.126 140.823 36.586 141.095 36.098C141.367 35.61 141.743 35.218 142.223 34.922C142.711 34.626 143.267 34.478 143.891 34.478C144.523 34.478 145.071 34.63 145.535 34.934C146.007 35.23 146.371 35.622 146.627 36.11C146.891 36.59 147.023 37.11 147.023 37.67C147.023 37.75 147.019 37.83 147.011 37.91C147.011 37.982 147.007 38.038 146.999 38.078H141.803C141.835 38.486 141.947 38.85 142.139 39.17C142.339 39.482 142.595 39.73 142.907 39.914C143.219 40.09 143.555 40.178 143.915 40.178C144.299 40.178 144.659 40.082 144.995 39.89C145.339 39.698 145.575 39.446 145.703 39.134L146.615 39.386C146.479 39.69 146.275 39.962 146.003 40.202C145.739 40.442 145.423 40.63 145.055 40.766C144.695 40.902 144.303 40.97 143.879 40.97ZM141.767 37.346H146.039C146.007 36.938 145.891 36.578 145.691 36.266C145.491 35.954 145.235 35.71 144.923 35.534C144.611 35.358 144.267 35.27 143.891 35.27C143.523 35.27 143.183 35.358 142.871 35.534C142.559 35.71 142.303 35.954 142.103 36.266C141.911 36.578 141.799 36.938 141.767 37.346ZM153.633 40.85H152.577V37.346C152.577 36.682 152.473 36.198 152.265 35.894C152.065 35.582 151.757 35.426 151.341 35.426C151.053 35.426 150.765 35.498 150.477 35.642C150.197 35.786 149.945 35.982 149.721 36.23C149.505 36.47 149.349 36.75 149.253 37.07V40.85H148.197V34.586H149.157V35.93C149.325 35.634 149.541 35.378 149.805 35.162C150.069 34.946 150.369 34.778 150.705 34.658C151.041 34.538 151.393 34.478 151.761 34.478C152.121 34.478 152.421 34.546 152.661 34.682C152.909 34.81 153.101 34.994 153.237 35.234C153.381 35.466 153.481 35.742 153.537 36.062C153.601 36.382 153.633 36.73 153.633 37.106V40.85ZM155.215 38.342V34.586H156.271V38.138C156.271 38.778 156.383 39.258 156.607 39.578C156.831 39.898 157.163 40.058 157.603 40.058C157.891 40.058 158.167 39.998 158.431 39.878C158.703 39.75 158.947 39.57 159.163 39.338C159.379 39.106 159.547 38.83 159.667 38.51V34.586H160.723V39.65C160.723 39.778 160.747 39.874 160.795 39.938C160.851 39.994 160.939 40.026 161.059 40.034V40.85C160.939 40.866 160.843 40.874 160.771 40.874C160.707 40.882 160.643 40.886 160.579 40.886C160.379 40.886 160.207 40.826 160.063 40.706C159.919 40.578 159.843 40.422 159.835 40.238L159.811 39.506C159.539 39.97 159.171 40.33 158.707 40.586C158.251 40.842 157.751 40.97 157.207 40.97C156.551 40.97 156.055 40.75 155.719 40.31C155.383 39.862 155.215 39.206 155.215 38.342ZM165.794 35.51C165.266 35.518 164.798 35.654 164.39 35.918C163.99 36.174 163.706 36.53 163.538 36.986V40.85H162.482V34.586H163.466V36.038C163.682 35.606 163.966 35.258 164.318 34.994C164.678 34.722 165.054 34.57 165.446 34.538C165.526 34.538 165.594 34.538 165.65 34.538C165.706 34.538 165.754 34.542 165.794 34.55V35.51ZM169.473 40.97C169.001 40.97 168.569 40.886 168.177 40.718C167.793 40.542 167.457 40.306 167.169 40.01C166.889 39.706 166.669 39.358 166.509 38.966C166.357 38.574 166.281 38.158 166.281 37.718C166.281 37.126 166.417 36.586 166.689 36.098C166.961 35.61 167.337 35.218 167.817 34.922C168.305 34.626 168.861 34.478 169.485 34.478C170.117 34.478 170.665 34.63 171.129 34.934C171.601 35.23 171.965 35.622 172.221 36.11C172.485 36.59 172.617 37.11 172.617 37.67C172.617 37.75 172.613 37.83 172.605 37.91C172.605 37.982 172.601 38.038 172.593 38.078H167.397C167.429 38.486 167.541 38.85 167.733 39.17C167.933 39.482 168.189 39.73 168.501 39.914C168.813 40.09 169.149 40.178 169.509 40.178C169.893 40.178 170.253 40.082 170.589 39.89C170.933 39.698 171.169 39.446 171.297 39.134L172.209 39.386C172.073 39.69 171.869 39.962 171.597 40.202C171.333 40.442 171.017 40.63 170.649 40.766C170.289 40.902 169.897 40.97 169.473 40.97ZM167.361 37.346H171.633C171.601 36.938 171.485 36.578 171.285 36.266C171.085 35.954 170.829 35.71 170.517 35.534C170.205 35.358 169.861 35.27 169.485 35.27C169.117 35.27 168.777 35.358 168.465 35.534C168.153 35.71 167.897 35.954 167.697 36.266C167.505 36.578 167.393 36.938 167.361 37.346Z" fill="white"/>
<defs>
<clipPath id="clip0_483_2882">
<rect width="60.9" height="53.9" fill="white" transform="translate(0 0.899994)"/>
</clipPath>
</defs>
</svg>
