<svg width="182" height="67" viewBox="0 0 182 67" fill="none" xmlns="http://www.w3.org/2000/svg">
<g clip-path="url(#clip0_483_2854)">
<path d="M4.76002 34.37H3.99002V33.67H3.22002V34.37H2.52002V35.21H3.22002V35.91H3.99002V35.21H4.76002V34.37Z" fill="white"/>
<path d="M23.38 35.56H8.39995C7.97995 35.56 7.69995 35.21 7.69995 34.86V34.72C7.69995 34.3 8.04995 34.02 8.39995 34.02H23.31C23.7299 34.02 24.01 34.37 24.01 34.72V34.86C24.08 35.21 23.8 35.56 23.38 35.56Z" fill="white"/>
<path d="M17.85 39.55H8.33002C7.98002 39.55 7.77002 39.27 7.77002 38.99V38.64C7.77002 38.29 8.05002 38.08 8.33002 38.08H17.85C18.2 38.08 18.41 38.36 18.41 38.64V38.99C18.41 39.34 18.2 39.55 17.85 39.55Z" fill="white"/>
<path d="M4.76002 38.5H2.52002V39.06H4.76002V38.5Z" fill="white"/>
<path d="M22.4 43.61H8.39995C8.04995 43.61 7.69995 43.26 7.69995 42.91V42.77C7.69995 42.42 8.04995 42.07 8.39995 42.07H22.4C22.75 42.07 23.1 42.42 23.1 42.77V42.91C23.1 43.26 22.75 43.61 22.4 43.61Z" fill="white"/>
<path d="M4.76002 42.56H2.52002V43.12H4.76002V42.56Z" fill="white"/>
<path d="M20.44 47.6H8.40002C8.05002 47.6 7.77002 47.32 7.77002 46.97V46.76C7.77002 46.41 8.05002 46.13 8.40002 46.13H20.44C20.79 46.13 21.07 46.41 21.07 46.76V46.97C21.07 47.32 20.79 47.6 20.44 47.6Z" fill="white"/>
<path d="M4.76002 46.55H2.52002V47.11H4.76002V46.55Z" fill="white"/>
<path d="M18.1999 51.66H8.74994C8.39994 51.66 8.18994 51.38 8.18994 51.1V50.75C8.18994 50.4 8.46994 50.19 8.74994 50.19H18.1999C18.5499 50.19 18.7599 50.47 18.7599 50.75V51.1C18.7599 51.38 18.5499 51.66 18.1999 51.66Z" fill="white"/>
<path d="M4.76002 50.61H2.52002V51.17H4.76002V50.61Z" fill="white"/>
<path d="M38.78 39.13C37.73 38.22 36.12 38.29 35.21 39.34L34.79 39.9L34.37 40.32L27.23 48.44L26.53 49.21L21.84 54.53L20.23 59.22C20.16 59.5 20.23 59.78 20.44 59.99C20.65 60.2 20.93 60.2 21.21 60.13L25.62 57.96L26.53 56.91L27.23 56.14L38.15 43.75L38.57 43.33L38.99 42.84C39.9 41.65 39.83 40.04 38.78 39.13ZM27.23 55.16L26.53 55.93L25.55 57.05L22.61 54.46L26.46 50.05L27.16 49.28L34.79 40.67L37.66 43.26L27.23 55.16Z" fill="white"/>
<path d="M26.53 46.06V30.1C26.53 29.89 26.39 29.75 26.18 29.75H1.39998C1.18998 29.75 1.04998 29.89 1.04998 30.1V65.1C1.04998 65.31 1.18998 65.45 1.39998 65.45H26.18C26.39 65.45 26.53 65.31 26.53 65.1V59.5H27.23V65.03C27.23 65.59 26.74 66.08 26.18 66.08H1.39998C0.839976 66.08 0.349976 65.59 0.349976 65.03V30.03C0.349976 29.47 0.839976 28.98 1.39998 28.98H26.18C26.74 28.98 27.23 29.47 27.23 30.03V46.06H26.53Z" fill="white"/>
<path d="M53.4101 16.73L30.1001 28.56C29.6101 28.77 29.0501 28.77 28.6301 28.49L6.93008 15.82C5.88008 15.19 5.88008 13.65 7.00008 13.09L30.3101 1.19C30.8001 0.980004 31.3601 0.980004 31.7801 1.26L53.4801 13.93C54.5301 14.56 54.5301 16.17 53.4101 16.73Z" stroke="white" stroke-width="1.15619" stroke-miterlimit="10"/>
<path d="M47.32 30.17L31.36 38.43C30.24 38.99 28.91 38.99 27.79 38.43L11.76 28.98V20.65L27.79 30.03C28.91 30.59 30.24 30.59 31.36 30.03L47.39 21.84L47.32 30.17Z" fill="#F58840" stroke="white" stroke-width="1.15619" stroke-miterlimit="10"/>
<path d="M52.15 19.11V32.55" stroke="white" stroke-width="1.15619" stroke-miterlimit="10" stroke-linecap="round"/>
<path d="M52.2428 34.5782C52.9374 34.5368 53.4576 33.7837 53.4047 32.8962C53.3518 32.0086 52.7458 31.3226 52.0512 31.364C51.3566 31.4054 50.8363 32.1585 50.8893 33.0461C50.9422 33.9337 51.5482 34.6196 52.2428 34.5782Z" fill="white"/>
</g>
<path d="M67.32 29.25V20.73H70.872C71.248 20.73 71.592 20.81 71.904 20.97C72.216 21.122 72.488 21.33 72.72 21.594C72.952 21.85 73.132 22.142 73.26 22.47C73.388 22.79 73.452 23.118 73.452 23.454C73.452 23.918 73.348 24.362 73.14 24.786C72.932 25.202 72.64 25.542 72.264 25.806C71.888 26.062 71.448 26.19 70.944 26.19H68.4V29.25H67.32ZM68.4 25.23H70.884C71.18 25.23 71.436 25.15 71.652 24.99C71.876 24.83 72.048 24.614 72.168 24.342C72.296 24.07 72.36 23.774 72.36 23.454C72.36 23.118 72.288 22.818 72.144 22.554C72 22.282 71.812 22.07 71.58 21.918C71.348 21.766 71.092 21.69 70.812 21.69H68.4V25.23ZM77.9406 23.91C77.4126 23.918 76.9446 24.054 76.5366 24.318C76.1366 24.574 75.8526 24.93 75.6846 25.386V29.25H74.6286V22.986H75.6126V24.438C75.8286 24.006 76.1126 23.658 76.4646 23.394C76.8246 23.122 77.2006 22.97 77.5926 22.938C77.6726 22.938 77.7406 22.938 77.7966 22.938C77.8526 22.938 77.9006 22.942 77.9406 22.95V23.91ZM81.6194 29.37C81.1474 29.37 80.7154 29.286 80.3234 29.118C79.9394 28.942 79.6034 28.706 79.3154 28.41C79.0354 28.106 78.8154 27.758 78.6554 27.366C78.5034 26.974 78.4274 26.558 78.4274 26.118C78.4274 25.526 78.5634 24.986 78.8354 24.498C79.1074 24.01 79.4834 23.618 79.9634 23.322C80.4514 23.026 81.0074 22.878 81.6314 22.878C82.2634 22.878 82.8114 23.03 83.2754 23.334C83.7474 23.63 84.1114 24.022 84.3674 24.51C84.6314 24.99 84.7634 25.51 84.7634 26.07C84.7634 26.15 84.7594 26.23 84.7514 26.31C84.7514 26.382 84.7474 26.438 84.7394 26.478H79.5434C79.5754 26.886 79.6874 27.25 79.8794 27.57C80.0794 27.882 80.3354 28.13 80.6474 28.314C80.9594 28.49 81.2954 28.578 81.6554 28.578C82.0394 28.578 82.3994 28.482 82.7354 28.29C83.0794 28.098 83.3154 27.846 83.4434 27.534L84.3554 27.786C84.2194 28.09 84.0154 28.362 83.7434 28.602C83.4794 28.842 83.1634 29.03 82.7954 29.166C82.4354 29.302 82.0434 29.37 81.6194 29.37ZM79.5074 25.746H83.7794C83.7474 25.338 83.6314 24.978 83.4314 24.666C83.2314 24.354 82.9754 24.11 82.6634 23.934C82.3514 23.758 82.0074 23.67 81.6314 23.67C81.2634 23.67 80.9234 23.758 80.6114 23.934C80.2994 24.11 80.0434 24.354 79.8434 24.666C79.6514 24.978 79.5394 25.338 79.5074 25.746ZM91.3574 20.73H92.2694L95.7494 29.25H94.5974L93.5894 26.754H90.0134L89.0174 29.25H87.8654L91.3574 20.73ZM93.3494 25.914L91.8134 21.978L90.2294 25.914H93.3494ZM96.1347 26.13C96.1347 25.538 96.2547 24.998 96.4947 24.51C96.7427 24.014 97.0787 23.618 97.5027 23.322C97.9347 23.026 98.4267 22.878 98.9787 22.878C99.4827 22.878 99.9347 23.01 100.335 23.274C100.735 23.538 101.047 23.858 101.271 24.234V20.49H102.327V28.05C102.327 28.178 102.351 28.274 102.399 28.338C102.455 28.394 102.543 28.426 102.663 28.434V29.25C102.463 29.282 102.307 29.298 102.195 29.298C101.987 29.298 101.803 29.226 101.643 29.082C101.491 28.938 101.415 28.778 101.415 28.602V28.074C101.167 28.474 100.835 28.79 100.419 29.022C100.003 29.254 99.5707 29.37 99.1227 29.37C98.6907 29.37 98.2907 29.286 97.9227 29.118C97.5627 28.942 97.2467 28.702 96.9747 28.398C96.7107 28.094 96.5027 27.75 96.3507 27.366C96.2067 26.974 96.1347 26.562 96.1347 26.13ZM101.271 27.054V25.254C101.175 24.982 101.019 24.738 100.803 24.522C100.587 24.298 100.343 24.122 100.071 23.994C99.8067 23.858 99.5427 23.79 99.2787 23.79C98.9667 23.79 98.6827 23.858 98.4267 23.994C98.1787 24.122 97.9627 24.298 97.7787 24.522C97.6027 24.738 97.4667 24.986 97.3707 25.266C97.2747 25.546 97.2267 25.838 97.2267 26.142C97.2267 26.454 97.2787 26.75 97.3827 27.03C97.4947 27.31 97.6467 27.558 97.8387 27.774C98.0387 27.99 98.2667 28.158 98.5227 28.278C98.7867 28.398 99.0707 28.458 99.3747 28.458C99.5667 28.458 99.7627 28.422 99.9627 28.35C100.171 28.278 100.367 28.178 100.551 28.05C100.735 27.922 100.891 27.774 101.019 27.606C101.147 27.43 101.231 27.246 101.271 27.054ZM113.534 29.25H112.478V25.746C112.478 25.09 112.37 24.606 112.154 24.294C111.946 23.982 111.634 23.826 111.218 23.826C110.794 23.826 110.41 23.982 110.066 24.294C109.722 24.598 109.478 24.994 109.334 25.482V29.25H108.278V25.746C108.278 25.082 108.174 24.598 107.966 24.294C107.758 23.982 107.446 23.826 107.03 23.826C106.614 23.826 106.23 23.978 105.878 24.282C105.534 24.578 105.29 24.974 105.146 25.47V29.25H104.09V22.986H105.05V24.33C105.306 23.866 105.638 23.51 106.046 23.262C106.454 23.006 106.914 22.878 107.426 22.878C107.946 22.878 108.362 23.022 108.674 23.31C108.986 23.59 109.178 23.954 109.25 24.402C109.53 23.906 109.87 23.53 110.27 23.274C110.67 23.01 111.126 22.878 111.638 22.878C111.998 22.878 112.298 22.946 112.538 23.082C112.786 23.21 112.982 23.394 113.126 23.634C113.27 23.866 113.374 24.142 113.438 24.462C113.502 24.782 113.534 25.13 113.534 25.506V29.25ZM115.175 29.25V22.986H116.231V29.25H115.175ZM115.175 21.81V20.49H116.231V21.81H115.175ZM120.089 29.37C119.569 29.37 119.081 29.286 118.625 29.118C118.169 28.942 117.777 28.682 117.449 28.338L117.857 27.594C118.217 27.93 118.577 28.17 118.937 28.314C119.297 28.458 119.665 28.53 120.041 28.53C120.473 28.53 120.825 28.45 121.097 28.29C121.369 28.122 121.505 27.878 121.505 27.558C121.505 27.326 121.433 27.154 121.289 27.042C121.153 26.93 120.957 26.838 120.701 26.766C120.445 26.686 120.141 26.598 119.789 26.502C119.357 26.374 118.993 26.238 118.697 26.094C118.401 25.95 118.177 25.77 118.025 25.554C117.873 25.338 117.797 25.066 117.797 24.738C117.797 24.338 117.901 24.002 118.109 23.73C118.317 23.45 118.601 23.238 118.961 23.094C119.329 22.95 119.745 22.878 120.209 22.878C120.673 22.878 121.093 22.95 121.469 23.094C121.845 23.238 122.169 23.45 122.441 23.73L121.961 24.462C121.713 24.206 121.441 24.018 121.145 23.898C120.849 23.77 120.517 23.706 120.149 23.706C119.933 23.706 119.721 23.734 119.513 23.79C119.305 23.838 119.133 23.93 118.997 24.066C118.861 24.194 118.793 24.378 118.793 24.618C118.793 24.818 118.845 24.978 118.949 25.098C119.061 25.21 119.221 25.306 119.429 25.386C119.645 25.466 119.905 25.554 120.209 25.65C120.681 25.786 121.089 25.922 121.433 26.058C121.785 26.194 122.057 26.37 122.249 26.586C122.441 26.802 122.537 27.102 122.537 27.486C122.537 28.078 122.313 28.542 121.865 28.878C121.417 29.206 120.825 29.37 120.089 29.37ZM125.948 29.37C125.428 29.37 124.94 29.286 124.484 29.118C124.028 28.942 123.636 28.682 123.308 28.338L123.716 27.594C124.076 27.93 124.436 28.17 124.796 28.314C125.156 28.458 125.524 28.53 125.9 28.53C126.332 28.53 126.684 28.45 126.956 28.29C127.228 28.122 127.364 27.878 127.364 27.558C127.364 27.326 127.292 27.154 127.148 27.042C127.012 26.93 126.816 26.838 126.56 26.766C126.304 26.686 126 26.598 125.648 26.502C125.216 26.374 124.852 26.238 124.556 26.094C124.26 25.95 124.036 25.77 123.884 25.554C123.732 25.338 123.656 25.066 123.656 24.738C123.656 24.338 123.76 24.002 123.968 23.73C124.176 23.45 124.46 23.238 124.82 23.094C125.188 22.95 125.604 22.878 126.068 22.878C126.532 22.878 126.952 22.95 127.328 23.094C127.704 23.238 128.028 23.45 128.3 23.73L127.82 24.462C127.572 24.206 127.3 24.018 127.004 23.898C126.708 23.77 126.376 23.706 126.008 23.706C125.792 23.706 125.58 23.734 125.372 23.79C125.164 23.838 124.992 23.93 124.856 24.066C124.72 24.194 124.652 24.378 124.652 24.618C124.652 24.818 124.704 24.978 124.808 25.098C124.92 25.21 125.08 25.306 125.288 25.386C125.504 25.466 125.764 25.554 126.068 25.65C126.54 25.786 126.948 25.922 127.292 26.058C127.644 26.194 127.916 26.37 128.108 26.586C128.3 26.802 128.396 27.102 128.396 27.486C128.396 28.078 128.172 28.542 127.724 28.878C127.276 29.206 126.684 29.37 125.948 29.37ZM129.66 29.25V22.986H130.716V29.25H129.66ZM129.66 21.81V20.49H130.716V21.81H129.66ZM135.161 29.37C134.689 29.37 134.261 29.286 133.877 29.118C133.493 28.942 133.161 28.706 132.881 28.41C132.601 28.106 132.385 27.758 132.233 27.366C132.081 26.974 132.005 26.562 132.005 26.13C132.005 25.69 132.081 25.274 132.233 24.882C132.385 24.49 132.601 24.146 132.881 23.85C133.161 23.546 133.493 23.31 133.877 23.142C134.269 22.966 134.701 22.878 135.173 22.878C135.637 22.878 136.061 22.966 136.445 23.142C136.829 23.31 137.161 23.546 137.441 23.85C137.729 24.146 137.949 24.49 138.101 24.882C138.253 25.274 138.329 25.69 138.329 26.13C138.329 26.562 138.253 26.974 138.101 27.366C137.949 27.758 137.733 28.106 137.453 28.41C137.173 28.706 136.837 28.942 136.445 29.118C136.061 29.286 135.633 29.37 135.161 29.37ZM133.085 26.142C133.085 26.574 133.177 26.966 133.361 27.318C133.553 27.67 133.805 27.95 134.117 28.158C134.429 28.358 134.777 28.458 135.161 28.458C135.545 28.458 135.893 28.354 136.205 28.146C136.525 27.938 136.777 27.658 136.961 27.306C137.153 26.946 137.249 26.55 137.249 26.118C137.249 25.686 137.153 25.294 136.961 24.942C136.777 24.59 136.525 24.31 136.205 24.102C135.893 23.894 135.545 23.79 135.161 23.79C134.777 23.79 134.429 23.898 134.117 24.114C133.805 24.322 133.553 24.602 133.361 24.954C133.177 25.306 133.085 25.702 133.085 26.142ZM145.045 29.25H143.989V25.746C143.989 25.082 143.885 24.598 143.677 24.294C143.477 23.982 143.169 23.826 142.753 23.826C142.465 23.826 142.177 23.898 141.889 24.042C141.609 24.186 141.357 24.382 141.133 24.63C140.917 24.87 140.761 25.15 140.665 25.47V29.25H139.609V22.986H140.569V24.33C140.737 24.034 140.953 23.778 141.217 23.562C141.481 23.346 141.781 23.178 142.117 23.058C142.453 22.938 142.805 22.878 143.173 22.878C143.533 22.878 143.833 22.946 144.073 23.082C144.321 23.21 144.513 23.394 144.649 23.634C144.793 23.866 144.893 24.142 144.949 24.462C145.013 24.782 145.045 25.13 145.045 25.506V29.25ZM72.324 39.518C72.228 39.406 72.1 39.298 71.94 39.194C71.78 39.09 71.6 38.998 71.4 38.918C71.2 38.83 70.98 38.762 70.74 38.714C70.508 38.658 70.264 38.63 70.008 38.63C69.352 38.63 68.868 38.754 68.556 39.002C68.244 39.25 68.088 39.59 68.088 40.022C68.088 40.326 68.168 40.566 68.328 40.742C68.488 40.918 68.732 41.062 69.06 41.174C69.396 41.286 69.82 41.402 70.332 41.522C70.924 41.65 71.436 41.806 71.868 41.99C72.3 42.174 72.632 42.422 72.864 42.734C73.096 43.038 73.212 43.446 73.212 43.958C73.212 44.366 73.132 44.722 72.972 45.026C72.82 45.322 72.604 45.57 72.324 45.77C72.044 45.962 71.716 46.106 71.34 46.202C70.964 46.29 70.556 46.334 70.116 46.334C69.684 46.334 69.26 46.29 68.844 46.202C68.436 46.106 68.048 45.97 67.68 45.794C67.312 45.618 66.968 45.398 66.648 45.134L67.164 44.222C67.292 44.358 67.456 44.494 67.656 44.63C67.864 44.758 68.096 44.878 68.352 44.99C68.616 45.102 68.9 45.194 69.204 45.266C69.508 45.33 69.82 45.362 70.14 45.362C70.748 45.362 71.22 45.254 71.556 45.038C71.892 44.814 72.06 44.49 72.06 44.066C72.06 43.746 71.964 43.49 71.772 43.298C71.588 43.106 71.312 42.946 70.944 42.818C70.576 42.69 70.128 42.562 69.6 42.434C69.024 42.29 68.54 42.134 68.148 41.966C67.756 41.79 67.46 41.562 67.26 41.282C67.068 41.002 66.972 40.638 66.972 40.19C66.972 39.646 67.104 39.186 67.368 38.81C67.632 38.434 67.996 38.15 68.46 37.958C68.924 37.766 69.448 37.67 70.032 37.67C70.416 37.67 70.772 37.71 71.1 37.79C71.436 37.87 71.748 37.982 72.036 38.126C72.324 38.27 72.588 38.442 72.828 38.642L72.324 39.518ZM73.9725 44.438C73.9725 44.038 74.0845 43.694 74.3085 43.406C74.5405 43.11 74.8565 42.882 75.2565 42.722C75.6565 42.562 76.1205 42.482 76.6485 42.482C76.9285 42.482 77.2245 42.506 77.5365 42.554C77.8485 42.594 78.1245 42.658 78.3645 42.746V42.29C78.3645 41.81 78.2205 41.434 77.9325 41.162C77.6445 40.882 77.2365 40.742 76.7085 40.742C76.3645 40.742 76.0325 40.806 75.7125 40.934C75.4005 41.054 75.0685 41.23 74.7165 41.462L74.3325 40.718C74.7405 40.438 75.1485 40.23 75.5565 40.094C75.9645 39.95 76.3885 39.878 76.8285 39.878C77.6285 39.878 78.2605 40.102 78.7245 40.55C79.1885 40.99 79.4205 41.606 79.4205 42.398V45.05C79.4205 45.178 79.4445 45.274 79.4925 45.338C79.5485 45.394 79.6365 45.426 79.7565 45.434V46.25C79.6525 46.266 79.5605 46.278 79.4805 46.286C79.4085 46.294 79.3485 46.298 79.3005 46.298C79.0525 46.298 78.8645 46.23 78.7365 46.094C78.6165 45.958 78.5485 45.814 78.5325 45.662L78.5085 45.266C78.2365 45.618 77.8805 45.89 77.4405 46.082C77.0005 46.274 76.5645 46.37 76.1325 46.37C75.7165 46.37 75.3445 46.286 75.0165 46.118C74.6885 45.942 74.4325 45.71 74.2485 45.422C74.0645 45.126 73.9725 44.798 73.9725 44.438ZM78.0525 44.882C78.1485 44.77 78.2245 44.658 78.2805 44.546C78.3365 44.426 78.3645 44.326 78.3645 44.246V43.466C78.1165 43.37 77.8565 43.298 77.5845 43.25C77.3125 43.194 77.0445 43.166 76.7805 43.166C76.2445 43.166 75.8085 43.274 75.4725 43.49C75.1445 43.698 74.9805 43.986 74.9805 44.354C74.9805 44.554 75.0325 44.75 75.1365 44.942C75.2485 45.126 75.4085 45.278 75.6165 45.398C75.8325 45.518 76.0965 45.578 76.4085 45.578C76.7365 45.578 77.0485 45.514 77.3445 45.386C77.6405 45.25 77.8765 45.082 78.0525 44.882ZM86.5451 46.25H85.4891V42.746C85.4891 42.082 85.3851 41.598 85.1771 41.294C84.9771 40.982 84.6691 40.826 84.2531 40.826C83.9651 40.826 83.6771 40.898 83.3891 41.042C83.1091 41.186 82.8571 41.382 82.6331 41.63C82.4171 41.87 82.2611 42.15 82.1651 42.47V46.25H81.1091V39.986H82.0691V41.33C82.2371 41.034 82.4531 40.778 82.7171 40.562C82.9811 40.346 83.2811 40.178 83.6171 40.058C83.9531 39.938 84.3051 39.878 84.6731 39.878C85.0331 39.878 85.3331 39.946 85.5731 40.082C85.8211 40.21 86.0131 40.394 86.1491 40.634C86.2931 40.866 86.3931 41.142 86.4491 41.462C86.5131 41.782 86.5451 42.13 86.5451 42.506V46.25ZM90.9592 46.37C90.4872 46.37 90.0552 46.286 89.6632 46.118C89.2792 45.942 88.9432 45.702 88.6552 45.398C88.3752 45.094 88.1552 44.746 87.9952 44.354C87.8432 43.962 87.7672 43.546 87.7672 43.106C87.7672 42.514 87.8992 41.974 88.1632 41.486C88.4272 40.998 88.7992 40.61 89.2792 40.322C89.7592 40.026 90.3152 39.878 90.9472 39.878C91.5632 39.878 92.0992 40.018 92.5552 40.298C93.0192 40.57 93.3632 40.938 93.5872 41.402L92.5552 41.726C92.3952 41.43 92.1712 41.202 91.8832 41.042C91.5952 40.874 91.2752 40.79 90.9232 40.79C90.5392 40.79 90.1872 40.89 89.8672 41.09C89.5552 41.29 89.3072 41.566 89.1232 41.918C88.9392 42.262 88.8472 42.658 88.8472 43.106C88.8472 43.546 88.9392 43.946 89.1232 44.306C89.3152 44.658 89.5672 44.938 89.8792 45.146C90.1992 45.354 90.5512 45.458 90.9352 45.458C91.1832 45.458 91.4192 45.414 91.6432 45.326C91.8752 45.238 92.0752 45.122 92.2432 44.978C92.4192 44.826 92.5392 44.662 92.6032 44.486L93.6352 44.798C93.5072 45.102 93.3112 45.374 93.0472 45.614C92.7912 45.846 92.4832 46.03 92.1232 46.166C91.7712 46.302 91.3832 46.37 90.9592 46.37ZM98.0717 45.938C97.9837 45.978 97.8637 46.03 97.7117 46.094C97.5597 46.158 97.3837 46.214 97.1837 46.262C96.9837 46.31 96.7717 46.334 96.5477 46.334C96.2917 46.334 96.0557 46.29 95.8397 46.202C95.6237 46.106 95.4517 45.962 95.3237 45.77C95.1957 45.57 95.1317 45.322 95.1317 45.026V40.814H94.2797V39.986H95.1317V37.898H96.1877V39.986H97.5917V40.814H96.1877V44.702C96.2037 44.926 96.2797 45.094 96.4157 45.206C96.5517 45.31 96.7117 45.362 96.8957 45.362C97.1037 45.362 97.2957 45.326 97.4717 45.254C97.6477 45.182 97.7637 45.13 97.8197 45.098L98.0717 45.938ZM99.0505 46.25V39.986H100.106V46.25H99.0505ZM99.0505 38.81V37.49H100.106V38.81H99.0505ZM104.552 46.37C104.08 46.37 103.652 46.286 103.268 46.118C102.884 45.942 102.552 45.706 102.272 45.41C101.992 45.106 101.776 44.758 101.624 44.366C101.472 43.974 101.396 43.562 101.396 43.13C101.396 42.69 101.472 42.274 101.624 41.882C101.776 41.49 101.992 41.146 102.272 40.85C102.552 40.546 102.884 40.31 103.268 40.142C103.66 39.966 104.092 39.878 104.564 39.878C105.028 39.878 105.452 39.966 105.836 40.142C106.22 40.31 106.552 40.546 106.832 40.85C107.12 41.146 107.34 41.49 107.492 41.882C107.644 42.274 107.72 42.69 107.72 43.13C107.72 43.562 107.644 43.974 107.492 44.366C107.34 44.758 107.124 45.106 106.844 45.41C106.564 45.706 106.228 45.942 105.836 46.118C105.452 46.286 105.024 46.37 104.552 46.37ZM102.476 43.142C102.476 43.574 102.568 43.966 102.752 44.318C102.944 44.67 103.196 44.95 103.508 45.158C103.82 45.358 104.168 45.458 104.552 45.458C104.936 45.458 105.284 45.354 105.596 45.146C105.916 44.938 106.168 44.658 106.352 44.306C106.544 43.946 106.64 43.55 106.64 43.118C106.64 42.686 106.544 42.294 106.352 41.942C106.168 41.59 105.916 41.31 105.596 41.102C105.284 40.894 104.936 40.79 104.552 40.79C104.168 40.79 103.82 40.898 103.508 41.114C103.196 41.322 102.944 41.602 102.752 41.954C102.568 42.306 102.476 42.702 102.476 43.142ZM114.436 46.25H113.38V42.746C113.38 42.082 113.276 41.598 113.068 41.294C112.868 40.982 112.56 40.826 112.144 40.826C111.856 40.826 111.568 40.898 111.28 41.042C111 41.186 110.748 41.382 110.524 41.63C110.308 41.87 110.152 42.15 110.056 42.47V46.25H109V39.986H109.96V41.33C110.128 41.034 110.344 40.778 110.608 40.562C110.872 40.346 111.172 40.178 111.508 40.058C111.844 39.938 112.196 39.878 112.564 39.878C112.924 39.878 113.224 39.946 113.464 40.082C113.712 40.21 113.904 40.394 114.04 40.634C114.184 40.866 114.284 41.142 114.34 41.462C114.404 41.782 114.436 42.13 114.436 42.506V46.25Z" fill="white"/>
<defs>
<clipPath id="clip0_483_2854">
<rect width="55.3" height="66.5" fill="white"/>
</clipPath>
</defs>
</svg>
