<svg width="207" height="65" viewBox="0 0 207 65" fill="none" xmlns="http://www.w3.org/2000/svg">
<g clip-path="url(#clip0_483_2855)">
<path d="M16.1 4.98001C15.61 4.07001 15.19 3.37001 14.7 2.67001C14.42 2.25001 14.28 1.76001 14.56 1.27001C14.84 0.780015 15.33 0.640015 15.82 0.640015C19.11 0.710015 22.47 0.710015 25.76 0.780015C26.88 0.780015 27.37 1.69001 26.88 2.67001C26.53 3.37001 26.18 4.07001 25.76 4.91001C26.6 4.91001 27.37 4.91001 28.07 4.91001C28.84 4.91001 29.05 5.19001 29.05 5.96001C28.98 7.50001 28.49 8.83002 27.16 9.74002C29.05 10.86 29.33 12.19 28.14 14.01C29.05 15.27 29.12 16.53 28.14 17.72C29.19 19.75 29.12 20.52 27.72 21.92C27.86 23.81 29.26 25.07 30.24 26.47C31.36 28.01 32.13 29.69 32.41 31.58C33.11 36.27 31.5 40.05 27.86 42.99C21.91 47.82 12.95 46.77 8.26 40.68C5.11 36.62 5.04 31.02 7.98 26.82C8.75 25.77 9.52 24.72 10.36 23.53C9.59 23.46 8.89 23.46 8.19 23.39C8.19 23.88 8.19 24.3 8.19 24.72C8.19 25.21 7.91 25.56 7.42 25.56C5.18 25.56 3.01 25.56 0.77 25.56C0.21 25.56 0 25.14 0 24.58C0 23.04 0 21.43 0 19.89C0 15.97 0 12.05 0 8.06001C0 7.01002 0.209999 6.80001 1.26 6.80001C3.22 6.80001 5.18 6.80001 7.14 6.80001C8.05 6.80001 8.26 7.01002 8.26 7.92001C8.26 8.34001 8.26 8.76001 8.26 9.25001C9.24 9.39001 10.15 9.25001 10.99 8.76001C11.2 8.62001 11.48 8.34001 11.55 8.13001C12.11 5.96001 13.44 4.70001 16.1 4.98001ZM12.04 23.88C11.06 25.28 10.01 26.61 9.1 28.01C7 31.3 6.79 34.73 8.54 38.16C12.39 45.79 23.45 46.7 28.77 39.84C32.55 35.01 31.29 29.48 27.3 25.28C26.81 25.56 26.39 25.77 25.9 26.05C26.67 27.03 26.95 28.22 27.16 29.41C27.23 30.04 26.95 30.46 26.46 30.46C25.9 30.46 25.69 30.11 25.62 29.62C25.48 28.99 25.34 28.36 25.13 27.8C24.85 27.1 24.43 26.54 23.59 26.12C23.73 26.47 23.8 26.68 23.87 26.82C24.08 28.01 24.29 29.27 24.43 30.46C24.5 31.16 24.08 31.51 23.59 31.51C23.1 31.51 22.82 31.09 22.89 30.39C22.96 28.99 22.68 27.73 22.05 26.47C21.84 26.05 21.63 25.91 21.14 25.91C19.53 25.84 17.92 25.84 16.31 25.56C15.54 25.42 14.98 25.63 14.63 26.19C14.28 26.68 14.07 27.24 13.93 27.8C13.86 28.36 13.93 28.99 14 29.55C14.07 30.04 13.93 30.39 13.44 30.53C12.95 30.67 12.6 30.39 12.46 29.9C12.39 29.69 12.39 29.48 12.32 29.27C12.04 27.45 12.53 25.91 13.93 24.58C13.23 24.51 12.67 24.23 12.04 23.88ZM8.19 21.85C8.33 21.85 8.4 21.85 8.47 21.85C10.78 21.78 12.88 22.41 14.91 23.6C15.61 24.02 16.38 24.3 17.15 24.37C19.88 24.51 22.61 24.51 25.34 24.51C25.97 24.51 26.32 24.02 26.32 23.46C26.32 22.9 25.9 22.41 25.34 22.41C24.43 22.41 23.52 22.41 22.61 22.41C22.05 22.41 21.63 22.27 21.63 21.64C21.56 21.15 21.98 20.87 22.68 20.87C23.73 20.87 24.78 20.87 25.9 20.87C26.81 20.87 27.3 20.45 27.3 19.82C27.3 19.12 26.74 18.7 25.83 18.7C25.13 18.7 24.5 18.7 23.8 18.7C23.24 18.7 22.82 18.56 22.82 17.93C22.75 17.44 23.17 17.16 23.87 17.16C24.57 17.16 25.27 17.16 26.04 17.16C26.81 17.16 27.37 16.67 27.37 16.04C27.37 15.34 26.88 14.92 26.04 14.92C25.34 14.92 24.64 14.92 23.87 14.92C23.17 14.92 22.82 14.64 22.82 14.08C22.89 13.45 23.31 13.31 23.87 13.31C24.71 13.31 25.55 13.31 26.39 13.31C26.95 13.31 27.3 12.89 27.3 12.33C27.3 11.84 26.88 11.42 26.32 11.42C26.18 11.42 26.11 11.42 25.97 11.42C23.94 11.42 21.91 11.49 19.88 11.49C18.55 11.49 17.57 10.72 17.36 9.46001C17.29 8.90001 17.15 8.34001 17.01 7.78001C16.66 6.52001 16.66 6.52001 15.33 6.52001C14.28 6.52001 13.58 7.01002 13.23 7.92001C13.16 8.13001 13.02 8.41002 12.95 8.62002C12.74 9.39001 12.25 10.02 11.48 10.23C10.43 10.58 9.31 10.79 8.12 11.14C8.19 14.57 8.19 18.21 8.19 21.85ZM1.54 8.48001C1.54 13.66 1.54 18.84 1.54 24.02C3.22 24.02 4.9 24.02 6.58 24.02C6.58 18.84 6.58 13.66 6.58 8.48001C4.9 8.48001 3.29 8.48001 1.54 8.48001ZM16.31 2.11001C16.38 2.32001 16.38 2.39001 16.45 2.46001C17.71 4.56001 18.62 6.87001 19.04 9.25001C19.11 9.74002 19.46 9.74002 19.81 9.74002C20.65 9.74002 21.56 9.67002 22.4 9.67002C22.82 9.67002 22.89 9.53001 22.96 9.18001C23.31 6.94001 24.01 4.77001 24.99 2.67001C25.06 2.53001 25.06 2.39001 25.13 2.18001C24.78 2.18001 24.43 2.25001 24.15 2.18001C23.59 2.11001 23.31 2.32001 23.24 2.88001C23.17 3.51001 23.1 4.14001 23.03 4.84001C23.03 5.33001 22.89 5.68001 22.4 5.75001C21.84 5.82001 21.56 5.54001 21.49 5.05001C21.42 4.49001 21.49 3.93002 21.49 3.37001C21.49 3.02002 21.63 2.60001 21.7 2.25001C20.86 2.25001 20.16 2.25001 19.39 2.25001C19.53 2.53001 19.67 2.74001 19.81 2.88001C20.3 3.72001 20.58 4.56001 20.44 5.54001C20.37 6.03001 20.16 6.38001 19.6 6.38001C19.04 6.38001 18.83 5.96001 18.83 5.40001C18.83 4.07001 18.2 3.02001 17.08 2.32001C17.08 2.25001 16.73 2.25001 16.31 2.11001ZM24.71 8.62002C26.32 8.83002 27.37 7.99002 27.37 6.52001C26.67 6.52001 25.97 6.52001 25.2 6.52001C25.06 7.22002 24.85 7.85001 24.71 8.62002Z" fill="white"/>
<path d="M34.72 50.9C34.93 50.27 35.07 49.85 35.21 49.43C35.35 48.73 35.77 48.45 36.47 48.52C38.43 48.52 40.39 48.52 42.35 48.52C43.4 48.52 43.61 48.73 43.47 49.78C43.19 52.44 42.84 55.03 42.49 57.69C42.28 59.72 42 61.68 41.79 63.71C41.65 64.62 41.51 64.83 40.53 64.83C37.66 64.83 34.79 64.83 31.92 64.83C30.94 64.83 30.66 64.48 30.94 63.5C31.22 62.66 31.43 61.82 31.71 60.98C31.85 60.63 31.78 60.42 31.43 60.28C30.59 59.79 29.75 59.16 28.91 58.74C28.49 58.53 27.93 58.39 27.51 58.46C25.2 58.81 22.89 59.3 20.58 59.65C18.34 60 16.17 59.65 14.28 58.25C10.78 55.8 7.28005 53.42 3.78005 51.04C2.94005 50.48 2.87005 50.06 3.57005 49.29C4.48005 48.17 6.02005 47.75 7.42005 48.31C7.77005 48.45 7.98005 48.38 8.26005 48.17C9.17005 47.47 10.15 47.33 11.27 47.75C11.48 47.82 11.76 47.82 11.97 47.68C13.3 46.98 14.7 46.84 15.89 47.68C17.57 48.8 19.32 49.22 21.28 48.94C22.12 48.8 22.96 48.73 23.73 48.38C27.23 46.77 30.45 47.19 33.32 49.78C33.74 50.2 34.16 50.48 34.72 50.9ZM14.77 52.23C15.12 52.23 15.47 52.16 15.82 52.16C17.5 52.16 19.18 52.16 20.86 52.23C21.42 52.23 21.77 52.44 21.77 53.07C21.77 53.56 21.35 53.84 20.65 53.77C20.16 53.7 19.67 53.63 19.25 53.63C17.64 53.63 16.03 53.7 14.42 53.77C13.79 53.77 13.09 53.91 12.88 53C12.88 52.93 12.74 52.86 12.67 52.86C10.71 51.81 8.82005 50.76 6.86005 49.71C6.23005 49.43 5.60005 49.5 5.04005 49.92C5.25005 50.06 5.46005 50.27 5.67005 50.34C8.82005 52.51 11.97 54.68 15.12 56.85C16.73 57.97 18.55 58.32 20.44 57.97C22.61 57.62 24.78 57.2 26.88 56.78C28 56.57 28.98 56.71 29.96 57.34C30.73 57.83 31.5 58.32 32.27 58.81C32.97 56.57 33.6 54.4 34.23 52.37C33.46 51.74 32.69 51.25 32.06 50.69C29.75 48.73 27.3 48.38 24.57 49.64C23.45 50.2 22.26 50.48 21 50.41C19.67 50.41 18.34 50.41 16.94 50.41C15.89 50.55 15.05 51.18 14.77 52.23ZM41.79 50.06C40.18 50.06 38.64 50.06 37.17 50.06C36.75 50.06 36.54 50.2 36.47 50.62C35.7 53.28 34.86 55.94 34.02 58.67C33.53 60.21 33.11 61.75 32.62 63.29C35.21 63.29 37.66 63.29 40.18 63.29C40.74 58.81 41.3 54.47 41.79 50.06ZM9.45005 49.08C9.45005 49.15 9.45005 49.22 9.38005 49.36C10.64 50.06 11.97 50.76 13.23 51.46C13.37 51.25 13.44 51.04 13.58 50.83C12.53 50.27 11.55 49.71 10.5 49.22C10.22 49.01 9.80005 49.08 9.45005 49.08ZM13.37 48.8C14.49 49.64 14.77 49.78 15.47 49.22C14.77 48.8 14.14 48.52 13.37 48.8Z" fill="white"/>
<path d="M22.26 32.7H19.81C20.23 33.05 20.58 33.54 20.65 34.17H22.26V34.94H20.65C20.51 36.41 19.32 37.39 17.43 37.46C18.55 38.65 19.81 40.19 21.07 41.66H19.67C18.55 40.26 17.43 39 16.03 37.53V36.62H16.87C18.48 36.62 19.32 35.99 19.39 34.94H16.03V34.17H19.32C19.11 33.33 18.34 32.91 17.08 32.91H16.03V32H22.26V32.7Z" fill="white"/>
</g>
<path d="M62.264 29.64H59.324V37.2H58.244V29.64H55.304V28.68H62.264V29.64ZM61.6123 35.388C61.6123 34.988 61.7243 34.644 61.9483 34.356C62.1803 34.06 62.4963 33.832 62.8963 33.672C63.2963 33.512 63.7603 33.432 64.2883 33.432C64.5683 33.432 64.8643 33.456 65.1763 33.504C65.4883 33.544 65.7643 33.608 66.0043 33.696V33.24C66.0043 32.76 65.8603 32.384 65.5723 32.112C65.2843 31.832 64.8763 31.692 64.3483 31.692C64.0043 31.692 63.6723 31.756 63.3523 31.884C63.0403 32.004 62.7083 32.18 62.3563 32.412L61.9723 31.668C62.3803 31.388 62.7883 31.18 63.1963 31.044C63.6043 30.9 64.0283 30.828 64.4683 30.828C65.2683 30.828 65.9003 31.052 66.3643 31.5C66.8283 31.94 67.0603 32.556 67.0603 33.348V36C67.0603 36.128 67.0843 36.224 67.1323 36.288C67.1883 36.344 67.2763 36.376 67.3963 36.384V37.2C67.2923 37.216 67.2003 37.228 67.1203 37.236C67.0483 37.244 66.9883 37.248 66.9403 37.248C66.6923 37.248 66.5043 37.18 66.3763 37.044C66.2563 36.908 66.1883 36.764 66.1723 36.612L66.1483 36.216C65.8763 36.568 65.5203 36.84 65.0803 37.032C64.6403 37.224 64.2043 37.32 63.7723 37.32C63.3563 37.32 62.9843 37.236 62.6563 37.068C62.3283 36.892 62.0723 36.66 61.8883 36.372C61.7043 36.076 61.6123 35.748 61.6123 35.388ZM65.6923 35.832C65.7883 35.72 65.8643 35.608 65.9203 35.496C65.9763 35.376 66.0043 35.276 66.0043 35.196V34.416C65.7563 34.32 65.4963 34.248 65.2243 34.2C64.9523 34.144 64.6843 34.116 64.4203 34.116C63.8843 34.116 63.4483 34.224 63.1123 34.44C62.7843 34.648 62.6203 34.936 62.6203 35.304C62.6203 35.504 62.6723 35.7 62.7763 35.892C62.8883 36.076 63.0483 36.228 63.2563 36.348C63.4723 36.468 63.7363 36.528 64.0483 36.528C64.3763 36.528 64.6883 36.464 64.9843 36.336C65.2803 36.2 65.5163 36.032 65.6923 35.832ZM69.2169 30.936L70.8729 33.24L70.9689 33.432L71.0769 33.24L72.7209 30.936H73.8969L71.5809 34.08L73.9089 37.2H72.7329L71.0769 34.908L70.9689 34.728L70.8729 34.908L69.2169 37.2H68.0409L70.3689 34.08L68.0529 30.936H69.2169ZM84.6444 35.004C84.6444 35.444 84.5324 35.828 84.3084 36.156C84.0844 36.484 83.7804 36.74 83.3964 36.924C83.0204 37.108 82.6044 37.2 82.1484 37.2H78.1044V28.68H82.3404C82.7404 28.68 83.0844 28.788 83.3724 29.004C83.6684 29.212 83.8924 29.484 84.0444 29.82C84.2044 30.148 84.2844 30.492 84.2844 30.852C84.2844 31.268 84.1764 31.66 83.9604 32.028C83.7524 32.388 83.4524 32.656 83.0604 32.832C83.5484 32.976 83.9324 33.244 84.2124 33.636C84.5004 34.02 84.6444 34.476 84.6444 35.004ZM83.5524 34.812C83.5524 34.548 83.4924 34.304 83.3724 34.08C83.2604 33.856 83.1044 33.676 82.9044 33.54C82.7124 33.404 82.4884 33.336 82.2324 33.336H79.1844V36.264H82.1484C82.4124 36.264 82.6484 36.196 82.8564 36.06C83.0724 35.924 83.2404 35.748 83.3604 35.532C83.4884 35.308 83.5524 35.068 83.5524 34.812ZM79.1844 29.616V32.46H81.8964C82.1524 32.46 82.3764 32.396 82.5684 32.268C82.7684 32.14 82.9244 31.968 83.0364 31.752C83.1564 31.536 83.2164 31.3 83.2164 31.044C83.2164 30.772 83.1604 30.532 83.0484 30.324C82.9444 30.108 82.7964 29.936 82.6044 29.808C82.4204 29.68 82.2084 29.616 81.9684 29.616H79.1844ZM88.7591 37.32C88.2871 37.32 87.8551 37.236 87.4631 37.068C87.0791 36.892 86.7431 36.656 86.4551 36.36C86.1751 36.056 85.9551 35.708 85.7951 35.316C85.6431 34.924 85.5671 34.508 85.5671 34.068C85.5671 33.476 85.7031 32.936 85.9751 32.448C86.2471 31.96 86.6231 31.568 87.1031 31.272C87.5911 30.976 88.1471 30.828 88.7711 30.828C89.4031 30.828 89.9511 30.98 90.4151 31.284C90.8871 31.58 91.2511 31.972 91.5071 32.46C91.7711 32.94 91.9031 33.46 91.9031 34.02C91.9031 34.1 91.8991 34.18 91.8911 34.26C91.8911 34.332 91.8871 34.388 91.8791 34.428H86.6831C86.7151 34.836 86.8271 35.2 87.0191 35.52C87.2191 35.832 87.4751 36.08 87.7871 36.264C88.0991 36.44 88.4351 36.528 88.7951 36.528C89.1791 36.528 89.5391 36.432 89.8751 36.24C90.2191 36.048 90.4551 35.796 90.5831 35.484L91.4951 35.736C91.3591 36.04 91.1551 36.312 90.8831 36.552C90.6191 36.792 90.3031 36.98 89.9351 37.116C89.5751 37.252 89.1831 37.32 88.7591 37.32ZM86.6471 33.696H90.9191C90.8871 33.288 90.7711 32.928 90.5711 32.616C90.3711 32.304 90.1151 32.06 89.8031 31.884C89.4911 31.708 89.1471 31.62 88.7711 31.62C88.4031 31.62 88.0631 31.708 87.7511 31.884C87.4391 32.06 87.1831 32.304 86.9831 32.616C86.7911 32.928 86.6791 33.288 86.6471 33.696ZM98.513 37.2H97.457V33.696C97.457 33.032 97.353 32.548 97.145 32.244C96.945 31.932 96.637 31.776 96.221 31.776C95.933 31.776 95.645 31.848 95.357 31.992C95.077 32.136 94.825 32.332 94.601 32.58C94.385 32.82 94.229 33.1 94.133 33.42V37.2H93.077V30.936H94.037V32.28C94.205 31.984 94.421 31.728 94.685 31.512C94.949 31.296 95.249 31.128 95.585 31.008C95.921 30.888 96.273 30.828 96.641 30.828C97.001 30.828 97.301 30.896 97.541 31.032C97.789 31.16 97.981 31.344 98.117 31.584C98.261 31.816 98.361 32.092 98.417 32.412C98.481 32.732 98.513 33.08 98.513 33.456V37.2ZM102.927 37.32C102.455 37.32 102.023 37.236 101.631 37.068C101.247 36.892 100.911 36.656 100.623 36.36C100.343 36.056 100.123 35.708 99.9631 35.316C99.8111 34.924 99.7351 34.508 99.7351 34.068C99.7351 33.476 99.8711 32.936 100.143 32.448C100.415 31.96 100.791 31.568 101.271 31.272C101.759 30.976 102.315 30.828 102.939 30.828C103.571 30.828 104.119 30.98 104.583 31.284C105.055 31.58 105.419 31.972 105.675 32.46C105.939 32.94 106.071 33.46 106.071 34.02C106.071 34.1 106.067 34.18 106.059 34.26C106.059 34.332 106.055 34.388 106.047 34.428H100.851C100.883 34.836 100.995 35.2 101.187 35.52C101.387 35.832 101.643 36.08 101.955 36.264C102.267 36.44 102.603 36.528 102.963 36.528C103.347 36.528 103.707 36.432 104.043 36.24C104.387 36.048 104.623 35.796 104.751 35.484L105.663 35.736C105.527 36.04 105.323 36.312 105.051 36.552C104.787 36.792 104.471 36.98 104.103 37.116C103.743 37.252 103.351 37.32 102.927 37.32ZM100.815 33.696H105.087C105.055 33.288 104.939 32.928 104.739 32.616C104.539 32.304 104.283 32.06 103.971 31.884C103.659 31.708 103.315 31.62 102.939 31.62C102.571 31.62 102.231 31.708 101.919 31.884C101.607 32.06 101.351 32.304 101.151 32.616C100.959 32.928 100.847 33.288 100.815 33.696ZM107.511 31.764H106.659V30.936H107.511V30.804C107.511 30.492 107.559 30.192 107.655 29.904C107.751 29.608 107.895 29.34 108.087 29.1C108.279 28.86 108.519 28.672 108.807 28.536C109.095 28.392 109.435 28.32 109.827 28.32C110.123 28.32 110.395 28.352 110.643 28.416C110.891 28.48 111.111 28.56 111.303 28.656C111.503 28.752 111.667 28.848 111.795 28.944L111.339 29.724C111.187 29.588 110.979 29.472 110.715 29.376C110.459 29.28 110.183 29.232 109.887 29.232C109.583 29.232 109.331 29.308 109.131 29.46C108.939 29.612 108.795 29.808 108.699 30.048C108.611 30.28 108.567 30.52 108.567 30.768V30.936H111.771V37.2H110.715V31.764H108.567V37.2H107.511V31.764ZM116.719 36.888C116.631 36.928 116.511 36.98 116.359 37.044C116.207 37.108 116.031 37.164 115.831 37.212C115.631 37.26 115.419 37.284 115.195 37.284C114.939 37.284 114.703 37.24 114.487 37.152C114.271 37.056 114.099 36.912 113.971 36.72C113.843 36.52 113.779 36.272 113.779 35.976V31.764H112.927V30.936H113.779V28.848H114.835V30.936H116.239V31.764H114.835V35.652C114.851 35.876 114.927 36.044 115.063 36.156C115.199 36.26 115.359 36.312 115.543 36.312C115.751 36.312 115.943 36.276 116.119 36.204C116.295 36.132 116.411 36.08 116.467 36.048L116.719 36.888ZM124.417 37.26C123.737 37.26 123.165 37.144 122.701 36.912C122.237 36.672 121.865 36.352 121.585 35.952C121.305 35.544 121.101 35.084 120.973 34.572C120.845 34.06 120.781 33.532 120.781 32.988V28.68H121.861V32.988C121.861 33.404 121.901 33.812 121.981 34.212C122.069 34.604 122.209 34.956 122.401 35.268C122.593 35.58 122.853 35.828 123.181 36.012C123.509 36.196 123.917 36.288 124.405 36.288C124.901 36.288 125.313 36.196 125.641 36.012C125.969 35.82 126.229 35.568 126.421 35.256C126.613 34.936 126.749 34.58 126.829 34.188C126.917 33.796 126.961 33.396 126.961 32.988V28.68H128.041V32.988C128.041 33.564 127.973 34.112 127.837 34.632C127.709 35.144 127.501 35.596 127.213 35.988C126.925 36.38 126.549 36.692 126.085 36.924C125.629 37.148 125.073 37.26 124.417 37.26ZM135.907 28.68L130.147 37.2H128.971L134.719 28.68H135.907ZM138.76 37.32C138.24 37.32 137.752 37.236 137.296 37.068C136.84 36.892 136.448 36.632 136.12 36.288L136.528 35.544C136.888 35.88 137.248 36.12 137.608 36.264C137.968 36.408 138.336 36.48 138.712 36.48C139.144 36.48 139.496 36.4 139.768 36.24C140.04 36.072 140.176 35.828 140.176 35.508C140.176 35.276 140.104 35.104 139.96 34.992C139.824 34.88 139.628 34.788 139.372 34.716C139.116 34.636 138.812 34.548 138.46 34.452C138.028 34.324 137.664 34.188 137.368 34.044C137.072 33.9 136.848 33.72 136.696 33.504C136.544 33.288 136.468 33.016 136.468 32.688C136.468 32.288 136.572 31.952 136.78 31.68C136.988 31.4 137.272 31.188 137.632 31.044C138 30.9 138.416 30.828 138.88 30.828C139.344 30.828 139.764 30.9 140.14 31.044C140.516 31.188 140.84 31.4 141.112 31.68L140.632 32.412C140.384 32.156 140.112 31.968 139.816 31.848C139.52 31.72 139.188 31.656 138.82 31.656C138.604 31.656 138.392 31.684 138.184 31.74C137.976 31.788 137.804 31.88 137.668 32.016C137.532 32.144 137.464 32.328 137.464 32.568C137.464 32.768 137.516 32.928 137.62 33.048C137.732 33.16 137.892 33.256 138.1 33.336C138.316 33.416 138.576 33.504 138.88 33.6C139.352 33.736 139.76 33.872 140.104 34.008C140.456 34.144 140.728 34.32 140.92 34.536C141.112 34.752 141.208 35.052 141.208 35.436C141.208 36.028 140.984 36.492 140.536 36.828C140.088 37.156 139.496 37.32 138.76 37.32ZM151.243 34.788C151.243 35.292 151.103 35.732 150.823 36.108C150.551 36.484 150.183 36.776 149.719 36.984C149.263 37.192 148.763 37.296 148.219 37.296C147.651 37.296 147.143 37.184 146.695 36.96C146.247 36.728 145.891 36.42 145.627 36.036C145.371 35.652 145.243 35.22 145.243 34.74C145.243 34.388 145.323 34.072 145.483 33.792C145.643 33.512 145.843 33.276 146.083 33.084C146.331 32.884 146.583 32.736 146.839 32.64C146.607 32.536 146.391 32.4 146.191 32.232C145.991 32.064 145.831 31.868 145.711 31.644C145.591 31.42 145.531 31.176 145.531 30.912C145.531 30.552 145.611 30.236 145.771 29.964C145.931 29.684 146.143 29.448 146.407 29.256C146.671 29.064 146.963 28.92 147.283 28.824C147.603 28.728 147.923 28.68 148.243 28.68C148.563 28.68 148.883 28.728 149.203 28.824C149.523 28.92 149.815 29.064 150.079 29.256C150.351 29.44 150.567 29.672 150.727 29.952C150.887 30.224 150.967 30.54 150.967 30.9C150.967 31.164 150.907 31.412 150.787 31.644C150.667 31.868 150.503 32.064 150.295 32.232C150.095 32.4 149.875 32.536 149.635 32.64C149.923 32.752 150.187 32.912 150.427 33.12C150.675 33.32 150.871 33.56 151.015 33.84C151.167 34.12 151.243 34.436 151.243 34.788ZM150.175 34.716C150.175 34.46 150.119 34.232 150.007 34.032C149.895 33.824 149.743 33.652 149.551 33.516C149.359 33.372 149.147 33.264 148.915 33.192C148.691 33.12 148.463 33.084 148.231 33.084C147.911 33.084 147.603 33.152 147.307 33.288C147.019 33.424 146.783 33.616 146.599 33.864C146.415 34.104 146.323 34.392 146.323 34.728C146.323 34.976 146.379 35.2 146.491 35.4C146.603 35.6 146.751 35.772 146.935 35.916C147.127 36.06 147.335 36.168 147.559 36.24C147.791 36.312 148.023 36.348 148.255 36.348C148.575 36.348 148.879 36.28 149.167 36.144C149.463 36.008 149.703 35.816 149.887 35.568C150.079 35.32 150.175 35.036 150.175 34.716ZM146.599 30.948C146.599 31.228 146.683 31.468 146.851 31.668C147.019 31.868 147.231 32.02 147.487 32.124C147.743 32.22 147.995 32.268 148.243 32.268C148.499 32.268 148.751 32.216 148.999 32.112C149.255 32.008 149.467 31.856 149.635 31.656C149.803 31.456 149.887 31.212 149.887 30.924C149.887 30.652 149.807 30.42 149.647 30.228C149.495 30.036 149.291 29.888 149.035 29.784C148.787 29.68 148.519 29.628 148.231 29.628C147.951 29.628 147.683 29.684 147.427 29.796C147.179 29.9 146.979 30.052 146.827 30.252C146.675 30.444 146.599 30.676 146.599 30.948ZM158.547 33.684C158.547 34.388 158.415 35.016 158.151 35.568C157.887 36.112 157.527 36.54 157.071 36.852C156.615 37.164 156.095 37.32 155.511 37.32C154.927 37.32 154.407 37.164 153.951 36.852C153.495 36.54 153.135 36.112 152.871 35.568C152.607 35.016 152.475 34.388 152.475 33.684C152.475 32.98 152.607 32.356 152.871 31.812C153.135 31.26 153.495 30.828 153.951 30.516C154.407 30.196 154.927 30.036 155.511 30.036C156.095 30.036 156.615 30.196 157.071 30.516C157.527 30.828 157.887 31.26 158.151 31.812C158.415 32.356 158.547 32.98 158.547 33.684ZM157.479 33.684C157.479 33.156 157.395 32.692 157.227 32.292C157.059 31.892 156.827 31.58 156.531 31.356C156.235 31.132 155.895 31.02 155.511 31.02C155.119 31.02 154.775 31.132 154.479 31.356C154.183 31.58 153.951 31.892 153.783 32.292C153.615 32.692 153.531 33.156 153.531 33.684C153.531 34.212 153.615 34.676 153.783 35.076C153.951 35.468 154.183 35.776 154.479 36C154.775 36.224 155.119 36.336 155.511 36.336C155.895 36.336 156.235 36.224 156.531 36C156.827 35.776 157.059 35.468 157.227 35.076C157.395 34.676 157.479 34.212 157.479 33.684ZM162.737 33.048C162.737 32.232 162.901 31.432 163.229 30.648C163.565 29.864 163.969 29.072 164.441 28.272L165.257 28.632C165.105 28.856 164.941 29.14 164.765 29.484C164.589 29.828 164.421 30.204 164.261 30.612C164.101 31.02 163.969 31.436 163.865 31.86C163.769 32.284 163.721 32.692 163.721 33.084C163.721 33.716 163.857 34.396 164.129 35.124C164.401 35.844 164.769 36.568 165.233 37.296L164.453 37.704C164.117 37.2 163.817 36.692 163.553 36.18C163.297 35.66 163.097 35.136 162.953 34.608C162.809 34.08 162.737 33.56 162.737 33.048ZM172.435 36.24V37.2H166.651V28.68H172.327V29.64H167.731V32.4H171.727V33.3H167.731V36.24H172.435ZM175.789 33.048C175.789 33.56 175.717 34.08 175.573 34.608C175.429 35.136 175.225 35.66 174.961 36.18C174.705 36.692 174.409 37.2 174.073 37.704L173.293 37.296C173.757 36.568 174.125 35.844 174.397 35.124C174.669 34.396 174.805 33.716 174.805 33.084C174.805 32.692 174.753 32.284 174.649 31.86C174.553 31.436 174.425 31.02 174.265 30.612C174.105 30.204 173.937 29.828 173.761 29.484C173.585 29.14 173.421 28.856 173.269 28.632L174.085 28.272C174.557 29.072 174.957 29.864 175.285 30.648C175.621 31.432 175.789 32.232 175.789 33.048Z" fill="white"/>
<defs>
<clipPath id="clip0_483_2855">
<rect width="44.1" height="64.4" fill="white" transform="translate(0 0.5)"/>
</clipPath>
</defs>
</svg>
