<?xml version="1.0" encoding="utf-8"?>
<!-- Generator: Adobe Illustrator 24.3.0, SVG Export Plug-In . SVG Version: 6.00 Build 0)  -->
<svg version="1.1" xmlns="http://www.w3.org/2000/svg" xmlns:xlink="http://www.w3.org/1999/xlink" x="0px" y="0px"
	 viewBox="0 0 435.54 435.54" style="enable-background:new 0 0 435.54 435.54;" xml:space="preserve">
<style type="text/css">
	.st0{fill:#92E3A9;}
	.st1{opacity:0.7;fill:#FFFFFF;}
	.st2{fill:none;stroke:#263238;stroke-linecap:round;stroke-linejoin:round;stroke-miterlimit:10;}
	.st3{fill:#FFFFFF;stroke:#263238;stroke-linecap:round;stroke-linejoin:round;stroke-miterlimit:10;}
	.st4{fill:#92E3A9;stroke:#263238;stroke-linecap:round;stroke-linejoin:round;stroke-miterlimit:10;}
	.st5{fill:#BFBFBF;stroke:#263238;stroke-linecap:round;stroke-linejoin:round;stroke-miterlimit:10;}
	.st6{opacity:0.3;fill-opacity:0.7;}
	.st7{fill:#263238;}
	.st8{fill:none;stroke:#FFFFFF;stroke-linecap:round;stroke-linejoin:round;stroke-miterlimit:10;}
	.st9{fill:#263238;stroke:#263238;stroke-linecap:round;stroke-linejoin:round;stroke-miterlimit:10;}
	.st10{fill:#757575;stroke:#263238;stroke-linecap:round;stroke-linejoin:round;stroke-miterlimit:10;}
	.st11{fill:#999999;stroke:#263238;stroke-linecap:round;stroke-linejoin:round;stroke-miterlimit:10;}
	.st12{fill:#BFBFBF;stroke:#263238;stroke-miterlimit:10;}
	.st13{opacity:0.3;clip-path:url(#XMLID_13_);fill-opacity:0.7;}
	.st14{opacity:0.3;clip-path:url(#XMLID_14_);fill-opacity:0.7;}
	.st15{opacity:0.3;clip-path:url(#XMLID_15_);fill-opacity:0.7;}
	.st16{opacity:0.3;clip-path:url(#XMLID_16_);fill-opacity:0.7;}
	.st17{opacity:0.3;clip-path:url(#XMLID_19_);fill-opacity:0.7;}
	.st18{opacity:0.3;clip-path:url(#XMLID_20_);fill-opacity:0.7;}
	
		.st19{opacity:0.5;clip-path:url(#XMLID_21_);fill:#FFFFFF;stroke:#263238;stroke-linecap:round;stroke-linejoin:round;stroke-miterlimit:10;}
	
		.st20{opacity:0.5;clip-path:url(#XMLID_22_);fill:#FFFFFF;stroke:#263238;stroke-linecap:round;stroke-linejoin:round;stroke-miterlimit:10;}
	
		.st21{opacity:0.5;clip-path:url(#XMLID_23_);fill:#FFFFFF;stroke:#263238;stroke-linecap:round;stroke-linejoin:round;stroke-miterlimit:10;}
	.st22{opacity:0.4;clip-path:url(#XMLID_24_);fill:#757575;}
	.st23{opacity:0.4;clip-path:url(#XMLID_24_);fill:#FFFFFF;}
	.st24{clip-path:url(#XMLID_24_);fill:none;stroke:#263238;stroke-linecap:round;stroke-linejoin:round;stroke-miterlimit:10;}
</style>
<g id="Background_Simple_1_">
	<g>
		<path class="st0" d="M25.73,415.83h211.21c0.86-1.36,1.72-2.72,2.59-4.05c22.72-34.59,59.1-59.24,98.83-70.81
			c17.8-5.18,37.08-8.26,51.38-20.06c14.72-12.14,21.48-31.5,24.4-50.34c3.54-22.82,1.63-48.4-13.86-65.54
			c-18.19-20.12-48.67-22.37-72.37-35.56c-40.79-22.7-56.6-74.39-93.71-102.71c-23.43-17.88-55.09-24.81-83.4-20.89
			c-40.19,5.56-78.01,32.5-89.36,71.96c-3.15,10.95-4.41,22.83-3.44,35.41c1.82,23.55,6.88,47.4,2.1,70.53
			c-5.27,25.49-21.85,47.02-31.76,71.09c-12.34,29.97-14.04,63.6-8.76,95.58C20.99,399,22.97,407.58,25.73,415.83z"/>
		<path class="st1" d="M25.73,415.83h211.21c0.86-1.36,1.72-2.72,2.59-4.05c22.72-34.59,59.1-59.24,98.83-70.81
			c17.8-5.18,37.08-8.26,51.38-20.06c14.72-12.14,21.48-31.5,24.4-50.34c3.54-22.82,1.63-48.4-13.86-65.54
			c-18.19-20.12-48.67-22.37-72.37-35.56c-40.79-22.7-56.6-74.39-93.71-102.71c-23.43-17.88-55.09-24.81-83.4-20.89
			c-40.19,5.56-78.01,32.5-89.36,71.96c-3.15,10.95-4.41,22.83-3.44,35.41c1.82,23.55,6.88,47.4,2.1,70.53
			c-5.27,25.49-21.85,47.02-31.76,71.09c-12.34,29.97-14.04,63.6-8.76,95.58C20.99,399,22.97,407.58,25.73,415.83z"/>
	</g>
</g>
<g id="Window">
	<g>
		<g>
			<polyline class="st2" points="243.98,91.1 243.98,75.43 400.8,75.43 400.8,232.24 257.6,232.24 			"/>
			<line class="st2" x1="243.98" y1="232.24" x2="243.98" y2="99.05"/>
			<g>
				<polyline class="st2" points="251.48,132.67 251.48,83.03 320.1,83.03 320.1,151.65 251.48,151.65 251.48,136.76 				"/>
				<polyline class="st2" points="393.3,126.82 393.3,151.65 324.68,151.65 324.68,83.03 393.3,83.03 393.3,119.56 				"/>
				<polyline class="st2" points="320.1,156.03 320.1,224.65 251.48,224.65 251.48,156.03 315.03,156.03 				"/>
				<polyline class="st2" points="343.3,224.65 324.68,224.65 324.68,156.03 393.3,156.03 393.3,224.65 353.1,224.65 				"/>
			</g>
		</g>
	</g>
</g>
<g id="Lamp">
	<line class="st2" x1="79.07" y1="69.28" x2="79.07" y2="73.19"/>
	<line class="st2" x1="79.27" y1="43.98" x2="79.07" y2="66.98"/>
	<line class="st2" x1="79.07" y1="28.54" x2="79.25" y2="41.35"/>
	<path class="st2" d="M92.92,95.67h4.37c-7.31-27.3-29.12-27.3-36.43,0h19.4"/>
	<line class="st2" x1="86.39" y1="95.67" x2="89.21" y2="95.67"/>
	<line class="st2" x1="79.07" y1="100.71" x2="79.07" y2="108.03"/>
	<line class="st2" x1="87.8" y1="100.71" x2="90.14" y2="105.85"/>
	<line class="st2" x1="70.17" y1="100.71" x2="67.8" y2="105.85"/>
</g>
<g id="Floor">
	<line class="st2" x1="2.16" y1="416.21" x2="428.08" y2="416.21"/>
</g>
<g id="Interface_2">
	<g>
		<polygon class="st3" points="207.56,231.6 207.56,352.13 191.13,368.55 104.54,368.55 104.54,231.6 		"/>
		<rect x="104.54" y="231.6" class="st4" width="103.01" height="11.67"/>
		<polygon class="st5" points="207.63,352.06 191.13,368.55 191.13,352.06 		"/>
		<g>
			<path class="st6" d="M156.05,240.07l1.14,3.86c0,0-2.9,1.95-1.14,3.36c1.76,1.41,1.76,1.41,1.76,1.41s-1.19,4.13,0.79,5.22
				c1.98,1.09,8.51-0.32,10.09-2.77c1.58-2.45-3.87-4.94-3.87-4.94s1.6-2.01,0.71-2.93c-0.89-0.93-4.05-0.53-4.05-0.53l-2.18-3.66
				L156.05,240.07z"/>
			<ellipse class="st7" cx="157.19" cy="230.8" rx="7.34" ry="6.88"/>
			<path class="st7" d="M163.96,236.59c0,2.76-3.03,4.99-6.77,4.99c-3.74,0-6.77-2.23-6.77-4.99c0-2.76,3.03-4.99,6.77-4.99
				C160.93,231.6,163.96,233.83,163.96,236.59z"/>
			<path class="st8" d="M161.24,235.34c1.37-1,1.92-2.24,1.92-2.24"/>
			<path class="st8" d="M151.38,233.4c0,0,1.83,3.19,5.8,3.19"/>
		</g>
		<rect x="110.52" y="260.07" class="st9" width="91.06" height="55.39"/>
		<polygon class="st4" points="144.53,277.99 144.53,301.05 169.85,289.52 		"/>
		<path class="st7" d="M143.38,251.55h-32.14c-0.38,0-0.69,0.31-0.69,0.69c0,0.38,0.31,0.69,0.69,0.69h32.14
			c0.38,0,0.69-0.31,0.69-0.69C144.07,251.86,143.76,251.55,143.38,251.55z"/>
		<g>
			<path class="st7" d="M200.38,334.55h-89.14c-0.38,0-0.69,0.31-0.69,0.69c0,0.38,0.31,0.69,0.69,0.69h89.14
				c0.38,0,0.69-0.31,0.69-0.69C201.07,334.86,200.76,334.55,200.38,334.55z"/>
			<path class="st7" d="M200.38,340.55h-89.14c-0.38,0-0.69,0.31-0.69,0.69c0,0.38,0.31,0.69,0.69,0.69h89.14
				c0.38,0,0.69-0.31,0.69-0.69C201.07,340.86,200.76,340.55,200.38,340.55z"/>
			<path class="st7" d="M200.38,346.55h-89.14c-0.38,0-0.69,0.31-0.69,0.69c0,0.38,0.31,0.69,0.69,0.69h89.14
				c0.38,0,0.69-0.31,0.69-0.69C201.07,346.86,200.76,346.55,200.38,346.55z"/>
			<path class="st7" d="M180.38,352.55h-69.14c-0.38,0-0.69,0.31-0.69,0.69c0,0.38,0.31,0.69,0.69,0.69h69.14
				c0.38,0,0.69-0.31,0.69-0.69C181.07,352.86,180.76,352.55,180.38,352.55z"/>
			<path class="st7" d="M200.38,328.55h-89.14c-0.38,0-0.69,0.31-0.69,0.69c0,0.38,0.31,0.69,0.69,0.69h89.14
				c0.38,0,0.69-0.31,0.69-0.69C201.07,328.86,200.76,328.55,200.38,328.55z"/>
		</g>
		<path class="st7" d="M143.38,321.55h-32.14c-0.38,0-0.69,0.31-0.69,0.69c0,0.38,0.31,0.69,0.69,0.69h32.14
			c0.38,0,0.69-0.31,0.69-0.69C144.07,321.86,143.76,321.55,143.38,321.55z"/>
		<rect x="110.52" y="311.65" class="st5" width="91.06" height="3.8"/>
		<rect x="110.52" y="311.65" class="st4" width="49.61" height="3.8"/>
	</g>
</g>
<g id="Interface_1">
	<g>
		<polygon class="st3" points="133.1,132.18 133.1,252.71 116.68,269.13 30.09,269.13 30.09,132.18 		"/>
		<path class="st7" d="M72.66,150.66H36.87c-0.43,0-0.77,0.34-0.77,0.77c0,0.43,0.34,0.77,0.77,0.77h35.79
			c0.43,0,0.77-0.34,0.77-0.77C73.43,151,73.08,150.66,72.66,150.66z"/>
		<g>
			<path class="st7" d="M94.01,189.72H62.62c-0.43,0-0.77,0.34-0.77,0.77c0,0.43,0.34,0.77,0.77,0.77h31.39
				c0.43,0,0.77-0.34,0.77-0.77C94.78,190.06,94.44,189.72,94.01,189.72z"/>
			<path class="st7" d="M94.01,195.09h-31.8c-0.43,0-0.77,0.34-0.77,0.77s0.34,0.77,0.77,0.77h31.8c0.43,0,0.77-0.34,0.77-0.77
				S94.44,195.09,94.01,195.09z"/>
			<path class="st7" d="M94.01,200.45h-31.8c-0.43,0-0.77,0.34-0.77,0.77c0,0.43,0.34,0.77,0.77,0.77h31.8
				c0.43,0,0.77-0.34,0.77-0.77C94.78,200.8,94.44,200.45,94.01,200.45z"/>
			<path class="st7" d="M83.88,205.82H62.21c-0.43,0-0.77,0.34-0.77,0.77s0.34,0.77,0.77,0.77h21.68c0.43,0,0.77-0.34,0.77-0.77
				S84.31,205.82,83.88,205.82z"/>
			<path class="st7" d="M94.01,214.54H49.62c-0.43,0-0.77,0.34-0.77,0.77s0.34,0.77,0.77,0.77h44.39c0.43,0,0.77-0.34,0.77-0.77
				S94.44,214.54,94.01,214.54z"/>
			<path class="st7" d="M94.01,219.91h-57.8c-0.43,0-0.77,0.34-0.77,0.77c0,0.43,0.34,0.77,0.77,0.77h57.8
				c0.43,0,0.77-0.34,0.77-0.77C94.78,220.25,94.44,219.91,94.01,219.91z"/>
			<path class="st7" d="M94.01,225.27h-57.8c-0.43,0-0.77,0.34-0.77,0.77s0.34,0.77,0.77,0.77h57.8c0.43,0,0.77-0.34,0.77-0.77
				S94.44,225.27,94.01,225.27z"/>
			<path class="st7" d="M94.01,230.64h-57.8c-0.43,0-0.77,0.34-0.77,0.77c0,0.43,0.34,0.77,0.77,0.77h57.8
				c0.43,0,0.77-0.34,0.77-0.77C94.78,230.99,94.44,230.64,94.01,230.64z"/>
			<path class="st7" d="M74.01,236.01h-37.8c-0.43,0-0.77,0.34-0.77,0.77s0.34,0.77,0.77,0.77h37.8c0.43,0,0.77-0.34,0.77-0.77
				S74.44,236.01,74.01,236.01z"/>
			<path class="st7" d="M94.01,244.54H49.62c-0.43,0-0.77,0.34-0.77,0.77s0.34,0.77,0.77,0.77h44.39c0.43,0,0.77-0.34,0.77-0.77
				S94.44,244.54,94.01,244.54z"/>
			<path class="st7" d="M94.01,249.91h-57.8c-0.43,0-0.77,0.34-0.77,0.77c0,0.43,0.34,0.77,0.77,0.77h57.8
				c0.43,0,0.77-0.34,0.77-0.77C94.78,250.25,94.44,249.91,94.01,249.91z"/>
			<path class="st7" d="M74.01,255.27h-37.8c-0.43,0-0.77,0.34-0.77,0.77c0,0.43,0.34,0.77,0.77,0.77h37.8
				c0.43,0,0.77-0.34,0.77-0.77C74.78,255.62,74.44,255.27,74.01,255.27z"/>
		</g>
		<rect x="30.09" y="132.18" class="st4" width="103.01" height="11.67"/>
		<g>
			<path class="st6" d="M81.59,140.65l1.14,3.86c0,0-2.9,1.95-1.14,3.36c1.76,1.41,1.76,1.41,1.76,1.41s-1.19,4.13,0.79,5.22
				c1.98,1.09,8.51-0.32,10.09-2.77c1.58-2.45-3.87-4.95-3.87-4.95s1.6-2.01,0.71-2.93c-0.89-0.93-4.06-0.53-4.06-0.53l-2.18-3.66
				L81.59,140.65z"/>
			<path class="st7" d="M90.08,131.38c0,3.8-3.29,6.88-7.34,6.88c-4.06,0-7.34-3.08-7.34-6.88c0-3.8,3.29-6.88,7.34-6.88
				C86.79,124.5,90.08,127.58,90.08,131.38z"/>
			<ellipse class="st7" cx="82.73" cy="137.17" rx="6.77" ry="4.99"/>
			<path class="st8" d="M86.78,135.92c1.37-1,1.92-2.24,1.92-2.24"/>
			<path class="st8" d="M76.93,133.97c0,0,1.83,3.19,5.8,3.19"/>
		</g>
		<line class="st2" x1="101.89" y1="147.26" x2="101.89" y2="266.05"/>
		<g>
			<path class="st7" d="M126.76,150.66h-19.39c-0.43,0-0.77,0.34-0.77,0.77c0,0.43,0.34,0.77,0.77,0.77h19.39
				c0.43,0,0.77-0.34,0.77-0.77C127.53,151,127.19,150.66,126.76,150.66z"/>
			<path class="st7" d="M126.76,158.66h-19.39c-0.43,0-0.77,0.34-0.77,0.77c0,0.43,0.34,0.77,0.77,0.77h19.39
				c0.43,0,0.77-0.34,0.77-0.77C127.53,159,127.19,158.66,126.76,158.66z"/>
			<path class="st7" d="M126.76,166.61h-19.39c-0.43,0-0.77,0.34-0.77,0.77c0,0.43,0.34,0.77,0.77,0.77h19.39
				c0.43,0,0.77-0.34,0.77-0.77C127.53,166.95,127.19,166.61,126.76,166.61z"/>
			<path class="st7" d="M126.76,174.56h-19.39c-0.43,0-0.77,0.34-0.77,0.77s0.34,0.77,0.77,0.77h19.39c0.43,0,0.77-0.34,0.77-0.77
				S127.19,174.56,126.76,174.56z"/>
			<path class="st7" d="M126.76,182.51h-19.39c-0.43,0-0.77,0.34-0.77,0.77c0,0.43,0.34,0.77,0.77,0.77h19.39
				c0.43,0,0.77-0.34,0.77-0.77C127.53,182.85,127.19,182.51,126.76,182.51z"/>
			<path class="st7" d="M126.76,190.46h-19.39c-0.43,0-0.77,0.34-0.77,0.77s0.34,0.77,0.77,0.77h19.39c0.43,0,0.77-0.34,0.77-0.77
				S127.19,190.46,126.76,190.46z"/>
			<path class="st7" d="M126.76,198.41h-19.39c-0.43,0-0.77,0.34-0.77,0.77c0,0.43,0.34,0.77,0.77,0.77h19.39
				c0.43,0,0.77-0.34,0.77-0.77C127.53,198.76,127.19,198.41,126.76,198.41z"/>
			<path class="st7" d="M126.76,206.36h-19.39c-0.43,0-0.77,0.34-0.77,0.77s0.34,0.77,0.77,0.77h19.39c0.43,0,0.77-0.34,0.77-0.77
				S127.19,206.36,126.76,206.36z"/>
			<path class="st7" d="M126.76,214.31h-19.39c-0.43,0-0.77,0.34-0.77,0.77c0,0.43,0.34,0.77,0.77,0.77h19.39
				c0.43,0,0.77-0.34,0.77-0.77C127.53,214.66,127.19,214.31,126.76,214.31z"/>
			<path class="st7" d="M126.76,222.26h-19.39c-0.43,0-0.77,0.34-0.77,0.77c0,0.43,0.34,0.77,0.77,0.77h19.39
				c0.43,0,0.77-0.34,0.77-0.77C127.53,222.61,127.19,222.26,126.76,222.26z"/>
			<path class="st7" d="M126.76,230.21h-19.39c-0.43,0-0.77,0.34-0.77,0.77s0.34,0.77,0.77,0.77h19.39c0.43,0,0.77-0.34,0.77-0.77
				S127.19,230.21,126.76,230.21z"/>
			<path class="st7" d="M126.76,238.16h-19.39c-0.43,0-0.77,0.34-0.77,0.77c0,0.43,0.34,0.77,0.77,0.77h19.39
				c0.43,0,0.77-0.34,0.77-0.77C127.53,238.51,127.19,238.16,126.76,238.16z"/>
			<path class="st7" d="M126.76,246.11h-19.39c-0.43,0-0.77,0.34-0.77,0.77s0.34,0.77,0.77,0.77h19.39c0.43,0,0.77-0.34,0.77-0.77
				S127.19,246.11,126.76,246.11z"/>
			<path class="st7" d="M126.76,254.07h-19.39c-0.43,0-0.77,0.34-0.77,0.77c0,0.43,0.34,0.77,0.77,0.77h19.39
				c0.43,0,0.77-0.34,0.77-0.77C127.53,254.41,127.19,254.07,126.76,254.07z"/>
		</g>
		<polygon class="st5" points="133.17,252.64 116.68,269.13 116.68,252.64 		"/>
		<rect x="35.74" y="157.54" class="st10" width="60.35" height="25.74"/>
		<polygon class="st11" points="35.74,173.19 37.63,170.41 38.68,171.14 40.79,167.38 42.55,171.87 43.69,171.14 45.94,176.1 
			48.31,170.41 49.5,171.74 52.79,163.17 55.05,169.63 56.22,169.63 58.07,173.58 59.71,170.41 61.5,175.33 65.91,166.07 
			68.35,171.14 69.14,169.63 69.94,170.41 73.43,161.58 78.38,175.28 81.02,170.69 81.59,172.79 84.05,168.15 86.02,171.74 
			87.74,168.84 90.08,173.06 93.67,164.75 94.78,166.61 96.09,163.01 96.09,183.28 35.74,183.28 		"/>
		<g>
			<path class="st3" d="M56.62,198.31v0.08c-0.04,5.38-4.43,9.74-9.83,9.74c-2.14,0-4.11-0.68-5.72-1.85
				c-2.48-1.77-4.1-4.69-4.1-7.97c0-5.43,4.4-9.83,9.82-9.83c1.77,0,3.44,0.47,4.87,1.3c1.22,0.69,2.28,1.64,3.1,2.78
				c0.67,0.91,1.17,1.95,1.48,3.06C56.49,196.47,56.62,197.37,56.62,198.31z"/>
			<path class="st12" d="M56.62,198.31c0,5.42-4.4,9.82-9.83,9.82c-2.14,0-4.11-0.68-5.72-1.85l5.72-7.97l9.45-2.69
				C56.49,196.47,56.62,197.37,56.62,198.31z"/>
			<path class="st11" d="M56.62,198.31v0.08l-9.83-0.08l4.87-8.53c2.21,1.25,3.88,3.34,4.58,5.84
				C56.49,196.47,56.62,197.37,56.62,198.31z"/>
			<path class="st10" d="M54.76,192.56v0.02l-7.97,5.73v-9.83c1.77,0,3.44,0.47,4.87,1.3C52.88,190.47,53.94,191.42,54.76,192.56z"
				/>
		</g>
	</g>
</g>
<g id="Character">
	<g>
		<g>
			<g>
				<defs>
					<path id="XMLID_9_" d="M395.54,423.86c0,0-1.35,0.7-5.61,0.7c-3.85,0-5.62-0.7-5.62-0.7l-5.35-52.53l-4.65-45.68h11.23
						l4.61,45.23L395.54,423.86z"/>
				</defs>
				<use xlink:href="#XMLID_9_"  style="overflow:visible;fill:#999999;"/>
				<clipPath id="XMLID_13_">
					<use xlink:href="#XMLID_9_"  style="overflow:visible;"/>
				</clipPath>
				<path class="st13" d="M390.15,370.88c-3.79,0.31-7.52,0.46-11.19,0.45l-4.65-45.68h11.23L390.15,370.88z"/>
				
					<use xlink:href="#XMLID_9_"  style="overflow:visible;fill:none;stroke:#263238;stroke-linecap:round;stroke-linejoin:round;stroke-miterlimit:10;"/>
			</g>
			<g>
				<defs>
					<path id="XMLID_8_" d="M312.54,325.65l-2.99,29.32l-7.01,68.89c0,0-1.35,0.7-5.61,0.7c-3.85,0-5.62-0.7-5.62-0.7l7.57-74.35
						l2.43-23.86H312.54z"/>
				</defs>
				<use xlink:href="#XMLID_8_"  style="overflow:visible;fill:#999999;"/>
				<clipPath id="XMLID_14_">
					<use xlink:href="#XMLID_8_"  style="overflow:visible;"/>
				</clipPath>
				<path class="st14" d="M301.31,325.65h11.23l-2.99,29.32c-3.98-1.88-7.56-3.74-10.67-5.46L301.31,325.65z"/>
				
					<use xlink:href="#XMLID_8_"  style="overflow:visible;fill:none;stroke:#263238;stroke-linecap:round;stroke-linejoin:round;stroke-miterlimit:10;"/>
			</g>
			<g>
				<defs>
					<path id="XMLID_7_" d="M349.04,325.65v98.21c0,0-1.35,0.7-5.61,0.7c-3.85,0-5.62-0.7-5.62-0.7v-98.21H349.04z"/>
				</defs>
				<use xlink:href="#XMLID_7_"  style="overflow:visible;fill:#999999;"/>
				<clipPath id="XMLID_15_">
					<use xlink:href="#XMLID_7_"  style="overflow:visible;"/>
				</clipPath>
				<path class="st15" d="M349.04,325.65V342c-4.01-0.31-7.91-0.07-11.23,0.37v-16.72H349.04z"/>
				
					<use xlink:href="#XMLID_7_"  style="overflow:visible;fill:none;stroke:#263238;stroke-linecap:round;stroke-linejoin:round;stroke-miterlimit:10;"/>
			</g>
		</g>
		<g>
			<g>
				<defs>
					<path id="XMLID_6_" d="M390.97,311.49v15.38c0,1.29-1.05,2.48-2.35,2.64c-30.02,3.61-60.37,3.61-90.39,0
						c-1.3-0.16-2.35-1.35-2.35-2.64v-15.38c0-1.29,1.05-2.48,2.35-2.64c30.02-3.6,60.37-3.6,90.39,0
						C389.92,309.01,390.97,310.2,390.97,311.49z"/>
				</defs>
				<use xlink:href="#XMLID_6_"  style="overflow:visible;fill:#BFBFBF;"/>
				<clipPath id="XMLID_16_">
					<use xlink:href="#XMLID_6_"  style="overflow:visible;"/>
				</clipPath>
				<path class="st16" d="M390.97,311.49v8.64c-9.01,3.56-23.28,3.15-38.25,2.67c-24.51-0.77-26.13-5.55-35.55-4.38
					c-4.25,0.53-13.27,0.4-21.29-0.53v-6.4c0-1.29,1.05-2.48,2.35-2.64c30.02-3.6,60.37-3.6,90.39,0
					C389.92,309.01,390.97,310.2,390.97,311.49z"/>
			</g>
			<path class="st2" d="M388.62,329.51c-30.02,3.6-60.37,3.6-90.4,0c-1.3-0.16-2.34-1.35-2.34-2.64c0-5.13,0-10.25,0-15.38
				c0-1.29,1.05-2.48,2.34-2.64c30.02-3.6,60.37-3.6,90.4,0c1.3,0.16,2.34,1.35,2.34,2.64c0,5.13,0,10.25,0,15.38
				C390.97,328.16,389.92,329.35,388.62,329.51z"/>
		</g>
	</g>
	<g>
		<path class="st3" d="M329.72,181.65l-31.09,32.33c-7.94-7.78-29.4-32.65-29.4-32.65l-7.55,10.94c0,0,11.6,19.4,18.46,30.69
			c6.86,11.29,15.3,16.08,15.56,16.58c0.26,0.5,34.02-24.05,34.02-24.05V181.65z"/>
		<path class="st3" d="M264.54,192.27c0,0-5.67,1.21-8.2-1.8c-2.53-3.02-13.15-10.29-13.15-10.29l5.91-19.78l16.48,12.98l3.89,9.79"
			/>
		<path class="st7" d="M329.72,178.33c-5.54-0.13-23.74,24.48-23.74,24.48l-1.98,1.6c0,0,5.31,18.83,11.59,24.62l5.88-2.86h3.48
			L329.72,178.33z"/>
		<path class="st3" d="M408.56,222.96c0,0,5.58,30.33,4.37,35.08c-1.21,4.75-2.79,11.87-10.04,11.87c-7.25,0-9.11-25.06-9.11-25.06
			l-3.94-11.87L408.56,222.96z"/>
		<g>
			<path class="st7" d="M289.88,402.36c0,0,5.54,14.77,3.69,24.53c0,0-19.25,1.05-21.89,1.32c-2.64,0.26-13.74,3.69-15.97,3.16
				c-2.23-0.53-10.93-1.58-10.93-1.58s-1.32-6.86,1.85-8.18c3.16-1.32,21.47-3.16,25.43-17.67L289.88,402.36z"/>
			<path class="st8" d="M277.06,415.02c0,0-2.08-3.43-7.1-3.43"/>
			<path class="st8" d="M274.19,417.92c0,0-2.9-3.16-7.65-3.43"/>
			<path class="st8" d="M268.52,420.96c0,0-2.69-2.94-6.2-3.03"/>
		</g>
		<g>
			<path class="st7" d="M320.15,410.54l-3.32,8.23c0,0-6.69,3.64-8.01,4.96c-1.32,1.32-1.32,7.7-1.32,7.7s10.59,2.85,23.25,1.44
				c6.3-0.7,12.21-2.55,12.21-2.55l-1.86-16.62L320.15,410.54z"/>
			<path class="st8" d="M333.66,423.07c0,0-7.65-3.43-10.02-3.63c-2.37-0.2-6.46,0-6.46,0"/>
			<path class="st8" d="M328.25,423.86c0,0-7.12-2.79-9.76-2.65c-2.64,0.14-4.35,0-4.35,0"/>
			<path class="st8" d="M333.66,418.58c0,0-4.48-1.32-8.7-2.37c-4.22-1.05-5.8,0-5.8,0"/>
		</g>
		<g>
			<g>
				<defs>
					<path id="XMLID_5_" d="M382.18,320.08c-3.69,6.33-20.31,5.35-20.31,5.35l-0.29,1.21l-18.61,78.34l2.36,2.99l-2.36,8.11
						c-2.46,2.64-24.15-1.39-26.47-4.66l2.11-6.44c0,0,1.17-75.53,3.04-89.57l0.01-0.07c0.13-0.93,0.26-1.58,0.39-1.91l-37.45,4.65
						c0,0,3.76,70.15,6.93,74.06c3.16,3.91,0.39,10.22,0.39,10.22l2.03,9.56c0,0-9.82-0.69-19.48-0.98
						c-1.99-0.06-3.97-0.1-5.86-0.11c0,0-0.31-0.72-0.82-2.66c-0.51-1.95,1.44-5.81,1.44-5.81l-1.79-2.33c0,0,0.94-6.91,0.94-9.07
						c0-2.17-24.17-80.16-21.86-85.21c7.7-16.79,47.93-27.75,65.85-31.86c5.28-1.22,8.63-1.84,8.63-1.84l57.32,3.64l1.41,0.09
						l4.88,0.31C384.61,276.09,385.88,313.75,382.18,320.08z"/>
				</defs>
				<use xlink:href="#XMLID_5_"  style="overflow:visible;fill:#92E3A9;"/>
				<clipPath id="XMLID_19_">
					<use xlink:href="#XMLID_5_"  style="overflow:visible;"/>
				</clipPath>
				<path class="st17" d="M365.39,285.5c0,0-32.61,2.91-41.53,14.54c-1.36,1.76-1.81,13.39-1.81,13.39l-37.45,4.65
					c0,0,3.76,70.15,6.93,74.06c3.16,3.91,0.39,10.22,0.39,10.22l2.03,9.56c0,0-9.82-0.69-19.48-0.98c-3.45-3.7-2.42-6.99-2.42-6.99
					c9.13,1.94,14.35-1.69,14.35-1.69s-10.55-8.17-9.34-13.44c1.21-5.28-1.53-24-1.53-24c-1.37,7.91-3.08,9.87-3.08,9.87l0.69-17.87
					c0,0-20.4-21.28-11.01-34.02c9.4-12.73,52.49-24.98,47.74-26.57s-5.01-6.71-5.01-6.71c7.38-1.71,17.93-0.13,17.19-2.41
					c-0.56-1.7-6.64-9.42-9.68-13.22c5.28-1.22,8.63-1.84,8.63-1.84l57.32,3.64l-25.34,2.2L365.39,285.5z"/>
				<path class="st17" d="M382.18,320.08c-3.69,6.33-20.31,5.35-20.31,5.35c1.24-2.32,5.65-5.68,6.6-9.04
					c1.51-5.34,4.43,6.13,4.43,6.13c10.38-4.31,7.11-43.55,6.83-46.74l4.88,0.31C384.61,276.09,385.88,313.75,382.18,320.08z"/>
				
					<use xlink:href="#XMLID_5_"  style="overflow:visible;fill:none;stroke:#263238;stroke-linecap:round;stroke-linejoin:round;stroke-miterlimit:10;"/>
			</g>
			<path class="st2" d="M322.05,313.43c0,0-0.26-12.47,2.9-14.84c3.16-2.37,18.2-2.77,22.15-1.98c3.96,0.79,13.05,9.89,13.05,9.89"
				/>
			<path class="st2" d="M354.68,287.11c0,0-23.79,4.35-29.72,11.47"/>
			<path class="st2" d="M336.97,291.82c0,0-29.51,1.22-40.54-4.71"/>
			<path class="st2" d="M269.23,328.65c4.8,3.56,15.38-10.57,15.38-10.57s-11.05,1.69-11.46,0c-0.41-1.69,3.92-1.69,3.92-1.69"/>
			<path class="st2" d="M276.92,340.52c0,0,1.86,29.67-7.69,38.77"/>
			<path class="st2" d="M361.87,325.43c0,0,6.6-6.67,6.6-9.04s2.34,3.77,0,6.42"/>
			<path class="st2" d="M349.09,337.35c0,0-14.09,32.84-24.13,36.4"/>
			<path class="st2" d="M342.97,404.98c0,0-10.89,2.26-16.04-2.62"/>
			<path class="st2" d="M269.23,402.36c0,0,9.44,4.04,15.38,3.14"/>
		</g>
		<path class="st7" d="M403.91,195.15c-4.05-8.71-30.06-13.53-42.69-15.33c-12.63-1.8-26.09-1.22-31.51-1.49s-9.08,29.75-9.08,29.75
			s2,42.46,2.3,51.48c0,0,1.23,2.46-0.57,4.26s-2,4.61-2,4.61l-3.83,3.4c0,0,15.93,6.76,24.25,14.75
			c9.61,9.22,20.43-21.75,44.61,15.04c0,0,3.62-6.59,3.05-8.09c-0.58-1.5,1.64-13.28,1.14-14.61c-0.51-1.33,0.25-39.88,0.25-39.88
			l2.59,1.73c0,0,5.72-7.13,19.27-1.52l1.43-6.9l-2.05-1.87C411.06,230.47,407.82,203.57,403.91,195.15z"/>
		<path class="st3" d="M378.91,163.24c0,0-7.48,4.48-4.46,20.18c0,0-11.29,7.22-21.65-1.19c0,0,3.12-12.23,0.76-14.83"/>
		<g>
			<path class="st7" d="M362.62,131.22c0,0-6.4-1.3-9.06,6.51c-2.66,7.82,0.74,14.54,0.74,14.54l12.43-10.57L362.62,131.22z"/>
			<path class="st3" d="M376.45,167.79c8.82-9.48,15.54-25.69,3.41-32.93c-23.41-13.97-32.65,10.46-29.79,33.84
				c0.88,7.19,10.71,4.51,17.94,2.3"/>
			<path class="st2" d="M360.76,145.39c0,0,3.91,1.28,4.81,3.46"/>
			<path class="st2" d="M355.06,144.04c0,0-1.5-0.9-2.99,0"/>
			
				<ellipse transform="matrix(0.1478 -0.989 0.989 0.1478 158.525 485.9211)" class="st7" cx="361.22" cy="150.98" rx="1.3" ry="0.83"/>
			
				<ellipse transform="matrix(0.1478 -0.989 0.989 0.1478 153.8254 475.3232)" class="st7" cx="352.72" cy="148.4" rx="1.3" ry="0.83"/>
			<path class="st7" d="M373.35,156.17c0,0-4.01,5.21-6.61,6.81c-2.61,1.6-5.51,0.8-5.51,0.8s-2.99-4.11-7.66-4.41
				c0,0-2.2-1.55-3.94-1.58l0.57-6.02c0,0-4.21,12.75-4.11,17.39c0.1,4.64,11.31,8.45,17.08,7.45c5.77-1,9.11-9.71,11.27-17.97
				C374.61,157.99,373.35,156.17,373.35,156.17z"/>
			<path class="st3" d="M355.51,146.75c0,1.13-6.39,7.67-6.54,9.17c-0.15,1.5,5.49,1.88,5.49,1.88"/>
			<path class="st8" d="M350.1,162.18c0,0,4.39,2.4,8.42,2.09"/>
			<path class="st7" d="M373.45,139.13c1.53-1.13-2-3.61-4.11-3.61c-2.1,0-9.72-0.8-9.72-0.8s-3.41-4.91,0.85-7.52
				s10.87-1.4,10.87-1.4s-1.6,0.2-2.2,1.1c0,0,5.41,0.1,7.72,2.1c2.3,2,3.61,3.91,6.11,5.41c2.51,1.5,5.61,8.92,4.31,15.03
				c-1.3,6.11-5.16,16.77-11.3,19.71c0,0-2.05-0.32-0.73-1.67c6.21-6.31,0.7-19.09-0.81-8.85l-2-1.33c0,0-0.07-0.54,0.52-3.34
				C373.55,151.16,366.23,144.44,373.45,139.13z"/>
			<path class="st3" d="M376.15,155.57c0,0,4.01-4.29,6.21-2.65c2.2,1.64,0.4,6.96-0.9,8.26c-1.3,1.3-2.3,1.53-4.11,3.61
				c-1.81,2.07-3.91,1.23-3.51-0.49"/>
		</g>
		<path class="st3" d="M412.93,258.03c-1.21,4.75-2.79,11.87-10.04,11.87c-7.25,0-28.44-21.36-28.44-21.36l8.95-7.16l10.38,3.47
			c0,0,7.79,1.58,10.83,4.22"/>
		<path class="st8" d="M374.45,186.3c0,0-12.95,6.59-21.73,1.05"/>
		<path class="st8" d="M327.33,262.25c0,0,18.94,14.51,32.94,14.24"/>
		<path class="st8" d="M371.83,238.2c0,0-14.17,24.32-36.06,18.78"/>
		<path class="st8" d="M393.69,193.55c0,0-15.14,13.78-10.29,25.28"/>
		<g>
			<path class="st3" d="M400.62,212.29l-2.17-2.7c0,0-18.28,2.12-26.46,13.04c0,0-15.06-7.11-28.56-3.65l-0.4,4.85l29.6,17.7
				l11.59-4.81L400.62,212.29z"/>
			<g>
				<defs>
					<path id="XMLID_4_" d="M403.59,210.68l-3.12,20.8c0,0-17.23,7.57-20.83,13.65l-0.85,0.12l-4.05,0.56c0,0-0.83-0.25-2.19-0.64
						c-3.5-0.99-10.54-2.86-16.3-3.57c-2.19-0.29-4.2-0.39-5.76-0.22l-11.66-18.17c0,0,18.03-2.49,30.5,1.78l5.96-0.42
						c0,0,0.07-0.06,0.22-0.19C377.29,222.93,389.85,212.95,403.59,210.68z"/>
				</defs>
				<use xlink:href="#XMLID_4_"  style="overflow:visible;fill:#92E3A9;"/>
				<clipPath id="XMLID_20_">
					<use xlink:href="#XMLID_4_"  style="overflow:visible;"/>
				</clipPath>
				<path class="st18" d="M378.57,240.4l-3.06-16.02c1.78-1.45,14.34-11.43,28.08-13.7l-3.12,20.8c0,0-17.23,7.57-20.83,13.65
					l-0.85,0.12L378.57,240.4z"/>
				<path class="st18" d="M372.64,241.53l-0.09,3.64c-3.5-0.99-10.54-2.86-16.3-3.57c1.16-13.31,13.36-15.43,13.36-15.43
					L372.64,241.53z"/>
				
					<use xlink:href="#XMLID_4_"  style="overflow:visible;fill:none;stroke:#263238;stroke-linecap:round;stroke-linejoin:round;stroke-miterlimit:10;"/>
			</g>
		</g>
		<g>
			<path class="st3" d="M384.82,242.87c0-2.1,1.1-8.19,1.84-8.75c0.74-0.56,0.46-4.61,1.85-6.43c1.4-1.82-1.54-1.82-3.22-0.98
				s-4.25,5.17-5.09,5.87c-0.84,0.7-3.57,1.4-4.83,1.26c-1.26-0.14-8.77-5.2-10.18-5.03c-0.9,0.11-9.24-0.84-9.24-0.84
				s-1.96,1.82-0.84,2.51c1.12,0.7,3.07,1.96,3.07,1.96s-2.24,1.4-0.56,3.07c1.68,1.68,2.93,4.85,2.93,4.85s11.75,9.47,17.92,9.85"
				/>
			<path class="st2" d="M358.2,232.44c0,0,3.29,0.4,4.74,1.33"/>
			<path class="st2" d="M364.38,235.75c0,0-0.53,2.12-0.66,2.45c-0.13,0.32,1.71,2.4,1.45,3.34c-0.26,0.94,1.89,3.51,1.89,3.51"/>
			<path class="st2" d="M362.27,238.2c0,0-4.21-2.12-4.64-2.68"/>
		</g>
		<path class="st6" d="M321.66,315.34c0.13-0.93,0.26-1.58,0.39-1.91L321.66,315.34z"/>
		<path class="st6" d="M361.58,326.64c-0.03-0.38,0.06-0.78,0.29-1.21L361.58,326.64z"/>
		<path class="st8" d="M327.33,183.84c0,0-7.93,20.43-2.37,36.48"/>
		<g>
			<g>
				<polygon class="st3" points="251.31,54.34 264.47,174.15 249.94,192.27 163.87,201.72 148.91,65.59 				"/>
				
					<rect x="149.25" y="59.93" transform="matrix(0.994 -0.1092 0.1092 0.994 -5.9808 22.3139)" class="st4" width="103.01" height="11.67"/>
				<path class="st7" d="M197.34,150.76l-31.94,3.51c-0.38,0.04-0.65,0.38-0.61,0.76c0.04,0.38,0.38,0.65,0.76,0.61l31.94-3.51
					c0.38-0.04,0.65-0.38,0.61-0.76C198.06,150.99,197.72,150.71,197.34,150.76z"/>
				<polygon class="st5" points="264.54,174.07 249.94,192.27 248.14,175.87 				"/>
				<g>
					<g>
						<defs>
							
								<rect id="XMLID_10_" x="166.59" y="160.41" transform="matrix(0.994 -0.1092 0.1092 0.994 -17.5578 20.7413)" width="28.03" height="20.55"/>
						</defs>
						<use xlink:href="#XMLID_10_"  style="overflow:visible;fill:#92E3A9;"/>
						<clipPath id="XMLID_21_">
							<use xlink:href="#XMLID_10_"  style="overflow:visible;"/>
						</clipPath>
						
							<rect id="XMLID_2_" x="166.59" y="160.41" transform="matrix(0.994 -0.1092 0.1092 0.994 -17.5578 20.7413)" class="st19" width="28.03" height="20.55"/>
						
							<use xlink:href="#XMLID_10_"  style="overflow:visible;fill:none;stroke:#263238;stroke-linecap:round;stroke-linejoin:round;stroke-miterlimit:10;"/>
					</g>
					<path class="st2" d="M167.1,176.1c0,0,2.59-4.76,5.17-5.05c2.57-0.29,6.92,5.12,11.08,5.05c4.15-0.08,6.91-4.93,11.65-2.84"/>
					<path class="st2" d="M186.43,163.46c0.21,0.38,0.34,0.8,0.38,1.25c0.15,1.74-1.15,3.27-2.89,3.42c-0.05,0-0.1,0-0.16,0
						c0.58,1.07,1.75,1.75,3.04,1.64c1.74-0.15,3.04-1.68,2.89-3.42C189.55,164.66,188.1,163.4,186.43,163.46z"/>
				</g>
				<g>
					<g>
						<defs>
							
								<rect id="XMLID_11_" x="197.88" y="156.83" transform="matrix(0.994 -0.1092 0.1092 0.994 -16.9799 24.1368)" width="28.03" height="20.55"/>
						</defs>
						<use xlink:href="#XMLID_11_"  style="overflow:visible;fill:#92E3A9;"/>
						<clipPath id="XMLID_22_">
							<use xlink:href="#XMLID_11_"  style="overflow:visible;"/>
						</clipPath>
						
							<rect id="XMLID_18_" x="197.88" y="156.83" transform="matrix(0.994 -0.1092 0.1092 0.994 -16.9799 24.1368)" class="st20" width="28.03" height="20.55"/>
						
							<use xlink:href="#XMLID_11_"  style="overflow:visible;fill:none;stroke:#263238;stroke-linecap:round;stroke-linejoin:round;stroke-miterlimit:10;"/>
					</g>
					<polyline class="st2" points="198.04,169.29 209.95,168.11 216.22,171.77 226.36,170.69 					"/>
					<polygon class="st2" points="218.2,158.99 219.39,160.69 221.46,160.67 220.22,162.32 220.88,164.28 218.92,163.61 
						217.25,164.85 217.29,162.78 215.6,161.57 217.58,160.97 					"/>
				</g>
				<g>
					<g>
						<defs>
							
								<rect id="XMLID_12_" x="229.18" y="153.26" transform="matrix(0.994 -0.1092 0.1092 0.994 -16.4024 27.5332)" width="28.03" height="20.55"/>
						</defs>
						<use xlink:href="#XMLID_12_"  style="overflow:visible;fill:#92E3A9;"/>
						<clipPath id="XMLID_23_">
							<use xlink:href="#XMLID_12_"  style="overflow:visible;"/>
						</clipPath>
						
							<rect id="XMLID_17_" x="229.18" y="153.26" transform="matrix(0.994 -0.1092 0.1092 0.994 -16.4024 27.5332)" class="st21" width="28.03" height="20.55"/>
						
							<use xlink:href="#XMLID_12_"  style="overflow:visible;fill:none;stroke:#263238;stroke-linecap:round;stroke-linejoin:round;stroke-miterlimit:10;"/>
					</g>
					<line class="st2" x1="229.59" y1="168.04" x2="257.32" y2="164.88"/>
					<path class="st2" d="M252.38,158.14c0.31,1.65-0.79,3.25-2.44,3.55c-1.65,0.31-3.25-0.79-3.55-2.44
						c-0.31-1.65,0.79-3.25,2.44-3.55C250.48,155.39,252.07,156.48,252.38,158.14z"/>
				</g>
				<g>
					<g>
						<defs>
							
								<rect id="XMLID_1_" x="160.1" y="76.77" transform="matrix(0.994 -0.1092 0.1092 0.994 -10.7971 23.1116)" width="91.06" height="66.75"/>
						</defs>
						<use xlink:href="#XMLID_1_"  style="overflow:visible;fill:#92E3A9;"/>
						<clipPath id="XMLID_24_">
							<use xlink:href="#XMLID_1_"  style="overflow:visible;"/>
						</clipPath>
						<polygon class="st22" points="161.92,129.19 183.67,108.1 199.57,118.77 208.85,109.79 253.66,130.47 254.53,138.34 
							164.01,148.29 						"/>
						<path class="st23" d="M234.74,93.77c0.39,3.57-2.18,6.78-5.75,7.17c-3.57,0.39-6.78-2.18-7.17-5.75
							c-0.39-3.57,2.18-6.78,5.75-7.17C231.14,87.63,234.35,90.2,234.74,93.77z"/>
						<polygon class="st24" points="161.92,129.19 183.67,108.1 199.57,118.77 208.85,109.79 253.66,130.47 254.53,138.34 
							164.01,148.29 						"/>
						<path class="st24" d="M234.74,93.77c0.39,3.57-2.18,6.78-5.75,7.17c-3.57,0.39-6.78-2.18-7.17-5.75
							c-0.39-3.57,2.18-6.78,5.75-7.17C231.14,87.63,234.35,90.2,234.74,93.77z"/>
						
							<use xlink:href="#XMLID_1_"  style="overflow:visible;fill:none;stroke:#263238;stroke-linecap:round;stroke-linejoin:round;stroke-miterlimit:10;"/>
					</g>
				</g>
			</g>
			<g>
				<path class="st6" d="M199.59,68.02l1.14,3.86c0,0-2.9,1.95-1.14,3.36c1.76,1.41,1.76,1.41,1.76,1.41s-1.19,4.13,0.79,5.22
					s8.51-0.32,10.09-2.77c1.58-2.45-3.87-4.95-3.87-4.95s1.6-2.01,0.71-2.93c-0.89-0.93-4.05-0.53-4.05-0.53l-2.18-3.66
					L199.59,68.02z"/>
				<ellipse class="st7" cx="200.73" cy="58.75" rx="7.34" ry="6.88"/>
				<path class="st7" d="M207.5,64.54c0,2.76-3.03,4.99-6.77,4.99c-3.74,0-6.77-2.23-6.77-4.99c0-2.76,3.03-4.99,6.77-4.99
					C204.47,59.55,207.5,61.79,207.5,64.54z"/>
				<path class="st8" d="M204.78,63.29c1.37-1,1.92-2.24,1.92-2.24"/>
				<path class="st8" d="M194.92,61.35c0,0,1.83,3.19,5.8,3.19"/>
			</g>
		</g>
		<path class="st3" d="M268,186.3c0,0,4.22-7.18,2.11-11.53c-2.11-4.35-5.79-14.37-5.57-18.96c0,0-4.06,0-2.87,6.37
			c0.59,3.16,0,6.98,0,6.98s-2.4,7.51-0.41,12.16"/>
		<path class="st2" d="M298.63,213.97c0,0,2.08,3.65,1.55,7.61"/>
		<g>
			<path class="st3" d="M386.03,223.25l-2.37-2.11l-2.03,3.21l-0.26-4.03c-0.05-0.72-0.22-1.33-0.54-1.98l3.92-2.1l0.34,0.32
				c0.48,0.76,0.56,1.87,0.73,2.88L386.03,223.25z"/>
			<path class="st7" d="M378.93,219.71c1.61-0.89,5.32-2.93,7.65-4.12c0.16-0.08,0.05-0.44-0.12-0.39
				c-1.92,0.44-5.33,1.58-7.71,4.24C378.65,219.55,378.75,219.72,378.93,219.71z"/>
		</g>
	</g>
</g>
</svg>
