<?xml version="1.0" encoding="utf-8"?>
<!-- Generator: Adobe Illustrator 24.3.0, SVG Export Plug-In . SVG Version: 6.00 Build 0)  -->
<svg version="1.1" xmlns="http://www.w3.org/2000/svg" xmlns:xlink="http://www.w3.org/1999/xlink" x="0px" y="0px"
	 viewBox="0 0 423.53 423.53" style="enable-background:new 0 0 423.53 423.53;" xml:space="preserve">
<g id="Background_Simple">
	<g>
		<path style="fill:#92E3A9;" d="M58.73,54.38c0.19-0.17,0.37-0.34,0.56-0.51c51.57-46.43,120.06-48.53,169.96,1.46
			c26.01,26.05,72.19,21.07,105.23,30.49c113.92,32.49,94.22,187.06,37.95,261.77c-50.78,67.42-160.81,82.66-234.73,49.48
			C72.74,367.92,27,302.8,10.73,234.7c-1.63-6.83-2.98-13.73-4-20.67C-1.84,156.07,14.61,94.5,58.73,54.38z"/>
		<path style="opacity:0.7;fill:#FFFFFF;" d="M58.73,54.38c0.19-0.17,0.37-0.34,0.56-0.51c51.57-46.43,120.06-48.53,169.96,1.46
			c26.01,26.05,72.19,21.07,105.23,30.49c113.92,32.49,94.22,187.06,37.95,261.77c-50.78,67.42-160.81,82.66-234.73,49.48
			C72.74,367.92,27,302.8,10.73,234.7c-1.63-6.83-2.98-13.73-4-20.67C-1.84,156.07,14.61,94.5,58.73,54.38z"/>
	</g>
</g>
<g id="Bubble">
	<g>
		<path style="fill:none;stroke:#263238;stroke-linecap:round;stroke-linejoin:round;stroke-miterlimit:10;" d="M240.55,362.11
			c-4.95,24.74-29.02,40.79-53.77,35.84c-17.7-3.54-30.94-16.86-35.24-33.21"/>
		<path style="fill:none;stroke:#263238;stroke-linecap:round;stroke-linejoin:round;stroke-miterlimit:10;" d="M239.93,341.46
			c1.32,4.96,1.81,10.2,1.35,15.53"/>
		<path style="fill:none;stroke:#263238;stroke-linecap:round;stroke-linejoin:round;stroke-miterlimit:10;" d="M166.35,318.17
			c10.26-8.61,24.2-12.67,38.36-9.83c14.97,2.99,26.75,12.98,32.63,25.89"/>
		<polyline style="fill:none;stroke:#263238;stroke-linecap:round;stroke-linejoin:round;stroke-miterlimit:10;" points="
			153.67,310.96 152.4,307.56 164.45,316.72 		"/>
		<path style="fill:none;stroke:#263238;stroke-linecap:round;stroke-linejoin:round;stroke-miterlimit:10;" d="M150.94,344.18
			c1.38-6.92,4.27-13.16,8.24-18.45l-4.01-10.76"/>
		<path style="fill:none;stroke:#263238;stroke-linecap:round;stroke-linejoin:round;stroke-miterlimit:10;" d="M150.08,355.08
			c-0.08-1.84-0.04-3.7,0.11-5.57"/>
		<g>
			<path style="fill:none;stroke:#263238;stroke-linecap:round;stroke-linejoin:round;stroke-miterlimit:10;" d="M197.91,330.38
				c12.61,1.48,21.64,12.9,20.17,25.52c-1.48,12.61-12.9,21.64-25.52,20.17c-12.61-1.48-21.64-12.9-20.17-25.52
				c1.15-9.82,8.32-17.46,17.39-19.67"/>
			<path style="fill:none;stroke:#263238;stroke-linecap:round;stroke-linejoin:round;stroke-miterlimit:10;" d="M192.27,378.52
				c-13.97-1.64-23.98-14.29-22.34-28.27"/>
			<path style="fill:none;stroke:#263238;stroke-linecap:round;stroke-linejoin:round;stroke-miterlimit:10;" d="M219.62,360.61
				c-2.73,9.06-10.29,15.78-19.4,17.6"/>
			<path style="fill:none;stroke:#263238;stroke-linecap:round;stroke-linejoin:round;stroke-miterlimit:10;" d="M171.56,343.8
				c4.15-10.46,14.93-17.26,26.64-15.89c13.97,1.64,23.98,14.29,22.34,28.27"/>
			
				<line style="fill:none;stroke:#263238;stroke-width:2;stroke-linecap:round;stroke-linejoin:round;stroke-miterlimit:10;" x1="210.02" y1="343.25" x2="210.3" y2="342.93"/>
			
				<line style="fill:none;stroke:#263238;stroke-width:2;stroke-linecap:round;stroke-linejoin:round;stroke-miterlimit:10;" x1="206.18" y1="347.86" x2="208.09" y2="345.56"/>
			
				<polyline style="fill:none;stroke:#263238;stroke-width:2;stroke-linecap:round;stroke-linejoin:round;stroke-miterlimit:10;" points="
				181.47,352.37 191.95,364.89 204.5,349.87 			"/>
		</g>
	</g>
</g>
<g id="Character">
	<path style="fill:#FFFFFF;stroke:#263238;stroke-linecap:round;stroke-linejoin:round;stroke-miterlimit:10;" d="M369.39,311.16
		H259.52c-25.51,0-46.19-20.68-46.19-46.19V155.1c0-25.51,20.68-46.19,46.19-46.19h109.86c25.51,0,46.19,20.68,46.19,46.19v109.86
		C415.58,290.48,394.9,311.16,369.39,311.16z"/>
	<g>
		<g>
			<g>
				<defs>
					<path id="XMLID_744_" d="M275.29,197.96c-3.07-5.06-17.79-4.98-19.12-2.73c0,0,7.3,23.58,15.43,21.14
						C279.72,213.92,275.29,197.96,275.29,197.96z"/>
				</defs>
				<use xlink:href="#XMLID_744_"  style="overflow:visible;fill:#92E3A9;"/>
				<clipPath id="XMLID_2_">
					<use xlink:href="#XMLID_744_"  style="overflow:visible;"/>
				</clipPath>
				<path style="opacity:0.3;clip-path:url(#XMLID_2_);fill-opacity:0.7;" d="M275.29,197.96c-3.07-5.06-17.79-4.98-19.12-2.73
					c0,0,7.3,23.58,15.43,21.14C279.72,213.92,275.29,197.96,275.29,197.96z"/>
				
					<use xlink:href="#XMLID_744_"  style="overflow:visible;fill:none;stroke:#263238;stroke-linecap:round;stroke-linejoin:round;stroke-miterlimit:10;"/>
			</g>
			<g>
				<defs>
					<path id="XMLID_743_" d="M257.72,209.96c0,0-1.56,1.78-1.56,4.45c0,2.2,4.2,46.13,17.15,61.42c2.71,3.21,5.81,5.16,9.34,5.2
						c10.96,0.12,16.27-8.58,23.25-28.75c0.87-2.51,1.77-5.21,2.7-8.09c6.78-20.82,15.12-64.25,15.12-64.25s-14.79,3.43-23.56,12.12
						c-3.83,3.8-7.83,14.59-10.38,22.51c-1.26,3.89-2.17,7.09-2.54,8.43c-0.12,0.45-0.19,0.69-0.19,0.69
						c-0.34-1.31-0.89-2.64-1.55-3.93c-0.01-0.02-0.01-0.03-0.02-0.03c-0.03-0.03-0.04-0.07-0.05-0.1
						c-2.65-5.08-6.95-9.56-6.95-9.56l-3.19-12.11c0,0-1.13,2.21-6.24,2.99c-5.11,0.78-12.89-5.72-12.89-5.72L257.72,209.96z"/>
				</defs>
				<use xlink:href="#XMLID_743_"  style="overflow:visible;fill:#92E3A9;"/>
				<clipPath id="XMLID_3_">
					<use xlink:href="#XMLID_743_"  style="overflow:visible;"/>
				</clipPath>
				<path style="opacity:0.3;clip-path:url(#XMLID_3_);fill-opacity:0.7;" d="M273.31,275.83c2.71,3.21,5.81,5.16,9.34,5.2
					c10.96,0.12,16.27-8.58,23.25-28.75l-0.15-46.88c0,0-8.24,1.6-15.97,9.18c-1.26,3.89-2.17,7.09-2.54,8.43
					c3.08,6.42,8.46,21.18,2.29,36.91C285.53,270.13,278.98,274.27,273.31,275.83z"/>
				
					<use xlink:href="#XMLID_743_"  style="overflow:visible;fill:none;stroke:#263238;stroke-linecap:round;stroke-linejoin:round;stroke-miterlimit:10;"/>
			</g>
			<path style="fill:none;stroke:#263238;stroke-linecap:round;stroke-linejoin:round;stroke-miterlimit:10;" d="M292.58,238.01
				c0.79,4.12,0.82,8.58-1.09,12.41"/>
			<path style="fill:none;stroke:#263238;stroke-linecap:round;stroke-linejoin:round;stroke-miterlimit:10;" d="M287.05,223.7
				c2.16,3.65,3.85,7.68,4.95,11.78"/>
			<path style="fill:none;stroke:#263238;stroke-linecap:round;stroke-linejoin:round;stroke-miterlimit:10;" d="M294.04,228.88
				c0,0-1.54-4.24-5.71-5.19"/>
			<path style="fill:none;stroke:#263238;stroke-linecap:round;stroke-linejoin:round;stroke-miterlimit:10;" d="M272.76,213.38
				c1-0.54,1.94-1.21,2.79-1.96"/>
			<path style="fill:none;stroke:#263238;stroke-linecap:round;stroke-linejoin:round;stroke-miterlimit:10;" d="M257.72,209.96
				c3.26,3.49,8.35,5.77,13.1,4.25"/>
			<path style="fill:#92E3A9;stroke:#263238;stroke-linecap:round;stroke-linejoin:round;stroke-miterlimit:10;" d="M285.42,219.64
				c0,0,0.02,0.03,0.06,0.09C285.46,219.7,285.44,219.66,285.42,219.64C285.42,219.63,285.42,219.64,285.42,219.64z"/>
		</g>
		<g>
			<defs>
				<path id="XMLID_741_" d="M382,309.2c0,0,1.86-14.72,3-19.52c5.12-21.64,23.15-71.77,20.24-86.6
					c-2.99-15.25-21.27-28.58-50.76-30.05c-27.36-1.37-49.91,8.33-55.31,19.61c-5.15,10.76-4.94,85.02-3.63,118.53
					c0,0,56.37,0,75.15,0C376.63,311.16,382,309.2,382,309.2z"/>
			</defs>
			<use xlink:href="#XMLID_741_"  style="overflow:visible;fill:#92E3A9;"/>
			<clipPath id="XMLID_4_">
				<use xlink:href="#XMLID_741_"  style="overflow:visible;"/>
			</clipPath>
			<path style="opacity:0.3;clip-path:url(#XMLID_4_);fill-opacity:0.7;" d="M376.13,219.74c-14.17,19.43-29.62,48.5-29.62,48.5
				l-42.2-52.6c0,0,9.67,66.81,14.94,74.04c5.27,7.23,5.04,10.55,5.04,10.55s13.38,14.41,23.41,12.45
				c8.51-1.66,39.12-35.81,48.66-75.41L376.13,219.74z"/>
			
				<use xlink:href="#XMLID_741_"  style="overflow:visible;fill:none;stroke:#263238;stroke-linecap:round;stroke-linejoin:round;stroke-miterlimit:10;"/>
		</g>
		<g>
			<path style="fill:#FFFFFF;stroke:#263238;stroke-linecap:round;stroke-linejoin:round;stroke-miterlimit:10;" d="M366.4,175.99
				c0,0-14.71,6.31-30.63,1.08c0,0,2.05-4.98,2.06-9.09c0.01-2.06-0.51-3.91-2.06-4.79c0,0,0.72-0.79,1.94-2.04
				c0.01,0,0.01,0,0.01,0c6.03-6.14,24.34-23.4,30.3-13.11C368.02,148.04,361.78,148.63,366.4,175.99z"/>
			<path style="fill:#263238;" d="M349.77,156.93c0,0-2.42,8.87-11.94,11.05c0.01-2.06-0.51-3.91-2.06-4.79c0,0,0.72-0.79,1.94-2.04
				c0.01,0,0.01,0,0.01,0C343.55,158.86,349.77,156.93,349.77,156.93z"/>
			<path style="fill:#FFFFFF;stroke:#263238;stroke-linecap:round;stroke-linejoin:round;stroke-miterlimit:10;" d="M372.16,133.56
				c6.32-25.18-7.29-33.79-15.86-37.09c-13.74-5.29-31.07,0.73-35.13,14.71c-4.06,13.99-0.4,17.17-0.59,22.89
				c-0.13,4.01-2.79,5.99,0.14,16.06c1.94,6.64,5.53,14.27,9.72,14.51c11.35,0.66,22.09-5.8,21.49-8.84"/>
			<path style="fill:none;stroke:#263238;stroke-linecap:round;stroke-linejoin:round;stroke-miterlimit:10;" d="M336.51,121.22
				c0,0,5.08-1.76,7.79,3.78"/>
			<path style="fill:none;stroke:#263238;stroke-linecap:round;stroke-linejoin:round;stroke-miterlimit:10;" d="M319.24,120.4
				c0,0,3.78-3.21,7.56,1.33"/>
			<ellipse style="fill:#263238;" cx="338.78" cy="131.88" rx="1.26" ry="2.12"/>
			<path style="fill:#263238;" d="M323.02,130.72c0,1.17,0.56,2.12,1.26,2.12c0.7,0,1.26-0.95,1.26-2.12c0-1.17-0.56-2.12-1.26-2.12
				C323.58,128.61,323.02,129.55,323.02,130.72z"/>
			<path style="fill:#FFFFFF;stroke:#263238;stroke-linecap:round;stroke-linejoin:round;stroke-miterlimit:10;" d="M326.8,125.87
				c0,0,0.78,5.83,0.43,6.97c-0.35,1.14-4.29,4.7-4.45,6.28c-0.16,1.58,3.3,3.18,3.3,3.18"/>
			<path style="fill:#263238;" d="M324.28,145.65c0,0,7.88,1.98,14.5,0c0,0-3.12,9.77-9.29,8.77c-4.08-0.66-3.04-7.06-3.04-7.06
				L324.28,145.65z"/>
			<path style="fill:#263238;" d="M345.99,107.12c0,0-3.26-2.24-7.79-1.19c-4.53,1.06-5.24,10.58-5.24,10.58s-2.42-2.14-2.85-4.78
				l-1.42,4.09l-3.78-3.56l-1.26,4.25l-1.5-3.07l-2.91,5.66c0,0-4.37-5.63-3.69-9.98c1.85-11.87,11.26-21.62,30.96-20.57
				c9.92,0.53,13.62,7.32,13.62,7.32s9.7-1.31,14,3.72c14.65,17.13,5.46,35.73-8.45,53.36l-4.77-16.8l-4.62-0.53
				c0,0,0.17-2.54,0.03-5.18c-0.14-2.64-1.71-6.5-1.71-6.5l-1.71,0.77l0.71-3.22l-3.9,2c0,0,1.65-13.23,0-15.47
				S345.99,107.12,345.99,107.12z"/>
			<path style="fill:#FFFFFF;stroke:#263238;stroke-linecap:round;stroke-linejoin:round;stroke-miterlimit:10;" d="M358.01,137.97
				c0,0,4.62-8.6,9.44-6.5c4.83,2.1,1.47,12.38-2.73,15.74c-4.2,3.36-6.71,0-6.71,0"/>
			<g style="opacity:0.2;">
				<path style="fill:none;stroke:#FFFFFF;stroke-linecap:round;stroke-linejoin:round;stroke-miterlimit:10;" d="M350.18,103.58
					c0,0-1.72-4.82-7.37-5.19c-5.65-0.37-9.71,5.75-9.84,10.02"/>
				<path style="fill:none;stroke:#FFFFFF;stroke-linecap:round;stroke-linejoin:round;stroke-miterlimit:10;" d="M354,103.38
					c0,0,3.87-2.97,6.12,0c3.8,5.02,0.65,17.13,0.65,17.13"/>
				<path style="fill:none;stroke:#FFFFFF;stroke-linecap:round;stroke-linejoin:round;stroke-miterlimit:10;" d="M359.27,99.84
					c0,0,4.03-2.47,7.48,2.3c3.45,4.77,3.08,16.37,3.08,16.37"/>
				<path style="fill:none;stroke:#FFFFFF;stroke-linecap:round;stroke-linejoin:round;stroke-miterlimit:10;" d="M370.68,99.2
					c0,0,6.97,2.94,7.37,16.99"/>
				<path style="fill:none;stroke:#FFFFFF;stroke-linecap:round;stroke-linejoin:round;stroke-miterlimit:10;" d="M354.47,99.84
					c0,0-3.92-6.66-15.54-4.43c-11.61,2.23-13.36,14.1-13.36,14.1"/>
				<path style="fill:none;stroke:#FFFFFF;stroke-linecap:round;stroke-linejoin:round;stroke-miterlimit:10;" d="M357.36,97.83
					c0,0-4.68-6.49-18.89-5.19c-14.22,1.3-19.93,13.73-18.49,19.66"/>
			</g>
		</g>
		<g>
			<g>
				<path style="fill:#757575;stroke:#263238;stroke-linecap:round;stroke-linejoin:round;stroke-miterlimit:10;" d="M240.86,181.07
					c0,0,16.91-13.01,24.28-14.33c7.37-1.32,32.73,4.22,32.73,4.22v30.03c0,0-15.87,1.74-22.99,6.95
					c-7.12,5.21-31.65,6.05-31.65,6.05L240.86,181.07z"/>
				<path style="fill:#FFFFFF;stroke:#263238;stroke-linecap:round;stroke-linejoin:round;stroke-miterlimit:10;" d="M256.73,171.76
					c0,0,0.39-3.82,0.98-5.93c0.6-2.11,4.69-1.88,5.61-1.14c0.92,0.74,1.81,2.04,1.81,2.04s-1.42,0.41-1.81,0.55
					C262.93,167.41,262.54,175.06,256.73,171.76z"/>
				<g>
					<defs>
						
							<rect id="XMLID_737_" x="256.16" y="141.71" transform="matrix(0.3261 -0.9453 0.9453 0.3261 43.9823 370.6978)" width="51.67" height="25.59"/>
					</defs>
					<use xlink:href="#XMLID_737_"  style="overflow:visible;fill:#92E3A9;"/>
					<clipPath id="XMLID_5_">
						<use xlink:href="#XMLID_737_"  style="overflow:visible;"/>
					</clipPath>
					<path style="opacity:0.5;clip-path:url(#XMLID_5_);fill-opacity:0.7;" d="M261.48,174.75l24.19,8.34l16.85-48.84l-24.19-8.34
						L261.48,174.75z M299.97,135.49l-15.54,45.06l-20.41-7.04l15.54-45.06L299.97,135.49z"/>
					<path style="opacity:0.5;clip-path:url(#XMLID_5_);fill-opacity:0.7;" d="M281.92,132.27l-2.08,6.03
						c-0.23,0.68-0.97,1.03-1.64,0.8l0,0c-0.68-0.23-1.03-0.97-0.8-1.64l2.08-6.03c0.23-0.68,0.97-1.03,1.64-0.8l0,0
						C281.79,130.86,282.15,131.59,281.92,132.27z"/>
					<path style="opacity:0.5;clip-path:url(#XMLID_5_);fill-opacity:0.7;" d="M286.6,171.54l-2.08,6.03
						c-0.23,0.68-0.97,1.03-1.64,0.8h0c-0.68-0.23-1.03-0.97-0.8-1.64l2.08-6.03c0.23-0.68,0.97-1.03,1.64-0.8l0,0
						C286.47,170.13,286.83,170.87,286.6,171.54z"/>
					<path style="opacity:0.5;clip-path:url(#XMLID_5_);fill-opacity:0.7;" d="M274.42,151.89c-1.44,4.18,0.78,8.75,4.96,10.19
						c4.18,1.44,8.75-0.78,10.19-4.96c1.44-4.18-0.78-8.75-4.96-10.19S275.86,147.7,274.42,151.89z M286.21,155.36l0.6,0.21
						l-0.36,1.06l-0.6-0.21c-0.51,0.86-1.38,1.08-2.5,0.7l-0.56-0.19l0.42-1.22l0.64,0.22c0.59,0.2,0.89,0.02,1.03-0.39
						c0.14-0.41,0.02-0.74-0.57-0.94c-0.59-0.2-1.09-0.11-2.07,0.52c-1.2,0.77-1.98,0.9-2.92,0.58c-1.1-0.38-1.65-1.08-1.54-2.05
						l-0.61-0.21l0.36-1.06l0.61,0.21c0.5-0.85,1.37-1.08,2.48-0.69l0.26,0.09l-0.42,1.22l-0.34-0.12c-0.59-0.2-0.89-0.04-1.03,0.37
						c-0.14,0.41,0,0.72,0.59,0.92c0.59,0.2,1.08,0.11,2.07-0.52c1.21-0.76,1.98-0.9,2.92-0.58
						C285.78,153.66,286.33,154.38,286.21,155.36z"/>
					
						<use xlink:href="#XMLID_737_"  style="overflow:visible;fill:none;stroke:#263238;stroke-linecap:round;stroke-linejoin:round;stroke-miterlimit:10;"/>
				</g>
				<g>
					<defs>
						
							<rect id="XMLID_740_" x="235.1" y="63.59" transform="matrix(0.2569 0.9664 -0.9664 0.2569 267.735 -195.4185)" width="51.67" height="25.59"/>
					</defs>
					<use xlink:href="#XMLID_740_"  style="overflow:visible;fill:#92E3A9;"/>
					<clipPath id="XMLID_6_">
						<use xlink:href="#XMLID_740_"  style="overflow:visible;"/>
					</clipPath>
					<path style="opacity:0.5;clip-path:url(#XMLID_6_);fill-opacity:0.7;" d="M266.67,48.13l-24.73,6.57l13.27,49.93l24.73-6.57
						L266.67,48.13z M256.63,102.19l-12.24-46.07l20.86-5.54l12.24,46.07L256.63,102.19z"/>
					<path style="opacity:0.5;clip-path:url(#XMLID_6_);fill-opacity:0.7;" d="M273.41,94.79l-1.64-6.17
						c-0.18-0.69,0.23-1.4,0.92-1.58l0,0c0.69-0.18,1.4,0.23,1.58,0.92l1.64,6.17c0.18,0.69-0.23,1.4-0.92,1.58l0,0
						C274.3,95.89,273.59,95.48,273.41,94.79z"/>
					<path style="opacity:0.5;clip-path:url(#XMLID_6_);fill-opacity:0.7;" d="M247.61,64.81l-1.64-6.17
						c-0.18-0.69,0.23-1.4,0.92-1.58l0,0c0.69-0.18,1.4,0.23,1.58,0.92l1.64,6.17c0.18,0.69-0.23,1.4-0.92,1.58l0,0
						C248.5,65.91,247.79,65.5,247.61,64.81z"/>
					<path style="opacity:0.5;clip-path:url(#XMLID_6_);fill-opacity:0.7;" d="M268.68,74.32c-1.14-4.28-5.53-6.82-9.8-5.69
						s-6.82,5.53-5.69,9.81c1.14,4.28,5.53,6.82,9.8,5.69C267.27,82.99,269.82,78.6,268.68,74.32z M256.96,78.02l-0.61,0.16
						l-0.29-1.08l0.61-0.16c-0.06-1,0.54-1.67,1.68-1.97l0.58-0.15l0.33,1.25l-0.66,0.18c-0.6,0.16-0.74,0.48-0.63,0.9
						c0.11,0.42,0.4,0.63,1,0.47c0.6-0.16,0.97-0.51,1.43-1.59c0.56-1.3,1.14-1.85,2.1-2.11c1.13-0.3,1.97-0.02,2.42,0.85l0.62-0.17
						l0.29,1.08l-0.62,0.17c0.06,0.99-0.53,1.66-1.67,1.96l-0.26,0.07l-0.33-1.25l0.35-0.09c0.6-0.16,0.76-0.46,0.65-0.88
						c-0.11-0.42-0.4-0.6-1-0.44c-0.6,0.16-0.95,0.51-1.43,1.59c-0.58,1.31-1.14,1.85-2.1,2.11C258.26,79.2,257.4,78.9,256.96,78.02
						z"/>
					
						<use xlink:href="#XMLID_740_"  style="overflow:visible;fill:none;stroke:#263238;stroke-linecap:round;stroke-linejoin:round;stroke-miterlimit:10;"/>
				</g>
				<path style="fill:#999999;stroke:#263238;stroke-linecap:round;stroke-linejoin:round;stroke-miterlimit:10;" d="M240.86,181.07
					c0,0,24.53-8.27,31.12-9.45c6.59-1.19,25.89-0.66,25.89-0.66v30.03c0,0-20.14,6.11-23.25,8.56s-31.38,4.44-31.38,4.44
					L240.86,181.07z"/>
				<path style="fill:none;stroke:#263238;stroke-linecap:round;stroke-linejoin:round;stroke-miterlimit:10;" d="M274.33,184.64
					c-1.29,6.95-0.36,16.27-4.97,21.91"/>
				<path style="fill:none;stroke:#263238;stroke-linecap:round;stroke-linejoin:round;stroke-miterlimit:10;" d="M276.47,174.12
					c-0.5,2.27-0.97,4.54-1.42,6.82"/>
				<g>
					<path style="fill:#BFBFBF;stroke:#263238;stroke-linecap:round;stroke-linejoin:round;stroke-miterlimit:10;" d="M300.88,74.48
						c0,3.03-2.46,5.49-5.49,5.49s-5.49-2.46-5.49-5.49c0-3.03,2.46-5.49,5.49-5.49S300.88,71.44,300.88,74.48z"/>
					<path style="opacity:0.5;fill-opacity:0.7;" d="M298.46,77.9c1.89-1.69,2.05-4.6,0.35-6.49s-4.6-2.05-6.49-0.35
						c-1.89,1.69-2.05,4.6-0.35,6.49S296.57,79.59,298.46,77.9z M293.52,72.87l-0.24-0.27l0.48-0.43l0.24,0.27
						c0.49-0.29,1-0.16,1.45,0.35l0.23,0.25l-0.55,0.49l-0.26-0.29c-0.24-0.26-0.44-0.26-0.62-0.09c-0.19,0.17-0.22,0.37,0.02,0.63
						c0.24,0.26,0.51,0.36,1.18,0.32c0.81-0.05,1.24,0.1,1.62,0.52c0.45,0.5,0.52,1,0.2,1.46l0.25,0.28l-0.48,0.43l-0.25-0.28
						c-0.49,0.29-0.99,0.16-1.44-0.35l-0.1-0.12l0.55-0.49l0.14,0.15c0.24,0.26,0.43,0.27,0.62,0.1c0.19-0.17,0.2-0.36-0.04-0.63
						s-0.51-0.36-1.18-0.32c-0.82,0.05-1.24-0.1-1.62-0.52C293.25,73.84,293.18,73.33,293.52,72.87z"/>
				</g>
				<g>
					<path style="fill:#BFBFBF;stroke:#263238;stroke-linecap:round;stroke-linejoin:round;stroke-miterlimit:10;" d="M274.86,31.06
						c0,3.03-2.46,5.49-5.49,5.49c-3.03,0-5.49-2.46-5.49-5.49s2.46-5.49,5.49-5.49C272.4,25.57,274.86,28.03,274.86,31.06z"/>
					<path style="opacity:0.5;fill-opacity:0.7;" d="M272.44,34.49c1.89-1.69,2.05-4.6,0.35-6.49c-1.69-1.89-4.6-2.05-6.49-0.35
						c-1.89,1.69-2.05,4.6-0.35,6.49C267.64,36.02,270.55,36.18,272.44,34.49z M267.5,29.46l-0.24-0.27l0.48-0.43l0.24,0.27
						c0.49-0.29,1-0.16,1.45,0.35l0.23,0.25l-0.55,0.49l-0.26-0.29c-0.24-0.26-0.44-0.26-0.62-0.09c-0.19,0.17-0.22,0.37,0.02,0.63
						c0.24,0.26,0.51,0.36,1.18,0.32c0.81-0.05,1.24,0.1,1.62,0.52c0.45,0.5,0.52,1,0.2,1.46l0.25,0.28l-0.48,0.43l-0.25-0.28
						c-0.49,0.29-0.99,0.16-1.44-0.35l-0.1-0.12l0.55-0.49l0.14,0.15c0.24,0.26,0.43,0.27,0.62,0.1c0.19-0.17,0.2-0.36-0.04-0.63
						c-0.24-0.26-0.51-0.36-1.18-0.32c-0.82,0.05-1.24-0.1-1.62-0.52C267.23,30.43,267.16,29.91,267.5,29.46z"/>
				</g>
				<g>
					<path style="fill:#BFBFBF;stroke:#263238;stroke-linecap:round;stroke-linejoin:round;stroke-miterlimit:10;" d="
						M249.36,137.22c-2.95-0.72-4.75-3.7-4.02-6.65c0.72-2.95,3.7-4.75,6.65-4.02c2.95,0.72,4.75,3.7,4.02,6.65
						C255.28,136.14,252.3,137.94,249.36,137.22z"/>
					<path style="opacity:0.5;fill-opacity:0.7;" d="M246.61,134.05c1.19,2.24,3.98,3.09,6.22,1.89c2.24-1.19,3.09-3.98,1.89-6.22
						c-1.19-2.24-3.98-3.09-6.22-1.89C246.26,129.02,245.42,131.81,246.61,134.05z M252.67,130.45l0.32-0.17l0.3,0.56l-0.32,0.17
						c0.16,0.55-0.08,1-0.68,1.32l-0.3,0.16l-0.35-0.65l0.35-0.18c0.31-0.17,0.35-0.37,0.24-0.59c-0.12-0.22-0.3-0.3-0.62-0.13
						c-0.31,0.17-0.47,0.41-0.59,1.07c-0.14,0.8-0.39,1.18-0.89,1.45c-0.59,0.31-1.1,0.27-1.46-0.16l-0.33,0.17l-0.3-0.56l0.33-0.17
						c-0.16-0.54,0.08-0.99,0.68-1.31l0.14-0.07l0.35,0.65l-0.18,0.1c-0.31,0.17-0.37,0.36-0.25,0.58c0.12,0.22,0.3,0.28,0.62,0.11
						c0.31-0.17,0.47-0.41,0.59-1.07c0.15-0.81,0.39-1.18,0.89-1.45C251.79,129.96,252.31,130.02,252.67,130.45z"/>
				</g>
			</g>
			<g>
				<defs>
					<path id="XMLID_738_" d="M315.23,186.05c-1.4-2.54-5.4-1.31-10.07,6.02c-4.67,7.33-6.57,15.89-5.44,19
						c1.13,3.11,16.22,6.89,16.22,6.89l3.11-7.89L315.23,186.05z"/>
				</defs>
				<use xlink:href="#XMLID_738_"  style="overflow:visible;fill:#92E3A9;"/>
				<clipPath id="XMLID_7_">
					<use xlink:href="#XMLID_738_"  style="overflow:visible;"/>
				</clipPath>
				<path style="opacity:0.5;clip-path:url(#XMLID_7_);fill-opacity:0.7;" d="M315.23,186.05c-1.4-2.54-5.4-1.31-10.07,6.02
					c-4.67,7.33-6.57,15.89-5.44,19c1.13,3.11,16.22,6.89,16.22,6.89l3.11-7.89L315.23,186.05z"/>
				
					<use xlink:href="#XMLID_738_"  style="overflow:visible;fill:none;stroke:#263238;stroke-linecap:round;stroke-linejoin:round;stroke-miterlimit:10;"/>
			</g>
			<g>
				<path style="fill:#FFFFFF;stroke:#263238;stroke-linecap:round;stroke-linejoin:round;stroke-miterlimit:10;" d="M321.61,201.4
					l-8.66-18.95c0,0-5.64-8.07-6.75-11.15c-1.11-3.08-13.52-5.47-16.32-5.47c-2.8,0-5.77,5.01-5.77,5.01l5.83,0
					c0,0,2.17,2.29,2.45,3.65c0.27,1.37-7.71,8.17-8.85,8.82c-1.14,0.65-4.15,1.65-7.32,4c-3.17,2.35-10.32,4.18-11.65,6.29
					c-1.33,2.11-0.39,2.5,0.56,2.99c0.96,0.49,2.55,0.6,2.55,0.6s-0.57,2.39,0,3.65c0.57,1.25,3.89,1.14,3.89,1.14
					s0.16,1.74,1.78,2.01c1.62,0.27,2.86,0.76,2.86,0.76s6.86,1.16,9.94,0.51c3.08-0.65,12.42-5.63,14.7-5.42
					c2.28,0.21,8.6,14.86,8.6,14.86S320.24,212.86,321.61,201.4z"/>
				<path style="fill:none;stroke:#263238;stroke-linecap:round;stroke-linejoin:round;stroke-miterlimit:10;" d="M267.69,197.18
					c0,0,8.96-1.94,9.56-2.62c0.59-0.68,6.86-2.63,6.86-2.63"/>
				<path style="fill:none;stroke:#263238;stroke-linecap:round;stroke-linejoin:round;stroke-miterlimit:10;" d="M271.58,201.97
					c0,0,5.03-1.03,6.78-1.25c1.75-0.23,8.93-3.53,8.93-3.53"/>
				<path style="fill:none;stroke:#263238;stroke-linecap:round;stroke-linejoin:round;stroke-miterlimit:10;" d="M276.22,204.74
					c0,0,7.09-0.6,8.57-1.29s5.81-2.05,5.81-2.05"/>
			</g>
			<path style="fill:#92E3A9;stroke:#263238;stroke-linecap:round;stroke-linejoin:round;stroke-miterlimit:10;" d="M380.99,193.05
				c-10.52,6.93-16.88,23.68-16.88,23.68l-16.42,30.55c0,0-13.81-34-17.72-34.44l-14.74-26.8c0,0,1.74,15.7-4.4,22.37
				c-6.14,6.67-11.11,2.65-11.11,2.65l4.59,12.67l1.14,6.02c0,0,19.37,58.12,25.71,61.72c6.33,3.6,20.74,5.21,32.96-3.74
				c12.22-8.95,33.12-42.78,35.1-53.85"/>
			<path style="fill:none;stroke:#263238;stroke-linecap:round;stroke-linejoin:round;stroke-miterlimit:10;" d="M324.04,216.87
				c0.53-0.8,1.02-1.62,1.47-2.46"/>
			<path style="fill:none;stroke:#263238;stroke-linecap:round;stroke-linejoin:round;stroke-miterlimit:10;" d="M311.62,224.81
				c4.22-0.45,8.14-2.65,10.87-5.88"/>
			<path style="fill:none;stroke:#263238;stroke-linecap:round;stroke-linejoin:round;stroke-miterlimit:10;" d="M304.3,223.73
				c1.64,0.69,3.39,1.08,5.16,1.15"/>
			<path style="fill:none;stroke:#263238;stroke-linecap:round;stroke-linejoin:round;stroke-miterlimit:10;" d="M352,260.75
				c0.07,1.4-0.02,2.8-0.34,4.17"/>
			<path style="fill:none;stroke:#263238;stroke-linecap:round;stroke-linejoin:round;stroke-miterlimit:10;" d="M347.69,247.28
				c1.93,3.36,3.38,7.13,4.03,10.95"/>
			<path style="fill:none;stroke:#263238;stroke-linecap:round;stroke-linejoin:round;stroke-miterlimit:10;" d="M356.77,252.75
				c0,0-2.99-3.74-6.39-5.47"/>
			<path style="fill:none;stroke:#263238;stroke-linecap:round;stroke-linejoin:round;stroke-miterlimit:10;" d="M382.73,208.42
				c0,0-9.24-1.24-16.57,7.22"/>
			<path style="fill:none;stroke:#263238;stroke-linecap:round;stroke-linejoin:round;stroke-miterlimit:10;" d="M392.51,234.26
				c-1.77,0.25-3.58-0.02-5.18-0.84"/>
			<path style="fill:none;stroke:#263238;stroke-linecap:round;stroke-linejoin:round;stroke-miterlimit:10;" d="M403.6,221.87
				c-1.45,7.01-5.37,10.57-8.78,11.81"/>
		</g>
		<path style="fill:none;stroke:#263238;stroke-linecap:round;stroke-linejoin:round;stroke-miterlimit:10;" d="M360.04,182.01
			c0,0-15.34,3.57-23.89-2.15"/>
		<path style="fill:none;stroke:#263238;stroke-linecap:round;stroke-linejoin:round;stroke-miterlimit:10;" d="M305.03,275.87
			c0,0,8.36,23.6,27.69,27.6"/>
		<path style="fill:none;stroke:#263238;stroke-linecap:round;stroke-linejoin:round;stroke-miterlimit:10;" d="M360.9,308.59
			c-0.99,0.75-2.04,1.44-3.1,2.09"/>
		<g>
			<g>
				
					<line style="fill:none;stroke:#263238;stroke-linecap:round;stroke-linejoin:round;stroke-miterlimit:10;" x1="254.23" y1="22.77" x2="254.23" y2="43.52"/>
				
					<line style="fill:none;stroke:#263238;stroke-linecap:round;stroke-linejoin:round;stroke-miterlimit:10;" x1="254.23" y1="10.33" x2="254.23" y2="18.62"/>
				
					<line style="fill:none;stroke:#263238;stroke-linecap:round;stroke-linejoin:round;stroke-miterlimit:10;" x1="254.23" y1="2.57" x2="254.23" y2="7.01"/>
				<polyline style="fill:none;stroke:#263238;stroke-linecap:round;stroke-linejoin:round;stroke-miterlimit:10;" points="
					250.31,41.1 254.23,45.95 258.15,41.1 				"/>
			</g>
			<g>
				
					<line style="fill:none;stroke:#263238;stroke-linecap:round;stroke-linejoin:round;stroke-miterlimit:10;" x1="264.6" y1="126.66" x2="264.6" y2="147.41"/>
				
					<line style="fill:none;stroke:#263238;stroke-linecap:round;stroke-linejoin:round;stroke-miterlimit:10;" x1="264.6" y1="114.22" x2="264.6" y2="122.51"/>
				
					<line style="fill:none;stroke:#263238;stroke-linecap:round;stroke-linejoin:round;stroke-miterlimit:10;" x1="264.6" y1="106.46" x2="264.6" y2="110.9"/>
				<polyline style="fill:none;stroke:#263238;stroke-linecap:round;stroke-linejoin:round;stroke-miterlimit:10;" points="
					260.68,144.99 264.6,149.84 268.52,144.99 				"/>
			</g>
			<g>
				
					<line style="fill:none;stroke:#263238;stroke-linecap:round;stroke-linejoin:round;stroke-miterlimit:10;" x1="285.1" y1="64.22" x2="285.1" y2="84.97"/>
				
					<line style="fill:none;stroke:#263238;stroke-linecap:round;stroke-linejoin:round;stroke-miterlimit:10;" x1="285.1" y1="51.78" x2="285.1" y2="60.08"/>
				
					<line style="fill:none;stroke:#263238;stroke-linecap:round;stroke-linejoin:round;stroke-miterlimit:10;" x1="285.1" y1="44.02" x2="285.1" y2="48.46"/>
				<polyline style="fill:none;stroke:#263238;stroke-linecap:round;stroke-linejoin:round;stroke-miterlimit:10;" points="
					281.18,82.55 285.1,87.4 289.02,82.55 				"/>
			</g>
		</g>
	</g>
</g>
<g id="Hand">
	<g>
		<g>
			<path style="fill:#FFFFFF;" d="M104.53,292.79c-0.33,13.02,6.12,11.97,6.12,11.97c0.4-1.08,1.32-2.56,2.43-4.28
				c3.37-5.19,8.54-12.47,6.6-16.78c-0.88-1.96-2.53-4.69-4.31-7.43c-3.46-5.3-7.42-10.65-7.42-10.65l17.21-2.85
				c0,0,12.26,5.07,21.93,5.66c0.25,0.02,0.51,0.02,0.75,0.02c8.83,0.17,7.41-6.76,7.41-8.99c0-0.95-2.39-2.7-5.18-4.42
				c-3.99-2.45-8.82-4.85-8.82-4.85l2.62-5.42c1.82,0.33,3.33,0.39,4.57,0.24c6.7-0.73,5.78-7.33,4.69-10.2
				c-0.31-0.82-1.85-2.07-4.03-3.5c-6.89-4.54-20.07-10.86-20.07-10.86h-19.34l-19.03,51.95
				C90.66,272.39,104.85,279.76,104.53,292.79z"/>
			<path style="opacity:0.4;fill:#92E3A9;" d="M104.53,292.79c-0.33,13.02,6.12,11.97,6.12,11.97c0.4-1.08,1.32-2.56,2.43-4.28
				c3.37-5.19,8.54-12.47,6.6-16.78c-0.88-1.96-2.53-4.69-4.31-7.43c-3.46-5.3-7.42-10.65-7.42-10.65l17.21-2.85
				c0,0,12.26,5.07,21.93,5.66c0.25,0.02,0.51,0.02,0.75,0.02c8.83,0.17,7.41-6.76,7.41-8.99c0-0.95-2.39-2.7-5.18-4.42
				c-3.99-2.45-8.82-4.85-8.82-4.85l2.62-5.42c1.82,0.33,3.33,0.39,4.57,0.24c6.7-0.73,5.78-7.33,4.69-10.2
				c-0.31-0.82-1.85-2.07-4.03-3.5c-6.89-4.54-20.07-10.86-20.07-10.86h-19.34l-19.03,51.95
				C90.66,272.39,104.85,279.76,104.53,292.79z"/>
			<path style="opacity:0.4;fill:#92E3A9;" d="M104.53,292.79c-0.33,13.02,6.12,11.97,6.12,11.97c0.4-1.08,1.32-2.56,2.43-4.28
				c-0.23-1.21-0.37-2.51-0.35-3.79c0.08-4.46,3.74-12.99,3.74-12.99l-3.74-5.92c0.55-0.56,1.48-1.07,2.64-1.52
				c-3.46-5.3-7.42-10.65-7.42-10.65l17.21-2.85c0,0,12.26,5.07,21.93,5.66c0.25,0.02,0.51,0.02,0.75,0.02
				c-0.56-4.85,1.35-10.96,2.23-13.41c-3.99-2.45-8.82-4.85-8.82-4.85l2.62-5.42c1.82,0.33,3.33,0.39,4.57,0.24
				c-0.88-4.23-0.04-10.1,0.67-13.71c-6.89-4.54-20.07-10.86-20.07-10.86h-19.34l-19.03,51.95
				C90.66,272.39,104.85,279.76,104.53,292.79z"/>
			<g>
				<path style="fill:none;stroke:#263238;stroke-linecap:round;stroke-linejoin:round;stroke-miterlimit:10;" d="M109.69,220.44
					h19.35c0,0,22.81,10.94,24.1,14.37c1.29,3.42,2.34,12.05-9.27,9.97l-2.62,5.42c0,0,14,6.96,14,9.27c0,2.3,1.51,9.55-8.16,8.96
					c-9.67-0.58-21.92-5.66-21.92-5.66l-17.21,2.85c0,0,9.15,12.35,11.73,18.09c2.58,5.74-7.42,16.72-9.03,21.07
					c0,0-6.45,1.05-6.13-11.98c0.32-13.02-13.86-20.4-13.86-20.4"/>
				<path style="fill:none;stroke:#263238;stroke-linecap:round;stroke-linejoin:round;stroke-miterlimit:10;" d="M114.28,281.37
					c0,0-4.85-2.71-7.49,2.32"/>
			</g>
		</g>
		<g>
			<path style="fill:#92E3A9;stroke:#263238;stroke-linecap:round;stroke-linejoin:round;stroke-miterlimit:10;" d="M173.53,286.67
				H77.68c-5.12,0-9.26-4.15-9.26-9.26V97.71c0-5.12,4.15-9.26,9.26-9.26h95.84c5.12,0,9.26,4.15,9.26,9.26V277.4
				C182.79,282.52,178.64,286.67,173.53,286.67z"/>
			<path style="fill:#263238;" d="M179.24,96.49v182.64c0,2.28-1.85,4.13-4.13,4.13H76.1c-2.28,0-4.13-1.85-4.13-4.13V96.49
				c0-2.28,1.85-4.13,4.13-4.13h22c1.45,0,2.74,0.9,3.25,2.26l0.93,2.51c0.51,1.36,1.8,2.26,3.25,2.26h40.15
				c1.45,0,2.74-0.9,3.25-2.26l0.93-2.51c0.51-1.36,1.8-2.26,3.25-2.26h22C177.39,92.36,179.24,94.21,179.24,96.49z"/>
			<path style="fill:#92E3A9;stroke:#263238;stroke-linecap:round;stroke-linejoin:round;stroke-miterlimit:10;" d="M140.11,238.16
				h-29c-5.43,0-9.83-4.4-9.83-9.83l0,0c0-5.43,4.4-9.83,9.83-9.83h29c5.43,0,9.83,4.4,9.83,9.83l0,0
				C149.94,233.76,145.54,238.16,140.11,238.16z"/>
			<g>
				<path style="fill:#FFFFFF;stroke:#263238;stroke-linecap:round;stroke-linejoin:round;stroke-miterlimit:10;" d="M116.13,94.42
					c0,0.94-0.77,1.71-1.71,1.71c-0.94,0-1.71-0.77-1.71-1.71c0-0.94,0.77-1.71,1.71-1.71C115.37,92.71,116.13,93.48,116.13,94.42z"
					/>
				<path style="fill:#FFFFFF;stroke:#263238;stroke-linecap:round;stroke-linejoin:round;stroke-miterlimit:10;" d="M138.49,94.42
					c0,0.59-0.48,1.07-1.07,1.07c-0.59,0-1.07-0.48-1.07-1.07c0-0.59,0.48-1.07,1.07-1.07C138.01,93.35,138.49,93.83,138.49,94.42z"
					/>
				<path style="fill:#FFFFFF;stroke:#263238;stroke-linecap:round;stroke-linejoin:round;stroke-miterlimit:10;" d="M132.41,95.02
					h-12.82c-0.33,0-0.6-0.27-0.6-0.6l0,0c0-0.33,0.27-0.6,0.6-0.6h12.82c0.33,0,0.6,0.27,0.6,0.6l0,0
					C133.01,94.75,132.74,95.02,132.41,95.02z"/>
			</g>
			<path style="fill:#FFFFFF;stroke:#263238;stroke-linecap:round;stroke-linejoin:round;stroke-miterlimit:10;" d="M161.46,208.45
				H89.75c-6.9,0-12.49-5.59-12.49-12.49v-73.71c0-6.9,5.59-12.49,12.49-12.49h71.71c6.9,0,12.49,5.59,12.49,12.49v73.71
				C173.95,202.86,168.36,208.45,161.46,208.45z"/>
			<g>
				<g>
					<g>
						
							<line style="fill:none;stroke:#263238;stroke-linecap:round;stroke-linejoin:round;stroke-miterlimit:10;" x1="115.85" y1="151.51" x2="115.85" y2="136.68"/>
						
							<line style="fill:none;stroke:#263238;stroke-linecap:round;stroke-linejoin:round;stroke-miterlimit:10;" x1="115.85" y1="160.41" x2="115.85" y2="154.48"/>
						
							<line style="fill:none;stroke:#263238;stroke-linecap:round;stroke-linejoin:round;stroke-miterlimit:10;" x1="115.85" y1="165.96" x2="115.85" y2="162.78"/>
						<polyline style="fill:none;stroke:#263238;stroke-linecap:round;stroke-linejoin:round;stroke-miterlimit:10;" points="
							118.65,138.41 115.85,134.95 113.05,138.41 						"/>
					</g>
					<g>
						
							<line style="fill:none;stroke:#263238;stroke-linecap:round;stroke-linejoin:round;stroke-miterlimit:10;" x1="135.36" y1="146.01" x2="135.36" y2="131.18"/>
						
							<line style="fill:none;stroke:#263238;stroke-linecap:round;stroke-linejoin:round;stroke-miterlimit:10;" x1="135.36" y1="154.91" x2="135.36" y2="148.98"/>
						
							<line style="fill:none;stroke:#263238;stroke-linecap:round;stroke-linejoin:round;stroke-miterlimit:10;" x1="135.36" y1="160.46" x2="135.36" y2="157.28"/>
						<polyline style="fill:none;stroke:#263238;stroke-linecap:round;stroke-linejoin:round;stroke-miterlimit:10;" points="
							138.16,132.91 135.36,129.45 132.56,132.91 						"/>
					</g>
					<g>
						
							<line style="fill:none;stroke:#263238;stroke-linecap:round;stroke-linejoin:round;stroke-miterlimit:10;" x1="125.16" y1="136.05" x2="125.16" y2="121.22"/>
						
							<line style="fill:none;stroke:#263238;stroke-linecap:round;stroke-linejoin:round;stroke-miterlimit:10;" x1="125.16" y1="144.95" x2="125.16" y2="139.02"/>
						
							<line style="fill:none;stroke:#263238;stroke-linecap:round;stroke-linejoin:round;stroke-miterlimit:10;" x1="125.16" y1="150.5" x2="125.16" y2="147.32"/>
						<polyline style="fill:none;stroke:#263238;stroke-linecap:round;stroke-linejoin:round;stroke-miterlimit:10;" points="
							127.96,122.95 125.16,119.49 122.36,122.95 						"/>
					</g>
				</g>
				
					<ellipse transform="matrix(0.2282 -0.9736 0.9736 0.2282 -55.7988 243.3603)" style="fill:#92E3A9;stroke:#263238;stroke-linecap:round;stroke-linejoin:round;stroke-miterlimit:10;" cx="125.6" cy="156.88" rx="15.51" ry="15.51"/>
			</g>
			<g>
				<path style="fill:#263238;" d="M116.72,182.66c0.77,0,0.95-0.37,1.1-0.8h0.67v6.38h-1v-4.86h-0.77V182.66z"/>
				<path style="fill:#263238;" d="M119.62,183.39c0-1.02,0.54-1.6,1.52-1.6s1.52,0.58,1.52,1.6v3.32c0,1.02-0.54,1.6-1.52,1.6
					s-1.52-0.58-1.52-1.6V183.39z M120.63,186.77c0,0.46,0.2,0.63,0.52,0.63c0.32,0,0.52-0.17,0.52-0.63v-3.44
					c0-0.46-0.2-0.63-0.52-0.63c-0.32,0-0.52,0.17-0.52,0.63V186.77z"/>
				<path style="fill:#263238;" d="M123.23,183.39c0-1.02,0.54-1.6,1.52-1.6c0.98,0,1.52,0.58,1.52,1.6v3.32
					c0,1.02-0.54,1.6-1.52,1.6c-0.98,0-1.52-0.58-1.52-1.6V183.39z M124.24,186.77c0,0.46,0.2,0.63,0.52,0.63
					c0.32,0,0.52-0.17,0.52-0.63v-3.44c0-0.46-0.2-0.63-0.52-0.63c-0.32,0-0.52,0.17-0.52,0.63V186.77z"/>
				<path style="fill:#263238;" d="M126.84,183.39c0-1.02,0.54-1.6,1.52-1.6s1.52,0.58,1.52,1.6v3.32c0,1.02-0.54,1.6-1.52,1.6
					s-1.52-0.58-1.52-1.6V183.39z M127.85,186.77c0,0.46,0.2,0.63,0.52,0.63c0.32,0,0.52-0.17,0.52-0.63v-3.44
					c0-0.46-0.2-0.63-0.52-0.63c-0.32,0-0.52,0.17-0.52,0.63V186.77z"/>
				<path style="fill:#263238;" d="M131.5,187.27v0.97h-0.97v-0.97H131.5z"/>
				<path style="fill:#263238;" d="M132.15,183.39c0-1.02,0.54-1.6,1.52-1.6c0.98,0,1.52,0.58,1.52,1.6v3.32
					c0,1.02-0.54,1.6-1.52,1.6c-0.98,0-1.52-0.58-1.52-1.6V183.39z M133.15,186.77c0,0.46,0.2,0.63,0.52,0.63
					c0.32,0,0.52-0.17,0.52-0.63v-3.44c0-0.46-0.2-0.63-0.52-0.63c-0.32,0-0.52,0.17-0.52,0.63V186.77z"/>
				<path style="fill:#263238;" d="M135.76,183.39c0-1.02,0.54-1.6,1.52-1.6c0.98,0,1.52,0.58,1.52,1.6v3.32
					c0,1.02-0.54,1.6-1.52,1.6c-0.98,0-1.52-0.58-1.52-1.6V183.39z M136.76,186.77c0,0.46,0.2,0.63,0.52,0.63
					c0.32,0,0.52-0.17,0.52-0.63v-3.44c0-0.46-0.2-0.63-0.52-0.63c-0.32,0-0.52,0.17-0.52,0.63V186.77z"/>
			</g>
			<g>
				<path style="fill:#263238;" d="M108,194.14h1v6.38h-1V194.14z"/>
				<path style="fill:#263238;" d="M109.73,194.14h1.59c1,0,1.49,0.56,1.49,1.58v3.22c0,1.02-0.49,1.58-1.49,1.58h-1.59V194.14z
					 M110.73,195.05v4.55h0.56c0.32,0,0.51-0.16,0.51-0.62v-3.32c0-0.46-0.19-0.62-0.51-0.62H110.73z"/>
				<path style="fill:#263238;" d="M114.33,199.55v0.97h-0.97v-0.97H114.33z"/>
				<path style="fill:#263238;" d="M116.52,194.98c-0.32,0-0.52,0.17-0.52,0.63v0.68h-0.95v-0.62c0-1.02,0.51-1.6,1.49-1.6
					s1.49,0.58,1.49,1.6c0,0.85-0.31,1.53-1.24,2.52c-0.59,0.64-0.76,0.94-0.76,1.28c0,0.05,0,0.09,0.01,0.14h1.89v0.91h-2.9v-0.78
					c0-0.71,0.26-1.25,1-2.03c0.77-0.81,0.98-1.31,0.98-2C117.04,195.13,116.84,194.98,116.52,194.98z"/>
				<path style="fill:#263238;" d="M119.29,194.94c0.77,0,0.95-0.37,1.1-0.8h0.67v6.38h-1v-4.86h-0.77V194.94z"/>
				<path style="fill:#263238;" d="M123.72,200.59c-1.01,0-1.57-0.58-1.57-1.6v-0.5c0-0.61,0.18-1.08,0.62-1.32v-0.02
					c-0.42-0.23-0.62-0.65-0.62-1.28v-0.2c0-1.02,0.56-1.6,1.57-1.6s1.57,0.58,1.57,1.6v0.2c0,0.63-0.21,1.05-0.62,1.28v0.02
					c0.44,0.25,0.62,0.71,0.62,1.32v0.5C125.28,200.01,124.73,200.59,123.72,200.59z M123.15,196.06c0,0.51,0.24,0.67,0.56,0.67
					c0.32,0,0.56-0.16,0.56-0.67v-0.36c0-0.57-0.25-0.73-0.56-0.73c-0.32,0-0.56,0.15-0.56,0.73V196.06z M123.72,199.68
					c0.32,0,0.56-0.16,0.56-0.72v-0.59c0-0.5-0.21-0.72-0.56-0.72c-0.36,0-0.56,0.22-0.56,0.72v0.59
					C123.15,199.52,123.4,199.68,123.72,199.68z"/>
				<path style="fill:#263238;" d="M126.51,194.94c0.77,0,0.95-0.37,1.1-0.8h0.67v6.38h-1v-4.86h-0.77V194.94z"/>
				<path style="fill:#263238;" d="M132.44,198.93c0,1.07-0.49,1.66-1.53,1.66c-0.98,0-1.49-0.58-1.49-1.6v-0.16h0.95v0.23
					c0,0.46,0.2,0.63,0.52,0.63c0.36,0,0.56-0.17,0.56-0.78v-1.16h-0.02c-0.17,0.36-0.46,0.56-0.91,0.56
					c-0.74,0-1.11-0.52-1.11-1.46v-1.17c0-1.02,0.54-1.6,1.52-1.6c0.98,0,1.52,0.58,1.52,1.6V198.93z M131.44,196.75v-1.15
					c0-0.46-0.2-0.62-0.52-0.62c-0.32,0-0.52,0.16-0.52,0.62v1.15c0,0.46,0.2,0.63,0.52,0.63
					C131.24,197.38,131.44,197.21,131.44,196.75z"/>
				<path style="fill:#263238;" d="M134.01,198.46v0.59c0,0.46,0.2,0.62,0.52,0.62c0.32,0,0.52-0.16,0.52-0.62v-1.4
					c0-0.46-0.2-0.63-0.52-0.63c-0.32,0-0.52,0.17-0.52,0.63v0.19h-0.95l0.18-3.7h2.64v0.91h-1.75l-0.08,1.52h0.02
					c0.18-0.3,0.46-0.46,0.87-0.46c0.74,0,1.11,0.52,1.11,1.46v1.42c0,1.02-0.51,1.6-1.49,1.6c-0.98,0-1.49-0.58-1.49-1.6v-0.53
					H134.01z"/>
				<path style="fill:#263238;" d="M136.65,195.72c0-1.08,0.49-1.66,1.53-1.66c0.98,0,1.49,0.58,1.49,1.6v0.16h-0.95v-0.23
					c0-0.46-0.2-0.63-0.52-0.63c-0.36,0-0.56,0.17-0.56,0.78v1.16h0.02c0.17-0.36,0.46-0.56,0.91-0.56c0.74,0,1.11,0.52,1.11,1.46
					v1.17c0,1.02-0.54,1.6-1.52,1.6c-0.98,0-1.52-0.58-1.52-1.6V195.72z M137.65,197.9v1.15c0,0.46,0.2,0.62,0.52,0.62
					c0.32,0,0.52-0.16,0.52-0.62v-1.15c0-0.46-0.2-0.63-0.52-0.63C137.85,197.27,137.65,197.45,137.65,197.9z"/>
				<path style="fill:#263238;" d="M143.27,194.14v0.87l-1.48,5.5h-1l1.47-5.47h-1.99v-0.91H143.27z"/>
			</g>
			<g>
				<path style="fill:#263238;" d="M124.33,189.84h1.17v0.34h-0.4v2.07h-0.38v-2.07h-0.4V189.84z"/>
				<path style="fill:#263238;" d="M125.64,190.42c0-0.39,0.2-0.61,0.58-0.61c0.37,0,0.58,0.22,0.58,0.61v1.26
					c0,0.39-0.2,0.61-0.58,0.61c-0.37,0-0.58-0.22-0.58-0.61V190.42z M126.02,191.7c0,0.17,0.08,0.24,0.2,0.24
					c0.12,0,0.2-0.07,0.2-0.24v-1.3c0-0.17-0.08-0.24-0.2-0.24c-0.12,0-0.2,0.07-0.2,0.24V191.7z"/>
			</g>
			<g>
				<path style="fill:#263238;" d="M117.57,223.05c1.43,0,2.17,0.86,2.17,2.36v0.29h-1.39v-0.39c0-0.67-0.27-0.92-0.74-0.92
					c-0.47,0-0.74,0.25-0.74,0.92c0,0.68,0.29,1.19,1.26,2.03c1.23,1.08,1.62,1.86,1.62,2.93c0,1.5-0.75,2.36-2.19,2.36
					c-1.45,0-2.19-0.86-2.19-2.36v-0.58h1.39v0.67c0,0.67,0.29,0.91,0.76,0.91c0.47,0,0.76-0.24,0.76-0.91
					c0-0.68-0.29-1.19-1.26-2.03c-1.23-1.08-1.62-1.86-1.62-2.93C115.41,223.91,116.14,223.05,117.57,223.05z"/>
				<path style="fill:#263238;" d="M122.07,227.11h2.02v1.34h-2.02v2.74h2.54v1.34h-4.01v-9.37h4.01v1.34h-2.54V227.11z"/>
				<path style="fill:#263238;" d="M126.86,225.74h-0.03v6.78h-1.32v-9.37h1.85l1.49,5.61h0.03v-5.61h1.31v9.37h-1.51L126.86,225.74
					z"/>
				<path style="fill:#263238;" d="M131.23,223.16h2.33c1.47,0,2.19,0.82,2.19,2.31v4.74c0,1.5-0.72,2.32-2.19,2.32h-2.33V223.16z
					 M132.7,224.5v6.69h0.83c0.47,0,0.75-0.24,0.75-0.91v-4.87c0-0.67-0.28-0.91-0.75-0.91H132.7z"/>
			</g>
		</g>
		<path style="fill:none;stroke:#263238;stroke-linecap:round;stroke-linejoin:round;stroke-miterlimit:10;" d="M59.71,204.33
			c0,0,6.45,1.99,8.71,7.6"/>
		<g>
			<path style="fill:#FFFFFF;" d="M30.49,381.97c0.72-12.46,1.19-25.19,1.81-35.43c1.29-21.25,2.26-35.5,4.19-50.01
				c1.93-14.51,1.61-36.42,2.58-44.08c0.97-7.66,3.85-9.27,6.13-18.37c2.28-9.09,4.32-27.2,8.06-29.75
				c3.74-2.55,15.15-7.33,15.15-7.33v51.29c6.77,10.41,14.83,12.99,14.83,12.99c5.16-14.93,4.51-20.86,9.67-26.34
				c5.16-5.48,8.88-12.65,16.97-9.65c3.86,1.43,5.92,2.88,3.98,15.96c-1.93,13.08-5.8,17.18-5.8,17.18
				c-0.64,4.47,0.32,17.46,1.93,24.1s-4.51,24.31-7.42,35.59c-2.9,11.28-18.38,34.15-18.38,34.15s-0.64,12.6,0.64,25.82
				c0.12,1.21,0.27,2.51,0.44,3.87l1.02,35.11l-55.83-1.05V381.97z"/>
			<g>
				<path style="opacity:0.4;fill:#92E3A9;" d="M112.73,229.14c-0.31-1.12-0.26-1.85,0-2.32c-0.76-0.7-1.72-1.12-2.84-1.52
					c-8.1-3-11.82,4.17-16.98,9.65c-0.48,0.51-0.91,1.03-1.3,1.56c4.67-1.76,10.79-1.73,13.25,1.69
					C107.97,242.47,114.28,234.73,112.73,229.14z"/>
				<path style="opacity:0.4;fill:#92E3A9;" d="M77.75,369.39l-2.55,9.56c0,0,3.59-3.52,8.96-12.06c-0.26-8.34,0.06-14.6,0.06-14.6
					s15.48-22.87,18.38-34.15c2.9-11.29,9.03-28.95,7.42-35.59c-1.61-6.65-2.58-19.64-1.93-24.11c0,0,0.81-0.86,1.87-3.06
					c-0.7-0.68-1.52-1.23-2.43-1.43c0,0-4.14,9.8-3.14,22.71c1,12.89-1.21,13.97-5.48,30.73c-4.27,16.76-11.36,35.75-14.69,39.15
					C80.88,349.94,79.44,365.28,77.75,369.39z"/>
				<path style="opacity:0.4;fill:#92E3A9;" d="M71.64,256.44c0,0-5.09,0.79-7.13,2c0,0,9.93,2.59,10.57,5.35
					c0.64,2.75,2.77,5.63,6.54,2.26c0,0,0.2-2.11,0.59-5.18c-2.4-1.07-8.48-4.42-13.79-12.57v-51.3c0,0-5.64,2.36-10.29,4.65
					c3.45,0.46,6.98,1.52,8.35,3.85c0,0-1.04,4.29-5.8,6.43c-3.67,1.65,0,29.32,0,29.32s-6.01,1.48-7.95,7.05
					c0,0,9.89,1.01,13.97,4.15C70.79,255.58,71.64,256.44,71.64,256.44z"/>
				<path style="opacity:0.4;fill:#92E3A9;" d="M32.31,346.53c-0.51,8.3-0.9,18.22-1.42,28.32c1.27-19.19,5.13-52.14,5.13-52.14
					s3.45,12.18,3.71,10.89c0.77-3.81-1.61-25.37-1.4-33.05c0.1-3.48-0.15-12.4-0.46-21.11c-0.28,5.98-0.68,11.98-1.36,17.07
					C34.57,311.03,33.6,325.29,32.31,346.53z"/>
			</g>
			<g>
				<path style="fill:none;stroke:#263238;stroke-linecap:round;stroke-linejoin:round;stroke-miterlimit:10;" d="M30.49,418.4
					v-36.44c0.72-12.46,1.19-25.19,1.81-35.43c1.29-21.25,2.26-35.5,4.19-50.01c1.93-14.51,1.61-36.42,2.58-44.08
					c0.97-7.66,3.85-9.27,6.13-18.37c2.28-9.09,4.32-27.2,8.06-29.75c3.74-2.55,15.15-7.33,15.15-7.33v51.29
					c6.77,10.41,14.83,12.99,14.83,12.99c5.16-14.93,4.51-20.86,9.67-26.34c5.16-5.48,8.88-12.65,16.97-9.65
					c3.86,1.43,5.92,2.88,3.98,15.96c-1.93,13.08-5.8,17.18-5.8,17.18c-0.64,4.47,0.32,17.46,1.93,24.1s-4.51,24.31-7.42,35.59
					c-2.9,11.28-18.38,34.15-18.38,34.15s-0.64,12.6,0.64,25.82c0.12,1.21,0.27,2.51,0.44,3.87c0,0,0.52,22.67,2.99,36.44"/>
				<path style="fill:none;stroke:#263238;stroke-linecap:round;stroke-linejoin:round;stroke-miterlimit:10;" d="M83.25,261.28
					c0,0-1.61,7.19-4.84,8.8s-7.86,0-7.86,0"/>
				<path style="fill:none;stroke:#263238;stroke-linecap:round;stroke-linejoin:round;stroke-miterlimit:10;" d="M68.42,248.3
					c0,0-3.22-7.17-13.54-0.95"/>
				<path style="fill:none;stroke:#263238;stroke-linecap:round;stroke-linejoin:round;stroke-miterlimit:10;" d="M68.42,219.34
					c0,0-0.64-3.8-5.96-4.77"/>
				<path style="fill:none;stroke:#263238;stroke-linecap:round;stroke-linejoin:round;stroke-miterlimit:10;" d="M84.22,352.28
					c-6.13,7.76-4.96,15.18-7.32,19.05s-2.03,17.73-2.03,17.73"/>
				<path style="fill:none;stroke:#263238;stroke-linecap:round;stroke-linejoin:round;stroke-miterlimit:10;" d="M39.72,277.78
					c0,0,0,15.23,0,26.98c0,11.76,2.26,23.04,2.26,23.04"/>
				<path style="fill:none;stroke:#263238;stroke-linecap:round;stroke-linejoin:round;stroke-miterlimit:10;" d="M108.08,258.43
					c0,0,0-4.61-1.29-5.99"/>
				<path style="fill:none;stroke:#263238;stroke-linecap:round;stroke-linejoin:round;stroke-miterlimit:10;" d="M104.53,243.95
					c0,0-2.86-9.61-11.24-5.42"/>
				<path style="fill:none;stroke:#263238;stroke-linecap:round;stroke-linejoin:round;stroke-miterlimit:10;" d="M78.7,258.91
					c-6.22,0.13-12.54-2.63-16.24,0.73"/>
			</g>
		</g>
		<g>
			<path style="fill:#263238;" d="M29.59,407.85h-1.68v-38.24h1.68c1.09,0,1.98,0.89,1.98,1.98v34.29
				C31.57,406.97,30.68,407.85,29.59,407.85z"/>
			<path style="fill:#263238;" d="M27.91,374.57c0,0,29.56-7.73,57.93,1.08c0.9,0.28,1.51,1.13,1.51,2.07v18.14
				c0,0.68-0.61,1.19-1.28,1.07c-6.09-1.1-32.87-5.33-56.7,0.24L27.91,374.57z"/>
			<path style="fill:#92E3A9;stroke:#263238;stroke-linecap:round;stroke-linejoin:round;stroke-miterlimit:10;" d="M29.19,374.23
				v-4.09c0-1.35-1.09-2.44-2.44-2.44h-3.31c-0.84,0-1.61,0.46-2.01,1.19l-2.92,5.34v31.25L21.4,409c0.43,0.53,1.08,0.84,1.77,0.84
				h3.59c1.35,0,2.44-1.09,2.44-2.44V374.23z"/>
			<path style="fill:#92E3A9;stroke:#263238;stroke-linecap:round;stroke-linejoin:round;stroke-miterlimit:10;" d="M27.1,372.21
				l6.75-1.25c0.8-0.15,1.54,0.47,1.54,1.28v3.89l-2.23,1.66v12.66h2.23v6.6c0,0.76-0.54,1.42-1.28,1.57l-6.41,1.33
				c-0.96,0.2-1.86-0.54-1.86-1.52v-24.7C25.83,372.99,26.36,372.35,27.1,372.21z"/>
			<path style="fill:none;stroke:#263238;stroke-linecap:round;stroke-linejoin:round;stroke-miterlimit:10;" d="M27.35,398.23
				l5.5-1.26c0.41-0.09,0.7-0.46,0.7-0.88v-4.13"/>
			<polyline style="fill:none;stroke:#263238;stroke-linecap:round;stroke-linejoin:round;stroke-miterlimit:10;" points="
				31.3,390.25 31.3,376.7 33.51,375.02 33.51,372.48 			"/>
			
				<line style="fill:none;stroke:#263238;stroke-linecap:round;stroke-linejoin:round;stroke-miterlimit:10;" x1="22.37" y1="370.17" x2="22.37" y2="406.37"/>
			<path style="fill:#FFFFFF;" d="M49.07,384.3L49.07,384.3c-0.55,0-0.99-0.44-0.99-0.99v-2.16c0-0.55,0.44-0.99,0.99-0.99l0,0
				c0.55,0,0.99,0.44,0.99,0.99v2.16C50.06,383.86,49.62,384.3,49.07,384.3z"/>
			<path style="fill:#FFFFFF;" d="M64.3,384.7L64.3,384.7c-0.55,0-0.99-0.44-0.99-0.99v-2.16c0-0.55,0.44-0.99,0.99-0.99l0,0
				c0.55,0,0.99,0.44,0.99,0.99v2.16C65.29,384.26,64.85,384.7,64.3,384.7z"/>
			<path style="fill:#FFFFFF;" d="M77.85,386.37L77.85,386.37c-0.55,0-0.99-0.44-0.99-0.99v-2.16c0-0.55,0.44-0.99,0.99-0.99l0,0
				c0.55,0,0.99,0.44,0.99,0.99v2.16C78.84,385.93,78.4,386.37,77.85,386.37z"/>
		</g>
	</g>
	<g>
		<path style="fill:#263238;" d="M115.36,182.35h-1.6c0.28,0.22,0.48,0.54,0.54,0.99h1.05v0.48h-1.05c-0.1,0.99-0.88,1.62-2.12,1.65
			c0.75,0.78,1.58,1.77,2.39,2.77h-0.93c-0.75-0.91-1.46-1.75-2.37-2.72v-0.6h0.53c1.05,0,1.61-0.44,1.67-1.1h-2.21v-0.48h2.18
			c-0.14-0.56-0.65-0.84-1.49-0.84h-0.69v-0.63h4.07V182.35z"/>
	</g>
	<g>
		<path style="fill:#263238;" d="M130.61,150.2h-4.28c0.75,0.6,1.3,1.45,1.45,2.64h2.82v1.3h-2.8c-0.26,2.64-2.36,4.33-5.67,4.43
			c2.02,2.1,4.22,4.74,6.4,7.41h-2.49c-2.02-2.44-3.91-4.69-6.35-7.28v-1.61h1.43c2.8,0,4.3-1.17,4.48-2.95h-5.91v-1.3h5.83
			c-0.36-1.5-1.74-2.25-3.99-2.25h-1.84v-1.68h10.91V150.2z"/>
	</g>
</g>
</svg>
