<?xml version="1.0" encoding="utf-8"?>
<!-- Generator: Adobe Illustrator 24.3.0, SVG Export Plug-In . SVG Version: 6.00 Build 0)  -->
<svg version="1.1" id="Layer_1" xmlns="http://www.w3.org/2000/svg" xmlns:xlink="http://www.w3.org/1999/xlink" x="0px" y="0px"
	 viewBox="0 0 400 400" style="enable-background:new 0 0 400 400;" xml:space="preserve">
<g>
	<path style="fill:#2E2C2D;" d="M29.3,261.5c-0.53-2.9-2.92-4.53-4.54-6.7c-5.81-7.76-9.54-16.25-12.15-25.8
		c-3.77-13.82,4.1-24.3,7.71-35.94c4.34-13.98,12.66-26.26,18.68-39.57c3.23-7.14,9.62-12.7,16.5-17.03
		c10.86-6.84,21.61-13.85,32.69-20.31c7.15-4.17,15.24-1.67,22.08,0.31c14.91,4.33,29.37,10.24,44.2,14.99
		c5.31,1.7,10.71,3.99,14.95,7.89c2.75,2.53,6.86,2.7,9.17,6.25c1.09,1.68,1.82-0.65,1.85-1.93c0.08-3.48-1.64-6.87-2.97-9.52
		c-3.82-7.6-4.67-16-7.79-23.74c-1.8-4.46-2.2-9.49-3.15-14.28c-0.66-3.29-1.11-6.44-3.52-9.29c-2.46-2.92-0.69-6.98-1-10.53
		c4.56-3.14,4.56-3.14,0.72-9.02c-0.82,3.24-4.08,5.32-3.12,9.01c-5.56,14.49-17.98,22.01-30.34,29.42
		c-4.66,2.79-9.3,0.95-12.56-3.93c-2.11-3.16-6.28-3.83-7.93-8.05c-3.22-8.26,2.77-22.44,9.97-28.39
		c6.03-4.99,12.65-9.42,20.14-12.07c3.71-1.31,4.24-3.5,2.27-6.26c-5.53-7.72-2.98-16.11-1.9-24.18c0.48-3.54,4.07-5.3,7.87-6.1
		c5.6-1.17,10.52-0.69,14.37,3.98c0.58,0.71,0.82,1.74,1.47,2.35c2.18,2.09,3.25,5.79,6.65-0.19c4.44-7.82,13.93-10.35,22.06-12.54
		c7.8-2.1,15.99-0.63,23.81,3.42c5.41,2.81,9.61,5.1,9.37,11.88c-0.32,9.25-4.07,17.04-11,22.76c-6.34,5.24-12.73,10.75-21.44,12.25
		c-2.94,0.51-1.41,3.42-0.48,4.57c2.28,2.82,2.39,6.86,5.5,9.16c1.2,0.89,1.45,2.65,0.48,3.49c-1.21,1.06-2.76,0.66-3.74-0.97
		c-0.86-1.42-1.98-2.54-2.64-4.23c-3.21-8.25-8.57-12.04-15.66-9.49c3.6,3.61,7.06,7.15,10.6,10.62c2.02,1.98,2.79,4.61,4.01,7.03
		c0.5,0.98,0.99,1.61-0.33,2.1c-1.02,0.37-2.57,1.15-2.91-0.35c-1.42-6.39-6.99-9.22-11.03-13.35c-0.76-0.78-0.63-2.07-1.93-2.66
		c-1.52-0.69,0.46-4.21-2.11-3.78c-2.52,0.42-1.21,3.21-1.27,4.85c-0.35,8.62,8.75,17.55,17.56,17.48c1.91-0.02,3.86-0.22,5.71,0.1
		c1.51,0.26,4.05-2.48,4.42,0.93c0.32,2.85-2.5,1.29-3.83,1.89c-11.12,4.97-17.53-3.45-25.75-9.54
		c-0.59,16.01,4.19,29.98,8.85,44.52c6.2-4.9,3.25-12.15,6.98-16.95c1.8-2.31,3-5.27,6.74-4.73c0.87,3.1-2.38,3.64-3.45,5.54
		c-0.74,1.33-0.19,2.42,0.7,1.87c2.58-1.59,2.5-0.12,3.06,1.78c1.14,3.84,2.83,2.61,4.37,0.13c6.93-2.16,12.66-5.68,15.23-12.66
		c-6.89-2.5-12.61-1.15-17.43,3.81c-0.84-0.15-1.69-0.3-2.53-0.44c2.74-6.28,10.55-10.12,16.3-7.77c1.89,0.78,3.69,0.81,5.54,0.61
		c4.5-0.5,4.53,2.42,3.08,4.86c-5.32,8.92-13.07,15.42-23.56,15.97c-6.67,0.35-8.94,4.34-9.95,8.77
		c-1.67,7.35-1.22,15.02,2.21,22.06c1,2.05,2.48,2.29,4.27,0.25c8.56-9.73,19.44-16,30.65-22.38c9.74-5.54,20.28-6.96,30.43-10.27
		c2.75-0.9,6.09-0.41,9.1-0.05c11.3,1.35,22.54,3.35,33.87,4.24c10.01,0.78,16.58,7.63,24.57,12.06
		c18.29,10.14,33.21,24.75,49.34,37.66c12.44,9.96,17.55,24.85,20.9,40.1c0.41,1.85-0.61,3.56-1.27,5.36
		c-2.5,6.85-5.38,13.68-0.99,21.13c1.13,1.91,0.49,5.27-0.15,7.74c-2.86,11.03-6.06,21.97-8.12,33.2c-0.14,0.79-1.7,1.31-2.58,1.98
		c-2.28,1.74-5.1,3.09-3.65,6.94c0.9,2.39-1.38,3.57-2.85,4.37c-2.83,1.53-4.42,4.37-7.25,5.95c-1.67,0.93-2.95,3.67,0.84,4.2
		c2.94,0.4,1.71,1.6,1.23,3.29c-2.21,7.74-8.04,13.14-12.18,19.64c-4.62,7.24-9.67,14.09-15.67,20.22
		c-1.06,1.08-1.48,2.49-3.75,2.65c-9.95,0.68-18.05,6.14-25.44,12.04c-8.95,7.15-16.2,16.29-26.07,22.5
		c-6.35,3.99-13.28,6.7-20.37,8.28c-8.01,1.79-16.02,4.63-24.59,3.27c-3.81-0.61-7.51-2.37-11.75-0.31c-2.1,1.02-4.99-0.34-7.7-1.71
		c-7.67-3.85-14.7-10.17-23.96-9.45c-7.35,0.57-14.24,0.27-21.37-2.06c-4.95-1.62-10.53-0.78-15.35,2.09
		c-4.99,2.98-10.46,4.27-16.15,3.72c-2.41-0.23-4.73-0.08-6.68,0.78c-12.84,5.7-25.05,1.57-36.59-3.27
		c-6.96-2.92-10.98-9.99-11.65-18.01c-0.51-6.07-0.08-12.21-1.72-18.18c-0.15-0.53-0.3-1.28-0.05-1.68
		c5.13-8.27-1.57-6.55-5.95-7.44c-5.7-1.16-11.28-2.71-16.1-6.5c-5.52-4.34-10.76-9.13-15.79-13.86
		c-5.12-4.81-6.98-12.54-8.43-19.74c-1.37-6.79-3.92-13.11-7.5-19.02c-1.62-2.67-1.14-6.22-3.79-8.58c-0.37-0.33,0.8-3.49,3.27-3.46
		c0.57,0.48,1.14,0.97,1.72,1.47c1.69,3.73,1.83,8.13,4.77,11.39c5.37-6.29,4.83-8.44-3.05-12.61
		C31.82,262.1,31.15,261.22,29.3,261.5z M256.84,124.36c-1.44,0.28-3.57-0.52-3.5,2.19c-2.78,1.58-5.18,3.48-7.07,6.21
		c-1.57,2.26-3.79,4.07-6.22,0.5c-0.54-0.79,0.97-3.16-1.51-2.32c-1.2,0.41-3.21,0.2-3.22,2.5c-0.01,3.23-3.08,2.94-3.84,1.82
		c-2.51-3.7-4.16-0.22-5.04,0.71c-2.15,2.28-4.68,3.27-7.3,4.69c-4.57,2.48-9.37,5.9-12.85,9.44c-3.29,3.36-5.59,9.46-5.69,15.23
		c-3.17,3.21-4.92,6.82-3.25,11.46c0.16-3.21,4.69-4.32,3.69-7.99c1.95,0.4,2.42-3.62,4.43-1.86c2.11,1.86-0.03,3.89-1.14,5.24
		c-2.44,2.99-2.68,7.15-5.56,9.87c-0.4,0.38-0.4,2-0.16,2.11c4.49,2,1.63,3.61,0.04,5.78c-1.69,2.31-3.24,5-3.83,7.75
		c-0.5,2.31-3.98,6.48,2.35,6.91c2.3,0.16,1.35,2.02,0.79,2.99c-0.82,1.39-2.07,2.53-3.15,3.77c-1.5,1.73-0.94,2.74,1.18,2.69
		c1.6-0.04,3.07-0.32,4.67-1.32c6.88-4.27,12.19-10.33,18.21-15.54c1.64-1.42,2.84-2.11,4.79-1.79c-0.14,4.44-5.34,5.11-6.65,8.77
		c4.81-0.16,6.44-1.42,11.41-8.71c1.75-0.71,2.58,1.3,4.08,1.39c-1.69-0.34-1.85,0.8-1.74,1.96c0.03,0.35,0.68,0.92,1.03,0.92
		c1.41-0.03,1.05-1.19,1.11-2.05c0.19,0.01,0.39,0,0.57,0.05c2.03,0.48,6.11-7.92,6.17,1.42c0.01,0.8,1.62,0.95,1.86,0.53
		c1.08-1.93,4.34-1.34,4.56-3.51c0.16-1.53-1.68-2.56-3.14-3.56c-2.03-1.38-3.68-3.39-5.34-5.26c-3.34-3.74-6.31-7.65-3.93-13.5
		c8.55,13.35,8.51,13.4,20,21.03c2.12,1.41,4.85,1.81,6.24-1c0.85-1.72,0.91-4.07,3.55-2.75c2.57,1.28,0.44,2.72-0.34,3.99
		c-0.95,1.55-0.64,3.26,0.52,4.12c1.04,0.77,2.4,0.7,3.84-0.82c1.56-1.65,3.35-3.2,5.06-4.74c1.01-0.91,1.19-3.94,3.45-2.65
		c1.51,0.86,0.27,2.81,0.36,4.26c-2.64,2.21-6.36,3.47-6.79,7.61c-0.04,0.4,0.64,1.26,0.77,1.22c2.84-0.89,4.58-3.14,6.36-5.34
		c0.07-0.09-0.09-0.35-0.14-0.54c1.98-0.17,3.19-1.56,4.46-2.84c1.39,0.51,3.42-1.3,4.42,1.33c-3.47,2.7-6.94,5.36-10.35,8.09
		c-1.17,0.93-1.46,2.5-0.7,3.56c1.11,1.56,2.42,0.3,3.35-0.54c3.8-3.45,7.6-6.9,11.22-10.54c1.24-1.25,2.77-2.98,2.06-4.84
		c-1.01-2.62-3.53-1.44-5.52-1.42c-0.72-0.13-1.45-0.25-2.17-0.38c0.18-1.72-0.84-2.18-2.3-2.18c-4.35-8.45-6.75-17.35-7-26.93
		c-0.16-6.31,1.01-12.33,2.38-18.39c0.36-1.58,0.28-3.1,2.6-2.42c2.22,0.65,1.93,2.44,1.12,3.57c-1.72,2.41-2.14,5.61-1.27,7.55
		c3,6.68,0.98,13.76,2.54,20.47c-0.38,2.61,2.45,2.7,3.53,4.39c-0.45-2.34,2.27-5.18-1.49-6.71c0-5.53,0.04-11.05-0.01-16.58
		c-0.02-2.59,0.42-5.8,3.18-5.65c2.59,0.14,1.04,3.4,1.18,5.27c0.13,1.69-0.24,3.42-0.22,5.13c0.01,0.9,0.21,2.48,0.62,2.58
		c4.4,1.08,8.62,2.23,9.64,7.56c6.94-1.41,2.59,4.28,4,6.36c0,4.79,0,9.58,0,14.37c0.67,0,1.33,0.01,2,0.01c0-4.78,0-9.55,0-14.33
		c0.59-1.34,1.46-2.29,3.03-1.55c1.59,0.75,1.52,2.23,0.67,3.32c-1.36,1.74-1.47,4.83-0.25,4.8c4.99-0.11,3.36,3.2,3.79,5.7
		c0.51,2.96,1.28,5.91,3.03,8.5c1.57-1.06,1.23-2.31,1.27-3.37c0.06-1.48,0.21-2.8,2.15-2.34c1.63,0.38,3.31,1.81,2,3.14
		c-3.23,3.32,0.25,5.97,0.2,8.88c-0.07,4.21,4.73,1.48,5.81,4.46c0.29,0.79,2.88-1.29,3.93-2.93c2.34-3.63,4.82-7.18,7.37-10.66
		c0.61-0.83,1.56-2.08,2.81-1.39c1.09,0.61,1.18,2.48,0.63,3.04c-5.33,5.41-5.52,12.99-8.16,19.49c-2.47,6.08-4.58,12.48-5.37,19.17
		c-0.34,2.85,1.31,5.07,2.83,6.27c1.35,1.06,3.48-1.05,5.08-2.6c6.98-6.76,23.32-6.59,30.83,0.08c4.33,3.84,5.7,3.38,6.89-2.31
		c0.06-0.82,0.11-1.64,0.17-2.46c2.47-0.25,2.69-2.3,2-3.69c-0.63-1.25-2.46-1.31-4.09,0.06c0.4,1.39,3.44,1.51,2.2,3.72
		c-0.8,0.05-1.6,0.11-2.4,0.16c-3.32-3.22-7.32-5.69-11.78-6.03c-6.22-0.47-10.65-5.64-16.91-5.57c-1.33,0.01-3.61,1.05-3.56-1.36
		c0.03-1.73,1.83-2.74,3.74-2.88c1.74-0.13,3.21,0.41,4.84,1.15c5.55,2.51,11.04,5.44,18.42,5.44c-4.6-3.6-1.29-8.86-4.35-12.21
		c-1.74-1.9-1.87-4.11-1.72-6.37c0.1-1.48-1.01-3.98,1.43-4.14c2.39-0.16,2.59,2.14,2.83,4.16c0.3,2.46-0.58,5.08,2.3,7.1
		c6.31,4.42,12.93,3.13,16.12-3.63c2.94-6.25,1.11-11.91-5.26-14.51c-1.78-0.72-3.11-1.95-4.81-2.65c-1.75-0.71-1.96-2.63-1.36-3.75
		c1.1-2.09,2.46,0.41,3.79,0.29c0.53,1.64,1.92,1.9,2.78,0.83c0.95-1.19,0.43-2.41-1.47-2.29c0.63-2.98-1.23-5.14-2.84-7.07
		c-6.56-7.89-12.39-17.28-24.94-15.26c-3.67,0.59-7.24,1.86-10.79,3c-1.16,0.37-2.04,1.06-2.66-0.57c-0.61-1.6,0.04-2.03,1.52-2.83
		c2.76-1.49,5.52-2.22,8.61-2.18c1.54,0.02,3.08-0.21,3.6-2.11c0.44-1.63-0.68-2.29-1.7-3.22c-3.65-3.34-6.79-7.4-10.87-10.06
		c-4.59-3-9.29-8.4-15.79-2.9c-0.78,0.66-2.5,0.25-3.53-0.66c-0.34-1.6,1.3-2.25,1.86-2.56c3.68-2.04,2.01-3.93-0.17-5.3
		c-3.23-2.03-6.09-4.79-9.35-6.41c-3.11-1.54-6.85-7.15-10.9-1.19c-1.92,2.83-2.98,3.71-3.76-0.44c-0.18-0.96-0.25-1.87-1.53-1.96
		c-1.43-0.1-2.1,0.54-2.16,1.94c-0.14,3.52-2.8,3.16-4.98,2.93c-3.28-0.35-1.19-2.9-1.54-4.46c2.75-0.24,3.15-2.56,1.97-3.84
		c-1.11-1.21-3.83-2.01-4.57,1.26c-2.3,1.17-4.92,1.71-4.55,5.51c0.31,3.22-2.48,3.63-5.12,3.82c-3.55,0.25-4.09-1.72-3.72-4.55
		c1.73,0.26,2.36-0.61,2.26-2.22c1-0.11,2.32,0.18,2.2-1.47c-0.03-0.35-0.61-0.89-0.98-0.94c-1.42-0.19-1.8,0.76-1.83,1.96
		c-1.75,0.28-4.03-0.37-4.28,2.48c-2.17-0.52-3.06,1.51-3.78,2.59c-1.04,1.57-1.31,3.7-3.85,2.59c-2.57-1.13-0.77-3.21-0.81-4.89
		c1.86,0.5,2.35-0.41,2.12-2.06c0.64-0.15,1.27-0.29,1.91-0.44c2.6,0.29,3.17-2.55,5.12-3.4c0.84-0.36,2.98-1.09,1.92-2.72
		c-0.89-1.35-3.39-1.15-3.97-0.31c-0.96,1.38-3.54,1.61-3.07,4C258.78,122.14,256.65,121.63,256.84,124.36z M253.92,120.17
		c1.51-0.29,3.53,0.39,4.07-2.61c-1.93,0.34-4.05-1.73-5.07,1.54c-1.76,0.01-2.2,1.14-2.21,2.62c-4.13-0.06-6.66,2.48-8.8,5.53
		c-0.42,0.6-0.08,1.66,0.74,1.79c3.74,0.56,4.76-3.5,7.53-4.59c1.17-0.46,1.09-1.34,1.14-2.25
		C252.75,122.25,253.99,122.04,253.92,120.17z M139.64,140.94c2.97-0.72,2.69-2.93,1.67-4.73c-0.69-1.22-2.79-0.81-3.68-0.1
		c-2.31,1.84,2.12,2.26,1.1,4.03c-1.4,0.07-2.7,0.22-2.12,2.2c-2.92-0.1-7.37,2.16-6.28-4.09c2.98-0.7,4.06-3.64,5.91-5.52
		c1.59-1.61,0.7-3.75-2.35-3.9c-4.37-0.21-6.1,2.16-6.43,9.26c-2.22,0.45-5.18,1.44-6.38-0.46c-1.53-2.42,1.7-4.15,2.84-6.15
		c0.34-0.6,1.13-1.31,1.73-1.96c0.69-0.74,2.54-1,1.54-2.37c-0.77-1.05-3.07-1.19-3.57-0.27c-1.43,2.64-5.35,3.4-5.2,7.15
		c0.11,2.71-2.74,2.01-4.03,3.16c-0.63,0.55-1.7-0.19-2.29-1.11c-1.34-2.08,1.31-2.26,1.63-3.58c0.56-2.3,3.04-2.98,4.28-4.69
		c1.03-1.41,1.48-3.18,0.42-4.77c-0.9-1.34-3.28-1.07-3.5-0.48c-1.94,5.31-8.55,6.46-10.23,12.53c-2.88-5.49-5.47-10.44-12.63-8
		c-1.11,0.38-0.99-1.71-1.22-2.75c0.82-0.15,1.98,0.23,2.07-1.13c0.07-1.05-0.81-1.17-1.48-0.95c-1.19,0.4-0.98,1.3-0.47,2.17
		c-2.6-1.91-4.48-2.93-8.22-0.68c-7.12,4.28-13.62,9.55-21.16,13.2c-2.81,1.36-5.67,3.77-7.07,6.45c-1.02,1.94,2.37,3.79,3.62,5.8
		c0.87,1.41,1.17,3.1,0.39,4.28c-1.06,1.62-2.72,0.15-4.13-0.02c0.89-3.09-0.37-5.44-3.18-6.29c-3-0.91-4.36,1.77-6,3.74
		c5.3,2.67,5.32,2.69,6.72,5.53c0,0,0,0,0,0c-0.79,0.06-1.58,0.13-2.37,0.19c-2.23,0.01-4.47,0.02-6.7,0.03
		c-1.81-0.38-2.38,0.49-2.17,2.15c-3.21,5.48-4.56,11.89-8.69,16.94c-0.87,1.07-1.61,3.81,1.47,3.37c4.79-0.68,4.27,2.39,4.55,5.37
		c0.47,5.14-4.36,6.05-6.97,8.43c-1.8,1.65-2.27,3.01-1.62,4.71c2.29,5.96,4.84,11.82,7.34,17.85c4.21-4.39,5.32-8.95,2.3-14.14
		c-1.48-2.56-0.15-3.13,2.22-3.57c5.09-0.93,10.51-0.63,15.25-2.87c9.73-4.6,17.2-2.62,22.4,6.42c0.72,1.25,1.4,2.5,2.16,3.71
		c2.07,3.27,2.52,2.72,3.56-0.53c1.61-5.07-1.72-9.83-0.27-15.02c1.08-3.88-0.98-6.53-5.7-5.66c-3.91,0.72-7.05-2.07-10.75-2.6
		c-1.94-0.28-2.76-2.29-2.42-4.55c0.37-2.44,2.15-1.96,3.45-1.65c2.3,0.56,5.02-1.84,7.1,1.46c0.7,1.11,3.92,1.41,5.24-0.05
		c0.98-1.08-0.08-2.88-0.82-4.51c-1.35-2.98-3.74-5.74-3.45-9.3c0.11-1.32-1.07-3.45,1.13-3.78c2.03-0.31,1.3,1.9,1.66,2.97
		c1.16,3.46,4.67,3.87,7.19,5.15c1.78,0.91,1.05-2.67,2.58-3.55c2.24-1.3,0.96-2.87,0.01-4.2c-1.71-2.39-1.68-4.61,0.12-7.24
		c2.74,6.47,9.1,10.5,8.48,17.61c1.61,0.38,1.86-0.61,2.47-0.89c1.76-0.79,3.81-2.68,5.49-1.28c2.12,1.77-0.87,3.14-1.37,4.76
		c-1.43,4.67-5.42,8.41-5.01,13.78c0.07,0.89-0.44,1.97,0.78,2.38c1.26,0.43,1.39-0.68,1.93-1.44c4.27-6.06,7.42-12.59,8.97-19.88
		c0.27-1.28-0.52-3.37,1.95-3.36c3.14,0,2.17,2.42,2.34,4.15c-3.68,0.92-1.51,3.05-0.93,5.01c0.67-2.08,3.91-2.2,3.37-5.02
		c0.43-2.07,0.2-5.02,3.4-4.52c2.77,0.43,0.78,3.04,1.29,4.58c-3.32,2.11-4.06,5.55-4.65,9.06c-2.44,1.25-4.52,2.81-4.53,5.89
		c0,0.97,1.05,1.31,1.6,0.93c2.17-1.48,3.7-3.44,3.7-6.26c3.92-2.05,5.35-5.64,6-9.71c0.42-2-0.53-4.98,3.04-4.84
		c2.65,0.1,1.69,2.21,1.26,3.38c-2.97,8.19-7.02,15.81-12.73,22.44c-1.9,2.21-3.12,7.24-7.36,2.19c-0.3-0.36-1.86,0-2.62,0.41
		c-2.44,1.33-4.51,3.1-7.8,2.48c-0.9-0.17-4.29,2.32-1.24,4.75c3.41,2.71,4.23,6.51,4.85,10.45c-0.87,5.17,2.86,9.11,3.43,13.93
		c1.62-4.9,1.99-9.58-1.23-13.87c0.02-0.95,0.05-1.9,0.05-2.85c0.01-1.91,0.63-3.62,2.77-3.55c2.23,0.07,1.81,2.25,1.62,3.46
		c-0.77,4.93,2.92,9.01,2.41,13.86c-0.27,2.56,1.45,4.15,3.55,4.9c1.79,0.63,2.86-1.03,4.08-2.2c2.34-2.26-0.83-3.46-1.31-4.29
		c-3.3-5.68-5.2-11.33-3.32-17.97c4.45,2.74,3.37,7.09,4.11,10.82c-0.18,2.94,2.12,4.57,3.53,6.75c0.44-3.25,2.45-6.63-1.28-9.2
		c-0.07-2.29,1.76-2.08,3.07-2.06c1.6,0.02,1.06,1.54,1.3,2.51c0.44,1.75-1.05,4.23,1.84,5.09c-0.41,2.24,0.23,4.18,1.54,6.39
		c2.17-2.2,4.42-3.78,2.52-6.89c0.75,0.05,1.53,0,2.26,0.16c1.17,0.25,0.77,2.93,2.77,1.93c1.95-0.98,0.68-2.7,0.7-4.08
		c0.05-2.66-0.09-5.31-0.15-7.97c-0.03-1.25,0.72-1.76,1.79-1.5c0.71,0.18,2.53,0.31,1.54,1.48c-1.9,2.26,0.46,3.48,0.89,5.08
		c0.44,1.65-0.97,4.9,2.62,4.48c2.44-0.29,4.23-1.85,4.37-4.62c0.06-1.14,0.96-3.04,1.48-2.21c2.77,4.37,6.76,0.65,10.11,1.88
		c4.47,1.64,9.69,0.8,14.39,2.57c2.18,0.82,3.82-0.47,5.04-2.36c0.85-1.31,1.15-2.37,0.63-4.08c-2.04-6.7-5.42-13.23-3.61-20.62
		c4.77-3.66,7.66-13.43,5.08-18.83c-2.8,6.25-6.21,11.78-5.44,18.64c-5.49,0.09-5.6-0.02-3.14-4.75c1.11-2.14,0.81-4.4,0.93-6.64
		c3.41-0.62,1.2-4.89,3.89-5.98c-0.43-0.26-0.84-0.7-1.3-0.76c-3.39-0.44-1.9,3.21-3.42,4.14c-1.2,0.73-1.62,1.41-1.38,2.66
		c-0.67,1.36,0.5,3.71-2.06,4.02c-0.64,0.08-1.7-0.15-1.95-0.59c-0.89-1.56-1.01-3.39,0.21-4.77c0.92-1.04,1.8-1.87,1.32-3.36
		c1.69,0.22,2.39-0.55,1.96-2.16c-0.08-0.31-0.97-0.74-1.17-0.61c-1.11,0.68-0.73,1.84-0.69,2.87c-4.96,0.14-4.76-3.15-4.36-6.57
		c2.14,0.11,3.16-0.52,1.8-2.72c0.36-1.73-0.35-2.46-2.05-2.05c-4.19,1.02-5.27-1-4.69-4.71c3.03-0.93,3.21-2.85,1.39-4.96
		c-0.6-0.69-1.77-2.65-3.07-0.96c-1.75,2.27,0.62,3.44,1.76,4.91c0.18,0.23,0.02,0.72,0.01,1.1c-5.34,2.07-6.65,1.15-6.65-4.65
		c3.66-0.63,2.04-3.22,1.89-5.22c-0.06-0.82-0.72-1.56-1.48-1.01c-1.31,0.94-2.9,1.8-2.86,3.83c0.01,0.75-0.15,1.5-0.23,2.25
		c-7.96,4.35-2.98-3.44-5.06-4.93c-1.58,0.66-3.26,1.98-3.79,3.89c-0.57,2.05-1.23,3.83-3.54,3.24c-2.27-0.59-0.83-2.81-1.13-4.29
		C139.16,144.71,139.21,142.69,139.64,140.94z M191.66,293.9c-1.95,1.42-3.45,2.93-1.09,5.28c2.26-1.55,0.12-3.71,1.01-5.37
		c0.59-0.32,1.18-0.63,1.77-0.95c-0.2-0.22-0.4-0.45-0.6-0.67C192.38,292.76,192.02,293.33,191.66,293.9z M317.59,280.08
		c-2.98-2.77-5.09-2.21-6.76,2.65c2.45-2.04,5.73,2.22,6.88-2.52c2.6-1.62,2.6-1.62,0.39-4.83
		C317.9,277.22,317.75,278.65,317.59,280.08z M214.55,381.1c-1.5-3.08-3.66-2.48-5.99-1.29c2.58,0.09,3.56,3.23,6.1,3.15
		c0.35,0.13,0.79,0.17,1.04,0.41c1.48,1.38,2.96,2.74,5.2,2.06c0.33-0.1,0.76-1.17,0.64-1.31c-1.47-1.53-2.65-3.62-5.31-3.2
		C215.67,381.01,215.11,381.05,214.55,381.1z M256.03,229.94c3.21,0.59,4.13,3.75,6.21,5.61c1.24,1.11,2.46,1.83,2.69-0.15
		c0.21-1.81,0.72-5.87-0.46-5.4c-3.38,1.34-5.83-6.82-8.92-0.57c-1.43-1.01-2.98-1.88-4.24-3.07c-1.11-1.04-1.6-1.2-2.3,0.33
		c-1.49,3.24,3.03,3.87,2.79,6.67c-0.07,0.81,1.54,0.99,2.42,0.74C256.41,233.48,255.85,231.52,256.03,229.94z M214.53,138.08
		c5.35-3.28,9.18-8.05,13.42-13.14c-5.45,0.77-12.33,7.9-13.33,13.24c-2.72-1.04-4.02,1.24-5.73,2.5c-1.47,1.09-1.79,2.88-0.56,3.87
		c1.44,1.17,2.52-0.99,2.98-1.75C212.29,141.17,214.73,140.48,214.53,138.08z M223.86,325.99c-0.94,4.34-3.09,8.39-2.76,13.05
		c0.12,1.64-0.24,3.09,2.02,3.16c2.03,0.06,4.6,0.67,4.98-2.21c0.56-4.22,2.69-7.84,4.08-11.72c1.53-4.28-0.25-4.96-3.78-4.69
		c-0.44-2.27-0.2-4.37,2.19-5.96C224.3,316.71,222.57,319.09,223.86,325.99z M296.93,206.7c-4.06,1.34-5.56,5.47-8.56,7.98
		c-0.69,0.58-1.06,2.1-0.22,3.15c0.25,0.32,1.21,0.51,1.48,0.3c3.49-2.7,8.48-3.84,9.65-9.02c2.23-1.6,4.22-4.34,3.75-6.41
		c-0.69-3.03-4.25-2.43-7.02-2.82c-3.83-0.55-6.56,0.49-8.59,3.51c-2.72,4.04-9.94,5.58-7.06,12.86c0.34,0.85-2.39,2.76-0.41,3.66
		c1.79,0.81,2.58-1.19,3.41-2.86c2.16-4.35,5.21-8.11,8.91-11.32C294.32,203.94,296.27,202.09,296.93,206.7z M264.64,376.44
		c-0.21-2.26-0.47-4.63,1.17-6.44c0.71-0.79,2.18-1.13,1.22-2.45c-0.82-1.13-2.66-0.61-3.01,0c-0.92,1.64-4.2,1.41-3.38,4.29
		c-0.48,3.23-2.39,5.41-5.56,4.4c-4.02-1.27-7.92-2.31-12.17-2.15c-1.03,0.04-0.81-1.46-0.83-2.36c3.93-1.79,6.38-5.22,9.67-8.14
		c-8.13-2.43-10.68-0.65-12.2,7.99c-1.5,0.07-3.01,0.14-4.51,0.22c-1.37-3.95,2.03-5.76,3.96-8.27c-4.86-1.16-5.84-0.11-6.11,6.24
		c-1.64-1.45-8.01,2.69-4.99-4.24c-0.67-0.22-1.36-0.67-2.01-0.61c-1.74,0.15-2.44-0.61-2.43-2.25c0.51-1.88,0.18-3.96,2.23-5.43
		c0.72-0.52,1.16-3.04-0.93-3.59c-1.62-0.42-3.06,0.41-3.18,2.26c-0.15,2.23-0.01,4.49,0,6.73c-0.48,2.26-4.21,4.38-2.2,6.27
		c4.33,4.07,1.86,5.19-2.56,6.74c5.62-1.12,9.4,2.3,13.73,3.53c4.84,1.37,10.08,0.23,14.32,2.26c6.62,3.18,12.42,1.81,18.8-0.28
		C268.01,379.76,265.86,378.3,264.64,376.44z M377.27,252.74c4.57-4.4,5.89-11.12,2.81-16.3c-0.47,5.39-5.61,8.54-5.07,13.95
		c-1.54,3.45-2.9,7-4.66,10.34c-4.57,8.67-9.56,17.1-19.29,20.96c-3.94,1.57-9.23,1.3-12,3.9c-6.96,6.53-12.84,14.23-19.72,22.11
		c1.85-0.14,3,0.09,3.81-0.34c12.3-6.44,24.78-12.43,34.95-22.44C367.42,275.75,374.91,265.88,377.27,252.74z M216.89,312.33
		c3.46,0.16,2.71-2.28,2.63-4.28c-0.09-2.16-1.61-2.37-3.34-2.97c-3.83-1.32-5.81,2.63-9.27,2.62c-11.59-0.05-16.9,6.23-15.28,17.52
		c1.05,7.29,5.32,10.97,12.19,10.1c2.15-0.27,3.4,0.11,5.26,1.4c4.78,3.3,7.63,2.49,8.99-3.22c1.43-6.01,4.46-12.56-0.89-18.49
		c-0.49-0.54-0.14-1.84-0.19-2.78L216.89,312.33z M138.75,305.41c-0.57-1.55,1.47-3.89-1.3-4.68c-0.72-0.2-2.23,0.3-2.45,0.85
		c-0.7,1.72-0.37,3.31,1.89,3.72c-4.18,4.83-3.42,10.4-2.39,16c-0.42,2.87-0.43,2.92-2.95,2.48c-0.9-0.16-1.51,0.04-1.59,0.9
		c-0.1,1.08-0.38,2.76,0.76,2.99c2.12,0.43,4.87,1.93,5.99-1.67c5.14,0.14,9.65-2.22,14.39-3.65c3.8-1.15,7.85-2.13,11.53-0.89
		c3.53,1.18,5.85,0.58,6.13-3.4c0.25-3.6-0.18-7.26,0.09-10.86c0.41-5.52-2.41-8.61-6.7-11.61c-4.59-3.21-10.08-0.6-14.83-3.43
		c-1.79-1.06-1.47,4.44-1.21,4.76c3.49,4.38-0.15,6.74-2.09,9.85c-1.05,1.69-1.51,3.64-3.87,3.02
		C137.72,309.16,139.89,306.68,138.75,305.41z M116.21,312.29c-3.74-0.07-4.95,5.18-9.07,4.31c-0.28-2.7-0.55-5.4-0.84-8.16
		c-3.93,0.63-4.36,3.08-3.91,6.06c-2.87,3.58-5.44,5.01-6.83-1.04c-0.33-1.44-0.99-1.59-2.41-1.35c-4.17,0.7-5.28-0.86-2.88-4.49
		c0.71-1.07,1.14-2.15-0.5-2.54c-1.02-0.25-3.11-0.34-3.02,0.53c0.57,5.76-4.36,3.85-7.73,4.96c3.71,3.89,2.07,7.25,0.29,10.62
		c-3.32-0.12-1.82-2.65-2.02-4.22c-0.39-2.96,0.47-6.13-1.37-9.57c-3.5,8.59,0.22,15.71,1.91,23.01c0.04,0.15,1.05,0.08,1.6,0.11
		c3.12,0.71,6.21,1.82,9.37,2.06c12.15,0.9,24.24,0.18,36.22-2.14c1.05-0.2,2.38,0.01,2.05-1.84c-0.68-3.89-1.51-7.78-1.83-11.71
		c-0.22-2.67-1.08-3.06-3.54-2.56c-2.05,0.41-5.08,2.08-5.6-2.11c2.58-0.02,1.93-2.27,2.59-3.66c0.88-1.85,4.73-3.81,1.19-5.51
		c-2.34-1.13-4.07,2.7-5.62,4.63C112.52,309.84,116.4,310.35,116.21,312.29z M141.29,360.28c-0.16,1.39,0.49,3.39-1.45,3.62
		c-0.51,0.06-2.25-1.24-3.14-2.63c-3.73-5.85-4.51-12.95-8.37-19.08c1.14,2.79-4.66,1.49-2.22,4.23c1.36,1.53,1.41,2.89,0.54,3.9
		c-0.93,1.09-2.66,1.15-4.28,0.9c-2.39-0.37-1.95-2.25-1.76-3.5c0.43-2.93-0.6-3.66-3.38-3.37c-3.24,0.33-2.61,2.66-1.85,4.07
		c1.06,1.96,0.42,2.26-1.14,3.29c-1.5,1-1.86,0.6-3.09-0.27c-1.58-1.13-2.29-1.71-0.7-3.37c0.74-0.77,1.26-2.26,0.26-3.06
		c-1.01-0.82-2.72-0.91-3.62,0.15c-0.76,0.89-3.24,2-1.99,2.83c4,2.66-0.19,4.31-0.91,4.84c-1.73,1.29-3.66,0.93-4.79-1.74
		c-0.53-1.24-9.69,0.14-9.41,0.97c1.07,3.1,1.64,6.2,4.68,8.74c2.79,2.33,3.91,0.08,4.4-0.8c2.12-3.78,3.69-1.3,4.57,0.45
		c2.59,5.14-0.24,11.09,2.07,16.44c0.35,0.81-2.02,2.87,0.23,3.51c1.66,0.48,4.39,1.67,5.37-1.02c0.67-1.83,1.28-3.01,3.33-3.13
		c2.67-0.15,5.93,0.75,6.1-3.76c0.03-0.89,1.55-1.09,2.14-0.01c3.47,6.31,7.6,0.86,11.25,0.42c4.65-0.55,6.54-5.89,12.2-6.72
		c7.66-1.13,15.88-2.66,20.14-12.16c2.44-5.43,1.39-8.41-1.23-12.18c-3.25-4.67-7.4-5.44-12.07-2.45c-0.95,0.61-1.79,1.49-2.81,1.84
		c-8.6,2.94-9.02,4.35-5.22,12.46c0.78,1.66,4.13,5.73-1.59,6.6c-0.09-4.9-4.03-7.57-6.42-12.68
		C135.87,353.87,137.47,357.49,141.29,360.28z M326.87,330.55c-2.75,0.42-5.45,4.29-7.95,1.59c-2.17-2.36-4.46-2.12-6.52-1.77
		c-3.83,0.65-7.51-3.8-11.38-0.06c-0.79,0.76-2.08-0.46-2.97-1.19c-1.13-0.93-2.63-1.45-3.7-0.55c-3.69,3.1-4.71,1.65-4.58-2.38
		c0.03-0.88,0.15-2.01-1.24-2.1c-1.13-0.07-2.35-0.21-2.62,1.39c-0.47,2.88-2.08,4.73-5.06,4.83c-4.11,0.14-0.69-4.38-3.62-5.59
		c-2.23,2.15-2.3,7.96-7.75,5.82c-0.65-1.52-0.41-3.27,0.52-4.22c0.97-0.99,2.23-1.53,1.14-3.01c-0.91-1.24-2.01,0.11-3.01,0.19
		c-1.69,0.14-1.94,1.33-1.25,2.84c0.3,0.65,0.26,1.46,0.38,2.19c-2.55-1.3-4.91,4.65-6.85,0.76c-1.38-2.77-2.94-2.46-5.14-3.02
		c-3.48-0.9-6.66-2.28-10.2-0.28c-0.8,0.45-1.69-0.44-2.43-1.1c-2.88-2.54-4.31-1-5.24,1.94c-1.95,6.19-2.65,12.8-6.41,18.41
		c-0.62,0.93-0.7,3.65,1.72,3.07c2.32-0.56,5.82-1.01,6.39-3.32c1.31-5.35,3.43-1.49,4.55-0.5c1.09,0.96,2.43,1.71,3.32,2.76
		c2.52,2.97,6.35,1.56,9.45,3.06c2.52,1.22,6.18,4.74,8.67,2.42c5.04-4.7,4.35,3.86,7.01,2.51c3.19-1.62,5.02,0.58,7.43,1.61
		c3.67,1.57,7.11,1.85,10.19-1.79c3.78-4.47,7-9.02,7.2-15.13c0.04-1.25-0.17-2.99,1.99-2.5c0.75,0.17,1.98,0.1,1.93,1.53
		c-0.15,3.78,2.31,7.22,0.98,11.2c5.46-1.24,9.97-3.6,14.39-6.02c5.41-2.96,12.56-4.86,10.55-13.66c3.87,0.15,4.02-4.03,6.43-5.65
		c0.8-0.54,1.46-2.54,0.13-3.55c-1.35-1.02-2.86-0.33-4.05,0.68C326.57,324.24,326.43,327.33,326.87,330.55z M22.18,218.27
		c-0.27-3.48-1.84-6.47-4.25-9.53c-0.24,2.32-0.49,4.63-0.73,6.95c-2.44,0.04-1.98,2-1.97,3.33c0.05,5.89,1.69,11.59,3.49,17.04
		c5.3,15.98,17.75,26.46,30.19,36.56c11.62,9.43,24.95,15.47,40.13,17.28c2.56,0.31,4.97-0.82,7.39,0.12
		c7.88,3.08,15.96,0.64,24.93,1.47c-4.23-5.34-4.14-11.13-6.16-16.14c-1.86-4.63-0.72-8.57,0.79-12.59
		c1.66-4.42,4.96-6.62,9.92-5.73c0.68,0.12,1.48-0.22,2.19-0.47c8.76-3.05,17.39-1.24,25.99,0.76c1.46,0.34,2.72,2.08,2.12,3.36
		c-0.61,1.3-2.54,1.76-3.89,0.34c-2.02-2.11-4.59-1.48-6.98-1.56c-8.31-0.26-16.64-0.46-24.65,2.42c-1.23-0.04-2.29,0.17-2.21,1.75
		c0.3,5.91-1.56,12.04,1.82,17.65c0.68,1.12-0.49,3.74,1.77,3.37c2.44-0.4,1.04-2.81,0.95-4.24c-0.26-3.86-3.2-7.21-2.28-11.33
		c1.7-0.46,3.71,0.06,3.69,1.63c-0.06,5.7,4.49,10.52,2.91,16.46c-0.4,1.51-1.18,4.05,1.28,4.06c4.39,0.03,8.75,1.31,13.27-0.95
		c4.01-2.01,7.69-7.09,10.26-7.16c8.03-0.2,5.59-9.89,11.68-10.75c-0.09-0.34-0.08-0.88-0.29-0.99c-3.26-1.63-2.29-4.9-1.89-7.03
		c2.08-10.96-9.91-18.94-19.61-18.57c-7.37,0.28-14.79,0.09-22.13-0.54c-3.74-0.32-10.4,2.06-10.55,5.46
		c-0.26,5.93-4.12,6.28-8.4,6.45c-3.99,0.16-8,0.09-11.98,0.38c-2.6,0.19-5.35,0.57-3.29,4.54c0.65,1.26,1.78,3.54-0.58,4.19
		c-2.28,0.63-3.35-1.09-3.42-3.36c-0.04-1.12-0.22-2.23-0.47-4.54c-4.18,4.21-7.87,5.14-10.54-0.59c-0.19-0.42-1.79-0.27-2.72-0.23
		c-2.48,0.1-4.62-0.17-4.7-3.38c-0.03-1.19-0.74-1.72-1.85-1.52c-7.77,1.4-10.58-3.31-11.94-9.72c-0.25-1.2-0.83-1.65-1.9-1.38
		c-1.4,0.35-0.63,1.14-0.54,2.07c0.35,3.5-3.41,2.08-3.48,1.71c-0.98-4.61-6.89-4.37-8.25-8.9c-0.63-2.09-1.99-5.87-6.25-4.73
		c-0.96,0.26-2.25-1.28-2.04-2.36C28,224.45,24.09,221.82,22.18,218.27z M324.48,288.35c-4.17,1.53-8.19,5.94-11.28-0.78
		c-0.12-0.26-0.64-0.49-0.95-0.47c-4.58,0.33-5.56-2.24-5.39-6.17c0.02-0.53-0.37-5.47-3.67-1.32c-0.47,0.59-7.04,1.83-8.25-1.15
		c-2.45-6.03-7.94-7.41-12.39-10.59c-4-2.86-5.94-1.11-7.97,1.98c-0.63,0.97-0.18,2.78-2.2,2.71c-0.75-2.34-1.41-4.3,0.7-6.65
		c2.44-2.73,1.14-3.75-2.45-4.16c-8.31-0.93-16.09,1.49-23.83,3.43c-5.44,1.36-11.92-0.14-16.31,4.83c0.39,1.07,1.27,0.97,1.94,0.91
		c10.83-0.97,20.27,3.08,29.67,7.75c2.71,1.34,3.64,3.15,2.64,5.26c-3.58,7.56-3.11,16.51-8.24,23.49c-0.84,1.14-0.9,2.07,0.72,2.45
		c2.84,0.66,5.23,2.54,8.44,2.32c4.44-0.31,8.78-0.89,13.42-0.26c7.56,1.02,15.32,0.42,22.8,2.65c2.81,0.84,5.54-3.31,8.58-0.36
		c0.11,0.1,1.52-0.65,1.74-1.22c2.98-7.75,9.3-13,14.13-19.37c3.75-4.95,2.81-7.79-1.79-10.75c-0.71-0.46-1.39-0.9-1.95-0.47
		c-0.48,0.37-0.67,1.25-0.78,1.94C321.53,286.15,323.34,286.72,324.48,288.35z M167.01,48.74c3.77-4.7,10.34-7.62,8.82-15.17
		c-0.14-0.69,0.06-2,0.44-2.14c1.65-0.61,0.95-3.86,3.28-3.18c2.32,0.68,0.26,2.6,0.59,3.92c0.22,0.86,0.19,1.79,0.26,2.64
		c1.11,0.08,1.58-0.15,2.24-0.73c5.07-4.46,10.86-7.53,17.71-8.16c0.97-0.09,2.49-0.53,2.68,1.17c0.12,1.09,0.08,2.67-1.23,2.86
		c-5.75,0.81-8.73,6.45-14.26,7.92c-1.73,0.46-4.43,1.64-5.69,4.05c-0.42,0.79-2,0.66-0.68,2.25c2.64,3.18,1.79,6.69,0.03,9.89
		c-1.65,3-1.08,3.92,2.37,3.9c12.07-0.1,20.96-6.63,29.42-14.13c4.95-4.39,6.92-10.39,8.12-16.54c1.2-6.16-2.62-10.37-8.9-10.82
		c-1.48-0.11-2.91-0.93-4.39-1.05c-4.46-0.37-8.34-4.01-13.01-2.61c-3.34,1-6.53,2.54-9.73,3.98c-5.31,2.38-11.21,4.74-13.6,10.19
		C168.51,33.74,167.28,41.19,167.01,48.74z M154.68,59.37c-4.39-3.75-9.18-4.9-13.62-3.02c-12.82,5.41-23.96,12.7-29.12,26.85
		c-2.98,8.17,4.31,11.5,6.5,17.19c0.61,1.59,2.18,1.68,3.24,1.77c4,0.34,7.62-0.7,11.22-2.84c12.53-7.44,21.47-17.74,26.4-31.46
		c0.77-2.13,0.4-4.03-2.45-3.58c-2.13,0.34-4.39,0.3-6.22,2.08c-5.35,5.2-11.75,9.59-12.27,18.56c-5.68-3.95,1.18-9.22-2.43-12.96
		c-1.56-0.22-1.87,3.91-3.69,1.59c-1.15-1.47-0.55-3.44,1.86-4.32c1.7-0.62,2.87-2.33,5-2.4C145.38,66.62,149.7,62.42,154.68,59.37z
		 M245.16,307.58c5.81,0.95,8.7-2.13,10.41-6.21c1.83-4.35,2.25-9.19,4.38-13.55c0.58-1.19,2.68-5.66-1.85-5.26
		c-8.9,0.79-17.01-3.04-24.6-5.76c-7.41-2.66-10.55,1.52-14.79,4.01c-3.97,2.33-3.4,8.3-1.74,10.88c2.23,3.45,4.02,6.09,2.65,10.14
		c-0.06,0.17,0.78,0.67,1.23,0.97c3.65,2.41,6.49,7.6,12.07,2.69c1.59-1.4,4.93-0.71,6.49,0.6
		C241.52,307.85,243.77,307.03,245.16,307.58z M327.46,256.92c-1.9,6.1-1.14,11.69-1.07,17.23c0.05,4.15,2.24,5.68,6.38,6.14
		c5.69,0.64,8.25-4.34,12.45-6.28c10.17-4.68,13.62-15.93,20.17-24.21c0.89-1.13,0.36-3.37-1.51-3.57
		c-5.17-0.54-8.62-4.61-13.59-5.94c-7.81-2.1-12.99-1.22-18.12,5.54c-4.02,5.3-1.19,9.54,2.21,13.66c0.34,0.41,1.08,0.61,1.2,1.04
		c0.3,1.02,1.26,2.24,0.15,3.14c-1.17,0.94-1.77-0.39-2.68-0.95C330.81,261.37,329.87,258.87,327.46,256.92z M77.45,234.72
		c-2.78-8.22-5.31-18.04-12.9-25.89c-3.4-3.52-6.06-3.26-9.39-1.32c-7,4.06-7.5,12.88-2.35,19.31c2.39,2.99,6.38,1.46,7.87,4.17
		c2.42,4.4,6.96,6.12,10.47,9.03C74.71,242.97,77.41,241.1,77.45,234.72z M207.81,371.65c5.11-0.02,9.63-5.61,9.11-11.49
		c-0.19-2.1-0.64-4.23,0.39-6.14c0.51-0.94,2.85-1.32,0.98-2.78c-0.93-0.73-2.46-0.72-3.76,0.11c-2.3,1.48-3.59,3.62-4.37,6.12
		c-0.46,1.48-0.66,3.17-2.9,2.22c-1.68-0.71-1.76-2.17-1.88-3.78c-0.14-1.95,1.55-2.43,2.41-3.49c3.39-4.14,3.14-5.73-1.6-8.1
		c-2.34-1.17-3.39-0.42-5.93,1.78c-1.71,1.48-4.31,1.97-6.56,2.76c-5.01,1.75-7.28,9.83-4.82,14.22c1.46,2.6,3.81,1.74,5.53,2.8
		C198.48,368.39,202.6,371.54,207.81,371.65z M146.55,51.49c3.76-1.86,1.4-5.08,2.55-7.55c1.4-2.99,5.81-0.62,5.78-4.11
		c-0.02-2.89-3.35-4.08-4.17-6.68c-0.23-0.72-0.2-1.51-0.39-2.24c-0.23-0.93-0.59-2,0.48-2.49c1.5-0.68,1.72,0.67,2.34,1.64
		c2.21,3.45,4.56,6.8,6.88,10.17c0.97,1.41,3.14,3.14,3.61,1.01c0.84-3.8,1.71-7.61,2.61-11.4c0.26-1.08-0.59-2.05-1.64-1.64
		c-2.7,1.04-3.66-1.66-4.19-2.65c-3.6-6.81-9.64-5.55-14.76-3.91c-3.96,1.27-3.33,6.36-4.11,10.06
		C139.98,39.06,144.99,44.61,146.55,51.49z M63.36,303.49c-6.31,2.28-6.82-5.92-11.61-5.8c0.31-4.68-4.42-5.76-6.37-8.84
		c-1.37-2.16-2.58-5.87-5.93-3.98c-3.51,1.98,0.31,4.32,0.77,6.52c0.04,0.19,0.12,0.37,0.12,0.56
		c-0.24,13.53,10.28,20.28,18.46,29.76C58.16,314.62,59.18,308.91,63.36,303.49z M323.38,230.76c-1.42,11.76-8.57,22.73-4.94,35.98
		c4.83-7.26,4.31-15.86,10.13-21.51c0.57-0.55,0.43-1.57-0.29-1.95C323,240.47,324.78,235.15,323.38,230.76z M70.08,329.47
		c0-8.11,0-15.82,0-23.9c-7.76,5.74-7.68,6.06-6.55,16.57C63.98,326.32,66.06,328.19,70.08,329.47z M154.47,45.23
		c-1.04-0.62-1.17,0.21-1.51,0.84c-1.21,2.29-1,4.98,0.52,6.46c2.93,2.83,6.39,5.19,9.9,7.3c1.82,1.09,3.21,0.21,2.88-2.35
		C165.71,53.25,158.5,45.67,154.47,45.23z M81.32,222.65c1.17-7.28-2.51-12.08-7.61-16.19c-0.9-0.72-1.45-2.95-2.97-1.67
		c-1.25,1.05-0.66,2.86,0.4,4.08c2.78,3.2,4.8,6.74,6.06,10.83C77.65,221.17,79.05,222.4,81.32,222.65z M182.5,250.37
		c-1.28-1.55-2.97-5.36-5.7-6.38c-2.48-0.92-1.53,3.6-2.76,5.54c-2.59,4.11,4.35,1.76,4.47,5.03c0.03,0.69,2.4,1.1,3.6,0.46
		C183.31,254.4,182.87,253.05,182.5,250.37z M200.04,151.11c-3.64,3.42-4.83,7.62-7.92,10.5c-1.3,1.21-0.82,4.01,0.06,5.99
		c0.45,1.02,1.64,0.87,2.53,0.66c2.43-0.57,1.24-2.81,1.85-4.23c0.37-0.86,1.11-1.66,1.17-2.53
		C197.98,158.14,202.07,155.77,200.04,151.11z M99.93,375.71c-3.53-5.09-7.01-10.13-10.72-15.48
		C87.58,368.64,93.35,376.7,99.93,375.71z M239.96,202.12c-6.12-1-8.71,3.13-11.61,6.46c-0.82,0.94-0.72,2.72,0.45,3.61
		c0.88,0.67,2.19,0.51,3.03-0.47C234.45,208.68,237.02,205.6,239.96,202.12z M233.75,242.45c5.4-4.44,5.7-6.68,1.43-10.7
		c-0.55-0.51-0.73-2.34-1.8-0.96c-0.72,0.92-3.2,1.73-2,2.81C234.25,236.2,231.47,239.96,233.75,242.45z M262.21,364.1
		c0.02-1.4-1.19-1.51-1.93-1.34c-3.67,0.84-6.41,3.19-8.53,6.13c-0.61,0.85-0.67,2.72,1.49,2.78
		C254.42,371.7,262.18,365.16,262.21,364.1z M157.49,231.61c3.6-0.17,7.24,2.08,9.01-2.25c0.65-1.59,0.44-3.33-1.84-3.99
		C159.66,223.91,159.58,228.3,157.49,231.61z M186.12,185.84c-2.01,3.95-3.77,7.24-5.35,10.62c-0.44,0.95-0.8,2.47,0.47,3.01
		c1.09,0.46,2.54,0.63,3.32-1.05C186.31,194.65,188.67,191,186.12,185.84z M181.33,288.27c2.56-2.93,0.75-6.49,2.25-9.35
		c0.43-0.81-1.92-3.76-4.36-3.08c-2.04,0.57-2.2,3.2-1.24,4.14C180.29,282.22,179.48,285.52,181.33,288.27z M20.61,207.46
		c2.24-3.64,4.24-6.58,5.89-9.71c0.78-1.49,0.73-3.43-1.15-4.32c-0.97-0.46-2.8-0.27-2.71,1.04
		C22.94,198.78,18.27,202.08,20.61,207.46z M370.22,217.82c-1.06-0.37-2.22-1.15-2.47,0.81c-0.13,1.03,5.53,6.38,6.74,6.33
		c1.95-0.08,2.51-1.37,2.59-3.05C377.37,216.16,372.65,218.91,370.22,217.82z M224.63,224.29c0.01,3.5-2.25,6.31-2.52,9.63
		c-0.11,1.34-0.05,2.16,1.45,2.37c1.35,0.19,2.27-0.14,2.05-1.7C225.14,231.17,226.75,227.61,224.63,224.29z M257.48,202.13
		c-3.14-0.83-4.46,1.67-5.57,3.51c-0.47,0.78,1.14,3.26,2.9,3.21c2.82-0.07,4.75-1.99,5.49-4.62
		C261,201.7,258.61,202.47,257.48,202.13z M213.32,237.98c0.07,3.49,2.75,6.5-0.18,9.47c-0.2,0.2,0.27,1.56,0.74,1.81
		c0.94,0.5,2.22-0.07,2.22-0.99C216.11,244.73,218.54,240.51,213.32,237.98z M293.51,175.45c-1.14,3.78-1.07,7.52-0.64,11.23
		c0.19,1.61,1.73,2.47,3.12,2.53c0.74,0.04,1.25-1.75,0.72-2.33C293.65,183.58,295.17,179.13,293.51,175.45z M284.84,260.13
		c-1.66-0.06-1.48,1.96-2.63,2.49c1.97,2.9,5.16,3.72,8.2,4.77c1.52,0.52,2.35-0.41,2-1.67
		C291.4,262.01,287.19,262.37,284.84,260.13z M252.98,199.04c-0.34-1.7-2.2-1.74-3.04-1.3c-3.44,1.81-5.6,5.04-7.79,8.12
		c-0.44,0.62-0.2,1.9,1.18,2.02C244.6,207.99,252.98,200.49,252.98,199.04z M183.88,294.03c-1.43,1.37-3.61,2.4-3.79,5.08
		c-0.08,1.16,0.31,2.78,1.55,2.24c2.14-0.93,4.17-2.49,4.72-5.02C186.65,295,185.53,294.39,183.88,294.03z M157.66,327.74
		c-3.49-3.93-10.81-1.32-16.65,2.26C147.11,331.87,151.94,327.62,157.66,327.74z M100.45,307.17c3.28-2.19,5.36-4.67,5.11-8.07
		c-0.06-0.78-3.02-1.16-4.14-0.25C98.57,301.18,100.43,304.12,100.45,307.17z M177.9,152.49c-0.05-1.36,0.72-3.16-1.89-3.04
		c-3.54,0.16-3.02,3.75-4.52,5.58c-0.97,1.18,2.23,1.89,2.76,3.46C176.63,157.2,178.15,155.4,177.9,152.49z M222.55,253.67
		c-0.58-1.05-0.94-2.95-2.23-2.73c-2.6,0.44-4.17,2.9-5.29,4.88c-0.89,1.57,2.21,3.08,2.99,2.96
		C220.56,258.4,221.32,255.74,222.55,253.67z M194.17,224.74c3.51,0.48,6.94,1.86,9.65-1.03c1.17-1.25-0.43-2.57-1.64-2.87
		C198.75,220.01,195.49,220.01,194.17,224.74z M171.71,59.95c1.98-3.2,8.3-3.78,5.88-9.71C173.31,52.02,171.3,55.21,171.71,59.95z
		 M207.68,255.71c-0.8-0.19,0.37-2.42-1.74-1.75c-2.18,0.7-3.78,2.4-4.53,4.28c-0.6,1.51,2.06,2.25,2.64,2.08
		C206,259.76,207.81,258.56,207.68,255.71z M309.5,253.66c1.02-3.21,2.14-4.75,3.68-5.58c1.69-0.91,2.74-2.2,3.86-3.72
		C313.04,244.26,309.42,247.96,309.5,253.66z M191.23,286.23c-0.03-2.87,2.16-5.83-1.38-7.93c-0.91-0.54-2.23-0.45-2.53,1.14
		C186.73,282.55,186.94,285.25,191.23,286.23z M182.74,159.5c0.16,1.59-0.98,3.6,1.91,3.84c2.1,0.17,2.59-0.77,2.56-2.6
		c-0.04-2.14-0.16-4.42-2.79-4.67C181.29,155.77,183.56,158.51,182.74,159.5z M189.23,258.46c-0.33,2.84,0.03,5.12,0.81,7.75
		c2.27-1.93,4.02-3.6,5.01-6.19C193.16,259.52,191.42,259.05,189.23,258.46z M183.12,183.95c4.38-7.09,4.38-7.09,2.15-12.58
		C185.23,176.46,180.86,179.01,183.12,183.95z M202.87,237.51c0.47,1.18-0.34,3.32,1.99,3.3c2.12-0.02,2.86-1.57,2.82-3.5
		c-0.04-1.73-0.84-2.81-2.71-2.95C202.41,234.15,203.07,236.05,202.87,237.51z M276.79,241.97c-2.33-0.09-1.97-2.96-4.05-3.04
		c-1.97-0.07-3.33,1.32-3.08,3.21c0.24,1.73,1.64,3.53,3.35,3.65C274.61,245.9,275.41,243.9,276.79,241.97z M180.28,234.56
		c-2.46,0.02-2.53,1.92-2.53,3.58c0,1.16-0.4,3.02,1.66,2.94c1.97-0.08,3.14-1.38,3.14-3.36
		C182.56,236.26,182.61,234.5,180.28,234.56z M342.5,312.81c-1.19-0.38-1.89-0.76-2.62-0.81c-2.44-0.17-3.93,1.13-4.26,3.44
		c-0.15,1.02,0.17,2.89,0.72,3.09c2.35,0.82,2.29-2.18,3.85-2.93C341.04,315.18,341.53,314.03,342.5,312.81z M311.86,215.66
		c0.75-1.89,4.92-1.14,3.31-4.66c-0.44-0.97-1.08-1.61-2.15-1.23C309.97,210.85,310.89,213.21,311.86,215.66z M316.89,215.68
		c-4.38,5.74-4.38,5.74-2.54,9.4c1.77-1.05,0.39-3.28,1.65-4.46C317.34,219.36,318.03,218,316.89,215.68z M290.56,225.28
		c2.71,0.19,4.34-0.57,4.24-3.32c-0.05-1.37-0.6-2.02-2.1-1.64c-2.2,0.55-4.36,1.71-4.81,3.74
		C287.5,225.83,289.75,225.09,290.56,225.28z M172.66,280.29c-2.08,1.69-5.17,2.05-3.78,5.52c0.49,1.21,1.32,1.23,2.27,0.84
		C174.07,285.43,173.51,283.17,172.66,280.29z M312.85,257.99c-4.84-1.02-6.61,0.85-5.89,5.98
		C309.33,262.54,311.03,260.61,312.85,257.99z M278.98,368.63c-3.69-2.92-5.03,0-6.84,1.15c-0.26,0.16-0.29,1.34-0.11,1.44
		C275.15,372.89,275.88,368.93,278.98,368.63z M174.67,332.26c0.49-2.58,3.59-3.08,2.38-6.01
		C176.43,328.15,172.49,328.17,174.67,332.26z M239.58,315.74c3.91,1.76,4.62-1.19,6.55-2.61
		C242.54,311.54,241.9,314.63,239.58,315.74z M128.72,306.77c-1.52,4.17-1,6.82,0.01,9.48
		C129.47,313.58,130.21,310.94,128.72,306.77z M110.51,307.32c0.54-2.81,3.94-3.38,3.15-6.19c-0.25-0.88-2.21-0.7-3.08-0.12
		C108.24,302.57,108.68,304.57,110.51,307.32z M27.93,215.09c0.84-2.61,2.38-5.27-0.24-8.18C26.36,209.99,26.87,212.56,27.93,215.09
		z M70.05,252.06c-0.09-1.18-0.74-1.52-1.86-1.36c-1.33,0.19-2,0.91-1.93,2.23c0.06,1.2,0.87,1.46,1.91,1.44
		C69.71,254.34,69.84,253.18,70.05,252.06z M173.14,146.35c-0.61-1.62-1.96-1.43-2.93-1.43c-2.09,0.02-1.89,2.42-3.03,3.55
		c-0.56,0.56,1.53,1.6,2.4,1.53C171.75,149.84,171.62,147.25,173.14,146.35z M223.95,245.62c-0.01-1.2-0.19-2.32-1.78-2.13
		c-1.28,0.16-2.55,0.36-2.61,2.18c-0.06,1.78,1.1,2.17,2.42,2.38C223.96,248.37,223.95,246.97,223.95,245.62z M237.83,215.03
		c3.49,1.51,4.33,0.26,3.57-3.15C239.72,212.62,238.68,213.65,237.83,215.03z M33.16,229.83c0.61-2.07,0.9-4.27-0.05-6.54
		c-0.1-0.25-1.24-0.42-1.37-0.25c-1.61,2.28-0.88,4.55,0.2,6.78C31.98,229.89,32.3,229.83,33.16,229.83z M281.17,240.49
		c3.6-0.24,3.6-0.24,3.36-3.81C283.35,238.02,282.37,239.14,281.17,240.49z"/>
	<path style="fill:#B6B7BB;" d="M159.6,76.29c-0.96-3.69,2.29-5.76,3.12-9.01c3.83,5.88,3.83,5.88-0.72,9.02
		C161.2,76.3,160.4,76.29,159.6,76.29z"/>
	<path style="fill:#F1F2F5;" d="M232.5,196.84c-1.49-0.07-2.32-2.08-4.07-1.37c-1.59-0.02-3.17-0.04-4.76-0.06
		c-1.95-0.32-3.15,0.37-4.79,1.79c-6.03,5.21-11.34,11.27-18.21,15.54c-1.6,0.99-3.07,1.28-4.67,1.32
		c-2.12,0.05-2.68-0.96-1.18-2.69c1.07-1.24,2.33-2.37,3.15-3.77c0.57-0.97,1.52-2.83-0.79-2.99c-6.33-0.43-2.85-4.6-2.35-6.91
		c0.59-2.75,2.15-5.44,3.83-7.75c1.58-2.17,4.44-3.78-0.04-5.78c-0.24-0.1-0.24-1.73,0.16-2.11c2.88-2.72,3.12-6.87,5.56-9.87
		c1.11-1.35,3.26-3.38,1.14-5.24c-2.01-1.76-2.48,2.26-4.43,1.85c-0.15-1.16-0.3-2.31-0.45-3.46c0.09-5.77,2.39-11.87,5.69-15.23
		c3.47-3.55,8.27-6.97,12.85-9.44c2.62-1.42,5.15-2.41,7.3-4.69c0.88-0.93,2.53-4.42,5.04-0.71c0.76,1.12,3.83,1.41,3.84-1.82
		c0.01-2.3,2.02-2.09,3.22-2.5c2.48-0.85,0.97,1.53,1.51,2.32c2.43,3.57,4.66,1.76,6.22-0.5c1.89-2.72,4.28-4.63,7.07-6.21
		c0.99,0.08,1.97,0.16,2.96,0.24c0.04,1.68-1.76,3.76,0.81,4.89c2.53,1.11,2.8-1.02,3.85-2.59c0.71-1.07,1.61-3.11,3.78-2.59
		c0.88,0.06,1.76,0.12,2.63,0.19c-0.37,2.83,0.17,4.8,3.72,4.55c2.64-0.19,5.43-0.6,5.12-3.82c-0.37-3.79,2.25-4.34,4.55-5.51
		c1.57,0.16,2.58,0.87,2.61,2.58c0.35,1.56-1.74,4.11,1.54,4.46c2.18,0.23,4.84,0.6,4.98-2.93c0.06-1.4,0.73-2.04,2.16-1.94
		c1.29,0.09,1.35,1,1.53,1.96c0.77,4.15,1.83,3.27,3.76,0.44c4.04-5.96,7.79-0.35,10.9,1.19c3.26,1.61,6.12,4.37,9.35,6.41
		c2.18,1.37,3.85,3.26,0.17,5.3c-0.55,0.31-2.19,0.96-1.86,2.56c1.03,0.91,2.74,1.33,3.53,0.66c6.49-5.51,11.2-0.1,15.79,2.9
		c4.07,2.66,7.22,6.72,10.87,10.06c1.01,0.93,2.14,1.59,1.7,3.22c-0.51,1.89-2.06,2.13-3.6,2.11c-3.09-0.05-5.84,0.68-8.61,2.18
		c-1.48,0.8-2.13,1.23-1.52,2.83c0.62,1.63,1.5,0.94,2.66,0.57c3.55-1.15,7.13-2.42,10.79-3c12.55-2.02,18.38,7.37,24.94,15.26
		c1.61,1.94,3.46,4.09,2.84,7.07c-0.44,0.5-0.88,0.99-1.32,1.49c-1.32,0.1-2.68-2.4-3.78-0.32c-0.59,1.12-0.39,3.04,1.36,3.75
		c1.7,0.7,3.03,1.92,4.81,2.65c6.37,2.6,8.2,8.26,5.26,14.51c-3.18,6.77-9.8,8.06-16.12,3.63c-2.88-2.02-2-4.64-2.3-7.1
		c-0.25-2.02-0.44-4.31-2.83-4.16c-2.43,0.16-1.33,2.66-1.43,4.14c-0.15,2.26-0.02,4.47,1.72,6.37c3.07,3.35-0.24,8.61,4.35,12.21
		c-7.38,0.01-12.87-2.92-18.42-5.44c-1.63-0.74-3.1-1.28-4.84-1.15c-1.9,0.14-3.71,1.16-3.74,2.88c-0.04,2.41,2.23,1.37,3.56,1.36
		c6.25-0.06,10.69,5.1,16.91,5.57c4.46,0.34,8.47,2.81,11.78,6.03c-0.08,1.5,0.56,2.29,2.13,2.2c-1.18,5.69-2.56,6.15-6.89,2.31
		c-7.51-6.67-23.85-6.84-30.83-0.08c-1.6,1.55-3.72,3.66-5.08,2.6c-1.52-1.19-3.17-3.42-2.83-6.27c0.79-6.69,2.9-13.09,5.37-19.17
		c2.63-6.49,2.83-14.07,8.16-19.49c0.55-0.56,0.47-2.43-0.63-3.04c-1.25-0.69-2.2,0.56-2.81,1.39c-2.55,3.48-5.03,7.03-7.37,10.66
		c-1.06,1.64-3.65,3.72-3.93,2.93c-1.08-2.98-5.88-0.26-5.81-4.46c0.05-2.91-3.44-5.56-0.2-8.88c1.3-1.34-0.37-2.76-2-3.14
		c-1.94-0.45-2.09,0.86-2.15,2.34c-0.04,1.07,0.3,2.32-1.27,3.37c-1.75-2.59-2.52-5.54-3.03-8.5c-0.43-2.5,1.2-5.81-3.79-5.7
		c-1.22,0.03-1.12-3.06,0.25-4.8c0.85-1.08,0.92-2.56-0.67-3.32c-1.57-0.74-2.44,0.21-3.03,1.55c-0.67-0.01-1.33-0.03-2-0.04
		c-1.41-2.07,2.95-7.76-4-6.36c-1.02-5.34-5.24-6.48-9.64-7.56c-0.41-0.1-0.61-1.68-0.62-2.58c-0.02-1.71,0.35-3.44,0.22-5.13
		c-0.15-1.87,1.41-5.13-1.18-5.27c-2.76-0.15-3.2,3.06-3.18,5.65c0.04,5.53,0.01,11.05,0.01,16.58c-0.54,0.9-0.71,2.12-2.04,2.32
		c-1.56-6.71,0.46-13.79-2.54-20.47c-0.87-1.94-0.45-5.14,1.27-7.55c0.8-1.12,1.1-2.92-1.12-3.57c-2.33-0.68-2.24,0.84-2.6,2.42
		c-1.37,6.06-2.55,12.07-2.38,18.39c0.25,9.58,2.65,18.48,7,26.93c0,2.31,0,4.61,0,6.92c-1.27,1.28-2.48,2.68-4.46,2.84
		c-0.07-0.99-0.13-1.97-0.2-2.95c-0.09-1.45,1.15-3.4-0.36-4.26c-2.26-1.29-2.45,1.74-3.45,2.65c-1.71,1.55-3.5,3.09-5.06,4.74
		c-1.44,1.52-2.8,1.59-3.84,0.82c-1.17-0.86-1.47-2.57-0.52-4.12c0.78-1.27,2.9-2.72,0.34-3.99c-2.64-1.31-2.7,1.03-3.55,2.75
		c-1.39,2.82-4.12,2.41-6.24,1c-11.49-7.62-11.45-7.68-20-21.03c-2.38,5.85,0.59,9.76,3.93,13.5c1.67,1.87,3.31,3.88,5.34,5.26
		c1.47,1,3.3,2.03,3.14,3.56c-0.22,2.17-3.48,1.58-4.56,3.51c-0.24,0.42-1.86,0.27-1.86-0.53c-0.06-9.35-4.14-0.94-6.17-1.42
		c-0.18-0.04-0.38-0.03-0.57-0.05C232.76,197.42,232.62,197.14,232.5,196.84z"/>
	<path style="fill:#F1F2F5;" d="M164.45,161.37c-0.4,3.42-0.6,6.71,4.36,6.57l-0.1-0.1c0.48,1.49-0.39,2.32-1.32,3.36
		c-1.21,1.38-1.1,3.21-0.21,4.77c0.25,0.44,1.31,0.67,1.95,0.59c2.56-0.32,1.39-2.66,2.06-4.02c0.73-0.02,1.47-0.04,2.2-0.05
		c-0.13,2.24,0.18,4.5-0.93,6.64c-2.46,4.72-2.35,4.84,3.14,4.75l0.37,0.2c-1.81,7.39,1.57,13.91,3.6,20.62
		c0.52,1.71,0.22,2.77-0.63,4.08c-1.22,1.88-2.87,3.18-5.04,2.36c-4.7-1.77-9.92-0.93-14.39-2.57c-3.35-1.23-7.34,2.49-10.11-1.88
		c-0.52-0.83-1.42,1.07-1.48,2.21c-0.14,2.78-1.93,4.33-4.37,4.62c-3.59,0.43-2.18-2.83-2.62-4.48c-0.43-1.6-2.78-2.81-0.89-5.08
		c0.98-1.17-0.83-1.3-1.54-1.48c-1.07-0.27-1.82,0.24-1.79,1.5c0.06,2.66,0.19,5.32,0.15,7.97c-0.02,1.38,1.25,3.1-0.7,4.08
		c-1.99,1-1.59-1.68-2.77-1.93c-0.73-0.16-1.5-0.11-2.26-0.16l-0.15-0.46l-0.48-0.04c0.43-1.41,0.92-2.8,1.29-4.22
		c1.1-4.18,0.19-6.1-2.2-4.75c-4.13,2.34-1.08,5.96-1.52,8.97c-0.34,0.33-0.67,0.66-1.01,1c-2.89-0.87-1.4-3.34-1.84-5.1
		c-0.25-0.97,0.3-2.5-1.3-2.51c-1.31-0.01-3.14-0.22-3.07,2.06c-0.48,1.07-0.62,2.44-2.25,2.44c-0.74-3.72,0.33-8.08-4.11-10.82
		c-1.88,6.63,0.02,12.29,3.32,17.97c0.48,0.83,3.65,2.02,1.31,4.29c-1.22,1.18-2.29,2.84-4.08,2.2c-2.1-0.74-3.82-2.34-3.55-4.9
		c0.51-4.86-3.18-8.93-2.41-13.86c0.19-1.21,0.61-3.39-1.62-3.46c-2.15-0.07-2.77,1.63-2.77,3.55c0,0.95-0.03,1.9-0.05,2.85
		c-0.73-0.02-1.47-0.04-2.2-0.06c-0.62-3.95-1.44-7.74-4.85-10.45c-3.05-2.43,0.35-4.92,1.24-4.75c3.29,0.62,5.36-1.15,7.8-2.48
		c0.76-0.41,2.32-0.77,2.62-0.41c4.24,5.05,5.45,0.02,7.36-2.19c5.71-6.64,9.77-14.25,12.73-22.44c0.42-1.17,1.39-3.28-1.26-3.38
		c-3.58-0.14-2.62,2.84-3.04,4.84c-0.71,0.03-1.41,0.05-2.12,0.08c-0.51-1.54,1.48-4.15-1.29-4.58c-3.2-0.5-2.97,2.46-3.4,4.52
		c-0.81,0-1.62,0.01-2.44,0.01c-0.17-1.73,0.8-4.14-2.34-4.15c-2.47,0-1.68,2.08-1.95,3.36c-1.55,7.28-4.7,13.82-8.97,19.88
		c-0.54,0.76-0.67,1.87-1.93,1.44c-1.22-0.42-0.71-1.49-0.78-2.38c-0.41-5.37,3.58-9.1,5.01-13.78c0.49-1.62,3.49-2.99,1.37-4.76
		c-1.68-1.4-3.72,0.48-5.49,1.28c-0.61,0.28-0.86,1.27-2.47,0.89c0.61-7.12-5.74-11.15-8.48-17.61c-1.8,2.64-1.83,4.85-0.12,7.24
		c0.95,1.33,2.23,2.9-0.01,4.2c-1.52,0.88-0.8,4.46-2.58,3.55c-2.52-1.29-6.03-1.69-7.19-5.15c-0.36-1.07,0.37-3.28-1.66-2.97
		c-2.2,0.33-1.02,2.46-1.13,3.78c-0.29,3.57,2.1,6.32,3.45,9.3c0.74,1.63,1.79,3.43,0.82,4.51c-1.31,1.46-4.54,1.16-5.24,0.05
		c-2.08-3.3-4.8-0.9-7.1-1.46c-1.3-0.32-3.08-0.79-3.45,1.65c-0.34,2.25,0.48,4.27,2.42,4.55c3.7,0.53,6.84,3.32,10.75,2.6
		c4.72-0.87,6.78,1.78,5.7,5.66c-1.45,5.18,1.89,9.95,0.27,15.02c-1.03,3.25-1.49,3.8-3.56,0.53c-0.76-1.21-1.44-2.46-2.16-3.71
		c-5.2-9.04-12.67-11.02-22.4-6.42c-4.75,2.24-10.16,1.94-15.25,2.87c-2.37,0.43-3.71,1.01-2.22,3.57c3.02,5.19,1.91,9.75-2.3,14.14
		c-2.5-6.02-5.05-11.88-7.34-17.85c-0.65-1.7-0.19-3.06,1.62-4.71c2.61-2.38,7.44-3.29,6.97-8.43c-0.27-2.97,0.24-6.05-4.55-5.37
		c-3.08,0.44-2.34-2.31-1.47-3.37c4.13-5.05,5.49-11.46,8.69-16.94c1.46,0.02,2.26-0.62,2.17-2.15c2.23-0.01,4.47-0.02,6.7-0.03
		c0.2,0.71,0.33,1.61,1.29,1.53c0.93-0.08,0.94-1,1.08-1.72c0,0,0,0,0,0c2.09,0.06,2.45-1.31,2.46-2.97
		c1.4,0.17,3.07,1.64,4.13,0.02c0.77-1.18,0.48-2.87-0.39-4.28c-1.24-2.01-4.63-3.86-3.62-5.8c1.41-2.68,4.27-5.1,7.07-6.45
		c7.54-3.65,14.04-8.92,21.16-13.2c3.74-2.25,5.63-1.23,8.22,0.68l-0.12-0.09c0.22,1.04,0.11,3.13,1.21,2.75
		c7.15-2.43,9.75,2.51,12.63,8c1.68-6.07,8.29-7.22,10.23-12.53c0.22-0.59,2.6-0.87,3.5,0.48c1.06,1.59,0.61,3.35-0.42,4.77
		c-1.24,1.71-3.72,2.39-4.28,4.69c-0.32,1.32-2.97,1.5-1.63,3.58c0.59,0.92,1.66,1.66,2.29,1.11c1.29-1.15,4.14-0.44,4.03-3.16
		c-0.15-3.75,3.77-4.51,5.2-7.15c0.5-0.92,2.8-0.79,3.57,0.27c1,1.36-0.85,1.62-1.54,2.37c-0.6,0.64-1.38,1.36-1.73,1.96
		c-1.14,2-4.37,3.73-2.84,6.15c1.2,1.9,4.16,0.91,6.38,0.46c0.96,0.05,1.92,0.11,2.87,0.16c-1.09,6.25,3.36,4,6.28,4.09
		c0.05,0.92,0.09,1.83,0.14,2.75c0.3,1.48-1.14,3.71,1.13,4.29c2.3,0.59,2.97-1.19,3.54-3.24c0.53-1.92,2.21-3.23,3.79-3.89
		c2.08,1.49-2.9,9.28,5.06,4.93c0.89,0.05,1.78,0.1,2.68,0.15c0,5.81,1.31,6.73,6.65,4.65l-0.09-0.08
		c-0.58,3.71,0.49,5.73,4.69,4.71c1.7-0.41,2.42,0.32,2.05,2.05C164.51,158.8,164.05,159.8,164.45,161.37z"/>
	<path style="fill:#F1F2F5;" d="M120.7,261.9c8.01-2.88,16.33-2.68,24.65-2.42c2.39,0.08,4.97-0.55,6.98,1.56
		c1.35,1.41,3.27,0.95,3.89-0.34c0.61-1.28-0.66-3.02-2.12-3.36c-8.59-1.99-17.23-3.81-25.99-0.76c-0.71,0.25-1.51,0.59-2.19,0.47
		c-4.96-0.9-8.26,1.31-9.92,5.73c-1.51,4.02-2.65,7.95-0.79,12.59c2.01,5.01,1.93,10.8,6.16,16.14c-8.97-0.83-17.05,1.61-24.93-1.47
		c-2.42-0.95-4.83,0.18-7.39-0.12c-15.18-1.81-28.51-7.85-40.13-17.28c-12.44-10.1-24.89-20.58-30.19-36.56
		c-1.81-5.45-3.45-11.15-3.49-17.04c-0.01-1.33-0.47-3.29,1.97-3.33c2.15-0.1,2.65,3.02,4.98,2.58c1.91,3.55,5.82,6.18,4.85,11.08
		c-0.21,1.08,1.08,2.62,2.04,2.36c4.26-1.14,5.62,2.63,6.25,4.73c1.36,4.53,7.27,4.3,8.25,8.9c0.08,0.36,3.83,1.79,3.48-1.71
		c-0.09-0.94-0.87-1.73,0.54-2.07c1.07-0.27,1.64,0.18,1.9,1.38c1.36,6.41,4.17,11.12,11.94,9.72c1.11-0.2,1.81,0.33,1.85,1.52
		c0.09,3.21,2.23,3.48,4.7,3.38c0.94-0.04,2.53-0.18,2.72,0.23c2.67,5.73,6.36,4.8,10.54,0.59c0.24,2.31,0.43,3.43,0.47,4.54
		c0.07,2.27,1.14,3.99,3.42,3.36c2.36-0.65,1.23-2.93,0.58-4.19c-2.06-3.97,0.69-4.35,3.29-4.54c3.98-0.3,7.99-0.23,11.98-0.38
		c4.28-0.17,8.15-0.53,8.4-6.45c0.15-3.4,6.81-5.78,10.55-5.46c7.34,0.64,14.77,0.83,22.13,0.54c9.7-0.37,21.69,7.61,19.61,18.57
		c-0.4,2.13-1.37,5.4,1.89,7.03c0.21,0.1,0.2,0.65,0.29,0.99c-6.09,0.86-3.65,10.55-11.68,10.75c-2.57,0.06-6.25,5.15-10.26,7.16
		c-4.52,2.27-8.88,0.99-13.27,0.95c-2.46-0.02-1.69-2.55-1.28-4.06c1.58-5.94-2.97-10.76-2.91-16.46c0.02-1.57-1.99-2.09-3.69-1.63
		C120.74,266.7,120.72,264.3,120.7,261.9z"/>
	<path style="fill:#F1F2F5;" d="M324.48,288.35c-1.14-1.63-2.95-2.2-2.65-4c0.11-0.69,0.3-1.57,0.78-1.94
		c0.56-0.43,1.24,0.01,1.95,0.47c4.6,2.97,5.54,5.8,1.79,10.75c-4.83,6.37-11.15,11.62-14.13,19.37c-0.22,0.58-1.63,1.33-1.74,1.22
		c-3.04-2.94-5.77,1.2-8.58,0.36c-7.48-2.23-15.24-1.63-22.8-2.65c-4.64-0.62-8.98-0.05-13.42,0.26c-3.22,0.22-5.61-1.66-8.44-2.32
		c-1.63-0.38-1.56-1.31-0.72-2.45c5.12-6.98,4.66-15.93,8.24-23.49c1-2.1,0.06-3.91-2.64-5.26c-9.4-4.67-18.84-8.72-29.67-7.75
		c-0.67,0.06-1.54,0.16-1.94-0.91c4.39-4.97,10.86-3.47,16.31-4.83c7.75-1.94,15.52-4.36,23.83-3.43c3.58,0.4,4.89,1.43,2.45,4.16
		c-2.1,2.35-1.45,4.3-0.7,6.65c2.02,0.06,1.57-1.75,2.2-2.71c2.02-3.09,3.97-4.84,7.97-1.98c4.45,3.18,9.94,4.56,12.39,10.59
		c1.21,2.99,7.78,1.74,8.25,1.15c3.3-4.15,3.69,0.79,3.67,1.32c-0.17,3.93,0.81,6.51,5.39,6.17c0.31-0.02,0.83,0.21,0.95,0.47
		C316.29,294.28,320.31,289.88,324.48,288.35z"/>
	<path style="fill:#F1F2F5;" d="M326.78,330.44c2.01,8.8-5.14,10.7-10.55,13.66c-4.42,2.42-8.93,4.78-14.39,6.02
		c1.33-3.98-1.13-7.42-0.98-11.2c0.06-1.43-1.17-1.36-1.93-1.53c-2.16-0.48-1.95,1.26-1.99,2.5c-0.2,6.11-3.42,10.67-7.2,15.13
		c-3.08,3.64-6.52,3.36-10.19,1.79c-2.41-1.03-4.24-3.23-7.43-1.61c-2.66,1.35-1.97-7.2-7.01-2.51c-2.48,2.32-6.15-1.2-8.67-2.42
		c-3.1-1.5-6.93-0.09-9.45-3.06c-0.89-1.05-2.24-1.79-3.32-2.76c-1.12-0.99-3.24-4.85-4.55,0.5c-0.57,2.31-4.07,2.76-6.39,3.32
		c-2.42,0.58-2.34-2.14-1.72-3.07c3.76-5.61,4.46-12.22,6.41-18.41c0.93-2.94,2.36-4.48,5.24-1.94c0.75,0.66,1.64,1.55,2.43,1.1
		c3.54-2,6.72-0.62,10.2,0.28c2.19,0.57,3.76,0.25,5.14,3.02c1.94,3.89,4.29-2.06,6.85-0.76c-0.49,2.02,0.68,2.22,2.21,2.01
		c5.46,2.14,5.52-3.67,7.75-5.82c2.94,1.21-0.48,5.73,3.62,5.59c2.97-0.1,4.58-1.95,5.06-4.83c0.26-1.6,1.48-1.46,2.62-1.39
		c1.39,0.09,1.26,1.22,1.24,2.1c-0.12,4.03,0.89,5.48,4.58,2.38c1.07-0.9,2.57-0.37,3.7,0.55c0.89,0.73,2.18,1.95,2.97,1.19
		c3.87-3.74,7.55,0.71,11.38,0.06c2.06-0.35,4.34-0.59,6.52,1.77c2.5,2.71,5.2-1.17,7.95-1.59L326.78,330.44z M280.79,345.58
		c-0.54,2.36,0.37,5.02,2.89,7.01c1.07,0.85,2.59,1.29,3.65,0.43c1.17-0.95,0.78-2.82-0.16-3.51c-4.73-3.44-1.37-7.53-1.08-11.33
		c0.07-0.93,2.96-1.43,0.96-2.77c-1.21-0.82-2.7-0.61-4.02,1.43C281.34,339.42,280.89,341.95,280.79,345.58z"/>
	<path style="fill:#F1F2F5;" d="M143.56,360.28c5.72-0.87,2.37-4.94,1.59-6.6c-3.8-8.11-3.38-9.52,5.22-12.46
		c1.03-0.35,1.87-1.24,2.81-1.84c4.67-2.98,8.82-2.22,12.07,2.45c2.62,3.77,3.67,6.74,1.23,12.18c-4.26,9.5-12.48,11.03-20.14,12.16
		c-5.66,0.83-7.55,6.17-12.2,6.72c-3.64,0.43-7.78,5.89-11.25-0.42c-0.6-1.08-2.11-0.88-2.14,0.01c-0.17,4.51-3.43,3.61-6.1,3.76
		c-2.04,0.11-2.66,1.29-3.33,3.13c-0.98,2.69-3.71,1.5-5.37,1.02c-2.25-0.64,0.12-2.71-0.23-3.51c-2.31-5.35,0.53-11.3-2.07-16.44
		c-0.88-1.75-2.44-4.23-4.57-0.45c-0.5,0.89-1.61,3.14-4.4,0.8c-3.04-2.54-3.62-5.64-4.68-8.74c-0.29-0.83,8.88-2.21,9.41-0.97
		c1.13,2.66,3.06,3.03,4.79,1.74c0.71-0.53,4.91-2.18,0.91-4.84c-1.25-0.83,1.23-1.94,1.99-2.83c0.9-1.05,2.61-0.97,3.62-0.15
		c0.99,0.8,0.48,2.29-0.26,3.06c-1.59,1.66-0.89,2.24,0.7,3.37c1.23,0.88,1.59,1.27,3.09,0.27c1.56-1.04,2.19-1.33,1.14-3.29
		c-0.76-1.41-1.39-3.74,1.85-4.07c2.78-0.29,3.82,0.45,3.38,3.37c-0.19,1.25-0.63,3.13,1.76,3.5c1.62,0.25,3.35,0.19,4.28-0.9
		c0.86-1.01,0.82-2.37-0.54-3.9c-2.44-2.74,3.36-1.44,2.22-4.23c3.86,6.14,4.64,13.23,8.37,19.08c0.89,1.4,2.63,2.7,3.14,2.63
		c1.94-0.24,1.29-2.23,1.45-3.62C142.05,360.28,142.8,360.28,143.56,360.28z"/>
	<path style="fill:#F1F2F5;" d="M167.01,48.74c0.27-7.56,1.5-15.01,4.47-21.76c2.39-5.46,8.3-7.81,13.6-10.19
		c3.2-1.44,6.39-2.97,9.73-3.98c4.68-1.41,8.55,2.24,13.01,2.61c1.48,0.12,2.91,0.95,4.39,1.05c6.28,0.45,10.09,4.66,8.9,10.82
		c-1.2,6.15-3.16,12.15-8.12,16.54c-8.46,7.5-17.35,14.03-29.42,14.13c-3.45,0.03-4.02-0.89-2.37-3.9c1.76-3.21,2.62-6.72-0.03-9.89
		c-1.33-1.59,0.26-1.46,0.68-2.25c1.27-2.41,3.96-3.59,5.69-4.05c5.53-1.47,8.51-7.11,14.26-7.92c1.31-0.18,1.35-1.77,1.23-2.86
		c-0.19-1.7-1.71-1.26-2.68-1.17c-6.85,0.63-12.64,3.7-17.71,8.16c-0.66,0.58-1.13,0.81-2.24,0.73c-0.08-0.84-0.04-1.77-0.26-2.64
		c-0.34-1.32,1.73-3.24-0.59-3.92c-2.33-0.68-1.62,2.57-3.28,3.18c-0.37,0.14-0.57,1.45-0.44,2.14
		C177.34,41.12,170.78,44.05,167.01,48.74z"/>
	<path style="fill:#F1F2F5;" d="M154.68,59.37c-4.98,3.05-9.3,7.25-15.57,7.45c-2.13,0.07-3.3,1.77-5,2.4
		c-2.41,0.88-3.02,2.85-1.86,4.32c1.82,2.32,2.13-1.81,3.69-1.59c3.61,3.74-3.24,9.01,2.43,12.96c0.52-8.97,6.92-13.36,12.27-18.56
		c1.83-1.78,4.09-1.74,6.22-2.08c2.84-0.45,3.21,1.45,2.45,3.58c-4.93,13.72-13.87,24.02-26.4,31.46c-3.6,2.14-7.22,3.17-11.22,2.84
		c-1.07-0.09-2.63-0.18-3.24-1.77c-2.19-5.69-9.48-9.02-6.5-17.19c5.17-14.15,16.31-21.43,29.12-26.85
		C145.5,54.47,150.3,55.62,154.68,59.37z"/>
	<path style="fill:#F1F2F5;" d="M245.16,307.58c-1.39-0.56-3.64,0.26-5.73-1.49c-1.56-1.31-4.9-2-6.49-0.6
		c-5.58,4.91-8.42-0.28-12.07-2.69c-0.45-0.3-1.29-0.8-1.23-0.97c1.37-4.05-0.43-6.69-2.65-10.14c-1.66-2.58-2.23-8.55,1.74-10.88
		c4.24-2.49,7.37-6.67,14.79-4.01c7.59,2.72,15.7,6.55,24.6,5.76c4.53-0.4,2.43,4.08,1.85,5.26c-2.13,4.36-2.55,9.2-4.38,13.55
		C253.86,305.45,250.96,308.53,245.16,307.58z M246.45,300.74c1.53,0.18,1.96-0.63,2.48-2.17c1.22-3.62,1.88-7.48,4.08-10.76
		c0.57-0.86,1.13-2.47-0.17-3c-1.3-0.52-3.02-0.46-3.7,1.43c-1.49,4.13-3.03,8.24-4.46,12.38
		C244.19,300.02,244.82,300.81,246.45,300.74z"/>
	<path style="fill:#F1F2F5;" d="M327.46,256.92c2.41,1.95,3.35,4.45,5.58,5.8c0.92,0.56,1.51,1.89,2.68,0.95
		c1.11-0.9,0.15-2.12-0.15-3.14c-0.13-0.43-0.87-0.63-1.2-1.04c-3.4-4.12-6.23-8.35-2.21-13.66c5.13-6.76,10.32-7.64,18.12-5.54
		c4.96,1.33,8.42,5.4,13.59,5.94c1.87,0.2,2.4,2.44,1.51,3.57c-6.55,8.28-9.99,19.53-20.17,24.21c-4.2,1.93-6.76,6.91-12.45,6.28
		c-4.13-0.46-6.32-1.99-6.38-6.14C326.32,268.6,325.56,263.02,327.46,256.92z M347.67,243.36c-1.42,0.41-4.06-0.48-4.15,2.28
		c-0.1,2.92,2.46,2.08,4.24,2.19c1.13,0.07,2.29,0.09,3.36,0.4c1.73,0.51,3.6,3.73,5.06,1.07c1.52-2.77-2.36-2.96-3.64-4.47
		C351.11,243.15,349.53,243.71,347.67,243.36z"/>
	<path style="fill:#F1F2F5;" d="M116.1,312.21c0.52,4.18,3.55,2.52,5.6,2.11c2.46-0.5,3.32-0.11,3.54,2.56
		c0.32,3.93,1.15,7.82,1.83,11.71c0.33,1.85-1.01,1.63-2.05,1.84c-11.98,2.32-24.07,3.04-36.22,2.14c-3.16-0.23-6.25-1.35-9.37-2.06
		c-0.04-3.11-0.08-6.22-0.12-9.33c1.78-3.36,3.42-6.73-0.29-10.62c3.37-1.1,8.3,0.81,7.73-4.96c-0.09-0.87,2.01-0.77,3.02-0.53
		c1.64,0.4,1.21,1.47,0.5,2.54c-2.4,3.63-1.29,5.19,2.88,4.49c1.42-0.24,2.08-0.08,2.41,1.35c1.39,6.04,3.95,4.61,6.83,1.04
		c2.04-0.35,2.61,2.64,4.74,2.1c4.12,0.87,5.33-4.38,9.07-4.31L116.1,312.21z"/>
	<path style="fill:#F1F2F5;" d="M134.49,321.31c-1.03-5.61-1.79-11.17,2.39-16c0.62,0.04,1.24,0.07,1.87,0.11
		c1.14,1.27-1.03,3.75,1.39,4.38c2.36,0.62,2.82-1.33,3.87-3.02c1.95-3.12,5.59-5.48,2.09-9.85c-0.25-0.32-0.57-5.82,1.21-4.76
		c4.76,2.83,10.24,0.22,14.83,3.43c4.29,3,7.11,6.09,6.7,11.61c-0.27,3.6,0.17,7.25-0.09,10.86c-0.28,3.98-2.6,4.59-6.13,3.4
		c-3.68-1.24-7.73-0.25-11.53,0.89c-4.74,1.43-9.25,3.79-14.39,3.65C136.36,324.26,137.39,321.86,134.49,321.31z"/>
	<path style="fill:#F1F2F5;" d="M217,312.23c0.04,0.95-0.3,2.24,0.19,2.78c5.35,5.93,2.33,12.48,0.89,18.49
		c-1.36,5.7-4.21,6.52-8.99,3.22c-1.86-1.28-3.1-1.67-5.26-1.4c-6.88,0.88-11.14-2.81-12.19-10.1
		c-1.63-11.29,3.69-17.57,15.28-17.52c3.45,0.01,5.44-3.93,9.27-2.62c1.73,0.6,3.25,0.81,3.34,2.97c0.08,2,0.84,4.44-2.63,4.28
		c-0.16-1.81,1.32-4.4-2.06-4.71c-1.47-0.13-2.6,0.62-2.47,2.29C212.62,313.17,215.09,312.18,217,312.23z"/>
	<path style="fill:#F1F2F5;" d="M77.45,234.72c-0.05,6.38-2.74,8.25-6.3,5.3c-3.51-2.91-8.06-4.63-10.47-9.03
		c-1.49-2.71-5.47-1.18-7.87-4.17c-5.16-6.44-4.65-15.25,2.35-19.31c3.34-1.94,5.99-2.2,9.39,1.32
		C72.14,216.68,74.68,226.5,77.45,234.72z"/>
	<path style="fill:#F1F2F5;" d="M207.81,371.65c-5.21-0.11-9.33-3.26-13.39-5.76c-1.72-1.06-4.08-0.2-5.53-2.8
		c-2.46-4.39-0.18-12.47,4.82-14.22c2.25-0.79,4.85-1.28,6.56-2.76c2.54-2.2,3.58-2.95,5.93-1.78c4.74,2.37,4.99,3.96,1.6,8.1
		c-0.87,1.06-2.56,1.54-2.41,3.49c0.12,1.61,0.2,3.06,1.88,3.78c2.24,0.95,2.44-0.75,2.9-2.22c0.78-2.5,2.07-4.65,4.37-6.12
		c1.3-0.84,2.83-0.84,3.76-0.11c1.87,1.46-0.47,1.84-0.98,2.78c-1.04,1.91-0.58,4.03-0.39,6.14
		C217.44,366.04,212.92,371.63,207.81,371.65z"/>
	<path style="fill:#F1F2F5;" d="M377.27,252.74c-2.36,13.14-9.85,23-19.17,32.19c-10.17,10.02-22.64,16-34.95,22.44
		c-0.81,0.43-1.97,0.2-3.81,0.34c6.88-7.88,12.76-15.57,19.72-22.11c2.77-2.6,8.07-2.33,12-3.9c9.72-3.87,14.72-12.29,19.29-20.96
		c1.76-3.34,3.12-6.89,4.66-10.34C376.79,250.19,377,251.49,377.27,252.74z"/>
	<path style="fill:#F1F2F5;" d="M146.55,51.49c-1.55-6.88-6.56-12.44-5.01-19.8c0.78-3.7,0.15-8.79,4.11-10.06
		c5.12-1.64,11.17-2.9,14.76,3.91c0.52,0.99,1.49,3.69,4.19,2.65c1.06-0.41,1.9,0.56,1.64,1.64c-0.9,3.8-1.77,7.61-2.61,11.4
		c-0.47,2.13-2.64,0.4-3.61-1.01c-2.32-3.37-4.68-6.72-6.88-10.17c-0.62-0.96-0.83-2.32-2.34-1.64c-1.07,0.49-0.71,1.55-0.48,2.49
		c0.18,0.73,0.16,1.53,0.39,2.24c0.82,2.6,4.15,3.79,4.17,6.68c0.02,3.49-4.38,1.12-5.78,4.11
		C147.94,46.41,150.3,49.64,146.55,51.49z"/>
	<path style="fill:#F1F2F5;" d="M223.48,362.67c-0.01,1.64,0.69,2.4,2.43,2.25c0.65-0.06,1.34,0.4,2.01,0.61
		c-3.02,6.93,3.36,2.79,4.99,4.24c-0.39,1.84,0.55,2.28,2.14,2.03c1.5-0.07,3.01-0.14,4.51-0.22c0.84,0.05,1.68,0.1,2.52,0.15
		c0.02,0.91-0.2,2.4,0.83,2.36c4.25-0.16,8.15,0.88,12.17,2.15c3.17,1,5.08-1.18,5.56-4.4c2.86,0.2,0.48,4.96,3.99,4.59
		c1.22,1.86,3.37,3.32-0.94,4.74c-6.38,2.09-12.18,3.45-18.8,0.28c-4.24-2.03-9.48-0.89-14.32-2.26c-4.33-1.23-8.1-4.65-13.73-3.53
		c4.42-1.56,6.89-2.68,2.56-6.74c-2.02-1.89,1.72-4.02,2.2-6.27C222.22,362.65,222.85,362.66,223.48,362.67z"/>
	<path style="fill:#F1F2F5;" d="M63.36,303.49c-4.18,5.42-5.2,11.13-4.56,18.22c-8.18-9.48-18.7-16.23-18.46-29.76
		c0-0.19-0.08-0.37-0.12-0.56c-0.46-2.2-4.28-4.54-0.77-6.52c3.35-1.89,4.56,1.82,5.93,3.98c1.95,3.08,6.67,4.16,6.37,8.84
		C56.54,297.57,57.05,305.77,63.36,303.49z"/>
	<path style="fill:#F1F2F5;" d="M296.93,206.7c-0.66-4.61-2.61-2.76-4.66-0.98c-3.7,3.21-6.75,6.97-8.91,11.32
		c-0.83,1.67-1.62,3.68-3.41,2.86c-1.99-0.91,0.74-2.81,0.41-3.66c-2.88-7.28,4.34-8.82,7.06-12.86c2.04-3.02,4.76-4.06,8.59-3.51
		c2.77,0.4,6.33-0.21,7.02,2.82c0.47,2.07-1.51,4.81-3.75,6.41C297.59,209.2,296.94,208.26,296.93,206.7z"/>
	<path style="fill:#B6B7BB;" d="M323.38,230.76c1.4,4.4-0.38,9.72,4.89,12.52c0.72,0.38,0.86,1.4,0.29,1.95
		c-5.82,5.65-5.3,14.25-10.13,21.51C314.8,253.49,321.96,242.52,323.38,230.76z"/>
	<path style="fill:#F1F2F5;" d="M194.09,101.81c4.82-4.95,10.54-6.31,17.43-3.81c-2.57,6.98-8.31,10.49-15.23,12.66
		c-1.32-0.37-3.07-1.61-1.73-2.46C198.88,105.45,195.01,103.85,194.09,101.81z"/>
	<path style="fill:#F1F2F5;" d="M228.4,323.58c3.54-0.28,5.32,0.41,3.78,4.69c-1.39,3.88-3.51,7.5-4.08,11.72
		c-0.38,2.88-2.95,2.27-4.98,2.21c-2.26-0.07-1.9-1.52-2.02-3.16c-0.33-4.66,1.83-8.71,2.76-13.05
		C225.76,325.91,226.32,323.32,228.4,323.58z"/>
	<path style="fill:#F1F2F5;" d="M70.08,329.47c-4.01-1.29-6.09-3.15-6.55-7.33c-1.14-10.51-1.22-10.83,6.55-16.57
		C70.08,313.66,70.08,321.36,70.08,329.47z"/>
	<path style="fill:#F1F2F5;" d="M154.47,45.23c4.02,0.43,11.24,8.02,11.79,12.25c0.33,2.56-1.06,3.44-2.88,2.35
		c-3.51-2.11-6.98-4.47-9.9-7.3c-1.52-1.47-1.72-4.17-0.52-6.46C153.3,45.44,153.44,44.61,154.47,45.23z"/>
	<path style="fill:#B6B7BB;" d="M281.01,195.41c0-2.31,0-4.61,0-6.92c1.45,0.01,2.48,0.46,2.3,2.18c-0.07,0.9-0.12,1.92,1.1,1.87
		c0.38-0.02,0.72-0.97,1.07-1.49c1.99-0.02,4.51-1.21,5.52,1.42c0.71,1.85-0.81,3.59-2.06,4.84c-3.62,3.63-7.42,7.09-11.22,10.54
		c-0.93,0.84-2.23,2.1-3.35,0.54c-0.75-1.06-0.46-2.63,0.7-3.56c3.41-2.73,6.87-5.38,10.35-8.09
		C284.42,194.1,282.39,195.91,281.01,195.41z"/>
	<path style="fill:#B6B7BB;" d="M81.32,222.65c-2.28-0.25-3.68-1.48-4.13-2.96c-1.25-4.08-3.28-7.63-6.06-10.83
		c-1.06-1.21-1.65-3.03-0.4-4.08c1.53-1.28,2.08,0.95,2.97,1.67C78.81,210.57,82.49,215.37,81.32,222.65z"/>
	<path style="fill:#B6B7BB;" d="M377.27,252.74c-0.27-1.25-0.48-2.55-2.26-2.35c-0.54-5.41,4.6-8.56,5.07-13.95
		C383.16,241.63,381.84,248.34,377.27,252.74z"/>
	<path style="fill:#B6B7BB;" d="M130.34,138.24c-0.96-0.05-1.92-0.11-2.87-0.16c0.33-7.1,2.06-9.47,6.43-9.26
		c3.05,0.15,3.94,2.29,2.35,3.9C134.4,134.61,133.32,137.55,130.34,138.24z"/>
	<path style="fill:#B6B7BB;" d="M182.5,250.37c0.37,2.68,0.81,4.03-0.38,4.66c-1.21,0.64-3.58,0.23-3.6-0.46
		c-0.13-3.27-7.07-0.93-4.47-5.03c1.22-1.94,0.28-6.46,2.76-5.54C179.53,245,181.22,248.82,182.5,250.37z"/>
	<path style="fill:#B6B7BB;" d="M200.04,151.11c2.03,4.66-2.06,7.03-2.31,10.39c-0.06,0.87-0.8,1.67-1.17,2.53
		c-0.61,1.42,0.58,3.66-1.85,4.23c-0.89,0.21-2.08,0.36-2.53-0.66c-0.88-1.97-1.36-4.77-0.06-5.99
		C195.21,158.73,196.4,154.53,200.04,151.11z"/>
	<path style="fill:#B6B7BB;" d="M99.93,375.71c-6.58,0.99-12.35-7.07-10.72-15.48C92.91,365.58,96.4,370.62,99.93,375.71z"/>
	<path style="fill:#F1F2F5;" d="M239.96,202.12c-2.94,3.48-5.52,6.57-8.14,9.61c-0.84,0.97-2.16,1.13-3.03,0.47
		c-1.16-0.89-1.27-2.67-0.45-3.61C231.25,205.25,233.84,201.12,239.96,202.12z"/>
	<path style="fill:#B6B7BB;" d="M242.09,371.74c-0.84-0.05-1.68-0.1-2.52-0.15c1.52-8.64,4.07-10.42,12.2-7.99
		C248.47,366.52,246.02,369.95,242.09,371.74z"/>
	<path style="fill:#B6B7BB;" d="M194.09,101.81c0.92,2.04,4.8,3.64,0.46,6.39c-1.33,0.85,0.41,2.09,1.73,2.46
		c-1.54,2.48-3.24,3.71-4.37-0.13c-0.56-1.9-0.48-3.36-3.06-1.78c-0.89,0.55-1.44-0.55-0.7-1.87c1.06-1.9,4.31-2.44,3.45-5.54
		c0,0-0.03,0.03-0.03,0.03C192.4,101.52,193.24,101.67,194.09,101.81z"/>
	<path style="fill:#B6B7BB;" d="M233.75,242.45c-2.29-2.5,0.5-6.25-2.38-8.84c-1.2-1.08,1.29-1.89,2-2.81
		c1.07-1.38,1.25,0.45,1.8,0.96C239.45,235.77,239.16,238.02,233.75,242.45z"/>
	<path style="fill:#B6B7BB;" d="M214.61,138.18c1-5.34,7.88-12.48,13.33-13.24c-4.24,5.09-8.07,9.86-13.42,13.14L214.61,138.18z"/>
	<path style="fill:#B6B7BB;" d="M296.93,206.7c0.01,1.56,0.65,2.5,2.35,2.41c-1.18,5.18-6.16,6.31-9.65,9.02
		c-0.28,0.21-1.23,0.02-1.48-0.3c-0.83-1.05-0.47-2.57,0.22-3.15C291.37,212.16,292.87,208.04,296.93,206.7z"/>
	<path style="fill:#B6B7BB;" d="M79.31,321.18c0.04,3.11,0.08,6.22,0.12,9.33c-0.56-0.03-1.57,0.04-1.6-0.11
		c-1.69-7.3-5.41-14.42-1.91-23.01c1.84,3.44,0.98,6.61,1.37,9.57C77.49,318.52,75.99,321.06,79.31,321.18z"/>
	<path style="fill:#B6B7BB;" d="M175.6,183.86c-0.77-6.86,2.64-12.39,5.44-18.64c2.58,5.41-0.3,15.17-5.07,18.83
		C175.97,184.06,175.6,183.86,175.6,183.86z"/>
	<path style="fill:#B6B7BB;" d="M120.7,261.9c0.02,2.4,0.03,4.8,0.05,7.2c-0.91,4.13,2.03,7.48,2.28,11.33
		c0.1,1.43,1.49,3.84-0.95,4.24c-2.26,0.37-1.1-2.25-1.77-3.37c-3.39-5.61-1.53-11.74-1.82-17.65
		C118.41,262.07,119.47,261.86,120.7,261.9z"/>
	<path style="fill:#B6B7BB;" d="M262.21,364.1c-0.02,1.06-7.79,7.6-8.97,7.57c-2.16-0.05-2.1-1.93-1.49-2.78
		c2.12-2.94,4.86-5.3,8.53-6.13C261.02,362.59,262.23,362.69,262.21,364.1z"/>
	<path style="fill:#B6B7BB;" d="M157.49,231.61c2.09-3.31,2.17-7.7,7.17-6.24c2.28,0.66,2.49,2.4,1.84,3.99
		C164.73,233.69,161.09,231.44,157.49,231.61z"/>
	<path style="fill:#B6B7BB;" d="M186.12,185.84c2.54,5.16,0.18,8.8-1.56,12.58c-0.78,1.68-2.22,1.51-3.32,1.05
		c-1.27-0.53-0.91-2.06-0.47-3.01C182.35,193.09,184.11,189.8,186.12,185.84z"/>
	<path style="fill:#B6B7BB;" d="M181.33,288.27c-1.85-2.75-1.04-6.05-3.35-8.28c-0.96-0.94-0.8-3.57,1.24-4.14
		c2.44-0.68,4.79,2.27,4.36,3.08C182.08,281.77,183.89,285.34,181.33,288.27z"/>
	<path style="fill:#B6B7BB;" d="M20.61,207.46c-2.34-5.37,2.33-8.68,2.03-12.99c-0.09-1.31,1.74-1.5,2.71-1.04
		c1.88,0.89,1.93,2.83,1.15,4.32C24.86,200.88,22.85,203.82,20.61,207.46z"/>
	<path style="fill:#B6B7BB;" d="M370.22,217.82c2.43,1.09,7.15-1.66,6.86,4.09c-0.09,1.69-0.65,2.98-2.59,3.05
		c-1.21,0.05-6.87-5.31-6.74-6.33C368.01,216.67,369.16,217.45,370.22,217.82z"/>
	<path style="fill:#B6B7BB;" d="M54.41,153.47c-0.01,1.66-0.37,3.04-2.46,2.97c-1.4-2.84-1.42-2.86-6.72-5.53
		c1.64-1.97,3-4.65,6-3.74C54.04,148.04,55.3,150.38,54.41,153.47z"/>
	<path style="fill:#B6B7BB;" d="M224.63,224.29c2.12,3.32,0.51,6.88,0.98,10.31c0.22,1.56-0.7,1.89-2.05,1.7
		c-1.5-0.21-1.56-1.03-1.45-2.37C222.38,230.59,224.64,227.79,224.63,224.29z"/>
	<path style="fill:#B6B7BB;" d="M257.48,202.13c1.13,0.34,3.52-0.43,2.81,2.1c-0.74,2.63-2.67,4.55-5.49,4.62
		c-1.75,0.04-3.37-2.43-2.9-3.21C253.02,203.81,254.34,201.3,257.48,202.13z"/>
	<path style="fill:#B6B7BB;" d="M213.32,237.98c5.22,2.53,2.78,6.75,2.78,10.29c0,0.92-1.29,1.49-2.22,0.99
		c-0.46-0.25-0.94-1.6-0.74-1.81C216.07,244.48,213.39,241.47,213.32,237.98z"/>
	<path style="fill:#B6B7BB;" d="M293.51,175.45c1.66,3.69,0.14,8.13,3.21,11.44c0.53,0.57,0.02,2.36-0.72,2.33
		c-1.39-0.07-2.94-0.92-3.12-2.53C292.44,182.97,292.38,179.22,293.51,175.45z"/>
	<path style="fill:#B6B7BB;" d="M284.84,260.13c2.34,2.24,6.55,1.88,7.57,5.59c0.35,1.26-0.49,2.2-2,1.67
		c-3.04-1.05-6.23-1.86-8.2-4.77C283.37,262.1,283.18,260.07,284.84,260.13z"/>
	<path style="fill:#B6B7BB;" d="M252.98,199.04c-0.01,1.45-8.38,8.95-9.65,8.84c-1.38-0.12-1.63-1.4-1.18-2.02
		c2.19-3.08,4.35-6.32,7.79-8.12C250.79,197.3,252.65,197.35,252.98,199.04z"/>
	<path style="fill:#B6B7BB;" d="M223.68,195.41c1.59,0.02,3.17,0.04,4.76,0.06c-4.96,7.29-6.6,8.55-11.41,8.71
		C218.34,200.53,223.54,199.86,223.68,195.41z"/>
	<path style="fill:#B6B7BB;" d="M183.88,294.03c1.64,0.36,2.77,0.97,2.48,2.3c-0.55,2.53-2.58,4.09-4.72,5.02
		c-1.23,0.53-1.63-1.08-1.55-2.24C180.28,296.43,182.45,295.4,183.88,294.03z"/>
	<path style="fill:#B6B7BB;" d="M157.66,327.74c-5.73-0.12-10.55,4.12-16.65,2.26C146.85,326.42,154.17,323.81,157.66,327.74z"/>
	<path style="fill:#B6B7BB;" d="M143.56,360.28c-0.76,0-1.52,0-2.27,0c-3.81-2.79-5.42-6.41-4.14-12.68
		C139.54,352.71,143.47,355.38,143.56,360.28z"/>
	<path style="fill:#F1F2F5;" d="M31.62,263.84c7.88,4.17,8.43,6.32,3.05,12.61c-2.94-3.26-3.09-7.66-4.76-11.39
		C30.49,264.65,31.05,264.25,31.62,263.84z"/>
	<path style="fill:#B6B7BB;" d="M255.56,229.43c3.09-6.24,5.54,1.91,8.92,0.57c1.18-0.47,0.67,3.59,0.46,5.4
		c-0.23,1.98-1.46,1.25-2.69,0.15c-2.08-1.86-3.01-5.02-6.21-5.61C255.86,229.78,255.7,229.61,255.56,229.43z"/>
	<path style="fill:#B6B7BB;" d="M100.45,307.17c-0.02-3.05-1.88-5.99,0.98-8.32c1.11-0.91,4.08-0.53,4.14,0.25
		C105.81,302.5,103.73,304.97,100.45,307.17z"/>
	<path style="fill:#B6B7BB;" d="M177.9,152.49c0.25,2.91-1.27,4.71-3.65,5.99c-0.54-1.57-3.73-2.27-2.76-3.46
		c1.5-1.83,0.99-5.42,4.52-5.58C178.62,149.33,177.86,151.13,177.9,152.49z"/>
	<path style="fill:#B6B7BB;" d="M222.55,253.67c-1.24,2.07-1.99,4.73-4.53,5.12c-0.78,0.12-3.88-1.39-2.99-2.96
		c1.12-1.98,2.69-4.44,5.29-4.88C221.61,250.72,221.97,252.62,222.55,253.67z"/>
	<path style="fill:#B6B7BB;" d="M326.87,330.55c-0.44-3.23-0.3-6.31,2.42-8.63c1.18-1.01,2.7-1.7,4.05-0.68
		c1.33,1.01,0.67,3.01-0.13,3.55c-2.41,1.62-2.56,5.8-6.43,5.65C326.78,330.44,326.87,330.55,326.87,330.55z"/>
	<path style="fill:#B6B7BB;" d="M102.45,209.07c0.73,0.02,1.47,0.04,2.2,0.06c3.22,4.29,2.85,8.97,1.23,13.87
		C105.31,218.18,101.58,214.25,102.45,209.07z"/>
	<path style="fill:#B6B7BB;" d="M194.17,224.74c1.32-4.73,4.58-4.73,8.02-3.89c1.2,0.29,2.81,1.62,1.64,2.87
		C201.11,226.6,197.68,225.22,194.17,224.74z"/>
	<path style="fill:#B6B7BB;" d="M171.71,59.95c-0.41-4.73,1.6-7.92,5.88-9.71C180.01,56.16,173.69,56.74,171.71,59.95z"/>
	<path style="fill:#B6B7BB;" d="M251.32,122.2c-0.05,0.91,0.03,1.79-1.14,2.25c-2.78,1.09-3.79,5.14-7.53,4.59
		c-0.81-0.12-1.16-1.19-0.74-1.79c2.14-3.05,4.67-5.59,8.8-5.53C250.92,121.87,251.13,122.03,251.32,122.2z"/>
	<path style="fill:#B6B7BB;" d="M228.4,323.58c-2.07-0.25-2.64,2.33-4.53,2.41c-1.29-6.9,0.43-9.28,6.72-8.37
		C228.2,319.21,227.96,321.3,228.4,323.58z"/>
	<path style="fill:#B6B7BB;" d="M256.03,229.94c-0.18,1.58,0.38,3.54-1.81,4.16c-0.88,0.25-2.48,0.06-2.42-0.74
		c0.23-2.8-4.28-3.42-2.79-6.67c0.7-1.53,1.19-1.38,2.3-0.33c1.26,1.18,2.81,2.06,4.24,3.07
		C255.7,229.61,255.86,229.78,256.03,229.94z"/>
	<path style="fill:#B6B7BB;" d="M301.81,174.68c0.67,0.01,1.33,0.03,2,0.04c0,4.78,0,9.55,0,14.33c-0.67,0-1.33-0.01-2-0.01
		C301.81,184.26,301.81,179.47,301.81,174.68z"/>
	<path style="fill:#B6B7BB;" d="M207.68,255.71c0.13,2.84-1.68,4.04-3.64,4.62c-0.57,0.17-3.23-0.57-2.64-2.08
		c0.75-1.88,2.34-3.59,4.53-4.28C208.05,253.29,206.88,255.52,207.68,255.71z"/>
	<path style="fill:#B6B7BB;" d="M309.5,253.66c-0.08-5.69,3.53-9.39,7.53-9.3c-1.12,1.52-2.17,2.82-3.86,3.72
		C311.64,248.9,310.53,250.44,309.5,253.66z"/>
	<path style="fill:#B6B7BB;" d="M191.23,286.23c-4.29-0.97-4.5-3.67-3.91-6.79c0.3-1.58,1.62-1.68,2.53-1.14
		C193.39,280.39,191.2,283.36,191.23,286.23z"/>
	<path style="fill:#B6B7BB;" d="M182.74,159.5c0.82-0.99-1.44-3.73,1.68-3.43c2.63,0.25,2.75,2.53,2.79,4.67
		c0.03,1.83-0.46,2.77-2.56,2.6C181.76,163.1,182.9,161.09,182.74,159.5z"/>
	<path style="fill:#B6B7BB;" d="M189.23,258.46c2.18,0.59,3.93,1.06,5.82,1.56c-0.99,2.58-2.74,4.26-5.01,6.19
		C189.27,263.58,188.9,261.3,189.23,258.46z"/>
	<path style="fill:#B6B7BB;" d="M107.14,316.6c-2.13,0.55-2.7-2.44-4.74-2.1c-0.45-2.98-0.02-5.43,3.91-6.06
		C106.58,311.2,106.86,313.9,107.14,316.6z"/>
	<path style="fill:#B6B7BB;" d="M183.12,183.95c-2.25-4.93,2.11-7.48,2.15-12.58C187.5,176.85,187.5,176.85,183.12,183.95z"/>
	<path style="fill:#B6B7BB;" d="M122.91,167.89c0.71-0.03,1.41-0.05,2.12-0.08c-0.65,4.07-2.07,7.66-6,9.71
		c-0.27-0.18-0.52-0.36-0.77-0.57C118.85,173.44,119.59,170,122.91,167.89z"/>
	<path style="fill:#B6B7BB;" d="M202.87,237.51c0.2-1.46-0.46-3.35,2.1-3.15c1.86,0.15,2.67,1.22,2.71,2.95
		c0.05,1.93-0.7,3.48-2.82,3.5C202.54,240.83,203.34,238.69,202.87,237.51z"/>
	<path style="fill:#B6B7BB;" d="M200.62,165.34c0.15,1.15,0.3,2.31,0.45,3.46c1,3.67-3.53,4.79-3.69,7.99
		C195.69,172.15,197.44,168.55,200.62,165.34z"/>
	<path style="fill:#B6B7BB;" d="M134.49,321.31c2.9,0.55,1.87,2.95,2.21,4.71c-1.12,3.6-3.87,2.1-5.99,1.67
		c-1.15-0.24-0.86-1.92-0.76-2.99c0.08-0.86,0.69-1.06,1.59-0.9C134.06,324.23,134.07,324.18,134.49,321.31z"/>
	<path style="fill:#F1F2F5;" d="M276.79,241.97c-1.38,1.93-2.18,3.93-3.78,3.82c-1.7-0.12-3.11-1.92-3.35-3.65
		c-0.26-1.89,1.11-3.28,3.08-3.21C274.82,239.01,274.46,241.89,276.79,241.97z"/>
	<path style="fill:#B6B7BB;" d="M223.48,362.67c-0.63-0.01-1.25-0.02-1.88-0.03c-0.01-2.24-0.16-4.5,0-6.73
		c0.13-1.85,1.56-2.69,3.18-2.26c2.09,0.55,1.66,3.07,0.93,3.59C223.66,358.71,223.99,360.79,223.48,362.67z"/>
	<path style="fill:#B6B7BB;" d="M180.28,234.56c2.33-0.06,2.28,1.7,2.28,3.16c0,1.98-1.17,3.29-3.14,3.36
		c-2.06,0.08-1.66-1.78-1.66-2.94C177.75,236.48,177.82,234.59,180.28,234.56z"/>
	<path style="fill:#B6B7BB;" d="M235.05,371.81c-1.59,0.25-2.53-0.2-2.14-2.03c0.27-6.35,1.25-7.4,6.11-6.24
		C237.08,366.05,233.69,367.86,235.05,371.81z"/>
	<path style="fill:#B6B7BB;" d="M342.5,312.81c-0.97,1.22-1.46,2.37-2.3,2.78c-1.56,0.76-1.5,3.75-3.85,2.93
		c-0.56-0.19-0.87-2.07-0.72-3.09c0.33-2.31,1.83-3.61,4.26-3.44C340.6,312.05,341.3,312.43,342.5,312.81z"/>
	<path style="fill:#B6B7BB;" d="M269.49,330.54c-1.54,0.21-2.7,0.01-2.21-2.01c-0.12-0.73-0.08-1.54-0.38-2.19
		c-0.69-1.51-0.44-2.7,1.25-2.84c1-0.08,2.1-1.43,3.01-0.19c1.09,1.48-0.17,2.02-1.14,3.01
		C269.08,327.27,268.84,329.02,269.49,330.54z"/>
	<path style="fill:#B6B7BB;" d="M116.21,312.29c0.18-1.94-3.69-2.46-1.95-4.62c1.55-1.93,3.28-5.76,5.62-4.63
		c3.54,1.7-0.31,3.66-1.19,5.51c-0.66,1.39-0.01,3.64-2.59,3.66C116.1,312.21,116.21,312.29,116.21,312.29z"/>
	<path style="fill:#B6B7BB;" d="M276.35,195.29c0.07,0.98,0.13,1.97,0.2,2.95c0.05,0.18,0.21,0.45,0.14,0.54
		c-1.77,2.2-3.51,4.45-6.36,5.34c-0.13,0.04-0.81-0.83-0.77-1.22C269.99,198.76,273.71,197.5,276.35,195.29z"/>
	<path style="fill:#B6B7BB;" d="M264.64,376.44c-3.52,0.37-1.13-4.39-3.99-4.59c-0.82-2.88,2.46-2.65,3.38-4.29
		c0.34-0.61,2.18-1.13,3.01,0c0.96,1.32-0.51,1.66-1.22,2.45C264.17,371.81,264.43,374.17,264.64,376.44z"/>
	<path style="fill:#B6B7BB;" d="M118.6,211.32c1.63,0,1.77-1.38,2.25-2.44c3.72,2.57,1.72,5.94,1.28,9.2
		C120.72,215.88,118.43,214.26,118.6,211.32z"/>
	<path style="fill:#B6B7BB;" d="M311.86,215.66c-0.97-2.45-1.89-4.8,1.17-5.89c1.07-0.38,1.7,0.26,2.15,1.23
		C316.78,214.52,312.61,213.77,311.86,215.66z"/>
	<path style="fill:#B6B7BB;" d="M316.89,215.68c1.15,2.32,0.45,3.68-0.89,4.94c-1.26,1.18,0.12,3.41-1.65,4.46
		C312.51,221.42,312.51,221.42,316.89,215.68z"/>
	<path style="fill:#B6B7BB;" d="M290.56,225.28c-0.81-0.19-3.06,0.55-2.67-1.22c0.45-2.04,2.61-3.2,4.81-3.74
		c1.49-0.37,2.05,0.28,2.1,1.64C294.9,224.72,293.27,225.47,290.56,225.28z"/>
	<path style="fill:#B6B7BB;" d="M172.66,280.29c0.85,2.87,1.42,5.14-1.51,6.35c-0.95,0.4-1.79,0.38-2.27-0.84
		C167.48,282.35,170.58,281.98,172.66,280.29z"/>
	<path style="fill:#B6B7BB;" d="M152.95,147.32c-0.89-0.05-1.78-0.1-2.68-0.15c0.08-0.75,0.24-1.5,0.23-2.25
		c-0.04-2.03,1.55-2.89,2.86-3.83c0.76-0.55,1.42,0.19,1.48,1.01C155,144.1,156.62,146.69,152.95,147.32z"/>
	<path style="fill:#B6B7BB;" d="M214.53,138.08c0.2,2.4-2.24,3.09-3.23,4.73c-0.46,0.75-1.53,2.92-2.98,1.75
		c-1.22-0.99-0.91-2.79,0.56-3.87c1.71-1.26,3-3.54,5.73-2.5C214.61,138.18,214.53,138.08,214.53,138.08z"/>
	<path style="fill:#B6B7BB;" d="M260.34,121.86c-0.47-2.39,2.11-2.62,3.07-4c0.58-0.83,3.08-1.04,3.97,0.31
		c1.07,1.63-1.08,2.36-1.92,2.72c-1.95,0.85-2.52,3.69-5.12,3.4C260.34,123.48,260.34,122.67,260.34,121.86z"/>
	<path style="fill:#B6B7BB;" d="M173.39,172.48c-0.73,0.02-1.47,0.04-2.2,0.05c-0.24-1.25,0.17-1.93,1.38-2.66
		c1.52-0.92,0.03-4.58,3.42-4.14c0.46,0.06,0.87,0.5,1.3,0.76C174.59,167.59,176.8,171.87,173.39,172.48z"/>
	<path style="fill:#B6B7BB;" d="M312.85,257.99c-1.82,2.62-3.52,4.55-5.89,5.98C306.24,258.84,308.01,256.97,312.85,257.99z"/>
	<path style="fill:#B6B7BB;" d="M22.18,218.27c-2.33,0.44-2.82-2.68-4.98-2.58c0.24-2.32,0.49-4.63,0.73-6.95
		C20.34,211.81,21.91,214.8,22.18,218.27z"/>
	<path style="fill:#B6B7BB;" d="M131.13,213.92c1.9,3.1-0.35,4.69-2.52,6.89c-1.31-2.21-1.95-4.15-1.54-6.39
		c0.34-0.33,0.67-0.66,1.01-0.99c0.81-0.62,1.61-0.66,2.42,0l0.48,0.04L131.13,213.92z"/>
	<path style="fill:#B6B7BB;" d="M278.98,368.63c-3.11,0.29-3.84,4.26-6.95,2.58c-0.19-0.1-0.15-1.28,0.11-1.44
		C273.95,368.64,275.3,365.71,278.98,368.63z"/>
	<path style="fill:#B6B7BB;" d="M174.67,332.26c-2.17-4.09,1.77-4.11,2.38-6.01C178.26,329.19,175.16,329.68,174.67,332.26z"/>
	<path style="fill:#B6B7BB;" d="M214.66,382.96c-2.54,0.08-3.52-3.06-6.1-3.15c2.33-1.18,4.49-1.79,5.99,1.29
		C214.58,381.72,214.62,382.34,214.66,382.96z"/>
	<path style="fill:#F1F2F5;" d="M214.66,382.96c-0.04-0.62-0.07-1.23-0.11-1.85c0.56-0.06,1.12-0.09,1.68-0.18
		c2.66-0.42,3.84,1.67,5.31,3.2c0.13,0.13-0.3,1.2-0.64,1.31c-2.23,0.68-3.72-0.69-5.2-2.06
		C215.45,383.13,215.01,383.09,214.66,382.96z"/>
	<path style="fill:#B6B7BB;" d="M239.58,315.74c2.33-1.11,2.96-4.2,6.55-2.61C244.2,314.54,243.49,317.5,239.58,315.74z"/>
	<path style="fill:#B6B7BB;" d="M281.38,172.33c1.33-0.2,1.51-1.42,2.04-2.32c3.76,1.53,1.05,4.37,1.49,6.71
		C283.83,175.03,281.01,174.94,281.38,172.33z"/>
	<path style="fill:#B6B7BB;" d="M128.72,306.77c1.49,4.17,0.75,6.82,0.01,9.48C127.71,313.59,127.19,310.93,128.72,306.77z"/>
	<path style="fill:#B6B7BB;" d="M138.75,305.41c-0.62-0.04-1.24-0.07-1.87-0.11c-2.26-0.41-2.59-2-1.89-3.72
		c0.23-0.55,1.74-1.06,2.45-0.85C140.21,301.52,138.17,303.87,138.75,305.41z"/>
	<path style="fill:#B6B7BB;" d="M110.51,307.32c-1.83-2.74-2.27-4.74,0.07-6.31c0.87-0.58,2.83-0.76,3.08,0.12
		C114.45,303.94,111.05,304.51,110.51,307.32z"/>
	<path style="fill:#B6B7BB;" d="M317.72,280.21c-1.16,4.74-4.44,0.47-6.89,2.52c1.67-4.86,3.78-5.42,6.76-2.65L317.72,280.21z"/>
	<path style="fill:#B6B7BB;" d="M119.04,177.52c0,2.81-1.53,4.78-3.7,6.26c-0.55,0.37-1.6,0.04-1.6-0.93
		c0.01-3.08,2.09-4.64,4.53-5.89C118.51,177.16,118.77,177.34,119.04,177.52z"/>
	<path style="fill:#B6B7BB;" d="M27.93,215.09c-1.06-2.53-1.57-5.09-0.24-8.18C30.3,209.82,28.77,212.48,27.93,215.09z"/>
	<path style="fill:#B6B7BB;" d="M70.04,252.06c-0.21,1.11-0.33,2.27-1.88,2.31c-1.04,0.02-1.86-0.24-1.91-1.44
		c-0.06-1.32,0.6-2.04,1.93-2.23C69.31,250.54,69.96,250.88,70.04,252.06z"/>
	<path style="fill:#B6B7BB;" d="M173.14,146.35c-1.52,0.91-1.4,3.49-3.56,3.66c-0.87,0.07-2.97-0.97-2.4-1.53
		c1.13-1.13,0.94-3.54,3.03-3.55C171.18,144.91,172.54,144.73,173.14,146.35z"/>
	<path style="fill:#B6B7BB;" d="M159.6,151.98c0.01-0.37,0.17-0.87-0.01-1.1c-1.14-1.47-3.51-2.64-1.76-4.91
		c1.3-1.69,2.47,0.27,3.07,0.96c1.82,2.11,1.64,4.03-1.39,4.96C159.51,151.9,159.6,151.98,159.6,151.98z"/>
	<path style="fill:#B6B7BB;" d="M223.95,245.62c0,1.35,0.01,2.75-1.97,2.44c-1.32-0.21-2.47-0.6-2.42-2.38
		c0.06-1.82,1.33-2.02,2.61-2.18C223.76,243.3,223.94,244.43,223.95,245.62z"/>
	<path style="fill:#B6B7BB;" d="M115.78,167.84c0.81,0,1.62-0.01,2.44-0.01c0.55,2.81-2.7,2.94-3.37,5.02
		C114.27,170.89,112.1,168.76,115.78,167.84z"/>
	<path style="fill:#B6B7BB;" d="M237.83,215.03c0.85-1.38,1.89-2.41,3.57-3.15C242.17,215.29,241.32,216.53,237.83,215.03z"/>
	<path style="fill:#B6B7BB;" d="M191.57,293.81c-0.89,1.66,1.25,3.81-1.01,5.37c-2.35-2.35-0.86-3.85,1.09-5.28L191.57,293.81z"/>
	<path style="fill:#B6B7BB;" d="M138.73,140.14c1.02-1.77-3.41-2.19-1.1-4.03c0.89-0.71,2.99-1.12,3.68,0.1
		c1.02,1.8,1.3,4.02-1.67,4.73C139.34,140.67,139.04,140.4,138.73,140.14z"/>
	<path style="fill:#B6B7BB;" d="M33.16,229.83c-0.86,0-1.19,0.06-1.22-0.01c-1.08-2.23-1.81-4.5-0.2-6.78
		c0.12-0.17,1.26,0,1.37,0.25C34.07,225.56,33.77,227.76,33.16,229.83z"/>
	<path style="fill:#B6B7BB;" d="M283.36,124.5c-0.02-1.71-1.04-2.43-2.61-2.58c0.75-3.27,3.46-2.47,4.57-1.26
		C286.51,121.94,286.11,124.25,283.36,124.5z"/>
	<path style="fill:#B6B7BB;" d="M281.17,240.49c1.2-1.36,2.18-2.47,3.36-3.81C284.78,240.26,284.78,240.26,281.17,240.49z"/>
	<path style="fill:#B6B7BB;" d="M372.64,232.05c1.24-2.21-1.81-2.33-2.2-3.72c1.63-1.38,3.47-1.32,4.09-0.06
		c0.69,1.39,0.47,3.43-2,3.69C372.54,231.95,372.64,232.05,372.64,232.05z"/>
	<path style="fill:#B6B7BB;" d="M252.92,119.1c1.03-3.26,3.14-1.2,5.08-1.54c-0.55,3-2.57,2.32-4.07,2.61
		C253.59,119.82,253.25,119.46,252.92,119.1z"/>
	<path style="fill:#B6B7BB;" d="M317.59,280.08c0.15-1.43,0.31-2.86,0.51-4.7c2.21,3.21,2.21,3.21-0.38,4.84
		C317.72,280.21,317.59,280.08,317.59,280.08z"/>
	<path style="fill:#B6B7BB;" d="M136.75,145.08c-0.05-0.92-0.09-1.83-0.14-2.75c-0.59-1.98,0.72-2.14,2.12-2.2
		c0.3,0.27,0.6,0.54,0.91,0.81C139.21,142.69,139.16,144.71,136.75,145.08z"/>
	<path style="fill:#B6B7BB;" d="M267.37,126.69c-0.88-0.06-1.76-0.12-2.63-0.19c0.25-2.86,2.54-2.21,4.28-2.48
		c0.21,0.14,0.42,0.29,0.61,0.45C269.73,126.08,269.11,126.95,267.37,126.69z"/>
	<path style="fill:#B6B7BB;" d="M256.3,126.79c-0.99-0.08-1.97-0.16-2.96-0.24c-0.07-2.71,2.05-1.91,3.5-2.19
		c0.53,0.12,1.06,0.24,1.59,0.37C258.65,126.38,258.16,127.29,256.3,126.79z"/>
	<path style="fill:#F1F2F5;" d="M258.43,124.73c-0.53-0.12-1.06-0.24-1.59-0.37c-0.19-2.73,1.94-2.23,3.5-2.5
		c0,0.81,0,1.62-0.01,2.43C259.7,124.44,259.06,124.58,258.43,124.73z"/>
	<path style="fill:#B6B7BB;" d="M250.71,121.72c0.01-1.48,0.45-2.61,2.21-2.62c0.33,0.36,0.67,0.71,1,1.07
		c0.06,1.87-1.17,2.07-2.6,2.03C251.13,122.03,250.92,121.87,250.71,121.72z"/>
	<path style="fill:#F1F2F5;" d="M285.48,191.05c-0.36,0.52-0.69,1.47-1.07,1.49c-1.22,0.05-1.17-0.97-1.1-1.87
		C284.03,190.8,284.75,190.93,285.48,191.05z"/>
	<path style="fill:#F1F2F5;" d="M375.27,185.79c1.89-0.12,2.42,1.1,1.47,2.29c-0.86,1.07-2.24,0.81-2.78-0.82
		C374.39,186.78,374.83,186.28,375.27,185.79z"/>
	<path style="fill:#B6B7BB;" d="M168.81,167.94c-0.04-1.03-0.42-2.19,0.69-2.87c0.2-0.13,1.09,0.31,1.17,0.61
		c0.42,1.61-0.27,2.38-1.96,2.16C168.71,167.85,168.81,167.94,168.81,167.94z"/>
	<path style="fill:#B6B7BB;" d="M191.66,293.9c0.36-0.57,0.72-1.14,1.08-1.71c0.2,0.22,0.4,0.45,0.6,0.67
		c-0.59,0.32-1.18,0.63-1.77,0.95C191.57,293.81,191.66,293.9,191.66,293.9z"/>
	<path style="fill:#B6B7BB;" d="M164.45,161.37c-0.4-1.57,0.06-2.57,1.8-2.72C167.61,160.85,166.59,161.49,164.45,161.37z"/>
	<path style="fill:#B6B7BB;" d="M51.94,156.45c-0.14,0.72-0.15,1.64-1.08,1.72c-0.96,0.08-1.09-0.82-1.29-1.53
		C50.36,156.58,51.15,156.51,51.94,156.45z"/>
	<path style="fill:#B6B7BB;" d="M42.87,156.67c0.09,1.54-0.71,2.18-2.17,2.15C40.49,157.16,41.06,156.29,42.87,156.67z"/>
	<path style="fill:#B6B7BB;" d="M372.37,234.41c-1.57,0.09-2.21-0.7-2.13-2.2c0.8-0.05,1.6-0.11,2.4-0.16c0,0-0.11-0.1-0.11-0.1
		C372.48,232.77,372.42,233.59,372.37,234.41z"/>
	<path style="fill:#B6B7BB;" d="M269.02,124.02c0.02-1.2,0.41-2.15,1.83-1.96c0.38,0.05,0.96,0.59,0.98,0.94
		c0.12,1.65-1.2,1.36-2.2,1.47C269.44,124.31,269.23,124.16,269.02,124.02z"/>
	<path style="fill:#F1F2F5;" d="M29.3,261.5c1.85-0.28,2.52,0.6,2.31,2.34c-0.56,0.4-1.12,0.81-1.7,1.22
		c-0.59-0.49-1.16-0.99-1.73-1.46C28.56,262.91,28.93,262.21,29.3,261.5z"/>
	<path style="fill:#F1F2F5;" d="M232.91,197.69c-0.06,0.86,0.3,2.02-1.11,2.05c-0.35,0.01-1-0.57-1.03-0.92
		c-0.1-1.16,0.05-2.31,1.74-1.97C232.62,197.14,232.76,197.42,232.91,197.69z"/>
	<path style="fill:#F1F2F5;" d="M90.98,124.45c-0.51-0.87-0.72-1.76,0.47-2.17c0.68-0.23,1.55-0.11,1.48,0.95
		c-0.09,1.36-1.25,0.98-2.07,1.13C90.86,124.35,90.98,124.45,90.98,124.45z"/>
	<path style="fill:#2E2C2D;" d="M130.49,213.42c-0.81-0.65-1.61-0.62-2.42,0c0.44-3-2.61-6.63,1.52-8.97
		c2.39-1.35,3.3,0.57,2.2,4.75C131.42,210.62,130.93,212.01,130.49,213.42z"/>
	<path style="fill:#2E2C2D;" d="M280.79,345.58c0.1-3.63,0.56-6.16,2.23-8.74c1.32-2.04,2.81-2.24,4.02-1.43
		c1.99,1.34-0.89,1.84-0.96,2.77c-0.28,3.8-3.65,7.89,1.08,11.33c0.95,0.69,1.33,2.55,0.16,3.51c-1.06,0.86-2.58,0.42-3.65-0.43
		C281.16,350.6,280.24,347.94,280.79,345.58z"/>
	<path style="fill:#2E2C2D;" d="M246.45,300.74c-1.63,0.07-2.26-0.72-1.78-2.11c1.44-4.15,2.97-8.26,4.46-12.38
		c0.69-1.9,2.4-1.96,3.7-1.43c1.31,0.53,0.75,2.14,0.17,3c-2.2,3.29-2.86,7.14-4.08,10.76
		C248.41,300.12,247.98,300.92,246.45,300.74z"/>
	<path style="fill:#2E2C2D;" d="M347.67,243.36c1.86,0.35,3.44-0.21,4.87,1.47c1.28,1.51,5.17,1.7,3.64,4.47
		c-1.46,2.65-3.33-0.56-5.06-1.07c-1.07-0.32-2.23-0.33-3.36-0.4c-1.77-0.11-4.33,0.73-4.24-2.19
		C343.61,242.88,346.25,243.76,347.67,243.36z"/>
	<path style="fill:#B6B7BB;" d="M217,312.23c-1.91-0.05-4.38,0.94-4.63-2.31c-0.13-1.67,1-2.43,2.47-2.29
		c3.38,0.31,1.9,2.9,2.06,4.71C216.89,312.33,217,312.23,217,312.23z"/>
</g>
</svg>
