<svg width="14" height="13" viewBox="0 0 14 13" fill="none" xmlns="http://www.w3.org/2000/svg">
<path d="M3.25133 1.47118C3.25116 1.82218 3.11267 2.15874 2.86633 2.40681C2.61999 2.65489 2.28598 2.79415 1.93778 2.79398C1.58958 2.7938 1.25571 2.6542 1.00962 2.40588C0.76353 2.15756 0.625375 1.82086 0.625549 1.46986C0.625724 1.11886 0.764213 0.7823 1.01055 0.534228C1.25689 0.286156 1.5909 0.146889 1.9391 0.147064C2.2873 0.14724 2.62117 0.286843 2.86726 0.535164C3.11335 0.783484 3.25151 1.12018 3.25133 1.47118ZM3.29072 3.774H0.664936V12.0588H3.29072V3.774ZM7.43945 3.774H4.8268V12.0588H7.4132V7.71128C7.4132 5.28935 10.5444 5.06437 10.5444 7.71128V12.0588H13.1374V6.81133C13.1374 2.72847 8.50289 2.88066 7.4132 4.8857L7.43945 3.774Z" fill="#515058"/>
</svg>
