<svg width="17" height="13" viewBox="0 0 17 13" fill="none" xmlns="http://www.w3.org/2000/svg">
<path d="M16.289 1.64187C15.7134 1.90347 15.0929 2.07537 14.4499 2.15758C15.1078 1.76146 15.6162 1.13364 15.8554 0.37876C15.2349 0.752462 14.5471 1.01405 13.822 1.16353C13.2314 0.520767 12.4015 0.147064 11.4595 0.147064C9.70268 0.147064 8.26729 1.58208 8.26729 3.35343C8.26729 3.60755 8.29719 3.85419 8.34952 4.08589C5.68806 3.95135 3.31817 2.67329 1.74073 0.737514C1.46412 1.20838 1.30712 1.76146 1.30712 2.34443C1.30712 3.45807 1.86782 4.44464 2.73504 5.0052C2.20424 5.0052 1.71082 4.85571 1.27722 4.63149V4.65391C1.27722 6.20852 2.38367 7.509 3.84896 7.80049C3.37852 7.9292 2.88463 7.94711 2.40609 7.85281C2.60915 8.48995 3.00682 9.04747 3.54321 9.44697C4.0796 9.84647 4.72773 10.0679 5.3965 10.0801C4.26286 10.9773 2.85764 11.4623 1.41178 11.4553C1.1576 11.4553 0.903415 11.4404 0.649231 11.4105C2.06967 12.3223 3.75925 12.8529 5.56845 12.8529C11.4595 12.8529 14.6967 7.96492 14.6967 3.72713C14.6967 3.58513 14.6967 3.45059 14.6892 3.30859C15.3172 2.86014 15.8554 2.29212 16.289 1.64187Z" fill="#515058"/>
</svg>
