<svg width="16" height="16" viewBox="0 0 16 16" fill="none" xmlns="http://www.w3.org/2000/svg">
<path d="M13.6317 2.62002C12.9453 1.92663 12.1276 1.37686 11.2265 1.00277C10.3253 0.628687 9.35873 0.437777 8.38303 0.441176C4.29488 0.441176 0.962976 3.77309 0.962976 7.86123C0.962976 9.17153 1.3074 10.4444 1.95132 11.5675L0.903076 15.4161L4.83398 14.3828C5.91966 14.9743 7.14011 15.2888 8.38303 15.2888C12.4712 15.2888 15.8031 11.9569 15.8031 7.86871C15.8031 5.88454 15.0319 4.02017 13.6317 2.62002ZM8.38303 14.0309C7.27488 14.0309 6.18921 13.7314 5.2383 13.1698L5.01368 13.035L2.6776 13.649L3.29906 11.3728L3.14931 11.1407C2.53365 10.1576 2.20674 9.02121 2.20589 7.86123C2.20589 4.46193 4.97624 1.69158 8.37554 1.69158C10.0228 1.69158 11.5727 2.3355 12.7332 3.50354C13.3079 4.07555 13.7633 4.75593 14.073 5.50525C14.3828 6.25456 14.5407 7.05791 14.5377 7.86871C14.5527 11.268 11.7823 14.0309 8.38303 14.0309ZM11.7673 9.41861C11.5802 9.32876 10.6667 8.87952 10.502 8.81213C10.3298 8.75223 10.21 8.72228 10.0827 8.90198C9.95539 9.08917 9.60348 9.50846 9.49865 9.62826C9.39383 9.75555 9.28152 9.77052 9.09433 9.67319C8.90715 9.58334 8.30815 9.38118 7.60433 8.75223C7.05026 8.25806 6.68338 7.65158 6.57107 7.46439C6.46624 7.27721 6.55609 7.17987 6.65343 7.08253C6.73579 7.00017 6.84061 6.8654 6.93046 6.76057C7.02031 6.65575 7.05775 6.57339 7.11765 6.45359C7.17755 6.3263 7.1476 6.22148 7.10267 6.13163C7.05775 6.04178 6.68338 5.12831 6.53363 4.75394C6.38388 4.39454 6.22664 4.43947 6.11433 4.43198H5.75493C5.62765 4.43198 5.43298 4.4769 5.26076 4.66409C5.09604 4.85128 4.61684 5.30052 4.61684 6.21399C4.61684 7.12746 5.28323 8.01098 5.37308 8.13077C5.46293 8.25806 6.68338 10.1299 8.54026 10.9311C8.98202 11.1257 9.32644 11.2381 9.59599 11.3204C10.0377 11.4627 10.4421 11.4402 10.764 11.3953C11.1234 11.3429 11.8647 10.9461 12.0144 10.5118C12.1717 10.0775 12.1717 9.71062 12.1193 9.62826C12.0668 9.5459 11.9545 9.50846 11.7673 9.41861Z" fill="#595959"/>
</svg>
