<?xml version="1.0" encoding="utf-8"?>
<!-- Generator: Adobe Illustrator 24.3.0, SVG Export Plug-In . SVG Version: 6.00 Build 0)  -->
<svg version="1.1" xmlns="http://www.w3.org/2000/svg" xmlns:xlink="http://www.w3.org/1999/xlink" x="0px" y="0px"
	 viewBox="0 0 500 500" style="enable-background:new 0 0 500 500;" xml:space="preserve">
<style type="text/css">
	.st0{fill:#EBEBEB;}
	.st1{fill:#F0F0F0;}
	.st2{display:none;}
	.st3{display:inline;}
	.st4{fill:#407BFF;}
	.st5{opacity:0.9;fill:#FFFFFF;}
	.st6{fill:#F5F5F5;}
	.st7{opacity:0.7;}
	.st8{fill:#FFFFFF;}
	.st9{fill:#407BFF;enable-background:new    ;}
	.st10{opacity:0.4;}
	.st11{fill:#FFFFFF;enable-background:new    ;}
	.st12{opacity:0.3;fill:#FFFFFF;}
	.st13{opacity:0.7;fill:#FFFFFF;}
	.st14{opacity:0.8;fill:#FFFFFF;}
	.st15{fill:#E4897B;}
	.st16{opacity:0.3;enable-background:new    ;}
	.st17{fill:#263238;}
	.st18{opacity:0.2;enable-background:new    ;}
	.st19{fill:#DE5753;}
	.st20{opacity:0.5;fill:#FFFFFF;}
	.st21{opacity:0.2;fill:#FFFFFF;}
	.st22{fill:#EBB376;}
	.st23{opacity:0.4;fill:#407BFF;}
	.st24{fill:#D58745;}
	.st25{opacity:0.2;fill:#FFFFFF;enable-background:new    ;}
	.st26{fill:#EEC1BB;}
	.st27{fill:#D4827D;}
	.st28{fill:#9F5B53;}
	.st29{opacity:0.3;}
	.st30{fill:#892B29;}
	.st31{opacity:0.6;fill:#FFFFFF;enable-background:new    ;}
	.st32{opacity:0.05;fill:#FFFFFF;enable-background:new    ;}
	.st33{opacity:0.3;fill:#FFFFFF;enable-background:new    ;}
</style>
<g id="Background_Complete">
	<g>
		<rect y="382.4" class="st0" width="500" height="0.25"/>
		<rect x="416.78" y="398.49" class="st0" width="33.12" height="0.25"/>
		<rect x="322.53" y="401.21" class="st0" width="8.69" height="0.25"/>
		<rect x="396.59" y="389.21" class="st0" width="19.19" height="0.25"/>
		<rect x="52.46" y="390.89" class="st0" width="43.19" height="0.25"/>
		<rect x="104.56" y="390.89" class="st0" width="6.33" height="0.25"/>
		<rect x="131.47" y="395.11" class="st0" width="93.68" height="0.25"/>
		<path class="st0" d="M237.01,337.8H43.92c-3.15,0-5.71-2.56-5.71-5.71V60.66c0-3.15,2.56-5.71,5.71-5.71h193.1
			c3.15,0,5.71,2.56,5.71,5.71v271.43C242.72,335.24,240.16,337.8,237.01,337.8z M43.92,55.2c-3.01,0-5.46,2.45-5.46,5.46v271.43
			c0,3.01,2.45,5.46,5.46,5.46h193.1c3.01,0,5.46-2.45,5.46-5.46V60.66c0-3.01-2.45-5.46-5.46-5.46H43.92z"/>
		<path class="st0" d="M453.31,337.8h-193.1c-3.15,0-5.71-2.56-5.71-5.71V60.66c0-3.15,2.56-5.71,5.71-5.71h193.1
			c3.15,0,5.71,2.56,5.71,5.71v271.43C459.02,335.24,456.46,337.8,453.31,337.8z M260.21,55.2c-3.01,0-5.46,2.45-5.46,5.46v271.43
			c0,3.01,2.45,5.46,5.46,5.46h193.1c3.01,0,5.46-2.45,5.46-5.46V60.66c0-3.01-2.45-5.46-5.46-5.46H260.21z"/>
	</g>
	<polygon class="st1" points="393.93,146.31 285.09,109.54 285,109.46 227.5,50.52 181.38,92.64 180.71,91.9 227.54,49.13 
		285.63,108.67 393.55,145.12 437.85,84.19 438.66,84.78 	"/>
	<g>
		<path class="st1" d="M55.61,236.79c0,2.97-2.41,5.38-5.38,5.38c-2.97,0-5.38-2.41-5.38-5.38s2.41-5.38,5.38-5.38
			C53.2,231.41,55.61,233.82,55.61,236.79z"/>
		<path class="st1" d="M232.9,49.82c0,2.97-2.41,5.38-5.38,5.38s-5.38-2.41-5.38-5.38s2.41-5.38,5.38-5.38S232.9,46.85,232.9,49.82z
			"/>
		<path class="st1" d="M443.63,84.48c0,2.97-2.41,5.38-5.38,5.38s-5.38-2.41-5.38-5.38s2.41-5.38,5.38-5.38
			S443.63,81.51,443.63,84.48z"/>
		<path class="st1" d="M444.1,368.38c0,2.97-2.41,5.38-5.38,5.38c-2.97,0-5.38-2.41-5.38-5.38s2.41-5.38,5.38-5.38
			C441.69,363.01,444.1,365.41,444.1,368.38z"/>
		<path class="st1" d="M290.74,109.11c0,2.97-2.41,5.38-5.38,5.38c-2.97,0-5.38-2.41-5.38-5.38s2.41-5.38,5.38-5.38
			C288.33,103.73,290.74,106.14,290.74,109.11z"/>
	</g>
	<polygon class="st1" points="191.35,368.52 190.94,368.44 56.02,342.97 56.2,341.99 190.71,367.38 284.89,108.94 285.83,109.28 	
		"/>
	
		<rect x="84.66" y="122.93" transform="matrix(0.6629 -0.7487 0.7487 0.6629 -86.3443 115.552)" class="st1" width="1" height="61.49"/>
	<polygon class="st1" points="438.46,368.81 371.75,327.47 373.21,327.07 443.29,259.65 393.28,145.92 394.2,145.51 444.49,259.88 
		444.24,260.12 374.01,327.69 438.98,367.96 	"/>
	<polygon class="st1" points="56.53,342.75 55.69,342.21 96.01,279.93 49.53,236.82 49.87,236.45 108.08,173.42 108.43,173.62 
		373.71,327.09 373.21,327.95 108.27,174.69 50.94,236.76 97.3,279.77 	"/>
</g>
<g id="Background_Simple" class="st2">
	<g class="st3">
		<path class="st4" d="M104.56,101.62c27.92-59.45,127.06-51.06,165.32-9.26c38.26,41.81,50.7,68.6,85.21,52.98
			c34.51-15.62,78.52-11.44,81.04,38.16s-37.91,108.26-102.09,125.61c-64.18,17.35-64.16,78.76-149.1,66.37
			c-46.31-6.76-47.37-56.86-40.83-98.3S72.18,170.57,104.56,101.62z"/>
		<path class="st5" d="M104.56,101.62c27.92-59.45,127.06-51.06,165.32-9.26c38.26,41.81,50.7,68.6,85.21,52.98
			c34.51-15.62,78.52-11.44,81.04,38.16s-37.91,108.26-102.09,125.61c-64.18,17.35-64.16,78.76-149.1,66.37
			c-46.31-6.76-47.37-56.86-40.83-98.3S72.18,170.57,104.56,101.62z"/>
	</g>
</g>
<g id="Shadow_1_">
	<ellipse id="_x3C_Path_x3E__359_" class="st6" cx="250" cy="416.24" rx="193.89" ry="11.32"/>
</g>
<g id="World">
	<g>
		<g>
			<g>
				<path class="st4" d="M241,299.13c2.69,0.22,5.35,0.31,7.99,0.27c22.6-0.33,43.28-10.03,57.95-25.62
					c12.16-12.92,20.19-29.91,21.76-48.97c0.04-0.49,0.08-0.99,0.11-1.48c0.66-10.2-0.6-20.09-3.46-29.31l0-0.01
					c-8.77-28.2-32.55-50.22-62.72-55.82c-2.7-0.5-5.45-0.87-8.25-1.1c-6.75-0.56-13.38-0.27-19.78,0.77
					c-18.95,3.07-35.91,12.76-48.18,26.79c-11.03,12.62-18.27,28.76-19.75,46.75c-0.8,9.64,0.12,19.03,2.5,27.85
					C177.85,271.43,205.9,296.23,241,299.13z"/>
			</g>
			<g class="st7">
				<path class="st8" d="M241,299.13c2.69,0.22,5.35,0.31,7.99,0.27c22.6-0.33,43.28-10.03,57.95-25.62
					c12.16-12.92,20.19-29.91,21.76-48.97c0.04-0.49,0.08-0.99,0.11-1.48c0.66-10.2-0.6-20.09-3.46-29.31l0-0.01
					c-8.77-28.2-32.55-50.22-62.72-55.82c-2.7-0.5-5.45-0.87-8.25-1.1c-6.75-0.56-13.38-0.27-19.78,0.77
					c-18.95,3.07-35.91,12.76-48.18,26.79c-11.03,12.62-18.27,28.76-19.75,46.75c-0.8,9.64,0.12,19.03,2.5,27.85
					C177.85,271.43,205.9,296.23,241,299.13z"/>
			</g>
			<g>
				<path class="st9" d="M186.82,237.94c-0.26,1.51-2.18,2.05-3.73,2.25c-2.32,0.29-4.65,0.58-6.97,0.87
					c-1.1-2.89-4.52-2.91-6.92-1.79c8.67,32.16,36.71,56.96,71.81,59.86c2.69,0.22,5.35,0.31,7.99,0.27
					c0.05-0.06,0.09-0.13,0.13-0.2c1.21-2.13-0.55-4.02-1.49-5.76c-0.21-0.39-2.2-5.43-1.54-5.44c-2.14,0.04-4.28-0.23-6.33-0.82
					c-0.16-0.04-0.33-0.1-0.41-0.24c-0.19-0.33,0.27-0.66,0.65-0.75c0.96-0.22,1.95-0.28,2.89-0.56c0.94-0.28,1.87-0.86,2.23-1.77
					c0.37-0.92,0.1-1.97,0.31-2.93c0.26-1.18,1.22-2.1,2.3-2.63c1.05-0.5,2.23-0.69,3.36-0.89c-2.46-1.34-0.67-4.12-2.6-5.99
					c-0.62-0.6-1.52-1.33-1.14-2.1c0.36-0.73,1.66-0.72,1.82-1.53c0.11-0.56-0.48-1.02-1.04-1.15c-0.56-0.13-1.17-0.08-1.67-0.36
					c-0.7-0.39-0.94-1.43-0.47-2.09c0.42-0.59,1.2-0.77,1.83-1.11c0.64-0.34,1.21-1.13,0.83-1.74c-0.09-0.14-0.22-0.26-0.37-0.35
					c-1.04-0.64-2.4-0.11-3.42,0.58c-1.02,0.68-2.05,1.54-3.27,1.53c-0.28-0.46-0.08-1.14,0.4-1.38c0.17-0.08,0.37-0.12,0.5-0.26
					c0.29-0.29,0.07-0.77-0.12-1.13c-0.92-1.69-1.13-3.75-0.56-5.58c2.48,0.05,4.96,0.09,7.44,0.14c0.06-0.56,0.12-0.89,0.71-1.06
					c-1.66-1.99-3.48-3.83-4.95-6c-0.18-0.26-0.37-0.54-0.66-0.64c-0.31-0.11-0.65,0-0.98-0.05c-1.07-0.15-1.25-1.61-1.14-2.69
					c-0.15-0.33-0.68-0.19-0.88,0.12c-0.2,0.3-0.24,0.69-0.49,0.96c-0.36,0.4-1.01,0.36-1.51,0.16c-1.74-0.67-2.67-2.94-1.89-4.64
					c0.09-0.2,0.21-0.4,0.41-0.51c0.42-0.24,0.94,0.06,1.42,0.14c1.9,0.34,1.61-1.76,1.15-2.75c-0.62-1.35-2.47-2.21-3.81-2.56
					c-1.57-0.4-12.04-2.4-10.31-5.82c0.16-0.32,0.48-0.54,0.81-0.68c1-0.44,2.15-0.31,3.2-0.61c1.05-0.3,2.06-1.39,1.61-2.37
					c-0.18-0.4-0.56-0.67-0.77-1.05c-0.59-1.06,0.32-2.44-0.1-3.59c-0.19-0.52-0.64-0.91-0.92-1.4c-0.28-0.48-0.33-1.21,0.15-1.5
					c0.54-0.32,1.27,0.16,1.84-0.1c0.6-0.27,0.55-1.25,0.01-1.62c-0.54-0.37-1.31-0.23-1.85,0.14c-0.29,0.19-0.55,0.45-0.89,0.49
					c-0.61,0.08-1.07-0.53-1.38-1.06c-0.5-0.85-0.99-1.69-1.49-2.54c-0.56,0.01-0.99,0.52-1.18,1.05c-0.19,0.53-0.23,1.1-0.45,1.62
					c-1.05,2.51-4.87,2.21-4.38,5.64c1.03-0.12,1.98,1.04,1.66,2.02c-0.4,1.21-2.22,1.88-1.97,3.13c0.09,0.44,0.44,0.79,0.51,1.23
					c0.19,1.21-1.68,1.66-2.49,1.93c-2.67,0.92-2.85-0.84-5.16-0.94c-1.06-0.05-2.01,0.67-3.06,0.78c-0.97,0.11-1.93-0.3-2.9-0.25
					c-2.67,0.16-1.33,3.78-1.14,5.36c-1.44-0.96-3.36,0.16-4.5,1.45c-1.76,1.98-1.59,1.63-3.92,1.72c-0.61,0.02-1.26,0.33-1.51,0.89
					c-0.43,0.98,0.49,2.03,0.51,3.1c0.01,0.51-0.19,1.02-0.14,1.53c0.12,1.34,1.71,1.93,2.68,2.87c0.84,0.82,1.24,2.08,1.03,3.24
					c-0.69,0.04-1.38-0.01-2.05-0.15c-0.4-0.78-0.8-1.55-1.21-2.33c-0.36-0.69-0.73-1.4-1.36-1.86c-0.35-0.26-0.78-0.43-1.03-0.78
					c-0.51-0.7-0.1-1.65,0.02-2.51c0.29-2.07-0.75-5.55-1.25-7.6c-0.54-2.19-1.99-3.05-2.52-5.07c-0.09-0.36-0.59-0.47-0.91-0.29
					c-0.32,0.18-0.48,0.55-0.58,0.91c-0.21,0.83-0.13,1.73,0.22,2.5c-0.46-1.02-3.04,1.66-3.2,2.17c-0.26,0.83,0.3,2.02,0.28,2.89
					c-0.05,2.15-0.57,3.36-2.8,1.78c-0.85-0.61-1.94-1.32-2.84-0.79c0.19,0.58-0.2,1.24-0.75,1.52c-0.55,0.28-1.2,0.25-1.81,0.14
					c-0.41-0.08-0.83-0.21-1.1-0.53c-0.14-0.17-0.23-0.39-0.4-0.53c-0.57-0.44-1.29,0.33-1.6,0.98"/>
				<path class="st9" d="M285.03,174.02c0.45,0.7-0.02,1.62-0.54,2.28s-1.11,1.43-0.89,2.24c0.96,0.09,1.93,0.18,2.89,0.26
					c0.18,0.02,0.38,0.04,0.5,0.18c0.12,0.14,0.1,0.35,0.08,0.53c-0.08,0.62-0.15,1.24-0.23,1.86c-0.61,0.48-1.2-1.02-1.95-0.87
					c-0.33,0.07-0.51,0.43-0.69,0.71c-1.57,2.46-4.3,0.62-5.76-0.66c-1.7-1.48-4.16-1.58-6.42-1.6c-0.8-0.01-1.7,0.02-2.27,0.6
					c-0.56,0.56-0.59,1.44-0.88,2.19c-0.48,1.3-1.73,2.15-2.43,3.34c-2.46,4.17,1.96,7.38,5.72,6.24c1.95-0.59,1.61-0.93,3.61-0.36
					c0.83,0.24,1.85,0.03,2.36,0.96c0.54,0.98-0.22,2.27-1.36,2.26c-1.12-0.01-2.19,0.16-3.2-0.37c0.38,1.32-0.04,2.82-0.14,4.22
					c-1.28-0.3-2.54,1.28-1.97,2.46c0.64,0.01,1.49,0.25,1.44,0.88c-0.02,0.18-0.12,0.35-0.22,0.5c-0.44,0.64-1.01,1.18-1.39,1.86
					c-0.58,1.04-0.58,4.15-2.07,4.52c-0.26,0.07-0.54,0.04-0.8,0.13c-0.55,0.17-0.86,0.83-0.73,1.39c0.13,0.56,0.62,0.99,1.18,1.14
					c0.37,0.1,0.77,0.09,1.13,0.22c1.92,0.67,0.23,2.57,0.69,3.51c0.22,0.45,3.43,2.48,3.83,2.55c-1.13,0.78-2.12,1.99-2.17,3.42
					c-0.05,1.56,1.14,2.32,2.63,2.79c1.57,0.49,3.47,0.65,4.61,1.09c0.61,0.23,1.35,0.45,1.86,0.05c0.64-0.51,0.5-1.69,1.24-2.04
					c0.23-0.11,0.5-0.1,0.76-0.12c1.51-0.14,2.72-1.73,2.45-3.23c0.35-0.46,1.03-0.41,1.61-0.4c0.57,0.02,1.3-0.17,1.38-0.74
					c0.1-0.65-0.74-1.02-1.4-1.05c-0.67-0.04-1.35,0.01-2.01,0.16c-0.49,0.11-1.02,0.27-1.48,0.06c-0.35-0.16-0.58-0.49-0.77-0.81
					c-0.48-0.78-0.89-1.66-0.82-2.57c0.08-0.91,0.81-1.82,1.73-1.79c0.25,0.01,0.49,0.08,0.73,0.04c0.62-0.1,0.89-0.87,0.86-1.5
					c-0.04-0.63-0.25-1.27-0.08-1.88c0.17-0.61,1.01-1.06,1.43-0.59c0.35-0.81,0.59-1.98-0.2-2.37c-0.25-0.12-0.55-0.12-0.83-0.14
					c-1.74-0.16-4.09-2.52-2.16-3.86c1.27-0.88,3.32,0.96,4.44-0.71c0.53-0.8,0.2-1.96,0.75-2.75c0.32-0.23,0.7,0.24,0.78,0.63
					c0.23,1.25-0.25,2.6-1.21,3.42c0.98,0.57,2.52-0.08,3.19,0.84c0.66,0.9-0.31,2.48,0.55,3.18c0.25,0.2,0.58,0.26,0.9,0.3
					c1.56,0.23,4.48-0.03,4.58,2.21c0.01,0.27-0.03,0.55,0.05,0.81c0.24,0.79,1.31,0.86,2.13,0.78c0.42-0.81-0.13-1.75-0.49-2.58
					c-0.36-0.83-0.34-2.11,0.55-2.32c0.63-0.15,1.37,0.4,1.91,0.02c0.25-0.17,0.36-0.5,0.63-0.64c0.65-0.34,1.19,0.65,1.89,0.87
					c0.96,0.31,1.69-0.95,1.69-1.96c0-1.01-0.25-2.15,0.41-2.92c0.21-0.24,0.49-0.41,0.72-0.63c0.71-0.68,0.85-1.75,0.94-2.73
					c0.16-1.56,6.32,2.48,6.71,2.55c2.96,0.49,4.78-2.44,6.81-4.05c1.07-0.84,2.3-1.42,3.54-2c-8.44-27.15-31.17-48.47-58.86-55
					c-1.24-0.29-2.52-0.63-3.77-0.73c0.38,1.89,1.55,4.87,0.28,6.67c-1.61,2.28-5.02,0.28-6.27,2.95c-0.04,0.68,1.09,0.57,1.62,1.01
					c0.29,0.24,0.37,0.65,0.51,1c0.14,0.35,0.48,0.71,0.85,0.59c0.42,0.63-0.24,1.41-0.79,1.92c-0.66,0.6-1.27,1.3-1.52,2.16
					c-0.52,1.79,0.66,3.56,1.41,5.26c0.62,1.41,0.97,2.91,1.32,4.41c0.01-0.71,1.02-0.99,1.65-0.67c0.63,0.32,1.02,0.97,1.53,1.46
					c0.88,0.84,2.01,0.33,2.95,1.05c1.17,0.89,1.92,2.48,3.37,2.72c1.76,0.29,3.03-1.58,3.81-3.17c1.93,1.02,3.12,3.49,5.3,3.65
					c0.84,0.06,1.65-0.25,2.43-0.56c1.6-0.63,3.2-1.26,4.79-1.89c0.66-0.26,1.39-0.53,2.06-0.28c0.79,0.28,1.19,1.14,1.51,1.9
					c0.34,0.84,0.69,1.67,1.03,2.51c0.14,0.35,0.28,0.72,0.19,1.08c-0.1,0.39-0.43,0.65-0.77,0.87c-1.81,1.19-4.07,1.65-6.2,1.27
					c0.21,2.89,0.78,5.76,1.69,8.52c-1.63-0.42-3.51,0.12-5.02-0.51"/>
				<path class="st9" d="M266.44,240.02c-0.61,0.73-1.5,1.28-2.45,1.26c-0.59-0.01-1.14-0.24-1.72-0.33
					c-0.58-0.08-1.26,0.03-1.58,0.52c-0.41,0.63-0.02,1.45,0.36,2.09c0.31,0.52,0.68,1.08,1.27,1.25c0.43,0.12,0.89,0,1.33,0.07
					c0.87,0.14,1.43,0.96,2,1.63c0.58,0.66,1.52,1.26,2.29,0.83c0.51-0.28,0.72-0.92,1.21-1.23c1.2-0.75,2.66,0.88,3.75,0.27
					c1.28-0.73,0.81-2.82,0.28-4c-0.54-1.19-1.63-2.11-2.55-3C268.02,236.87,268.38,237.71,266.44,240.02z"/>
				<path class="st9" d="M306.98,273.72c12.79-12.67,20.27-31.14,21.74-48.9c0.04-0.49,0.08-0.99,0.11-1.48
					c-2.47-2.54-7.38-4.17-8.67,0.41c-0.51-0.04-0.61-0.34-1-0.62c-0.61-0.45-1.46,0.16-1.8,0.83c-1.11,2.21-1.27,4.98-4.33,4.39
					c-3.65-0.71-1.18-2.27-2.37-4.29c-0.17-0.29-0.47-0.48-0.71-0.72c-0.87-0.88-0.76-2.31-0.58-3.54c0.7,0.36,1.68-0.05,1.92-0.8
					c0.09-0.28,0.09-0.61,0.28-0.84c0.41-0.49,1.27-0.03,1.46,0.58c0.2,0.61,0.05,1.28,0.18,1.9c0.13,0.63,0.82,1.24,1.36,0.91
					c0.23-0.14,0.35-0.4,0.43-0.66c0.33-1.07,0.09-2.3-0.63-3.17c0.6-0.16,1.06-0.76,1.04-1.38c-0.01-0.62-0.49-1.2-1.1-1.34
					c-0.89-0.19-2.16,0.33-2.52-0.51c0.13,0.73-0.18,1.52-0.78,1.95c-2.36,1.71-7.66,0.19-7.13,5.21c0.08,0.81,0.37,1.59,0.35,2.4
					c-0.02,0.81-0.46,1.71-1.26,1.86c1.43,1.15,0.91,3.8,2.45,4.81c0.72,0.47,1.78,0.36,2.39-0.25c0.1-0.1,0.2-0.22,0.34-0.26
					c0.28-0.09,0.54,0.18,0.83,0.24c0.5,0.11,0.93-0.41,1.44-0.44c0.71-0.04,1.1,0.81,1.22,1.51c0.13,0.7,0.31,1.56,1,1.75
					c0.23,0.07,0.49,0.03,0.72,0.1c0.47,0.13,0.75,0.64,0.78,1.13c0.03,0.49-0.15,0.96-0.32,1.42c-0.3,0.3-0.82,0.12-1.11-0.19
					c-0.28-0.31-0.46-0.72-0.78-0.98c-0.18-0.15-4.43,0.18-4.3-0.13c-0.63,1.46-0.95,4.66-3.15,3.85c-0.78-0.29-1.57-0.81-2.36-0.58
					c0.38-1.03,0.74-2.07,1.09-3.11c-0.32-0.28-0.82,0.11-0.96,0.51c-0.14,0.41-0.16,0.9-0.5,1.16c-0.24,0.18-0.57,0.18-0.87,0.18
					c-0.98-0.02-1.96-0.04-2.94-0.06c-1.06-0.02-2.29,0.03-2.95,0.86c-0.75,0.95-0.32,2.4,0.48,3.3c0.19,0.22,0.42,0.46,0.4,0.75
					c-0.02,0.26-0.23,0.46-0.42,0.64c-1,0.96-1.66,2.36-1.44,3.72c0.22,1.37,1.48,2.58,2.86,2.46c0.53-0.05,1.19-0.23,1.5,0.21
					c0.18,0.25,0.18,0.66,0.46,0.79c0.36,0.16,0.66-0.29,0.92-0.59c0.47-0.54,1.33-0.68,1.94-0.31c0.31,0.19,1.29,3.21,1.04,3.64
					c-0.59,1.01-3.37,0.61-4.46,0.66c-0.42,0.02-0.89,0.06-1.17,0.38c-0.43,0.5-0.08,1.29,0.4,1.73s1.11,0.79,1.35,1.41
					c0.14,0.36,0.12,0.75,0.11,1.13c-0.04,0.77-0.11,1.64-0.7,2.14c-0.28,0.23-0.63,0.36-0.91,0.59c-0.63,0.54-0.67,1.5-0.45,2.3
					c0.22,0.8,0.65,1.53,0.8,2.34c0.32,1.73-0.62,3.6,0.06,5.22c0.33,0.78,1.37,1.41,2.01,0.86c0.56-0.48,0.55-1.6,1.28-1.68
					c0.7-0.08,1.56,1.68,2.14,2.03c0.46,0.27,1.39-0.18,2.23,0.43C306.1,272.09,306.24,273.18,306.98,273.72z"/>
				<path class="st9" d="M198.42,165.41c0.72-0.91,1.17-1.97,2.52-2.2c1.84-0.32,2.53,0.71,1.73,2.45
					c-0.07,0.16-0.15,0.32-0.11,0.49c0.13,0.53,0.92,0.22,1.37-0.08c1.06-0.71,2.4-0.67,3.53-0.17c0.27,0.12,0.77-4.93,0.5-5.51
					c-0.92-2.03-5.17-1.07-4.3-3.28c1.59-0.03,3.22,0.17,4.82,0.29c0.09-0.77,0.18-1.54,0.26-2.3c-0.07,0.57,2.91,0.45,3.24,0.28
					c1.31-0.66,0.95-3.05,3.3-2.66c2.97,0.49,3.14,6.33-0.24,5.38c-0.81,1.71-1.12,3.77-1.2,5.66c-0.61,0-1.23-0.01-1.84-0.02
					c-0.3,0.42-0.39,0.99-0.22,1.49c1.47,1.03,3.58,1.05,5.07,0.05c0.96,0.74,2.33,0.03,3.32-0.67c1.39,2.24,5.38,1.92,6.4-0.5
					c1.03-2.43-1.53-5.51-4.1-4.95c-0.05-1.23-0.49-2.43-1.25-3.39c3.19,0.11,6.33-2.06,7.35-5.09c0.52-1.52,0.63-3.36,1.92-4.33
					c0.57-0.43,1.29-0.61,1.89-1.01c1.33-0.9,1.72-2.65,1.93-4.24c0.14-1.07,0.24-2.14,0.3-3.21
					c-18.95,3.07-35.91,12.76-48.18,26.79c-0.06,0.56-0.1,1.15,0.12,1.66c0.42,0.95,1.54,1.31,2.55,1.58
					c3.9,1.03,6.39,0.81,9.09-2.23C198.28,165.59,198.35,165.5,198.42,165.41z"/>
			</g>
			<g class="st10">
				<path class="st11" d="M186.82,237.94c-0.26,1.51-2.18,2.05-3.73,2.25c-2.32,0.29-4.65,0.58-6.97,0.87
					c-1.1-2.89-4.52-2.91-6.92-1.79c8.67,32.16,36.71,56.96,71.81,59.86c2.69,0.22,5.35,0.31,7.99,0.27
					c0.05-0.06,0.09-0.13,0.13-0.2c1.21-2.13-0.55-4.02-1.49-5.76c-0.21-0.39-2.2-5.43-1.54-5.44c-2.14,0.04-4.28-0.23-6.33-0.82
					c-0.16-0.04-0.33-0.1-0.41-0.24c-0.19-0.33,0.27-0.66,0.65-0.75c0.96-0.22,1.95-0.28,2.89-0.56c0.94-0.28,1.87-0.86,2.23-1.77
					c0.37-0.92,0.1-1.97,0.31-2.93c0.26-1.18,1.22-2.1,2.3-2.63c1.05-0.5,2.23-0.69,3.36-0.89c-2.46-1.34-0.67-4.12-2.6-5.99
					c-0.62-0.6-1.52-1.33-1.14-2.1c0.36-0.73,1.66-0.72,1.82-1.53c0.11-0.56-0.48-1.02-1.04-1.15c-0.56-0.13-1.17-0.08-1.67-0.36
					c-0.7-0.39-0.94-1.43-0.47-2.09c0.42-0.59,1.2-0.77,1.83-1.11c0.64-0.34,1.21-1.13,0.83-1.74c-0.09-0.14-0.22-0.26-0.37-0.35
					c-1.04-0.64-2.4-0.11-3.42,0.58c-1.02,0.68-2.05,1.54-3.27,1.53c-0.28-0.46-0.08-1.14,0.4-1.38c0.17-0.08,0.37-0.12,0.5-0.26
					c0.29-0.29,0.07-0.77-0.12-1.13c-0.92-1.69-1.13-3.75-0.56-5.58c2.48,0.05,4.96,0.09,7.44,0.14c0.06-0.56,0.12-0.89,0.71-1.06
					c-1.66-1.99-3.48-3.83-4.95-6c-0.18-0.26-0.37-0.54-0.66-0.64c-0.31-0.11-0.65,0-0.98-0.05c-1.07-0.15-1.25-1.61-1.14-2.69
					c-0.15-0.33-0.68-0.19-0.88,0.12c-0.2,0.3-0.24,0.69-0.49,0.96c-0.36,0.4-1.01,0.36-1.51,0.16c-1.74-0.67-2.67-2.94-1.89-4.64
					c0.09-0.2,0.21-0.4,0.41-0.51c0.42-0.24,0.94,0.06,1.42,0.14c1.9,0.34,1.61-1.76,1.15-2.75c-0.62-1.35-2.47-2.21-3.81-2.56
					c-1.57-0.4-12.04-2.4-10.31-5.82c0.16-0.32,0.48-0.54,0.81-0.68c1-0.44,2.15-0.31,3.2-0.61c1.05-0.3,2.06-1.39,1.61-2.37
					c-0.18-0.4-0.56-0.67-0.77-1.05c-0.59-1.06,0.32-2.44-0.1-3.59c-0.19-0.52-0.64-0.91-0.92-1.4c-0.28-0.48-0.33-1.21,0.15-1.5
					c0.54-0.32,1.27,0.16,1.84-0.1c0.6-0.27,0.55-1.25,0.01-1.62c-0.54-0.37-1.31-0.23-1.85,0.14c-0.29,0.19-0.55,0.45-0.89,0.49
					c-0.61,0.08-1.07-0.53-1.38-1.06c-0.5-0.85-0.99-1.69-1.49-2.54c-0.56,0.01-0.99,0.52-1.18,1.05c-0.19,0.53-0.23,1.1-0.45,1.62
					c-1.05,2.51-4.87,2.21-4.38,5.64c1.03-0.12,1.98,1.04,1.66,2.02c-0.4,1.21-2.22,1.88-1.97,3.13c0.09,0.44,0.44,0.79,0.51,1.23
					c0.19,1.21-1.68,1.66-2.49,1.93c-2.67,0.92-2.85-0.84-5.16-0.94c-1.06-0.05-2.01,0.67-3.06,0.78c-0.97,0.11-1.93-0.3-2.9-0.25
					c-2.67,0.16-1.33,3.78-1.14,5.36c-1.44-0.96-3.36,0.16-4.5,1.45c-1.76,1.98-1.59,1.63-3.92,1.72c-0.61,0.02-1.26,0.33-1.51,0.89
					c-0.43,0.98,0.49,2.03,0.51,3.1c0.01,0.51-0.19,1.02-0.14,1.53c0.12,1.34,1.71,1.93,2.68,2.87c0.84,0.82,1.24,2.08,1.03,3.24
					c-0.69,0.04-1.38-0.01-2.05-0.15c-0.4-0.78-0.8-1.55-1.21-2.33c-0.36-0.69-0.73-1.4-1.36-1.86c-0.35-0.26-0.78-0.43-1.03-0.78
					c-0.51-0.7-0.1-1.65,0.02-2.51c0.29-2.07-0.75-5.55-1.25-7.6c-0.54-2.19-1.99-3.05-2.52-5.07c-0.09-0.36-0.59-0.47-0.91-0.29
					c-0.32,0.18-0.48,0.55-0.58,0.91c-0.21,0.83-0.13,1.73,0.22,2.5c-0.46-1.02-3.04,1.66-3.2,2.17c-0.26,0.83,0.3,2.02,0.28,2.89
					c-0.05,2.15-0.57,3.36-2.8,1.78c-0.85-0.61-1.94-1.32-2.84-0.79c0.19,0.58-0.2,1.24-0.75,1.52c-0.55,0.28-1.2,0.25-1.81,0.14
					c-0.41-0.08-0.83-0.21-1.1-0.53c-0.14-0.17-0.23-0.39-0.4-0.53c-0.57-0.44-1.29,0.33-1.6,0.98"/>
				<path class="st11" d="M285.03,174.02c0.45,0.7-0.02,1.62-0.54,2.28s-1.11,1.43-0.89,2.24c0.96,0.09,1.93,0.18,2.89,0.26
					c0.18,0.02,0.38,0.04,0.5,0.18c0.12,0.14,0.1,0.35,0.08,0.53c-0.08,0.62-0.15,1.24-0.23,1.86c-0.61,0.48-1.2-1.02-1.95-0.87
					c-0.33,0.07-0.51,0.43-0.69,0.71c-1.57,2.46-4.3,0.62-5.76-0.66c-1.7-1.48-4.16-1.58-6.42-1.6c-0.8-0.01-1.7,0.02-2.27,0.6
					c-0.56,0.56-0.59,1.44-0.88,2.19c-0.48,1.3-1.73,2.15-2.43,3.34c-2.46,4.17,1.96,7.38,5.72,6.24c1.95-0.59,1.61-0.93,3.61-0.36
					c0.83,0.24,1.85,0.03,2.36,0.96c0.54,0.98-0.22,2.27-1.36,2.26c-1.12-0.01-2.19,0.16-3.2-0.37c0.38,1.32-0.04,2.82-0.14,4.22
					c-1.28-0.3-2.54,1.28-1.97,2.46c0.64,0.01,1.49,0.25,1.44,0.88c-0.02,0.18-0.12,0.35-0.22,0.5c-0.44,0.64-1.01,1.18-1.39,1.86
					c-0.58,1.04-0.58,4.15-2.07,4.52c-0.26,0.07-0.54,0.04-0.8,0.13c-0.55,0.17-0.86,0.83-0.73,1.39c0.13,0.56,0.62,0.99,1.18,1.14
					c0.37,0.1,0.77,0.09,1.13,0.22c1.92,0.67,0.23,2.57,0.69,3.51c0.22,0.45,3.43,2.48,3.83,2.55c-1.13,0.78-2.12,1.99-2.17,3.42
					c-0.05,1.56,1.14,2.32,2.63,2.79c1.57,0.49,3.47,0.65,4.61,1.09c0.61,0.23,1.35,0.45,1.86,0.05c0.64-0.51,0.5-1.69,1.24-2.04
					c0.23-0.11,0.5-0.1,0.76-0.12c1.51-0.14,2.72-1.73,2.45-3.23c0.35-0.46,1.03-0.41,1.61-0.4c0.57,0.02,1.3-0.17,1.38-0.74
					c0.1-0.65-0.74-1.02-1.4-1.05c-0.67-0.04-1.35,0.01-2.01,0.16c-0.49,0.11-1.02,0.27-1.48,0.06c-0.35-0.16-0.58-0.49-0.77-0.81
					c-0.48-0.78-0.89-1.66-0.82-2.57c0.08-0.91,0.81-1.82,1.73-1.79c0.25,0.01,0.49,0.08,0.73,0.04c0.62-0.1,0.89-0.87,0.86-1.5
					c-0.04-0.63-0.25-1.27-0.08-1.88c0.17-0.61,1.01-1.06,1.43-0.59c0.35-0.81,0.59-1.98-0.2-2.37c-0.25-0.12-0.55-0.12-0.83-0.14
					c-1.74-0.16-4.09-2.52-2.16-3.86c1.27-0.88,3.32,0.96,4.44-0.71c0.53-0.8,0.2-1.96,0.75-2.75c0.32-0.23,0.7,0.24,0.78,0.63
					c0.23,1.25-0.25,2.6-1.21,3.42c0.98,0.57,2.52-0.08,3.19,0.84c0.66,0.9-0.31,2.48,0.55,3.18c0.25,0.2,0.58,0.26,0.9,0.3
					c1.56,0.23,4.48-0.03,4.58,2.21c0.01,0.27-0.03,0.55,0.05,0.81c0.24,0.79,1.31,0.86,2.13,0.78c0.42-0.81-0.13-1.75-0.49-2.58
					c-0.36-0.83-0.34-2.11,0.55-2.32c0.63-0.15,1.37,0.4,1.91,0.02c0.25-0.17,0.36-0.5,0.63-0.64c0.65-0.34,1.19,0.65,1.89,0.87
					c0.96,0.31,1.69-0.95,1.69-1.96c0-1.01-0.25-2.15,0.41-2.92c0.21-0.24,0.49-0.41,0.72-0.63c0.71-0.68,0.85-1.75,0.94-2.73
					c0.16-1.56,6.32,2.48,6.71,2.55c2.96,0.49,4.78-2.44,6.81-4.05c1.07-0.84,2.3-1.42,3.54-2c-8.44-27.15-31.17-48.47-58.86-55
					c-1.24-0.29-2.52-0.63-3.77-0.73c0.38,1.89,1.55,4.87,0.28,6.67c-1.61,2.28-5.02,0.28-6.27,2.95c-0.04,0.68,1.09,0.57,1.62,1.01
					c0.29,0.24,0.37,0.65,0.51,1c0.14,0.35,0.48,0.71,0.85,0.59c0.42,0.63-0.24,1.41-0.79,1.92c-0.66,0.6-1.27,1.3-1.52,2.16
					c-0.52,1.79,0.66,3.56,1.41,5.26c0.62,1.41,0.97,2.91,1.32,4.41c0.01-0.71,1.02-0.99,1.65-0.67c0.63,0.32,1.02,0.97,1.53,1.46
					c0.88,0.84,2.01,0.33,2.95,1.05c1.17,0.89,1.92,2.48,3.37,2.72c1.76,0.29,3.03-1.58,3.81-3.17c1.93,1.02,3.12,3.49,5.3,3.65
					c0.84,0.06,1.65-0.25,2.43-0.56c1.6-0.63,3.2-1.26,4.79-1.89c0.66-0.26,1.39-0.53,2.06-0.28c0.79,0.28,1.19,1.14,1.51,1.9
					c0.34,0.84,0.69,1.67,1.03,2.51c0.14,0.35,0.28,0.72,0.19,1.08c-0.1,0.39-0.43,0.65-0.77,0.87c-1.81,1.19-4.07,1.65-6.2,1.27
					c0.21,2.89,0.78,5.76,1.69,8.52c-1.63-0.42-3.51,0.12-5.02-0.51"/>
				<path class="st11" d="M266.44,240.02c-0.61,0.73-1.5,1.28-2.45,1.26c-0.59-0.01-1.14-0.24-1.72-0.33
					c-0.58-0.08-1.26,0.03-1.58,0.52c-0.41,0.63-0.02,1.45,0.36,2.09c0.31,0.52,0.68,1.08,1.27,1.25c0.43,0.12,0.89,0,1.33,0.07
					c0.87,0.14,1.43,0.96,2,1.63c0.58,0.66,1.52,1.26,2.29,0.83c0.51-0.28,0.72-0.92,1.21-1.23c1.2-0.75,2.66,0.88,3.75,0.27
					c1.28-0.73,0.81-2.82,0.28-4c-0.54-1.19-1.63-2.11-2.55-3C268.02,236.87,268.38,237.71,266.44,240.02z"/>
				<path class="st11" d="M306.98,273.72c12.79-12.67,20.27-31.14,21.74-48.9c0.04-0.49,0.08-0.99,0.11-1.48
					c-2.47-2.54-7.38-4.17-8.67,0.41c-0.51-0.04-0.61-0.34-1-0.62c-0.61-0.45-1.46,0.16-1.8,0.83c-1.11,2.21-1.27,4.98-4.33,4.39
					c-3.65-0.71-1.18-2.27-2.37-4.29c-0.17-0.29-0.47-0.48-0.71-0.72c-0.87-0.88-0.76-2.31-0.58-3.54c0.7,0.36,1.68-0.05,1.92-0.8
					c0.09-0.28,0.09-0.61,0.28-0.84c0.41-0.49,1.27-0.03,1.46,0.58c0.2,0.61,0.05,1.28,0.18,1.9c0.13,0.63,0.82,1.24,1.36,0.91
					c0.23-0.14,0.35-0.4,0.43-0.66c0.33-1.07,0.09-2.3-0.63-3.17c0.6-0.16,1.06-0.76,1.04-1.38c-0.01-0.62-0.49-1.2-1.1-1.34
					c-0.89-0.19-2.16,0.33-2.52-0.51c0.13,0.73-0.18,1.52-0.78,1.95c-2.36,1.71-7.66,0.19-7.13,5.21c0.08,0.81,0.37,1.59,0.35,2.4
					c-0.02,0.81-0.46,1.71-1.26,1.86c1.43,1.15,0.91,3.8,2.45,4.81c0.72,0.47,1.78,0.36,2.39-0.25c0.1-0.1,0.2-0.22,0.34-0.26
					c0.28-0.09,0.54,0.18,0.83,0.24c0.5,0.11,0.93-0.41,1.44-0.44c0.71-0.04,1.1,0.81,1.22,1.51c0.13,0.7,0.31,1.56,1,1.75
					c0.23,0.07,0.49,0.03,0.72,0.1c0.47,0.13,0.75,0.64,0.78,1.13c0.03,0.49-0.15,0.96-0.32,1.42c-0.3,0.3-0.82,0.12-1.11-0.19
					c-0.28-0.31-0.46-0.72-0.78-0.98c-0.18-0.15-4.43,0.18-4.3-0.13c-0.63,1.46-0.95,4.66-3.15,3.85c-0.78-0.29-1.57-0.81-2.36-0.58
					c0.38-1.03,0.74-2.07,1.09-3.11c-0.32-0.28-0.82,0.11-0.96,0.51c-0.14,0.41-0.16,0.9-0.5,1.16c-0.24,0.18-0.57,0.18-0.87,0.18
					c-0.98-0.02-1.96-0.04-2.94-0.06c-1.06-0.02-2.29,0.03-2.95,0.86c-0.75,0.95-0.32,2.4,0.48,3.3c0.19,0.22,0.42,0.46,0.4,0.75
					c-0.02,0.26-0.23,0.46-0.42,0.64c-1,0.96-1.66,2.36-1.44,3.72c0.22,1.37,1.48,2.58,2.86,2.46c0.53-0.05,1.19-0.23,1.5,0.21
					c0.18,0.25,0.18,0.66,0.46,0.79c0.36,0.16,0.66-0.29,0.92-0.59c0.47-0.54,1.33-0.68,1.94-0.31c0.31,0.19,1.29,3.21,1.04,3.64
					c-0.59,1.01-3.37,0.61-4.46,0.66c-0.42,0.02-0.89,0.06-1.17,0.38c-0.43,0.5-0.08,1.29,0.4,1.73s1.11,0.79,1.35,1.41
					c0.14,0.36,0.12,0.75,0.11,1.13c-0.04,0.77-0.11,1.64-0.7,2.14c-0.28,0.23-0.63,0.36-0.91,0.59c-0.63,0.54-0.67,1.5-0.45,2.3
					c0.22,0.8,0.65,1.53,0.8,2.34c0.32,1.73-0.62,3.6,0.06,5.22c0.33,0.78,1.37,1.41,2.01,0.86c0.56-0.48,0.55-1.6,1.28-1.68
					c0.7-0.08,1.56,1.68,2.14,2.03c0.46,0.27,1.39-0.18,2.23,0.43C306.1,272.09,306.24,273.18,306.98,273.72z"/>
				<path class="st11" d="M198.42,165.41c0.72-0.91,1.17-1.97,2.52-2.2c1.84-0.32,2.53,0.71,1.73,2.45
					c-0.07,0.16-0.15,0.32-0.11,0.49c0.13,0.53,0.92,0.22,1.37-0.08c1.06-0.71,2.4-0.67,3.53-0.17c0.27,0.12,0.77-4.93,0.5-5.51
					c-0.92-2.03-5.17-1.07-4.3-3.28c1.59-0.03,3.22,0.17,4.82,0.29c0.09-0.77,0.18-1.54,0.26-2.3c-0.07,0.57,2.91,0.45,3.24,0.28
					c1.31-0.66,0.95-3.05,3.3-2.66c2.97,0.49,3.14,6.33-0.24,5.38c-0.81,1.71-1.12,3.77-1.2,5.66c-0.61,0-1.23-0.01-1.84-0.02
					c-0.3,0.42-0.39,0.99-0.22,1.49c1.47,1.03,3.58,1.05,5.07,0.05c0.96,0.74,2.33,0.03,3.32-0.67c1.39,2.24,5.38,1.92,6.4-0.5
					c1.03-2.43-1.53-5.51-4.1-4.95c-0.05-1.23-0.49-2.43-1.25-3.39c3.19,0.11,6.33-2.06,7.35-5.09c0.52-1.52,0.63-3.36,1.92-4.33
					c0.57-0.43,1.29-0.61,1.89-1.01c1.33-0.9,1.72-2.65,1.93-4.24c0.14-1.07,0.24-2.14,0.3-3.21
					c-18.95,3.07-35.91,12.76-48.18,26.79c-0.06,0.56-0.1,1.15,0.12,1.66c0.42,0.95,1.54,1.31,2.55,1.58
					c3.9,1.03,6.39,0.81,9.09-2.23C198.28,165.59,198.35,165.5,198.42,165.41z"/>
			</g>
		</g>
	</g>
</g>
<g id="People">
	<g>
		<g>
			<path class="st4" d="M50.23,133.29c0,4.41,2.4,8.27,5.97,10.32c1.75,1.01,3.78,1.59,5.95,1.59c2.77,0,5.32-0.94,7.34-2.53
				c2.79-2.18,4.57-5.57,4.57-9.38c0-6.58-5.33-11.91-11.91-11.91C55.57,121.38,50.23,126.71,50.23,133.29z"/>
			
				<ellipse transform="matrix(0.9871 -0.1602 0.1602 0.9871 -20.548 11.6754)" class="st12" cx="62.14" cy="133.29" rx="11.23" ry="11.23"/>
			<path class="st4" d="M55.47,133.1c0.14,1.43,1.38,1.66,1.38,1.66s-0.29,0.76,0.05,1.66c0.34,0.91,2.17,0.91,2.17,0.91
				s0.16,0.49,0.83,0.56c0.04,0.05,0.08,0.1,0.12,0.14c0.08,0.12,0.17,0.24,0.26,0.36c0.23,1.81,0.18,3.71-0.7,4.68
				c0,0,0.01,0.01,0.02,0.02c-0.77,0.08-1.55,0.19-2.31,0.31c-0.37,0.05-0.73,0.12-1.09,0.19c1.75,1.01,3.78,1.59,5.95,1.59
				c2.77,0,5.32-0.94,7.34-2.53c-0.34-0.01-0.73-0.01-1.15-0.01c-0.62,0-1.32,0-2.09,0.02c0-0.01-0.01-0.03-0.02-0.04
				c-1.28-0.21-1.91-0.81-2.16-1.58c-0.13-0.38-0.16-0.8-0.14-1.23c0.34-0.06,0.67-0.17,0.99-0.33c0.89-0.43,1.64-1.21,2.02-2.22
				c0.05-0.13,0.1-0.27,0.14-0.41c0.27-1.01,0.38-2.29,0.26-3.55c0.33-0.2,0.69-0.54,0.81-1.15c0.24-1.21-0.84-1.5-0.84-1.5
				s1.18-0.19,1.22-1.67c0.05-1.48-1.22-1.48-1.22-1.48s0.43-0.63-0.41-1.79c-0.84-1.16-2.01-0.45-2.01-0.45s-0.89-1.4-2.34-1.06
				c-1.45,0.35-1.82,1.2-1.82,1.2s0-0.85-1.65-0.38c-1.65,0.48-1.45,2.38-1.45,2.38s-1.11-0.56-1.68,0.63
				c-0.57,1.19,0.67,3.27,0.67,3.27S55.33,131.67,55.47,133.1z"/>
			<path class="st13" d="M50.23,133.29c0,4.41,2.4,8.27,5.97,10.32c1.75,1.01,3.78,1.59,5.95,1.59c2.77,0,5.32-0.94,7.34-2.53
				c2.79-2.18,4.57-5.57,4.57-9.38c0-6.58-5.33-11.91-11.91-11.91C55.57,121.38,50.23,126.71,50.23,133.29z"/>
		</g>
		<g>
			<circle class="st4" cx="56.11" cy="342.48" r="10.59"/>
			<path class="st12" d="M66.1,342.48c0,2.3-0.78,4.43-2.09,6.12c-1.83,2.35-4.68,3.86-7.89,3.86c-2.09,0-4.02-0.64-5.62-1.73
				c-2.63-1.8-4.36-4.82-4.36-8.25c0-5.51,4.47-9.99,9.98-9.99S66.1,336.96,66.1,342.48z"/>
			<path class="st4" d="M64,348.6c-1.83,2.35-4.68,3.86-7.89,3.86c-2.09,0-4.02-0.64-5.62-1.73c0.33-0.76,0.54-1.21,0.54-1.21
				c1.25-0.4,2.52-0.71,3.8-0.93c0.32-0.29,0.76-0.52,1.31-0.65c0.27-0.8,0.11-1.68-0.07-2.27c-0.4-0.27-0.74-0.61-1.02-1.01
				c-0.2-0.14-0.38-0.32-0.54-0.53c-0.31-0.13-2.43-1.11-2.54-4.6c0-0.14,0-0.29,0.01-0.43c-0.66-0.07-1.34,0.14-0.87,1.48
				c0.82,2.31-0.04,3.52-0.04,3.52c0.04-0.74-0.07-1.53-0.07-1.53c0,2.39-1.29,2.54-1.29,2.54s0.82-0.86-0.39-3.52
				c-1.21-2.66-0.86-6.26,1.44-6.41c1.24-0.08,2.05,0.5,2.55,1.07c1.3-1.16,3.27-1.37,4.53-0.53c0,0,2.07-0.5,2.66,0.04
				c0.13,0.12,0.03,0.39-0.22,0.75c0.53,0.35,0.97,0.89,1.16,1.71c0.32,1.43-0.09,2.52-0.57,3.24c0.28,2.62-0.17,4.59-2.26,4.78
				c0,0.07-0.01,0.13-0.01,0.19c0,0.09-0.01,0.18-0.01,0.27c-0.01,0.5,0.05,0.86,0.14,1.12c0.31,0.06,0.6,0.14,0.87,0.24
				c1.87,0,3.96,0.2,3.96,0.2s0.01,0,0.02,0.01C63.7,348.35,63.84,348.46,64,348.6z"/>
			<circle class="st13" cx="56.11" cy="342.48" r="10.59"/>
		</g>
		<g>
			
				<ellipse transform="matrix(0.7071 -0.7071 0.7071 0.7071 -53.6691 389.9604)" class="st4" cx="443.89" cy="259.76" rx="11.69" ry="11.69"/>
			<path class="st12" d="M454.91,259.76c0,2.26-0.68,4.36-1.85,6.1c-1.97,2.97-5.34,4.92-9.17,4.92c-2.54,0-4.88-0.86-6.75-2.32
				c-2.6-2.01-4.27-5.16-4.27-8.71c0-6.09,4.93-11.02,11.02-11.02C449.97,248.75,454.91,253.68,454.91,259.76z"/>
			<path class="st4" d="M453.06,265.87c-1.97,2.97-5.34,4.92-9.17,4.92c-2.54,0-4.88-0.86-6.75-2.32c-0.12-0.67,0.01-1.32,0.06-1.81
				c0.14-1.35,1.69-2.43,1.66-3.38c-0.03-0.94-1.59-2.16-0.58-2.7s1.23-2.64,0.42-3.82c-0.67-0.78-1.17-2,0.06-3.58
				c0.77-0.98,1.88-1.44,3-1.63c0.78-0.42,1.83-0.62,3.26-0.47c1.37,0.15,2.43,0.54,3.24,1.1c0.8,0.56,1.35,1.28,1.69,2.08
				c0,0,1.21,2.32,0.35,4.77c-0.55,1.57,1.9,1.48,1.97,2.93c0.07,1.44-1.15,1.53-0.93,2.5C451.43,264.9,452.28,265.32,453.06,265.87
				z"/>
			
				<ellipse transform="matrix(0.7071 -0.7071 0.7071 0.7071 -53.6691 389.9604)" class="st13" cx="443.89" cy="259.76" rx="11.69" ry="11.69"/>
		</g>
	</g>
	<g>
		
			<rect x="300.29" y="162.47" transform="matrix(0.9175 -0.3978 0.3978 0.9175 -36.0357 152.2228)" class="st4" width="97.22" height="1"/>
		
			<rect x="199.61" y="86.85" transform="matrix(0.8503 -0.5263 0.5263 0.8503 -34.8178 123.751)" class="st4" width="1" height="72.46"/>
		
			<rect x="93.46" y="266.39" transform="matrix(0.9788 -0.2051 0.2051 0.9788 -51.6664 35.2004)" class="st4" width="101.09" height="1"/>
		
			<rect x="300.29" y="162.47" transform="matrix(0.9175 -0.3978 0.3978 0.9175 -36.0357 152.2228)" class="st14" width="97.22" height="1"/>
		
			<rect x="343.69" y="232.29" transform="matrix(0.8474 -0.5309 0.5309 0.8474 -99.2734 226.3646)" class="st4" width="1" height="107.23"/>
		
			<rect x="343.69" y="232.29" transform="matrix(0.8474 -0.5309 0.5309 0.8474 -99.2734 226.3646)" class="st14" width="1" height="107.23"/>
		
			<rect x="199.61" y="86.85" transform="matrix(0.8503 -0.5263 0.5263 0.8503 -34.8178 123.751)" class="st14" width="1" height="72.46"/>
		
			<rect x="93.46" y="266.39" transform="matrix(0.9788 -0.2051 0.2051 0.9788 -51.6664 35.2004)" class="st14" width="101.09" height="1"/>
		<path class="st4" d="M190.88,368.49L94,277.42l13.7-103.59l0.1-0.11l72.99-81.92l0.18-0.02l132.27-18.29l80.77,69.94l-0.03,0.26
			l-20.88,188.06l-0.36,0.07L190.88,368.49z M95.06,277.05l96.12,90.36l181.02-36.5l20.77-187.08l-80.03-69.3L181.3,92.74
			l-72.64,81.53L95.06,277.05z"/>
		<path class="st14" d="M190.88,368.49L94,277.42l13.7-103.59l0.1-0.11l72.99-81.92l0.18-0.02l132.27-18.29l80.77,69.94l-0.03,0.26
			l-20.88,188.06l-0.36,0.07L190.88,368.49z M95.06,277.05l96.12,90.36l181.02-36.5l20.77-187.08l-80.03-69.3L181.3,92.74
			l-72.64,81.53L95.06,277.05z"/>
		<g>
			<polygon class="st4" points="220.68,153.88 219.18,162.64 217.68,153.88 			"/>
			<path class="st4" d="M223.52,153.88c0,2.4-1.94,4.34-4.34,4.34c-2.4,0-4.34-1.94-4.34-4.34c0-2.4,1.94-4.34,4.34-4.34
				C221.58,149.54,223.52,151.48,223.52,153.88z"/>
			<path class="st12" d="M219.61,150.82c0.48,0.63,0.1,1.74-0.85,2.46c-0.95,0.73-2.12,0.8-2.6,0.17c-0.48-0.63-0.1-1.74,0.85-2.46
				C217.96,150.26,219.12,150.18,219.61,150.82z"/>
		</g>
		<g>
			<polygon class="st4" points="305.8,182.31 304.3,191.07 302.8,182.31 			"/>
			<circle class="st4" cx="304.3" cy="182.31" r="4.34"/>
			<path class="st12" d="M304.72,179.25c0.48,0.63,0.1,1.74-0.85,2.46c-0.95,0.73-2.12,0.8-2.6,0.17c-0.48-0.63-0.1-1.74,0.85-2.46
				C303.07,178.69,304.24,178.61,304.72,179.25z"/>
		</g>
		<g>
			<polygon class="st4" points="194.98,256.02 193.48,264.78 191.98,256.02 			"/>
			<circle class="st4" cx="193.48" cy="256.02" r="4.34"/>
			<path class="st12" d="M193.91,252.96c0.48,0.63,0.1,1.74-0.85,2.46c-0.95,0.73-2.12,0.8-2.6,0.17s-0.1-1.74,0.85-2.46
				C192.26,252.4,193.42,252.33,193.91,252.96z"/>
		</g>
		<g>
			<polygon class="st4" points="317.23,240.47 315.73,249.22 314.23,240.47 			"/>
			<path class="st4" d="M320.07,240.47c0,2.4-1.94,4.34-4.34,4.34c-2.4,0-4.34-1.94-4.34-4.34c0-2.4,1.94-4.34,4.34-4.34
				C318.13,236.12,320.07,238.07,320.07,240.47z"/>
			<path class="st12" d="M316.15,237.4c0.48,0.63,0.1,1.74-0.85,2.46c-0.95,0.73-2.12,0.8-2.6,0.17c-0.48-0.63-0.1-1.74,0.85-2.46
				C314.51,236.84,315.67,236.77,316.15,237.4z"/>
		</g>
	</g>
	<g>
		<path class="st4" d="M427.08,145.72c0,7.49-2.48,14.42-6.65,19.99c-1.48,1.99-3.19,3.8-5.08,5.38c-1.68,1.46-3.53,2.74-5.51,3.82
			c-4.76,2.64-10.26,4.15-16.1,4.15c-4.91,0-9.59-1.07-13.79-2.99c-0.39-0.16-0.78-0.35-1.16-0.55l-0.01-0.01
			c-2.35-1.16-4.55-2.61-6.54-4.3c-2.98-2.5-5.52-5.53-7.45-8.94c-2.8-4.88-4.4-10.52-4.4-16.54c0-18.41,14.93-33.35,33.35-33.35
			C412.16,112.37,427.08,127.3,427.08,145.72z"/>
		
			<ellipse transform="matrix(0.7071 -0.7071 0.7071 0.7071 12.2878 321.0966)" class="st13" cx="393.74" cy="145.72" rx="32.37" ry="32.37"/>
		<g>
			<path class="st15" d="M372.25,160.84l3.12-12.97c0,0,1.98-1.58,2.11-2.73c0.12-1.15-1.22-7.94-2.08-8.35
				c-0.86-0.41-5.94,1.36-6.19,2.81c-0.25,1.45,1.76,7.16,2.16,7.62l-5.13,15.09L372.25,160.84z"/>
			<path class="st4" d="M374.76,153.41l-1.88,17.05c-2.89-2.43-5.36-5.37-7.24-8.68c1.16-4.09,2.33-7.76,2.88-9.41
				c0.18-0.59,0.29-0.92,0.29-0.92l1.07,0.13l4.45,0.56l0.55,0.07L374.76,153.41z"/>
			<path class="st4" d="M383.26,164.39l-2.9,10.79c-0.38-0.16-0.76-0.34-1.12-0.54l-0.01-0.01c-2.28-1.12-4.42-2.54-6.35-4.17
				c0.23-0.52,6.18-13.94,8.4-13.78L383.26,164.39z"/>
			<path class="st16" d="M374.76,153.41l-1.88,17.05c-2.89-2.43-5.36-5.37-7.24-8.68c1.16-4.09,2.33-7.76,2.88-9.41
				c0.18-0.59,0.29-0.92,0.29-0.92l1.07,0.13l4.45,0.56l0.55,0.07L374.76,153.41z"/>
			<path class="st16" d="M383.26,164.39l-2.9,10.79c-0.38-0.16-0.76-0.34-1.12-0.54l-0.01-0.01c-2.28-1.12-4.42-2.54-6.35-4.17
				c0.23-0.52,6.18-13.94,8.4-13.78L383.26,164.39z"/>
			<polygon class="st4" points="376.15,151.16 375.13,153.46 368.03,152.28 368.19,150.97 			"/>
			<path class="st17" d="M413.44,134.58c-0.83,3.17,3.7,11.92,1.86,27.84c-1.84,15.92-19.29,14.95-27.14,9.64
				c-7.85-5.31-6.49-34.11-3.79-39.79C387.07,126.6,413.44,134.58,413.44,134.58z"/>
			<g>
				<path class="st4" d="M418.05,160.32c-0.17,0.46-0.32,0.92-0.48,1.38c-0.17,0.45-0.32,0.9-0.46,1.34
					c-0.29,0.88-0.57,1.73-0.85,2.56c-0.56,1.66-1.06,3.25-1.54,4.73c-1.64,1.42-3.43,2.66-5.35,3.71
					c-4.63,2.56-9.96,4.03-15.63,4.03c-4.77,0-9.31-1.04-13.39-2.9c-0.38-0.16-0.76-0.34-1.12-0.54c0.01-0.32,0.01-0.65,0.01-0.95
					c0-0.32,0-0.62,0.01-0.93c0.01-0.92,0.05-1.77,0.07-2.57c0.02-0.54,0.05-1.06,0.06-1.55c0.01-0.26,0.02-0.49,0.04-0.73
					c0.05-0.89,0.09-1.7,0.15-2.45c0.01-0.24,0.04-0.49,0.05-0.72c0.05-0.71,0.11-1.34,0.16-1.93c0.37-3.7,0.85-5.16,1.17-5.75
					c0.06-0.12,0.12-0.2,0.17-0.26c0.1-0.11,0.15-0.12,0.15-0.12s0.49-0.05,1.31-0.11c2.16-0.18,6.64-0.5,10.69-0.48
					c0.07,0,0.16,0,0.23,0.01c0.54,0.01,1.07,0.04,1.61,0.07c2.09,0.11,4.17,0.29,6.24,0.55c0.77,0.1,1.54,0.21,2.31,0.32
					c0.83,0.12,1.66,0.26,2.49,0.4c0.11,0.02,0.23,0.04,0.34,0.06c3.06,0.52,6.09,1.21,9.08,2.07c0.83,0.23,1.66,0.48,2.48,0.74
					H418.05z"/>
				<path class="st16" d="M418.04,160.32c0,0.01,0,0.01-0.01,0.02c-0.16,0.45-0.32,0.9-0.45,1.35c-0.17,0.45-0.32,0.9-0.46,1.34
					c-0.29,0.88-0.57,1.73-0.85,2.56c-0.56,1.66-1.06,3.25-1.54,4.73c-1.64,1.42-3.43,2.66-5.35,3.71
					c-4.63,2.56-9.96,4.03-15.63,4.03c-4.77,0-9.31-1.04-13.39-2.9c-0.38-0.16-0.76-0.34-1.12-0.54l-0.01-0.01
					c0-0.32,0.01-0.63,0.02-0.94c0-0.32,0-0.62,0.01-0.93c0.01-0.92,0.05-1.77,0.07-2.57c0.02-0.54,0.05-1.06,0.06-1.55
					c0.01-0.26,0.02-0.49,0.04-0.73c0.04-0.89,0.09-1.7,0.15-2.45c0.01-0.24,0.04-0.49,0.05-0.72c0.05-0.71,0.11-1.34,0.16-1.93
					c0.37-3.7,0.85-5.16,1.17-5.75c0.06-0.12,0.12-0.2,0.17-0.26c0.1-0.11,0.15-0.12,0.15-0.12s0.49-0.05,1.31-0.11
					c2.16-0.18,6.64-0.5,10.69-0.48c0.07,0,0.16,0,0.23,0.01c0.54,0.01,1.07,0.04,1.61,0.07c2.09,0.11,4.17,0.29,6.24,0.55
					c0.77,0.1,1.54,0.21,2.31,0.32c0.83,0.12,1.66,0.26,2.49,0.4c0.11,0.02,0.23,0.04,0.34,0.06c3.06,0.52,6.09,1.21,9.08,2.07
					C416.39,159.81,417.22,160.06,418.04,160.32z"/>
			</g>
			<path class="st8" d="M399.32,155.23c7.14,0.56,8.02,2.72,7.26,3.85c-0.76,1.13-10.44,10.59-13.35,16.92
				C393.23,176,382.74,153.93,399.32,155.23z"/>
			<path class="st15" d="M395.63,162.43c7.07-0.9,9.19-3.92,9.19-3.92c-4.49-4.23-0.76-11.56-0.76-11.56l-8.51,1.59
				c0.22,1.41,0.32,2.59,0.33,3.58c0.06,5.16-2.27,5.21-2.27,5.21C392.13,160.12,395.63,162.43,395.63,162.43z"/>
			<path class="st18" d="M395.56,148.52c0.22,1.41,0.32,2.59,0.33,3.58c5.75,0,8.18-5.17,8.18-5.17L395.56,148.52z"/>
			<g>
				<g>
					<path class="st15" d="M400.26,124.73c-7.4-0.41-9.99,3.42-10.95,11.02c-1.2,9.49,0.54,16.37,9.9,14.84
						C411.92,148.52,412.55,125.41,400.26,124.73z"/>
					<path class="st19" d="M394.11,135.6c0,0-1.13,1.88-2.32,2.95c0,0,0.58,1.04,1.9,0.94L394.11,135.6z"/>
					<g>
						<path class="st17" d="M398.67,135.24c-0.05,0.61,0.24,1.12,0.65,1.16c0.4,0.03,0.77-0.43,0.82-1.04
							c0.05-0.61-0.24-1.12-0.65-1.16C399.09,134.17,398.72,134.63,398.67,135.24z"/>
						<path class="st17" d="M399.66,134.24l-1.28-0.62C398.38,133.62,398.95,134.78,399.66,134.24z"/>
					</g>
					<g>
						<path class="st17" d="M391.14,134.52c-0.05,0.61,0.24,1.12,0.65,1.16c0.4,0.03,0.77-0.43,0.82-1.04
							c0.05-0.61-0.24-1.12-0.65-1.16C391.55,133.45,391.19,133.92,391.14,134.52z"/>
						<path class="st17" d="M392.13,133.53l-1.28-0.62C390.85,132.91,391.42,134.07,392.13,133.53z"/>
					</g>
					<path class="st17" d="M402.18,131.78c-0.11,0-0.21-0.05-0.28-0.14c-0.92-1.27-2.83-1.16-2.84-1.15
						c-0.2,0.01-0.35-0.13-0.37-0.32c-0.01-0.19,0.13-0.35,0.32-0.37c0.09-0.01,2.3-0.15,3.45,1.43c0.11,0.15,0.08,0.37-0.08,0.48
						C402.32,131.75,402.25,131.78,402.18,131.78z"/>
					<path class="st17" d="M390.69,130.32c-0.12,0-0.23-0.06-0.3-0.17c-0.1-0.16-0.04-0.37,0.12-0.47c1.83-1.08,3.23-0.49,3.29-0.47
						c0.17,0.08,0.25,0.28,0.18,0.45c-0.08,0.17-0.27,0.25-0.45,0.18c-0.05-0.02-1.16-0.47-2.67,0.43
						C390.81,130.31,390.75,130.32,390.69,130.32z"/>
					<g>
						<path class="st17" d="M394.62,142.46c0.38,0.92,0.72,2.62,0.72,2.62c0.16,0,0.32-0.01,0.48-0.02c2.16-0.1,3.14-0.86,3.56-1.67
							c0.23-0.45,0.29-0.91,0.28-1.29c0-0.44-0.1-0.75-0.1-0.75c-1.12,0.74-3.13,0.99-4.21,1.07
							C394.9,142.46,394.62,142.46,394.62,142.46z"/>
						<path class="st8" d="M395.35,142.42l0.23,0.77c2.04-0.1,3.46-0.44,4.07-1.09c0-0.44-0.1-0.75-0.1-0.75
							C398.44,142.08,396.43,142.33,395.35,142.42z"/>
						<path class="st19" d="M395.82,145.06c2.16-0.1,3.14-0.86,3.56-1.67c-0.74,0.06-1.62,0.22-2.38,0.59
							C396.41,144.25,396.05,144.65,395.82,145.06z"/>
					</g>
					<path class="st17" d="M407.66,137.64c0,0-3.13-6.27-2.34-10.93c0,0-14.33-6.79-15.87,8.05c0,0-0.71-13.29,12.02-12.89
						c12.71,0.4,11.66,19,4.79,24.18C406.26,146.06,409.6,141.56,407.66,137.64z"/>
					<path class="st15" d="M406.37,139.14c0.11-1.19,1.45-3.14,3.66-2.77c2.28,0.38,3.11,5.14-2.65,5.96
						C406.55,142.44,406.13,141.62,406.37,139.14z"/>
				</g>
				<path class="st17" d="M403.35,125.97c0,0-1.17,9.13,4.31,17.41c4.16,6.28-0.62,11.79-0.62,11.79s7.38-4.7,7.64-11.79
					c0,0,6.1-16.95-6.56-21.52c0,0-0.05-3.82-8.31-3.09c-8.26,0.73-14.91,7.8-16.17,16.83c-1.26,9.02,3.44,19.08,3.44,19.08
					S382.08,122.71,403.35,125.97z"/>
				<path class="st17" d="M403.83,126.13c-0.58,2.05-0.7,4.35-0.61,6.56c0.12,2.23,0.48,4.45,1.06,6.62
					c0.57,2.17,1.4,4.27,2.47,6.25c1.1,1.95,2.43,3.83,4.18,5.26c-1.81-1.37-3.22-3.2-4.4-5.13c-1.16-1.95-2.08-4.05-2.74-6.24
					c-0.67-2.18-1.12-4.42-1.33-6.71c-0.17-2.29-0.16-4.58,0.41-6.91L403.83,126.13z"/>
			</g>
			<g>
				<path class="st4" d="M419.65,165.12c-1.44,1.93-3.1,3.69-4.93,5.22c-1.64,1.42-3.43,2.66-5.35,3.71
					c0.11-0.43,0.26-0.85,0.4-1.28c1.27-3.59,3.51-6.86,5.33-9.14c1.5-1.88,2.72-3.1,2.92-3.28c0.01-0.01,0.02-0.02,0.02-0.02
					C418.82,160.96,419.32,162.7,419.65,165.12z"/>
				<path class="st16" d="M419.65,165.12c-1.44,1.93-3.1,3.69-4.93,5.22c-1.64,1.42-3.43,2.66-5.35,3.71
					c0.11-0.43,0.26-0.85,0.4-1.28c1.27-3.59,3.51-6.86,5.33-9.14c1.5-1.88,2.72-3.1,2.92-3.28c0.01-0.01,0.02-0.02,0.02-0.02
					C418.82,160.96,419.32,162.7,419.65,165.12z"/>
			</g>
		</g>
	</g>
	<g>
		<circle class="st4" cx="312.1" cy="76.01" r="18.2"/>
		<path class="st12" d="M329.25,76.01c0,4.51-1.74,8.61-4.59,11.67c-3.13,3.37-7.6,5.48-12.57,5.48c-5.33,0-10.08-2.42-13.22-6.22
			c-2.47-2.96-3.94-6.77-3.94-10.93c0-9.48,7.68-17.16,17.16-17.16C321.57,58.85,329.25,66.53,329.25,76.01z"/>
		<path class="st4" d="M324.67,87.68c-3.13,3.37-7.6,5.48-12.57,5.48c-5.33,0-10.08-2.42-13.22-6.22c0.09-0.04,0.18-0.07,0.27-0.09
			c0.22-0.31,0.48-0.6,0.82-0.86c0-0.05,0-0.09,0.01-0.14l0.3-0.05c0.5-0.29,1.11-0.49,1.88-0.49c0.18,0,0.36,0.01,0.56,0.03
			l1.07-0.2c0,0-0.01,0.11-0.02,0.29c1.36,0.11,3.42,0.23,5.78,0.39c0.54-0.41,0.87-0.92,1.06-1.5c0.2-0.61,0.24-1.28,0.2-1.98
			c-0.83-0.04-1.65-0.26-2.4-0.63c-1.32-0.68-2.41-1.86-2.96-3.37c-0.08-0.2-0.14-0.41-0.19-0.62c-0.45-1.85-0.55-4.26-0.09-6.48
			c0-0.01,0-0.01,0-0.01c-0.06,0-0.12,0.01-0.18,0c-0.09-0.02-0.15-0.09-0.15-0.19c0-0.02,0.01-0.03,0.01-0.05
			c0.02-0.11,0.12-0.18,0.23-0.17c0.02,0,0.03-0.01,0.05-0.01c-0.14-1.45,0.08-2.9,0.29-3.88c-0.6-1.05-0.6-3.09-0.03-3.92
			c0.64-0.92,0.14-0.42,1.83-0.57c1.68-0.14,0.66-1.64,1.74-1.65c1.07-0.02,0.85,0.66,2.17,1.15c1.31,0.5,0.83-1,2.32-1.14
			c1.49-0.14,1.7,1,2.78,1.28c1.07,0.28,1.28,0,2.07,0s0.85,2.28,1.18,2.7c0.33,0.43,0.88-0.21,1.59,0.96
			c0.09,0.15,0.13,0.34,0.13,0.56c0,1.51-1.89,4.38-1.89,4.38c-0.08,0.66-0.21,1.37-0.38,2.13c0.57,0.54,0.72,1.44,0.34,2.26
			c-0.37,0.75-0.95,1.36-1.66,1.77c-0.37,0.78-0.74,1.41-1.08,1.89c-0.48,2.62-0.7,5.71,0.19,7.66
			C319.73,86.74,322.62,87.14,324.67,87.68z"/>
		<circle class="st20" cx="312.1" cy="76.01" r="18.2"/>
	</g>
	<g>
		
			<ellipse transform="matrix(0.7071 -0.7071 0.7071 0.7071 -203.1065 242.3846)" class="st4" cx="191.03" cy="366.36" rx="18.2" ry="18.2"/>
		<path class="st21" d="M208.19,366.36c0,4.91-2.07,9.34-5.37,12.45c-3.07,2.92-7.23,4.7-11.79,4.7c-3.61,0-6.95-1.11-9.71-3.01
			c-4.5-3.09-7.45-8.28-7.45-14.14c0-9.48,7.68-17.15,17.16-17.15C200.51,349.21,208.19,356.89,208.19,366.36z"/>
		<path class="st4" d="M202.82,378.82c-3.07,2.92-7.23,4.7-11.79,4.7c-3.61,0-6.95-1.11-9.71-3.01c1.24-0.17,2.56-0.33,3.89-0.47
			c1.03-2.25,0.77-5.82,0.22-8.85c-0.38-0.55-0.81-1.27-1.24-2.18c-0.83-0.48-1.49-1.18-1.92-2.04c-0.45-0.95-0.27-1.98,0.38-2.62
			c-0.35-1.55-0.54-2.95-0.56-4.13l-0.08,0.04c0,0-1.38-5.33,3.78-7.28c5.16-1.95,10.37,1.54,10.37,1.54s1.12-2.08,2.45-1.54
			c1.13,0.46,0.53,1.94,0.32,2.39c0.14-0.23,0.5-0.71,1.17-1.02c0.91-0.41,2.17,0.75-0.66,3.58c-0.29,0.29-0.63,0.53-1.01,0.72
			c0.17,1.12,0.26,2.51,0.08,3.86c0.53,2.56,0.41,5.35-0.11,7.48c-0.06,0.25-0.13,0.49-0.22,0.72c-0.63,1.76-1.89,3.12-3.42,3.89
			c-0.86,0.45-1.81,0.69-2.77,0.74c-0.05,0.8,0.01,1.58,0.23,2.28c0.23,0.67,0.62,1.27,1.23,1.74c2.72-0.19,5.11-0.32,6.68-0.45
			c-0.02-0.23-0.03-0.34-0.03-0.34l1.24,0.23C201.9,378.73,202.39,378.74,202.82,378.82z"/>
		
			<ellipse transform="matrix(0.7071 -0.7071 0.7071 0.7071 -203.1065 242.3846)" class="st20" cx="191.03" cy="366.36" rx="18.2" ry="18.2"/>
	</g>
	<g>
		
			<ellipse transform="matrix(0.2298 -0.9732 0.9732 0.2298 -86.0731 239.3487)" class="st4" cx="108.18" cy="174.05" rx="18.2" ry="18.2"/>
		<path class="st21" d="M125.34,174.05c0,4.39-1.65,8.4-4.36,11.43c-3.15,3.52-7.72,5.73-12.8,5.73c-3.78,0-7.27-1.22-10.1-3.29
			c-4.28-3.12-7.05-8.18-7.05-13.87c0-9.48,7.68-17.15,17.15-17.15S125.34,164.58,125.34,174.05z"/>
		<path class="st4" d="M120.98,185.48c-3.15,3.52-7.72,5.73-12.8,5.73c-3.78,0-7.27-1.22-10.1-3.29l6.8-2.1
			c0.13,0.14,0.25,0.3,0.38,0.47c0.29-0.05,0.58-0.11,0.88-0.17c0.54-0.1,1.09-0.17,1.64-0.26c0.4-0.66,0.6-1.39,0.68-2.1
			c-0.57,0.03-0.94,0.04-0.94,0.04c0.19-0.68-0.82-2.09-0.82-2.09l-0.34,1.86c0,0-0.69-0.11-1.15-0.4
			c-0.45-0.29-1.05-2.32-1.05-2.32s-1.18,1.98-1.43,2.43c-0.26,0.46-0.94,0-0.94,0s-0.45-1.71,0.11-3.48
			c0.57-1.77-1.2-1.72-1.2-1.72s0,0.75-0.45,1.95c-0.46,1.2-0.46,1.83-0.46,2.54c0,0.72,0.06,1.22-0.45,1.22
			c-0.52,0-0.57-0.45-0.52-1.22c0.06-0.77-0.74-1.52-0.28-2.14c0.45-0.63,0.11-2.35,0.11-2.35c-0.29,1.2-1.6,1.15-1.83,2
			c-0.23,0.86,0.63,2.06,0.23,2.49c-0.4,0.43-1.09,0-1.09,0s0.57-0.94,0.17-1.49c-0.4-0.54-1.03-0.82-0.75-1.94
			c0.29-1.12,0.8-1.11,0.63-2.35c-0.17-1.24-0.75-1.16,0-1.62c0.74-0.45,1.71-2.63,1.71-3.57c0-0.94-0.4-3.11,1.2-3.87
			c1.6-0.76,2-1.35,1.71-3.36c-0.29-2.02,1.25-1.87,3.2-1.47c0,0,0.97-1.54,1.88-1.25c0.91,0.28,1.6,0.11,1.8-0.4
			c0.19-0.52,2.72-0.46,3.09,0c0.38,0.45,1.74,0.8,2.56,0.45c0.82-0.34,3.01,1.03,2.94,1.94c-0.07,0.92-0.05,1.43,1.12,1.95
			c1.17,0.52,1.4,0.79,1.91,2.84c0.51,2.04-0.34,2.87,0.69,3.66c1.03,0.78,0.91,3.95,0.97,4.92c0.05,0.97,0,2.05,0,2.05
			s0,0-0.29,0.08c-0.29,0.08-0.51-1.06-0.46-1.89c0.06-0.8-1.74-1.97-1.89-2.07c0.04,0.08,0.36,0.78,0.57,1.33
			c0.23,0.58,0.29,2.1,0.23,3.06c-0.05,0.97,1.09,1.51,1.09,1.51l-1.25,0.63c0,0-0.97-2.07-0.64-3.15c0.33-1.08-0.62-2.04-0.62-2.04
			v2.04c0,0-0.34,0.73-0.85,1.7c-0.51,0.97,0.4,1.26,0.54,1.77c0.14,0.51-1.12,0.54-1.12,0.54l-0.23-1.23l-0.43,1.23
			c-0.45,0.33-1.4,0.57-2.47,0.75c0.06,0.94,0.26,1.55,0.5,1.95c0.41-0.02,0.81-0.05,1.22-0.06c0.81-0.01,1.64,0.01,2.45,0.04h0.02
			C118.6,185.32,119.97,185.41,120.98,185.48z"/>
		
			<ellipse transform="matrix(0.2298 -0.9732 0.9732 0.2298 -86.0731 239.3487)" class="st20" cx="108.18" cy="174.05" rx="18.2" ry="18.2"/>
	</g>
	<g>
		<circle class="st4" cx="179.8" cy="90.77" r="30.52"/>
		<path class="st13" d="M209.32,90.77c0,6.76-2.29,13-6.14,17.99c-1.05,1.37-2.22,2.65-3.51,3.82c-1.18,1.08-2.44,2.06-3.79,2.92
			c-0.05,0.05-0.11,0.09-0.17,0.11c-1.05,0.69-2.14,1.3-3.28,1.84c-3.83,1.82-8.12,2.84-12.63,2.84c-8.99,0-17.06-4.04-22.47-10.39
			l-0.01-0.01c-4.4-5.16-7.05-11.83-7.05-19.12c0-16.28,13.25-29.52,29.53-29.52C196.07,61.25,209.32,74.49,209.32,90.77z"/>
		<g id="_x3C_Group_x3E__4_">
			<path class="st22" d="M186.67,90.77c0.65-1.44,1.11-0.82,2.99,0.63c1.88,1.45,2.18,2.76,2.18,4.3c0,1.54-0.3,4.6-0.3,4.6
				l4.88,5.47l-2.21,3.33l-5.67-6.4c0,0-2.8-2.11-3.26-4.48C184.81,95.86,186.67,90.77,186.67,90.77z"/>
			<g>
				<path class="st17" d="M186.02,89.13l4,7.18c0.18,0.32,0.14,0.73-0.1,1.01l-3.1,3.58c-0.39,0.45-1.11,0.39-1.42-0.12l-3.58-5.9
					L186.02,89.13z"/>
				<polygon class="st23" points="185.8,89.9 189.33,96.55 185.97,100.51 182.36,94.64 				"/>
			</g>
			<path class="st4" d="M195.88,115.5c0.03,0.15,0.05,0.29,0.07,0.43c-0.08-0.1-0.16-0.21-0.24-0.32c-1.05,0.69-2.14,1.3-3.28,1.84
				c0.26-2.03,0.55-3.86,0.81-5.39c0.23-1.4,0.44-2.55,0.6-3.36c0.15-0.81,0.25-1.28,0.27-1.36v-0.01c0.35,0.06,0.7,0.17,1.05,0.34
				c1.53,0.75,3.04,2.54,4.51,4.91C198.49,113.66,197.23,114.64,195.88,115.5z"/>
			<g>
				<path class="st4" d="M195.95,115.93c-0.08-0.1-0.16-0.21-0.24-0.32c-1.05,0.69-2.14,1.3-3.28,1.84
					c-3.83,1.82-8.12,2.84-12.63,2.84c-8.99,0-17.06-4.04-22.47-10.39c0.51-0.12,1.03-0.23,1.55-0.33c0.05-0.01,0.11-0.02,0.16-0.03
					c0.1-0.02,0.2-0.04,0.31-0.06c1.35-0.26,2.73-0.49,4.11-0.69c0.01-0.01,0.02-0.01,0.03-0.01c0.6-0.09,1.21-0.17,1.81-0.25
					c0.8-0.11,1.6-0.2,2.39-0.29c0.06-0.01,0.13-0.02,0.19-0.02c1.83-0.21,3.66-0.38,5.44-0.51c0.59-0.04,1.17-0.08,1.74-0.11h0.01
					c0.75-0.05,1.49-0.1,2.22-0.14c0.73-0.04,1.46-0.07,2.16-0.1c0.29-0.01,0.58-0.02,0.87-0.03c0.87-0.03,1.71-0.05,2.51-0.07
					c2.63-0.06,4.94-0.06,6.78-0.04c0.43,0.01,0.84,0.01,1.22,0.02c0.69,0.01,1.28,0.03,1.76,0.05c0.98,0.02,1.52,0.05,1.52,0.05
					c0.12,0.44,0.24,0.9,0.35,1.37c0,0,0,0,0,0.01c0.51,2.05,0.98,4.33,1.42,6.78C195.91,115.65,195.93,115.79,195.95,115.93z"/>
				<path class="st18" d="M195.95,115.93c-0.08-0.1-0.16-0.21-0.24-0.32c-1.05,0.69-2.14,1.3-3.28,1.84
					c-3.83,1.82-8.12,2.84-12.63,2.84c-8.99,0-17.06-4.04-22.47-10.39c-0.24,0.05-0.48,0.1-0.72,0.15c0.23-0.05,0.47-0.11,0.71-0.16
					c0.52-0.11,1.04-0.22,1.56-0.32c0.05-0.01,0.11-0.02,0.16-0.03c0.1-0.02,0.2-0.04,0.31-0.06c1.35-0.26,2.73-0.49,4.11-0.69
					c0.01-0.01,0.02-0.01,0.03-0.01c0.6-0.09,1.21-0.17,1.81-0.25c0.8-0.11,1.6-0.2,2.39-0.29c0.06-0.01,0.13-0.02,0.19-0.02
					c1.83-0.21,3.66-0.38,5.44-0.51c0.58-0.04,1.16-0.08,1.73-0.12c0.76-0.05,1.5-0.09,2.24-0.13c0.73-0.04,1.46-0.07,2.16-0.1
					c0.29-0.01,0.58-0.02,0.87-0.03c0.86-0.03,1.7-0.06,2.5-0.08c2.64-0.05,4.95-0.05,6.79-0.04c0.44,0.01,0.84,0.01,1.22,0.02
					c0.68,0.01,1.26,0.03,1.74,0.04c0.99,0.03,1.54,0.06,1.54,0.06v0.01c0.12,0.44,0.24,0.9,0.35,1.37c0,0,0,0,0,0.01
					c0.51,2.05,0.98,4.33,1.42,6.78C195.91,115.65,195.93,115.79,195.95,115.93z"/>
			</g>
			<path class="st22" d="M167.65,108.21c3.25,2.95,11.2,1.86,11.2,1.86s4.96-1.36,3.92-2.91c-2.92-0.48-4.34-1.85-4.93-3.59
				c-0.34-1.02-0.39-2.16-0.3-3.34c0.04-0.62,0.14-1.25,0.25-1.86l-9.83-7.28C169.25,95.88,170.83,104.72,167.65,108.21z"/>
			<path class="st18" d="M170.23,95.7c0.39,5.9,5.24,7.53,7.61,7.86c-0.34-1.02-0.39-2.16-0.3-3.34L170.23,95.7z"/>
			<g>
				<path class="st17" d="M187.2,77.06c0,0,1.4,9.18-3.48,12.71c-4.87,3.53-4.87-13.56-4.87-13.56L187.2,77.06z"/>
				<path class="st22" d="M169.57,97.07c2.36,3.4,6.22,4.29,9.57,3.23c2.15-0.68,4.09-2.17,5.3-4.31c0.16-0.28,0.31-0.58,0.44-0.88
					c2.4-5.61,3.16-15.43-2.77-19.11c-4.21-2.65-9.79-1.39-12.44,2.83c-0.76,1.2-1.22,2.56-1.36,3.98
					C167.58,89.36,166.84,93.19,169.57,97.07z"/>
				<path class="st17" d="M177.87,86.31c-0.13,0.52,0.11,1,0.46,1.06c0.35,0.06,0.7-0.33,0.79-0.85c0.09-0.53-0.12-1.01-0.46-1.06
					C178.32,85.4,177.97,85.77,177.87,86.31z"/>
				<path class="st17" d="M183.86,87.33c-0.13,0.52,0.12,1.01,0.46,1.06c0.34,0.06,0.7-0.33,0.79-0.85
					c0.09-0.53-0.12-1.01-0.46-1.06C184.31,86.42,183.95,86.83,183.86,87.33z"/>
				<path class="st24" d="M181.92,87.27c0.35,1.73,0.95,3.4,1.76,4.96c-0.83,0.4-1.79,0.42-2.63,0.04L181.92,87.27z"/>
				<path class="st17" d="M176.35,84.05c0.11,0.04,0.24,0.01,0.32-0.07c0.57-0.56,1.38-0.82,2.17-0.7c0.17,0.04,0.34-0.06,0.38-0.23
					c0.04-0.17-0.06-0.34-0.23-0.38c0,0,0,0,0,0c-1-0.18-2.02,0.14-2.75,0.85c-0.13,0.11-0.14,0.31-0.03,0.44c0,0,0,0,0,0.01
					C176.26,84,176.3,84.03,176.35,84.05z"/>
				<path class="st17" d="M186.79,85.7c0.05,0.03,0.12,0.05,0.18,0.04c0.17-0.05,0.27-0.22,0.22-0.39c0,0,0,0,0-0.01
					c-0.26-0.98-0.99-1.78-1.94-2.13c-0.17-0.05-0.34,0.04-0.39,0.21l0,0c-0.05,0.17,0.05,0.34,0.21,0.39l0,0
					c0.75,0.3,1.31,0.93,1.51,1.71C186.62,85.62,186.7,85.68,186.79,85.7z"/>
				<path class="st17" d="M174.47,75.5v2.93c-1.01,0.39-1.71,1.39-1.41,2.58c0.64,2.54-1.2,6.14-3.25,7.42c0,0,0.07-1.06-0.85-0.92
					c-0.92,0.14-1.34,5.65,0.07,8.48c0,0-2.33-2.68-3.11-8.62c-0.72-5.49-0.35-9.94,1-11.87H174.47z"/>
				<path class="st22" d="M164.56,87.65c0.47,1.6,1.55,2.94,3.01,3.74c1.94,1.04,3.39-0.58,3.26-2.66
					c-0.13-1.85-1.29-4.68-3.43-4.84C165.24,83.72,164,85.69,164.56,87.65z"/>
				<path class="st17" d="M174.47,78.43c0,0,1.9,1.89,3.75,0.51c0,0,2.09,1.74,3.8,0.51c0,0,0.93,1.58,2.47,1.77
					c1.53,0.19,1.54-1.39,1.54-1.39s2.42,1.39,3.31,0.74c0.89-0.65-0.49-3.25-0.49-3.25s1.14-0.61,0.41-2.7
					c-0.73-2.09-4.11-1.6-4.11-1.6s0.13-1.95-2.23-3.98c-2.36-2.03-3.76,0.49-3.76,0.49s-2.28-3.09-5.11-2.68
					c-2.83,0.41-2.5,2.36-2.5,2.36s-3.25-2.03-4.71,0c-1.46,2.03,0,3.01,0,3.01s-3.25,1.09-3.09,3.31c0.16,2.22,1.83,1.89,1.83,1.89
					s-0.94,1.06,1.18,1.95c2.11,0.89,4.1-1.3,4.1-1.3s-0.82,1.26,0.7,2.11C173.06,81.01,174.47,78.43,174.47,78.43z"/>
				<g>
					<path class="st17" d="M180.91,94.24c-0.76,0.64-1.85,1.99-1.85,1.99c-0.14-0.08-0.28-0.15-0.42-0.24
						c-1.87-1.09-2.39-2.21-2.38-3.13c0-0.5,0.17-0.94,0.34-1.28c0.2-0.39,0.43-0.62,0.43-0.62c0.65,1.17,2.32,2.32,3.24,2.89
						C180.66,94.1,180.91,94.24,180.91,94.24z"/>
					<path class="st8" d="M180.28,93.86l-0.56,0.57c-1.76-1.03-2.87-1.99-3.11-2.84c0.2-0.39,0.43-0.62,0.43-0.62
						C177.69,92.14,179.36,93.28,180.28,93.86z"/>
					<path class="st19" d="M178.65,95.99c-1.87-1.09-2.39-2.21-2.38-3.13c0.62,0.39,1.33,0.94,1.84,1.62
						C178.5,95,178.63,95.53,178.65,95.99z"/>
				</g>
			</g>
			<path class="st4" d="M178.85,110.07c0,0-11.47-7.79-15.12-8.23c-3.65-0.44-3,4.12-3,4.12s-2.82,0-1.73,3.47
				c1.08,3.47,16.66,5.38,22.42,3.67c5.76-1.72,9.18-4.94,8.22-7.99c-0.95-3.05-3.61-0.44-3.61-0.44s-1.55-2.87-3.78-2.2
				C180.02,103.13,178.85,110.07,178.85,110.07z"/>
			<path class="st4" d="M203.18,108.76c-1.05,1.37-2.22,2.65-3.51,3.82c-1.18,1.08-2.44,2.06-3.79,2.92
				c0.03,0.15,0.05,0.29,0.07,0.43c-0.08-0.1-0.16-0.21-0.24-0.32c-0.76-1.02-1.64-2.26-2.47-3.55c-1.04-1.66-1.99-3.39-2.41-4.82
				v-0.01c-0.14-0.45-0.22-0.86-0.24-1.24l-0.95-1.32l0.31-0.36l2.52-2.96l0.55-0.64l1.08,1.41c0,0,1.39-0.5,5.84,3.33
				C201.08,106.43,202.24,107.67,203.18,108.76z"/>
		</g>
	</g>
	<g>
		<circle class="st4" cx="95.44" cy="278.66" r="28.86"/>
		<path class="st13" d="M123.29,278.66c0,6.66-2.34,12.78-6.26,17.57c-1.18,1.45-2.5,2.78-3.95,3.97c-0.46,0.38-0.94,0.75-1.44,1.1
			c-1.35,0.98-2.8,1.83-4.32,2.55c-3.61,1.71-7.64,2.67-11.89,2.67c-5.11,0-9.9-1.38-14.01-3.8c-1.06-0.61-2.07-1.3-3.03-2.05h-0.01
			c-0.05-0.04-0.1-0.08-0.15-0.13c-1.13-0.87-2.19-1.85-3.15-2.9c-4.66-4.97-7.5-11.65-7.5-18.98c0-15.36,12.49-27.86,27.85-27.86
			C110.8,250.8,123.29,263.3,123.29,278.66z"/>
		<g>
			<path class="st17" d="M113.08,300.2c-0.46,0.38-0.94,0.75-1.44,1.1c-1.35,0.98-2.8,1.83-4.32,2.55
				c-3.61,1.71-7.64,2.67-11.89,2.67c-5.11,0-9.9-1.38-14.01-3.8c-1.06-0.61-2.07-1.3-3.03-2.05h-0.01
				c-0.05-0.04-0.1-0.08-0.15-0.13c0.02-0.07,0.03-0.12,0.05-0.19v-0.01c0.24-0.9,0.47-1.84,0.68-2.82c0.3-1.32,0.57-2.69,0.81-4.12
				c0.61-3.7,0.97-7.71,0.84-11.78c-0.49-14.75,2.19-20.16,8.22-23.05c0.27-0.13,0.55-0.27,0.85-0.39c1.42-0.6,2.86-0.71,4.25-0.53
				c0,0,0,0,0.01,0c5.16,0.7,9.64,5.51,9.64,5.51s1,1.37,2.36,3.99c2.44,4.71,6.03,13.46,6.93,25.44v0.01
				C113.06,295.01,113.14,297.54,113.08,300.2z"/>
			<path class="st4" d="M112.87,292.6v-0.01c-1.08-0.79-2.09-1.35-2.91-1.52c0,0-5.88-0.57-10.99-0.53
				c-0.56,0.02-1.13,0.05-1.69,0.08c-2.62,0.14-5.24,0.41-7.83,0.8c-0.76,0.11-1.52,0.23-2.27,0.37c-2.5,0.41-4.97,0.95-7.41,1.61
				c-1.17,0.31-2.33,0.65-3.49,1.02c-0.43,0.54-0.82,1.67-1.2,3.22c0.96,1.05,2.02,2.03,3.15,2.9c0.05,0.05,0.1,0.09,0.15,0.13h0.01
				c0.96,0.75,1.97,1.44,3.03,2.05c4.11,2.42,8.9,3.8,14.01,3.8c4.25,0,8.28-0.96,11.89-2.67c1.52-0.72,2.97-1.57,4.32-2.55
				c0.5-0.35,0.98-0.72,1.44-1.1c1.45-1.19,2.77-2.52,3.95-3.97C115.67,294.89,114.21,293.57,112.87,292.6z"/>
			<path class="st25" d="M112.87,292.6v-0.01c-1.08-0.79-2.09-1.35-2.91-1.52c0,0-5.88-0.57-10.99-0.53
				c-0.56,0.02-1.13,0.05-1.69,0.08c-2.62,0.14-5.24,0.41-7.83,0.8c-0.76,0.11-1.52,0.23-2.27,0.37c-2.5,0.41-4.97,0.95-7.41,1.61
				c-1.17,0.31-2.33,0.65-3.49,1.02c-0.43,0.54-0.82,1.67-1.2,3.22c0.96,1.05,2.02,2.03,3.15,2.9c0.05,0.05,0.1,0.09,0.15,0.13h0.01
				c0.96,0.75,1.97,1.44,3.03,2.05c4.11,2.42,8.9,3.8,14.01,3.8c4.25,0,8.28-0.96,11.89-2.67c1.52-0.72,2.97-1.57,4.32-2.55
				c0.5-0.35,0.98-0.72,1.44-1.1c1.45-1.19,2.77-2.52,3.95-3.97C115.67,294.89,114.21,293.57,112.87,292.6z"/>
			<path class="st26" d="M96.81,296.35c-6.48-0.83-8.42-3.6-8.42-3.6c2.65-2.49,2.17-6.17,1.49-8.47c-0.37-1.27-0.8-2.12-0.8-2.12
				l7.8,1.46c-0.2,1.29-0.29,2.37-0.3,3.28c-0.02,1,0.07,1.79,0.22,2.41c0.53,2.33,1.86,2.36,1.86,2.36
				C100.02,294.23,96.81,296.35,96.81,296.35z"/>
			<path class="st18" d="M96.57,286.9c-0.02,1,0.07,1.79,0.22,2.41c-3.1-0.41-5.44-2.88-6.92-5.03c-0.37-1.27-0.8-2.12-0.8-2.12
				l7.8,1.46C96.67,284.9,96.58,285.99,96.57,286.9z"/>
			<g>
				<path class="st26" d="M95.29,262.03c6.78,0.25,8.83,3.96,9.06,10.97c0.3,8.75-1.87,14.88-10.28,12.7
					C82.66,282.74,84.03,261.61,95.29,262.03z"/>
				<path class="st27" d="M99.98,272.46c0,0,0.87,1.81,1.87,2.88c0,0-0.61,0.9-1.82,0.7L99.98,272.46z"/>
				<path class="st17" d="M92.98,268.33c-0.08,0-0.17-0.03-0.23-0.09c-0.15-0.13-0.16-0.35-0.03-0.5c1.2-1.37,3.22-1.05,3.3-1.03
					c0.19,0.03,0.32,0.21,0.29,0.41c-0.03,0.19-0.21,0.32-0.41,0.29c-0.02,0-1.72-0.27-2.65,0.8
					C93.18,268.29,93.08,268.33,92.98,268.33z"/>
				<path class="st17" d="M103.58,267.97c-0.07,0-0.14-0.02-0.21-0.07c-1.29-0.93-2.32-0.62-2.37-0.61
					c-0.19,0.06-0.38-0.04-0.44-0.23c-0.06-0.19,0.04-0.38,0.23-0.44c0.06-0.02,1.4-0.44,3,0.71c0.16,0.11,0.19,0.33,0.08,0.49
					C103.8,267.92,103.69,267.97,103.58,267.97z"/>
				<g>
					<path class="st17" d="M98.95,278.67c-0.42,0.8-0.88,2.32-0.88,2.32c-0.15-0.02-0.29-0.03-0.43-0.06
						c-1.97-0.27-2.79-1.05-3.1-1.83c-0.17-0.43-0.18-0.86-0.15-1.2c0.04-0.4,0.15-0.68,0.15-0.68c0.96,0.77,2.77,1.16,3.75,1.33
						C98.69,278.64,98.95,278.67,98.95,278.67z"/>
					<path class="st8" d="M98.28,278.57L98,279.25c-1.85-0.26-3.12-0.69-3.62-1.34c0.04-0.4,0.15-0.68,0.15-0.68
						C95.49,278,97.3,278.4,98.28,278.57z"/>
					<path class="st19" d="M97.63,280.94c-1.97-0.27-2.79-1.05-3.1-1.83c0.67,0.12,1.46,0.34,2.12,0.74
						C97.17,280.15,97.46,280.55,97.63,280.94z"/>
				</g>
				<path class="st17" d="M87.45,273.18c0,0,3.38-5.45,3.06-9.77c0,0,13.64-4.99,13.79,8.67c0,0,1.76-12.06-9.88-12.76
					c-11.62-0.7-12.23,16.35-6.4,21.65C88.03,280.97,85.36,276.59,87.45,273.18z"/>
				<path class="st26" d="M88.51,274.65c0-1.09-1.06-2.98-3.1-2.84c-2.11,0.15-3.27,4.43,1.92,5.66
					C88.07,277.65,88.52,276.94,88.51,274.65z"/>
				<path class="st17" d="M91.48,257.55c3.67-1.02,13.44-1.15,15.75,8.96l-1.36,0.68c0,0-3.26-1.76-7.33-2.17
					c0,0-0.81-1.49-1.9-2.72c0,0,0.14,1.63,0,2.58c0,0-6.38,0.93-9.23,3.53c-4.48,4.07-4.75,6.65-4.75,6.65
					S79.55,260.87,91.48,257.55z"/>
				<path class="st17" d="M108.18,266.42c-0.1,0-0.2-0.06-0.23-0.17c-1.16-3.48-3.14-5.93-5.9-7.28
					c-5.03-2.47-10.97-0.46-11.03-0.44c-0.13,0.05-0.27-0.02-0.31-0.15c-0.04-0.13,0.02-0.27,0.15-0.31
					c0.06-0.02,6.2-2.1,11.41,0.46c2.88,1.42,4.94,3.96,6.15,7.57c0.04,0.13-0.03,0.27-0.15,0.31
					C108.23,266.41,108.2,266.42,108.18,266.42z"/>
				<path class="st17" d="M93.99,271.76c0,0,1.59-1.35,2.34,0.47C96.33,272.22,95.16,271.62,93.99,271.76z"/>
				<path class="st17" d="M101.53,272.76c0,0,0.88-1.84,2.05-0.54C103.58,272.22,102.24,272.26,101.53,272.76z"/>
			</g>
		</g>
	</g>
	<g>
		
			<ellipse transform="matrix(0.7071 -0.7071 0.7071 0.7071 -122.5997 360.4981)" class="st4" cx="373.86" cy="328.24" rx="35.76" ry="35.76"/>
		<path class="st13" d="M408.62,328.23c0,5.61-1.33,10.91-3.71,15.61c-0.47,0.94-0.99,1.85-1.54,2.74
			c-0.43,0.69-0.88,1.37-1.37,2.03c-2.03,2.81-4.48,5.3-7.25,7.39c-0.63,0.48-1.28,0.93-1.95,1.37c-2.67,1.75-5.6,3.13-8.71,4.09
			c-3.24,1-6.67,1.54-10.23,1.54c-5.12,0-9.99-1.11-14.37-3.11c-0.56-0.26-1.12-0.53-1.67-0.81v-0.01
			c-3.11-1.62-5.95-3.71-8.42-6.16c-2.42-2.39-4.49-5.14-6.13-8.15c-0.46-0.86-0.89-1.75-1.28-2.65h-0.01
			c-1.86-4.25-2.89-8.95-2.89-13.88c0-19.16,15.6-34.76,34.77-34.76C393.03,293.48,408.62,309.08,408.62,328.23z"/>
		<g id="_x3C_Group_x3E__2_">
			<path class="st28" d="M356.51,326.86c-0.45,0.86-2.15,2.6-2.15,2.6l-3,14.19l-1.96,9.26c-2.42-2.39-4.49-5.14-6.13-8.15
				c0.24-0.75,0.5-1.53,0.75-2.32c2.12-6.58,4.56-14.2,4.74-14.95c0.32-1.34-0.85-7.91-0.58-9.12c0.28-1.2,6.27-2.62,7.57-2.6
				C357.05,315.8,356.95,326.02,356.51,326.86z"/>
			<path class="st4" d="M361.2,342.49c0,0,0,0.02-0.01,0.05l-1.26,12.93l-0.44,4.42c-0.56-0.26-1.12-0.53-1.67-0.81v-0.01
				c-3.11-1.62-5.95-3.71-8.42-6.16c-2.42-2.39-4.49-5.14-6.13-8.15c-0.46-0.86-0.89-1.75-1.28-2.65l2.03,0.33l7.34,1.21l1.58,0.26
				l-1.85,8.97C351.09,352.89,357.82,343.52,361.2,342.49z"/>
			<path class="st29" d="M361.2,342.49c0,0,0,0.02-0.01,0.05l-1.26,12.93l-0.44,4.42c-0.56-0.26-1.12-0.53-1.67-0.81v-0.01
				c-3.11-1.62-5.95-3.71-8.42-6.16c-2.42-2.39-4.49-5.14-6.13-8.15c-0.46-0.86-0.89-1.75-1.28-2.65l2.03,0.33l7.34,1.21l1.58,0.26
				l-1.85,8.97C351.09,352.89,357.82,343.52,361.2,342.49z"/>
			<g>
				<path class="st4" d="M404.91,343.85c-0.47,0.94-0.99,1.85-1.54,2.74c-0.43,0.69-0.88,1.37-1.37,2.03
					c-2.03,2.81-4.48,5.3-7.25,7.39c-0.63,0.48-1.28,0.93-1.95,1.37c-2.67,1.75-5.6,3.13-8.71,4.09c-3.24,1-6.67,1.54-10.23,1.54
					c-5.12,0-9.99-1.11-14.37-3.11c-0.56-0.26-1.12-0.53-1.67-0.81v-0.01c1.4-9.99,3.19-15.95,3.37-16.53
					c0.01-0.03,0.01-0.05,0.01-0.05c3.6-1.03,7.28-1.78,11-2.24c0.06,0,0.11-0.01,0.17-0.01c0.01,0,0.01,0,0.01,0
					c5.34-0.42,10.72-0.54,16.09-0.34h0.05c3.72,0.1,7.42,0.46,11.09,1.1C400.09,341.2,402.55,342.23,404.91,343.85z"/>
				<path class="st29" d="M404.91,343.85c-0.47,0.94-0.99,1.85-1.54,2.74c-0.43,0.69-0.88,1.37-1.37,2.03
					c-2.03,2.81-4.48,5.3-7.25,7.39c-0.63,0.48-1.28,0.93-1.95,1.37c-2.67,1.75-5.6,3.13-8.71,4.09c-3.24,1-6.67,1.54-10.23,1.54
					c-5.12,0-9.99-1.11-14.37-3.11c-0.56-0.26-1.12-0.53-1.67-0.81v-0.01c1.4-9.99,3.19-15.95,3.37-16.53
					c0.01-0.03,0.01-0.05,0.01-0.05c3.6-1.03,7.28-1.78,11-2.24c0.06,0,0.11-0.01,0.17-0.01c0.01,0,0.01,0,0.01,0
					c5.34-0.42,10.72-0.54,16.09-0.34h0.05c3.72,0.1,7.42,0.46,11.09,1.1C400.09,341.2,402.55,342.23,404.91,343.85z"/>
				<path class="st14" d="M394.75,356.01c-0.63,0.48-1.28,0.93-1.95,1.37c-2.67,1.75-5.6,3.13-8.71,4.09
					c-3.24,1-6.67,1.54-10.23,1.54c-5.12,0-9.99-1.11-14.37-3.11c-0.56-0.26-1.12-0.53-1.67-0.81v-0.01
					c0.05-0.29,0.09-0.58,0.13-0.86c0.58-0.9,1.24-1.82,1.98-2.74c3.58-4.57,8.62-9.18,11.17-11.41c0.71,0.88,1.92,1.63,3.89,2.02
					c3.28,0.64,7.03-0.89,10.14-2.74c1.4,1.39,3.51,3.6,5.45,6.01c1.46,1.82,2.81,3.75,3.69,5.54
					C394.45,355.27,394.61,355.64,394.75,356.01z"/>
			</g>
			<path class="st28" d="M388.52,339.95c0,0-4.07,5.02-11.84,5.37c-6.73,0.3-4.48-5.02-4.48-5.02c2.47-0.64,3.84-1.8,4.53-3.21
				c0.87-1.81,0.61-4.05,0.06-6.25c-0.04-0.15-0.08-0.31-0.12-0.46l9.84-8.76C385.6,326.88,384.78,336.52,388.52,339.95z"/>
			<path class="st18" d="M384.89,329.34c-0.52,3.38-4.63,6.7-8.16,7.75c0.87-1.81,0.61-4.05,0.06-6.25l8.15-6.24
				C385.22,326.17,385.21,327.77,384.89,329.34z"/>
			<g>
				<path class="st17" d="M378.52,310.24c2.33,2.64,0.22,5.55-7.46,9.01c-1.73-4.03-0.5-10.67,1.98-11.78
					C375.52,306.34,376.48,307.95,378.52,310.24z"/>
				<path class="st28" d="M389.32,318.59c-2.07,6.82-2.93,10.91-7.27,13.64c-6.52,4.1-14.32-1.1-14.33-8.4
					c0-6.56,3.37-16.62,10.8-17.76c5.3-0.84,10.29,2.77,11.13,8.07C389.88,315.63,389.77,317.16,389.32,318.59z"/>
				<path class="st17" d="M378.53,318.04c-0.13,0.56-0.54,0.95-0.91,0.86c-0.37-0.09-0.55-0.61-0.42-1.17
					c0.13-0.56,0.54-0.95,0.9-0.87C378.47,316.94,378.62,317.48,378.53,318.04z"/>
				<path class="st17" d="M372.12,316.53c-0.13,0.56-0.54,0.95-0.91,0.86c-0.37-0.09-0.56-0.61-0.43-1.18
					c0.13-0.57,0.54-0.95,0.91-0.86C372.06,315.44,372.26,315.97,372.12,316.53z"/>
				<path class="st30" d="M374.15,317.29c-1.08,1.56-2.37,2.97-3.84,4.18c0.8,1.17,2.58,1.14,2.58,1.14L374.15,317.29z"/>
				<path class="st17" d="M380.76,316.44c0.07,0.03,0.15,0.03,0.22,0c0.17-0.07,0.25-0.27,0.18-0.45c-0.42-1.02-1.3-1.76-2.37-2.01
					c-0.18-0.04-0.35,0.08-0.39,0.26c0,0.01,0,0.02,0,0.02c-0.02,0.18,0.1,0.35,0.28,0.39l0,0c0.84,0.2,1.53,0.8,1.85,1.6
					C380.58,316.35,380.66,316.41,380.76,316.44z"/>
				<path class="st17" d="M369.72,313.68c0.13,0.03,0.26-0.02,0.35-0.12c0.53-0.69,1.35-1.08,2.22-1.06
					c0.19,0.02,0.35-0.12,0.37-0.3c0.02-0.18-0.11-0.35-0.3-0.37c-1.1-0.05-2.15,0.44-2.82,1.31c-0.12,0.14-0.1,0.35,0.04,0.47
					c0,0,0,0,0,0C369.63,313.64,369.67,313.67,369.72,313.68z"/>
				<path class="st17" d="M388.01,311.81c-3.5,0.34-3.93,3.92-0.64,11.67c4.01-1.78,7.62-7.49,6.55-9.99
					C392.85,310.99,391.07,311.51,388.01,311.81z"/>
				<path class="st28" d="M391.3,324.91c-0.88,1.56-2.34,2.71-4.07,3.2c-2.29,0.62-3.42-1.44-2.77-3.59
					c0.59-1.94,2.49-4.6,4.78-4.27C391.53,320.59,392.37,322.99,391.3,324.91z"/>
				<path class="st17" d="M381.29,308.92c0,0-0.73,7.17,5.81,9.31c6.54,2.14,9.02-1.61,9.02-1.61s-1.06-0.11-1.67-0.28
					c0,0,2.8-2.86,1.68-6.6c-1.12-3.74-6.89-8.81-12.26-8.33c0,0-4.25-2.98-9.55-1.47c-5.3,1.5-5.97,7.55-5.97,7.55
					s0.7-3.6,3.1-4.04c0,0-4.52,6.62-1.03,9.58C370.44,313.03,372.67,305.95,381.29,308.92z"/>
				<g>
					<path class="st17" d="M371.66,325.21c0.59,0.82,1.33,2.44,1.33,2.44c0.16-0.04,0.32-0.08,0.47-0.13
						c2.13-0.6,2.93-1.59,3.15-2.5c0.12-0.5,0.07-0.98-0.02-1.35c-0.1-0.44-0.27-0.73-0.27-0.73c-0.94,1-2.89,1.71-3.94,2.05
						C371.95,325.14,371.66,325.21,371.66,325.21z"/>
					<path class="st8" d="M372.39,324.99l0.41,0.71c2.01-0.57,3.35-1.25,3.8-2.03c-0.1-0.44-0.27-0.73-0.27-0.73
						C375.39,323.94,373.44,324.65,372.39,324.99z"/>
					<path class="st19" d="M373.46,327.52c2.13-0.6,2.93-1.59,3.15-2.5c-0.72,0.23-1.56,0.6-2.24,1.14
						C373.86,326.58,373.6,327.06,373.46,327.52z"/>
				</g>
			</g>
		</g>
	</g>
</g>
<g id="Speech_bubble">
	<g>
		<path class="st4" d="M267.94,159.91l-13.7-0.66c-2.04-0.1-3.61-1.83-3.51-3.86l0.66-13.7c0.1-2.04,1.83-3.61,3.86-3.51l13.7,0.66
			c2.04,0.1,3.61,1.83,3.51,3.86l-0.66,13.7C271.71,158.43,269.98,160.01,267.94,159.91z"/>
		<path class="st31" d="M267.6,145.17c-1.37-2.49-4.26-1.7-5.82,0.11c-1.38-1.95-4.18-3.01-5.78-0.67c-2.7,3.96,2.29,7.98,4.66,9.57
			c0.27,0.18,0.49,0.33,0.68,0.45c0.2-0.1,0.43-0.23,0.72-0.39C264.56,152.9,269.91,149.37,267.6,145.17z"/>
		<path class="st4" d="M263.44,158.06c0,0-3.07,6.19-9.35,7.87c0,0,3.52-1.81,3.57-8.41L263.44,158.06z"/>
	</g>
</g>
<g id="Character">
	<g>
		<path class="st22" d="M279.51,223.32c0,0,7.94-7.94,10.5-13.6c0,0-0.97-3.16-0.06-4.8c0.91-1.64,6.19-6.33,7.61-5.34
			c1.41,1,3.45,4.94,2.61,6.59c-0.84,1.65-6.03,5.03-6.03,5.03s-6.43,12.89-10.41,15.8C279.74,229.92,279.51,223.32,279.51,223.32z"
			/>
		<path class="st17" d="M259.43,199.45c4.62,0.6,9.9,23.02,13.59,25.13c3.69,2.11,13.27-10.28,13.27-10.28l4.4,5.01
			c0,0-12.66,17.64-17.67,16.07c-5.01-1.57-14.43-18.98-14.43-18.98L259.43,199.45z"/>
		<path class="st32" d="M259.43,199.45c4.62,0.6,9.9,23.02,13.59,25.13c3.69,2.11,13.27-10.28,13.27-10.28l4.4,5.01
			c0,0-12.66,17.64-17.67,16.07c-5.01-1.57-14.43-18.98-14.43-18.98L259.43,199.45z"/>
		<polygon class="st22" points="287.49,406.24 281.42,407.32 278.93,399.03 276.65,391.43 283.66,388.99 285.69,398.12 		"/>
		<path class="st17" d="M280.05,407.16c-0.1-0.67,8.22-1.6,8.22-1.6s5.97,4.25,11.09,4.54c5.12,0.29,2.89,3.72-2.6,4.69
			c-5.5,0.97-9.69,1.71-13.59,2.4C279.26,417.88,281.11,414.13,280.05,407.16z"/>
		<g>
			<path class="st4" d="M292.35,406.94c-1.14,0-2.59-0.38-2.98-0.49c-0.03-0.01-0.05-0.02-0.07-0.03l0,0l0,0
				c-0.02-0.02-0.04-0.04-0.06-0.06l0,0c0,0,0,0,0,0c-0.01-0.02-0.02-0.03-0.02-0.05c0,0,0,0,0,0h0c-0.01-0.03-0.01-0.07-0.01-0.1
				c0.02-0.09,0.37-2.13,1.4-2.79c0.33-0.21,0.69-0.26,1.07-0.16c0.41,0.11,0.63,0.31,0.66,0.6c0.05,0.44-0.46,0.97-1.06,1.45
				c0.68-0.19,1.4-0.3,1.88-0.12c0.26,0.09,0.44,0.25,0.54,0.48c0.21,0.47,0.09,0.75-0.04,0.91
				C293.42,406.85,292.93,406.94,292.35,406.94z M290.1,406.19c1.3,0.3,2.89,0.49,3.22,0.1c0.03-0.03,0.12-0.14-0.02-0.44
				c-0.05-0.11-0.15-0.2-0.29-0.25C292.36,405.36,290.99,405.82,290.1,406.19z M291.31,403.65c-0.16,0-0.31,0.05-0.46,0.14
				c-0.56,0.36-0.92,1.35-1.1,2.02c1.14-0.68,2.2-1.53,2.16-1.9c-0.01-0.12-0.22-0.19-0.34-0.22
				C291.48,403.66,291.4,403.65,291.31,403.65z"/>
		</g>
		<polygon class="st18" points="285.72,398.31 278.96,399.2 276.67,391.52 283.66,389.03 		"/>
		<polygon class="st22" points="246.94,408.85 240.77,408.85 239.76,400.26 238.84,392.38 246.17,391.19 246.58,400.54 		"/>
		<path class="st17" d="M239.45,408.45c0.02-0.68,8.37-0.15,8.37-0.15s5.14,5.23,10.13,6.4c4.99,1.17,2.2,4.17-3.38,4.17
			c-5.58,0-9.84,0-13.8,0C236.81,418.88,239.29,415.5,239.45,408.45z"/>
		<g>
			<path class="st4" d="M252.22,410.44c-1.17,0-3.02-0.85-3.46-1.06c-0.03-0.01-0.05-0.03-0.07-0.06l0,0h0
				c-0.01-0.01-0.02-0.03-0.03-0.05c-0.02-0.05-0.03-0.11-0.01-0.17c0.03-0.08,0.73-2.03,1.86-2.5c0.36-0.15,0.72-0.14,1.08,0.03
				c0.38,0.18,0.57,0.42,0.55,0.7c-0.02,0.44-0.62,0.88-1.3,1.24c0.71-0.07,1.43-0.05,1.87,0.2c0.24,0.14,0.39,0.33,0.45,0.57
				c0.13,0.5-0.04,0.76-0.2,0.89C252.78,410.38,252.52,410.44,252.22,410.44z M249.52,409.24c1.23,0.52,2.76,0.98,3.16,0.66
				c0.03-0.03,0.14-0.11,0.06-0.44c-0.03-0.12-0.11-0.22-0.24-0.29C251.89,408.82,250.46,409.03,249.52,409.24z M251.01,406.94
				c-0.11,0-0.22,0.02-0.34,0.07c-0.62,0.26-1.14,1.16-1.43,1.8c1.24-0.47,2.43-1.12,2.45-1.5c0.01-0.12-0.18-0.23-0.3-0.28
				C251.27,406.97,251.14,406.94,251.01,406.94z"/>
		</g>
		<polygon class="st18" points="246.58,400.73 239.76,400.43 238.84,392.46 246.17,391.23 		"/>
		<g>
			<path class="st4" d="M286.3,393.49l-9.99,1.76c-10.08-25.1-17.24-46.06-22.3-63.45c-2.73-9.38-4.85-17.73-6.48-25.13l0.46,27.33
				v62.08h-10.14c-24.67-117.63-7.19-144.51-7.19-144.51l29.51-5.04c1.12,4.4,1.97,11.54,2.47,16.51l1.33,9.76l11.54,59.56
				L286.3,393.49z"/>
		</g>
		<polygon class="st4" points="274.75,394.02 287.13,389.91 286.96,395.18 276.72,398.45 		"/>
		<polygon class="st4" points="236.52,394.59 249.43,392.7 248.35,397.86 237.69,399.29 		"/>
		<path class="st17" d="M257.5,187.19c-0.04,0-0.09-0.01-0.13-0.04c-3.76-2.27-7.12-10.63-7.26-10.98
			c-0.05-0.13,0.01-0.27,0.14-0.32c0.13-0.05,0.27,0.01,0.32,0.14c0.03,0.08,3.44,8.55,7.06,10.74c0.12,0.07,0.16,0.23,0.08,0.34
			C257.67,187.14,257.59,187.19,257.5,187.19z"/>
		<path class="st17" d="M227.23,165.25c0,0,1.47-4.99,11.27-5.84c9.8-0.85,14.67,8.8,12.36,15.98c0,0,2.06,9.77,6.01,12.63
			c0,0-18.85,8.52-28.37,8.57c-2.12,0.01-6.65-10.51-7.23-18.09C220.71,171.2,222.91,165.48,227.23,165.25z"/>
		<polygon class="st17" points="230.65,247.16 230.65,251.56 260.75,249.25 260.75,244.04 		"/>
		<polygon class="st33" points="230.65,247.16 230.65,251.56 260.75,249.25 260.75,244.04 		"/>
		
			<rect x="247.42" y="245.4" transform="matrix(0.996 -0.0892 0.0892 0.996 -21.1144 23.3532)" class="st8" width="6.61" height="5.01"/>
		<g>
			
				<rect x="239.46" y="245.34" transform="matrix(0.9987 -0.0511 0.0511 0.9987 -12.4068 12.5886)" class="st4" width="1.49" height="7.61"/>
		</g>
		<g>
			
				<rect x="257.84" y="243.32" transform="matrix(0.9987 -0.0509 0.0509 0.9987 -12.2502 13.4903)" class="st4" width="1.49" height="7.61"/>
		</g>
		<path class="st17" d="M260.87,244.57l-30.1,2.6c-0.29-4.55-0.58-8.45-1.27-12.82c-0.44-2.8-1.05-5.8-1.93-9.29
			c-0.68-2.73-1.53-5.77-2.61-9.25c-0.05-0.19-0.11-0.38-0.17-0.57c-0.62-1.99-5.03-0.47-5.43-2.86
			c-1.74-10.64,9.74-11.42,13.97-12.12c4.46-0.79,8.99-1.27,13.52-1.42c5.85-0.05,12.58,0.61,12.58,0.61s0.96,0.23,1.56,6.44
			C261.54,211.71,262.08,223.37,260.87,244.57z"/>
		<path class="st22" d="M244.36,205.49c-7.42-0.95-9.65-4.12-9.65-4.12c4.71-4.44,0.8-12.14,0.8-12.14l8.93,1.67
			c-0.23,1.48-0.33,2.71-0.35,3.76c-0.07,5.42,2.38,5.47,2.38,5.47C248.04,203.07,244.36,205.49,244.36,205.49z"/>
		<path class="st18" d="M244.44,190.9c-0.23,1.48-0.33,2.71-0.35,3.76c-6.03,0-8.58-5.43-8.58-5.43L244.44,190.9z"/>
		<g>
			<path class="st22" d="M237.6,165.91c7.58-1.72,10.94,1.79,13.27,9.48c2.91,9.61,2.31,17.03-7.64,17.09
				C229.71,192.56,225.01,168.76,237.6,165.91z"/>
			<path class="st24" d="M245.87,176.07c0,0,1.5,1.74,2.92,2.64c0,0-0.42,1.18-1.8,1.31L245.87,176.07z"/>
			<g>
				<path class="st17" d="M241.08,176.5c0.16,0.62-0.05,1.21-0.47,1.31c-0.41,0.1-0.87-0.31-1.03-0.93
					c-0.16-0.62,0.05-1.21,0.47-1.31C240.47,175.47,240.93,175.88,241.08,176.5z"/>
				<path class="st17" d="M239.89,175.64l1.21-0.87C241.1,174.78,240.72,176.08,239.89,175.64z"/>
			</g>
			<g>
				<path class="st17" d="M248.75,174.44c0.16,0.62-0.05,1.21-0.47,1.31c-0.41,0.1-0.87-0.31-1.03-0.93
					c-0.16-0.62,0.05-1.21,0.47-1.31C248.14,173.4,248.6,173.82,248.75,174.44z"/>
				<path class="st17" d="M247.56,173.58l1.21-0.87C248.77,172.71,248.39,174.01,247.56,173.58z"/>
			</g>
			<path class="st17" d="M236.79,173.54c-0.05,0-0.11-0.01-0.16-0.04c-0.18-0.09-0.25-0.31-0.16-0.49c0.91-1.85,3.22-2.08,3.32-2.09
				c0.2-0.02,0.38,0.13,0.39,0.33c0.02,0.2-0.13,0.38-0.33,0.4c-0.02,0-2,0.21-2.74,1.69C237.06,173.46,236.93,173.54,236.79,173.54
				z"/>
			<path class="st17" d="M245.26,170.08c-0.12,0-0.24-0.06-0.31-0.17c-0.11-0.17-0.06-0.39,0.11-0.5c0.06-0.04,1.41-0.89,3.49-0.1
				c0.19,0.07,0.28,0.28,0.21,0.47c-0.07,0.19-0.28,0.28-0.47,0.21c-1.72-0.66-2.79,0-2.84,0.03
				C245.4,170.06,245.33,170.08,245.26,170.08z"/>
			<path class="st17" d="M246.55,183.26c-0.23,1.01-0.29,2.83-0.29,2.83c-0.17,0.02-0.33,0.05-0.5,0.07
				c-2.26,0.28-3.4-0.34-3.97-1.11c-0.31-0.42-0.46-0.89-0.52-1.29c-0.08-0.45-0.03-0.79-0.03-0.79c1.28,0.57,3.41,0.47,4.54,0.37
				C246.25,183.31,246.55,183.26,246.55,183.26z"/>
			<path class="st8" d="M245.78,183.34l-0.11,0.83c-2.13,0.26-3.66,0.15-4.4-0.41c-0.08-0.45-0.03-0.79-0.03-0.79
				C242.52,183.54,244.65,183.44,245.78,183.34z"/>
			<path class="st19" d="M245.76,186.16c-2.26,0.28-3.4-0.34-3.97-1.11c0.77-0.06,1.71-0.06,2.57,0.19
				C245.01,185.42,245.45,185.78,245.76,186.16z"/>
			<path class="st17" d="M232.2,180.56c0,0,2.13-7.03,0.51-11.72c0,0,13.63-9.54,17.83,5.54c0,0-1.6-13.87-14.7-11.22
				c-13.08,2.65-8.73,21.7-0.71,25.86C235.13,189.02,230.89,184.96,232.2,180.56z"/>
			<path class="st22" d="M233.81,181.88c-0.33-1.21-2.05-2.99-4.27-2.23c-2.29,0.79-2.32,5.86,3.79,5.7
				C234.2,185.33,234.49,184.41,233.81,181.88z"/>
		</g>
		<path class="st17" d="M232.71,168.85c0,0,7.86-2.89,12.28-0.71c0,0-4.77-4.28-12.84-0.25L232.71,168.85z"/>
		<path class="st22" d="M227.84,202.19c0,0,8.71,7.07,16.82,6.95c8.11-0.11,10.96-9.23,10.96-9.23S243.04,196.19,227.84,202.19z"/>
		<path class="st18" d="M254.01,331.8c-2.73-9.38-4.85-17.73-6.48-25.13c0,0,0.16-14.39,1.91-26.21
			C249.43,280.46,253.75,314.27,254.01,331.8z"/>
		<path class="st22" d="M203.47,217.85c0,0-5.97-9.51-7.2-15.6c0,0,1.65-2.87,1.13-4.66c-0.52-1.8-4.63-7.56-6.22-6.9
			c-1.6,0.66-4.47,4.04-4.01,5.84c0.45,1.8,4.75,6.25,4.75,6.25s3.39,14,6.62,17.72C201.77,224.23,203.47,217.85,203.47,217.85z"/>
		<path class="st17" d="M219.72,207.17c3.03-0.42,9.16,5.5,8.22,10.62c-0.93,5.12-9.51,19.52-16.12,18.4
			c-9.35-1.58-19.62-26.23-19.62-26.23l5.13-4.47c0,0,12.11,20.97,14.49,20.56C214.21,225.64,219.72,207.17,219.72,207.17z"/>
		<path class="st32" d="M219.72,207.17c3.03-0.42,9.16,5.5,8.22,10.62c-0.93,5.12-9.51,19.52-16.12,18.4
			c-9.35-1.58-19.62-26.23-19.62-26.23l5.13-4.47c0,0,12.11,20.97,14.49,20.56C214.21,225.64,219.72,207.17,219.72,207.17z"/>
		<polygon class="st17" points="190.1,208.45 197.59,203.96 198.78,205.9 191.71,212.15 		"/>
		<polygon class="st17" points="284.63,214.16 290.69,221.67 291.75,219.32 286.3,212.98 		"/>
		<g>
			<path class="st4" d="M287.66,204.01l9.59-11.68c0.33-0.4,0.94-0.44,1.32-0.08l4.27,4.03c0.34,0.32,0.38,0.86,0.08,1.23
				l-9.73,11.94c-0.34,0.42-0.98,0.45-1.35,0.05l-4.12-4.3C287.39,204.88,287.37,204.36,287.66,204.01z"/>
			<path class="st16" d="M287.66,204.01l9.59-11.68c0.33-0.4,0.94-0.44,1.32-0.08l4.27,4.03c0.34,0.32,0.38,0.86,0.08,1.23
				l-9.73,11.94c-0.34,0.42-0.98,0.45-1.35,0.05l-4.12-4.3C287.39,204.88,287.37,204.36,287.66,204.01z"/>
			<path class="st4" d="M287.27,203.54l9.59-11.68c0.33-0.4,0.94-0.44,1.32-0.08l4.27,4.03c0.34,0.32,0.38,0.86,0.08,1.23
				l-9.73,11.94c-0.34,0.42-0.98,0.45-1.35,0.05l-4.12-4.3C287,204.41,286.98,203.89,287.27,203.54z"/>
			<polygon class="st31" points="297.24,192.33 301.98,196.92 292.71,208.32 288.1,203.48 			"/>
		</g>
	</g>
</g>
</svg>
