<?xml version="1.0" encoding="utf-8"?>
<!-- Generator: Adobe Illustrator 24.3.0, SVG Export Plug-In . SVG Version: 6.00 Build 0)  -->
<svg version="1.1" xmlns="http://www.w3.org/2000/svg" xmlns:xlink="http://www.w3.org/1999/xlink" x="0px" y="0px"
	 viewBox="0 0 500 432" style="enable-background:new 0 0 500 432;" xml:space="preserve">
<g id="Floor">
	<path id="Floor_8_" style="fill:#F5F5F5;" d="M80.77,376.28c92.82,59.56,243.31,59.56,336.13,0c92.82-59.56,92.82-156.13,0-215.69
		c-92.82-59.56-243.31-59.56-336.14,0C-12.05,220.15-12.05,316.72,80.77,376.28z"/>
</g>
<g id="Plants">
	<g id="Plants_6_">
		<g id="XMLID_264_">
			<g id="XMLID_269_">
				<path id="XMLID_941_" style="fill:#DB8647;" d="M438.81,316.64l-4.63-2.65c0,0-2.22-12.24-0.56-22.77
					c2.34-14.8,12.41-19.9,16.07-18.43c3.66,1.47,4.52,5.85-2.09,14.4C443.7,292.24,438.69,302.91,438.81,316.64z"/>
			</g>
			<g id="XMLID_265_">
				<path id="XMLID_266_" style="fill:#FFFFFF;" d="M437.13,310.76c0.02,0,0.03,0,0.05,0c0.18-0.03,0.31-0.19,0.28-0.37
					c-1.91-13.85,3.66-29.03,9.92-35.15c0.13-0.13,0.13-0.34,0.01-0.47c-0.13-0.13-0.34-0.13-0.47-0.01
					c-6.37,6.23-12.05,21.65-10.11,35.71C436.83,310.64,436.97,310.76,437.13,310.76z"/>
			</g>
		</g>
		<g id="XMLID_253_">
			<g id="XMLID_262_">
				<path id="XMLID_263_" style="fill:#DB8647;" d="M451.66,324.06c0.73,0.42,2.24-0.5,2.82-0.89c0.99-0.66,1.79-1.6,2.32-2.67
					c0.62-1.24,0.78-2.56,0.58-3.93c-0.1-0.71-0.3-1.4-0.5-2.09c-0.19-0.68-0.39-1.35-0.58-2.03c-0.19-0.67-0.39-1.36-0.3-2.05
					c0.18-1.39,1.41-2.36,2.53-3.2c1.24-0.93,2.53-2.15,2.52-3.82c-0.01-1.29-0.67-2.49-1.47-3.5c-0.8-1.01-1.75-1.91-2.47-2.97
					c-0.52-0.77-0.93-1.67-0.84-2.6c0.05-0.57,0.29-1.11,0.57-1.62c0.59-1.09,1.37-2.08,1.78-3.25c0.41-1.17,0.35-2.62-0.56-3.46
					c-0.75-0.69-1.86-0.78-2.87-0.72c-0.94,0.06-1.85,0.48-2.67,0.94c-2.65,1.47-4.17,4.62-6.98,5.75
					c-1.09,0.44-2.27,0.53-3.41,0.83c-1.13,0.3-2.29,0.88-2.81,1.92c-1.03,2.06,0.88,4.61,0.16,6.8c-0.64,1.94-2.53,2.68-3.58,4.43
					c-0.46,0.76-0.57,1.65-0.49,2.54c0.13,1.51,0.35,2.61,1.07,4.29c0.6,1.38,2.35,3.86,2.35,3.86
					C438.85,316.68,451.55,324,451.66,324.06z"/>
			</g>
			<g id="XMLID_258_">
				<path id="XMLID_261_" style="fill:#FFFFFF;" d="M444.14,320.06C444.15,320.06,444.15,320.06,444.14,320.06
					c0.2-0.01,0.34-0.16,0.33-0.34c-0.55-13.11,5.63-27.59,10.12-31.79c0.13-0.12,0.14-0.33,0.02-0.47
					c-0.13-0.13-0.33-0.14-0.47-0.02c-4.58,4.29-10.89,19.01-10.33,32.3C443.82,319.92,443.97,320.06,444.14,320.06z"/>
			</g>
			<g id="XMLID_256_">
				<path id="XMLID_257_" style="fill:#FFFFFF;" d="M446.11,304.57c0.03,0,0.07,0,0.1-0.01c4.21-1.3,9.46-1.53,9.52-1.53
					c0.18-0.01,0.32-0.16,0.32-0.34c-0.01-0.18-0.15-0.33-0.34-0.32c-0.05,0-5.39,0.24-9.68,1.56c-0.17,0.05-0.27,0.24-0.22,0.41
					C445.84,304.48,445.97,304.57,446.11,304.57z"/>
			</g>
		</g>
	</g>
</g>
<g id="Arrows">
	<g id="Trails">
		<g>
			<polygon style="fill:#DB8647;" points="129.4,172.25 107.22,185.06 369.7,349.41 414.07,323.8 			"/>
			<polygon style="fill:#DB8647;" points="96.13,165.84 92.43,193.59 144.19,163.71 			"/>
		</g>
		<g id="XMLID_245_">
			<path id="XMLID_254_" style="fill:#DB8647;" d="M384.49,340.87l-33.27,19.21l-35.12-20.28c-35.94-20.75-81.23-34.92-130.97-40.97
				c-36.45-4.44-74.56-4.29-110.92,0.38l-6.1-15.1l22.69-3.51c40.46-6.26,83.51-6.93,124.51-1.94c50.91,6.2,97.27,20.7,134.06,41.94
				L384.49,340.87z"/>
			<polygon id="XMLID_260_" style="fill:#DB8647;" points="61.79,270.44 82.12,314.24 41.11,297.17 			"/>
		</g>
		<g id="XMLID_244_">
			<path id="XMLID_255_" style="fill:#DB8647;" d="M432.55,313.13l-33.27,19.21l-35.12-20.28c-36.79-21.24-61.91-48-72.64-77.4
				c-8.64-23.66-7.48-48.52,3.36-71.88l6.08-13.1l28.78-2.67c-10.59,22.82-11.73,47.11-3.28,70.23
				c10.49,28.72,35.03,54.87,70.97,75.62L432.55,313.13z"/>
			<polygon id="XMLID_259_" style="fill:#DB8647;" points="274.5,148.88 350.36,160.61 320.8,136.94 			"/>
		</g>
		<polygon id="XMLID_586_" style="fill:#DB8647;" points="340.13,353.68 377.1,375.03 458.43,328.07 421.46,306.72 		"/>
	</g>
</g>
<g id="Shadow">
	<ellipse id="Shadow_3_" style="opacity:0.1;" cx="385.52" cy="330.87" rx="38.97" ry="22.5"/>
	<path id="Shadow_1_" style="opacity:0.1;" d="M212.93,225.59c4.09,2.36,4.09,6.19,0,8.55c-4.09,2.36-10.72,2.36-14.81,0
		c-4.09-2.36-4.09-6.19,0-8.55S208.84,223.23,212.93,225.59z"/>
</g>
<g id="Question_Mark_1_">
	<g id="Question_Mark_3_">
		<path id="XMLID_11_" style="fill:#DB8647;" d="M218.9,138L218.9,138l-9.32-5.37l0,0c-2.22-1.29-5.39-1-9.47,1.36
			c-8.94,5.16-13.49,14.9-13.49,24.11c0,4.88,1.29,8.48,3.82,10.02l9.31,5.4l0,0c2.24,1.35,5.46,1.08,9.64-1.33
			c8.94-5.16,13.34-15.02,13.34-24.23C222.72,143.05,221.43,139.48,218.9,138z"/>
		<path id="XMLID_10_" style="fill:#DB8647;" d="M240.72,13.19l-9.48-5.45c-6.7-3.84-16.45-2.92-28.77,4.2
			C180.18,24.8,164.81,49.36,160.1,75.3l9.27,5.36l24.79-5.53c2.82-10.84,7.06-18.51,16.79-24.13c1.45-0.84,2.76-1.44,3.95-1.85
			c0.19,1.04,0.27,2.17,0.27,3.35c0,8.37-5.65,17.9-28.24,40.36v35.56l9.27,5.35l26.52-15.31V98.81
			c13.18-14.09,28.24-35.13,28.24-60.87C250.96,25.84,247.4,17.12,240.72,13.19z"/>
		<path id="XMLID_9_" style="fill:#DE955C;" d="M196.2,98.22c22.59-22.46,28.24-32,28.24-40.36c0-7.32-3.29-12.74-13.49-6.85
			c-9.73,5.62-13.96,13.29-16.79,24.13l-24.79,5.53c4.71-25.94,20.08-50.51,42.37-63.37c24.79-14.31,39.22-3.61,39.22,20.66
			c0,25.73-15.06,46.77-28.24,60.87v19.67l-26.52,15.31V98.22z"/>
		<path id="XMLID_8_" style="fill:#DE955C;" d="M195.89,163.45c0-9.21,4.55-18.94,13.49-24.11c8.79-5.07,13.34-0.59,13.34,8.62
			c0,9.21-4.39,19.06-13.34,24.23C200.44,177.35,195.89,172.65,195.89,163.45z"/>
		<path id="XMLID_7_" style="fill:#DB8647;" d="M224.45,57.86c0,8.37-5.65,17.9-28.24,40.37l-9.27-5.35
			c22.59-22.47,28.23-32,28.23-40.37c0-1.18-0.08-2.31-0.26-3.34C222.03,46.7,224.45,51.58,224.45,57.86z"/>
	</g>
</g>
<g id="Character">
	<g id="Character_4_">
		<g id="XMLID_503_">
			<g id="XMLID_585_">
				<path id="XMLID_587_" style="fill:#FFA8A7;" d="M400.76,174.9c3.93-0.93,8.24,1.86,10.77,8.03c2.53,6.17,7.58,21.89,8.63,26.01
					c0.47,1.85-13.53,18.18-13.03,17.93c0.15-0.08-4.56-7.97-4.56-7.97l6.8-10.46l-4.26-11.36L400.76,174.9z"/>
			</g>
			<g id="XMLID_541_">
				<g id="XMLID_583_">
					<path id="XMLID_584_" style="fill:#263238;" d="M409.82,321.04c0.53,0.2,0.67,1.22,0.75,3.23c0.06,1.53,0.39,4.19-1.4,4.72
						c-1.79,0.53-4.4,0.26-5.55-1.18c-1.43-1.79-2.39-3.37-4.43-5.56c-1.77-1.9-3.68-3.67-4.4-6.33c-0.65-2.41-0.11-3.45,1.53-4.15
						c2.26-0.96,5.8,2.18,7.57,2.68C405.42,314.87,409.28,320.84,409.82,321.04z"/>
				</g>
				<g id="XMLID_581_">
					<path id="XMLID_582_" style="fill:#FFA8A7;" d="M409.82,319.17v2.47c0,0-2.57,1.98-6.25,0.17c-0.11-0.24-0.65-5.01-0.65-5.01
						L409.82,319.17z"/>
				</g>
				<g id="XMLID_549_">
					<path id="XMLID_550_" style="fill:#263238;" d="M391.4,334.19c0,0,0.71,2.15,1.09,4.03c0.3,1.5,0.74,4,0.22,5.12
						c-0.52,1.13-2.57,1.85-5.74,1.83c-2.05-0.02-5.25,1.38-7.44,2.6c-2.26,1.26-4.71,1.27-7.11,0.99
						c-2.82-0.33-5.74-1.97-6.19-3.13c-0.46-1.17,0.13-1.73,6.77-4.56c0.06-0.03,7-3.16,10.22-6.71L391.4,334.19z"/>
				</g>
				<g id="XMLID_547_">
					<path id="XMLID_548_" style="fill:#FFA8A7;" d="M391.4,331.51c0,0-0.01,1.84,0,2.89s-1.23,2.61-4.44,2.5
						c-2.25-0.08-3.83-0.69-3.74-2.54v-2.67L391.4,331.51z"/>
				</g>
				<g id="XMLID_545_">
					<path id="XMLID_546_" style="fill:#37474F;" d="M412.25,284.87c-1.13-8.09-3.02-12.73-3.02-12.73s1.4-10.95,2.21-21.47
						c1.45-18.85,0.29-25.01-3.42-33.46c0,0-31.63-3.21-32.59,9.94c-1.2,16.37,0.39,48,0.83,53.79c0.43,5.78,0.97,8.39,3.02,20.47
						c1.56,9.19,3.96,30.27,3.96,30.27c4.2,2.27,8.18-0.17,8.18-0.17s2.59-26.32,2.31-32.99c-0.33-8.15-2.53-14.56-2.53-14.56
						s1.96-26.68,2.53-30.92c0,0,0.99,8.46,1.42,14.25c0.43,5.78,2.15,11.31,3.82,22.05c1.45,9.32,4.15,30.14,4.15,30.14
						c4.2,2.27,6.88-0.25,6.88-0.25S413.39,292.95,412.25,284.87z"/>
				</g>
			</g>
			<g id="XMLID_538_">
				<g id="XMLID_539_">
					<polygon id="XMLID_540_" style="fill:#FFA8A7;" points="384.57,170.64 386.05,182.86 396.8,181.89 395.57,168.33 					"/>
				</g>
			</g>
			<g id="XMLID_535_">
				<g id="XMLID_536_">
					<path id="XMLID_537_" style="fill:#DB8647;" d="M408.59,181.02c-1.18-3.22-5.2-6.79-9.33-6.03c-1.08,0.2-2.02,0.36-3.04,0.56
						c-0.09,2.82-5.4,4.27-10.69,2.57c-1.59,0.46-3.05,0.92-4.37,1.39c-3.78,1.35-5.3,7.63-5.39,18.14
						c-0.08,10.51-1.2,36.72-1.2,36.72l4.42,1.39l2.07-7.67l0.83,9.18c4.79,1.21,9.81,1.12,15.27-0.07
						c11.36-2.48,14.9-8.61,14.9-8.61s-1.4-9.51-8.1-19.87C409.66,193.58,410.34,185.79,408.59,181.02z"/>
				</g>
			</g>
			<polygon id="XMLID_490_" style="opacity:0.2;" points="375.69,202.89 382.38,195.29 375.53,208.97 			"/>
			<path id="XMLID_4_" style="fill:#FFA8A7;" d="M383.27,178.76c0,0-6.56,0.51-9.38,4.78c-2.82,4.26-13.83,20.02-13.83,20.02
				s-17.53-8.77-18.39-9.81c-0.86-1.04-0.38-3.14-0.14-4.3c0.24-1.16,0.63-3.73,0.89-4.45c0.45-1.26-1.41-0.92-2.51,0.26
				c-1.12,1.21-1.59,3.48-2.14,3.88c-0.55,0.4-4.72-4.4-6.74-6.71c-2.02-2.31-2.97-3.93-4.33-2.98c-0.98,0.69-0.35,2.06,1.1,4.05
				c1.45,1.98,1.66,2.2,1.87,2.63c0.17,0.35-0.36,0.64-0.57,0.83c-0.39,0.35-1.09,0.93-1.14,1.48c-0.03,0.3,0.03,0.61-0.05,0.9
				c-0.19,0.66-1.01,0.97-1.24,1.62c-0.17,0.47,0.02,0.99-0.08,1.48c-0.06,0.31-0.23,0.6-0.29,0.91c-0.11,0.62,0.24,1.22,0.65,1.7
				c1.42,1.69,3.37,2.34,5.23,3.37c1.55,0.86,3.15,1.23,4.93,2.03c1.78,0.79,22.85,16.95,26.13,15.14
				c3.28-1.81,19.72-20.95,19.72-20.95C388.54,185.72,383.27,178.76,383.27,178.76z"/>
			<g id="XMLID_504_">
				<g id="XMLID_533_">
					<path id="XMLID_534_" style="fill:#263238;" d="M378.53,155.57c0,0-4.2-4.74-1.14-9.54c3.61-5.66,10.56-6.63,18.8-4.42
						c4.08,1.1,9.8,5.43,10.31,13.27c0.39,6.04-16.46,10.5-16.07,14.64L378.53,155.57z"/>
				</g>
				<g id="XMLID_511_">
					<path id="XMLID_512_" style="fill:#F28F8F;" d="M376.22,157.41c0,0-2.29,3.67-1.97,4.04c0.32,0.37,1.85,0.74,1.85,0.74
						L376.22,157.41z"/>
				</g>
				<g id="XMLID_508_">
					<path id="XMLID_510_" style="fill:#FFA8A7;" d="M383.19,145.8c-2.28,1.26-6.23,3.58-7.03,12.14
						c-0.82,8.79,1.21,11.78,2.44,12.9c0.83,0.75,5,0.92,7.15,0.19c2.69-0.92,8.5-3.98,11.13-8.58c3.1-5.41,3.58-12.52-0.24-15.2
						C391.27,143.48,385.13,144.73,383.19,145.8z"/>
				</g>
				<g id="XMLID_506_">
					<path id="XMLID_507_" style="fill:#263238;" d="M382.52,146.18c0,0-1.8,8.05,0.75,13.03c0,0,1.33-3.16,4.04-2.33
						c2.72,0.83,2.57,4.43,0.5,6.33c-2.08,1.9-4.16,1-4.16,1s1.24,3.39,4.02,6.07c0,0,8.01,3.57,14.94-4.26
						c6.29-7.1,5.12-19.49-4.52-22.41C388.46,140.69,382.52,146.18,382.52,146.18z"/>
				</g>
				<path id="XMLID_616_" style="fill:#263238;" d="M383.65,164.21v11.03l12.93-1.77c5.69-0.78,9.92-5.64,9.92-11.37v-7.21
					l-10.26,6.57l-4.85,4.29l-4.91-0.4L383.65,164.21z"/>
				<path id="XMLID_615_" style="fill:#263238;" d="M376.27,142.75c-3.46,3.72-3.38,14.17,7,16.46l6.25-18.68
					C385.52,138.08,379.36,139.44,376.27,142.75z"/>
				<path id="XMLID_491_" style="fill:#263238;" d="M382.31,162.11c-1.07-0.35-1.65-1.51-1.29-2.58c0.35-1.07,1.51-1.65,2.58-1.29
					L382.31,162.11z"/>
			</g>
		</g>
		<path id="XMLID_493_" style="fill:#263238;" d="M393.72,253.03l0.6-6.39c0,0,4.64-0.45,9.65-3.65c0,0-2.05,3.29-7.69,4.79
			l-0.59,8.13l-0.35,13.33L393.72,253.03z"/>
	</g>
</g>
</svg>
