<svg width="500" height="500" viewBox="0 0 500 500" fill="none" xmlns="http://www.w3.org/2000/svg">
<g clip-path="url(#clip0_412_7587)">
<path d="M437.4 314.93C437.4 314.93 488.5 257.51 472.25 157.6C456 57.68 372.58 20.88 317.22 40.11C261.86 59.35 249.41 92.8 204.19 111.95C158.97 131.1 73.1299 117.94 30.1799 182.23C-12.7701 246.52 42.0599 353.06 111.85 419.86C181.64 486.67 359.8 444.84 437.4 314.93Z" fill="#92E3A9"/>
<path d="M437.4 314.93C437.4 314.93 488.5 257.51 472.25 157.6C456 57.68 372.58 20.88 317.22 40.11C261.86 59.35 249.41 92.8 204.19 111.95C158.97 131.1 73.1299 117.94 30.1799 182.23C-12.7701 246.52 42.0599 353.06 111.85 419.86C181.64 486.67 359.8 444.84 437.4 314.93Z" fill="#DDAA87"/>
<path d="M61.58 476.25H461.73" stroke="#263238" stroke-miterlimit="10"/>
<path d="M123.67 324.26L139.55 476.05" stroke="#263238" stroke-width="2" stroke-miterlimit="10"/>
<path d="M136.73 444.91L129.67 437.45" stroke="#263238" stroke-width="2" stroke-miterlimit="10"/>
<path d="M131.82 439.69C131.82 439.69 132.02 436.39 129.01 433.7C127.2 432.08 117.66 428.07 116.76 431.43C115.77 435.08 125.53 442.26 131.82 439.69Z" fill="#DB8647" stroke="#263238" stroke-miterlimit="10"/>
<path d="M131.82 439.69L122.74 434.03" stroke="#263238" stroke-width="0.5" stroke-miterlimit="10"/>
<path d="M138.5 461.88L131.45 454.42" stroke="#263238" stroke-width="2" stroke-miterlimit="10"/>
<path d="M133.59 456.66C133.59 456.66 133.79 453.36 130.78 450.67C128.97 449.05 119.43 445.04 118.53 448.4C117.54 452.05 127.3 459.22 133.59 456.66Z" fill="#DB8647" stroke="#263238" stroke-miterlimit="10"/>
<path d="M133.59 456.66L124.51 451" stroke="#263238" stroke-width="0.5" stroke-miterlimit="10"/>
<path d="M132.41 403.5L125.35 396.05" stroke="#263238" stroke-width="2" stroke-miterlimit="10"/>
<path d="M127.5 398.28C127.5 398.28 127.7 394.98 124.69 392.29C122.88 390.67 113.34 386.66 112.44 390.02C111.45 393.68 121.21 400.85 127.5 398.28Z" fill="#DB8647" stroke="#263238" stroke-miterlimit="10"/>
<path d="M127.5 398.28L118.42 392.63" stroke="#263238" stroke-miterlimit="10"/>
<path d="M134.18 420.47L127.12 413.02" stroke="#263238" stroke-width="2" stroke-miterlimit="10"/>
<path d="M129.27 415.25C129.27 415.25 129.47 411.95 126.46 409.26C124.65 407.64 115.11 403.63 114.21 406.99C113.22 410.64 122.98 417.82 129.27 415.25Z" fill="#DB8647" stroke="#263238" stroke-miterlimit="10"/>
<path d="M129.27 415.25L120.19 409.59" stroke="#263238" stroke-width="0.5" stroke-miterlimit="10"/>
<path d="M129.54 375.94L122.48 368.48" stroke="#263238" stroke-width="2" stroke-miterlimit="10"/>
<path d="M124.62 370.72C124.62 370.72 124.82 367.42 121.81 364.73C120 363.11 110.46 359.1 109.56 362.46C108.58 366.11 118.34 373.29 124.62 370.72Z" fill="#DB8647" stroke="#263238" stroke-miterlimit="10"/>
<path d="M124.62 370.72L115.54 365.06" stroke="#263238" stroke-width="0.5" stroke-miterlimit="10"/>
<path d="M126.65 348.26L119.59 340.8" stroke="#263238" stroke-width="2" stroke-miterlimit="10"/>
<path d="M121.73 343.03C121.73 343.03 121.93 339.73 118.92 337.04C117.11 335.42 107.57 331.41 106.67 334.77C105.69 338.43 115.45 345.6 121.73 343.03Z" fill="#DB8647" stroke="#263238" stroke-miterlimit="10"/>
<path d="M121.73 343.03L112.65 337.38" stroke="#263238" stroke-width="0.5" stroke-miterlimit="10"/>
<path d="M135.55 434.87L140.91 426.12" stroke="#263238" stroke-width="2" stroke-miterlimit="10"/>
<path d="M139.28 428.75C139.28 428.75 138.4 425.56 140.79 422.31C142.23 420.35 150.73 414.46 152.31 417.56C154.03 420.93 145.96 429.96 139.28 428.75Z" fill="#DB8647" stroke="#263238" stroke-miterlimit="10"/>
<path d="M139.28 428.75L147.45 420.93" stroke="#263238" stroke-width="0.5" stroke-miterlimit="10"/>
<path d="M130.89 390.22L136.25 381.47" stroke="#263238" stroke-width="2" stroke-miterlimit="10"/>
<path d="M134.62 384.09C134.62 384.09 133.74 380.9 136.13 377.65C137.57 375.69 146.07 369.8 147.65 372.9C149.37 376.27 141.3 385.31 134.62 384.09Z" fill="#DB8647" stroke="#263238" stroke-miterlimit="10"/>
<path d="M134.62 384.09L142.79 376.28" stroke="#263238" stroke-width="0.5" stroke-miterlimit="10"/>
<path d="M128.84 370.59L134.21 361.84" stroke="#263238" stroke-width="2" stroke-miterlimit="10"/>
<path d="M132.57 364.47C132.57 364.47 131.69 361.28 134.08 358.03C135.52 356.07 144.02 350.18 145.6 353.28C147.32 356.65 139.25 365.69 132.57 364.47Z" fill="#DB8647" stroke="#263238" stroke-miterlimit="10"/>
<path d="M132.57 364.47L140.74 356.66" stroke="#263238" stroke-width="0.5" stroke-miterlimit="10"/>
<path d="M125.84 341.83L131.2 333.08" stroke="#263238" stroke-width="2" stroke-miterlimit="10"/>
<path d="M129.57 335.7C129.57 335.7 128.69 332.51 131.08 329.26C132.52 327.3 141.02 321.41 142.6 324.51C144.32 327.88 136.25 336.92 129.57 335.7Z" fill="#DB8647" stroke="#263238" stroke-miterlimit="10"/>
<path d="M129.57 335.7L137.74 327.89" stroke="#263238" stroke-width="0.5" stroke-miterlimit="10"/>
<path d="M123.54 323.43C123.54 323.43 122.66 320.24 125.05 316.99C126.49 315.03 134.99 309.14 136.57 312.24C138.29 315.61 130.22 324.65 123.54 323.43Z" fill="#DB8647" stroke="#263238" stroke-miterlimit="10"/>
<path d="M123.54 323.43L131.72 315.62" stroke="#263238" stroke-width="0.5" stroke-miterlimit="10"/>
<path d="M124.01 323.77C124.01 323.77 120.75 324.31 117.77 321.59C115.97 319.95 111 310.88 114.25 309.64C117.79 308.28 125.92 317.26 124.01 323.77Z" fill="#DB8647" stroke="#263238" stroke-miterlimit="10"/>
<path d="M124.01 323.77L117.1 314.82" stroke="#263238" stroke-width="0.5" stroke-miterlimit="10"/>
<path d="M164.74 344.81L151.61 476.05" stroke="#263238" stroke-width="2" stroke-miterlimit="10"/>
<path d="M152.68 465.56L147.31 456.81" stroke="#263238" stroke-width="2" stroke-miterlimit="10"/>
<path d="M148.95 459.44C148.95 459.44 149.83 456.25 147.43 453C145.99 451.04 137.48 445.15 135.91 448.25C134.19 451.63 142.27 460.66 148.95 459.44Z" fill="#DB8647" stroke="#263238" stroke-miterlimit="10"/>
<path d="M148.95 459.44L141.23 452.03" stroke="#263238" stroke-width="0.5" stroke-miterlimit="10"/>
<path d="M156.98 424.15L151.61 415.4" stroke="#263238" stroke-width="2" stroke-miterlimit="10"/>
<path d="M153.24 418.03C153.24 418.03 154.12 414.84 151.72 411.59C150.28 409.63 141.77 403.74 140.2 406.84C138.49 410.22 146.56 419.25 153.24 418.03Z" fill="#DB8647" stroke="#263238" stroke-miterlimit="10"/>
<path d="M153.24 418.03L145.53 410.63" stroke="#263238" stroke-width="0.5" stroke-miterlimit="10"/>
<path d="M155.22 441.12L149.84 432.37" stroke="#263238" stroke-width="2" stroke-miterlimit="10"/>
<path d="M151.48 435C151.48 435 152.36 431.81 149.96 428.56C148.52 426.6 140.01 420.71 138.44 423.81C136.73 427.19 144.8 436.22 151.48 435Z" fill="#DB8647" stroke="#263238" stroke-miterlimit="10"/>
<path d="M151.48 435L143.76 427.6" stroke="#263238" stroke-miterlimit="10"/>
<path d="M159.84 396.59L154.47 387.84" stroke="#263238" stroke-width="2" stroke-miterlimit="10"/>
<path d="M156.1 390.47C156.1 390.47 156.98 387.28 154.58 384.03C153.14 382.07 144.63 376.18 143.06 379.28C141.35 382.65 149.42 391.68 156.1 390.47Z" fill="#DB8647" stroke="#263238" stroke-miterlimit="10"/>
<path d="M156.1 390.47L148.39 383.06" stroke="#263238" stroke-width="0.5" stroke-miterlimit="10"/>
<path d="M162.71 368.9L157.34 360.15" stroke="#263238" stroke-width="2" stroke-miterlimit="10"/>
<path d="M158.98 362.78C158.98 362.78 159.86 359.59 157.46 356.34C156.02 354.38 147.51 348.49 145.94 351.59C144.22 354.97 152.3 364 158.98 362.78Z" fill="#DB8647" stroke="#263238" stroke-miterlimit="10"/>
<path d="M158.98 362.78L151.26 355.38" stroke="#263238" stroke-width="0.5" stroke-miterlimit="10"/>
<path d="M153.59 455.49L160.64 448.03" stroke="#263238" stroke-width="2" stroke-miterlimit="10"/>
<path d="M158.5 450.27C158.5 450.27 158.3 446.97 161.31 444.28C163.12 442.66 172.65 438.64 173.56 442C174.54 445.65 164.79 452.83 158.5 450.27Z" fill="#DB8647" stroke="#263238" stroke-miterlimit="10"/>
<path d="M158.5 450.27L168.11 444.31" stroke="#263238" stroke-miterlimit="10"/>
<path d="M158.22 410.84L165.28 403.38" stroke="#263238" stroke-width="2" stroke-miterlimit="10"/>
<path d="M163.13 405.61C163.13 405.61 162.93 402.31 165.94 399.62C167.75 398 177.28 393.98 178.19 397.34C179.18 401 169.42 408.18 163.13 405.61Z" fill="#DB8647" stroke="#263238" stroke-miterlimit="10"/>
<path d="M163.13 405.61L172.74 399.65" stroke="#263238" stroke-miterlimit="10"/>
<path d="M160.26 391.21L167.31 383.75" stroke="#263238" stroke-width="2" stroke-miterlimit="10"/>
<path d="M165.17 385.99C165.17 385.99 164.97 382.69 167.98 380C169.79 378.38 179.32 374.36 180.23 377.72C181.21 381.37 171.46 388.55 165.17 385.99Z" fill="#DB8647" stroke="#263238" stroke-miterlimit="10"/>
<path d="M165.17 385.99L174.78 380.03" stroke="#263238" stroke-width="0.5" stroke-miterlimit="10"/>
<path d="M163.24 362.44L170.3 354.98" stroke="#263238" stroke-width="2" stroke-miterlimit="10"/>
<path d="M168.15 357.22C168.15 357.22 167.95 353.92 170.96 351.23C172.77 349.61 182.3 345.59 183.21 348.95C184.2 352.6 174.44 359.78 168.15 357.22Z" fill="#DB8647" stroke="#263238" stroke-miterlimit="10"/>
<path d="M168.15 357.22L177.76 351.26" stroke="#263238" stroke-width="0.5" stroke-miterlimit="10"/>
<path d="M164.78 343.97C164.78 343.97 164.58 340.67 167.59 337.98C169.4 336.36 178.93 332.34 179.84 335.7C180.83 339.36 171.07 346.54 164.78 343.97Z" fill="#DB8647" stroke="#263238" stroke-miterlimit="10"/>
<path d="M164.78 343.97L174.39 338.01" stroke="#263238" stroke-width="0.5" stroke-miterlimit="10"/>
<path d="M165.18 344.4C165.18 344.4 161.88 344.26 159.52 340.98C158.1 339.01 155.1 329.11 158.54 328.56C162.27 327.96 168.39 338.42 165.18 344.4Z" fill="#DB8647" stroke="#263238" stroke-miterlimit="10"/>
<path d="M165.18 344.4L160.26 334.22" stroke="#263238" stroke-miterlimit="10"/>
<path d="M147 284.05L146.03 476.28" stroke="#263238" stroke-width="2" stroke-miterlimit="10"/>
<path d="M147.15 444.37L140.9 436.22" stroke="#263238" stroke-width="2" stroke-miterlimit="10"/>
<path d="M142.8 438.66C142.8 438.66 143.34 435.4 140.63 432.41C139 430.61 129.93 425.63 128.68 428.88C127.32 432.42 136.28 440.56 142.8 438.66Z" fill="#DB8647" stroke="#263238" stroke-miterlimit="10"/>
<path d="M142.8 438.66L134.36 432.09" stroke="#263238" stroke-width="0.5" stroke-miterlimit="10"/>
<path d="M147.15 408.91L140.9 400.76" stroke="#263238" stroke-width="2" stroke-miterlimit="10"/>
<path d="M142.8 403.2C142.8 403.2 143.34 399.94 140.63 396.95C139 395.15 129.93 390.17 128.68 393.42C127.32 396.96 136.28 405.1 142.8 403.2Z" fill="#DB8647" stroke="#263238" stroke-miterlimit="10"/>
<path d="M142.8 403.2L134.36 396.63" stroke="#263238" stroke-width="0.5" stroke-miterlimit="10"/>
<path d="M147.15 367.28L140.9 359.13" stroke="#263238" stroke-width="2" stroke-miterlimit="10"/>
<path d="M142.8 361.57C142.8 361.57 143.34 358.31 140.63 355.32C139 353.52 129.93 348.54 128.68 351.79C127.32 355.33 136.28 363.47 142.8 361.57Z" fill="#DB8647" stroke="#263238" stroke-miterlimit="10"/>
<path d="M142.8 361.57L134.36 355" stroke="#263238" stroke-width="0.5" stroke-miterlimit="10"/>
<path d="M147.15 339.56L140.9 331.42" stroke="#263238" stroke-width="2" stroke-miterlimit="10"/>
<path d="M142.8 333.86C142.8 333.86 143.34 330.6 140.63 327.61C139 325.81 129.93 320.83 128.68 324.08C127.32 327.61 136.28 335.76 142.8 333.86Z" fill="#DB8647" stroke="#263238" stroke-miterlimit="10"/>
<path d="M142.8 333.86L134.36 327.29" stroke="#263238" stroke-width="0.5" stroke-miterlimit="10"/>
<path d="M147.15 311.73L140.9 303.58" stroke="#263238" stroke-width="2" stroke-miterlimit="10"/>
<path d="M142.8 306.03C142.8 306.03 143.34 302.77 140.63 299.78C139 297.98 129.93 293 128.68 296.25C127.32 299.78 136.28 307.93 142.8 306.03Z" fill="#DB8647" stroke="#263238" stroke-miterlimit="10"/>
<path d="M142.8 306.03L134.36 299.46" stroke="#263238" stroke-width="0.5" stroke-miterlimit="10"/>
<path d="M147.01 455.19L153.26 447.05" stroke="#263238" stroke-width="2" stroke-miterlimit="10"/>
<path d="M151.36 449.49C151.36 449.49 150.82 446.23 153.53 443.24C155.16 441.44 164.23 436.46 165.48 439.71C166.84 443.24 157.87 451.39 151.36 449.49Z" fill="#DB8647" stroke="#263238" stroke-miterlimit="10"/>
<path d="M151.36 449.49L160.3 442.57" stroke="#263238" stroke-width="0.5" stroke-miterlimit="10"/>
<path d="M147.01 398.8L153.26 390.65" stroke="#263238" stroke-width="2" stroke-miterlimit="10"/>
<path d="M151.36 393.1C151.36 393.1 150.82 389.84 153.53 386.85C155.16 385.05 164.23 380.07 165.48 383.32C166.84 386.85 157.87 395 151.36 393.1Z" fill="#DB8647" stroke="#263238" stroke-miterlimit="10"/>
<path d="M151.36 393.1L160.3 386.17" stroke="#263238" stroke-width="0.5" stroke-miterlimit="10"/>
<path d="M147.01 370.96L153.26 362.82" stroke="#263238" stroke-width="2" stroke-miterlimit="10"/>
<path d="M151.36 365.26C151.36 365.26 150.82 362 153.53 359.01C155.16 357.21 164.23 352.23 165.48 355.48C166.84 359.01 157.87 367.16 151.36 365.26Z" fill="#DB8647" stroke="#263238" stroke-miterlimit="10"/>
<path d="M151.36 365.26L160.3 358.34" stroke="#263238" stroke-miterlimit="10"/>
<path d="M147.01 334.17L153.26 326.03" stroke="#263238" stroke-width="2" stroke-miterlimit="10"/>
<path d="M151.36 328.47C151.36 328.47 150.82 325.21 153.53 322.22C155.16 320.42 164.23 315.44 165.48 318.69C166.84 322.22 157.87 330.37 151.36 328.47Z" fill="#DB8647" stroke="#263238" stroke-miterlimit="10"/>
<path d="M151.36 328.47L160.3 321.55" stroke="#263238" stroke-width="0.5" stroke-miterlimit="10"/>
<path d="M147.01 305.25L153.26 297.1" stroke="#263238" stroke-width="2" stroke-miterlimit="10"/>
<path d="M151.36 299.55C151.36 299.55 150.82 296.29 153.53 293.3C155.16 291.5 164.23 286.52 165.48 289.77C166.84 293.3 157.87 301.45 151.36 299.55Z" fill="#DB8647" stroke="#263238" stroke-miterlimit="10"/>
<path d="M151.36 299.55L160.3 292.62" stroke="#263238" stroke-width="0.5" stroke-miterlimit="10"/>
<path d="M146.64 286.72C146.64 286.72 146.1 283.46 148.81 280.47C150.44 278.67 159.51 273.69 160.76 276.94C162.12 280.47 153.15 288.62 146.64 286.72Z" fill="#DB8647" stroke="#263238" stroke-miterlimit="10"/>
<path d="M146.64 286.72L155.58 279.8" stroke="#263238" stroke-width="0.5" stroke-miterlimit="10"/>
<path d="M147.07 287.1C147.07 287.1 143.77 287.3 141.09 284.28C139.47 282.47 135.47 272.93 138.83 272.03C142.48 271.05 149.65 280.82 147.07 287.1Z" fill="#DB8647" stroke="#263238" stroke-miterlimit="10"/>
<path d="M147.07 287.1L141.13 277.49" stroke="#263238" stroke-width="0.5" stroke-miterlimit="10"/>
<path d="M401.04 476.25L395.26 409.62H258.41L250.85 476.25H401.04Z" fill="#263238" stroke="#263238" stroke-miterlimit="10"/>
<path d="M317.22 207.67C317.22 207.67 277.2 218.66 259.72 231.91C242.24 245.16 230.12 258.69 232.94 284.34C235.76 309.99 254.08 380.17 254.08 380.17C254.08 380.17 251.54 408.64 251.54 410.33C251.54 412.02 251.26 416.81 257.46 417.09C263.66 417.37 338.07 420.47 354.7 420.75C371.33 421.03 393.31 419.34 395.85 417.37C398.39 415.4 399.8 412.3 400.08 408.91C400.36 405.53 403.18 364.09 403.18 364.09L403.46 345.49C403.46 345.49 421.78 284.61 422.91 264.88C424.04 245.15 416.71 238.67 408.54 232.47C400.37 226.27 374.93 215.77 361.19 211.61C347.44 207.46 317.22 207.67 317.22 207.67Z" fill="#DB8647" stroke="#263238" stroke-miterlimit="10"/>
<path d="M327.09 302.27C325.05 329.72 321.44 380.32 321.76 388.98C322.2 400.98 317.32 404.53 317.32 408.97" stroke="#263238" stroke-miterlimit="10"/>
<path d="M328.42 284.56C328.42 284.56 328.06 289.24 327.51 296.62" stroke="#263238" stroke-miterlimit="10"/>
<path d="M346.28 319.82L348.84 350.02L363.17 349L346.28 319.82Z" fill="#263238" stroke="#263238" stroke-miterlimit="10"/>
<path d="M332.7 372.48C332.7 372.48 367.72 366.98 370.33 367.56C372.94 368.14 390.88 376.82 393.49 377.4C396.1 377.98 398.41 379.14 398.41 379.14L402.34 382.43L401.02 372.49C401.02 372.49 395.81 366.12 384.23 361.49C372.65 356.86 366.86 359.46 364.26 360.33C361.65 361.19 332.7 372.48 332.7 372.48Z" fill="#263238" stroke="#263238" stroke-miterlimit="10"/>
<path d="M278.88 346.07L369.92 345.79C369.92 345.79 399.23 342.97 400.36 342.69C401.49 342.41 413.04 345.51 414.17 346.35C415.3 347.2 415.3 349.73 414.73 352.27C414.17 354.81 414.17 354.81 414.17 354.81C414.17 354.81 415.02 359.32 415.02 361.29C415.02 363.26 412.77 363.83 412.48 364.67C412.2 365.52 414.17 368.62 411.92 370.59C409.67 372.56 409.67 372.56 409.67 372.56C409.67 372.56 409.39 377.92 408.26 379.32C407.13 380.73 403.75 383.27 402.34 382.42C400.93 381.57 401.49 379.32 401.49 377.91C401.49 376.5 400.93 375.09 399.24 375.09C397.55 375.09 397.27 376.5 388.53 374.24C379.79 371.99 370.21 364.37 369.36 364.09C368.51 363.81 292.13 384.38 269.58 387.2C247.03 390.02 245.06 386.92 244.21 383.25C243.36 379.59 241.96 370.85 241.96 370.85L238.01 353.66L278.88 346.07Z" fill="white" stroke="#263238" stroke-miterlimit="10"/>
<path d="M338.05 240.71C338.05 240.71 342.75 235.76 345.72 237.99C348.69 240.22 351.41 252.1 355.12 251.11C358.83 250.12 366.26 227.11 366.26 217.95C366.26 208.79 359.83 203.35 358.34 202.85C356.86 202.36 318.99 201.86 314.54 203.59C310.09 205.32 308.35 220.91 306.62 230.32C304.89 239.72 308.85 241.95 311.32 240.71C313.79 239.47 323.45 235.51 325.67 235.51C327.91 235.51 338.05 240.71 338.05 240.71Z" fill="#DB8647" stroke="#263238" stroke-miterlimit="10"/>
<path d="M363.4 188.54C363.4 188.54 359.85 206.08 358.47 210.41C357.09 214.74 347.04 227.95 344.48 230.7C341.92 233.45 334.43 247.05 332.46 247.45C330.49 247.84 324.97 229.32 324.97 229.32C324.97 229.32 317.88 217.1 316.5 213.95C315.12 210.8 312.95 201.54 312.95 201.54C312.95 201.54 324.58 211.59 336.99 209.42C349.4 207.25 355.71 194.84 355.71 194.84L363.4 188.54Z" fill="white" stroke="#263238" stroke-miterlimit="10"/>
<path d="M315.29 153.6C315.29 153.6 311.83 149.89 309.85 155.58C307.87 161.27 311.83 171.42 311.83 171.42L315.29 153.6Z" fill="white" stroke="#263238" stroke-miterlimit="10"/>
<path d="M315.91 142.04C315.91 142.04 310.2 182.63 310.2 184.99C310.2 187.35 308.62 195.24 310.99 200.36C313.35 205.48 320.45 211.79 326.16 212.58C331.87 213.37 343.11 212.19 349.41 207.26C355.72 202.33 363.01 191.69 363.01 191.69C363.01 191.69 370.89 190.51 376.01 188.34C381.13 186.17 385.07 181.25 384.88 176.12C384.68 171 381.53 167.06 381.53 167.06L378.57 161.54L386.45 146.76C386.45 146.76 381.92 138.29 367.34 130.21C352.76 122.13 339.75 119.57 333.65 119.57C327.54 119.57 319.86 122.13 317.69 127.06C315.52 131.99 315.91 142.04 315.91 142.04Z" fill="white" stroke="#263238" stroke-miterlimit="10"/>
<path d="M334.63 122.14C334.63 122.14 345.86 140.66 354.33 139.87C362.8 139.08 365.36 135.14 365.36 135.14L371.07 142.82C371.07 142.82 364.96 145.38 366.14 148.53C367.32 151.68 372.64 158.78 372.64 158.78L368.31 177.3C368.31 177.3 371.66 177.89 372.25 176.71C372.84 175.53 375.8 168.24 375.8 168.24C375.8 168.24 376.98 167.45 378.36 167.06C379.74 166.67 381.51 167.06 381.51 167.06C381.51 167.06 383.68 159.77 384.47 159.57C385.26 159.37 393.14 157.21 396.1 149.52C399.06 141.84 394.52 129.62 384.28 119.96C374.03 110.31 352.36 107.74 351.18 105.97C350 104.2 356.7 106.76 355.32 102.82C353.94 98.88 345.27 93.76 334.24 99.27C323.21 104.79 324.78 110.9 325.96 112.87C327.14 114.84 327.14 114.84 327.14 114.84C327.14 114.84 317.88 111.69 311.38 115.63C304.88 119.57 301.73 127.45 304.68 128.24C307.64 129.03 311.38 127.25 311.38 127.25C311.38 127.25 307.44 133.75 308.62 135.13C309.8 136.51 315.91 142.03 315.91 142.03C315.91 142.03 318.27 128.24 323.2 126.27C328.13 124.3 334.63 122.14 334.63 122.14Z" fill="#263238" stroke="#263238" stroke-miterlimit="10"/>
<path d="M331.08 148.74L332.86 154.46L322.81 173.37L333.45 177.51" stroke="#263238" stroke-miterlimit="10"/>
<path d="M329.11 146.57C329.11 146.57 324.38 142.83 320.44 143.81C316.5 144.8 318.86 145.39 321.62 146.37C324.39 147.36 329.9 149.92 329.11 146.57Z" fill="#263238" stroke="#263238" stroke-miterlimit="10"/>
<path d="M343.7 145.79C343.7 145.79 339.17 146.97 341.34 147.96C343.51 148.95 350.01 146.97 352.57 147.96C355.13 148.95 358.48 152.29 358.28 150.72C358.08 149.14 356.51 145.99 352.96 144.81C349.41 143.62 343.7 145.79 343.7 145.79Z" fill="#263238" stroke="#263238" stroke-miterlimit="10"/>
<path d="M326.51 155.32C326.16 156.75 325.2 157.74 324.35 157.54C323.5 157.34 323.1 156.01 323.44 154.58C323.79 153.15 324.75 152.16 325.6 152.36C326.45 152.57 326.85 153.89 326.51 155.32Z" fill="#263238"/>
<path d="M347.99 160.93C347.64 162.36 346.68 163.35 345.83 163.15C344.98 162.95 344.58 161.62 344.92 160.19C345.27 158.76 346.23 157.77 347.08 157.97C347.93 158.18 348.33 159.51 347.99 160.93Z" fill="#263238"/>
<path d="M316.7 179.87L324.78 185.19" stroke="#263238" stroke-miterlimit="10"/>
<path d="M399.8 227.68C399.8 227.68 427.7 238.39 433.06 254.46C438.42 270.53 431.65 290.82 428.83 299.28C426.01 307.74 408.54 340.71 405.72 348.61C402.9 356.5 398.67 366.09 398.67 366.09C398.67 366.09 394.72 342.41 384.01 327.76C373.3 313.1 370.76 299.86 370.76 299.86C370.76 299.86 390.21 265.47 395.28 254.76" fill="#DB8647"/>
<path d="M399.8 227.68C399.8 227.68 427.7 238.39 433.06 254.46C438.42 270.53 431.65 290.82 428.83 299.28C426.01 307.74 408.54 340.71 405.72 348.61C402.9 356.5 398.67 366.09 398.67 366.09C398.67 366.09 394.72 342.41 384.01 327.76C373.3 313.1 370.76 299.86 370.76 299.86C370.76 299.86 390.21 265.47 395.28 254.76" stroke="#263238" stroke-miterlimit="10"/>
<path d="M373.73 293.88C373.73 293.88 379.44 291.03 381.34 291.98C383.24 292.93 407.67 305.94 410.84 320.84C414.01 335.75 409.25 348.44 406.4 353.83C403.55 359.22 398.15 369.69 394.03 370.96C389.91 372.23 386.42 338.29 377.85 320.53C369.29 302.77 373.73 293.88 373.73 293.88Z" fill="#DB8647" stroke="#263238" stroke-miterlimit="10"/>
<path d="M383.17 277.57C383.17 277.57 388.24 260.38 390.22 253.61" stroke="#263238" stroke-miterlimit="10"/>
<path d="M332.27 216.52C332.27 216.52 324.39 205.49 318.28 198.2C312.17 190.91 305.87 186.57 303.7 187.17C301.53 187.76 300.74 189.93 302.12 192.49C303.5 195.05 310 200.77 311.18 202.34C312.36 203.92 314.14 209.63 314.14 209.63C314.14 209.63 308.43 210.02 307.44 211.21C306.45 212.39 305.08 215.54 305.08 215.54C305.08 215.54 303.11 216.53 302.12 218.1C301.13 219.68 301.13 220.07 300.94 220.86C300.74 221.65 297.98 223.03 298.18 226.57C298.38 230.12 301.73 235.24 302.91 237.6C304.09 239.96 312.76 250.41 314.34 252.18C315.92 253.95 324.98 269.72 327.34 275.04C329.7 280.36 352.56 342.03 359.26 351.29C365.96 360.55 378.37 369.42 385.07 372.57C391.77 375.72 396.5 370.4 399.65 363.7C402.8 357 405.56 343.6 399.45 328.23C393.34 312.86 381.32 299.66 372.06 291.78C362.8 283.9 345.46 264.19 343.49 260.65C341.52 257.1 338.96 249.22 338.96 249.22C338.96 249.22 344.08 234.25 344.48 230.7C344.87 227.15 342.9 220.85 343.49 218.09C344.08 215.33 346.45 209.81 347.43 207.45C348.42 205.09 351.76 201.14 349.99 199.37C348.22 197.6 340.93 199.76 338.36 203.9C335.81 208.05 332.27 216.52 332.27 216.52Z" fill="white" stroke="#263238" stroke-miterlimit="10"/>
<path d="M271.37 259.19C271.97 256.06 272.4 253.89 272.4 253.89Z" fill="#92E3A9"/>
<path d="M271.37 259.19C271.97 256.06 272.4 253.89 272.4 253.89" stroke="#263238" stroke-miterlimit="10"/>
<path d="M269.58 226.84C269.58 226.84 254.64 228.81 239.14 245.44C223.64 262.07 230.4 301.53 231.81 309.7C233.22 317.87 235.47 342.96 235.47 342.96L275.21 329.71C275.21 329.71 268.73 285.46 268.16 281.51C267.88 279.52 268.96 272.48 270.1 266.01" fill="#DB8647"/>
<path d="M269.58 226.84C269.58 226.84 254.64 228.81 239.14 245.44C223.64 262.07 230.4 301.53 231.81 309.7C233.22 317.87 235.47 342.96 235.47 342.96L275.21 329.71C275.21 329.71 268.73 285.46 268.16 281.51C267.88 279.52 268.96 272.48 270.1 266.01" stroke="#263238" stroke-miterlimit="10"/>
<path d="M231.53 334.23C231.53 334.23 235.48 355.37 237.45 356.5C239.42 357.63 270.15 349.17 273.53 348.61C276.91 348.05 278.89 348.89 278.89 346.07C278.89 343.25 276.07 330 274.38 327.75C272.69 325.5 236.05 330.29 232.95 331.13C229.84 331.97 231.53 334.23 231.53 334.23Z" fill="#DB8647" stroke="#263238" stroke-miterlimit="10"/>
<path d="M254.04 317.89C265.44 322.43 274.37 327.75 274.37 327.75C274.37 327.75 264.79 309.71 260.84 306.05" stroke="#263238" stroke-miterlimit="10"/>
<path d="M248.72 315.91C249.85 316.3 250.97 316.71 252.07 317.13" stroke="#263238" stroke-miterlimit="10"/>
<path d="M341.16 408.18C348.45 405.58 355.16 402.72 359.21 399.9" stroke="#263238" stroke-miterlimit="10"/>
<path d="M306.79 418.22C306.79 418.22 322.36 414.53 337.14 409.57" stroke="#263238" stroke-miterlimit="10"/>
<path d="M372.28 398.73C364.62 402.55 352.49 408.13 342.58 410.61" stroke="#263238" stroke-miterlimit="10"/>
<path d="M379.79 394.83C379.79 394.83 378.22 395.7 375.61 397.04" stroke="#263238" stroke-miterlimit="10"/>
<path d="M116.12 37.14C49.05 69.45 36.32 164.32 78.86 221.33C87.75 233.25 99.38 243.3 113.14 249.13C160.16 269.07 197.81 229.43 220.72 193.02C257.3 134.88 261.87 120.51 261.22 130.31C260.57 140.11 277.55 150.56 287.35 98.96C299.87 32.99 207.52 17.99 160.77 24.2C145.11 26.29 129.93 30.49 116.12 37.14Z" fill="#263238" stroke="#263238" stroke-miterlimit="10"/>
<path d="M281.686 157.12C285.619 150.018 285.354 142.347 281.092 139.987C276.831 137.627 270.188 141.471 266.254 148.573C262.321 155.675 262.587 163.346 266.848 165.706C271.109 168.066 277.752 164.222 281.686 157.12Z" fill="#263238" stroke="#263238" stroke-miterlimit="10"/>
<path d="M288.69 158.58C286.37 162.78 286.52 167.31 289.04 168.7C291.56 170.09 295.48 167.82 297.81 163.63C300.13 159.43 299.98 154.9 297.46 153.51C294.94 152.11 291.02 154.38 288.69 158.58Z" fill="#263238" stroke="#263238" stroke-miterlimit="10"/>
<path d="M119.98 30.96C52.91 63.27 40.18 158.14 82.72 215.15C91.61 227.07 103.24 237.12 117 242.95C164.02 262.89 201.67 223.25 224.58 186.84C261.16 128.7 265.73 114.33 265.08 124.13C264.43 133.93 281.41 144.38 291.21 92.77C303.73 26.8 211.38 11.8 164.63 18.01C148.97 20.11 133.79 24.31 119.98 30.96Z" fill="white" stroke="#263238" stroke-miterlimit="10"/>
<path d="M270.12 142.4C266.19 149.5 266.45 157.17 270.71 159.53C274.97 161.89 281.61 158.05 285.55 150.95C289.48 143.85 289.22 136.18 284.96 133.82C280.69 131.45 274.05 135.3 270.12 142.4Z" fill="white" stroke="#263238" stroke-miterlimit="10"/>
<path d="M292.56 152.4C290.24 156.6 290.39 161.13 292.91 162.52C295.43 163.91 299.35 161.64 301.68 157.45C304 153.25 303.85 148.72 301.33 147.33C298.81 145.93 294.88 148.2 292.56 152.4Z" fill="white" stroke="#263238" stroke-miterlimit="10"/>
<path d="M84.5699 102.45V89.24H92.6099C92.9999 87.03 93.5699 84.88 94.3199 82.82L87.3699 78.81L93.9799 67.37L100.95 71.39C102.38 69.69 103.95 68.12 105.65 66.69L101.63 59.73L113.07 53.13L117.09 60.08C119.15 59.33 121.3 58.76 123.51 58.37V50.33H136.72V58.37C138.93 58.76 141.08 59.33 143.14 60.08L147.15 53.13L158.59 59.73L154.57 66.7C156.27 68.13 157.84 69.7 159.27 71.4L166.23 67.38L172.84 78.82L165.89 82.84C166.64 84.9 167.21 87.05 167.6 89.26H175.64V102.47H167.6C167.21 104.68 166.64 106.83 165.89 108.89L172.84 112.9L166.24 124.34L159.27 120.32C157.84 122.02 156.27 123.59 154.57 125.02L158.59 131.98L147.15 138.58L143.13 131.63C141.07 132.38 138.92 132.95 136.71 133.34V141.38H123.5V133.34C121.29 132.95 119.14 132.38 117.08 131.63L113.07 138.58L101.63 131.98L105.65 125.01C103.95 123.58 102.38 122.01 100.95 120.31L93.9899 124.33L87.3899 112.89L94.3399 108.87C93.5899 106.81 93.0199 104.66 92.6299 102.45H84.5699ZM130.1 120.47C143.69 120.47 154.71 109.45 154.71 95.86C154.71 82.27 143.69 71.25 130.1 71.25C116.51 71.25 105.49 82.27 105.49 95.86C105.48 109.45 116.5 120.47 130.1 120.47Z" fill="#CCCCCC"/>
<path d="M103.31 180.08V169.34H109.85C110.17 167.54 110.63 165.79 111.24 164.12L105.59 160.86L110.96 151.56L116.62 154.83C117.78 153.45 119.06 152.17 120.44 151.01L117.17 145.35L126.47 139.98L129.73 145.63C131.41 145.02 133.15 144.56 134.95 144.24V137.7H145.69V144.24C147.49 144.56 149.24 145.02 150.91 145.63L154.17 139.98L163.47 145.35L160.2 151.01C161.58 152.17 162.86 153.45 164.02 154.83L169.68 151.56L175.05 160.86L169.4 164.12C170.01 165.8 170.47 167.54 170.79 169.34H177.33V180.08H170.79C170.47 181.88 170.01 183.63 169.4 185.3L175.05 188.56L169.68 197.86L164.02 194.59C162.86 195.97 161.58 197.25 160.2 198.41L163.47 204.07L154.17 209.44L150.91 203.79C149.23 204.4 147.49 204.86 145.69 205.18V211.72H134.95V205.18C133.15 204.86 131.4 204.4 129.73 203.79L126.47 209.44L117.17 204.07L120.44 198.41C119.06 197.25 117.78 195.97 116.62 194.59L110.96 197.86L105.59 188.56L111.24 185.3C110.63 183.62 110.17 181.88 109.85 180.08H103.31ZM140.33 194.73C151.38 194.73 160.34 185.77 160.34 174.72C160.34 163.67 151.38 154.71 140.33 154.71C129.28 154.71 120.32 163.67 120.32 174.72C120.32 185.77 129.27 194.73 140.33 194.73Z" fill="#CCCCCC"/>
<path d="M171.55 155.54V147.36H176.53C176.77 145.99 177.12 144.66 177.59 143.38L173.29 140.89L177.38 133.81L181.69 136.3C182.57 135.25 183.55 134.28 184.6 133.39L182.11 129.08L189.19 124.99L191.68 129.3C192.96 128.83 194.29 128.48 195.66 128.24V123.26H203.84V128.24C205.21 128.48 206.54 128.83 207.82 129.3L210.31 125L217.39 129.09L214.9 133.4C215.95 134.28 216.92 135.26 217.81 136.31L222.12 133.82L226.21 140.9L221.9 143.39C222.37 144.67 222.72 146 222.96 147.37H227.94V155.55H222.96C222.72 156.92 222.37 158.25 221.9 159.53L226.2 162.02L222.11 169.1L217.8 166.61C216.92 167.66 215.94 168.64 214.89 169.52L217.38 173.83L210.3 177.92L207.81 173.61C206.53 174.07 205.2 174.43 203.83 174.67V179.65H195.65V174.67C194.28 174.43 192.95 174.08 191.67 173.61L189.18 177.91L182.1 173.82L184.59 169.51C183.54 168.63 182.57 167.65 181.68 166.6L177.37 169.09L173.28 162.01L177.59 159.52C177.13 158.24 176.77 156.91 176.53 155.54H171.55ZM199.74 166.69C208.16 166.69 214.98 159.87 214.98 151.45C214.98 143.03 208.16 136.21 199.74 136.21C191.32 136.21 184.5 143.03 184.5 151.45C184.5 159.87 191.32 166.69 199.74 166.69Z" fill="#CCCCCC"/>
<path d="M200.68 79.87V71.69H205.66C205.9 70.32 206.25 68.99 206.72 67.71L202.42 65.22L206.51 58.14L210.82 60.63C211.7 59.58 212.68 58.61 213.73 57.72L211.24 53.41L218.32 49.32L220.81 53.63C222.09 53.16 223.42 52.81 224.79 52.57V47.59H232.97V52.57C234.34 52.81 235.67 53.16 236.95 53.63L239.44 49.33L246.52 53.42L244.03 57.73C245.08 58.61 246.05 59.59 246.94 60.64L251.25 58.15L255.34 65.23L251.03 67.72C251.49 69 251.85 70.33 252.09 71.7H257.07V79.88H252.09C251.85 81.25 251.5 82.58 251.03 83.86L255.33 86.35L251.24 93.43L246.93 90.94C246.05 91.99 245.07 92.97 244.02 93.85L246.51 98.16L239.43 102.25L236.94 97.94C235.66 98.4 234.33 98.76 232.96 99V103.98H224.78V99C223.41 98.76 222.08 98.41 220.8 97.94L218.31 102.24L211.23 98.15L213.72 93.84C212.67 92.96 211.7 91.98 210.81 90.93L206.5 93.42L202.41 86.34L206.72 83.85C206.25 82.57 205.9 81.24 205.66 79.87H200.68ZM228.87 91.03C237.29 91.03 244.11 84.21 244.11 75.79C244.11 67.37 237.29 60.55 228.87 60.55C220.45 60.55 213.63 67.37 213.63 75.79C213.63 84.21 220.46 91.03 228.87 91.03Z" fill="#CCCCCC"/>
</g>
<defs>
<clipPath id="clip0_412_7587">
<rect width="500" height="500" fill="white"/>
</clipPath>
</defs>
</svg>
