<svg width="20" height="21" viewBox="0 0 20 21" fill="none" xmlns="http://www.w3.org/2000/svg">
<path d="M3.16144 9.30724C3.16144 12.5713 5.80963 15.199 9.05314 15.199C12.2967 15.199 14.9449 12.5508 14.9449 9.30724C14.9449 6.06371 12.3172 3.39499 9.05314 3.39499C5.7891 3.39499 3.16144 6.04318 3.16144 9.30724ZM9.9564 4.70882V8.69138H8.14989V4.70882C8.43729 4.64724 8.74522 4.62671 9.05314 4.62671C9.36107 4.62671 9.669 4.64724 9.9564 4.70882ZM6.9387 5.13992V8.69138H4.43421C4.6395 7.1312 5.60434 5.81737 6.9387 5.13992ZM4.43421 8.71191V9.86151C4.41368 9.67675 4.39315 9.47147 4.39315 9.28671C4.39315 9.10195 4.39315 8.91719 4.43421 8.71191ZM4.43421 9.90257H6.9387V13.454C5.60434 12.7766 4.6395 11.4627 4.43421 9.90257ZM8.17041 13.8851V9.90257H9.97693V13.8851C9.68953 13.9467 9.3816 13.9672 9.07367 13.9672C8.74522 13.9672 8.45782 13.9467 8.17041 13.8851ZM11.1881 13.454V9.90257H13.6926C13.4873 11.4627 12.5225 12.7766 11.1881 13.454ZM13.6926 9.88204V8.73244C13.7131 8.91719 13.7337 9.12248 13.7337 9.30724C13.7337 9.49199 13.7337 9.69728 13.6926 9.88204ZM13.6926 8.69138H11.1881V5.13992C12.5225 5.81737 13.4873 7.1312 13.6926 8.69138Z" fill="black"/>
<path d="M9.09417 17.1492H9.07364C4.74211 17.1492 1.23172 13.6182 1.23172 9.30723C1.23172 4.99622 4.74211 1.46529 9.07364 1.44476H9.09417C9.42263 1.42423 9.6895 1.15736 9.6895 0.828902C9.6895 0.500444 9.42263 0.233572 9.09417 0.213043H9.07364C4.06466 0.233572 0 4.29824 0 9.30723C0 14.2957 4.06466 18.3604 9.05311 18.3809H9.07364C9.4021 18.3604 9.66897 18.0935 9.66897 17.765C9.66897 17.4366 9.42263 17.1697 9.09417 17.1492Z" fill="black"/>
<path d="M18.681 17.765H13.3846L12.3377 16.1227C12.1529 15.8353 11.7834 15.7532 11.496 15.938C11.2086 16.1227 11.1265 16.4923 11.3112 16.7797L12.7072 18.9762H15.0064L14.4932 19.5305C14.2674 19.7768 14.2879 20.1669 14.5342 20.3927C14.6574 20.4953 14.8011 20.5569 14.9448 20.5569C15.109 20.5569 15.2733 20.4953 15.3964 20.3516L16.6692 18.9762H18.681C19.0095 18.9762 19.2969 18.7093 19.2969 18.3604C19.2969 18.0319 19.0095 17.765 18.681 17.765Z" fill="black"/>
</svg>
