<svg width="500" height="432" viewBox="0 0 500 432" fill="none" xmlns="http://www.w3.org/2000/svg">
<path d="M80.7701 376.28C173.59 435.84 324.08 435.84 416.9 376.28C509.72 316.72 509.72 220.15 416.9 160.59C324.08 101.03 173.59 101.03 80.7601 160.59C-12.0499 220.15 -12.0499 316.72 80.7701 376.28Z" fill="#F5F5F5"/>
<path d="M438.81 316.64L434.18 313.99C434.18 313.99 431.96 301.75 433.62 291.22C435.96 276.42 446.03 271.32 449.69 272.79C453.35 274.26 454.21 278.64 447.6 287.19C443.7 292.24 438.69 302.91 438.81 316.64Z" fill="#DB8647"/>
<path d="M437.13 310.76C437.15 310.76 437.16 310.76 437.18 310.76C437.36 310.73 437.49 310.57 437.46 310.39C435.55 296.54 441.12 281.36 447.38 275.24C447.51 275.11 447.51 274.9 447.39 274.77C447.26 274.64 447.05 274.64 446.92 274.76C440.55 280.99 434.87 296.41 436.81 310.47C436.83 310.64 436.97 310.76 437.13 310.76Z" fill="white"/>
<path d="M451.66 324.06C452.39 324.48 453.9 323.56 454.48 323.17C455.47 322.51 456.27 321.57 456.8 320.5C457.42 319.26 457.58 317.94 457.38 316.57C457.28 315.86 457.08 315.17 456.88 314.48C456.69 313.8 456.49 313.13 456.3 312.45C456.11 311.78 455.91 311.09 456 310.4C456.18 309.01 457.41 308.04 458.53 307.2C459.77 306.27 461.06 305.05 461.05 303.38C461.04 302.09 460.38 300.89 459.58 299.88C458.78 298.87 457.83 297.97 457.11 296.91C456.59 296.14 456.18 295.24 456.27 294.31C456.32 293.74 456.56 293.2 456.84 292.69C457.43 291.6 458.21 290.61 458.62 289.44C459.03 288.27 458.97 286.82 458.06 285.98C457.31 285.29 456.2 285.2 455.19 285.26C454.25 285.32 453.34 285.74 452.52 286.2C449.87 287.67 448.35 290.82 445.54 291.95C444.45 292.39 443.27 292.48 442.13 292.78C441 293.08 439.84 293.66 439.32 294.7C438.29 296.76 440.2 299.31 439.48 301.5C438.84 303.44 436.95 304.18 435.9 305.93C435.44 306.69 435.33 307.58 435.41 308.47C435.54 309.98 435.76 311.08 436.48 312.76C437.08 314.14 438.83 316.62 438.83 316.62C438.85 316.68 451.55 324 451.66 324.06Z" fill="#DB8647"/>
<path d="M444.14 320.06C444.15 320.06 444.15 320.06 444.14 320.06C444.34 320.05 444.48 319.9 444.47 319.72C443.92 306.61 450.1 292.13 454.59 287.93C454.72 287.81 454.73 287.6 454.61 287.46C454.48 287.33 454.28 287.32 454.14 287.44C449.56 291.73 443.25 306.45 443.81 319.74C443.82 319.92 443.97 320.06 444.14 320.06Z" fill="white"/>
<path d="M446.11 304.57C446.14 304.57 446.18 304.57 446.21 304.56C450.42 303.26 455.67 303.03 455.73 303.03C455.91 303.02 456.05 302.87 456.05 302.69C456.04 302.51 455.9 302.36 455.71 302.37C455.66 302.37 450.32 302.61 446.03 303.93C445.86 303.98 445.76 304.17 445.81 304.34C445.84 304.48 445.97 304.57 446.11 304.57Z" fill="white"/>
<path d="M129.4 172.25L107.22 185.06L369.7 349.41L414.07 323.8L129.4 172.25Z" fill="#DB8647"/>
<path d="M96.1299 165.84L92.4299 193.59L144.19 163.71L96.1299 165.84Z" fill="#DB8647"/>
<path d="M384.49 340.87L351.22 360.08L316.1 339.8C280.16 319.05 234.87 304.88 185.13 298.83C148.68 294.39 110.57 294.54 74.21 299.21L68.11 284.11L90.8 280.6C131.26 274.34 174.31 273.67 215.31 278.66C266.22 284.86 312.58 299.36 349.37 320.6L384.49 340.87Z" fill="#DB8647"/>
<path d="M61.79 270.44L82.12 314.24L41.11 297.17L61.79 270.44Z" fill="#DB8647"/>
<path d="M432.55 313.13L399.28 332.34L364.16 312.06C327.37 290.82 302.25 264.06 291.52 234.66C282.88 211 284.04 186.14 294.88 162.78L300.96 149.68L329.74 147.01C319.15 169.83 318.01 194.12 326.46 217.24C336.95 245.96 361.49 272.11 397.43 292.86L432.55 313.13Z" fill="#DB8647"/>
<path d="M274.5 148.88L350.36 160.61L320.8 136.94L274.5 148.88Z" fill="#DB8647"/>
<path d="M340.13 353.68L377.1 375.03L458.43 328.07L421.46 306.72L340.13 353.68Z" fill="#DB8647"/>
<path opacity="0.1" d="M385.52 353.37C407.043 353.37 424.49 343.296 424.49 330.87C424.49 318.444 407.043 308.37 385.52 308.37C363.998 308.37 346.55 318.444 346.55 330.87C346.55 343.296 363.998 353.37 385.52 353.37Z" fill="black"/>
<path opacity="0.1" d="M212.93 225.59C217.02 227.95 217.02 231.78 212.93 234.14C208.84 236.5 202.21 236.5 198.12 234.14C194.03 231.78 194.03 227.95 198.12 225.59C202.21 223.23 208.84 223.23 212.93 225.59Z" fill="black"/>
<path d="M218.9 138L209.58 132.63C207.36 131.34 204.19 131.63 200.11 133.99C191.17 139.15 186.62 148.89 186.62 158.1C186.62 162.98 187.91 166.58 190.44 168.12L199.75 173.52C201.99 174.87 205.21 174.6 209.39 172.19C218.33 167.03 222.73 157.17 222.73 147.96C222.72 143.05 221.43 139.48 218.9 138Z" fill="#DB8647"/>
<path d="M240.72 13.19L231.24 7.74C224.54 3.9 214.79 4.82 202.47 11.94C180.18 24.8 164.81 49.36 160.1 75.3L169.37 80.66L194.16 75.13C196.98 64.29 201.22 56.62 210.95 51C212.4 50.16 213.71 49.56 214.9 49.15C215.09 50.19 215.17 51.32 215.17 52.5C215.17 60.87 209.52 70.4 186.93 92.86V128.42L196.2 133.77L222.72 118.46V98.81C235.9 84.72 250.96 63.68 250.96 37.94C250.96 25.84 247.4 17.12 240.72 13.19Z" fill="#DB8647"/>
<path d="M196.2 98.22C218.79 75.76 224.44 66.22 224.44 57.86C224.44 50.54 221.15 45.12 210.95 51.01C201.22 56.63 196.99 64.3 194.16 75.14L169.37 80.67C174.08 54.73 189.45 30.16 211.74 17.3C236.53 2.99002 250.96 13.69 250.96 37.96C250.96 63.69 235.9 84.73 222.72 98.83V118.5L196.2 133.81V98.22Z" fill="#DE955C"/>
<path d="M195.89 163.45C195.89 154.24 200.44 144.51 209.38 139.34C218.17 134.27 222.72 138.75 222.72 147.96C222.72 157.17 218.33 167.02 209.38 172.19C200.44 177.35 195.89 172.65 195.89 163.45Z" fill="#DE955C"/>
<path d="M224.45 57.86C224.45 66.23 218.8 75.76 196.21 98.23L186.94 92.88C209.53 70.41 215.17 60.88 215.17 52.51C215.17 51.33 215.09 50.2 214.91 49.17C222.03 46.7 224.45 51.58 224.45 57.86Z" fill="#DB8647"/>
<path d="M400.76 174.9C404.69 173.97 409 176.76 411.53 182.93C414.06 189.1 419.11 204.82 420.16 208.94C420.63 210.79 406.63 227.12 407.13 226.87C407.28 226.79 402.57 218.9 402.57 218.9L409.37 208.44L405.11 197.08L400.76 174.9Z" fill="#FFA8A7"/>
<path d="M409.82 321.04C410.35 321.24 410.49 322.26 410.57 324.27C410.63 325.8 410.96 328.46 409.17 328.99C407.38 329.52 404.77 329.25 403.62 327.81C402.19 326.02 401.23 324.44 399.19 322.25C397.42 320.35 395.51 318.58 394.79 315.92C394.14 313.51 394.68 312.47 396.32 311.77C398.58 310.81 402.12 313.95 403.89 314.45C405.42 314.87 409.28 320.84 409.82 321.04Z" fill="#263238"/>
<path d="M409.82 319.17V321.64C409.82 321.64 407.25 323.62 403.57 321.81C403.46 321.57 402.92 316.8 402.92 316.8L409.82 319.17Z" fill="#FFA8A7"/>
<path d="M391.4 334.19C391.4 334.19 392.11 336.34 392.49 338.22C392.79 339.72 393.23 342.22 392.71 343.34C392.19 344.47 390.14 345.19 386.97 345.17C384.92 345.15 381.72 346.55 379.53 347.77C377.27 349.03 374.82 349.04 372.42 348.76C369.6 348.43 366.68 346.79 366.23 345.63C365.77 344.46 366.36 343.9 373 341.07C373.06 341.04 380 337.91 383.22 334.36L391.4 334.19Z" fill="#263238"/>
<path d="M391.4 331.51C391.4 331.51 391.39 333.35 391.4 334.4C391.41 335.45 390.17 337.01 386.96 336.9C384.71 336.82 383.13 336.21 383.22 334.36V331.69L391.4 331.51Z" fill="#FFA8A7"/>
<path d="M412.25 284.87C411.12 276.78 409.23 272.14 409.23 272.14C409.23 272.14 410.63 261.19 411.44 250.67C412.89 231.82 411.73 225.66 408.02 217.21C408.02 217.21 376.39 214 375.43 227.15C374.23 243.52 375.82 275.15 376.26 280.94C376.69 286.72 377.23 289.33 379.28 301.41C380.84 310.6 383.24 331.68 383.24 331.68C387.44 333.95 391.42 331.51 391.42 331.51C391.42 331.51 394.01 305.19 393.73 298.52C393.4 290.37 391.2 283.96 391.2 283.96C391.2 283.96 393.16 257.28 393.73 253.04C393.73 253.04 394.72 261.5 395.15 267.29C395.58 273.07 397.3 278.6 398.97 289.34C400.42 298.66 403.12 319.48 403.12 319.48C407.32 321.75 410 319.23 410 319.23C410 319.23 413.39 292.95 412.25 284.87Z" fill="#37474F"/>
<path d="M384.57 170.64L386.05 182.86L396.8 181.89L395.57 168.33L384.57 170.64Z" fill="#FFA8A7"/>
<path d="M408.59 181.02C407.41 177.8 403.39 174.23 399.26 174.99C398.18 175.19 397.24 175.35 396.22 175.55C396.13 178.37 390.82 179.82 385.53 178.12C383.94 178.58 382.48 179.04 381.16 179.51C377.38 180.86 375.86 187.14 375.77 197.65C375.69 208.16 374.57 234.37 374.57 234.37L378.99 235.76L381.06 228.09L381.89 237.27C386.68 238.48 391.7 238.39 397.16 237.2C408.52 234.72 412.06 228.59 412.06 228.59C412.06 228.59 410.66 219.08 403.96 208.72C409.66 193.58 410.34 185.79 408.59 181.02Z" fill="#DB8647"/>
<path opacity="0.2" d="M375.69 202.89L382.38 195.29L375.53 208.97L375.69 202.89Z" fill="black"/>
<path d="M383.27 178.76C383.27 178.76 376.71 179.27 373.89 183.54C371.07 187.8 360.06 203.56 360.06 203.56C360.06 203.56 342.53 194.79 341.67 193.75C340.81 192.71 341.29 190.61 341.53 189.45C341.77 188.29 342.16 185.72 342.42 185C342.87 183.74 341.01 184.08 339.91 185.26C338.79 186.47 338.32 188.74 337.77 189.14C337.22 189.54 333.05 184.74 331.03 182.43C329.01 180.12 328.06 178.5 326.7 179.45C325.72 180.14 326.35 181.51 327.8 183.5C329.25 185.48 329.46 185.7 329.67 186.13C329.84 186.48 329.31 186.77 329.1 186.96C328.71 187.31 328.01 187.89 327.96 188.44C327.93 188.74 327.99 189.05 327.91 189.34C327.72 190 326.9 190.31 326.67 190.96C326.5 191.43 326.69 191.95 326.59 192.44C326.53 192.75 326.36 193.04 326.3 193.35C326.19 193.97 326.54 194.57 326.95 195.05C328.37 196.74 330.32 197.39 332.18 198.42C333.73 199.28 335.33 199.65 337.11 200.45C338.89 201.24 359.96 217.4 363.24 215.59C366.52 213.78 382.96 194.64 382.96 194.64C388.54 185.72 383.27 178.76 383.27 178.76Z" fill="#FFA8A7"/>
<path d="M378.53 155.57C378.53 155.57 374.33 150.83 377.39 146.03C381 140.37 387.95 139.4 396.19 141.61C400.27 142.71 405.99 147.04 406.5 154.88C406.89 160.92 390.04 165.38 390.43 169.52L378.53 155.57Z" fill="#263238"/>
<path d="M376.22 157.41C376.22 157.41 373.93 161.08 374.25 161.45C374.57 161.82 376.1 162.19 376.1 162.19L376.22 157.41Z" fill="#F28F8F"/>
<path d="M383.19 145.8C380.91 147.06 376.96 149.38 376.16 157.94C375.34 166.73 377.37 169.72 378.6 170.84C379.43 171.59 383.6 171.76 385.75 171.03C388.44 170.11 394.25 167.05 396.88 162.45C399.98 157.04 400.46 149.93 396.64 147.25C391.27 143.48 385.13 144.73 383.19 145.8Z" fill="#FFA8A7"/>
<path d="M382.52 146.18C382.52 146.18 380.72 154.23 383.27 159.21C383.27 159.21 384.6 156.05 387.31 156.88C390.03 157.71 389.88 161.31 387.81 163.21C385.73 165.11 383.65 164.21 383.65 164.21C383.65 164.21 384.89 167.6 387.67 170.28C387.67 170.28 395.68 173.85 402.61 166.02C408.9 158.92 407.73 146.53 398.09 143.61C388.46 140.69 382.52 146.18 382.52 146.18Z" fill="#263238"/>
<path d="M383.65 164.21V175.24L396.58 173.47C402.27 172.69 406.5 167.83 406.5 162.1V154.89L396.24 161.46L391.39 165.75L386.48 165.35L383.65 164.21Z" fill="#263238"/>
<path d="M376.27 142.75C372.81 146.47 372.89 156.92 383.27 159.21L389.52 140.53C385.52 138.08 379.36 139.44 376.27 142.75Z" fill="#263238"/>
<path d="M382.31 162.11C381.24 161.76 380.66 160.6 381.02 159.53C381.37 158.46 382.53 157.88 383.6 158.24L382.31 162.11Z" fill="#263238"/>
<path d="M393.72 253.03L394.32 246.64C394.32 246.64 398.96 246.19 403.97 242.99C403.97 242.99 401.92 246.28 396.28 247.78L395.69 255.91L395.34 269.24L393.72 253.03Z" fill="#263238"/>
</svg>
