<svg width="38" height="38" viewBox="0 0 38 38" fill="none" xmlns="http://www.w3.org/2000/svg">
<path d="M24.2177 19.6562C24.4052 19.4687 24.4989 19.25 24.4989 19C24.4989 18.75 24.4052 18.5312 24.2177 18.3437L18.9677 13.0937C18.6864 12.8125 18.3502 12.7425 17.9589 12.8837C17.5689 13.0237 17.3739 13.3125 17.3739 13.75L17.3739 24.25C17.3739 24.6875 17.5689 24.9762 17.9589 25.1162C18.3502 25.2575 18.6864 25.1875 18.9677 24.9062L24.2177 19.6562ZM37.9989 19C37.9989 21.5937 37.5064 24.0312 36.5214 26.3125C35.5377 28.5937 34.202 30.5781 32.5145 32.2656C30.827 33.9531 28.8427 35.2887 26.5614 36.2725C24.2802 37.2575 21.8427 37.75 19.2489 37.75C16.6552 37.75 14.2177 37.2575 11.9364 36.2725C9.65516 35.2887 7.67078 33.9531 5.98328 32.2656C4.29578 30.5781 2.95953 28.5937 1.97453 26.3125C0.990776 24.0312 0.498901 21.5937 0.498901 19C0.4989 16.4062 0.990775 13.9687 1.97453 11.6875C2.95953 9.40624 4.29578 7.42186 5.98328 5.73436C7.67078 4.04686 9.65515 2.71123 11.9364 1.72749C14.2177 0.742484 16.6552 0.249984 19.2489 0.249984C21.8427 0.249984 24.2802 0.742484 26.5614 1.72748C28.8427 2.71123 30.827 4.04686 32.5145 5.73436C34.202 7.42186 35.5377 9.40624 36.5214 11.6875C37.5064 13.9687 37.9989 16.4062 37.9989 19Z" fill="#F58840"/>
</svg>
