<?xml version="1.0" encoding="utf-8"?>
<!-- Generator: Adobe Illustrator 24.3.0, SVG Export Plug-In . SVG Version: 6.00 Build 0)  -->
<svg version="1.1" id="Layer_1" xmlns="http://www.w3.org/2000/svg" xmlns:xlink="http://www.w3.org/1999/xlink" x="0px" y="0px"
	 viewBox="0 0 240 241.2" style="enable-background:new 0 0 240 241.2;" xml:space="preserve">
<style type="text/css">
	.st0{fill-rule:evenodd;clip-rule:evenodd;fill:#FFFFFF;}
</style>
<path class="st0" d="M205,35c-22.4-22.5-52.8-35.1-84.5-35C54.6,0,1,53.6,1,119.5c0,21,5.5,41.6,16,59.7L0,241.2l63.4-16.6
	c17.5,9.5,37.1,14.6,57.1,14.6l0,0c66,0,119.6-53.5,119.6-119.5C240,87.9,227.4,57.5,205,35L205,35L205,35z M120.5,219
	c-17.8,0-35.3-4.8-50.6-13.9l-3.6-2.2l-37.6,9.9l10-36.7l-2.3-3.8C7.1,125.9,21,64.6,67.4,35.3c39.3-24.8,90.5-19,123.3,13.9
	c38.8,38.8,38.8,101.8,0,140.6C172.1,208.5,146.9,219,120.5,219L120.5,219z M175,144.5c-3-1.5-17.7-8.7-20.4-9.7s-4.7-1.5-6.8,1.5
	s-7.7,9.7-9.5,11.7s-3.5,2.3-6.4,0.8s-12.6-4.7-24-14.8c-6.5-6-12.2-13-16.7-20.7c-1.8-3-0.2-4.6,1.3-6.1s3-3.5,4.5-5.2
	c1.2-1.5,2.3-3.2,3-5c0.8-1.7,0.7-3.6-0.2-5.2C99,90.3,93,75.6,90.6,69.6s-4.9-5-6.7-5.1s-3.7-0.1-5.7-0.1c-3.1,0.1-6,1.4-8,3.7
	c-2.7,3-10.4,10.2-10.4,24.9s10.7,28.9,12.2,30.9S93,156.1,123,169c7.1,3.1,12.7,4.9,17,6.3c6.1,1.8,12.5,2.2,18.8,1.2
	c5.7-0.8,17.7-7.2,20.2-14.2s2.5-13,1.8-14.2S178,146.1,175,144.5L175,144.5L175,144.5z"/>
</svg>
