<svg width="21" height="22" viewBox="0 0 21 22" fill="none" xmlns="http://www.w3.org/2000/svg">
<path d="M11.3585 17.4497C11.3585 17.6524 11.2479 17.8368 11.082 17.9105V17.9289H12.3723H12.4276C13.0543 17.9289 13.5519 17.4128 13.4966 16.7861C13.4598 16.2516 13.0174 15.8092 12.4829 15.7724C11.8746 15.7355 11.3585 16.2332 11.3585 16.8414V16.8599V17.4497Z" fill="black"/>
<path d="M12.4275 19.1639L12.704 18.3713H12.1695L12.4275 19.1639Z" fill="black"/>
<path d="M13.0358 18.2607C13.0542 18.2238 12.8515 18.0764 12.8515 18.0764L12.446 19.2929L12.9252 18.7768L12.7225 18.574C12.704 18.5556 13.0174 18.2791 13.0358 18.2607Z" fill="white"/>
<path d="M12.4275 19.2745L12.022 18.0764C12.022 18.0764 11.8008 18.2238 11.8377 18.2607C11.8561 18.2791 12.151 18.5556 12.151 18.5556L11.9483 18.7584L12.4275 19.2745Z" fill="white"/>
<path d="M4.85199 8.60232C4.85199 9.63451 5.69986 10.4824 6.73205 10.4824C7.76424 10.4824 8.61211 9.63451 8.61211 8.60232C8.61211 7.57013 7.76424 6.72226 6.73205 6.72226C5.69986 6.72226 4.85199 7.57013 4.85199 8.60232Z" fill="black"/>
<path d="M6.52929 11.5514L6.30811 11.1644L6.51086 11.5514H6.52929Z" fill="black"/>
<path d="M6.95326 11.5514L7.17444 12.9891H7.43249L7.83799 10.851C7.80113 10.851 7.76427 10.851 7.70897 10.851H5.75518C5.71832 10.851 5.68146 10.851 5.62616 10.851L6.03166 12.9891H6.28971L6.51089 11.5514L6.28971 11.1644H7.13758L6.95326 11.5514Z" fill="white"/>
<path d="M6.51086 11.5514L6.28967 12.9891H7.17441L6.95322 11.5514L7.15597 11.1644H6.3081L6.52929 11.5514H6.51086Z" fill="black"/>
<path d="M16.372 10.0585C18.3995 10.0585 20.0584 8.39958 20.0584 6.37206C20.0584 4.34454 18.3995 2.68566 16.372 2.68566C14.3445 2.68566 12.6856 4.34454 12.6856 6.37206C12.6856 6.64854 12.7224 6.90659 12.7777 7.16463L11.1189 7.75446C10.3632 6.09558 8.68585 4.95279 6.75049 4.95279C4.09629 4.95279 1.93975 7.10934 1.93975 9.76355C1.92132 12.4178 4.07786 14.5743 6.73206 14.5743C7.54307 14.5743 8.29878 14.3715 8.96233 14.0213L10.2341 15.4222L10.2157 15.4406C9.66274 16.0489 9.42313 16.823 9.49686 17.634C9.62588 18.9795 10.6949 20.0486 12.0405 20.1776C12.1326 20.1961 12.2248 20.1961 12.3354 20.1961C13.128 20.1961 13.9021 19.8643 14.4366 19.256C14.9896 18.6478 15.2476 17.8736 15.1555 17.0626C15.0264 15.7171 13.9574 14.648 12.6119 14.519C11.9483 14.4637 11.3032 14.6296 10.7687 14.9798L9.57058 13.6527C10.7687 12.768 11.5428 11.3671 11.5428 9.78198C11.5428 9.32118 11.4691 8.86038 11.3401 8.43644L12.9805 7.86505C13.5519 9.13686 14.8606 10.0585 16.372 10.0585ZM16.372 3.38607C18.0124 3.38607 19.358 4.73161 19.358 6.37206C19.358 8.01251 18.0124 9.35804 16.372 9.35804C14.7315 9.35804 13.386 8.03094 13.386 6.37206C13.386 4.73161 14.7315 3.38607 16.372 3.38607ZM12.704 18.5556L12.9068 18.7584L12.4275 19.2745L11.9483 18.7584L12.1511 18.5556C12.1511 18.5556 11.8377 18.2791 11.8377 18.2607C11.8193 18.2238 12.022 18.0764 12.022 18.0764L12.4275 19.2929L12.833 18.0764C12.833 18.0764 13.0542 18.2238 13.0174 18.2607C13.0174 18.2791 12.704 18.5556 12.704 18.5556ZM12.1695 18.3713H12.704L12.446 19.1639L12.1695 18.3713ZM12.3169 15.201C12.3907 15.201 12.4644 15.201 12.5381 15.2194C13.5519 15.3116 14.3445 16.1226 14.4551 17.1363C14.5104 17.7077 14.3445 18.2423 13.9943 18.6846C13.8468 18.2976 13.4782 18.0395 13.0542 18.0395H11.8009C11.3032 18.0395 10.8793 18.4082 10.8055 18.869C10.4738 18.5372 10.2341 18.0764 10.1788 17.5787C10.1235 16.9705 10.3079 16.3806 10.7134 15.9198C11.1373 15.459 11.7271 15.201 12.3169 15.201ZM7.43248 12.9891H7.17443H6.2897H6.03165L5.62615 10.851C5.66301 10.851 5.69987 10.851 5.75517 10.851H7.72739C7.76425 10.851 7.80112 10.851 7.85641 10.851L7.43248 12.9891ZM9.58902 12.6574V12.4362C9.58902 11.4593 8.79644 10.6667 7.81955 10.6667H5.64458C4.66768 10.6667 3.87511 11.4593 3.87511 12.4362V12.6574C3.1194 11.9201 2.6586 10.8879 2.6586 9.76355C2.6586 7.51484 4.48336 5.69007 6.73206 5.69007C8.98076 5.69007 10.8055 7.51484 10.8055 9.76355C10.8055 10.8879 10.3447 11.9201 9.58902 12.6574Z" fill="black"/>
<mask id="mask0_24_102" style="mask-type:luminance" maskUnits="userSpaceOnUse" x="13" y="3" width="7" height="7">
<path d="M16.372 9.81883C18.0923 9.81883 19.487 8.42419 19.487 6.70382C19.487 4.98345 18.0923 3.58881 16.372 3.58881C14.6516 3.58881 13.257 4.98345 13.257 6.70382C13.257 8.42419 14.6516 9.81883 16.372 9.81883Z" fill="white"/>
</mask>
<g mask="url(#mask0_24_102)">
<path d="M17.6438 6.77755C18.112 6.77755 18.4916 6.39794 18.4916 5.92967C18.4916 5.46141 18.112 5.0818 17.6438 5.0818C17.1755 5.0818 16.7959 5.46141 16.7959 5.92967C16.7959 6.39794 17.1755 6.77755 17.6438 6.77755Z" fill="black"/>
<path d="M17.6438 10.0769C18.5803 10.0769 19.3395 9.35893 19.3395 8.47329C19.3395 7.58766 18.5803 6.86971 17.6438 6.86971C16.7073 6.86971 15.9481 7.58766 15.9481 8.47329C15.9481 9.35893 16.7073 10.0769 17.6438 10.0769Z" fill="black"/>
<path d="M15.5794 6.5195C16.18 6.5195 16.6669 6.03261 16.6669 5.43201C16.6669 4.83141 16.18 4.34452 15.5794 4.34452C14.9788 4.34452 14.4919 4.83141 14.4919 5.43201C14.4919 6.03261 14.9788 6.5195 15.5794 6.5195Z" fill="black"/>
<path d="M15.5794 9.96628C16.7806 9.96628 17.7544 9.24008 17.7544 8.34426C17.7544 7.44845 16.7806 6.72225 15.5794 6.72225C14.3782 6.72225 13.4044 7.44845 13.4044 8.34426C13.4044 9.24008 14.3782 9.96628 15.5794 9.96628Z" fill="black"/>
</g>
</svg>
