<?xml version="1.0" encoding="utf-8"?>
<!-- Generator: Adobe Illustrator 24.3.0, SVG Export Plug-In . SVG Version: 6.00 Build 0)  -->
<svg version="1.1" id="Layer_1" xmlns="http://www.w3.org/2000/svg" xmlns:xlink="http://www.w3.org/1999/xlink" x="0px" y="0px"
	 viewBox="0 0 2751.7 1193.9" style="enable-background:new 0 0 2751.7 1193.9;" xml:space="preserve">
<style type="text/css">
	.st0{fill:#FFFFFF;}
	.st1{fill:#232323;}
</style>
<g>
	<path class="st0" d="M2738.8,188.6l5.6-8.6c1.7-2.5,0.9-6-1.6-7.7s-6-0.9-7.7,1.6l-0.5,0.8l-8.6-29.8l5.6-8.6
		c1.7-2.5,0.9-6-1.6-7.7s-6-0.9-7.7,1.6l-0.5,0.8l-10.2-35.4c15.8-22.7,28.4-40.8,31.2-45c11-16.9,2.2-37.2-0.3-38.7
		C2740,10,2718.1,10,2707,27c-2.8,4.2-14.3,22.9-28.8,46.6l-36.5,4.7l0.5-0.8c1.7-2.5,0.9-6-1.6-7.7s-6-0.9-7.7,1.6l-5.6,8.6
		l-30.9,4.1l0.5-0.8c1.7-2.5,0.9-6-1.6-7.7s-6-0.9-7.7,1.6l-5.6,8.6l-47.7,6.3l-8.3,12.7l90.8,6.9l28.7,14.7
		c-16.5,30.9-42.8,77.8-42.8,77.8l-47.7,4.2l-5.6,8.6l37.8,13.6c-2.8,4.9-0.8,8-0.8,8c-5.2,7.8-1.1,13-1.1,13s6.4,1.6,11.4-6.3
		c0,0,3.8,0.6,7.1-3.9l27.6,29.2l5.6-8.6l-15.2-45.3c0,0,32.5-42.8,54.2-70.4l25.1,20.4l42.5,80.6l8.3-12.7L2738.8,188.6z"/>
</g>
<g>
	<path class="st0" d="M2564.4,288.6L2564.4,288.6L2564.4,288.6c-0.8-0.3-1.6-0.2-2.2,0.5c-77.1,113.8-157.4,225.1-243.8,331.6
		c-2.5,3-5,6.3-7.7,9.2c-0.3,0.5-0.9,1.3-1.4,1.7c-83.4,102.5-172.3,200.5-269.2,287.7c-2.8,2.5-5.5,5-8.5,7.5
		c-19,17.1-38.6,33.6-58.3,49.2c-29.5,23.7-59.7,45.8-90.8,65.5c-54.9,34.5-114.3,62.7-171.8,65.2c-28.5,1.7-55.3-4.5-80.4-16.5
		c-37.5-17.9-77.4-55.8-96.3-93.1c-14.3-28.2,0-63.3,6.3-92.7c6.9-32.6,13.8-65.2,20.7-97.7c9.4-44.2,18.8-88.3,28.2-132.5H2186
		l9.4-44.7h-774.8l-9.4,44.7h126.4c-9.2,43.4-18.5,86.7-27.6,130.1c-5.8,27.6-12.2,55.2-17.7,82.9c-5.5,28.5-21,62.7-22.7,93.8
		c0,0.2,0,0.3,0,0.5c0,1.1-0.2,2.2-0.2,3.3c0,0.3,0,0.6,0,0.8c0,0.9,0,1.9,0,3c0,0.3,0,0.6,0,1.1c0,0.9,0,1.9,0.2,2.8
		c0,0.3,0,0.8,0,1.1c0,0.9,0.2,1.9,0.3,2.8c0,0.3,0,0.6,0.2,0.9c0.2,1.1,0.3,2.2,0.5,3.1c0,0.2,0,0.3,0.2,0.5
		c0.2,1.3,0.5,2.5,0.8,3.8c1.1,4.4,2.5,8.6,4.4,12.9c2.8,6.1,6.3,12.1,9.9,17.9c0.5,0.8,1.1,1.7,1.6,2.5c3.3,5.2,6.7,10.3,10.2,15.4
		c7.7,11.3,15.8,22.4,24.6,33.2c21.2,26.2,45.5,50,73.8,66.8c16.5,9.7,34.6,17.1,53.3,22.1c18.7,4.9,37.8,7.4,56.6,7.2
		c0.2,0,0.2,0,0.3,0c0.5,0,0.9,0,1.4,0c2,0,4.1-0.2,6.1-0.2c2-0.2,4.1-0.2,6.1-0.3c38.1-2.5,73.8-12.7,106.6-26.2
		c4.1-1.6,8-3.3,11.9-5.2c7.1-3.1,14.1-6.6,20.9-10c22.3-11.4,43.3-24.3,63.7-37.9c15.7-10.5,30.9-21.6,45.6-33.2
		c24.8-19.3,48.3-39.8,71-61.1c15.2-14.4,30.1-29.2,44.5-44.1c29.6-30.9,57.9-62.4,85.1-94.8c32.9-38.9,64.4-78.5,95-119
		c27.6-36.4,54.2-73.4,80.4-110.7c2.4-3.4,4.9-7.1,7.2-10.3c22.9-32.8,45.2-66,67.1-99.4c0.6-0.9,1.3-1.9,1.9-2.8
		c13-19.8,25.7-39.8,38.4-59.7c37-58.3,72.6-117.3,105.5-177.6C2565.2,289.9,2565.1,289,2564.4,288.6z"/>
</g>
<path class="st1" d="M-0.1,910.9l24.6-45.8c26,21,64.1,34,102.2,34c45.8,0,75.3-16.6,75.3-44.4c0-58.3-158.2-27.7-158.2-128.6
	c0-61.9,55.5-101.3,136.7-101.3c40.3,0,78.4,9.4,104.9,26.5l-22.9,46.1c-23.4-15.7-53.8-24.1-85.1-24.1c-47.5,0-75.7,19.3-75.7,46.6
	c0,58.8,158.2,30.1,158.2,125.9c0,62.2-56,101.7-138.4,101.7C72,947.7,24.5,932-0.1,910.9z"/>
<path class="st1" d="M821.9,629.5L655.5,943.2h-62.2l-31.4-230l-125.4,230h-62.2l-41.2-313.7H391L421.9,868l128.7-238.5h54.2
	l30.9,240.7l128.7-240.7H821.9L821.9,629.5z"/>
<path class="st1" d="M917.4,678.4l-16.1,81.5h151.9l-9.4,48H891.3l-17.1,86.5h177.5l-9.9,48.9H806.5l62.7-313.7h229.1l-9.9,48.9
	h-171V678.4z"/>
<path class="st1" d="M1217.6,678.4l-16.1,81.5h151.9l-9.4,48h-152.4l-17.1,86.5H1352l-9.9,48.9h-235.3l62.7-313.7h229.1l-9.9,48.9
	h-171L1217.6,678.4L1217.6,678.4z"/>
<path class="st0" d="M1782.7,812.9c0-35.4-25.9-56.3-70.9-56.3h-72.4l-37.3,186.6h35l10.7-54.6h46.4l30.6,54.6h36.8l-33.2-59.1
	C1762.9,874.5,1783.1,849.1,1782.7,812.9z M1695,860.1h-41.2l14.9-74.2h39.7c25.3,0,39.7,9.9,39.7,30.1
	C1748.1,844.9,1728.7,860.1,1695,860.1z"/>
<path class="st0" d="M1834.5,756.6h34.6l-37.3,186.6h-34.6L1834.5,756.6z"/>
<path class="st0" d="M1991.3,756.6h-72L1882,943.2h34.7l11-53.8h45.6c54.8,0,89-28.8,89-76.5
	C2062.3,777.5,2036.6,756.6,1991.3,756.6z M1974.7,860.1h-41.1l14.7-74.2h39.5c25.3,0,39.7,9.9,39.7,30.1
	C2027.5,844.9,2008.2,860.1,1974.7,860.1z"/>
</svg>
