<?xml version="1.0" encoding="utf-8"?>
<!-- Generator: Adobe Illustrator 24.3.0, SVG Export Plug-In . SVG Version: 6.00 Build 0)  -->
<svg version="1.1" id="Layer_1" xmlns="http://www.w3.org/2000/svg" xmlns:xlink="http://www.w3.org/1999/xlink" x="0px" y="0px"
	 viewBox="0 0 383 54.3" style="enable-background:new 0 0 383 54.3;" xml:space="preserve">
<style type="text/css">
	.st0{fill:#454691;}
	.st1{fill:#232323;}
</style>
<path class="st0" d="M318.1,4.9c2.1,0,1.3-0.8,1.6-0.9c-1.8,0.1-2.1,0.4-2.1,0.6C317.7,4.8,318.2,5,318.1,4.9"/>
<path class="st0" d="M286,6.1l0.6-0.3l-2.3,0.3c-1.2,0.2-2.4,0.3-2.4,0.3s1.1-0.1,2.1-0.2C285,6.2,286,6.1,286,6.1"/>
<path class="st0" d="M255.7,5.5c2.9,1.4,11-0.2,16.4,0.4l0.9,0.3l2.5-1.1C268.9,5.1,260.3,5.9,255.7,5.5"/>
<path class="st0" d="M239.6,2.5c1,0.6-3.5,0.5,3.7,0.2c-0.4-0.1-0.5-0.1-0.7-0.1C242,2.5,241.1,2.5,239.6,2.5"/>
<path class="st0" d="M242.7,2.5C245.8,2.4,240.6,2,242.7,2.5"/>
<path class="st0" d="M228,2.8l4.2-0.5c-0.9-0.3-4.6-0.4-3.2-0.6C224.6,2,225.5,2.3,228,2.8"/>
<path class="st0" d="M224,3.9l2.2-0.2C225.8,3.5,225.2,3.5,224,3.9"/>
<path class="st0" d="M230.8,3.2l-4.6,0.5c0.6,0.2,0.7,0.7,2.1-0.2C227.9,3.9,228.8,3.5,230.8,3.2"/>
<path class="st0" d="M233.4,3.4c2.4,0.3,5.4,0.5,1.2,1C242.6,4.2,241.4,3.2,233.4,3.4"/>
<path class="st0" d="M254.2,7l3.1,0.4l2.7-0.5C258.7,7.1,254,6.5,254.2,7"/>
<path class="st1" d="M201.7,2.5c-0.3,0.3,1.4,0.8,1.8,1.1l3.1-0.4C205,3.1,201.9,3,201.7,2.5"/>
<path class="st1" d="M203.5,3.7l-4.6,0.7C203,4.3,203.7,4,203.5,3.7"/>
<polygon class="st0" points="223.2,5.5 230.9,4.3 221.8,5.5 "/>
<polygon class="st1" points="184,3.2 186.5,2.4 181.9,3.6 "/>
<path class="st1" d="M172.3,3.7c1.9-0.6-2.7-0.9-0.7-1.3c-3.2,0.2-5.9,0.8-8.3,1.3C165.9,3.4,168.7,3.4,172.3,3.7"/>
<path class="st1" d="M159.2,4.5c1.3-0.2,2.6-0.5,4.1-0.8C161.9,3.9,160.6,4.1,159.2,4.5"/>
<path class="st1" d="M190.9,4.5c-0.4-0.2-1.1-0.6-3.7-0.7l1.8,0.8C189.6,4.6,190.2,4.5,190.9,4.5"/>
<path class="st1" d="M189.1,4.6L189.1,4.6c-2,0-3.4,0.1-4,0.1C185.6,4.7,186.8,4.7,189.1,4.6"/>
<path class="st1" d="M191.3,4.5c-0.2,0-0.3,0-0.5,0C191.1,4.6,191.2,4.6,191.3,4.5"/>
<path class="st1" d="M211.1,4.9c-2.7,0.5-8.4,1.2-2.9,1.8C210.1,6,207,5.7,211.1,4.9"/>
<path class="st1" d="M193.7,5.5l4.9,0c-0.1-0.2-1-0.5,0.3-0.8L193.7,5.5z"/>
<polygon class="st1" points="191.2,5.8 193.7,5.5 191.8,5.5 "/>
<path class="st1" d="M167.7,5c-2.1,0.4-4.4,0.5-7.1,0.7c2.8,0.1,5.7,0.1,8.5,0C169.5,5.4,170.7,4.9,167.7,5"/>
<path class="st1" d="M178.1,4.9c-0.1,0-0.3,0-0.5,0.1C177.9,5.1,178.2,5.1,178.1,4.9"/>
<path class="st1" d="M134.6,6.9c0.1,0,0.3,0.1,0.4,0.1c0-0.1,0-0.1,0.1-0.2L134.6,6.9z"/>
<path class="st1" d="M169.6,5.8c2.1,0.1,3.4-0.1,4.6-0.4c-1.6,0.1-3.2,0.2-5,0.3C168.9,5.8,168.9,5.9,169.6,5.8"/>
<path class="st1" d="M152,5.2c1.1,0.1,2.4,0.2,3.7,0.3C154.6,5.3,152.4,4.9,152,5.2"/>
<path class="st1" d="M176.9,4.8c0.1,0,0.2,0,0.3,0C176.5,4.6,176.6,4.7,176.9,4.8"/>
<path class="st1" d="M176.9,4.8c-1.1,0.2-1.9,0.4-2.8,0.6c1.3-0.1,2.5-0.2,3.5-0.4C177.4,4.9,177.1,4.9,176.9,4.8"/>
<path class="st1" d="M127.2,13c0.3-0.8,5.8-2,10.7-1.5c4.7-0.9,1.5-3.3-2.8-4.5c-0.1,0.4-0.1,0.7-5,1.5c1.8,0.3,10.9,0.3,6.8,1.2
	c-6.4,0.8-5.3,0.1-8.5-0.1c1.4,0.4-0.6,0.9-2.8,1.5c-2.2,0.6-4.5,1.2-3.7,1.9l2.8-0.4c1.4-0.2,2.8-0.5,2.8-0.5
	C127.6,12.4,125.6,12.9,127.2,13"/>
<path class="st1" d="M144.4,6.6l2-0.2c-2.3,0-4-0.3-7-0.7c-3.3,0.6-4,0.9-4.2,1.2c0,0,2.5-0.1,5-0.3c2.5-0.1,5-0.2,5-0.2L144.4,6.6z
	"/>
<path class="st1" d="M155.4,6c-1.5,0.9-6.3,1.5-3.4,2.3c5.9-0.3,4.1-0.9,7.6-1.4C150.2,7.5,162.4,6.4,155.4,6
	c1.9-0.1,3.6-0.2,5.2-0.3c-1.7,0-3.4-0.1-4.9-0.2c0.1,0,0.1,0,0.2,0l0,0c0,0,0,0,0,0c0.4,0.1,0.6,0.2,0.1,0.1c0,0-0.1,0-0.2,0
	C155.8,5.8,155.6,5.9,155.4,6c-2.8-0.1-0.4-0.2,0.4-0.3c0,0,0.1-0.1,0.1-0.1c0,0,0,0,0,0l-9.5,0.9C148.4,6.4,150.9,6.3,155.4,6"/>
<path class="st1" d="M203.2,8.7c-0.3-0.1-0.3-0.1-0.3-0.2C202.2,8.6,202,8.7,203.2,8.7"/>
<path class="st1" d="M199.2,8.3c0.7-0.1,1.3-0.5,3.5-0.5c2,0.2,0,0.4,0.1,0.7c1.3-0.3,4.7-0.8,0.5-1.1l-0.7,0.1
	c-3.8-0.2-8.8-1.1-8.1-1.2C195.7,7.1,196.7,7.6,199.2,8.3"/>
<path class="st1" d="M177.1,7.4l-7.9,0.7l4,0.6L173,8.3C177.5,8.3,176.5,7.8,177.1,7.4"/>
<polygon class="st1" points="133.7,6.6 134.7,5.6 130.1,7.2 "/>
<polygon class="st1" points="123.4,7.5 123.8,6.7 121.1,7.3 "/>
<path class="st0" d="M308.8,29l-2.3,0.2C307.5,29.1,308.2,29.1,308.8,29"/>
<path class="st0" d="M325.5,29.2l0.4-0.4C325.1,29,324.8,29.2,325.5,29.2"/>
<path class="st1" d="M127.8,10.5c3.3,0.6,7.1,1.8,6.7,0.9l-1-0.9C131.1,10.8,129.3,10.7,127.8,10.5"/>
<path class="st0" d="M300.1,14.7c-0.3-0.1-0.6-0.2-1-0.3c-0.8,0.2-1.6,0.4-2.3,0.6C297.8,14.9,298.9,14.8,300.1,14.7"/>
<path class="st0" d="M302.8,11.3l4.4,0.9C306.2,11.9,304.8,11.6,302.8,11.3"/>
<path class="st1" d="M217.3,31.6l-2.6,1C218.8,32.4,217,32,217.3,31.6"/>
<path class="st1" d="M18.5,13.9c-0.7,0-1.4-0.1-2-0.1c-0.7,0-1.4-0.1-2-0.1c-1.3,0-2.4,0-3.5,0.1c1.8,0.1,3.5,0.3,4.9,0.4
	C17.3,14.3,18.1,14.3,18.5,13.9"/>
<path class="st0" d="M315.4,19.8c-1.4,0.1-2,0.3-2,0.5C314.9,20.2,315.7,20,315.4,19.8"/>
<path class="st1" d="M2.7,14.6c0.5,0,1,0.1,1.5,0.1c2-0.3,4.2-0.7,6.8-0.9C8.3,13.7,5.4,13.8,2.7,14.6"/>
<path class="st1" d="M170.8,35.6c0.2,0,0.5,0.1,0.8,0.1C171.6,35.6,171.3,35.6,170.8,35.6"/>
<path class="st0" d="M267.4,45.6c-0.9-0.1-2.4-0.2-3.8-0.3C264.2,45.4,265.3,45.4,267.4,45.6"/>
<path class="st1" d="M82.1,9.7C84.3,9.5,82.5,9.6,82.1,9.7"/>
<path class="st1" d="M93,12.3c-0.5,0.1-0.8,0.3-0.8,0.5C92.3,12.6,92.6,12.4,93,12.3"/>
<path class="st1" d="M18.7,17.2c0.1,0,0.1,0,0.2,0C18.2,17,18.4,17.1,18.7,17.2"/>
<path class="st1" d="M85.5,9.8c-0.8,0-1.8-0.1-2.8,0C83.1,9.8,84,9.8,85.5,9.8"/>
<path class="st1" d="M85,9.5c0.8,0,1.3,0,1.9-0.1C87.2,9.2,86.9,9.2,85,9.5"/>
<path class="st1" d="M79.1,10c1.2-0.1,2.4-0.2,3.5-0.2c-0.4,0-0.6-0.1-0.5-0.1C81.5,9.8,80.6,9.8,79.1,10"/>
<path class="st1" d="M64,46.8c-0.1,0-0.3,0-0.5,0C61.4,47.6,62.4,47.3,64,46.8"/>
<path class="st1" d="M184.6,2.1c-0.1,0-0.2,0-0.3,0C184.4,2.2,184.5,2.2,184.6,2.1L184.6,2.1z"/>
<path class="st1" d="M192.5,1.9c-3.4,0.9-5.3,0.7-7.8,0.3l2.5,2.6L192.5,1.9z"/>
<path class="st1" d="M268.5,29.2L274,30c-6.6,1.3-11.4,0.8-6.3,1.9c0.8-2.7,21.4-0.3,22.1-3l3.6,0.6c-1,0-1.2,0.1-2.2,0.1
	c7,1.3,5.2-2,14.3-1.6c3.2,0.2,5.4,0.6,3.2,0.9l7-0.7c2,0.1,1.5,0.5-0.5,0.5c0,0,2.7,0,5.3-0.1l5.4,0l-0.1,0.1c1.5-0.4,5-1,6.7-1.2
	c2.7,0.4-1.4,0.3-0.7,0.6l6-0.5c2.4,0.8-2.5,1.3-6.6,1.1c5.5,2.8,4.9-0.5,17,1.2l-5.7,0.3c3.6,1.6,8.1,1.1,14.5,2.1
	c-0.7-0.3-4-0.8-6.2-1.5c-2.2-0.6-3.4-1.3-0.1-1.6c1.8,0.2,4.3,0.3,7.7-0.2c0,1,3.4,0.7,7.6,0.8l-0.3,1.3c4.6-0.3,4.2-0.9,6.9-1.4
	c5.1,0.3,6.1,1.4,7.3,2.2c0.4,0,0.8,0,1.1,0.1l1.9-12.7c-3.1-0.8-1.3,0.1-0.2,0.9l-1.7,11c-0.7-0.3-1.1-0.6,0-0.8l1.4-9.5
	c-0.5,0-1.5-0.2-3.1-0.5c-6.9-2-12-1.9-20.1-2.2c-4.6-1.1,0.9-0.7-0.7-1.3l-4.3,0.4c-1-0.2-0.6-0.4-0.5-0.6
	c-3.6-0.1-0.5,1.2-6.1,0.8c-1.7,1.2-11.1-3.8-18.3-3c-1.7-0.6,0.9-0.7,0.5-1.2c-4.8-0.1-6.9-0.1-8.8-0.1c-1.9,0-3.5,0.2-7.5,0.6
	l-6.6-1.4c4.8,1.4-1.5,2-7.1,2.4c1.7,0.6,3.1,1.1,4.1,1.4l-8.8,0c-1-0.3-0.1-0.7,1.4-1.1c-0.6,0.1-1.2,0.1-1.6,0.2
	c-3.1-0.7-1.4-1.3,0.9-1.9c1,0.3,2.1,0.7,3.1,1.1c2.2-0.6,4.3-1.3,3.9-2.1c-0.6,0.1-1.7,0.1-2.9,0.1c0.6-0.2,1-0.3,0.7-0.5
	c-0.3-0.2-1.2,0-2.7,0.3l-1.9-1.6l-0.5,0.5l-11.4-1.9c-8.3,0.7-15.6,2.3-28.6,1.7c3.3-0.8,0.8-1.6,1.1-2.9
	c3.4,1.6,10.1,0.3,16.8,1.1c-3.5-0.4-2.7-1-1.8-1.1l-12.1,0.2c0.3-1-2.5-1-5.6-1.7c2.2,2.2-9,0.7-13.9,0.9c-0.3-0.7,1-1.3,6.9-0.7
	c-6.4-2-8.7,1.7-15-0.1c1.5,0.1,2.2,0.3,2.8,0c-3.4,0.3-11.7-0.8-9.7-1.2l1.5,0.1c-9.6-1-29.4-2.1-31-0.5c-0.1-0.2,1.4-2,2-2.3
	c0,0-4.4,1.2-8.8,2.4c-4.4,1.2-8.7,2.5-8.7,2.5c1.6-1.4-4.1-5.1,3.9-5.6c-2.3-0.3-5.2-0.7-10.1-0.3c1.6,0.2,3.9,2.2,1.7,2.3
	c-5.9-1.8-4.1-1-11.3-2.5c2.4,0.4-0.3,2.6-4,2.5c0.6-0.3-0.3-2.3,1.1-2.5l-9.3,2.2c2.3-0.4,0.4-1.9-1.7-2.5c1,0.4-8-0.1-10.5,0.2
	l3.9,0.5c-5.2-0.2-7.8,0.6-10.4,1.5c-2.6,0.8-5.1,1.7-10.3,1.8c1.2-0.5,3-3-2.3-3.1c-2.4,1.2-10.4,6.1-19.4,7.8l-1.8-0.5L93,10.9
	c4.1-2.2,16.1-7,22.8-8.7c-4-0.3-1.2-0.7-7.1-0.2c-2.1-0.5,3.2-1.2,4.9-1.3c0,0-3.5,0.2-6.9,0.3c-3.4,0.2-6.9,0.4-6.9,0.4
	c0.7,1.3-10.3,2.4-9.7,3.5c0,0,3.7-0.7,7.3-1.5c3.7-0.7,7.4-1.4,7.4-1.4c0.7,1.3-8.3,4.5-17.9,5.4c-2.5-0.3,1.6-2.6,1.3-3
	c-1.2,0.6-9.1,1.9-10,1.7l4-1.2c-5.4,0.1-8.5,2.8-15.1,2.3C65,7.3,60.4,6.2,60.1,7c3.8,1.1,5.1,5.7,2.8,7.2
	c-0.8,0-11.8-0.1-14.4-0.5c-3.8-0.8,5.1-3.5,1.9-4.2c-0.1,0.4-2.1,1.1-2.9,1.3c-2.4,0,0.9-1.3-4.2-0.5c-0.7,1.4-10.4,1.3-2.3,1.5
	c-4.9,1.1-5.3,0.5-11.1,1.4c2,0.6-4.7,3.8-9.7,4.8c0.2-0.4-0.9-0.7-1.5-0.8c-3.8,0.5-7,0.8-9.9,1.1c-1.5,0.1-2.9,0.3-4.4,0.4
	c-1.5,0.1-2.9,0.6-4.3,0.6l0.1,1.6c2,0,4.2-0.2,6.5-0.4c0.9,0.2,5.5,0.2,3.6,1c1.3-0.4,2.5-1,5.4-1.2c2.9,0.5,1.2,0.6-0.5,0.7
	c-1.8,0.2-3.7,0.5-1.5,1c0.1-0.2,0.6-0.4,1.3-0.6c0.8-0.2,1.8-0.4,3-0.5c2.4-0.3,5.2-0.8,7.3-1.2c-0.7-0.6-3.1-0.4-5.9-0.1
	c-1.4,0.2-2.9,0.3-4.2,0.6c-1.4,0.2-2.6,0.5-3.7,0.7c-0.1-0.8,1.6-1.9,4.7-2.8c3-0.8,7.2-1.8,12.2-2.6c4-0.5,4.9-0.2,4.9,0.1
	c0.1,0.3-0.7,0.6,0,0.5c7.5-0.1,10.6-0.8,13.5-1.5c2.8-0.7,5.3-1.2,11.4-0.9c4.9,0.7,0.4,2.1,1.5,2.8c-6.4,0.8-9.9-0.2-14.2-0.1
	l5.4,0.4c-2,0.4-6.3,0.8-8.7,0.5c2.1,0.4,8.3,0.5,15.5,0.1c7.2-0.5,15.3-1.1,21-1.1c2-0.5,5.5-1.2,3.8-1.5l-3.6,0.4
	c-3.4-0.6,6.7-1.7,2.1-1.8c4.8-1,10.2-2.4,17.1-2.4l1.4,1.1c-0.2-0.4-4.5-0.4-6.4,0.1c1.4-0.4,4.1-0.2,6.7-0.1
	c2.7,0.1,5.4,0.1,6.9-0.7l-4.9-0.6c4.9-0.9,10.9-2.4,16.9-2.4c-2.8-1.1-1.4,0.2-5.7-1c1.9,0.8-2,1-5.6,1.1c-3.6,0.2-6.9,0.4-3.9,1.1
	C101.3,9,99.3,9,97.2,9c-2.1,0-4.4,0.1-7.3-0.4c0.2,0.4,2.1,0.6-3,0.8c-0.2,0.1-0.8,0.3-1.1,0.4c-0.2,0-0.2,0-0.3,0
	c0.1,0,0.2,0,0.3,0c-0.2,0.1-0.2,0.1,0.1,0c1.2,0.1,2.2,0.2,2.6,0.4C86,11.4,77.9,12,75.2,12.7c-3,0,1.2-0.6-0.5-0.9l-4,1
	c-0.5-0.9-8.2-0.9-1.1-1.9l-6.4,0.5c-1-0.1-2-0.1-3-0.1c-1,0-2.1,0-3.2,0c-2.1,0.1-4.2,0.2-5.7,0.4c-3-0.1-7.5,1.2-4.9,0.4
	l-10.1,0.7l-0.1-0.2c-1.2,0-2.5,0.1-3.9,0.1c-1.3,0.1-2.6,0.2-3.9,0.4c-2.6,0.3-5.2,0.6-7.7,0.9c-1.3,0.1-2.6,0.2-3.9,0.3
	c-1.4,0.1-2.8,0.1-4.2,0.2c-2.8,0.1-5.6,0.3-8.4,0.1c-1.4,0.2-2.7,0.4-4.2,0.6l0.4,9.6c1.9-0.1,3.2-0.6,4.3-0.8
	C4.9,24,5,23.9,5.4,23.9c0.3,0,0.7-0.1,1-0.1c0.7-0.1,1.5-0.2,2.3-0.2l1.2,0.6c4.2-0.9,12.7-1,14.5-2c2.5,0.7,7.7,0,13.1-0.9
	c2.7-0.4,5.5-0.9,8.1-1.3c2.6-0.4,5-0.7,6.9-0.8l0.2-1c5.2-0.6,10.1-1.4,16.4-2.6l-0.5-0.8c5.4-1.4,14.3-1.1,22.9-2.1
	c-0.6,0.4-2.8,0.6-4.4,0.5c10.6,0.8,21.8-3.7,31.3-2.7c2.3-0.4,4-0.4,5.7-0.2c-0.2,0-0.4,0-0.6,0.1c0.2,0,0.6,0,1,0
	c1,0.1,2.1,0.2,3.3,0.4c-1-0.2-1.9-0.4-2.7-0.4c1.8-0.1,4.5-0.3,7.2-0.5l1.2,1c0.2,0,0.4,0,0.6,0c2.7,0.3,2.1-0.5,0.7-1.2
	c1.4-0.2,2.6-0.4,3.6-0.6c2.2,1.5,7.1-0.5,10.1,1.1c1.8-0.8,13.6-0.5,15.1-2.2c0.1,0.2,0.9,0.3-0.6,0.3c3,0.2,6,0.5,8.8,0.1l1.2,1.3
	l6.6-1.4c4,0.9,5.6,1.4,1.6,2.2c9.6-1,7.8-0.2,16-1.1l-0.4,0.8c2.9,0.1,7.7-0.6,9.4,0.2c6.4,1.9,32.3,2.6,49.1,5.3
	c-3.1-2.6,7.7,1.7,8.5,0c0.9,0.6,3.2,1.1,0.5,1.4c8.6,0.2,12.8,2,18.8,0.9c0.9,0.6-1.9,0.7-1.1,1.1c0.7-0.1,2.8-0.2,3.6,0.2
	c0.8,0.4-1.3,0.4-2.7,0.5c8.7,0.6,9.8-1,10.5-2.5c4.4,1.1,6.6,1.2,9.9,0.4c1.5,0.6,4,1.4-1.4,1.1c3,0.3,18.6,2.3,19,1.1
	c0.9,0.4,4.2,0.6,5,0.5c6.8,0.9,7.4,1.1,14.1,2l-1.8-0.5c2.9-1.1,5.6,0.5,11,1.1l-0.2,0.1c12.2,2.9,5.5,0.3,17.5,3.1l-0.5-1
	c1.2-1.6,8.5,1.5,14.7,3.2l0.7-4.8c-1-0.1-1.9-0.1-2.8,0l2.6,0.7c-3.9,0.5-10.8-3.2-14.8-3.6c-0.9-0.2,1.4-0.3,2.6-0.4
	c-10.4-1.4-1.4,1.2-9.1,1.4c-1.4-0.7,1.9-1.7-3.4-1.9c-1.3-0.3-5,0.3-9.3,0.7c-4.3,0.4-9.1,0.7-12.6-0.1c1.5,0.6,3.1,1.1-0.5,1.4
	c-5.4,0.1-14.7-2.3-19.7-0.6c-0.7-0.1-1-0.3-1-0.4c-4.2,0.4-13.6,0.7-16.1,1.6c-3.8-3.3-25.9,1.6-25.8-1.5c0,0-3.2,0-6.4,0.1
	c-3.2,0.1-6.5,0.1-6.5,0.1l0.3-0.3c-8.3-0.1-11.2,0.8-14,1.6c-1.9-0.1-0.5-0.5-0.4-0.6c-12-0.1-13.2,0.1-23.2,2.1l-1.1-0.9
	c-1.3,0.4-5.7,0.2-11.2,0.2c-5.5,0.1-12.1,0.4-17.9,1.5c0.1-0.1,0.3-0.3,1.2-0.6c-6.5,1.2-14.5,1.3-21.3,1.5
	c-1.7,0.1-3.3,0.1-4.9,0.2c-1.5,0.1-3,0.2-4.3,0.4c-2.6,0.4-4.6,1-5.8,2l-8.6,1.8c11.3-1-1.5,1.7,3.2,1.8c-4.4,0.7-11.5,0.2-6.1-0.6
	l0.9,0.1c1.8-2.1-14,1-13.9-0.3c-11.1,1.4-22,3.1-32.6,4.4c-10.7,1.3-21.2,2.5-31.6,4.1l2.6,1.1c0,0-1.8,0.3-3.6,0.6
	c-1.8,0.3-3.6,0.6-3.6,0.6c-1.9,0-2.7-0.7,2.4-1.5c-2.9-0.4-8.5,2.3-8.6,2.6c-10.2,1.4,3.6-2.5,0.5-1.9l-4.2,0.9l1,0
	c-3.3,1.3-3.5,2-9.6,3.3c-3.9,0.6-2.2-0.4-3.7-0.1c0-0.1-0.5,0-2.3,0.5l-4.5,1c-1.1,0.2-2.3,0.5-2.9,0.6c-0.7,0.1-1,0.1-1,0.1
	s0.6,0.2,1.4,0.3c0.4,0.1,0.9,0.1,1.2,0.1c0.4,0,0.6,0,0.6,0c-1,0.4-2,0.7-2.7,0.9c-0.7,0.2-1.3,0.2-1.7,0.2l-0.1,5.8
	c0.8-0.1,1-0.2,0-0.5l0.1-4.7c0.2,0.1,0.4,0.2,0.8,0.4c-0.2-0.1-0.5-0.2-0.8-0.3l-0.1,4.5c2,0.4,5.1,0.5,8.7,0.3
	c3.6-0.2,7.6-0.6,11.5-1.1c7.8-1,15-2,16.9-2c5.5-1.5,11.1-2.2,18-3c-1.7,0-2.9-1.2,3-1.8c-1.8,2.9,11-0.2,15.9,1.3
	c-2.2-0.4,2-0.9,5.9-1.4c3.9-0.4,7.5-0.9,4.1-1.6c5-0.1,0.4,1,4.2,1.4c11.7-1.8,26-0.6,40.6-1.1c0.2-0.4-2.2-0.9,0.9-1.4l7.8,1.7
	c2.9-0.2,2.7-2,8-0.8c-0.7-0.3-1.9-0.7,0.1-0.9c7.2,0.4,14.5,0.6,21.8,0.5c7.3,0,14.7-0.2,22.1-0.3c14.7-0.2,29.5-0.1,43.9,2.3
	c-1.9-0.4-2.3-0.6-1.7-0.7c0.5-0.1,2,0,3.4,0.1c-1.9-0.3,0.1-0.9-0.2-1.4c0,0,2.9,0.5,5.9,1.3c3,0.7,6,1.4,6,1.4
	c1.2-0.5,4.5-0.1,7.8,0.1c1.5,0.1,2.9,0.3,4.1,0.4c1.2,0.1,2.2,0.1,2.5-0.2l-3.8-0.3c2.6-0.4,1-1.5-1.2-2.6c-2.3-1-5-2.3-4.6-3.2
	c-2.9,0.6-6.6-0.6-10.8-1.7c-2.1-0.5-4.4-1-6.8-1.2c-2.3-0.1-4.7-0.1-7.1,0.4c-2.1-0.5,1.8-0.5,0.7-1c-2.5,0.7-5.4,0.8-10.7,0.3
	l0.6-0.2c-15.2-0.1-21.6-0.9-38.6-1.3l1.3,0.9c-3.6-0.1-4.4-0.4-6.1-0.6c-4.2,1.5,10.2,0,6.4,1.6c-2.4-1-8.8-0.9-15.1-0.9
	c-6.2,0-12.2-0.1-13.9-1.2c-5.6,0,1.6,1.1-4,1.1l-1.5-0.6l-1.4,0.8c-3.7-0.1-5.5-0.8-5.7-1.4c0.9,0.1,2.5-0.2,3.5-0.2
	c-4.8-0.7-13.5,0.3-15.1,0.1l5.4,0.3c-15.3,0.6-34.1,0.4-48.9,2.7l1.2,0.4c-5.6,0.8-7.9,0.9-10.3,1c-1.2,0-2.5,0-4.2,0.2
	c-1.7,0.1-3.9,0.3-7,0.8l0.4-0.2c-2.4,0.7-5.7,1.4-9.1,1.7c3-0.9-6-0.3-2-1.4c-12,2.4-5.9,1.4-13.7,4.1l-1.9-0.5
	c-2.7,1-2.8,1.4-8.9,2.4c5-1.3-4-0.6,1.5-2.2c-6.5,0-11.2,1-15.1,1.8c-3.9,0.7-6.9,1.3-9.8,0.2c-2.8,1.2-0.1,1.4,3,1.2
	c3.1-0.2,6.5-0.7,4.9-0.3c2.8,0.4-4.7,2.1-8.7,2.1c-1.3,0-2.4-0.2-3.7-0.5l-0.1,3.9c0.8,0.2,1.8,0.4,2.8,0.5c1,0.1,2.1,0,3.2,0
	c2.2-0.1,4.9-0.4,8.4-1.2c-1,0.2-1,0.4-2.1,0.6c3.9-0.4,7.3-2.4,12.1-2.6c2.3-1.8,6-1.2,6.5-2.9c0,0-2.3,0.6-4.6,1.1L50.2,50
	c5.1-1.6,9.8-4.4,18.7-5c-0.6,0.4-3.2,1.3-4.9,1.8c2.6,0,4.9-1.2,7.6-1.1c-0.5,1.7-11.4,2.2-16.7,4.6c2.8,0.1,10.4-3.2,7.9-1
	c3.7-2.9,10.1-1.5,16.8-4.1l-0.3,1c1.1-0.3,3.3-1.1,5.3-1.4l-3.5,1.8c5.5-1.9,11-0.7,16.4-2c-11.4,1.7-2.7-0.8-7.6-0.7
	c13.8-3.3,8.5,1.3,24.1-1.6c-2.1,0.5-8.1,0.7-4.8-0.3c3-0.3,7-0.5,8.9-0.3c10.3-1.8-1.7-0.7,2.6-2c3.7,0.6,5-1.2,9.5-2.2l0.2,1
	c11.9-0.8,2.9-2.4,13.6-2.9l-4.4,1.9l5.5-1l-1,1.2c6-1.5,7.9-1.5,13.8-1.8c-1.4-0.5,0.6-1.8,5.8-2.3c3.6,0.3-2,1.1,5.5,0.3
	c-0.8,0.4-1.7,0.8-2.8,1c-1.1,0.2-2.3,0.3-4,0c-0.3,0.3-1.6,0.8-1.9,1.1c2,0.1,4.3,0,6.6-0.3c2.3-0.2,4.5-0.6,5.8-0.7
	c-1.1,0.1-2.3,0.1-3,0l10.8-2.3c1.7,0.2,0.4,0.6-0.9,1c2.2-0.3,3.7-0.9,6.9-1.3c-0.8,0.9-0.5,1.6-5,2.5l10.2-1.9
	c0.7,0.3,5.4,0.4,4.1,0.9c5.7-0.1,13.8-2.8,21.4-2.5c0.4-0.2,1.2-0.4,2.8-0.6c7.2-0.2,13.6,0.4,21.9-1l4.8,1.2
	c6.6-0.5-6.5-1.6,4.4-2.4c7.8-0.6,2.9,1.1,5.7,1.5c1.9-0.4,4.5-0.9,7.6-1.2c3.1-0.3,6.6-0.4,10.2,0.2
	C272.6,29.3,270.7,29.1,268.5,29.2 M350.6,29.2c-1.6,0.2-4.8,0.8-6,0.2C346.4,28.3,347.8,28.9,350.6,29.2 M288.2,11.8
	c1.2-0.2,3,0.1,5,0.6C291.8,12.4,290.1,12.2,288.2,11.8 M58.4,12.3c-0.1,0-0.1,0-0.2,0.1C54.8,12.2,56,12.3,58.4,12.3 M65.7,12.2
	c0.7-0.2,0.7-0.3,0.3-0.4c-0.5,0.3-2.1,0.4-4,0.5C62.6,12.5,63.6,12.6,65.7,12.2 M39.9,45.3l1.5-0.1C38.2,46.2,39.1,45.8,39.9,45.3"
	/>
<path class="st0" d="M302.5,11.7c0.4,0.2,0.5,0.4,0.6,0.6C303.7,12.1,303.8,12,302.5,11.7"/>
<path class="st1" d="M217.8,31.4l-0.2,0c-0.1,0.1-0.2,0.1-0.2,0.2L217.8,31.4z"/>
<path class="st1" d="M47.4,9.3c1.5,0,2.4,0,3,0.1C50.4,9.2,49.7,9.1,47.4,9.3"/>
<path class="st1" d="M104.7,7.7L100,8.2c2.3-0.2,3.1,0,4.3,0.1C104.2,8,103.3,7.7,104.7,7.7"/>
<path class="st1" d="M145.9,11.1c0.7-0.1,1.5-0.1,2.1-0.2l-0.2-0.4C144.9,10.6,142.9,11.1,145.9,11.1"/>
<path class="st1" d="M109.3,10.6c0.4,0.8,3.4,0.4,6.6,0.1c-0.2,0-0.4,0-0.6,0C116.2,9.5,112.8,10.1,109.3,10.6"/>
<path class="st1" d="M116.7,10.6c1-0.1,2-0.2,3-0.2C120.1,10,118.5,10.4,116.7,10.6"/>
<path class="st1" d="M75,10.9c1.6,0.1,0.9-1.1,1.8-0.9C78.5,8.9,66.5,12.1,75,10.9"/>
<polygon class="st1" points="112.1,13.2 110.8,12.2 109,13.1 "/>
<path class="st1" d="M86,14.1l5.3-0.1c-0.1-0.2,0.6-0.3,1.4-0.5C89.4,13.8,85.8,13.8,86,14.1"/>
<path class="st1" d="M92.6,13.5c1.7-0.1,3.3-0.3,4.2-0.5C96,13.1,94,13.3,92.6,13.5"/>
<polygon class="st1" points="104.9,13.8 103.3,13.7 99.6,13.8 "/>
<path class="st1" d="M29.3,17l-5.7,0.7c-0.6,0.4,1,0.5,3.2,0.2C28,17.5,30.2,17.2,29.3,17"/>
<path class="st1" d="M46.8,19.2c-1.6-0.2-1.7-0.4-2.6-0.7l-0.2,1.2L46.8,19.2z"/>
<path class="st1" d="M30.1,20c-0.5,0.4-8.2,1.6-1,1C29.6,20.5,35.3,20,30.1,20"/>
<polygon class="st1" points="56.6,11.7 55.2,11.9 55.6,13.8 "/>
<path class="st1" d="M132.9,0.1c-7-0.4-1.6,1.3-7.9,0.8c-1.6,0.5,5.1,0.4,3.5,0.8C132.6,1.1,134.8,1.4,132.9,0.1"/>
<path class="st1" d="M128.5,1.7c-0.7,0.1-1.4,0.2-2.1,0.4C127.5,1.9,128.1,1.8,128.5,1.7"/>
<path class="st0" d="M283.4,48.5c0,0,0.9,0.2,1.9,0.4l2,0.5l-2.6-1c0,0-0.4,0-0.7,0.1C283.8,48.5,283.4,48.5,283.4,48.5"/>
<path class="st0" d="M291.8,48c0,0,0.3,0.4,0.5,0.7c0.3,0.3,0.5,0.7,0.5,0.7l1.2-0.4l1.3-6.3c0.1,0-0.6,0.7-0.8,0.5
	c0,0,0.1,0.1,0.1,0.1c0,0,0.1,0,0.1-0.1c0.1,0,0.2-0.1,0.3-0.2c0.2-0.1,0.3-0.4,0.3-0.4l-1.3,5.7C293.1,48.4,292.3,48.3,291.8,48"/>
<path class="st0" d="M362.7,31.9l0.3-0.3c-0.7-0.3-1.7-0.4-3.7-0.5L362.7,31.9z"/>
<polygon class="st0" points="303.2,30.3 304.2,30.3 302.3,29.1 "/>
<path class="st0" d="M253.4,31.9c2,0,4.4-0.3,6.4-0.3C255.4,31.8,252.8,30.4,253.4,31.9"/>
</svg>
