<?xml version="1.0" encoding="utf-8"?>
<!-- Generator: Adobe Illustrator 24.3.0, SVG Export Plug-In . SVG Version: 6.00 Build 0)  -->
<svg version="1.1" id="Layer_1" xmlns="http://www.w3.org/2000/svg" xmlns:xlink="http://www.w3.org/1999/xlink" x="0px" y="0px"
	 viewBox="0 0 108 158.2" style="enable-background:new 0 0 108 158.2;" xml:space="preserve">
<style type="text/css">
	.st0{opacity:0.2;}
	.st1{fill:#454691;}
</style>
<g class="st0">
	<path class="st1" d="M68.7,28.6c0.3,1.4,0,2.2-0.1,2.7c-0.1,0.5-0.2,0.7-0.2,0.8c0,0.3,0.2,0.1,0.1,0.4c0.4-0.8,0.6-1.6,0.7-2.4
		c0-0.8-0.1-1.4-0.2-1.8c-0.3-0.8-0.5-0.9-0.5-0.9c0,0.1,0.1,0.4,0.1,0.6C68.6,28.4,68.7,28.7,68.7,28.6"/>
	<polygon class="st1" points="67.5,38.5 66.9,38.1 71.6,42.4 	"/>
	<path class="st1" d="M51.3,21.5c0.6,0.5,1,1.1,1.5,1.8l0.1,0.3l0,0.1c0,0,0,0,0,0l0,0.1c0.1,0.1,0.1,0.2,0.2,0.3
		c0.1,0.1,0.2,0.2,0.3,0.3c0.2,0.1,0.3,0.3,0.5,0.4c1.3,1.1,2.8,2.3,4.4,3.6c3.2,2.5,6.7,5.4,9.4,7.8l0.8,0.9l2.9,1.7
		c-3.4-2.8-7.3-6-11-9c-1.8-1.5-3.6-2.9-5.2-4.2c-0.4-0.3-0.8-0.7-1.2-1c-0.2-0.2-0.4-0.3-0.5-0.5c-0.1-0.1-0.2-0.2-0.3-0.3
		l-0.1-0.2l-0.2-0.3c-0.1-0.2-0.3-0.4-0.5-0.7C52.1,22.2,51.7,21.8,51.3,21.5"/>
	<path class="st1" d="M58.2,38.9c-0.8-1.2,3.5,3.2-3.5-3.6c0.3,0.4,0.4,0.5,0.6,0.7C55.9,36.6,56.7,37.4,58.2,38.9"/>
	<path class="st1" d="M55.2,36C52.2,32.9,57.1,38.1,55.2,36"/>
	<path class="st1" d="M69,50L64.9,46c0.7,1,4.1,4.7,2.7,3.4C71.8,53.5,71.1,52.5,69,50"/>
	<path class="st1" d="M73.1,53.5l-2.1-2C71.3,51.8,71.8,52.4,73.1,53.5"/>
	<path class="st1" d="M66.5,47.1l4.4,4.3c-0.5-0.7-0.4-0.9-2-2C69.5,49.6,68.5,48.9,66.5,47.1"/>
	<path class="st1" d="M64.2,44.4c-2-2.4-4.7-5.3-0.7-1.5c-3.7-3.8-5.5-5.3-5.3-4.9C58.4,38.4,60.6,40.6,64.2,44.4"/>
	<path class="st1" d="M48.3,21.6c0,0,0.3-0.1,0.8,0c0.5,0,1.2,0.2,1.7,0.6c1,0.8,1.5,1.9,1.5,1.8c0,0,0.1,0.2,0.3,0.4
		c0.3,0.2,0.6,0.4,0.9,0.7c0.7,0.5,1.5,1.1,1.5,1.1c-0.4-0.3-0.9-0.7-1.6-1.3c-0.3-0.3-0.6-0.5-0.8-0.8c-0.1-0.3-0.5-0.8-0.8-1.2
		c-0.6-0.8-1.6-1.4-2.4-1.4C48.6,21.4,48.2,21.6,48.3,21.6"/>
	<path class="st1" d="M78.2,53.4c-0.4-0.1,1.1,1.5,1.3,2c0,0,0.8,0.6,1.6,1.3c0.8,0.6,1.6,1.3,1.6,1.3
		C81.2,56.5,78.3,53.8,78.2,53.4"/>
	<path class="st1" d="M79.5,55.4c0,0-1.2-1-2.4-2l-2.3-2C78.8,55.2,79.7,55.7,79.5,55.4"/>
	<polygon class="st1" points="74.3,53.6 66.9,46.6 75.7,55.1 	"/>
	<polygon class="st1" points="61.2,37.1 64,39.3 59.1,35.3 	"/>
	<path class="st1" d="M49.9,26.2c2,1.6-2.2-2.9-0.1-1c-3-3-5.7-5.4-8.1-7.6C44.1,20,46.7,22.6,49.9,26.2"/>
	<path class="st1" d="M37.6,13.8c1.3,1.2,2.6,2.4,4.1,3.8C40.4,16.3,39,15,37.6,13.8"/>
	<path class="st1" d="M67.3,44.1c-0.3-0.4-0.8-1.2-3.2-3.7l1.5,2C66.1,42.9,66.7,43.5,67.3,44.1"/>
	<path class="st1" d="M65.6,42.4L65.6,42.4c-2-1.9-3.3-3.2-3.8-3.8C62.2,39.1,63.4,40.3,65.6,42.4"/>
	<path class="st1" d="M67.7,44.5c-0.2-0.2-0.3-0.3-0.4-0.4C67.4,44.3,67.5,44.4,67.7,44.5"/>
	<path class="st1" d="M86.7,62.2c-3-1.9-8.9-6.7-3.6-1.7C85.4,61.9,82.3,59.2,86.7,62.2"/>
	<path class="st1" d="M69.5,47l4.7,4.6c0-0.2-0.8-1.1,0.6,0c0,0-1.3-1.2-2.7-2.3C70.9,48.2,69.5,47,69.5,47"/>
	<polygon class="st1" points="67.1,44.9 69.5,47 67.8,45.3 	"/>
	<path class="st1" d="M45.1,22.2c-2.1-1.9-4.2-4.1-6.7-6.7c2.5,2.8,5.2,5.6,7.8,8.3C46.7,24,48,25,45.1,22.2"/>
	<path class="st1" d="M55,32.1c-0.1-0.1-0.3-0.3-0.5-0.4C54.7,32,55,32.2,55,32.1"/>
	<path class="st1" d="M47.6,35.1c-0.1-0.2-0.2-0.3-0.3-0.5c0,0-0.1,0-0.1-0.1L47.6,35.1z"/>
	<path class="st1" d="M46.6,24.3c1.9,2.1,3.2,3.2,4.4,4.2c-1.5-1.5-3.1-3-4.8-4.7C46,23.6,45.9,23.6,46.6,24.3"/>
	<path class="st1" d="M32.1,17.7c-0.8-1.2-1.7-2.5-2.6-4l3.9-3.3c0.1,0.1,0.2,0.2,0.3,0.3c-0.1-0.1-0.2-0.2-0.3-0.3l-3.9,3.3
		C30.2,15.1,31.7,17.3,32.1,17.7"/>
	<path class="st1" d="M53.9,30.9c0.1,0.1,0.2,0.2,0.3,0.3C53.6,30.5,53.7,30.6,53.9,30.9"/>
	<path class="st1" d="M53.9,30.9c-1.1-1-2-1.7-2.9-2.4c1.2,1.2,2.4,2.3,3.5,3.2C54.3,31.4,54,31.1,53.9,30.9"/>
	<path class="st1" d="M56.4,41.3c-0.6-0.1-5.7-5.6-9.5-10.8c-4.3-4.7-2.6-0.7,0.4,4.1c0.3,0,0.4-0.1,4.7,4.8
		c-1.3-1.9-8.9-11.4-5.1-7.4c5.7,6.5,4.4,5.5,6.9,8.9c-1.9-3.1,7.6,8,7,6c0,0-0.3-0.3-0.8-0.9c-0.5-0.5-1.1-1.2-1.7-1.9
		c-1.3-1.4-2.5-2.8-2.5-2.8C55.8,41,57.7,43,56.4,41.3"/>
	<path class="st1" d="M39.4,25.1l-1.8-1.9c1,1.2,1.8,2.2,2.7,3.3c0.8,1.1,1.7,2.4,2.9,4c3,3.3,3.7,3.9,4,4.1l-4.2-5.1
		c-0.5-0.6-1.1-1.3-1.5-1.9c-0.5-0.6-0.9-1.1-1.3-1.6c-0.8-0.9-1.4-1.5-1.4-1.5L39.4,25.1z"/>
	<path class="st1" d="M33.3,10.6C33.3,10.6,33.3,10.5,33.3,10.6l-3.5,2.9c0.8,0.9,2.2,2.6,3.2,3.6c1,1,1.5,1.4,0.4-0.3
		c-1.4-1.8-2.2-3-2.8-3.8l2-1.7c2,1.7,2,1.3,4.5,3.7c-2.3-2.3-3.3-3.2-3.6-3.5c-0.3-0.3,0.2,0.1,0.7,0.5c0.5,0.4,1.2,1,1.2,0.9
		c0.1,0-0.4-0.6-2.1-2.2c2,1.7,3.6,3.3,5.1,4.9c-1.6-1.7-3.1-3.4-4.7-4.9c0.1,0.1,0.1,0.2,0.2,0.2l0,0l0,0c0.4,0.4,0.5,0.6,0,0.1
		c0,0-0.2-0.1-0.2-0.2C33.7,10.8,33.5,10.7,33.3,10.6C33.3,10.5,33.3,10.5,33.3,10.6l-3.5,2.9c1.7,2.8,0.7,1.2-0.1,0.1l3.7-3.1
		c0.2,0.2,0.4,0.3,0.5,0.4c0,0,0.1,0.1,0.2,0.1c0,0,0,0,0,0l-0.6-0.5l-3.8,3.2c2.4,3.6,5.2,6.7,8,9.6c-0.9-1-1.9-2.2-3.2-3.6
		c-1.3-1.5-2.9-3.3-4.6-6L33.3,10.6C33.3,10.5,33.3,10.6,33.3,10.6"/>
	<path class="st1" d="M77.4,56.9c-0.3-0.3-0.2-0.3-0.2-0.3C76.6,56,76.3,55.8,77.4,56.9"/>
	<path class="st1" d="M73.8,53.1c0.7,0.6,1.4,1,3.6,3c1.9,1.8-0.1,0.1-0.1,0.3c1.4,1.1,5,3.9,0.8,0.1L77.3,56
		c-3.7-3.5-8-8.5-7.3-7.9C70.8,49.4,71.5,50.5,73.8,53.1"/>
	<path class="st1" d="M53,31.9c0,0-1.9-1.8-3.8-3.6c-1.9-1.8-3.8-3.7-3.8-3.7l3.5,4.1l0-0.4C53.1,32.6,52.4,31.5,53,31.9"/>
	<polygon class="st1" points="48.2,36.1 46.9,35.3 51.4,39.6 	"/>
	<path class="st1" d="M57.1,46.7l-0.6-0.1c0,0,0.6,0.7,1.3,1.3c0.6,0.6,1.3,1.3,1.3,1.3s-0.5-0.6-1-1.2
		C57.5,47.3,57.1,46.7,57.1,46.7"/>
	<path class="st1" d="M88.3,108.2l2.3,2.1C89.6,109.2,88.9,108.6,88.3,108.2"/>
	<path class="st1" d="M72.2,92.5l-0.5-0.2C72.5,92.9,72.8,93.2,72.2,92.5"/>
	<path class="st1" d="M45.7,50.1c-3.1-3.3-6.4-7.1-6.3-6.4l0.7,1.3C42.5,47,44.2,48.6,45.7,50.1"/>
	<path class="st1" d="M81.2,98.9c0.3,0.3,0.6,0.6,0.9,1c0.9,0.6,1.8,1.2,2.6,1.7C83.7,100.7,82.5,99.8,81.2,98.9"/>
	<path class="st1" d="M77.6,98.2L73.3,94C74.2,95,75.6,96.3,77.6,98.2"/>
	<path class="st1" d="M25.1,67.2l-3-2.2C26.3,69,24.6,67.1,25.1,67.2"/>
	<path class="st1" d="M29.2,15.4c-0.8-1.1-1.6-2.1-2.2-3l-3.8,3.3c1.4,1.5,2.6,3,3.6,4.3c-1.2-1.8-2.4-3.4-3.4-4.5l3.4-3
		C27.8,14,28.7,15,29.2,15.4"/>
	<path class="st1" d="M78.8,105.4c1.4,1.3,2.1,1.8,2.1,1.7C79.4,105.7,78.6,105,78.8,105.4"/>
	<path class="st1" d="M33.5,29.2c-0.4-0.6-0.8-1.1-1.2-1.7c-1.8-2.3-3.5-4.7-5.5-7.4c0.9,1.4,1.9,2.9,3,4.5
		C31,26.2,32.2,27.8,33.5,29.2"/>
	<path class="st1" d="M48.5,104.4c-0.2-0.2-0.5-0.5-0.7-0.7C47.6,103.7,48,104,48.5,104.4"/>
	<path class="st1" d="M59.3,131.7c-0.9-0.9-2.2-2.5-3.5-4C56.3,128.4,57.4,129.6,59.3,131.7"/>
	<path class="st1" d="M89.2,76.1C91.3,78.1,89.6,76.4,89.2,76.1"/>
	<path class="st1" d="M85.5,76.6c0.4,0.4,0.8,0.7,0.9,0.7C86.2,77.2,85.9,76.9,85.5,76.6"/>
	<path class="st1" d="M53.8,50.3c0.1,0.1,0.1,0.1,0.2,0.2C53.5,49.8,53.6,49.9,53.8,50.3"/>
	<path class="st1" d="M92.2,79.1c-0.7-0.7-1.6-1.6-2.5-2.5C90.1,77,90.8,77.9,92.2,79.1"/>
	<path class="st1" d="M91.9,78.6c0.5,0.5,1,0.9,1.5,1.3l-3.7,3.9l-0.2-0.3c-0.2-0.1-0.2-0.1,0.2,0.3l3.8-4
		C93.2,79.7,92.7,79.3,91.9,78.6"/>
	<path class="st1" d="M86.3,73.2c1.3,1.2,2.3,2.3,3.4,3.4c-0.4-0.4-0.5-0.6-0.4-0.5C88.6,75.5,87.8,74.6,86.3,73.2"/>
	<path class="st1" d="M53,97.8c-0.1-0.1-0.3-0.3-0.5-0.4C50.2,95.6,51.2,96.4,53,97.8"/>
	<path class="st1" d="M20,23.8c-0.1-0.1-0.1-0.2-0.2-0.2C19.8,23.6,19.9,23.8,20,23.8L20,23.8z"/>
	<path class="st1" d="M26.9,31.7c-3.2-3.1-4.8-5.1-6.9-7.8l1.3,3.5L26.9,31.7z"/>
	<path class="st1" d="M79.1,110.9l5.7,4.7c-7.6-4.8-12.6-8.8-7.4-4.2c0.4-0.1,2.1,0.9,4.3,2.5c1.1,0.8,2.4,1.7,3.8,2.7
		c0.7,0.5,1.4,1,2.1,1.5c0.7,0.5,1.4,1,2.1,1.5c2.7,2.1,5.6,4.5,8,6c2.4,1.6,4.5,2.4,4.8,2.2l1.1,0.6l3-3.6c-0.9-1.3-2-2.5-3.3-3.4
		c0.7,0.5,1.2,0.8,1.6,1.1c0.4,0.3,0.8,0.7,1.4,1.3c-0.9-1.2-2-2-2.9-2.6c-0.1-0.1-0.2-0.1-0.3-0.2l-0.2-0.1c0,0-0.1,0-0.1-0.1
		c-0.3-0.2-0.5-0.4-0.7-0.6c-1-0.8-1.8-1.3-2.7-1.9c-1.8-1.1-3.8-2.5-8.1-6.8c-3-3-5-5.2-2.8-3.3l-7-6.3c-2-1.9-1.3-1.6,0.6,0.3
		c0,0-2.6-2.5-5.2-4.9c-2.6-2.5-5.2-5-5.2-5l0.1,0C70,91,66.5,88,64.7,86.5c-2.5-2.7,1.4,1.2,0.9,0.4l-6-5.3
		c-2.1-2.5,2.9,1.8,6.8,5.7c-2.2-3.1-3.4-4.2-5.5-6c-2.1-1.8-5-4.3-10.4-10.3l5.5,5.2c-2.9-4-7.3-7.9-13-14.3
		c1.3,1.6,11.2,12.9,4.9,7c-1.7-1.8-3.9-4.1-7.4-7.2c0.3-0.4-3-3.5-7.1-7.5l0.7-0.2c-4.5-4.2-4.4-3.6-7.2-6c-2.4-2.4-3.9-4-4.8-5.1
		c-0.9-1.1-1.3-1.8-1.8-2.5c-2-1.9-2.6-2.5-2.6-2.4c-0.1,0,0.5,0.7,1,1.4c0.5,0.6,1,1.2,0.7,1.1c-0.2-0.1-1.3-0.9-3.5-3.1
		c-1.9-2.1-3.5-4.1-4.8-6.1l-3.6,3.1c2.1,1.7,4,3.5,6.2,5.5c2.2,2,4.6,4.1,7.4,6.6c4.5,4.5-1.1-0.5,0.5,1.2l4.5,3.5
		c1,1,0.6,0.8,0.4,0.7c3.6,3.1,0.7-0.2,6.3,4.8c2,0.9,10.6,11.3,17.9,17.1c1.6,1.7-1.1-0.5-0.7,0.2c4.8,4.2,6.9,6,8.8,7.5
		c1.9,1.6,3.6,2.9,7.8,6.1l6.5,6.2c-4.6-4.7,2.1,0.4,7.9,4.9c-1.6-1.7-3-3.2-3.9-4.1l9.1,7.4c1,1,0,0.4-1.7-0.7
		c0.6,0.5,1.3,0.9,1.7,1.3c3,2.9,1.1,1.8-1.4,0.1c-1-1-2-2.1-2.9-3.1c-2.4-1.6-4.8-3-4.6-2.4c0.6,0.4,1.8,1.4,3,2.4
		c-0.6-0.4-1.1-0.7-0.8-0.4c0.3,0.3,1.3,1,2.8,2.1l1.6,2.3l0.7,0.2l11.3,10.4c2.1,1.6,4.2,3.2,6.3,4.8l2.1-2.4
		c-6.6-4.8-13.2-10.4-22.5-19.8c3.4,2.8,1.3,0.1,1.9-0.2c2.8,3.9,9.5,9.6,16,15.7c-3.4-3.2-2.4-2.8-1.5-2c0,0-3-2.6-5.9-5.4
		c-2.9-2.7-5.8-5.5-5.8-5.5c0.6-0.1-2.1-2.7-4.9-5.9c1.5,3-8.8-8.2-13.5-12.8c0-0.5,1.3,0.4,6.7,6.3c-5.5-6.9-8.7-7.5-14-14.3
		c1.3,1.4,2,2.2,2.6,2.7C60.2,72.6,53,64.1,55,65.9l1.3,1.4C52,62.4,45.5,55,39.9,48.7c-5.6-6.4-10.2-11.8-11.1-12.2
		c0-0.2,1.9,0.7,2.5,1.2c0,0-4.2-4-8.4-8.1c-4.2-4-8.5-8-8.5-8c1.9,1.1-1.8-6,5.4,2c-1-1.2-2-2.6-3.4-4.2c-1.4-1.7-3.1-3.7-5.5-6
		c1.4,1.6,2.8,4.6,0.8,2.5c-0.9-1.2-1.6-2.1-2.1-2.7c-0.3-0.3-0.5-0.6-0.7-0.8c-0.1-0.2-0.2-0.3-0.3-0.4c0-0.1-0.1-0.2-0.1-0.2
		c-0.1-0.1-0.1-0.3-0.2-0.4c-0.2-0.3-0.4-0.6-0.7-0.8c-0.5-0.5-1.3-0.9-2.1-1L2.5,8.9l1.6,2.8C4.8,13,5.8,14.7,8,17.9
		c-1.8-2.6,1.2-0.5,4.4,3.3c-0.6-0.5-0.6,1.1-1.9-0.3c0,0,2.2,2.2,4.5,4.4c2.3,2.2,4.6,4.2,4.6,4.2c-2.3-2.1-1.1,0.3,0.6,2.5
		c-0.4-0.5,1.5,1.4,3.8,3.8c2.3,2.3,5,5.1,6.3,6.2l-3.6-3.9c5,5,7.8,7.1,10.6,9.1c2.8,2,5.6,4,10.8,8.7c-1.4-0.9-4.1-1.7,1.1,3.1
		c2.8,1.7,12.6,7.4,22.3,15l1.6,1.8l7.5,5.8c-5.1-3-18.9-12.3-26.1-17.8c3.8,3.6,0.8,1.3,6.8,6.4c1.9,2-3.6-2.4-5.3-4l6.9,6.1
		c3.5,3,6.9,6,6.9,6c-0.2-1,11.2,8.5,11,7.6c0,0-3.9-3-7.9-6.1l-7.8-6.2c-0.2-1,10,6,19.9,14.3c2.4,2.3-2.7-0.6-2.6-0.3
		c1.4,0.9,9.8,7.4,10.7,8.3l-4.5-3.2c4.5,3.9,8.2,5.9,12.9,9.7l2-2.8c-1-0.7-2.1-1.6-3.2-2.7c-2.2-1.9-5.8-6.7-6.4-6.7
		c2.9,4,2,6.3-0.8,4.5c-0.4-0.4-3-3.3-5.9-6.4c-2.9-3.1-5.8-6.6-6.8-8c-3-4,6.2,4.3,3.6,1c-0.3,0-2.3-1.8-3.1-2.6
		c-2-2.4,1.3,0.6-3.4-4.3c-1.3-0.4-9.3-10.3-2.6-2c-4.6-4.8-4.7-5.3-9.9-11.2c1.3,2.2-5.8-4.3-10.3-9.2c0.4,0.2-0.4-1.1-0.8-1.7
		c-4.4-5.2-7.7-9.4-10.8-13.5c-3.1-4.1-6.1-8.1-9.9-13.3c-0.5-1-4-6.2-2.2-4.2c-0.6-0.7-1.2-1.4-2-2.2c-0.8-0.9-1.7-1.9-3.2-3.4
		c-0.1-0.1-0.2-0.2-0.3-0.3l-1.1,1c1.5,2.3,0.8,1.5-0.2,0.2l1.6-1.4c1.9,1.8,4.6,5.2,2.7,2.2c-0.2,0-1.2-1-2.6-2.3l-1.8,1.6
		c2.2,2.7,5.9,6.7,8.5,9.3c-0.5-1.2-4.6-5.4-8-9.6l0.9-0.8c1.7,1.6,3.2,3.3,4.3,4.6c-0.2,0.1-0.7-0.2-1.5-0.9
		c-0.8-0.7-1.9-1.8-3.5-3l0.5-0.4c2.7,3,6.9,7.2,11.8,12.1c7.5,7.5,2.8,3.7,4.2,4.9c6.9,7.2,10.1,10,13,12.5
		c1.4,1.3,2.8,2.5,4.5,4.1c0.8,0.8,1.8,1.8,2.8,2.9c0.5,0.6,1.1,1.2,1.7,1.8c0.6,0.6,1.3,1.3,2,2.1c4.3,4.9-0.5,1,0.2,2.2
		c-3.2-2.9-5.4-5.4-7.4-7.6c-2-2.2-3.7-4.2-5.8-6.3l4.8,5.4c-2-1.9-6.1-5.9-8.2-8.3c1.8,2.1,7.5,8.3,14.3,15.1
		c6.9,6.7,14.7,14.3,20.1,19.8c2.1,1.7,5.5,5,4.1,3.2c0,0-0.9-0.8-1.7-1.7c-0.9-0.8-1.8-1.7-1.8-1.7c-1.5-1.7,0.3-0.2,1.9,1.1
		c1.6,1.4,2.9,2.6,0.8,0.4c1.9,1.7,3.7,3.5,5.9,5l-1.7,1.9c-3.1-3.2-6.5-6.9-10.2-11.2L79.9,70c0,0.3,3.7,4.7,5.6,6.5
		c-2.7-2.7-8.7-11.1-12.1-13.7l4,5.1c-4.6-4.7-10.4-10.3-15.7-16.6c2,3.2,1.3,1.4,4.6,6.2c-2.7-4.3,13.8,15.6,9.1,9
		c3.3,5,6.6,7.9,11.2,14.2c0-0.3-1.5-2.3,2.9,2.9c0.1,0,0.1,0.1,0.3,0.3l3.6-3.8c-0.2-0.1-0.6-0.4-0.9-0.5c-0.1-0.1-0.2-0.2-0.3-0.3
		c0.1,0.1,0.2,0.2,0.2,0.2c-0.2-0.2-0.3-0.2,0.1,0.1c0.3,0.3,0.5,0.5,0.7,0.7l-3.3,3.5c-0.7-0.9-1.2-1.6-1.4-2c0.5,0.4,1,1,1.8,1.7
		l2.7-2.9c-1.7-1.2-3.9-3.3-6.1-5.4c-2.2-2.1-4.2-3.9-5.4-4.9c-2.8-2.9,1.4,1-0.1-0.7L77.3,66c-0.1-0.7-7.2-8-0.2-1.6l-6.1-6
		c-1.7-1.8-3.8-4-5.9-6c-2.1-2-4-4.1-5.6-5.6c-2.7-3-7.5-7-4.8-4.7l-9.6-9.5l0-0.2c-3-3.2-6.2-6.3-9.3-9.6
		c-3.1-3.3-6.3-6.6-9.1-10.3l-3.2,2.9c3.3,3.2,5.8,7.5,8.8,12c2.8,3.5,5.7,7.2,10.3,13.1l0.6,1.4C47,46.4,54.1,55.6,56,57.2
		c1.7,2.7,6.2,8,11.3,13.5c5.1,5.5,10.7,11.3,14.2,15l0.6-0.1c2.4,2.5,4.9,4.9,7.5,7.4c2.6,2.4,5.4,5.2,8.9,8l-0.1-0.7
		c0.9,0.7,2,1.5,3.2,2.3l2.1-2.9c-5.8-4.4-13.2-11-21-17.3c0.7,0.4,3,2.3,4.6,3.7C77.1,76.4,64.1,67.6,55,58.7
		c-2.5-2-4.2-3.5-5.8-5.1c0.2,0.2,0.4,0.4,0.6,0.5c-0.2-0.2-0.6-0.5-1-0.9c-1-1-2-2-3.1-3.1c0.9,1,1.8,1.9,2.6,2.7
		c-1.8-1.6-4.6-4-7.4-6.4l-0.8-1.4c-0.2-0.2-0.4-0.4-0.6-0.6c-2.5-2.5-2.3-1.8-1.1-0.2c-1.4-1.2-2.7-2.3-3.7-3.1
		c-1.6-2.5-7.1-6.4-9.2-9.8c-1-0.7-4.2-4-7.3-7.2c-3.1-3.3-6.1-6.5-7-7c0-0.2-0.6-1,0.6,0.5c-1.9-2.4-3.7-4.9-5.3-7.3l-1.3,2
		c0.5,0.1,0.7,0.2,1.1,0.8l0.1,0.5c0.1,0.3,0.3,0.5,0.5,0.8l0.3,0.7c0,0,1.7,1.4,3.3,2.9c1.6,1.5,3.2,3.1,3.2,3.1
		c3.2,4.4,4.4,6.2,0.6,2.4c8.8,9.5,6.9,7.9,14.4,15.9l-0.6-0.2c2.5,3,6.9,7.6,8.2,9.6c2.5,3.6,9.6,11.9,18,21.3
		c8.4,9.4,18.2,19.9,25.8,28.3c-2.2-4,6.9,7.9,8.2,7.9c0.7,1.1,2.9,3.5,0.1,1c5.8,5.6,9.5,9.4,13.5,12.7l3.1-3.5
		c-1.7-1.5-3.5-2.9-5.5-4.4c-0.8-1.1,2.1,1.3,1.3,0.4c-0.7-0.6-2.9-2.2-3.7-3.2c-0.8-0.9,1.4,0.9,2.9,2.1
		c-8.9-7.7-10.4-7.8-11.5-7.8c-4.3-4.2-6.6-6.1-10.2-8.5c-1.4-1.6-3.8-4,1.8,0.7c-1.5-1.4-6.2-5.5-10.6-9.4
		c-4.4-3.8-8.4-7.4-8.7-7.3c-0.8-1-4.2-3.9-5-4.6c-6.7-6.3-7.3-6.9-13.9-13.1l1.8,1.8c-3.1-1.9-5.6-5-11-9.9l0.2,0.1
		c-5.9-5.9-7.3-7.1-8.6-8.3c-1.3-1.2-2.7-2.3-8.4-8.3l0.3,1c-0.9-0.1-3.1-2.6-6.3-5.6l-1.1,1c1.2,2.1,2.9,4.4,4.7,6.5
		c1.9,2.1,3.9,4,5.8,5.7l-2.3-2.6c2,1.7,4.5,4.4,6.8,7.3c2.3,2.9,4.6,5.8,6.4,7.7c0.8,0.9-1.4-1.2-2.6-2.3c9.3,10.1,1.7,0.8,9.1,7.9
		c1.1,1.6-2.3-1.1,2.5,3.8c1.1,1.3,4.9,4.6,9.1,8.5c2.1,1.9,4.4,4,6.5,6.1c2.1,2,4.1,4,5.7,5.8c-1.3-1.6-2.6-3.3,1-0.1
		c5.3,5,13.5,14.5,18.9,18.5c0.6,0.7,0.8,1,0.8,1.1c2.1,1.9,5.4,4.9,8.6,7.8c1.6,1.4,3.1,2.8,4.4,4c1.3,1.2,2.5,2,3.2,2.5
		c0.4,0.6,1.2,1.5,2.3,2.6c0.2,0.2,0.3,0.3,0.5,0.5c0.2,0.2,0.5,0.3,0.7,0.5c0.3,0.2,0.6,0.4,0.9,0.6c0.6,0.5,1.2,1,1.7,1.7l2.1-2.7
		c-4.5-1.9-9.4-6.1-13.6-9.1c-4.2-3-7.2-5.2-6.9-5.6c0,0-3.5-2.5-6.9-5.1c-3.4-2.6-6.8-5.2-6.8-5.2l0.4,0.1c-8.6-6.8-11.8-9-15-11.1
		c-1.9-1.7-0.4-0.6-0.2-0.6c-6.1-5.2-9.5-8-12.7-10.6c-3.2-2.6-6.2-4.8-11.4-9l-0.7-1.3c-1.3-1-4.6-4.2-8.8-8.5
		c-4.1-4.4-9.2-9.9-14.2-15l-3,2.6c1.3,1.7,2.8,3.1,4.2,4.5c-0.1-0.1-0.5-0.2-1.4-1.1c1.6,1.6,3.3,3.3,5,4.9
		c1.7,1.7,3.4,3.4,5.1,5.2c3.4,3.6,6.8,7.2,10.1,10.4C35,76.7,40.8,82,43.8,83.6l4.5,3.8c2.3,1.9,4.5,3.7,4.5,3.7
		C41.6,80.9,55,92,50.5,87.6c4.5,3.9,11.2,10.6,5.6,5.8l-0.8-0.8c-1.3-0.5,2.2,2.6,5.9,5.9c3.7,3.3,7.7,6.7,7.4,6.8
		c4.9,4.2,9.7,8.3,14.5,12.4c2.4,2.1,4.8,4.1,7.2,6.1l1.8,1.5l0.9,0.8c0.2,0.2,0.4,0.3,0.7,0.5l0.4,0.3c1.1,0.7,2,1.7,2.7,2.8
		l2.4-2.5c-3.4-2-6.7-4.5-10-6.9c-3.4-2.4-6.8-4.7-10.1-7c-6.6-4.7-13.1-9.4-19.2-14.3l2,2.6l-3.8-3l-3.7-3.1
		c-1.8-1.8-2.3-2.6,3,1.8c-2.5-2.6-9.1-7.2-9.3-7.2c-10.1-9.1,4.6,2.8,1.4,0.1l-4.3-3.6l0.9,0.9c-3.7-2.8-4.2-2.8-10.4-8.3
		c-3.9-3.6-1.8-2.1-3.3-3.5c0,0-0.1-0.1-0.5-0.5c-0.4-0.3-1-0.8-1.9-1.6c0,0-2.3-2-4.5-4.1c-2.2-2-4.4-4.2-4.4-4.2s0.8,0.9,1.5,1.9
		c0.8,0.9,1.6,1.9,1.6,1.9c-4.2-3.4-8.1-8-4.6-3.6c-1-1.3-2.9-3.4-5.1-6.1l-2.1,2c2.4,2.4,5.1,5.5,8,8.8c2.9,3.3,6.1,6.5,9.1,9.5
		c6,6,11.4,10.8,12.8,12.3c5.9,4.8,11.5,9.8,18.4,16c-1.6-1.6-2.2-3,3.7,2.4c-3.1-1,10.6,10.2,14.7,15.2c-1.9-2.2,2.3,1.6,6.3,5.1
		c4,3.5,7.7,6.7,4.6,3.3c4.9,4.6,0,0.7,3.5,4.3c2,1.7,4,3.5,5.9,5.5l2.5-2.5c-2.7-2.4-5.7-4.6-8.7-6.8c-3-2.2-6-4.6-9.1-7
		c-6.1-4.9-12.5-9.9-18.9-15c-0.3-0.1,2,2.2-1.4-0.2c0,0-1.9-1.8-3.7-3.6l-3.7-3.6c-3-2.4-3.4-1.5-8.5-6.5c0.7,0.8,1.7,1.9-0.4,0.3
		c-5.8-5-11.8-10-17.8-15c-1.5-1.3-3-2.5-4.5-3.8l-2.2-1.9c-0.7-0.6-1.4-1.3-2.1-1.9c-2.8-2.6-5.6-5.6-9.2-7.9l-1.9,2.7
		c4.2,3.4,7.2,8.8,11,13.5c3.7,4.7,7.7,9.2,11.5,13.7c1.9,2.3,3.7,4.6,5.5,6.9c1.8,2.4,3.6,4.8,5.3,7.1c3.6,4.8,7.2,9.5,10.8,14.2
		c-3.2-4.3-0.9-1.6,1.8,1.5c-1.6-2.1,0.4-0.2,0.2-0.8c0,0,2.5,3.2,5.2,6.4c2.6,3.2,5.3,6.3,5.3,6.3c2.5,1.8,12.4,12.5,14.1,13.3
		l-3.8-3.6c5.4,4.4-5.7-8-4.2-7.9c-3-2.5-6.2-6.4-9.8-10.8c-3.6-4.4-7.5-9.4-11.9-13.9c-1.6-2.3,1.7,1.7,1,0.4
		c-2.3-2.2-4.8-5.2-9.1-11l0.6,0.6c-5.8-7.8-10.6-13.1-15.1-18.7c-2.3-2.8-4.5-5.7-6.8-8.9c-1.2-1.6-2.3-3.4-3.7-5.3
		c-1.4-1.9-3-3.9-5.3-5.8l-2.5,3.5c0.4,0.3,1.1,0.8,1.8,1.3c0,0-0.2-0.3-0.5-0.7c-0.2-0.3-0.5-0.6-0.5-0.6c1.8,1.3,2.9,2.4,3.6,3.1
		c0.8,0.8,1.3,1.4,2.1,2.2c1.8,1.3,0.6,0.1-1.1-1.6c-0.9-0.9-1.9-1.8-2.9-2.6c-1-0.8-1.8-1.4-2.2-1.7l1.8-2.5
		c0.5,0.5,0.5,0.6-0.2,0.2l-1.5,2.1c0.1,0,0.2,0.1,0.3,0.1c1.2,1,3.3,2.9,5.8,5.4c1.3,1.3,2.6,2.7,4.2,4.1c1.5,1.3,3.1,2.7,4.7,4.1
		c6.4,5.4,12.6,10.6,14,12.4c5.8,4.8-1.4-1.8,4.4,2.9l1.4,1.5l1.7,0.9c3.8,3.2,5.4,5,5.4,5.4c-0.9-0.8-2.7-2.1-3.7-2.9
		c2.3,2.2,5.8,5,9,7.5c3.1,2.5,5.9,4.6,6.7,5.3l-5.5-4.7c6.3,5,13.1,10.4,20.1,15.7c3.5,2.7,7,5.4,10.6,8c3.6,2.6,7.1,5,10.2,7.7
		l2.9-3c-3.4-3.6-7-6.5-10.3-9.3l1,1.2c-11.5-9.8-8.9-8.3-21.4-19.2l0.5,0.4c-2.6-2-6-4.9-9.4-8c3.3,2.6-5.5-5.6-1.2-2.2
		c-12.5-10.6-6.3-5.1-14.9-11.7l-1.6-2c-2.9-2.2-3.3-2.3-9.4-7.9c5.1,4.4-3.4-4,2.4,0.9c-6-6.2-10.5-10.6-14.2-14.4
		c-3.6-3.8-6.4-6.8-9-10.1l-3,2.9l0.1,0.2c2,1.8,1.7,1.1,0.3-0.5l2.2-2.1c3,3,9.1,10,7.1,7.8c1,1.4,0.1,0.6-1.6-1.1
		c-1.6-1.7-4-4.2-6.1-6.1l-0.9,0.9c0.4,0.5,0.8,0.9,1.1,1.3c1.9,2.1,3.3,4,5.5,6.7c2.3,2.6,5.4,5.9,10.7,10.4
		c-1-0.9-1.2-0.9-2.2-1.8c3.8,3.6,8,6.4,12.5,11c3.1,1.9,6.3,5.5,7.6,5.6l-9.8-8.3c5.6,4.6,11.3,8.5,20.4,16.4
		c-0.8-0.5-3.7-2.6-5.7-4c2.6,2.4,5.3,4.2,8,6.6c-0.7,0-3.8-2.4-7.4-5.4c-3.7-3-7.9-6.7-11.1-9c2.6,2.7,11.6,9.2,8.1,7.3
		c2.5,1.4,5.2,3.6,8.2,6.2c3.1,2.5,6.5,5.3,10.7,7.7l-0.8,0c1.3,0.8,3.9,2.5,6.2,4l-4.5-2.4c3.3,2,6.3,4.2,9.2,6.4
		c1.5,1.1,2.9,2.2,4.4,3.2c1.5,1,2.9,2.1,4.4,3.1c-1.5-1.1-2.7-2-3.7-2.6c-0.9-0.7-1.6-1.1-2.1-1.5c-0.9-0.7-1-0.8-0.8-0.9
		c0.3,0,1.6,0.6-1-1.4c2.9,1.8,5,3.2,6.6,4.4c1.6,1.2,2.7,2.1,3.7,2.9c1.9,1.6,3,2.8,6,4.7l3.5-3.7c-0.8-1.4-2-3-4.1-4.3
		c-0.2-0.1-0.4-0.2-0.6-0.4c-0.1-0.1-0.3-0.2-0.4-0.4c-0.4-0.4-0.9-0.7-1.3-1.1c-0.9-0.8-2-1.7-3.1-2.6c1.1,0.9,3.1,2.7,4.4,3.9
		c0.1,0.1,0.2,0.2,0.2,0.2c0.1,0.1,0.1,0.1,0.1,0.1c0,0.1,0.1,0.1,0.2,0.2c0.3,0.2,0.5,0.4,0.5,0.5c0.1,0.1,0,0.1-0.2,0
		c-0.1-0.1-0.3-0.1-0.5-0.2c-0.1,0-0.2-0.1-0.3-0.2c-3-2.7-7-6.3-8.7-8.1c-10.8-9,1.3,1.8-3.4-1.9c-3.3-3.5-5.4-4.3-10.2-8.2
		l0.3-0.4c-12-10.7-3.9-2-14.6-11.7l5,3.5l-5.8-4.8l1.5,0.6c-6.4-5.1-8.3-6.9-14.1-12.4c1.1,1.5-1.4,0-6.6-4.9
		c-3.3-3.5,2.3,1.5-5-5.3c1.8,1.4,3.9,2.8,6.8,6.1c0.4,0.2,1.8,1.3,2.3,1.5c-3.6-3.8-9.4-9-12-11.6c1,1,2.2,2.2,2.7,2.8
		c0,0-2.7-2.4-5.4-4.8l-5.4-4.9c-1.5-1.8-0.1-0.6,1.3,0.6c-2.1-2-3.7-3.4-6.8-6.4c0.5,0.3,0.8,0.3,1.6,0.7c0.4,0.2,0.8,0.6,1.5,1.2
		c0.6,0.6,1.5,1.3,2.6,2.4c0,0-0.6-0.6-1.6-1.5c-0.9-0.9-2.2-2.1-3.5-3.3c-1.3-1.2-2.5-2.3-3.5-3.2c-0.9-0.9-1.5-1.5-1.5-1.5
		c-0.3-0.4-1.4-1.7-2.2-2.8c-0.8-1.1-1.3-2-0.7-1.4c-0.1-0.1-0.2-0.2-0.3-0.4l-4.9,4.2c2.6,2.8,6,6.1,9.6,9.5
		c3.6,3.5,7.4,7.1,11,10.6c0.4,0.3,1.3,1,2.9,2.4C35.5,76.4,41.8,82.2,51,89l4.6,4.6c7.1,5.5-6.3-6.2,5.5,2.9
		c8.4,6.3,2.7,2.9,5.5,5.3c4.4,2.9,12.1,7.9,19.5,14C83.5,114.2,81.5,112.6,79.1,110.9 M48.1,69.2c1.6,1.4,4.8,4.2,5.7,5.5
		C51.7,73.4,50.5,71.9,48.1,69.2 M92.9,110.2c-1.3-0.9-3.1-2.6-5.1-4.5C89.3,106.9,91,108.4,92.9,110.2 M66,54.1
		c-0.1-0.1-0.1-0.1-0.2-0.1C62.5,50.5,63.7,51.7,66,54.1 M72.9,61.1c0.8,0.6,0.8,0.5,0.5,0.2c-0.6-0.4-2.2-1.9-4-3.7
		C69.9,58.2,70.7,59.1,72.9,61.1 M31.5,74.9l1.4,1.4C29.5,73.5,30.5,74.2,31.5,74.9"/>
	<path class="st1" d="M78.1,98.3c-0.4-0.5-0.5-0.6-0.5-0.8C76.9,97,76.8,97.1,78.1,98.3"/>
	<path class="st1" d="M25.7,67.6l-0.2-0.2c-0.2-0.1-0.2-0.1-0.3-0.2L25.7,67.6z"/>
	<path class="st1" d="M81.5,78.3c1.3,1.5,2.1,2.4,2.5,3C84.2,81.3,83.6,80.5,81.5,78.3"/>
	<path class="st1" d="M73.4,65.8l4.3,4.7c-2-2.3-2.7-3.2-3.7-4.4C74.1,66.3,74.7,67.3,73.4,65.8"/>
	<path class="st1" d="M39.9,22.2c-0.7-0.6-1.3-1.4-2-2.1l0,0.3C40.5,23.4,42.5,25.3,39.9,22.2"/>
	<path class="st1" d="M70.7,60.4c0-0.6-2.8-3.5-5.8-6.8c0.2,0.2,0.3,0.4,0.5,0.6C64.2,53.6,67.5,57,70.7,60.4"/>
	<path class="st1" d="M64.3,52.8c-0.9-1-1.9-2-2.7-3.1C61.1,49.5,62.6,51,64.3,52.8"/>
	<path class="st1" d="M82.1,69.6c1.4,1.5,1.3,0.5,2,1.5C86.2,72.3,73.7,61.8,82.1,69.6"/>
	<polygon class="st1" points="69.4,56.8 70.1,58.3 72,59.9 	"/>
	<path class="st1" d="M91,80.9c0.3,0.3,0.6,0.6,1,0.8l-0.5,0.5l-3.7-4.4c0,0.1-0.6-0.5-1.4-1.3c1.9,2.2,4,4.5,5.1,5.8l0.6-0.7
		C91.3,81.2,90.9,80.9,91,80.9"/>
	<path class="st1" d="M86.3,76.6c-1.5-1.7-2.9-3.3-3.8-4.2C83.3,73.3,85.1,75.2,86.3,76.6"/>
	<polygon class="st1" points="75.9,64 77.2,65.6 80.5,69.4 	"/>
	<path class="st1" d="M37.2,27.1c0,0-0.3-0.3-0.8-0.9c-0.5-0.5-1.2-1.2-1.8-1.9c-1.3-1.4-2.7-2.8-2.7-2.8c-0.7-0.5,0.7,1.2,2.7,3.2
		C35.8,26.1,37.9,28.1,37.2,27.1"/>
	<path class="st1" d="M52.4,44.9c-1.4-1.6-1.4-1.8-2.1-2.7l-0.6,0.3L52.4,44.9z"/>
	<path class="st1" d="M36.6,28.8c-0.7-0.4-8-7.9-1.3-0.7C36,28.5,41.5,34,36.6,28.8"/>
	<polygon class="st1" points="88.6,88 87.2,86.6 86.7,87.5 	"/>
	<path class="st1" d="M37,49.2c6.6,6.4,2,1,8,6.8c1.8,1.3-4.9-4.7-3.1-3.4C37.6,49.1,35.6,47,37,49.2"/>
	<path class="st1" d="M41.9,52.6c0.7,0.6,1.4,1.2,2.2,1.8C42.9,53.4,42.3,52.9,41.9,52.6"/>
	<polygon class="st1" points="73.7,147.8 77.7,152.2 75.3,149.2 	"/>
	<path class="st1" d="M82.3,155.3c0,0,0.2,0.4,0.3,0.8l0.3,0.7c0,0,0.7,0.5,1.2,0.8c0.2,0.2,0.4,0.3,0.5,0.5
		c0.1,0.1,0.2,0.3,0.2,0.3c0-0.1,0-0.2-0.1-0.3c0-0.1-0.1-0.2-0.1-0.3c-0.1-0.2-0.4-0.5-0.6-0.8C83.3,156.4,82.6,155.8,82.3,155.3"
		/>
	<path class="st1" d="M37.4,56.7L37,56.5c0.5,0.8,1.5,1.7,3.4,3.7L37.4,56.7z"/>
	<polygon class="st1" points="94.1,112.8 93.1,111.9 94.6,114.1 	"/>
	<path class="st1" d="M61.9,99.4c2.1,1.7,4.8,3.6,7,5.3C64.1,101.1,61.8,98.3,61.9,99.4"/>
</g>
</svg>
