<?xml version="1.0" encoding="utf-8"?>
<!-- Generator: Adobe Illustrator 24.3.0, SVG Export Plug-In . SVG Version: 6.00 Build 0)  -->
<svg version="1.1" id="Layer_1" xmlns="http://www.w3.org/2000/svg" xmlns:xlink="http://www.w3.org/1999/xlink" x="0px" y="0px"
	 viewBox="0 0 72 72" style="enable-background:new 0 0 72 72;" xml:space="preserve">
<style type="text/css">
	.st0{fill:#232323;}
</style>
<path class="st0" d="M59.1,37.5l0-2.5c0-0.8-0.6-1.4-1.4-1.4c-0.8,0-1.4,0.6-1.4,1.4l0,0.2l-5.9-5l0-2.6c0-0.8-0.6-1.4-1.4-1.4
	s-1.4,0.6-1.4,1.4l0,0.2L40.9,22c0.2-6.8,0.3-12.3,0.3-13.5c0-5-4.6-7.9-5.4-7.9c-0.8,0-5.3,3-5.3,8c0,1.3,0.2,6.7,0.4,13.5L24,28
	l0-0.2c0-0.8-0.6-1.4-1.4-1.4s-1.4,0.6-1.4,1.4l0,2.6l-5.8,5l0-0.2c0-0.8-0.6-1.4-1.4-1.4c-0.8,0-1.4,0.6-1.4,1.4l0,2.5l-9,7.8
	l0,3.8l19.6-11l7.9-0.9c0.8,8.6,1.8,21.9,1.8,21.9L24,66.7l0,2.5l9.6-2.3c0.1,1.4,0.9,1.8,0.9,1.8c0,2.3,1.5,2.8,1.5,2.8
	s1.5-0.5,1.5-2.8c0,0,0.8-0.4,0.9-1.8l9.7,2.3l0-2.5l-9.3-7.3c0,0,0.9-13.3,1.6-21.9l7.9,0.8L68.2,49l0-3.8L59.1,37.5z"/>
</svg>
