<?xml version="1.0" encoding="utf-8"?>
<!-- Generator: Adobe Illustrator 24.3.0, SVG Export Plug-In . SVG Version: 6.00 Build 0)  -->
<svg version="1.1" id="Layer_1" xmlns="http://www.w3.org/2000/svg" xmlns:xlink="http://www.w3.org/1999/xlink" x="0px" y="0px"
	 viewBox="0 0 351.2 77.1" style="enable-background:new 0 0 351.2 77.1;" xml:space="preserve">
<style type="text/css">
	.st0{fill:#E9E7E7;}
</style>
<polygon class="st0" points="306.5,10.5 307.3,10.3 300.2,10.3 "/>
<path class="st0" d="M261.8,7.7c4.2,1,16.2,0.8,24.1,1.6l1.3,0.2l3.6-0.4C281.2,8.7,268.6,8.3,261.8,7.7"/>
<path class="st0" d="M238.1,4.8c1.4,0.4-5.2-0.1,5.5,0.4c-0.5-0.1-0.7-0.1-1-0.1C241.7,5,240.4,4.9,238.1,4.8"/>
<path class="st0" d="M242.7,5.1C247.4,5.3,239.6,4.7,242.7,5.1"/>
<path class="st0" d="M220.9,3.8l6.2,0.2c-1.3-0.3-6.8-0.7-4.7-0.7C216.1,3,217.4,3.3,220.9,3.8"/>
<path class="st0" d="M215,3.9l3.2,0.1C217.7,3.9,216.8,3.8,215,3.9"/>
<path class="st0" d="M225.1,4.3L218.3,4c0.9,0.2,1,0.4,3.1,0.1C220.8,4.3,222.2,4.2,225.1,4.3"/>
<path class="st0" d="M228.9,4.7c3.5,0.4,7.9,0.8,1.7,0.6c5.9,0.3,8.5,0.3,8,0.2C238.2,5.3,234.8,5.1,228.9,4.7"/>
<path class="st0" d="M259.5,8.3l4.6,0.5l4,0C266.1,8.8,259.2,8.1,259.5,8.3"/>
<path class="st0" d="M182.3,1.1c-0.4,0.1,2.1,0.5,2.5,0.7l4.6,0C187.1,1.6,182.6,1.3,182.3,1.1"/>
<path class="st0" d="M184.8,1.8l-6.9,0C184.1,2,185.2,2,184.8,1.8"/>
<polygon class="st0" points="213.9,4.6 225.2,4.9 211.7,4.4 "/>
<polygon class="st0" points="156,0.8 159.9,0.4 152.9,0.9 "/>
<path class="st0" d="M138.6,0.9c2.9-0.3-4-0.5-0.9-0.7c-4.7,0.1-8.8,0.3-12.4,0.6C129.1,0.6,133.2,0.6,138.6,0.9"/>
<path class="st0" d="M119.2,1.1c1.9-0.1,3.9-0.2,6.1-0.3C123.2,0.8,121.2,0.9,119.2,1.1"/>
<path class="st0" d="M166.2,1.5c-0.5-0.1-1.6-0.3-5.4-0.4l2.7,0.4C164.3,1.5,165.2,1.5,166.2,1.5"/>
<path class="st0" d="M163.6,1.6L163.6,1.6c-3,0-5.1,0-5.9,0C158.4,1.5,160.2,1.5,163.6,1.6"/>
<path class="st0" d="M166.9,1.5h-0.7C166.4,1.6,166.6,1.6,166.9,1.5"/>
<path class="st0" d="M195.9,3c-4,0-12.5-0.1-4.4,0.6C194.5,3.5,189.8,3.1,195.9,3"/>
<path class="st0" d="M170.2,2.1c0,0,1.8,0.1,3.7,0.1c1.8,0.1,3.7,0.1,3.7,0.1c-0.1-0.1-1.5-0.3,0.6-0.4c0,0-2,0-3.9,0L170.2,2.1z"/>
<path class="st0" d="M166.6,2.2c0,0,0.9,0,1.8-0.1c0.9,0,1.8,0,1.8,0L167.5,2L166.6,2.2z"/>
<path class="st0" d="M131.7,1.5c-3.1,0.2-6.6,0.2-10.5,0.3c4.2,0.1,8.5,0.1,12.6,0.1C134.3,1.7,136.1,1.4,131.7,1.5"/>
<path class="st0" d="M147.2,1.5c-0.2,0-0.5,0-0.7,0C146.9,1.6,147.2,1.6,147.2,1.5"/>
<path class="st0" d="M82.9,2.1c0.2,0,0.4,0,0.6,0.1c0,0,0.1-0.1,0.1-0.1L82.9,2.1z"/>
<path class="st0" d="M134.5,1.9c3.1,0.1,5,0,6.8-0.2c-2.3,0-4.8,0.1-7.5,0.1C133.5,1.9,133.5,1.9,134.5,1.9"/>
<path class="st0" d="M108.5,1.3c1.6,0.1,3.5,0.2,5.4,0.2C112.3,1.4,109.1,1.2,108.5,1.3"/>
<path class="st0" d="M145.4,1.4c0.2,0,0.3,0,0.5,0C144.9,1.3,145,1.4,145.4,1.4"/>
<path class="st0" d="M145.4,1.4c-1.6,0.1-2.9,0.2-4.2,0.3c1.9,0,3.7-0.1,5.2-0.2C146.1,1.5,145.7,1.5,145.4,1.4"/>
<path class="st0" d="M71.3,4.8c0.6-0.4,8.8-0.7,15.9-0.4c7-0.4,2.4-1.6-3.7-2.3c-0.2,0.2-0.2,0.3-7.4,0.6c2.5,0.2,16,0.4,9.9,0.8
	c-9.5,0.3-7.8-0.1-12.4-0.3c2,0.2-1.1,0.4-4.3,0.6c-3.3,0.2-6.8,0.4-5.7,0.8l8.4-0.2C72,4.5,69,4.7,71.3,4.8"/>
<path class="st0" d="M97.2,2l3-0.1c-3.4,0-5.8-0.1-10.2-0.4C85,1.8,84,1.9,83.7,2.1l14.6-0.1L97.2,2z"/>
<path class="st0" d="M113.5,1.8c-2.3,0.4-9.4,0.7-5.1,1.1c8.7,0,6.1-0.4,11.3-0.6c-14,0.1,4-0.2-6.1-0.5c2.8-0.1,5.2-0.1,7.6-0.1
	c-2.5-0.1-5-0.1-7.3-0.2c0.1,0,0.2,0,0.3,0l0.1,0l0,0c0.6,0.1,0.8,0.1,0.1,0.1c0,0-0.2,0-0.3,0C114,1.7,113.8,1.7,113.5,1.8
	c-4.1-0.1-0.6-0.1,0.6-0.2c0,0,0.2,0,0.2-0.1c0,0,0,0-0.1,0c0,0-3.5,0.1-7,0.1c-3.5,0.1-7,0.2-7,0.2C103.2,1.9,106.9,1.8,113.5,1.8"
	/>
<path class="st0" d="M184,4.2c-0.4-0.1-0.4-0.1-0.4-0.1C182.7,4.1,182.3,4.2,184,4.2"/>
<path class="st0" d="M178.3,3.8c1,0,1.9-0.2,5.2,0c2.9,0.2,0,0.2,0.1,0.4c2,0,7,0,0.7-0.5l-1,0c-5.7-0.4-12.9-1-11.9-1.1
	C173.1,3,174.5,3.3,178.3,3.8"/>
<path class="st0" d="M145.5,2.8L133.8,3l6,0.4l-0.3-0.2C146.1,3.2,144.7,3,145.5,2.8"/>
<polygon class="st0" points="81.6,1.9 83.1,1.4 76.4,2.1 "/>
<polygon class="st0" points="66.4,1.9 67,1.5 63,1.7 "/>
<path class="st0" d="M166.5,32.1l3.4,0.3C168.3,32.2,167.2,32.1,166.5,32.1"/>
<path class="st0" d="M141.7,28.9l-0.6,0.1C142.3,29.1,142.7,29.1,141.7,28.9"/>
<path class="st0" d="M303.4,43.5c4.8,1.6,10.1,3.4,9.6,2.9l-1.4-0.8C308.2,44.9,305.6,44.2,303.4,43.5"/>
<path class="st0" d="M131.2,25.4c0.5,0.1,1,0.2,1.5,0.2c1.2-0.1,2.4-0.1,3.4-0.2C134.6,25.5,132.9,25.5,131.2,25.4"/>
<path class="st0" d="M127.5,27l-6.6-0.7C122.4,26.5,124.6,26.7,127.5,27"/>
<path class="st0" d="M233.5,55l-4,0.2C235.7,55.6,233,55.2,233.5,55"/>
<path class="st0" d="M89,10.1c4.3,0.5,7.7,0.9,10.7,1.2C94.5,10.6,90.4,9.8,89,10.1"/>
<path class="st0" d="M156.2,35.4c2.1,0.2,3,0.2,2.9,0.1C157,35.3,155.7,35.3,156.2,35.4"/>
<path class="st0" d="M112.1,12.4c-0.8-0.1-1.5-0.2-2.3-0.3c-3.1-0.2-6.3-0.4-10.2-0.8C103.5,11.8,107.9,12.3,112.1,12.4"/>
<path class="st0" d="M62.4,60.1c-0.4,0-0.8,0-1.1,0C61.2,60.2,61.7,60.2,62.4,60.1"/>
<path class="st0" d="M84.5,66.8c1.4-0.2,3.7-0.5,5.9-0.8C89.3,66.1,87.5,66.3,84.5,66.8"/>
<path class="st0" d="M5.2,0.1C8.5,0.1,5.8,0,5.2,0.1"/>
<path class="st0" d="M20.9,2.1c-0.7,0-1.2,0.1-1.3,0.2C19.9,2.2,20.4,2.1,20.9,2.1"/>
<path class="st0" d="M144.3,12.8c0.1,0,0.2,0,0.3,0C143.7,12.7,143.8,12.7,144.3,12.8"/>
<path class="st0" d="M10.1,0.3C8.9,0.2,7.5,0.2,6,0.1C6.6,0.2,7.9,0.2,10.1,0.3"/>
<path class="st0" d="M9.5,0.1c1.1,0,2,0.1,2.8,0.1C12.7,0.1,12.3,0.1,9.5,0.1"/>
<path class="st0" d="M0.7,0.1c1.9,0,3.6,0,5.2,0.1c-0.6,0-0.9-0.1-0.7-0.1C4.3,0.1,3,0.1,0.7,0.1"/>
<path class="st0" d="M56.6,44.9c0.2,0,0.5,0.1,0.7,0.1C60.5,44.9,59.1,44.9,56.6,44.9"/>
<path class="st0" d="M301.5,48c0.2,0,0.2,0,0.4,0c-0.2,0-0.3-0.1-0.5-0.1L301.5,48z"/>
<path class="st0" d="M289.9,46.9c5,0.1,7.8,0.6,11.5,1.1l-3.7-1.7L289.9,46.9z"/>
<path class="st0" d="M225.3,42.3l-7.9-2.1c9.7,1.5,16.6,3,9.2,1c-0.3,0.3-2.4,0-5.4-0.5c-3-0.5-6.9-1.4-10.7-2.2
	c-7.8-1.6-15.6-3-16.3-2.5l-5.3-1.2c1.5,0.3,1.8,0.2,3.3,0.5c-5.1-1.2-7.1-1.3-9.4-1.3c-2.4-0.1-5.1,0-11.7-1
	c-4.6-0.7-7.9-1.3-4.7-1.1l-10.4-1c-3-0.4-2.2-0.5,0.8-0.1L141,29.1l0.1,0c-2.3-0.1-7.4-0.3-10-0.4c-4-0.6,2,0.1,1-0.2l-8.8-0.6
	c-3.5-0.7,3.8-0.3,9.8,0.4c-8-2.2-7.3-0.4-24.9-3l8.3,0.7c-5.3-1.3-11.7-1.7-21.1-3.1c2.2,0.5,18.6,3.1,9.1,2.5
	c-2.7-0.4-6.2-0.8-11.4-1c0-0.5-5-0.9-11.3-1.5l0.5-0.6c-6.8-0.5-6.3-0.1-10.3-0.3c-7.5-0.8-9.1-1.5-10.8-2.1
	c-12.2-1.2,8.3,1.5-6.1,0.4c-7.4-0.8-13.2-1-20.5-0.9l0,4.4c2.7-0.1,5.6-0.2,8.9-0.2c7.1,0.3-1.2,0.4,1.3,0.6l6.3-0.4
	c1.5,0,1,0.2,0.8,0.3c5.3-0.1,0.4-0.7,8.7-0.6c1.1-0.3,5.4,0,10.6,0.5c5.2,0.4,11.5,1,16.7,0.9c2.5,0.3-1.2,0.3-0.5,0.6
	c14.1,0.2,12.1,0.2,23.7,0.2l9.8,1c-7.2-0.9,2.1-0.9,10.2-0.9c-2.6-0.4-4.7-0.7-6.2-0.9l13,0.5c1.6,0.2,0.2,0.3-1.9,0.5
	c0.9,0,1.7,0,2.4,0c4.6,0.6,2.2,0.8-1.2,0.9c-1.6-0.2-3.1-0.5-4.6-0.7c-3.2,0.2-6.2,0.4-5.6,0.8c0.8,0,2.5,0,4.2,0.1
	c-0.8,0.1-1.4,0.1-1,0.2c0.4,0.1,1.8,0,3.9,0l2.9,0.9l0.7-0.2l8.4,0.8c4.2,0.4,8.4,0.9,8.4,0.9c6.1,0.1,11.7,0.2,18.3,0.4
	c6.6,0.2,14,0.7,23.6,1.7c-4.8,0-1.1,0.7-1.5,1.3c-5.1-1.3-14.8-1.5-24.7-2.5c5.2,0.6,4,0.8,2.7,0.7c0,0,4.4,0.3,8.9,0.6
	c4.4,0.3,8.9,0.7,8.9,0.7c-0.5,0.5,3.7,0.8,8.3,1.6c-3.4-1.4,13.2,1,20.4,1.7c0.4,0.4-1.4,0.5-10.1-0.8c9.5,2,12.6,0.5,22,2.5
	c-2.1-0.3-3.3-0.5-4.1-0.5c5,0.4,17.2,2.4,14.3,2.3l-2.1-0.3c14.1,2.2,43.1,6.4,45.4,5.9c0.1,0.1-2,0.7-2.9,0.8
	c0,0,6.4,0.2,12.9,0.4c6.4,0.1,12.9,0.1,12.9,0.1c-2.3,0.5,6.1,3.2-5.8,2.2c3.4,0.5,7.6,1.1,14.8,1.5c-2.3-0.3-5.7-1.6-2.5-1.4
	c8.6,1.6,6,1,16.7,2.5c-3.5-0.4,0.5-1.3,6-0.8c-0.9,0.1,0.4,1.2-1.6,1.1c1.5,0,3,0,4.5,0c1.5,0,2.9,0,4.3,0.2l0.4-2.4
	c-1.6,0-3.1-0.1-4.7-0.3c3.4,0.3,0.7-0.8-2.2-1.7c0.7,0.2-2.2-0.3-5.7-1.1c-3.5-0.8-7.6-1.9-9.4-2.2l5.6,1.6c-3.7-1-6.6-1.5-9-1.9
	c-2.4-0.4-4.3-0.6-6.2-0.9c-3.8-0.5-7.6-1-15-2.9c1.9,0.2,4.8-0.3-2.7-2.3c-3.6-0.3-16.1-1.2-29.4-3.9l-2.5-0.9l-10.2-1.9
	c6.5,0.5,24.7,2.9,34.5,4.7c-5.6-1.6-1.5-0.8-9.9-2.8c-2.9-1,4.7,0.7,7.2,1.3c0,0-4.9-1.2-9.8-2.5c-4.9-1.2-9.8-2.4-9.8-2.4
	c0.7,0.8-15.3-2.8-14.6-2l10.8,2.1c5.4,1.1,10.8,2.2,10.8,2.2c0.7,0.9-12.8-1.2-26.8-4.2c-3.5-1,2.9-0.6,2.7-0.9
	c-1.9-0.2-13.4-2.3-14.7-2.7l6.1,0.8c-7.8-1.8-13-1.6-22.4-3.7c-3.3-0.6-9.7-2.3-10.3-2c5.2,1.5,5.9,4,2.3,4.1
	c-0.6-0.1-4.8-0.9-9.4-1.8c-4.6-0.9-9.5-1.7-11.4-2.2c-5.3-1.3,8.3-0.4,3.8-1.5c-0.2,0.2-3.2,0-4.5-0.1c-3.4-0.6,1.5-0.4-6-1.2
	c-1.3,0.5-15.2-1.9-3.6,0.1c-7.4-0.7-7.8-1.1-16.4-2c2.7,0.7-7.9,0.6-15.3,0c0.5-0.1-1.2-0.5-2-0.7c-15-1.6-23.1-2.7-37.1-4
	c-1.3-0.3-8-1.1-5.1-1.1c-2-0.1-3.9,0-8.2-0.3c-8.3-1.3,9.7,0.7,3.3-0.5c-0.6,0.3-11.3-0.4-17.5-0.6C81.5,7,94,7.5,100.2,7.8
	c0,0.9-10.9,0.8-25.6,0.1c-11.7-0.6-5-0.9-7.1-0.9C45.6,5.2,48.7,7,30.5,5.3c-7.2-0.9-0.3-1.1-1.9-1.6C38.2,4.1,43.3,5,49.7,5.4
	l-7.9-0.8c3,0,9.4,0.3,12.9,0.7c-3-0.4-12.3-1.1-22.9-1.7C21.1,3,9.1,2.6,0.6,2.4c-0.2,0-0.4,0-0.6,0v0.7C3,3,7.5,2.8,5.2,2.6L0,2.6
	v0.2l0.2,0C1.8,3,1.3,3.1,0,3.2V2.3C2.4,2.1,7.7,2,3.1,1.9c7.2-0.3,15.3-0.6,25.5,0l1.9,0.7C30.3,2.4,23.9,2,21,2.1
	c4.2-0.2,15.5,1.3,20.2,0.7l-7.1-0.7c7.2-0.1,16.2-0.3,25.2,0c-4.1-0.7-2.1,0-8.4-0.9c5.5,1.1-23-0.8-14.1,0.4
	C30.2,0.6,25.4,0.9,16.8,0c0.3,0.2,3,0.4-4.5,0.2c-0.3,0.1-1.2,0.1-1.7,0.1c-0.2,0-0.3,0-0.5,0c0.2,0,0.3,0,0.4,0
	c-0.3,0-0.4,0,0.2,0c1.8,0.1,3.3,0.3,3.9,0.4C11.9,1,5.2,1,0,1.1v3.3c2.2,0,4.1-0.1,5.3-0.1c4.5,0.2-1.9,0.2,0.6,0.5l6-0.2
	c0.6,0.4,11.8,1.1,1.3,1c0,0,2.4,0.1,4.7,0.2l4.7,0.2c5.6,0.5,13.2,1,17.9,1.1c4.5,0.4,11.3,0.3,7.4,0.3l14.9,0.8L63,8.2
	c14.6,1.1,30.2,1.5,46.8,3.8c4.9,0.3,10,0.7,18.2,1.6l1.6,0.5c6.3,0.5,18.9,2.3,21.7,2.2c6.7,1.8,30.6,3.7,41.6,5.3l0.5-0.5
	c7.6,1,14.9,1.9,24.3,3.2l-0.5-0.5c8.2,0.9,20.7,3.9,33.4,6.6c-0.9,0-4.1-0.8-6.4-1.3c14.9,4.1,32.1,6.5,45.6,10.6
	c3.4,0.7,5.9,1.4,8.3,2.1c-0.3-0.1-0.6-0.1-0.9-0.2c0.4,0.1,0.9,0.2,1.4,0.4c1.5,0.5,3,0.9,4.7,1.4c-1.4-0.5-2.8-0.9-3.9-1.2
	c2.6,0.6,6.6,1.6,10.6,2.4l1.6,0.9c0.3,0.1,0.6,0.1,0.9,0.2c3.8,1.1,3.2,0.5,1.2-0.3c2,0.4,3.8,0.7,5.3,0.9c3,1.4,10.3,2.2,14.5,4
	c1.3,0.1,5.8,1,10.6,1.4l0.6-3.6c-1.5-0.3-2.9-0.4-4.2-0.4c-1.3,0-2.5-0.1-3.6-0.1c-2.2,0-3.8,0-4.4,0.2c-0.1-0.1-1.3-0.3,0.9-0.1
	c-4.5-0.4-8.9-0.9-13-1l-1.8-0.8c0,0-2.5,0-4.9,0c-2.5,0-4.9-0.1-4.9-0.1c-5.9-1-8.3-1.5-2.4-1.3c-7.1-0.4-10-0.8-12.6-1.1
	c-2.6-0.3-5-0.5-11-1.1l0.6-0.3c-4.3-0.6-11.2-1.1-13.8-1.8c-9.5-2.1-47.5-7.4-72.2-11c4.7,1.7-11.5-1.9-12.6-1.1
	c-1.4-0.4-4.9-1-0.8-0.8c-12.7-1.1-19-2.3-27.9-2.3c-1.4-0.4,2.8-0.2,1.5-0.5c-1,0-4.1-0.1-5.4-0.4c-1.3-0.3,1.9-0.1,3.9,0
	c-13-1-14.4-0.2-15.4,0.5c-6.6-0.8-9.8-1-14.6-0.8c-2.3-0.4-6.1-0.9,2-0.5c-4.5-0.4-27.7-2-28.2-1.3c-1.4-0.2-6.3-0.4-7.5-0.4
	c-10.2-0.5-11.1-0.7-21.1-1.1L74,21c-4,0.6-8.3-0.2-16.4-0.3l0.2-0.1c-8.6-0.4-11-0.4-12.9-0.3c-1.9,0-3.4,0.1-10.3-0.1l0,2.6
	c0.7,0,1.8,0.1,3.1,0.2l-1-0.5c0.9-0.5,4.9-0.3,10,0.3c5.1,0.5,11.3,1.4,16.6,1.7l-3.8-0.6c5.8,0.2,15.9,3,21.7,3.7
	c1.2,0.2-2-0.1-3.8-0.2c15.1,2.2,2-0.4,13.3,0.6c2,0.5-2.8,0.6,4.8,1.4c3.8,0.7,22.1,1.2,32.4,2.9c-2.3-0.5-4.5-1,0.8-0.6
	c4,0.4,9.4,1.1,14.7,2c5.3,0.8,10.5,1.5,14.2,1.6c1,0.2,1.4,0.3,1.4,0.4c3.1,0.3,8.1,0.8,12.7,1.3c2.3,0.2,4.6,0.4,6.5,0.6
	c1.9,0.2,3.5,0.3,4.4,0.3c2.7,1.2,12.1,2.6,20.8,4.2c8.7,1.5,16.7,3.1,16.5,3.8c0,0,4.7,1,9.3,1.9c4.7,0.9,9.3,1.8,9.3,1.8l-0.5,0.1
	c11.9,2.4,16,3.2,20.3,3.8c2.7,0.8,0.7,0.4,0.4,0.4c3,0.8,5.3,1.6,7,2.6l0.4-3.3c-0.7,0.2-1.9,0-3-0.2c-0.6-0.1-1.1-0.2-1.8-0.2
	c-0.5,0-1.1-0.1-1.6-0.1c-2-0.2-3.9-0.3-5.7-0.4c-3.7-0.2-7.6-0.3-13.8-0.5l-1.5-0.6c-4,0-25.5-2.6-43-3c0.2,0,0.5-0.1,1.9-0.1
	c-9.8-0.3-21.5-1.2-31.7-1.7c-10.2-0.5-18.8-0.7-22.4,0L131,46c16.7,0.8-2.5,0.7,4.3,1.2c-6.6-0.1-16.9-1.2-8.9-1l1.3,0.1
	c3-0.8-20.7-1.2-20.2-1.9c-13.1-0.6-26-1.5-38.8-2.2c-6.4-0.3-12.8-0.5-19.2-0.5c-3.2,0-6.4,0.1-9.5,0.3c-3.1,0.2-6.2,0.3-9.2,0.2
	l0.2,4.1c0.5,0,1,0,1.8,0.2c0.4,0.1,0.8,0.2,1.2,0.2c0.5,0.1,0.9,0.1,1.3,0.2c1.7,0.2,3.3,0.2,4.9,0.3c1.6,0.1,3.2,0.1,4.7,0.2
	c1.6,0.1,3.2,0.2,4.7,0.3l-3.5-1c0,0,2.7,0.2,5.4,0.4l5.4,0.3c2.8,0.3,3.8,0.8-3.9,0.3c4,0.7,12.9,0.3,13.1,0.2
	c15,0.9-5.9,0.6-1.3,0.8l6.3,0.2L69.6,49c5.1-0.1,5.5-0.4,14.8,0c5.8,0.3,3,0.5,5.3,0.6c0,0,0.2,0,0.7,0.1c0.5,0,1.4,0,2.8,0.1
	l13.5,0.5l-5.4-0.8c6-0.1,12.7,0.5,6.5-0.4c4.6,0.7,17.1,1.3,29.3,2.1c12.1,0.7,23.9,1.4,26.7,1.7c4.2,0,8.4,0,12.8,0
	c2.2,0,4.4,0.1,6.8,0.2l0.9,0.1c0.3,0,0.7,0,1,0c0.6,0,1.2,0,1.8,0c0.6,0,1.2,0.1,1.8,0.1c0.6,0.1,1.1,0.2,1.5,0.3
	c-0.6-0.3-1.4-0.5-1.5-0.6c0-0.1,0.1-0.1,0.5-0.1c0.2,0,0.4,0,0.7,0.1c0.3,0,0.7,0.2,0.9,0.3l0.3-1.1c-0.8,0.3-2.2,0.5-4,0.5
	c0.8-0.4,0.2-0.5-1.3-0.6c-0.7-0.1-1.7-0.1-2.9-0.1c-1.1,0-2.3,0.1-3.7,0.1c-5.3,0.2-12,0.3-15.6,0.1c3.2,0.1-3.1,0.5-8.9,1.1
	c-5.8,0.6-11.2,1.1-6.1,1.1c-7.4,0.5-0.5-0.4-6.1-0.4c-8.7,0.9-18.3,0.8-28.6,0.7c-10.2-0.2-21-0.3-31.9,0.1
	c-0.3,0.2,3.3,0.4-1.3,0.7c0,0-2.9-0.1-5.8-0.3C72,55.1,69.1,55,69.1,55c-4.3,0.3-4,1.1-11.9,1.2c1.1,0,2.8,0.1-0.1,0.4
	c-5,0.4-10,0.8-15,0.6l-0.1,3.3c3.7,0.1,7.1-0.6,10.4-0.6c3.4-0.1,6.8,0,10.3,0c6.9,0.2,13.8,0.5,20.7,0.8
	c6.9,0.4,13.8,0.9,20.7,1.7l5.2,0.6l5.2,0.6c3.4,0.4,6.7,0.9,9.8,2.1l0-3c-0.9,0.3-2.2,0.4-3.5,0.5l-4,0.3c-2.7,0.2-5.3,0.4-7.9,0.6
	c-5.4,0.3-10.7,0.8-16,1.2c5.9-0.4,2,0.1-2.5,0.7c2.9-0.3,0,0.4,0.6,0.6c0,0-4.5,0.4-9,0.8c-4.5,0.4-9.1,0.9-9.1,0.9
	c-1.6,0.6-6.4,1.3-11,2.2c-2.3,0.4-4.6,0.8-6.4,1.2c-0.9,0.2-1.7,0.4-2.3,0.6c-0.6,0.2-1.1,0.4-1.3,0.5c0,0,0.4-0.1,0.9-0.2
	c0.5-0.1,1.3-0.3,2-0.5c1.4-0.3,2.8-0.6,2.8-0.6c-3.7,1.1-1,1,2.5,0.8c3.5-0.2,7.8-0.4,7.3,0.1c4.1-1.1,9.7-1.7,16-2.2
	c6.3-0.5,13.3-1.2,20.1-2.5c3.1-0.1-2.6,0.6-0.9,0.6c3.5-0.8,7.7-1.2,15.7-1.7l-0.9,0.2c0.7-0.1,1.4-0.1,2.1-0.2
	c0.3,0,0.7-0.1,1-0.1c0.3,0,0.6-0.1,1-0.1c1.3-0.1,2.6-0.2,3.9-0.7l4.1-1.5l-4.1-1.5c-4.4-1.6-8.4-2-12.1-2.5
	c-1.9-0.2-3.7-0.4-5.4-0.6c-1.8-0.2-3.6-0.5-5.5-0.7C95,58,87,57.3,76,56.6l1.8,0.6c-5.4-0.3-6.5-0.5-9-0.7
	c-3.1,0.2,0.7,0.4,4.5,0.6c3.9,0.2,7.8,0.4,4.9,0.7c-2.8-0.5-9.1-0.9-16.1-1.1c-3.5-0.1-7.2-0.1-10.7,0c-3.7,0.1-6.8,0.7-9.3,0.5
	l-0.1,3.7c3.3,0.2,5.8,0.2,6.9,0.3c4.2-0.3,3.6-0.4,3-0.5c-0.6-0.1-1.2-0.2,2.9-0.5l2.2,0.1l2-0.6c5.4-0.5,8.1-0.1,8.3,0.1
	c-1.3,0-3.7,0.2-5.1,0.4c6.9-0.2,19.8-0.9,22.1-0.9l-7.9,0c11.3-0.5,23.8-0.6,36.3-0.6c6.2,0,12.5,0,18.5-0.2
	c6.1-0.2,11.9-0.7,17.4-1.3l-1.7-0.1c8.3-0.9,11.6-1.1,15.2-1.3c3.5-0.2,7.2-0.2,16.4-0.7l-0.7,0.1c0.9-0.1,1.9-0.2,2.9-0.3
	c1-0.1,2.2-0.2,3.2-0.3c2.2-0.2,4.7,0,7.4-0.6l2.7-0.6l-2.1-1.7c-0.1-0.1-0.3-0.2-0.4-0.3c0.2,0.1,0.4,0.3,0.4,0.3l-0.6,2.4l0,0l0,0
	l0,0l0,0c-1.1,0.3-0.9,0.3,0.1,0.2l3.1-0.5l-2.5-2.2c-0.8-0.7-1.7-0.9-2.5-1.1c-0.8-0.2-1.6-0.3-2.1-0.4c-1.1-0.1-1.4-0.3,0.9-0.2
	c-9.2-0.2-11.4-0.2-12.9-0.1c-1.5,0.1-2.2,0.3-8.2,0.5l-2.7-0.5c-4.1,0.1-4.4,0.3-13.6-0.2c7.5,0.1-5.8-0.9,2.6-0.8
	c-19.1-2-28.5-0.9-37.3-2.5c-4.4,0.3-0.3,0.6,4.4,0.9s9.8,0.5,7.3,0.5c4.1,0.6-7.3,0.4-13.3,0c-6.1-0.3-10.4-1.7-25.8-2.1
	c1.5,0,1.6,0,3.2,0c-5.8-0.4-11.3,0-18.4-0.7c-4,0.5-9.2-0.4-10.4,0.3l7.1,0.2l7.1,0.2c-8-0.1-15.6,0.6-28.8-0.7c1-0.1,5-0.1,7.7,0
	c-3.8-0.4-7.4-0.3-11.4-0.8c0.6-0.4,4.9-0.1,10.1,0.2c5.2,0.3,11.4,0.6,15.7,0.4c-4.1-0.5-16.3-0.2-11.9-0.8
	c-3.1,0.4-6.9,0.1-11.2-0.2c-2.1-0.2-4.5-0.4-6.9-0.4c-1.2,0-2.4-0.1-3.6-0.1c-0.6,0-1.2,0-1.8-0.1c-0.3,0-0.6,0-0.9,0l-0.9-0.1
	c0,0,0.2-0.1,0.4-0.2c0.2-0.1,0.4-0.2,0.4-0.2c-0.4,0-0.9-0.1-1.4-0.2c-0.6-0.1-1.4-0.1-2.3,0l0.2,4.1c1.5-0.1,3.4-0.1,5.1-0.2
	c-1.7,0.3-3.3,0.5-5.1,0.6l-0.2-5c0.3,0,0.6-0.1,0.8-0.1c-0.3,0-0.6,0-0.8,0.1l0.2,5.1c4.3-0.2,8.3-0.4,12.2-0.4
	c3.9,0,7.8,0,11.7-0.1c-8.4,0-9.3,0.1-9.1-0.2c0.3-0.2,1.7-0.5-1.8-0.5c5.2-0.4,8.5-0.4,11-0.3c2.5,0.1,4,0.3,5.7,0.5
	c3.3,0.5,6.9,0.9,18.6,1.5c-3.2-0.1-11.9-0.9-6.9-0.9c4.4,0.3,10.3,0.9,13.1,1.3c15.5,0.7-2.4-0.6,4.3-0.5c5.3,0.9,7.6,0.2,14.5,0.3
	l0,0.5c17.7,1.2,4.7-0.8,20.7,0.3l-6.8,0.4l8.3,0.2l-1.7,0.5c9.1,0,11.9,0.2,20.8,0.6c-2.1-0.4,1.2-0.8,9-0.6c5.3,0.4-3,0.4,8.1,0.6
	c-2.5,0.2-5.3,0.5-10.1,0c-0.5,0.1-2.5,0.2-3,0.4c5.8,0.5,14.5,0.5,18.5,0.6c-1.5-0.1-3.4-0.2-4.3-0.3c0,0,4,0,8.1-0.1l8.1,0
	c2.5,0.3,0.5,0.3-1.5,0.4c3.3,0.1,5.5,0,10.3,0.2c-1.3,0.3-1,0.7-7.8,0.6l15.3,0.4c1,0.2,7.8,0.9,5.8,1c8.5,0.7,20.9,0.6,32.1,1.7
	c0.6,0,1.8,0,4.2,0.1c4.7,0.4,9.2,0.9,13.8,1.3c2.3,0.2,4.6,0.4,7.1,0.6c0.6,0,1.2,0.1,1.8,0.1l0.5,0l0.4,0l0.9,0.1
	c0.6,0.1,1.3,0.2,2.1,0.2c0.8,0,1.7,0.1,2.8-0.2l7-1.8l-6.3-3.3c-1.3-0.7-2.7-1.2-4.1-1.6c0,0-1.8-0.8-3.5-1.4
	c-1.7-0.6-3.4-1.2-3.4-1.2c-4.8-1.1-2.5-0.3-1,0.3c1.4,0.6,2.2,1-5.9-0.7c-11.5-2.2-4.2-1.5-8.1-2.5c-5.8-0.8-15.7-1.9-26-4.8
	C219.4,41,222.1,41.7,225.3,42.3 M104.8,25.3c2.4,0.1,7.1,0.3,8.7,0.8C110.8,26.4,108.8,25.9,104.8,25.3 M149,27.6
	c-1.8,0-4.4-0.3-7.5-0.6C143.7,27.1,146.2,27.3,149,27.6 M30,6c0.1,0,0.2,0,0.3,0C35.5,6.4,33.6,6.2,30,6 M19.1,5.3
	c-1.1,0-1,0.1-0.6,0.2c0.8-0.1,3.2,0,6,0.1C23.8,5.4,22.4,5.3,19.1,5.3 M90.9,49.5l-2.1-0.2C93.6,49.3,92.2,49.4,90.9,49.5"/>
<path class="st0" d="M128,26.8c-0.7-0.1-0.8-0.2-1-0.3C126.1,26.5,126.1,26.6,128,26.8"/>
<path class="st0" d="M234.3,54.9l-0.4,0c-0.2,0-0.3,0-0.4,0.1L234.3,54.9z"/>
<path class="st0" d="M187.8,15.9c2.2,0.3,3.5,0.6,4.3,0.8C192.2,16.6,191.2,16.4,187.8,15.9"/>
<path class="st0" d="M38.7,0.7l-7-0.1C35.1,0.7,36.3,0.9,38,1C37.8,0.9,36.5,0.7,38.7,0.7"/>
<path class="st0" d="M99.3,4.3c1-0.1,2.2,0,3.2-0.1l-0.3-0.2C97.8,4,94.8,4.3,99.3,4.3"/>
<path class="st0" d="M45.1,2.6C45.6,3,50,3,54.9,3.1c-0.3,0-0.6,0-0.9,0C55.5,2.5,50.3,2.6,45.1,2.6"/>
<path class="st0" d="M56.1,3.1c1.5,0,3,0.1,4.5,0.1C61.1,3,58.7,3.1,56.1,3.1"/>
<path class="st0" d="M5.3,5.2C3,5,3.9,5.7,2.6,5.5C0,6,18,5.1,5.3,5.2"/>
<polygon class="st0" points="49,4 47.3,3.5 44.5,3.8 "/>
<path class="st0" d="M10.4,2.5l7.8,0.3c-0.1-0.1,0.9-0.1,2.1-0.1C15.5,2.5,10.2,2.3,10.4,2.5"/>
<path class="st0" d="M20.3,2.7c2.5,0.1,4.9,0.1,6.3,0.1C25.3,2.7,22.3,2.7,20.3,2.7"/>
<polygon class="st0" points="38.3,3.8 36,3.6 30.5,3.4 "/>
<path class="st0" d="M73.6,7l8.5,0.5c0.9-0.1-1.4-0.4-4.6-0.6C75.4,6.9,72.3,6.7,73.6,7"/>
<path class="st0" d="M47.9,3.8c2.3,0.3,2.4,0.4,3.7,0.6l0.3-0.6L47.9,3.8z"/>
<path class="st0" d="M72.8,5.4c0.9-0.1,12.4,0.4,1.6-0.3C73.5,5.2,64.9,4.7,72.8,5.4"/>
<polygon class="st0" points="200.7,19.3 198.5,19 198.7,20.1 "/>
<path class="st0" d="M312.2,40.3c-9.7-2.6-2.5,0.1-11.3-2.4c-2.4-0.3,7.2,2,4.8,1.7C311.6,40.8,314.7,41.6,312.2,40.3"/>
<path class="st0" d="M305.7,39.6c-1-0.2-2-0.4-3.1-0.6C304.3,39.3,305.2,39.5,305.7,39.6"/>
<polygon class="st0" points="60.7,69.8 54.3,70.8 58.5,70.3 "/>
<path class="st0" d="M48.5,73.1L47.8,73c-0.4-0.1-0.7-0.2-0.7-0.2c-0.8,0.3-1.5,0.5-2.2,0.6l0.6,3.7c0.6-0.3,1.2-0.7,1.5-1.2
	c-0.3,0.3-0.9,0.8-1.6,1l-0.6-3.4C46,73.6,47.7,73.2,48.5,73.1"/>
<path class="st0" d="M87,22.2l-0.5,0.1c1,0.3,2.5,0.4,5.5,0.8L87,22.2z"/>
<polygon class="st0" points="174.7,32.5 173.2,32.3 175.9,33.2 "/>
<path class="st0" d="M247.8,45.5c-3-0.7-6.5-1.2-9.5-1.8C244.8,44.8,248.5,46.4,247.8,45.5"/>
</svg>
