<?xml version="1.0" encoding="utf-8"?>
<!-- Generator: Adobe Illustrator 24.3.0, SVG Export Plug-In . SVG Version: 6.00 Build 0)  -->
<svg version="1.1" id="Objects" xmlns="http://www.w3.org/2000/svg" xmlns:xlink="http://www.w3.org/1999/xlink" x="0px" y="0px"
	 viewBox="0 0 138 636" style="enable-background:new 0 0 138 636;" xml:space="preserve">
<style type="text/css">
	.st0{fill:#232323;}
</style>
<g>
	<path class="st0" d="M31.7,562l0.8,2.1c0,0-1.4-4.4-2.7-8.9c-0.7-2.2-1.4-4.4-1.8-6.1c-0.5-1.7-0.7-2.8-0.7-2.8s0.3,1,0.6,2.4
		c0.4,1.5,1,3.4,1.6,5.4C30.6,558,31.7,562,31.7,562z"/>
	<path class="st0" d="M59.9,620.9c-1-2.7-2.2-6.7-3.6-11.3c-0.7-2.3-1.5-4.8-2.4-7.4c-0.9-2.6-1.9-5.4-2.8-8.2
		c-2-5.6-4.1-11.5-6.4-17.1c-2.3-5.6-4.6-11-6.8-15.8l-1.4-3.2c0,0-1.2-2.1-2.4-4.1c-1.2-2-2.5-4-2.5-4c3,5.6,6.1,11.7,8.9,18
		c2.8,6.3,5.4,12.9,7.8,19.3c2.4,6.4,4.5,12.7,6.4,18.4C56.7,611.3,58.1,616.7,59.9,620.9z"/>
	<path class="st0" d="M48.4,564c0.5,1.9-0.7-1.3-0.8-1.7c-0.1-0.3,0.9,2.2,5.2,15.7c-0.4-1.4-0.5-1.8-0.7-2.6
		C51.3,573,50.3,569.7,48.4,564z"/>
	<path class="st0" d="M52.1,575.4C55.8,587.3,49.9,567.6,52.1,575.4L52.1,575.4z"/>
	<path class="st0" d="M33.9,521.1c0,0,0.3,0.9,0.7,2.3c0.2,0.7,0.5,1.5,0.9,2.3c0.1,0.2,0.2,0.4,0.3,0.6l0.1,0.2
		c0,0.1,0.1,0.2,0.1,0.3l0.1,0.4c0.2,0.5,0.3,1,0.5,1.4c1.2,3.9,2.6,7.7,2.6,7.7c-0.5-1.6-1.7-5.9-2.7-9.1c-0.1-0.3-0.2-0.5-0.2-0.7
		c-0.1-0.2-0.2-0.4-0.2-0.6c-0.1-0.3-0.2-0.7-0.3-0.9c-0.2-0.6-0.3-1-0.4-1.3c-0.2-0.6-0.1-0.5,0.3,0.7c-1.3-3.7-1.9-6.4-2.3-8.2
		c-0.3-1.7-0.5-2.5-0.5-2.5c0,0,0,0.7,0.2,2.1C33.1,517,33.4,518.9,33.9,521.1z"/>
	<path class="st0" d="M31.5,508c0,0-0.2,0.3-0.3,0.7c-0.1,0.4-0.2,0.9,0,1.6c0,0.2,0.1,0.3,0.2,0.5c0.1,0.2,0.2,0.4,0.2,0.6
		c0.1,0.2,0.1,0.4,0.1,0.6c0,0.3,0.1,0.6,0.1,0.8c0,0.2,0.1,0.4,0.1,0.6c0.1,0.8,0.2,1.3,0.2,1.3c0-0.4-0.1-0.8-0.1-1.2
		c0-0.2-0.1-0.5-0.1-0.8c0-0.2,0-0.3,0-0.5c0-0.3,0-0.5-0.1-0.8c-0.1-0.2-0.2-0.5-0.3-0.7c0-0.1-0.1-0.2-0.1-0.3
		c-0.1-0.2-0.1-0.5-0.1-0.7C31.2,509.1,31.2,508.6,31.5,508z"/>
	<path class="st0" d="M37.1,531.5c0,0-0.3-1.1-0.9-2.7c-0.1-0.4-0.3-0.8-0.4-1.3l-0.1-0.3l-0.1-0.2c0-0.1-0.1-0.2-0.1-0.3
		c-0.1-0.2-0.2-0.5-0.3-0.7c-0.4-0.9-0.7-1.9-1.1-3c-0.7-2-1.2-4.1-1.6-5.7c-0.3-1.6-0.5-2.6-0.5-2.6c0.1,1.1,0.1,1.8,0.3,2.8
		c0.2,1,0.5,2.4,1.5,4.9c-0.3-0.6-0.2-0.2,0.4,1.3c0.3,0.7,0.7,1.7,1.2,3c0.2,0.6,0.3,0.8,0.4,1.2c0.1,0.4,0.2,0.7,0.4,1.1
		C36.5,529.7,36.8,530.6,37.1,531.5z"/>
	<path class="st0" d="M40.1,541.1c2.8,8.7,6.6,20,1,4.5c5.1,14.8,7.4,21.1,7.1,20c-0.1-0.6-0.9-3-2.2-7.1
		C44.7,554.4,42.7,548.5,40.1,541.1z"/>
	<path class="st0" d="M62.5,619.3c0.2,1.1,0.4,2.2,0.6,3.4l-1.3,0.4c-1.3-2.7-2.3-5.6-3.2-8.4c0,0-0.9-2.5-1.7-5
		c-0.8-2.5-1.8-5-1.8-5c1.4,3.5,3.9,13.7,6.5,18.5l1.6-0.5C62.8,620.4,62.5,619,62.5,619.3z"/>
	<path class="st0" d="M62.9,583.7c0.5,0.9-1.4-5.3-1.6-6.6c0,0-1-2.8-2-5.7c-1-2.8-2.1-5.6-2.1-5.6
		C59.2,571.7,62.9,582.8,62.9,583.7z"/>
	<path class="st0" d="M61.3,577.1l6,17.1C62.3,578.9,61.2,576.1,61.3,577.1z"/>
	<path class="st0" d="M30.8,508.2c-0.4-0.3-0.9-0.6-1.4-0.8l1.9-0.4c-0.6,0.7-0.9,1.5-0.9,2.2c0,0.4,0,0.8,0.1,1.2
		c0.1,0.2,0.1,0.4,0.2,0.6l0.2,0.6l0.1,0.6c0.3,2.3,0.7,4.5,1.2,6.7c0.5,2.2,1.2,4.3,2,6.4c0.2,0.5,0.4,1,0.6,1.6
		c0.2,0.5,0.2,0.7,0.3,1l0.3,0.8l1.1,3.3l-1.1-3.3l-0.3-0.8c-0.1-0.3-0.1-0.5-0.3-1c-0.2-0.6-0.4-1.1-0.6-1.6
		c-0.8-2.1-1.5-4.2-2-6.4c-0.5-2.2-0.9-4.3-1.2-6.7l-0.1-0.6l-0.2-0.6c-0.1-0.2-0.2-0.4-0.2-0.6c-0.1-0.4-0.1-0.8-0.1-1.2
		c0-0.8,0.4-1.5,0.9-2.2l-2,0.4c2,1,3.5,2.5,4.4,4.6c0,0-0.5-1.2-1.3-2.1C31.8,508.9,30.8,508.2,30.8,508.2z"/>
	<polygon class="st0" points="58.7,547.3 62.4,556.9 55.9,539.7 	"/>
	<path class="st0" d="M43.2,504.1c2.9,7-3.1-10-0.2-2.5c-2.2-5.9-4.1-11.2-6.1-16.4c-2.1-5.1-4.1-9.6-5.5-13.9
		c1.4,4.6,3.5,9.3,5.5,14.8C38.9,491.6,40.9,497.4,43.2,504.1z"/>
	<path class="st0" d="M27.7,471.2c-1.1-1.9-2.3-3.8-3.7-5.9l5.7-2c0.2,2.3,0.8,5.1,1.8,7.9c-0.8-2.7-1.5-5.3-1.7-7.9l-5.8,2
		C25.2,467.3,26.5,469.2,27.7,471.2z"/>
	<path class="st0" d="M66.6,573.1c-0.4-1.4-0.9-4-4.1-13.7l1.9,6.9C65,568.3,65.8,570.7,66.6,573.1z"/>
	<path class="st0" d="M64.4,566.5l-0.1-0.2c-2.5-7.3-4.2-12.4-4.9-14.6C60,553.6,61.6,558,64.4,566.5z"/>
	<path class="st0" d="M67.1,574.8c-0.2-0.6-0.4-1.1-0.6-1.7C66.8,573.7,66.9,574.1,67.1,574.8z"/>
	<path class="st0" d="M51.9,549.4c2.1,4.8,5.1,12.4,6.6,16.3c1.5,3.9,1.8,4-1.7-6.1c-1.5-3.5-1.2-2.4-1.3-2.2
		C55.4,557.6,55,556.8,51.9,549.4z"/>
	<path class="st0" d="M69.3,583.4l2.1,7.2l0.3,0.9l0.1,0.3c0,0.1,0.1,0.2,0.1,0.2l0.2,0.3c0.1,0.2,0.2,0.3,0.3,0.5
		c0.2,0.3,0.3,0.7,0.5,1.1c0.6,1.5,0.6,3.4,0.1,4.9l-1.8,5.1l-1.7-5.1l-1.3-3.9c0,0.4,1,3.7-0.8-1.2l1.8,5.3l2.1,5.9l2-5.9
		c0.5-1.6,0.5-3.5-0.1-5.1c-0.1-0.4-0.3-0.8-0.5-1.1c-0.1-0.2-0.2-0.3-0.3-0.5l-0.2-0.2l-0.1-0.1c0-0.1-0.1-0.1-0.1-0.2l-0.1-0.3
		l-0.3-0.9L69.3,583.4z"/>
	<polygon class="st0" points="66.3,574.4 69.3,583.4 67.2,576.6 	"/>
	<path class="st0" d="M36.5,487.2c-1.5-3.7-3.1-7.4-4.5-11.3c-1.4-3.9-2.7-8.1-3.1-12.4l-4.3,1.5c0.3,0.5,0.7,1,1.1,1.6
		c-0.3-0.5-0.7-1-1-1.6l4.3-1.5c0.3,4.7,1.9,9.7,3.7,14.5c0.9,2.4,1.9,4.8,2.8,7.3c1,2.5,1.8,4.9,2.7,7.3
		C38.6,493.9,40.5,498.2,36.5,487.2z"/>
	<path class="st0" d="M50.2,525.7c-0.2-0.5-0.5-1.2-0.7-1.7C49.9,525,50.2,525.9,50.2,525.7z"/>
	<path class="st0" d="M67,558c-0.2-0.5-0.3-1-0.5-1.5c-0.1-0.1-0.1-0.2-0.2-0.3L67,558z"/>
	<path class="st0" d="M38.6,494.2c2.7,7.8,4.5,12.4,6.2,16.8c-2.1-5.8-4.4-12-6.8-18.6C37.7,491.9,37.6,491.7,38.6,494.2z"/>
	<path class="st0" d="M40.2,496.3c-1.8-3.9-3.8-8.3-6-13C36,487.1,39.5,494.9,40.2,496.3z"/>
	<path class="st0" d="M48.8,521.3c0.1,0.4,0.3,0.7,0.4,1.2C48.4,519.8,48.4,520.2,48.8,521.3z"/>
	<path class="st0" d="M48.8,521.3c-1.5-4-2.7-7.1-4-10.2c1.8,4.7,3.4,9.1,4.8,12.9C49.3,523,49,522,48.8,521.3z"/>
	<path class="st0" d="M74.4,568.7c0.3,0.5,1.5,3.7,2.6,8.6l0,0c-3.2-7.7-7.8-19.7-11.9-30.7c-3.5-8.5-4.5-9.8-3.9-7.2
		c0.6,2.7,2.7,9.4,5.3,17c0.4,0.5,0.5,0.4,7.6,18c-1.1-3.1-4.8-13-7.4-20.2c-2.7-7.2-4.3-11.8-1.2-4.4c8.4,21,7.6,19.8,10.5,27.8
		l2.2-0.7c-0.2-0.8-0.4-1.9-0.6-3.1c0.9,5.2-0.9-2.7-3.8-10.8c-2.9-8.1-6.2-16.7-5.7-14c0,0,0.5,1.3,1.2,3.2
		c0.7,1.9,1.6,4.5,2.5,7.1c0.9,2.6,1.8,5.2,2.4,7.2c0.6,2,1,3.3,1,3.3C75.2,570.4,72.7,562.8,74.4,568.7z"/>
	<path class="st0" d="M53,523l-3.2-7.1c3.5,8.1,5.9,14,10,25c5,12,6.1,14.5,6.5,15.2c0,0-3.4-9-7-17.9c-1.8-4.5-3.6-8.9-5-12.2
		c-1.4-3.3-2.4-5.5-2.4-5.5L53,523z"/>
	<path class="st0" d="M34.9,484.2c3.1,5.3,11.3,22.1,6.8,11.6c-4.9-10.3-6.8-13.9-8.2-16.4c-0.7-1.3-1.2-2.3-2-3.7
		c-0.8-1.4-1.8-3.3-3.5-6.2c2.3,3.9,3.7,6.9,4.7,8.9c1,2.1,1.5,3.2,1.8,3.7c0.5,1.1-0.3-0.4-1.2-2.2c-0.9-1.8-2-3.8-2.1-3.8
		c-0.1,0,0.1,0.4,0.7,1.6c0.6,1.2,1.5,3.2,2.9,6.2c-3.3-6.5-6-12.4-9.3-17.4c3.4,5.4,6,11.3,8.6,16.7c-0.1-0.3-0.2-0.5-0.3-0.8
		l-0.1-0.2l0,0c-0.6-1.5-0.8-1.9-0.1-0.3c0.1,0.1,0.3,0.5,0.3,0.7C34.2,483,34.6,483.6,34.9,484.2c4.6,9.7,0.6,1.6-0.9-1.4
		c-0.1-0.1-0.2-0.4-0.3-0.4c0,0,0,0.1,0.1,0.1c0,0,1,2.1,2.6,5.2c1.5,3.1,3.6,7.3,5.6,11.4c4,8.3,7.8,16.8,7.8,16.8
		C46.6,508.7,42.6,499.8,34.9,484.2z"/>
	<path class="st0" d="M64.3,578c0.3,1.1,0.3,1.1,0.3,1.2C65.4,581.4,65.7,582.2,64.3,578z"/>
	<path class="st0" d="M68.9,592.5c-0.9-2.5-1.8-4.6-4.5-12.9c-2.3-7.2,0.2,0,0.2-0.5c-1.8-5-6.3-17.4-1.1-1.7l0.9,2.5
		c2,6.1,4.2,13.1,5.9,18.7l0.9,3l1.1-3c0.4-1.1,0.5-2.3,0.3-3.3c-0.2-1.1-0.6-2-1.1-2.8c-0.1-0.1-0.2-0.2-0.2-0.4
		c0-0.1-0.1-0.3-0.1-0.4c-0.1-0.4-0.2-0.7-0.3-1c-0.2-0.7-0.3-1.3-0.5-1.8c-0.6-2.1-0.8-3.1-0.6-2.4c0.3,1.5,0.6,3,1.1,4.8
		c0,0.2,0.1,0.4,0.1,0.6l0.1,0.3l0.1,0.2c0.2,0.4,0.5,1,0.7,1.6c0.4,1.2,0.6,2.8,0,4.4l-0.8,2.1l-0.5-2.1
		C70.3,597.4,69.6,595.2,68.9,592.5z"/>
	<path class="st0" d="M47.6,521.9l-10.7-29l5,14.9l-0.1-0.8C47.7,523.6,46.7,519.9,47.6,521.9z"/>
	<polygon class="st0" points="68.1,561.4 66.2,557.7 73.2,574.1 	"/>
	<path class="st0" d="M73.1,555.3l0.9,1.3c0,0-0.9-2.5-1.8-5c-0.9-2.5-1.9-5-1.9-5L73.1,555.3z"/>
	<path class="st0" d="M67.3,262.1c0,0,1.2,1.9,2.4,3.9c1.2,2,2.3,3.9,2.3,3.9C69.8,266.2,68.4,263.9,67.3,262.1z"/>
	<path class="st0" d="M30.3,219C30.3,219,30.3,219,30.3,219c0.1,0.1,0.1,0.1,0.1,0.1c0.1,0.1,0.1,0.2,0.2,0.3
		c0.2,0.3,0.4,0.7,0.4,0.7c-0.2-0.3-0.3-0.6-0.5-0.9c-0.1-0.2-0.1-0.1-0.1-0.2c0,0-0.1-0.1-0.1-0.1c-0.1-0.1-0.1-0.1-0.2-0.2
		c-0.2-0.1-0.3-0.3-0.4-0.4c-0.2-0.2-0.3-0.4-0.4-0.4c0,0,0,0.1,0.2,0.4c0.1,0.1,0.2,0.3,0.4,0.5c0,0,0.1,0.1,0.1,0.2
		C30.2,218.9,30.2,218.9,30.3,219C30.2,218.9,30.3,218.9,30.3,219z"/>
	<path class="st0" d="M18.9,310.7c1.1,0.6,2,1.5,2.6,2.6c0.3,0.5,0.6,1.1,0.9,1.8l0.3,0.7c0.1,0.3,0.4,0.7,0.4,0.8
		c0.2,0.4,0.4,0.7,0.6,1c1.6,2.8,3.1,5.4,4.4,7.6c2.6,4.4,4.1,7.3,3.9,6.5l-1.7-3.7c-2.4-3.9-4.6-7.4-6.5-10.5
		c-0.2-0.4-0.5-0.8-0.7-1.2c-0.1-0.2-0.4-0.6-0.5-0.9l-0.1-0.3c0-0.1-0.1-0.2-0.1-0.2c-0.3-0.7-0.6-1.3-1-1.8
		C20.8,312,19.9,311.2,18.9,310.7z"/>
	<path class="st0" d="M46.2,294.5c-0.6-1.1-1.3-2.2-1.9-3.4c-1.8-2.6-3.6-5.1-5.1-7.3C41.3,287,43.7,290.6,46.2,294.5z"/>
	<path class="st0" d="M52.5,301.5c0,0,2.2,3.8,4.3,7.6c2.1,3.8,4.1,7.7,4.1,7.7C59.2,313.3,56.5,308.4,52.5,301.5z"/>
	<path class="st0" d="M81.8,257.2l-5-9.3C84,262.7,81,256.1,81.8,257.2z"/>
	<path class="st0" d="M27.2,401.1c1.7,2.2,3.2,4.3,4.5,6.4c0.7,1.1,1.3,2.1,1.8,3.2c0.6,1.1,1.3,2.2,1.8,3.2c2.3,4,4.4,7.7,6.3,11.2
		c-1.6-3-3.1-5.9-4.5-8.5c-0.7-1.3-1.4-2.6-2.1-3.8c-0.7-1.2-1.3-2.4-1.9-3.4C30.7,405.1,28.5,402.3,27.2,401.1z"/>
	<path class="st0" d="M49.7,242.7c3.1,4.6,4.5,6.5,4.4,6.3C51,244.3,49.1,241.7,49.7,242.7z"/>
	<path class="st0" d="M56.1,454.4c-0.8-1.8-1.6-3.6-2.4-5.5c-3.5-7.5-7.3-14.9-12.1-23.9c2.3,4.5,4.7,9.3,7.2,14.3
		C51.3,444.3,53.7,449.3,56.1,454.4z"/>
	<path class="st0" d="M64.3,92.5c-0.5-0.8-1-1.8-1.5-2.5C62.6,89.8,63.3,90.9,64.3,92.5z"/>
	<path class="st0" d="M99,100.3c1.8,3.3,4.8,8.6,7.4,13.8C105.1,111.6,103,107.4,99,100.3z"/>
	<path class="st0" d="M42.5,464.2C38.9,456.5,41.9,463,42.5,464.2L42.5,464.2z"/>
	<path class="st0" d="M31.6,442.8c-0.5-1.7-0.9-3-1-3.2C30.9,440.2,31.2,441.3,31.6,442.8z"/>
	<path class="st0" d="M72.3,478.2c-0.1-0.2-0.1-0.4-0.2-0.7C72.8,480,72.7,479.6,72.3,478.2z"/>
	<path class="st0" d="M37.1,452.6c1.4,2.9,3,6.2,4.6,9.8C41,460.8,39.7,457.8,37.1,452.6z"/>
	<path class="st0" d="M37.7,454.3c-0.7-1.3-1.2-2.5-1.8-3.6c-0.5-1.1-1-2.1-1.5-3.1c-0.3-0.5-0.3-0.5,0.1,0.5
		c0.2,0.5,0.6,1.2,1.1,2.2c0.3,0.5,0.6,1.1,0.9,1.8C36.9,452.7,37.3,453.4,37.7,454.3z"/>
	<path class="st0" d="M47.5,474.9c-2-4.4-3.9-8.5-5.7-12.5c0.7,1.5,1,2.2,0.8,1.8C43.6,466.4,45.1,469.6,47.5,474.9z"/>
	<path class="st0" d="M74,165.7c0.3,0.5,0.7,1,1,1.5c2.4,3.6,3.1,4.6,2.7,4C77.4,170.6,75.9,168.4,74,165.7z"/>
	<path class="st0" d="M48.9,347.8c0.1,0.4,0.2,0.6,0.4,0.9c-0.1-0.4-0.3-0.8-0.4-1.2L48.9,347.8z"/>
	<path class="st0" d="M37.6,319.6c5.4,11.8,8,18.7,11.3,28c0,0-0.6-2.5-1.2-4.9c-0.6-2.5-1.2-4.9-1.2-4.9s-2.2-4.6-4.4-9.1
		C39.9,324.1,37.6,319.6,37.6,319.6z"/>
	<path class="st0" d="M63.5,243.5c0,0,2.1,4.9,4.2,9.9c2.1,4.9,4.1,9.9,4.1,9.9c-5.4-11.7-10.2-21.8-12.5-26.7
		c-2.3-4.9-2.3-4.5,1.7,4.8c0.6,0.6,3.1,5.6,6.4,12.8c3.3,7.2,7.4,16.8,11.5,26.4c2,4.8,4,9.6,5.8,14.1c0.9,2.3,1.8,4.5,2.6,6.6
		c0.8,2.1,1.6,4.1,2.3,6c1.5,3.7,2.8,6.8,3.7,9.1c0.9,2.2,1.4,3.7,1.7,4c0.4,1.4,0.7,2.9,0.9,4.3l4.5-1.7c-1.6-2.5-3-5.3-4.4-8.1
		c0.9,1.8,1.5,2.8,2,3.8c0.6,1,1.1,1.9,2.2,3.6c-1.7-2.8-3-5.3-4.1-7.5c-1.1-2.2-2-4.1-2.9-5.8c-1.7-3.3-3.1-5.8-4.7-8.4
		c-3.1-5.3-6.6-11.5-15.2-27c-6-10.8-10.4-18.3-5.9-11.1c0,0-3.6-5.9-7.4-11.7c-3.7-5.8-7.7-11.5-7.7-11.5c-4.5-6.7-3.2-5.2,1.3,1.5
		c-6.6-9.8-13.5-19.3-20.9-28.5l-2.3-2.9l-1.4,3.5c-0.4,1.1-0.5,2.6-0.1,3.8c0.2,0.6,0.5,1.1,0.9,1.6c0.2,0.2,0.3,0.4,0.5,0.6
		l0.1,0.2l0.1,0.1l0.7,1.5L31,220c1.4,2.7,3.7,7,6,11.4c2.3,4.4,4.6,8.9,6.2,11.8c4.5,9.7-2.5-4.7-1.4-2.2l10.5,20.7
		c3.9,8.6-4.9-8.5-12-22.9c4.2,10,6.4,14.3,10,21.4c1.8,3.5,4,7.8,7,13.8c1.5,3,3.2,6.4,5.1,10.5c1.9,4,4,8.7,6.5,14
		c0,0-2.4-4.9-4.8-9.9c-2.4-4.9-4.9-9.8-4.9-9.8c1.4,3.2,2.9,6.7,4.5,10.3c1.7,3.6,3.4,7.5,5.3,11.6c3.8,8.3,8.2,17.8,12.6,29.3
		c-0.5-1.4-1.9-4.9-3.5-9.1c-1.7-4.2-3.7-9-5.3-12.9c-3.3-7.8-5-12.2,0.5-0.8c1.4,3.2,3.1,7,5.1,11.5c2,4.5,4.3,9.8,7,16
		c-0.1,0.1,0.4,1.6,1.4,4.1c0.9,2.5,2.3,6.1,3.3,10.4l3.2-2.6c0-0.1,0.1-0.2,0.1-0.2l0,0l0,0c0,0,0,0-0.1,0
		c-0.1-0.1-0.2-0.2-0.4-0.3c-0.1-0.1-0.3-0.3-0.4-0.5c-0.1-0.1-0.3-0.3-0.4-0.5c-0.6-0.7-1.2-1.7-1.8-2.7c-1.2-2-2.3-4.2-3.4-6.5
		l1.1,0.7c-0.5-1-0.9-1.9-1.3-2.8c-0.2-0.5-0.5-1-0.7-1.4c-0.2-0.4-0.4-0.8-0.6-1.2c-0.8-1.5-1.5-2.8-2.2-3.9
		c-1.2-2.2-2.2-3.8-3-5.2c-1.6-2.8-2.8-4.7-5.5-9.3c-9.5-17.7-11.2-21.5-13.2-25.8c-16.2-27.8,10.6,19.5-8.9-13.2
		c-5.1-8.7-9.8-16.2-14.6-23.8c-2.4-3.8-4.7-7.5-7.2-11.4c-0.6-1-1.2-2-1.9-2.9l-0.5-0.7c-0.1-0.1-0.1-0.2-0.2-0.4
		c-0.2-0.6-0.5-1.3-0.8-1.9c-1.2-2.5-3.3-4.8-5.9-6.2l-5.3-2.8l2.3,5.5c2.6,6.2,5.9,12.6,9.6,19.6c8.3,16.7-1.8-2.7,1.1,3.3
		c0,0,2,3.6,4,7.2c1.9,3.6,3.9,7.3,3.9,7.3c1.8,3.6,1.1,2.5,0.7,2c3.1,6.2,3.4,6.4,4.1,7.5c0.7,1.1,1.8,3.1,6.5,13
		c1.6,2.5,6,12.9,11.3,25.7c5.3,12.8,11.4,28.2,16.6,40.7c2.3,6.3-1.5-2.9-1-0.9c2.5,6.2,4.6,11.1,6,14.9c1.4,3.7,2.3,6.3,2.8,7.7
		l3.5-1.4c-3-6-4.7-10.4-6.8-15.3c-2.1-5-4.6-10.6-8.8-19.5c0,0-2.6-6-5.3-11.9c-1.4-3-2.8-5.9-3.9-8.1c-1.1-2.2-1.9-3.6-1.9-3.6
		c1.1,2.1,1.8,3.7,2.3,4.7c0.5,1,0.7,1.5,0.6,1.6c-0.1,0.1-1.1-1.6-2.7-4.3c-3.2-5.6-9.1-15.4-15-24.4c3.4,5.9,6.1,11,8,14.4
		c0,0-4.3-7.4-8.9-14.6c-2.3-3.6-4.6-7.2-6.3-9.9c-1.7-2.7-2.9-4.5-2.9-4.5c-2.1-3.5-0.1-0.8,3.1,3.8c-1.3-1.9-2.5-3.8-3.5-5.2
		c-3.2-5.2-3.9-6.5-3.1-5.6c0.8,0.9,3,3.9,5.5,7.6c2.1,3.6,4.2,7.1,6.2,10.6c4.8,7,9.2,13.6,8.6,11.9c-1.2-1.9-3.5-5.5-6-9.5
		c1.3,1.8,2.1,3,1.6,2.1c-0.5-1-2.5-4-5.7-8.7l-3.6-6.9l-1.2-1.4c-4.3-6.9-8.6-13.8-13.6-20.2l-1.2-1.6l-1.6,1.3
		c-0.4,0.3-0.9,0.8-1.1,1.6c-0.3,0.8-0.2,1.7,0,2.3c0.5,1.2,1.3,1.9,1.4,2l0.7,1.5l0.9,1.9c0.6,1.3,1.2,2.6,1.8,3.8
		c0.6,1.3,1.3,2.5,1.9,3.8c0.7,1.2,1.2,2.5,1.9,3.7c7.4,14.1,14.4,27.4,21.4,43.1c3.5,7.9,7.1,16.4,10.9,25.9
		c3.8,9.5,7.9,20,12.2,32c-4.7-11.7-1.7-2.3-2.5-2.7c-2-6.6-5.4-15.8-9.6-26.4c-2.1-5.3-4.4-10.9-6.8-16.8
		c-2.4-5.8-4.9-11.8-7.5-17.9c2.7,6.3,3.6,8.8,3.7,9.3c0.1,0.5-0.6-0.9-1.3-2.5c0,0,1.1,2.7,2.9,6.7c1.7,4.1,3.9,9.5,6.1,14.9
		c4.4,10.9,8.6,21.8,8.6,21.8c-0.8-0.8,3.1,9.5,6.9,21.1c-0.6-2.4,0-1.2,1.4,2.2c1.3,3.4,3.4,9,4.9,15.5l2.6-1
		c-2.7-5.1-4.8-11.2-7-17.1c-2.2-5.8-4.5-11.2-6.3-15.3c-0.1-0.6,0.4,0.1,2,3.7c0.8,1.8,1.9,4.3,3.3,7.7c1.4,3.5,2.9,7.9,5,13.3
		c-1.1-3-2-5.8-2.9-8.3c-0.9-2.6-1.8-5-2.8-7.1c-1.8-4.4-3.6-8.1-5.3-11.9c-3.5-7.5-7.2-14.8-12.2-26.4c2.4,5.2,3.6,8,4.7,10
		c-5.7-12-19.4-41.5-15.9-34.7l2.4,5.1c-3.9-8.4-8.9-19-14.6-30.1c-5.6-11.1-12-22.6-18.4-33.1l-2.8,1.3c2.2,6.1,5,11.5,7.5,16.6
		c2.5,5,4.7,9.6,6.7,13.6c3.8,8,6.4,13.5,7.2,14.7c0.1,0.4-2.9-4.1-4-6.1c0,0,7.6,15,14.4,30.4c3.4,7.7,6.7,15.5,9,21.4
		c2.4,5.9,3.9,9.8,3.9,9.8c-1.3-2.7-0.5,1.5-0.7,2.7c-0.2,1.2-1.3-0.7-6.8-15.3c2.9,8.5,6.5,19,12.7,36.9c-1.8-5.9-3.8-14.8-1.1-6.9
		c3.2,11.1,4.3,14.9,5.6,19.4c0.7,2.2,1.4,4.6,2.4,8.2c1,3.5,2.4,8.2,4.2,15.1c-1-3.7-0.9-4.2-0.1-2.5c0.8,1.7,2.2,5.7,3.6,10.9
		l1.4-0.5c-0.5-0.8-0.8-1.7-1.1-2.7c-0.1-0.2-0.1-0.5-0.2-0.7c0-0.2-0.1-0.6-0.2-0.8c-0.2-0.5-0.4-1.1-0.5-1.6
		c0.4,1,0.6,0.7,0.9,0.7c0.1,0,0.3,0.1,0.6,0.5c0.1,0.1,0.1,0.2,0.2,0.4c0,0.1,0.1,0.2,0.1,0.3c0,0.1,0.1,0.2,0.1,0.3
		c0.1,0.3,0.3,0.8,0.5,1.3c0,0-0.2-0.5-0.4-1.3c0-0.1-0.1-0.3-0.1-0.4c0-0.2-0.1-0.4-0.2-0.5c-0.1-0.3-0.2-0.6-0.3-0.9
		c-0.2-0.6-0.5-1.4-0.8-2.2c-1.2-3.2-2.8-7.4-4.4-11.7c-3.3-8.4-6.9-16.8-6.9-16.8c3.4,8.4,1.5,1.1-1.2-6.5c0.6,1.8-2.3-5.5-6-14.3
		c-3.8-8.8-8.6-18.9-10.8-23.2c0,0,1.7,3.5,3.3,7c1.6,3.5,3.1,7,3.1,7c-7.4-16.1-12.4-24.7-17.1-32.3c-2.3-3.8-4.7-7.2-7.3-11.2
		c-0.7-1-1.3-2-2-3c-0.3-0.5-0.7-1.1-1.1-1.6c-0.2-0.3-0.4-0.5-0.5-0.8c-0.1-0.3-0.3-0.6-0.4-0.9c-0.6-1.3-1.5-2.5-2.6-3.6
		c-1.2-1.1-2.6-1.9-4.3-2.3l-0.4-0.1l0.1,0.5c0.7,4.1,1.9,8.8,3.9,14c-1-2.3-2.2-5.1-2.5-4.8c-0.2,0.2,0.2,3.7,4.2,13.3
		c2.1,4.2,6.8,13.6,13,25.9c6.2,12.3,13.9,27.6,20.7,44.2l2.2,6.5c0,0,2.6,6.4,5.2,12.7c2.6,6.4,5.1,12.8,5.1,12.8
		c-3.4-7.9-9.9-22.9-17.1-38.8c-7.3-15.9-15.6-32.5-21.2-44.4c5.9,14.1,1.4,4.1,10.7,25c3,7.5-5.5-11.2-8.2-17.4
		c0,0,5.3,12.2,10.7,24.4c2.6,6.1,5.2,12.2,7,16.8c1.8,4.6,3.1,7.7,3.1,7.7c-0.1-1.2,3.8,8.2,7.6,17.6c3.8,9.5,7.4,19.1,7.3,18
		c0,0-1.3-3.4-3.2-8.4c-2-5.1-4.6-11.8-7.3-18.5c-2.7-6.7-5.5-13.4-7.6-18.4c-2.1-5-3.6-8.3-3.6-8.3c-0.2-1.2,3.6,6.2,8.9,18.6
		c5.3,12.3,12.2,29.3,18.4,47.2c1.5,4.6,0.6,3-0.6,0.3c-1.3-2.6-2.9-6.3-2.8-5.9c0.5,1.2,1.6,4,2.9,7.6c1.3,3.6,2.9,7.9,3.7,12.1
		l3.4-1c-1.6-3.9-3.1-7.7-4.3-10.7c-1.2-3-2-5.3-2.3-6.1c0,0,0.4,0.9,0.9,2.3c0.6,1.4,1.3,3.3,2.1,5.1c1.5,3.7,3.1,7.3,3.1,7.3
		c-3.8-9.7-6.9-17.7-10.4-26.1c-3.5-8.5-7.1-17.4-11.9-29.1c-1.7-4-4.3-10-6.4-15.2c-2.2-5.2-4.2-9.5-4.7-10.1
		c2.8,6.6,3.8,10.8,3.7,12.3c-0.2,1.5-1.5,0.3-3.8-3.9c-0.5-1-3.1-6.8-6.6-14.2c-0.5-0.9-0.9-1.9-1.3-2.9c-0.4-1-0.9-1.9-1.4-2.9
		c-1-2-2-3.9-3.1-5.9l-0.9-1.4l-0.2-0.4c-0.1-0.1-0.2-0.3-0.2-0.4c-0.1-0.2-0.2-0.5-0.4-0.7c-0.5-1-1-1.9-1.6-2.8
		c-1.2-1.8-2.6-3.4-4-4.7l0.9-0.2c-0.6,1.3-0.8,2.7-0.6,4c0.1,0.6,0.3,1.2,0.5,1.8c0.1,0.3,0.3,0.6,0.4,0.8c0.1,0.3,0.4,0.5,0.4,0.9
		c0.6,2.4,1.1,4.2,1.5,5.5c1,3.5,1,3.9,0.5,2.9c-0.5-1-1.6-3.6-2.6-6.3c-0.2-0.6-0.5-1.4-0.7-1.9l-0.3-0.3c-0.1-0.2-0.2-0.3-0.3-0.5
		c-0.2-0.3-0.4-0.6-0.5-0.9c-0.6-1.3-0.8-2.6-0.9-3.4c0-0.8,0-1.3-0.1-1c-0.1,0.2-0.4,1.2-0.1,3.1c0.1,0.1,0.3,0.9,0.7,1.8
		c0.1,0.2,0.2,0.5,0.4,0.7c0.1,0.1,0.2,0.2,0.2,0.4l0.1,0.2l0.1,0.1c0.1,0.1,0.2,0.3,0.2,0.5c0.1,0.3,0.2,0.6,0.3,0.9
		c0.8,2.4,1.7,5,2.3,6.6c1.5,4.4,1,3.5,1.1,3.9c0,0.2,0.2,0.7,0.8,2.4c0.3,0.8,0.7,1.9,1.3,3.4c0.3,0.7,0.7,1.5,1.1,2.5
		c0.4,0.9,0.8,1.9,1.2,3.1c1.8,2.9,15,37.6,4,8.5c7.4,18,7.7,19.2,16.1,40.5c-1.1-3.5,1.1,1.2,4.4,9c3.3,7.8,7.6,18.8,10.8,28.1
		c-0.5-1,0.7,3.2,1.2,5.2c1.6,5,3.1,9.7,4.5,14.2c0.3,1.1,0.7,2.2,1,3.3c0.2,0.5,0.3,1.1,0.5,1.6c0.1,0.6,0.5,1,0.7,1.5
		c1,2,1.3,4.2,1.1,6.3l0.3,0c-4.8-11-8.7-20.9-12.9-31.3c-4.2-10.3-8.5-21-14.5-33.4c-0.7-1.6-3-6.4-4.7-10
		c-1.7-3.6-2.8-5.9-0.9-2.6c-2.6-4.7-5.1-9-11-18.8c-1.3-2.5-2.2-3.9-2.6-4.7c-0.4-0.7-0.4-0.8-0.1-0.3c0.3,0.4,1,1.4,1.7,2.6
		c0.4,0.6,0.8,1.3,1.2,2c0.4,0.7,0.9,1.5,1.3,2.2c3.7,6,7.4,12.8,3.6,5.2c-0.2-0.2-0.8-1.1-1.6-2.5c-0.4-0.7-1-1.5-1.6-2.5
		c-0.6-0.9-1.2-1.9-1.9-3.1c-1.4-2.3-3.1-4.9-5.1-7.5c-0.5-0.6-1-1.3-1.6-2c-0.3-0.3-0.6-0.6-0.8-1l-0.4-0.4
		c-0.1-0.1-0.2-0.2-0.3-0.4c-0.3-0.7-1-1.8-1.8-2.4c-0.9-0.6-2-0.9-3-0.9l-1.1,0l0.2,1.1c1.2,6.2,3.6,12,5.7,16.6
		c-0.3-1-1.1-3.1-2.1-5.9c-1-2.9-2.3-6.5-3-10.7l-0.1-0.5l0.5,0c0.8,0,1.7,0.1,2.4,0.6c0.7,0.4,1.3,1.1,1.7,1.9
		c0.2,0.4,0.3,0.7,0.5,1l0.8,0.9c0.5,0.6,1,1.2,1.6,1.9c2,2.6,3.9,5.3,5.6,8.2c0.8,1.4,1.7,2.7,2.5,4.1c0.8,1.4,1.6,2.7,2.4,3.9
		c1.5,2.6,2.9,5,4.1,7.1c-0.3,0.2-2.2-2.8-5.6-8.2c-0.9-1.3-1.8-2.8-2.9-4.5c-1.1-1.6-2.1-3.5-3.4-5.3c-1.3-1.8-2.7-3.8-4.4-5.7
		c-0.4-0.5-0.8-1-1.3-1.4c-0.2-0.3-0.6-0.5-0.7-0.9c-0.2-0.4-0.3-0.6-0.5-0.8c-0.6-1-1.7-1.5-2.9-1.4l0.8-0.9
		c0.8,4.2,2.4,8.7,4.4,13.3c2,4.7,4.4,9.5,6.8,14.8c11.8,28.6,4.5,12.7,6.6,17.6c5.4,13.5,9.3,23.1,12.4,30.6c3,7.5,5.2,13,7.3,18.2
		c4.2,10.3,7.8,19.5,16,42.2c1.5,4.6,2,7,2.2,8.1c0.2,1.1-0.1,0.7-0.4,0c-0.7-1.5-2-4.8-1.5-2.7c-2-6-4-11.2-5.8-15.9
		c-1.8-4.7-3.3-9.1-4.8-13.1c-2.9-8.1-5.5-15.3-8.4-23.3L66,504c-3-7.4-8.9-23.2-12-31.8c1.5,4.3,4.9,13.8,9.4,25.9
		c2.3,6.1,4.8,12.9,7.4,20.1c2.7,7.2,5.8,14.7,8,22.7l0.3-0.1c-9.9-22.6-19.8-46.6-27.4-64.1c-3.4-7.2-9.5-19.5-6.9-13.6
		c0,0,1.5,3.2,3,6.4c1.5,3.2,3,6.4,3,6.4c2.5,6-0.4,0-3-5.4c-2.6-5.4-5-10.3-1.3-2.2c-2.5-5.2-5.2-10.7-8.2-16.3
		c-1.5-2.8-2.9-5.8-4.4-8.7c-1.6-2.8-3.4-5.7-5.9-7.6l2.3-1.4c1.3,8.6,4.7,17.4,8.2,27.2l1.1,4.9c0-0.3-1.4-4.4-3.2-9.4
		c-1.8-4.9-3.7-10.7-4.8-14.2c0.8,2.6,1.9,6.4,3.4,10.7c1.5,4.3,3.2,9.2,4.9,14.1c3.4,9.8,7,19.7,9.4,25.3l-6-17.8
		c3.4,8.9,7.3,18.9,11.3,29.4c2,5.2,4,10.7,5.9,16.2c2,5.5,3.9,11.1,5.8,16.7c-3-10.4-1.9-5.1-6.8-21.3c2,7.1-2.9-7.3-7.8-20.5
		c-4.8-13.2-9.3-25.4-5.7-14.2c-2.5-8-4.9-14.8-7.5-22.2c-1.3-3.7-2.7-7.5-4-11.6c-1.3-4.1-2.5-8.6-3-13.6l-4.6,2.7
		c0.2,0.2,0.4,0.4,0.7,0.6c0.2,0.2,0.5,0.5,0.7,0.7c-0.1-0.2-0.4-0.5-0.6-0.8c-0.3-0.3-0.5-0.5-0.3-0.4c0.2,0.1,0.8,0.5,2,1.9
		c1.2,1.4,2.8,4,4.8,8.4c0.4,0.8,1.4,2.7,2.1,3.9c0.3,0.5,0.4,0.7,0.6,1.2c-0.2-0.4-0.3-0.6-0.5-1c0.4,0.7,0.5,0.8-0.2-0.4
		c-1-2.2-1.9-4.2-2.6-5.7c-0.7-1.6-1.3-2.7-1.6-3.4c0.6,1,1.4,2.3,2.2,3.9c0.8,1.6,1.7,3.5,2.8,5.6c2.1,4,4.4,8.6,6.7,13.4
		c4.5,9.4,8.9,19.1,11.1,24c4.6,10.9-2.2-4.4,0.2,1.6l6.6,14.6c0.2,1.6,11.7,29.1,0.5,3.7c0,0,2.5,5.8,4.9,11.5
		c1.2,2.9,2.5,5.8,3.4,7.9c0.9,2.2,1.5,3.6,1.5,3.6c1.3,3.2,2.7,6.7,4.4,10.4l5.1-2c-1.7-6.3-4.1-12.7-6.3-18.6
		c-2.2-5.9-4.4-11.5-6.1-15.9c-4-11.1-10.9-27.8-7-18.3c0,0-0.9-2.3-2.2-5.7c-0.7-1.7-1.4-3.7-2.2-5.9c-0.4-1.1-0.8-2.2-1.3-3.3
		c-0.5-1.1-0.9-2.3-1.4-3.4c-3.7-9.1-7.4-18.2-7.4-18.2l0-0.4c-3.7-9.2-7.4-18.4-11.2-27.8c-2.1-4.7-4.3-9.3-6.3-14
		c-2-4.7-3.8-9.4-4.7-14.3l-2.2,2.6c0.4,0,0.7,0,0.9,0.2c0.3,0.1,0.5,0.3,0.6,0.5c0.1,0.1,0.2,0.3,0.3,0.5c0,0,0.2,0.4,0.2,0.6
		c0.1,0.2,0.3,0.4,0.4,0.6l0.7,0.8l0.6,0.7c1.6,1.9,3.1,3.9,4.4,6c0.7,1.1,1.3,2.1,2,3.2c0.6,1.1,1.3,2.3,2,3.4
		c1.3,2.2,2.6,4.5,3.9,6.8c2.5,4.6,5,9.3,7.3,14c2.4,4.8,4.7,9.6,6.9,14.6c2.8,5.9,5.4,11.9,8.4,19c3,7.1,6.2,15.3,10.4,25.4
		l1.3,4.1c1.1,2.6,2.5,5.6,3.9,9l3.9,9l1.4-9.8c0.4-2.7-0.2-5.7-1.5-8.3l-0.3-0.6l-0.2-0.6c-0.2-0.6-0.3-1.1-0.5-1.7
		c-0.4-1.1-0.7-2.3-1.1-3.5c-1.4-4.6-2.9-9.3-4.3-13.6c-2.8-8.6-5.3-15.7-6.5-18.5c-1.3-4.4-3.6-11.3-6.8-19.7
		c-3.1-8.4-7-18.2-11.1-28.3c-4.1-10.1-8.3-20.5-12.2-30.2c-2-4.6-3.7-9.2-5.1-13.5c-0.3-1.1-0.7-2.1-1-3.2
		c-0.2-0.6-0.4-1.3-0.5-1.9c0-0.3-0.2-0.4-0.3-0.6c-0.1-0.2-0.3-0.4-0.3-0.5c-0.1-0.2-0.2-0.3-0.2-0.5c-0.6-1.2-0.6-2.2-0.2-3.3
		c-0.1-0.2-0.1-0.3-0.1-0.5l-4.6,1l0.5,0.1c1.7,1.6,3.1,3.3,4.3,5.3c0.3,0.5,0.6,1,0.8,1.5c0.2,0.3,0.2,0.4,0.5,1l0.5,0.9
		c0.7,1,1.3,2.1,1.9,3.2c1.2,2.1,2.4,4.3,3.5,6.6c0.5,1.2,1.2,2.4,1.8,3.5c0.6,1.2,1.2,2.3,1.8,3.5c4.7,9.4,9.5,19.4,14.6,30.9
		l-0.2-1.6c3.2,6.9,6.6,15.3,10.2,24.8c1.8,4.7,3.6,9.7,5.5,14.9c0.5,1.3,1,2.6,1.4,3.9c0.5,1.3,1,2.6,1.5,4c1,2.7,2.1,5.4,3.1,8.1
		l4-1.2c-0.9-5.1-2.6-10-4.3-14.8c-1.7-4.7-3.4-9.6-5.2-14.5c0.5,1.1,1.5,3.7,2.5,6.7c1.1,3.1,2.3,6.6,3.3,9.5
		c-0.8-2.4-1.6-4.9-2.5-7.3c-0.8-2.5-1.7-4.9-2.5-7.4c-1.7-5-3.6-9.9-5.5-14.9c-3.8-9.9-7.8-19.9-11.9-29.6
		c-8.2-19.6-17.3-38.2-24.2-55.4c-3.8-8.5-6.5-14.6-8.5-20.6c0.3,0.8,0.5,1.5,0.8,2.1c-0.3-0.9-0.8-2.2-1.2-3.5
		c-1-3.2-1.8-6.5-2.3-10.1l-3.1,2.7c0.5,0.2,1,0.4,1.5,0.7c-0.5-0.3-1.1-0.5-1.5-0.7l3.1-2.7c0.4,3,1,5.7,1.7,8.2
		c-0.7-2.2-1.4-4.8-1.9-8.1l-2.8,2.5c2.2,0.6,4.2,2.2,5.4,4.9c0,0.1,0.1,0.2,0.1,0.2l0.1,0.3c0.1,0.3,0.3,0.6,0.5,0.9
		c0.2,0.4,0.5,0.7,0.7,1.1c0.5,0.7,0.9,1.5,1.4,2.2c0.9,1.5,1.9,3,2.8,4.5c0,0,0.5,1,1,2c0.5,1,0.9,2,0.9,2c0.4,0.7,0.8,1.3,1.2,2.1
		c2.5,4.5,3.6,6.3,3.7,6.3c0.2,0-0.6-1.7-1.8-4.2c2.7,4.6,5.1,8.8,7,12.1c1.6,3.9,4.8,10.1,7.9,16.7c3.2,6.6,6.3,13.7,8.2,19.1
		c1.3,2.7,5.2,11.9,9.1,22.1c1,2.6,2,5.2,2.9,7.8c1,2.6,1.8,5.2,2.7,7.6c0.9,2.4,1.7,4.7,2.5,6.8c0.2,0.5,0.4,1,0.5,1.5
		c0.1,0.3,0.1,0.5,0.2,0.8c0.1,0.3,0.2,0.5,0.3,0.8c0.4,1,0.8,1.9,1.2,2.8l2.6-1c-0.7-2.6-1.3-4.4-1.7-5.2c0-0.4-0.8-3.4,0.7,2.1
		c-1.5-5.8-3.1-11.5-4.8-17c-1.7-5.5-3.4-10.9-5.2-15.9l-1-5c0,0-2.2-6.1-4.4-12.2c-2.3-6.1-4.5-12.1-4.5-12.1
		c-2.4-7.5-4.1-12.8-4.5-14.4c-0.4-1.6,0.5,0.5,3.4,7.8c-6.6-17.7-9.5-24.8-12.2-31.2c-2.7-6.4-5-12.2-11.9-26.7l1,1.3
		c-2.3-5.2-5.6-12-8.6-18.2c-3.1-6.2-6-11.8-7.2-15c-0.8-2-1.8-4.4-2.9-7.5l-2.5,1.2c3.7,6.4,8.7,15.1,14.1,25.6
		c5.5,10.5,11.4,22.6,17.6,35.7c6.1,13.1,12.7,27,18.8,41c3.1,7,6,14.1,8.8,21.1c2.7,6.9,4.8,14.2,8.3,20.8l3.4-1.3
		c-1.9-8.8-5-16.6-7.5-24.1c1.5,6.2-0.8-1.1-3.9-10.1c-3.1-9.1-7-19.9-7.9-20.9c-1.1-3.7-4.3-12.3-0.2-2.4
		c-3.1-7.8-5.8-14.7-8.3-20.9c-2.5-6.2-4.9-11.7-7.2-16.9c-4.6-10.4-9-19.4-14.5-29.7c-1.5-3.6,3.6,6.3,2.2,3.1
		c-0.6-1.2-1.9-3.6-3.1-6c-0.6-1.2-1.3-2.5-1.9-3.7c-0.6-1.1-1.1-2.1-1.4-2.9c-0.7-1.5-0.1-0.5,1,1.5c0.3,0.5,0.6,1.1,0.9,1.6
		c0.3,0.6,0.7,1.3,1,1.9c0.7,1.3,1.4,2.7,2,3.9c-0.9-1.8-1.8-3.5-2.6-5.2c-0.9-1.6-1.6-3-2.4-4.5c-0.7-1.4-1.4-2.7-2-4
		c-0.3-0.6-0.6-1.2-0.9-1.8c-0.4-0.8-0.7-1.5-1-2.2c-0.2-0.2-0.4-0.4-0.6-0.6l-0.2-0.1l0,0c0,0-0.1-0.1-0.1-0.1c-0.1,0,0-0.1-0.1,0
		c-0.3,0.2-0.6,0.3-0.8,0.4c-0.4,0.1-0.5,0-0.3,0.1c0.1,0,0.1,0.1,0.2,0.1c0.1,0.1,0.2,0.1,0.3,0.2c0.1,0.1,0.2,0.2,0.3,0.3
		c0.1,0.1,0.1,0.1,0.2,0.2l0,0l-3.8-0.3c4.1,5,6.4,8,7.9,9.9c1.5,1.9,2.3,2.5,3,3.1c9,14.8,13.7,22.1,20.5,32.6
		c1.4,2.7,3.3,6.2,3.5,6.8c0.2,0.6-1.2-1.8-6.6-11c1.5,2.6,4.6,7.8,8.1,14.3c3.5,6.5,7.4,14.4,10.9,22.1c7,15.4,12.6,30,13.2,30.4
		c0.5,1.5,1.7,4.4,3.3,7.4l2.6-1.1c-1.4-4.6-3.4-9.5-4.1-11.3c-4.9-12.5-7.5-19.4-10.3-26.1c-2.7-6.7-5.5-13.4-10.7-25.5l2.8,6.8
		c-4.8-9.3-8.8-20.1-18-39.4l0.3,0.5c-4.6-10.2-7.8-16.6-10-21.1c-2.2-4.5-3.5-7-4.7-9.2c-1.2-2.2-2.2-4.1-3.8-7.3
		c-0.8-1.6-1.8-3.6-3-6.1c-1.2-2.5-2.6-5.6-4.1-9.5l-1.8,1.6c0.9,0.5,2,1.3,3,2.5c0.5,0.6,0.9,1.3,1.3,2c0.2,0.4,0.4,0.8,0.5,1.2
		c0.1,0.2,0.1,0.4,0.2,0.7c0.1,0.3,0.3,0.6,0.5,0.9c0,0-0.1-0.2-0.2-0.5c-0.1-0.1-0.1-0.4-0.1-0.5c0-0.2-0.1-0.3-0.1-0.5
		c-0.1-0.6-0.3-1.2-0.3-1.2c0.2,0.2,0.4,0.5,0.6,1c0.1,0.2,0.2,0.5,0.4,0.9c0.1,0.2,0.2,0.3,0.3,0.5c0.1,0.1,0.2,0.3,0.3,0.5
		c0.9,1.3,1.9,2.9,3.1,4.9c2.4,4,5.6,9.2,9.1,15c7,11.7,15.4,25.9,22.4,38c0,0-1.2-2.2-2.4-4.5c-1.2-2.2-2.4-4.4-2.4-4.4
		c4,6.5,8.9,16,13.6,25.6c2.3,4.8,4.7,9.6,6.8,14.1c1.1,2.2,2.1,4.4,3.1,6.4c0.5,1,1,2,1.4,2.9c0.4,0.9,0.8,1.8,1.2,2.7
		c0.7,1.6,0.1,0.4-0.9-1.8c-0.3-0.6-0.4-0.9-0.8-1.6c-0.3-0.6-0.7-1.2-1-1.8c-0.7-1.2-1.3-2.5-1.9-3.5c0.9,1.9,1.8,3.5,2.6,5
		c0.2,0.4,0.4,0.7,0.6,1.1c0.1,0.3,0.3,0.6,0.4,0.9c0.3,0.7,0.6,1.4,0.9,2c1.1,2.5,2.1,4.4,2.9,5.8c1.6,2.9,2.5,3.9,2.8,4.2
		c0.4,0.3,0.2,0,0.4,0.1c0.1,0.1,0.3,0.2,0.7,0.6c0.2,0.2,0.5,0.5,0.9,0.8c0.2,0.2,0.5,0.4,0.7,0.6c0.3,0.2,0.8,0.4,1.2,0.6l3.8,1.7
		l-1.1-4.1c-0.5-1.9-1.4-5.2-3.4-10c-0.9-2.7,0-1.1,0.1-1.2c0.1-0.1,0-0.5-0.6-2.2c-0.6-1.7-1.8-4.4-3.7-9
		c-0.9-2.4-2.9-6.9-5.6-12.7c-2.7-5.8-6.1-12.9-9.8-20.4c-1.9-3.8-3.8-7.7-5.7-11.6c-1.9-3.9-3.9-7.8-5.8-11.6
		c-3.8-7.7-7.4-15-10.3-21.3c2.4,5.6,4.9,11.1-1.4-1.3c-2-4.1-4.3-8.9-6.8-14c-2.5-5.2-5.1-10.7-7.8-16.3l-0.3-0.3
		c-0.1-0.1-0.2-0.2-0.3-0.3c-0.1-0.1-0.2-0.2-0.2-0.3c-0.1-0.2-0.2-0.4-0.3-0.5c-0.1-0.3-0.1-0.6,0.1-1l-3.3,0.5
		c9,11.4,17.1,23.2,22.8,31.2c1.4,2.3,1.9,3.2,1.9,3.3c4.5,6.7,11.4,18,17.6,28.7c6.2,10.7,11.6,21,14.1,25.2
		c0.7,1.9,2.1,4.9,3.9,8.7c1.8,3.8,3.9,8.5,7.2,13.4l3.2-1.3c-0.6-4-2-8-3.5-11.9c-0.8-1.9-1.6-3.9-2.3-5.9c-0.8-2-1.5-4-2.3-6
		c-3.1-8.1-6.5-16-9.5-23c-6-14.1-10.6-24.5-10.1-24.6c0,0-1.3-2.9-3.2-7.2c-2-4.3-4.6-10-7.2-15.7c-5.2-11.4-10.4-22.8-10.4-22.8
		l0.7,1.1c-0.8-1.7-1.5-3.3-2.1-4.9c-0.7-1.7-1.4-3.3-2-4.9l-0.5-0.5c-0.1-0.1-0.1-0.1-0.1-0.2c0,0-0.1-0.1-0.1-0.1
		c-0.1-0.1-0.1-0.2-0.1-0.2c0,0-0.2,0-0.2,0c-0.1,0,0,0,0,0c0.3,0.1,0.2,0.1,0.2,0l-3.3-0.1c5.8,9.1,9.7,15.9,12.9,21.2
		c3.1,5.4,5.5,9.5,7.9,13.5c3.4,6.6,0.7,1.9,0.4,1.4c8.4,16,14.1,26.4,18.9,35.1c2.4,4.4,4.6,8.3,6.8,12.3c1.1,2,2.3,4,3.5,6.2
		c1.2,2.1,2.6,4.4,4.4,6.6l2.7-1.3c-0.8-3-1.9-6.2-3.4-9.6c-1.5-3.4-3.3-6.9-5.1-10.9l-1.2-3.9c-2-4.2-7.5-16.3-15.1-31.8
		c-3.8-7.8-8.3-16.4-12.9-25.3c-2.3-4.5-4.6-9.1-6.9-13.7l-1.7-3.5l-0.6-1.2l-0.4-0.9c-0.5-1.1-1-2.3-1.4-3.5l-0.4-1.1l-0.1-0.3
		l0-0.1c0,0,0-0.1,0-0.1c0,0,0,0,0.1,0c0.2,0,0.4,0.1,0.5,0.2c0.6,0.4,1.1,1,1.6,1.6c1,1.2,1.9,2.5,2.7,3.8c-0.1-0.2-0.4-0.5-1.4-2
		c0.2,0.3,0.5,0.7,0.7,1l0.3,0.5l0.2,0.3l0.1,0.1l0,0.1l0,0l0,0l0,0l1.4-1c-0.4,0.5,2.1-1.9-0.7,0.9l0,0c0.2-0.2,0.3-0.2,0.5-0.4
		l0.9-0.7l0.1-0.1l0,0l0,0l0,0l-3.3,2.3c5.1,7.3,9.9,15.3,14.9,23.5c4.9,8.2,9.8,16.6,14.6,24.9c4.7,8.3,9.3,16.5,13.4,24.1
		c2,3.9,4,7.7,6,11.3c1,1.8,2,3.6,3,5.3c0.5,0.9,1.1,1.7,1.6,2.5c0.3,0.4,0.6,0.8,1,1.3c0.2,0.2,0.4,0.4,0.7,0.7
		c0.1,0.1,0.3,0.3,0.5,0.4c0.1,0.1,0.7,0.5,1.2,0.6l4.4,1l-1.7-4.2c-4.8-12-9-21.1-11.7-26c0,0-3.5-7.8-7.2-15.5
		c-3.7-7.7-7.5-15.3-7.5-15.3c18.7,40-3.4-5.6,4,10.9c-3.7-7.8-8.5-18-11.2-23.7c-2.7-5.8-3.2-7.2,1.6,2.3l1.4,3
		c2.2,3.3-3.9-9-10.3-22c-1.6-3.3-3.2-6.6-4.8-9.7c-1.5-3.1-2.9-6-4.1-8.6c-0.6-1.3-1.1-2.4-1.6-3.4c-0.1-0.3-0.2-0.5-0.3-0.7
		c-0.1-0.2-0.1-0.3-0.2-0.5c-0.1-0.2-0.2-0.3-0.3-0.4c-0.3-0.4-0.4-0.6-0.6-0.9c-0.5-1.1-0.3-1.8-0.3-1.7c0-0.2,0-0.5,0-0.7
		l-2.9,0.8c10.8,15.4,19.9,31.9,29,48.2c4.6,8.1,9,16.3,13.5,24.4c2.2,4.1,4.5,8.1,6.7,12.2c2.3,4,4.2,8.2,6.9,12.2l3.4,5.1
		l-0.1-6.1c0-3.2-1.1-6-2.2-8.7c-1.1-2.6-2.4-5.1-3.5-7.5c-2.2-5-4.4-10.1-6.7-15c-4.7-9.9-9.5-19.7-14.5-29.3
		c-5.1-9.6-10.1-19.1-15.2-28.6c-2.5-4.7-5-9.5-7.5-14.2c-0.6-1.2-1.3-2.4-1.9-3.5c-0.6-1.1-1.3-2.3-1.9-3.5
		c-0.6-1.2-1.2-2.3-1.8-3.5l-0.8-1.8l-0.9-2.1l-0.3-0.3l-0.2-0.2c-0.1-0.1-0.1-0.2-0.2-0.2c-0.1-0.1-0.2-0.3-0.2-0.4
		c-0.1-0.2-0.1-0.5,0-0.8l-3.7,0.8c1.1,1.4,2.3,2.8,3.3,4.2c-1-1.5-2-2.9-3-4.4l3-0.7c-0.2,0.4-0.2,0.7-0.2,1.1
		c0,0.2,0.1,0.4,0.2,0.6c0.1,0.2,0.2,0.4,0.5,0.8c-0.4-0.4-0.5-0.5-0.6-0.7c-0.1-0.2-0.2-0.4-0.3-0.6c-0.1-0.4-0.1-0.8,0-1.2
		l-2.4,0.5c2.6,3.1,5,6.3,7.4,9.6c2.4,3.3,4.7,6.6,6.9,10c2,3.1,3.2,5.3,2.6,4.6c-0.3-0.4-1.1-1.5-2.5-3.5c-1.4-2-3.4-5-6.3-9.1
		c2.9,4.4,7.7,11.3,11.6,17.4c3.9,6,7.1,11.1,7.3,11.3c4.9,8.6,6.8,12.1,7,12.7c0.2,0.6-1.2-1.8-3.1-4.9c-3.8-6.3-9.3-15.3-6.3-10.1
		c0,0,2.1,3.5,4.2,7.1c2.1,3.6,4.1,7.1,4.1,7.1l-1.8-3.3c3.4,5.7,5.4,8.8,7.9,13.1c2.5,4.3,5.7,9.8,11.1,20.6
		c3.4,6.9,4.1,8.7,4.4,9.5c0.3,0.8,0,0.5,1.3,3.2c0,0,0,0.1,0.1,0.4c0.1,0.3,0.3,0.7,0.6,1.4c0.6,1.3,1.5,3.4,3.1,6.7
		c1,2.1,2.1,4.1,3.3,6.2l2.5,4.1l1.4-4.6c0.5-1.5,0.5-3.3,0-4.8c-0.2-0.8-0.6-1.5-0.9-2.1l-0.2-0.4c0-0.1-0.1-0.1-0.1-0.2l-0.2-0.6
		l-2.3-6.9c-1.6-4.6-3.2-9.2-5-13.7c0,0,1.2,3.4,2.3,6.8c1.1,3.4,2.1,6.9,2.1,6.9c-2.7-7.5-5.8-15.3-7.5-19.3
		c-1.7-4-1.9-4.3,0.9,3.5c-1.2-3.4-3.2-8.5-5.9-14.8c-2.6-6.2-5.9-13.7-9.8-21.6c-3.9-7.9-8.3-16.3-12.8-24.7
		c-1.1-2.1-2.3-4.2-3.4-6.3c-1.2-2.1-2.4-4.2-3.6-6.2c-2.3-4.1-4.5-8.2-5.8-12.4l-2.7,1.5c3.9,4.7,7.2,9.7,10.3,14.4
		c3.1,4.7,5.9,9,8.4,12.9c4.9,7.8,8.3,13.7,9.8,16.3c4.4,7.1,8.7,14.2,12.8,21.7c2.1,3.7,4.1,7.6,6,11.6c2,4,4,8,5.4,12.4l2.2-1.2
		c-0.4-0.5-0.8-1.1-1.1-1.7c-0.2-0.3-0.3-0.6-0.4-0.9c-0.1-0.3-0.2-0.6-0.4-1.1c-0.7-1.4-1.3-2.9-2-4.4c-1.3-2.9-2.6-5.9-4-8.9
		c2.7,6.2,3.8,10.1-5.8-11.2c2.4,3.6-1.9-6.2-7.7-19.1c-5.6-13-13.4-28.8-17.4-37.4c1.5,3.2,1.1,2.5-0.5-0.3
		c-1.6-2.8-4.2-7.8-7.3-13.1c-3.1-5.3-6.6-11.2-9.4-15.9c-0.7-1.2-1.4-2.3-2-3.3c-0.4-0.5-0.7-1-1-1.4c-0.3-0.4-0.5-0.8-0.8-1.2
		c-0.9-1.5-1.3-2.6-1.6-3.1l-2.5,1.4c0.3,0.4,0.4,0.4,0.1-0.1l2.3-1.3c0.1,0.3,0.4,1.8,1.8,4.1c-1.1-1.6-1.6-3.1-2-4.1l-2,1.1
		c6.7,9-1.6-1.4,6.1,9.3c8.6,11.3,17.2,23.7,26,36.9c4.4,6.6,8.7,13.3,12.8,20.3c2.1,3.5,4,7.1,5.9,10.8c2,3.7,4,7.3,4.5,11l3.6-1.3
		c-2.5-4.5-4.4-9.4-6.3-14.4c-1-2.5-2-5.1-3-7.6c-1.1-2.5-2.1-5-3.2-7.5C103.5,156.1,99,146,94,136c-0.6-0.7,3.5,8-2.3-2.9
		c0,0-3.3-6.9-6.8-13.6c-3.5-6.7-7.2-13.4-7.2-13.4c-2.9-4.9-4.5-7-6.5-10.2c-1-1.6-2.2-3.4-3.7-6c-1.5-2.6-3.4-5.9-6.2-10.4
		c1.5,2.6,3.6,6.4-0.5,0c-2-3.2-4.2-6.3-6.5-9.4l-2.6,1.5c1.9,4.3,4.9,7.6,7.4,11c2.5,3.5,4.9,7,7.4,10.6c4.9,7.1,10,14.1,14.9,21.3
		c4.9,7.2,9.8,14.3,14.7,21.5c5.1,7.1,9.4,14.6,14.3,22l2.9-1.7c-9.9-20.5-20.1-41-31.4-61c-5.6-10-11.5-19.8-17.5-29.6
		c-3-4.9-6.2-9.7-9.2-14.5l-4.6-7.2l-0.3-0.5c-0.1-0.2-0.3-0.4-0.4-0.6c-0.2-0.3-0.4-0.5-0.6-0.8c-0.4-0.5-0.7-1.1-1-1.6
		c-0.6-1.1-1.1-2.3-1.4-3.6l-2.5,1.7c2.9,2.1,5.4,4.9,7.8,7.8l3.6,4.4l3.6,4.4c4.8,5.9,9.3,12,13.8,18.1c2.2,3.1,4.5,6.2,6.7,9.2
		c2.3,3.1,4.5,6.1,6.8,9.2c4.5,6.1,8.8,12.2,12.8,18.6c-2-3.3-3.2-5.2-3.7-6c-0.5-0.9-0.4-0.7,0.2,0.1c0.6,0.8,1.7,2.4,3,4.4
		c1.3,2.1,3.1,4.4,4,6.7l3.5-1.6l0-0.1c0,0,0,0.1,0,0.1l-3.5,1.6c-0.6-1.5-1.1-2.3-1.2-2.6c-0.1-0.3,0-0.2,0.3,0.1
		c0.5,0.6,1.3,1.8,1.1,1.1c0.2,0.4,0.3,0.7,0.4,1.1l2.3-1C99,100.5,91.2,87,83.2,73.7c-2.6-3.5-9.5-14.4-16.1-24.7
		c-3.3-5.2-6.6-10.3-9.1-14.4c-2.6-4.1-4.6-7.1-5.5-8c0,0,2.1,3.2,4.2,6.3c2,3.2,4.1,6.4,4.1,6.4c-5.6-8.3-2.3-2.1,2.3,5.9
		c4.6,8,10.3,17.8,9.1,16.8c4.4,6.4,9.5,14.4,14.8,23.5c5.3,9.1,10.9,19.4,16.4,30.3l3-1.3c-1.1-3-2.9-5.2-4.4-7.5
		c-1.5-2.4-3.1-4.7-4.8-7.1c-3.3-4.6-6.9-9.2-10.5-13.6c-4.7-6.6,4.4,5.4,2,1.8c-3-3.6-6.2-7.7-10.1-13c-4-5.3-8.8-11.8-15.3-20.1
		l1.6,1.8c-1.6-2-3.2-4-4.7-5.8c-1.6-1.9-3-3.7-4.5-5.5c-2.9-3.6-5.8-6.8-9.1-9.2l-3.5-2.5l1,4.2c0.3,1.4,0.8,2.8,1.5,4
		c0.3,0.6,0.7,1.2,1.1,1.8c0.2,0.3,0.4,0.6,0.6,0.8l0.3,0.4l0.3,0.3c1.3,2.1,2.6,4.1,3.9,6.1c2.6,4.1,5.1,8,7.6,11.9
		c4.9,7.8,9.5,15.5,14.2,23.6c9.4,16.2,18.8,34.1,30.7,58.8l-1.7-4.6c4.4,9.2,6.3,13.2,8,16.9l3.4-1.9c-0.9-1.4-1.7-2.7-2.7-4.3
		c-3.6-5.1-1.3-1.3,2.5,4.5l-2.9,1.7c-4.8-10.1-12.8-26.1-8.3-18.1c1.6,3.8,4.6,10.2,8.3,18.1l2.8-1.6c-2.1-3.2-4.3-6.8-6.7-10.5
		c-1.2-1.9-2.4-3.8-3.6-5.7c-1.3-1.9-2.6-3.8-3.9-5.8c-5.3-7.8-10.8-15.8-15.9-23.3c-5.2-7.5-10-14.4-13.8-20
		c-1.9-2.8-3.6-5.3-4.9-7.3c-0.7-1-1.3-1.9-1.8-2.7c-0.5-0.8-1-1.5-1.3-2c-3.1-3.9-4.3-5.7-4.8-6.5c-0.5-0.7-0.3-0.4-0.1,0.2
		c0.3,0.6,0.7,1.3,0.6,1.2c0,0-0.2-0.2-0.6-0.8c-0.3-0.5-0.9-1.4-1.5-2.7l-3.1,1.8c0.5,0.6,1.4,1.9,2.6,3.4c0,0,0.8,1.2,1.5,2.4
		c0.8,1.2,1.5,2.5,1.5,2.5s0.8,1.1,1.7,2.2c0.8,1.1,1.6,2.2,1.6,2.2c3.7,6.1,6.3,10.8,8.1,14c1.8,3.2,2.6,5,2.6,5.3
		c-1.7-3-5.1-8.5-7-11.7c4.6,8.1,11.4,19.3,17,29.4c5.7,10,10.1,19,11.4,21.9c0,0-2.2-4.7-4.6-9.4c-2.3-4.7-4.8-9.3-4.8-9.3
		C89.4,136,95,147.7,100.4,160c1.3,3.1,2.7,6.2,4,9.3c1.3,3.1,2.7,6.3,4,9.3c2.5,6.3,4.8,12.9,8.3,19.2l4-1.4
		c-0.4-2.5-1.3-4.9-2.3-7c-1-2.2-2.2-4.2-3.2-6.1c-2.1-4.1-4.4-8.1-6.7-12c-4.7-7.8-9.7-15.4-14.7-22.7c-10-14.7-20-28.9-30.1-41.6
		l-3.2,1.7c0.6,1.7,1.4,3.3,2.4,4.7c0,0-0.6-1-1.1-2.1c-0.5-1.1-0.9-2.2-0.9-2.2c0.5,1.4,1.2,2.7,1.9,3.8c0.4,0.6,0.8,1.1,1.2,1.7
		c0.3,0.3,0.2,0.3,0.4,0.6c0.2,0.3,0.3,0.5,0.5,0.8c1.2,2,2.3,3.9,3.3,5.7c2.1,3.5,3.8,6.5,5.3,9.1c3.1,5.3,5.2,9.3,7.4,13.4
		c2.2,4.1,4.3,8.4,7.3,14.4c2.9,6,6.7,13.6,11.7,24.6l-0.8-1.6c4.2,8.7,9.7,20.4,15.1,32.5c-5.3-11,9,21.2,2.1,6.7
		c1.1,2.4,2.1,4.5,3,6.5c0.1,0.2,0.2,0.5,0.3,0.7c0.1,0.2,0.1,0.2,0.2,0.4c0.2,0.6,0.4,1.1,0.6,1.7c0.5,1,1.1,2,1.7,2.7l3.5-1.9
		c-1.3-3.7-2.7-6.5-3.8-8.8c-1.1-2.3-2-4-2.7-5.4c-1.5-2.9-2.3-4.3-3.1-5.8c-0.8-1.4-1.6-2.8-3.1-5.3c-1.5-2.5-3.7-6.2-7.4-12.2
		l-3.4-6.5c-2.9-4.5-4.5-7-7-10.9c-2.5-3.9-5.8-9.2-12.5-19.2c11.2,16.4-8-13.2,4.6,5.1c-5.1-8-9.6-15.3-14.7-21.4l-3.4,1.8
		c1.3,4.3,3.3,8,5.1,11.4c1.9,3.4,3.8,6.5,5.4,9.5c3.4,6.1,6.4,11.5,9.1,16.6c5.4,10.2,9.7,18.9,13.1,27.6c2.6,5.2,2.8,5.3,1.8,2.7
		c-1-2.6-3.3-7.9-6-13.4c-5.2-11-11.7-22.9-8.6-17.2c-2.4-4.9,0-0.8,3.9,6.4c1.9,3.6,4.1,8,6.3,12.4c2.1,4.4,4.1,8.8,5.7,12.5
		c2.7,6.2,4.9,11.7,7.4,18.8c1.3,3.5,2.6,7.5,4.1,12.2c0.7,2.3,1.5,4.9,2.4,7.6c0.2,0.7,0.4,1.4,0.6,2.1l0.2,0.6
		c0.1,0.3,0.2,0.5,0.3,0.7c0.2,0.3,0.2,0.4,0.3,0.5c0.1,0.1,0.1,0.3,0.2,0.4c0.5,1.1,0.6,2.2,0.3,3.3l3.4-0.4
		c-2.6-4.4-4.8-9.8-7.7-16c1.7,3.7,1.8,3.9,3.5,7.6c-1.5-3.4-3-7-4.7-10.4c-1.7-3.4-3.4-6.9-5.3-10.4c-3.7-7-7.7-14.4-12.1-22.6
		c-5.7-8.8-12-21.1-14.3-23.3c0,0,4.9,8,9.5,16.1c2.3,4,4.7,8.1,6.4,11.2c1.7,3.1,2.8,5.1,2.8,5.1c-2.6-4.6-5.2-9.2-8-13.8
		c-2.8-4.6-5.6-9.4-8.8-14.5c-3.1-5.1-6.5-10.6-10.4-16.5c-3.9-5.9-8.3-12.4-13.7-19.3c0.9,1,3,3.5,5.4,6.6c2.3,3,5,6.6,7,9.6
		c-4.2-6.7-8.8-12.6-13.8-18.7l-1.6-2l-0.7,2.5c-0.2,0.8-0.3,1.8,0,2.7c0.1,0.4,0.3,0.9,0.6,1.2c0.1,0.2,0.2,0.4,0.4,0.5
		c0.1,0.2,0.2,0.2,0.2,0.3c0.4,0.9,0.8,1.7,1.2,2.6c-0.1-0.2-0.3-0.5-0.6-0.9c-0.1-0.2-0.3-0.5-0.4-0.8c-0.1-0.1-0.2-0.3-0.2-0.5
		c-0.1-0.1-0.1-0.2-0.2-0.3c-0.1-0.1-0.1-0.1-0.2-0.2c-0.1-0.1-0.2-0.3-0.4-0.5c-0.2-0.3-0.5-0.7-0.7-1.2c-0.4-0.9-0.5-2.1-0.2-3.2
		l0.9-3.2l2.2,2.6c2.2,2.6,4.9,6,7.9,10c3,4,6.1,8.6,9.2,13.4c6.2,9.6,12.2,20,16.8,27.6c-2.6-4.8-8-14.1-12.3-20.9
		c-4.3-6.8-7.2-11-3.7-6.5c-4.9-6.6-10.5-15-17.7-23.9l-2.4-3l-1.1,3.8c-0.3,0.9-0.3,2.1,0,3.1c0.2,0.5,0.4,1,0.6,1.4
		c0.1,0.2,0.3,0.4,0.4,0.6l0.1,0.2l0.1,0.1c0.2,0.5,0.5,1,0.7,1.5c0.3,0.6,0.6,1.2,0.9,1.8c0.6,1.2,1.2,2.5,1.8,3.7
		c0.6,1.2,1.3,2.5,2,3.7c0.3,0.6,0.7,1.2,1,1.8c0.3,0.6,0.7,1.2,1,1.9c2.7,5,5.6,10.2,8.6,15.5l-1.3-1.4c2.1,3.8,6.6,11.7,10.3,18.8
		l-7.4-12.5c2.7,4.9,5.4,9.7,7.9,14.4c2.5,4.8,5,9.5,7.4,14.3c4.7,9.5,9.2,19,13.7,28.7c-4.6-10.1-7.4-15.7-8.8-18.7
		c-1.4-3-1.6-3.4-1.3-3.2c0.5,0.6,2.5,4-1.6-4.6c8.7,16.7,12.6,25.6,15.2,32c0.3,0.8,0.6,1.6,0.9,2.3c0.3,0.8,0.6,1.5,0.9,2.2
		c0.6,1.4,1.2,2.8,1.8,4.1c0.6,1.4,1.1,2.7,1.5,4.2c0.4,1.5,0.8,3.1,0.8,4.7l4.7-1.4c-1-1.6-2-3.3-3.1-5.4c-1.1-2.1-2.3-4.6-3.8-7.3
		c-3-5.5-6.7-12.2-11.5-20.9c4.1,7.3,15,27.7,8.5,16.3c-5.6-10.4-13-24.2-16.3-30.6c-20.3-35.7,2.7,5.7-6.2-9.3
		c-3.2-6.2-5.7-10.6-8.7-15.3c-3-4.7-6.3-9.8-11.3-17.3l0.3-0.4c-1.6-2.5-3.2-4.7-4.5-6.7l-3.5-5.1l-0.4,6.2
		c-0.1,1.4,0.2,2.9,0.8,4.1c0.3,0.6,0.7,1.2,0.9,1.5c0.1,0.1,0.1,0.2,0.1,0.2c0.1,0.2,0.2,0.4,0.3,0.6c0.8,1.5,1.4,2.9,2,4.1
		c1.2,2.4,2.1,4.1,2.7,5.4c1.4,2.6,1.9,3.5,2.6,4.5c1.3,2,2.7,4.6,11.3,22.3l-8.5-15.6l9.9,19.6l-2.5-3.8c5.5,10.6,9,17.6,12.3,24.6
		c3.3,7,6.5,14,11,24.8c-0.9-2.6-0.4-1.9,1.3,1.7c1.7,3.6,4.8,10.3,8.6,19.9c0.2,0.4,0.3,0.8,0.3,0.9l1.5-1c0-0.2,0.1-0.3,0.1-0.5
		c0-0.1,0.1-0.1,0.1-0.2c0,0,0,0,0.1-0.1l0.1-0.2l0.1-0.1l0,0l0,0l0,0c-0.1-0.1-0.1-0.2-0.2-0.2c-0.2-0.2-0.3-0.4-0.4-0.6
		c-0.3-0.4-0.5-0.7-0.6-1c-0.3-0.5-0.5-0.8-0.5-0.9c-0.1-0.2,0.2,0.1,0.2,0.1c0-0.1-0.3-0.5-1.5-2.5c-1.2-2-3.2-5.5-6.5-11.7
		c1.4,2.3,2.8,4.8,4.5,7.6c0.8,1.4,1.7,2.9,2.7,4.5c0.5,0.8,1,1.6,1.5,2.4c0.3,0.4,0.6,0.8,0.8,1.2c0.1,0.2,0.3,0.3,0.4,0.5
		c0,0.1,0.2,0.1,0,0.1c-0.3,0.3-0.5,0.7-0.7,1c-0.2,0.2-0.3,0.4-0.3,0.7l-2.2,1.2c-0.7-1.8-1.4-3.7-2.2-5.8
		c-0.6-1.2-2.8-5.9-3.4-7.1c1.6,3.9,3.3,8.4,5.2,13.1l2.6-1.4c0-0.2,0.1-0.4,0.2-0.5c0-0.1,0.1-0.1,0.2-0.2l0.2-0.4
		c0.2-0.2,0.3-0.5,0.5-0.7l0.1-0.2l0.1-0.1l0,0c0,0,0,0,0,0c0-0.1-0.1-0.1-0.2-0.2c-0.2-0.2-0.4-0.5-0.6-0.8
		c-0.4-0.6-0.8-1.2-1.3-1.9c-0.8-1.3-1.7-2.7-2.5-4.1c-1.6-2.8-3.1-5.6-4.6-8.3c-0.7-1.3-1.4-2.7-2.1-3.9c-0.7-1.2-1.4-2.5-2-3.7
		c-1.3-2.3-2.4-4.3-3.4-6c1,1.8,2.1,3.8,3.1,5.6c0.5,0.9,0.9,1.7,1.4,2.6c0.4,0.8,0.8,1.5,1,2.1c0,0-0.3-0.6-0.9-1.6
		c-0.6-1.1-1.4-2.5-2.4-4.2c-2-3.4-4.7-8-7.4-12.6c-5.4-9.2-11-18.2-11-18.2c-3.3-5.9-0.4-1.4,2.4,3.1c-4.4-7.4-7.7-12.4-14.3-23.2
		c2,2.6,2,1.7,11.4,17c-3.5-5.7-7-11.4-10.5-17.1c-3.5-5.7-7.2-11.3-11-16.9l-4.3,2.9l0.1,0.1l0.1,0.1l0.1,0.1l0.1,0.1l0,0l0,0
		c0.1,0.1,0.2,0.2,0.3,0.3c0.2,0.1,0.4,0.2,0.8,0.3c0.4,0.1,1,0.1,1.7-0.1c0.6-0.3,1.1-0.8,1.2-1.2c0.2-0.4,0.2-0.6,0.3-0.8
		c0-0.2,0-0.3,0-0.4l0-0.1l0,0l0,0l0,0l0,0l0-0.1l-0.1-0.3c-0.1-0.2-0.2-0.5-0.2-0.7c-0.5-0.9-1.4-2.4-2.7-4.2
		c-1.2-1.8-2.8-3.8-4-5.1c-1.3-1.3-2.2-1.9-2.9-2.4c-0.7-0.4-1.3-0.8-1.8-1c-0.5-0.2-1-0.4-1.6-0.5c-0.3-0.1-0.6-0.1-0.9-0.1
		c-0.1,0-0.2,0-0.3,0l-0.2,0l-0.1,0c-0.1,0-0.1,0.1-0.2,0.1c-0.2,0.1-0.4,0.1-0.4,0.1c0,0,0.1-0.1,0.4-0.3c-0.4,0.2-0.9,0.4-1.7,0.6
		c0.6,2,1.2,4,1.9,6.3c0.7,2.2,1.6,4.7,2.7,7.2c0.5,1.2,1.2,2.6,1.6,3.7c0.3,0.7,0.7,1.4,1,2.1c0.7,1.4,1.4,2.9,2.2,4.3
		c2.9,5.8,6.2,11.9,9.5,18.1c6.7,12.4,13.5,25.6,19.5,38.5c0.7,1.4,2.1,4.1,4.8,9.8c1.9,4.3,3.8,8.6,5.7,12.8
		c1.8,4.2,3.5,8.3,4.4,12.5l4.8-2.3c-2.5-3.2-4.4-7.2-6.7-11.3c-2.2-4-4.4-8.1-6.7-12.3c-4.6-8.4-9.5-17.2-14.9-26.8l-8.3-16.9
		c-6.4-11.4-3.5-5.7-1.6-1.9c0.9,1.9,1.6,3.3,0.7,1.9c-0.9-1.4-3.3-5.7-8.8-15.1c-4.4-7.5-7-11.5-8.2-13.6l-1.6-2.7l-2,2.6
		c-0.3,0.5-0.6,1-0.8,1.6c-0.1,0.6-0.1,1.1-0.1,1.5c0.1,0.9,0.4,1.3,0.5,1.6c0.3,0.6,0.3,0.6,0.2,0.6c-0.1,0-0.3-0.1-0.3,0
		c-0.1,0.1,0.4,0.7,0.4,0.7c0,0,0,0.1,0,0.2c0,0,0,0.1,0,0.1l0,0.1l0.1,0.2c0.2,0.4,0.4,1,0.6,1.6c0.8,1.8,1.6,3.7,2.6,5.7
		c0.5,1,1,2.1,1.5,3.2c0.5,1.1,1.1,2.1,1.6,3.3c2.2,4.6,4.6,9.7,7.2,15.1c5.1,10.9,10.9,23.3,16.1,36.3
		C70,258.1,67.2,251.4,63.5,243.5z M73,306.5c-2.7-5.6-8.3-16.6-10-20.8C66.6,291.8,68.7,296.9,73,306.5z M23.1,264.2
		c-0.2-0.4-0.3-0.7-0.5-1c-0.1-0.1-0.2-0.1-0.2-0.2l-0.1-0.1l-0.2-0.2c-0.2-0.3-0.5-0.6-0.7-1c-0.2-0.4-0.3-1.1-0.2-1.7
		c0.2-0.6,0.6-1.1,0.9-1.4l0.9-0.8l0.7,0.9c2.6,3.2,5.5,7.4,8.5,12.1c-2.5-3.7-5.2-7.7-8.6-12l-0.6-0.8l-0.8,0.7
		c-0.3,0.3-0.6,0.6-0.8,1.1c-0.2,0.5-0.2,1.1,0,1.6c0.3,0.9,1,1.6,1.3,1.8C22.8,263.5,22.9,263.8,23.1,264.2z M78.7,532.3
		c-0.1-0.3-0.2-0.4-0.2-0.6c-2.3-6.6-3.1-8.7-2.8-8C75.9,524.3,77.2,527.7,78.7,532.3z M68.9,522.9c-1.2-2.6-1.2-2.4-0.8-1.3
		c0.5,0.9,1.3,2.8,2.4,5.4c1.1,2.5,2.4,5.7,3.8,9.2C73.7,534.2,72.4,530.7,68.9,522.9z M115.3,246.6c0,0-0.5-1.3-1.1-2.6
		c-0.6-1.3-1.1-2.5-1.1-2.5c2.7,5.6,3.6,7.8,3.7,8C116.9,249.7,116.1,248.1,115.3,246.6z"/>
	<path class="st0" d="M51.7,300.5c0.8,1.6,1,2,1.1,2.4C54.2,305,54.3,305,51.7,300.5z"/>
	<path class="st0" d="M82.7,258.9l-0.4-0.9c-0.3-0.5-0.4-0.7-0.5-0.8L82.7,258.9z"/>
	<path class="st0" d="M29.6,371.7c-0.9-2.9-1.6-5.1-2.1-6.9c0-0.2-0.1-0.3-0.1-0.5c0-0.1-0.1-0.2-0.1-0.3c-0.1-0.2-0.2-0.4-0.3-0.5
		c-0.1-0.2-0.2-0.4-0.3-0.6c-0.3-0.8-0.6-1.5-0.7-2.2c-0.1-0.2-0.1,0.6,0.8,2.6c0.1,0.2,0.3,0.5,0.4,0.7c0.1,0.1,0.2,0.3,0.2,0.4
		c0.2,0.5,0.3,1.2,0.5,1.9C28.3,367.7,28.8,369.5,29.6,371.7z"/>
	<path class="st0" d="M49,486l-6.4-17.3c3.1,8.4,4.1,11.4,5.5,15.7C48.1,484,47,480.6,49,486z"/>
	<path class="st0" d="M53,517.3c-1.1-2.4-2.3-5.2-3.5-7.6l0.1,0.8C54.3,520.9,57.6,528.2,53,517.3z"/>
	<path class="st0" d="M53.3,502.6c0,0.8,1.1,3.8,2.7,8.3c1.6,4.4,3.6,10.2,5.8,16.3c-0.3-0.7-0.5-1.4-0.8-2.2
		c0.9,1.7,0.2-0.7-1.4-5.1C58.1,515.5,55.8,509,53.3,502.6z"/>
	<path class="st0" d="M62.8,530c1.3,3.8,2.7,7.6,4,11.3C67.5,542.6,65.2,536.7,62.8,530z"/>
	<path class="st0" d="M54.3,489.5c-2.3-5.7-2-3.3-3.2-6.6C48,476.8,67.7,520.2,54.3,489.5z"/>
	<path class="st0" d="M55.6,512.9l-1.1-4.5l-2.9-6.7c0,0,1,2.8,2,5.6c0.5,1.4,1,2.8,1.3,3.9C55.4,512.2,55.6,512.9,55.6,512.9z"/>
	<path class="st0" d="M38.7,451c-1.4-2.9-2.7-5.8-4.2-8.6c-1.5-2.8-3.3-5.5-5.8-7.5l0.4-0.2l0.2,1.4c0-0.3,0.5,2.3,1.3,5.4
		c-0.6-2.2-1-4.5-1.3-6.8l-0.7,0.4c2,1.5,3.5,3.6,4.7,5.5c1.2,2,2.1,3.9,2.9,5.5C37.7,449.2,38.7,451.2,38.7,451z"/>
	<path class="st0" d="M30.7,441.4c1.6,6.4,3.8,12.3,5.2,15.7C34.6,453.7,31.9,446.5,30.7,441.4z"/>
	<polygon class="st0" points="45.8,486.4 43.8,480.7 38.9,467 	"/>
	<path class="st0" d="M35.7,425.6c0,0-0.5-1.3-1.4-3.2c-0.9-1.9-2-4.5-3.2-7c-1.2-2.6-2.3-5.1-3.1-7.1c-0.8-1.9-1.3-3.3-1.3-3.3
		c-1-2.1,1,3.7,4.6,11.3c1.2,2.4,2.6,5.5,3.6,7.7C35.8,426.1,36.3,427.2,35.7,425.6z"/>
	<path class="st0" d="M59.3,489.5c-2-5.7-2.1-6.2-3.1-9.4l-0.8-0.4L59.3,489.5z"/>
	<path class="st0" d="M35.2,428.4c-0.3-0.5-1.1-2.7-2.3-5.1c-1.1-2.5-2.5-5.3-3.4-7.2c-0.9-2-1.5-3-1-2c0.4,1,1.9,4.2,4.7,10.7
		C34.3,426.8,42.8,447.7,35.2,428.4z"/>
	<path class="st0" d="M38.9,371.1c0,0-0.7-1.3-1.4-2.5c-0.7-1.2-1.5-2.5-1.5-2.5l-0.4,1.2c0,0,0.8,0.9,1.7,1.9
		C38.1,370.2,38.9,371.1,38.9,371.1z"/>
	<path class="st0" d="M34,323.7c-3-4.9-4.9-7.9-6.1-9.9c-0.1-0.2-0.2-0.3-0.3-0.4c-0.1-0.2-0.2-0.4-0.2-0.5
		c-0.2-0.5-0.4-0.9-0.6-1.2c-0.4-0.7-0.7-1.1-1-1.4c-0.5-0.6-0.8-0.9-1.6-1.7c-0.4-0.4-0.9-0.8-1.8-1.4c-0.8-0.6-2-1.2-3.6-1.7
		l-3.5-1.1l0.6,3.7c0.3,1.9,0.8,4.5,1.7,7.9c1.2,3.3-0.8-2.6-1.5-7.9l-0.4-3.3l3.2,1c1.3,0.4,2.5,1,3.4,1.6c1,0.7,1.7,1.4,2.1,1.9
		c0.5,0.5,0.7,0.9,0.7,0.9c0,0-0.2-0.3-0.8-0.9c0.8,0.9,1.5,1.8,2,2.8c0.3,0.5,0.5,1,0.7,1.4l0.1,0.3c0,0.1,0,0.1,0.1,0.1l0.3,0.5
		c0.9,1.5,1.8,2.9,2.6,4.1c1.6,2.5,2.9,4.5,3.7,5.8C35.4,326.9,35.6,327.1,34,323.7z"/>
	<path class="st0" d="M24.1,309.2c-1.4-1.5-3.3-2.7-5.5-3.3l-2.9-0.8l0.6,2.8c0.2,0.8,0.3,1.8,0.6,2.8c-0.3-1.6-0.5-2.9-0.6-2.8
		l2.3-2c1.8,0.5,3,1.3,3.8,1.9C23.3,308.4,23.7,308.8,24.1,309.2z"/>
	<polygon class="st0" points="66.5,46.4 57.5,31.8 63.1,41.3 	"/>
	<path class="st0" d="M47.7,19.1c0,0-0.5-0.9-1-1.8c-0.5-0.9-1-1.8-1-1.8s-1.8-2-3.7-3.8c-0.5-0.5-0.9-0.9-1.5-1.4
		c-0.5-0.5-1.3-1-2.1-1.3c-0.8-0.3-1.5-0.3-1.9-0.2c-0.4,0-0.6,0.1-0.6,0.1c0.6-0.1,1.5-0.1,2.5,0.2c0.9,0.3,1.6,1,2.1,1.5
		c0.5,0.5,0.9,1,1.4,1.5c0.5,0.5,1,1,1.4,1.6C45.2,15.8,46.9,17.9,47.7,19.1z"/>
	<path class="st0" d="M93.6,345c0,0-0.1,0-0.3-0.2c-0.2-0.1-0.4-0.3-0.4-0.3c0.1,0.1,0.2,0.2,0.2,0.3l0.1,0.2c0,0,0.1,0.1,0.1,0.1
		c0.1,0.1,0.2,0.2,0.2,0.2c0,0,0,0,0,0c0,0,0,0,0,0.1l-0.1,0.1l-0.1,0.2c-0.1,0.2-0.1,0.3-0.2,0.5l-3.9,2.8c-0.5-2.4-1.4-5.7-3.6-11
		c1.4,3.7,2.6,7.4,3.3,11l4.2-2.9c0.1-0.6,0.6-1.4,0.5-1.2c0,0,0,0-0.1-0.1L93.6,345z"/>
	<polygon class="st0" points="78.6,280.7 76.7,277.2 79.8,284 	"/>
	<path class="st0" d="M53.5,201.6c-1.4-2.4-3-4.9-4.7-7.5l-3-4.6l-3.2,4.5c-0.4,0.6-0.8,1.3-1,2.3c-0.2,0.9-0.1,2,0.2,2.8
		c0.3,0.8,0.6,1.4,1,1.9c0.1,0.1,0.2,0.2,0.3,0.3l0.2,0.2l0,0c0.3,0.8,0.7,1.6,1,2.4c0.4,1,0.9,2.1,1.3,3.1c0.9,2,1.8,4,2.7,5.9
		c-1.1-2.3-2-4.4-2.9-6.5c-0.4-1-0.8-2-1.2-2.9c-0.3-0.9-0.8-2.2-0.8-2l0,0c0,0-0.1-0.1-0.2-0.2c-0.1-0.1-0.2-0.2-0.3-0.4
		c-0.4-0.5-0.7-1.1-1-2c-0.2-0.8-0.3-1.8-0.1-2.7c0.2-0.9,0.6-1.5,1-2l3.1-4.3l2.7,4.5C52.3,200,53.8,202.9,53.5,201.6z"/>
</g>
</svg>
