<?xml version="1.0" encoding="utf-8"?>
<!-- Generator: Adobe Illustrator 24.3.0, SVG Export Plug-In . SVG Version: 6.00 Build 0)  -->
<svg version="1.1" id="Objects" xmlns="http://www.w3.org/2000/svg" xmlns:xlink="http://www.w3.org/1999/xlink" x="0px" y="0px"
	 viewBox="0 0 800 188" style="enable-background:new 0 0 800 188;" xml:space="preserve">
<style type="text/css">
	.st0{fill:#E9E7E7;}
</style>
<g>
	<path class="st0" d="M800,66.3c-0.2-0.1-0.1,1-0.1,1.2c0,0.2,0-0.5,0-0.7C799.9,66.5,800,66.5,800,66.3C800,66.3,800,66.3,800,66.3
		L800,66.3C800,66.3,800,66.2,800,66.3z"/>
	<polygon class="st0" points="763,69.2 763.7,68.6 757.7,71.5 	"/>
	<path class="st0" d="M723.2,80.5c4.3,0.8,14.4-4.3,21.7-5.7l1.3,0.1l2.8-2.4C740.3,75.2,729.4,79.3,723.2,80.5z"/>
	<path class="st0" d="M700.8,82.2c1.5,0.4-4.4,1.8,5-1.1c-0.5,0-0.7,0-0.9,0.1C704,81.4,702.8,81.7,700.8,82.2z"/>
	<path class="st0" d="M704.8,81.2C709,80,701.9,81.3,704.8,81.2L704.8,81.2z"/>
	<path class="st0" d="M685.5,86.6l5.4-2.1c-1.3-0.1-6.2,1-4.5,0.3C680.8,86.6,682.1,86.8,685.5,86.6z"/>
	<path class="st0" d="M680.6,89.3l2.8-1C682.8,88.3,682.1,88.4,680.6,89.3z"/>
	<path class="st0" d="M689.4,86.2l-6,2.1c0.9,0.1,1.1,0.7,2.8-0.9C685.8,88.1,686.9,87.3,689.4,86.2z"/>
	<path class="st0" d="M692.9,85.6c3.2-0.4,7.3-1.2,1.9,0.9C705.3,83.5,703.4,82.6,692.9,85.6z"/>
	<path class="st0" d="M721.6,83l4.3-0.6l3.4-1.6C727.7,81.6,721.2,82.5,721.6,83z"/>
	<path class="st0" d="M650.6,94.1c-0.3,0.5,2.1,0.6,2.7,1l4-1.4C655.1,93.9,651,94.6,650.6,94.1z"/>
	<path class="st0" d="M653.3,95.1l-6,2.1C652.8,96.1,653.7,95.5,653.3,95.1z"/>
	<polygon class="st0" points="680.1,91.7 689.8,87.7 678.2,92.2 	"/>
	<polygon class="st0" points="626.9,99.4 630.2,97.7 624.3,100.5 	"/>
	<path class="st0" d="M611.2,103.1c2.4-1.4-3.9-0.5-1.2-1.6c-4.2,1.1-7.8,2.6-10.9,4C602.5,104.4,606.3,103.6,611.2,103.1z"/>
	<path class="st0" d="M593.8,107.6c1.7-0.6,3.4-1.3,5.3-2.1C597.3,106.1,595.5,106.8,593.8,107.6z"/>
	<path class="st0" d="M636.6,99.4c-0.5-0.1-1.6-0.6-5.1,0l2.7,0.6C634.9,99.8,635.8,99.6,636.6,99.4z"/>
	<path class="st0" d="M634.3,100L634.3,100c-2.7,0.5-4.6,0.9-5.4,1.1C629.6,101,631.2,100.6,634.3,100z"/>
	<path class="st0" d="M637.3,99.3c-0.2,0-0.4,0.1-0.6,0.1C636.9,99.5,637.1,99.5,637.3,99.3z"/>
	<path class="st0" d="M663.7,94.6c-3.5,1.5-10.9,3.9-3.3,3.2C662.8,96.4,658.5,96.8,663.7,94.6z"/>
	<path class="st0" d="M640.6,100l6.6-1.2c-0.2-0.3-1.5-0.4,0.2-1.2L640.6,100z"/>
	<polygon class="st0" points="637.5,101.1 640.6,100 638.1,100.5 	"/>
	<path class="st0" d="M605.3,106.1c-2.7,1.1-5.8,1.9-9.4,2.8c3.8-0.7,7.8-1.4,11.5-2.3C607.9,106.1,609.4,105.1,605.3,106.1z"/>
	<path class="st0" d="M619.4,103.2c-0.2,0.1-0.4,0.1-0.6,0.2C619.2,103.4,619.5,103.4,619.4,103.2z"/>
	<path class="st0" d="M561.4,117.2c0.2,0,0.4,0,0.6,0.1c0-0.1,0-0.1,0.1-0.2L561.4,117.2z"/>
	<path class="st0" d="M608.1,106.7c2.9-0.4,4.5-1.1,6.1-1.8c-2.1,0.6-4.3,1.2-6.7,1.7C607.3,106.8,607.2,106.9,608.1,106.7z"/>
	<path class="st0" d="M584.2,110.4c1.5-0.1,3.3-0.3,5.1-0.5C587.8,109.9,584.7,110,584.2,110.4z"/>
	<path class="st0" d="M617.8,103.3c0.1,0,0.3-0.1,0.4-0.1C617.2,103.1,617.4,103.2,617.8,103.3z"/>
	<path class="st0" d="M617.8,103.3c-1.4,0.5-2.5,1-3.6,1.5c1.7-0.5,3.3-1,4.6-1.4C618.4,103.4,618.1,103.4,617.8,103.3z"/>
	<path class="st0" d="M552.8,127.1c0.2-1.2,7.4-4.1,14.1-4.5c6.1-2.3,1.1-4.7-4.9-5.2c-0.1,0.5,0,0.9-6.3,3.2c2.4,0,14.7-2.3,9.5,0
		c-8.5,2.7-7.1,1.4-11.4,2c3.9,0.3-10.4,4.7-8,6.2l7.3-2.7C553.2,126.2,550.6,127.4,552.8,127.1z"/>
	<path class="st0" d="M574.4,114.3l2.6-0.8c-3.1,0.6-5.4,0.7-9.6,0.9c-4.3,1.6-5.2,2.2-5.4,2.7l13.2-3.1L574.4,114.3z"/>
	<path class="st0" d="M589.1,110.7c-1.8,1.6-8.1,3.6-3.9,3.9c7.8-1.9,5.3-2.2,9.9-3.8c-12.6,3.2,3.5-1.5-5.8,0
		c2.5-0.8,4.7-1.4,6.8-1.9c-2.3,0.4-4.6,0.7-6.7,1c0.1,0,0.2,0,0.3,0l0.1,0l0,0c0.6,0,0.8,0.1,0.1,0.1c0,0-0.2,0.1-0.3,0.1
		C589.5,110.3,589.3,110.5,589.1,110.7c-3.7,0.6-0.6-0.2,0.5-0.6c0-0.1,0.1-0.1,0.1-0.2l-0.1,0l-12.6,3.7
		C579.8,113.1,583.1,112.2,589.1,110.7z"/>
	<path class="st0" d="M654.2,101.8c-0.4,0-0.4-0.1-0.5-0.2C652.9,102,652.6,102.1,654.2,101.8z"/>
	<path class="st0" d="M648.8,102.3c0.9-0.4,1.6-1,4.6-1.6c2.7-0.3,0.1,0.5,0.3,0.9c1.7-0.7,6.1-2.3,0.3-1.5l-0.9,0.4
		c-5.2,0.8-12.1,0.9-11.2,0.5C643.7,101.7,645.2,102.1,648.8,102.3z"/>
	<path class="st0" d="M618.6,106.8l-10.5,3l5.6-0.2l-0.4-0.5C619.5,107.9,618,107.4,618.6,106.8z"/>
	<polygon class="st0" points="560,117 561.1,115.4 555.4,118.7 	"/>
	<polygon class="st0" points="546.3,120.7 546.5,119.5 543.1,121.1 	"/>
	<path class="st0" d="M298.7,120.8l-2.9,1.4C297.2,121.6,298,121.1,298.7,120.8z"/>
	<path class="st0" d="M320.2,112.8l0.3-0.7C319.7,112.7,319.3,113.1,320.2,112.8z"/>
	<path class="st0" d="M451.7,108.9c-4.7,0.7-10.1,1.2-9.1,2.1l1.8,0.6C447.2,110.2,449.6,109.4,451.7,108.9z"/>
	<path class="st0" d="M418.7,86.9c-0.4,0.1-0.9,0.3-1.3,0.4c-0.8,0.9-1.5,1.8-2.1,2.6C416.3,89,417.5,87.9,418.7,86.9z"/>
	<path class="st0" d="M419,81l5.7-2.5C423.4,79,421.6,79.8,419,81z"/>
	<path class="st0" d="M182.3,169.7l-3.1,2.4C184.7,170.1,182.1,170.4,182.3,169.7z"/>
	<path class="st0" d="M513.8,115.9c3.5-2,6.1-3.6,8.4-5.1C517.9,112.9,514.2,114.3,513.8,115.9z"/>
	<path class="st0" d="M302.7,105.9c-1.8,0.9-2.5,1.4-2.3,1.6C302.2,106.7,303.2,106.1,302.7,105.9z"/>
	<path class="st0" d="M531.8,104.6c-0.7,0.3-1.3,0.6-1.9,0.9c-2.3,1.7-4.7,3.5-7.6,5.4C525.4,109.3,528.9,107.3,531.8,104.6z"/>
	<path class="st0" d="M163.8,83.4c-0.3,0.1-0.7,0.2-1,0.3C162.8,83.9,163.2,83.7,163.8,83.4z"/>
	<path class="st0" d="M36.9,126.5c1.1-0.7,3.1-1.7,4.9-2.6C40.9,124.2,39.4,125,36.9,126.5z"/>
	<path class="st0" d="M499.3,133.6C500.2,133.3,499.6,133.4,499.3,133.6L499.3,133.6z"/>
	<path class="st0" d="M506.7,136.3c-0.6,0.3-1,0.6-1,0.9C505.9,136.9,506.3,136.6,506.7,136.3z"/>
	<path class="st0" d="M552.9,82.4c0.1,0,0.1-0.1,0.2-0.1C552.3,82.6,552.4,82.5,552.9,82.4z"/>
	<path class="st0" d="M500.4,133.8c-0.3-0.1-0.7-0.1-1-0.1C499.5,133.8,499.8,133.9,500.4,133.8z"/>
	<path class="st0" d="M500.5,133.3c0.3,0,0.5-0.1,0.7-0.1C501.3,132.9,501.3,132.8,500.5,133.3z"/>
	<path class="st0" d="M498.1,134c0.5-0.1,0.9-0.2,1.3-0.2c-0.1-0.1-0.1-0.1-0.1-0.2C499.1,133.6,498.7,133.8,498.1,134z"/>
	<path class="st0" d="M272.7,53.3c0.2-0.1,0.4-0.2,0.6-0.3C275.2,50.7,274.3,51.6,272.7,53.3z"/>
	<path class="st0" d="M382.8,147.4c0.1-0.1,0.2-0.1,0.3-0.2c-0.1,0-0.3,0.1-0.4,0.1L382.8,147.4z"/>
	<path class="st0" d="M372.7,151.4c4-2.7,6.5-3.3,10-4.1l-4.5-2.1L372.7,151.4z"/>
	<path class="st0" d="M247.8,141.9l7.3-2c-7.7,5.1-14,7.2-6.9,5.8c-0.4-3.8,26.8-11.7,26.3-15.4l4.9-1.1c-1.3,0.5-1.5,0.8-2.8,1.3
		c9.6-2,5.6-5.1,17.4-9.2c4.1-1.3,7.1-1.9,4.6-0.4l8.7-4.3c2.7-0.9,2.2-0.1-0.4,0.8l13.7-5.4l-0.1,0.1c1.8-1.3,5.9-3.7,8-4.8
		c3.7-0.8-1.6,1-0.6,1.1l7.4-3.6c3.4-0.2-2.6,2.9-8,4.7c8.4,0.9,6-3.2,22.3-6.4l-7.1,2.9c5.3,0.4,10.8-2.3,19.4-3.7
		c-2.2,0-17.5,2.3-9.4-1.3c2.5-0.5,5.6-1.4,9.9-3.6c0.4,1.2,4.8-0.5,10.3-2.3l0.1,1.8c5.9-2.3,5.1-3,8.4-4.8
		c6.8-1.8,8.5-0.9,10.4-0.3c10.8-2.8-8,0,4.6-3.9c9.1-1.9,15.3-4.2,25.8-8c6.5-1-0.9,1.3,1.5,1.2l5.3-2.7c1.4-0.3,1,0.2,0.9,0.5
		c4.6-1.6,0-1.8,7.4-4c1.4-2,12.6-1.1,21.3-3.4l-3.9-8.9c-0.8,0.7-1.6,1.4-2.3,2c-2.1,0.5,0.4-1.4-0.5-1.7c-2.2,1.6-4.3,2.7-5.9,3.6
		c-1.6,0.9-2.9,1.6-4,2.3c-2.4,1.5-4.1,2.8-8.5,6.2c0,0-2.2,0.9-4.3,1.7c-2.2,0.9-4.3,1.8-4.3,1.8c6.6-2.2-0.3,3.3-6.1,8.3
		c2.4-0.7,4.4-1.3,5.7-1.7c0,0-2.5,1.7-4.9,3.5c-2.4,1.8-4.9,3.5-4.9,3.5c-1.4,0.5-0.7-0.6,0.6-2.3c-0.6,0.6-1.2,1.1-1.6,1.5
		c-4,1.7-2.6-0.3-0.5-2.7c1.4-0.5,2.9-0.9,4.3-1.4c2-2.4,3.8-4.9,2.8-5.4c-0.6,0.6-1.8,1.5-3.2,2.4c0.5-0.6,0.8-1.1,0.4-1.1
		c-0.4,0.1-1.3,1-2.8,2.4l-3.4-0.2l-0.2,1c0,0-3.5,1.9-7,3.8c-3.5,1.9-7,3.8-7,3.8c-4.2,4-7.9,7.9-12.2,12.3
		c-4.3,4.5-9.4,9.3-16.3,14.9c2.7-3.8-0.6-2.4-1.4-3.9c5-1.5,10.8-8.8,18.5-14c-4,2.7-3.6,1.4-2.8,0.5L370.3,115
		c-0.5-1.3-3.4,1.3-7.3,3.4c2.1,0.1-0.1,2.3-3.5,5c-0.4,0.3-0.9,0.7-1.3,1.1c-0.6,0.5-1.2,0.9-1.8,1.4c-1.3,1-2.5,1.9-3.8,2.9
		c-2.5,1.9-4.9,3.7-6.3,5c-0.9,0.1-1.3-0.2-0.2-1.4c1.1-1.2,4.1-3.4,8.9-6.9c-3.1,1.6-5.4,3.3-7.3,4.8c-1.9,1.5-3.1,2.9-3.9,4.2
		c-1.7,2.5-2.7,4.1-7.3,7.4c1.3-1.4,2.4-2.2,2.3-2.6c-1.2,1.6-3.9,4.2-5.8,6.6c-2,2.4-3.3,4.5-3.2,3.5c0,0,0.2-0.4,0.4-0.8
		c0.2-0.4,0.5-0.8,0.5-0.8c-1.1,1.7-2.3,3.8-3.1,6.9c0,0.4,0.6,0.6,1,0.8c0.5,0.2,0.9,0.4,1.4,0.6c0.9,0.4,1.9,0.7,2.8,1
		c1.9,0.6,3.7,0.9,5.4,0.8c0.9,0,1.7-0.1,2.5-0.2c0.8-0.1,1.5-0.4,2.4-0.5c1.8-0.3,3.8-0.6,5.8-1.1c4.1-0.8,8.8-3.1,11.6-4.2
		c3-1.3,4.9-2.2,5.4-2.9c0.1,0.1-0.5,1-1.3,2c-0.8,1-1.9,2.1-2.6,2.5c0,0,2.4-1.2,5.3-2.9c3.3-1.8,5.4-3.4,8-5.2
		c5.1-3.5,10-7.3,10-7.3c-1.3,2.5,7.8,4.4-2.3,9c3.1-0.8,7-1.7,13-4.6c-2.1,0.5-6-0.9-3.3-2c8.4-0.7,5.7-0.8,15.8-2.5
		c-3.2,0.7-0.9-3.4,4-5.1c-0.6,0.7,1.5,2.7-0.2,3.7l10.9-7.3c-2.8,1.6,0.4,2.6,3.4,2.4c-1.4-0.1,10.3-3.9,13.4-5.4l-5.3,1.3
		c13.6-4.7,11.7-9.1,25.1-14c-1.4,1.2-2.6,5.1,4.3,2.9c2.5-2.6,11.1-12.2,22.5-17.7l2.6,0l8.7-4.4c-4.8,4.3-18.9,14.9-26.8,19.9
		c5.3-1.2,1.8,0.5,9.3-2.5c3-0.2-3.7,2.7-5.9,3.6l17.8-6.1c-1.4-1.4,12.8-6.8,11.6-8l-18.4,9c-1.4-1.4,9.2-8.9,21.7-13.4
		c3.4-0.5-1.2,3.9-0.7,4.4c1.4-1.2,11.3-5.7,12.6-5.7l-4.9,3c7.2-2.1,10.4-6.7,19.3-8.4c2.9-1.1,9.4-1.4,9.5-2.6
		c-5.5,0-8.8-5.5-6.3-8.2c0.5-0.1,4.4-1.2,8.6-2.4c4.1-1.2,8.6-2.6,10.4-2.9c5.2-0.7-5.2,6.7-0.7,6.2c0-0.5,2.2-2.3,3.1-2.9
		c3-0.9-0.5,1.9,5.6-1.1c0.3-2.4,12.6-4.3,2.4-2.6c3.2-1.5,4.9-1.8,6.8-2l-2.8-5.2c-1.3,1.1-2.8,2.3-5.6,4.6
		c1.3-0.3,0.6,1.6-1.2,4.1c-1.9,2.5-4.9,5.5-7.7,7.5c0.1-0.6-1.5-0.3-2.3-0.1c-11.9,7.5-18.8,10.7-29.7,17.8c-1.3,0.3-6.8,3.4-5,1.2
		c-1.4,1.3-2.5,2.8-5.8,5.2c-7.4,3.2,7.3-5.4,1.3-3.5c0.1,0.6-1.9,2.4-4.4,4.6c-2.4,2.2-5.4,4.7-7.6,6.7c2.4,0.3,10.8-7.7,15.3-11.4
		c0.7,0.9-0.8,3.3-3.6,6.5c-2.8,3.3-7.1,7.5-12.3,12c-4.5,3.6-4.6,3.3-5.1,3.2c-0.3-0.2,0-1-0.5-0.5c-3.3,2.3-5.5,4.2-6.6,5.4
		c-1.2,1.3-1.4,2-1.5,2.6c-0.1,0.6,0,1-0.6,1.5c-0.6,0.6-2,1.3-4.9,3.6c-3.6,2.5-6.1,4.1-8.3,4.6c-2.2,0.6-3.8,0.5-6,1.9
		c0.6-1.6,2-2.9,3.5-4c1.5-1.1,3.2-2.1,4.7-2.9c3.2-1.7,5.8-3.2,7.8-4.8c0,0-1.7,1-3.3,2c-1.7,1-3.6,2.1-3.6,2.1
		c0.9-1,4.9-4.6,8.2-6.4c-2,1-5.7,3.6-10.1,6.6c-2.2,1.5-4.7,3-6.9,5c-1.1,1-2.2,2.2-3,3.6c-0.2,0.4-0.4,0.7-0.5,1.1l-0.2,0.6
		c0,0.1-0.1,0.2-0.1,0.3l0.3,0.1c0.7,0.2,1.5,0.3,2.2,0.4c3.8,0.3,7.6,0,11-0.5c3.4-0.5,6.6-1,9.3-1.4c3.6-1.3,8.6-3.1,6.9-3.3
		l-4.9,1.4c-1.4-0.3,1.4-1.4,3.5-2.2c2.1-0.9,3.7-1.5,1.6-1.3c2.9-1.2,5.6-2.4,7.9-3.4c0.6-0.3,1.1-0.5,1.9-0.7c1-0.3,1.9-0.6,3-1
		c2-0.6,4.2-1.2,6.5-1.7l2.2,1.1c-0.3-0.4-6.2,0.8-8.6,2c3.6-1.8,14.4-1.9,18-5.2l-6.7,0.8c6.2-2.7,13.8-6.8,22-8.5
		c-4.1-0.5-1.8,0.7-8.1,0.5c5.6,0.8-20.7,5.9-12,6c-3.3-0.2-5.8,0.3-8.6,1c-1.4,0.3-2.8,0.6-4.4,0.9c-0.8,0.1-1.6,0.3-2.5,0.4
		c-0.4,0-0.9,0.1-1.4,0.1c-0.2,0-0.5,0.1-0.6,0l-0.2-0.1c0.1,0.5,1,0.8-1.1,1.1c-0.1,0.2-0.4,0.5-0.6,0.7c-0.1,0-0.1,0-0.1,0l0.1,0
		c-0.1,0.1-0.1,0.1,0,0c0.5,0.1,1,0.3,1.2,0.5c-1.5,1.7-7.6,3.3-10.9,4.7c-1,0.1-0.4-0.2,0.3-0.6c0.7-0.4,1.6-0.8,1.5-1.1
		c0,0-1.2,0.5-2.3,1c-1.3,0.5-2.6,1.1-2.6,1.1c1.2-0.9,1-1.5,1.6-2.2c0.5-0.7,1.8-1.3,4.2-2.1c0,0.1-2.7,0.2-2.7,0.1
		c0,0,0-0.1,0-0.1c-0.2-0.3,1.4-1.8,2.1-2.3c0.8-0.6,1.1-0.9,0.9-1c0.8-0.4,0.6-0.6,0.5-0.8c-0.1-0.2-0.2-0.3,0.3-0.1
		c0,0,0.5-0.6,1.2-1.3c0.8-0.8,1.5-1.6,1.5-1.6l0.4,0.1c0.5-0.4,1-0.7,1.4-1.1c1.2-0.9,2.4-1.9,3.5-2.8c2.7-2.2,5.5-4.4,8.3-6.7
		c5.7-4.6,11.7-8.6,18.8-11.9c3.6-2.7,7.4-5.6,14.1-9.4l1.8,0.1c2.4-1.7,6.3-3.9,9.8-6c3.5-2,6.5-3.9,7.3-5.1
		c3.3-0.6,9.5-4.1,15.5-10.4l20.8-21.3l-28.9,6.3c-4.9,1.1-9.3,2.9-13,4.7c-3.8,1.7-7,3.4-9.4,4.4l0.2,1.4c-3.1,1.5-6.2,2.9-9.4,4.4
		c-3.3,1.6-6.8,3.3-10.8,5.2l1,0.9c-6.7,3.8-18.4,6.5-29.6,10.9c0.6-0.7,3.5-1.7,5.6-2.2c-14.4,2.7-27.7,12.6-40.6,15.4
		c-2.9,1.6-5.2,2.3-7.4,2.8c0.3-0.1,0.5-0.2,0.7-0.3c-0.3,0.1-0.8,0.3-1.3,0.5c-1.4,0.3-2.9,0.7-4.5,1c1.4-0.2,2.7-0.5,3.8-0.8
		c-2.3,0.9-5.9,2.4-9.2,4.1l-2-0.6c-0.3,0.1-0.5,0.2-0.8,0.3c-3.6,0.9-2.5,1.6-0.4,1.8c-1.7,0.9-3.2,1.7-4.3,2.5
		c-3.5-0.9-8.9,4.2-13.5,3.5c-2,1.9-17.2,7.4-18.3,10.2c-0.2-0.2-1.3,0,0.6-0.7c-4,1.2-8,2.4-11.3,4.2l-2.2-1l-7.8,5.1
		c-5.5,0.8-7.9,1-3.1-2c-5.9,3.1-8.5,3.9-10.7,4.8c-1.1,0.4-2.2,0.9-3.6,1.5c-1.1,0.5-2.1,1.1-4.2,2.3c0,0,0.2-0.3,0.3-0.7
		c0.1-0.3,0.3-0.6,0.3-0.6c-1.2,0.4-2.9,1.3-4.7,2.1c-1.8,0.8-3.6,1.5-3.8,1.1c-0.3-0.1-0.8-0.1-1.4-0.1c-0.6,0-1.3,0.3-2.1,0.5
		c-0.8,0.1-1.9,0.2-3,0c-0.5-0.1-1.1-0.2-1.7-0.5c-0.3-0.1-0.6-0.2-0.9-0.4l-0.4-0.2c-0.1,0-0.2-0.1-0.2-0.1l0.1-0.2
		c0.6-2.1,2.2-3.8,3.9-5.3c1.8-1.5,3.8-2.8,5.8-4.1c2-1.3,3.9-2.7,5.7-3.8l0.7-0.4l1.1-0.8c0.8-0.5,1.6-1.1,2.4-1.6
		c1.6-1,3.1-2,4.6-2.9c-5.5,0.1,9.4-5.2,8.8-7.7c1.5-0.2,4.3-1.7,1.7,1c4.5-3.7,8.2-6.2,11.5-8.3c3.3-2.1,6.2-4.1,9-7.2
		c1.5-0.1-1.5,2.3-0.2,2c0.7-0.7,2.7-2.6,4-2.9c1.2-0.3-1.1,1.5-2.4,2.8c9.9-6.7,9.7-9.2,9.3-11.5c5.7-2.4,8.2-4,11.2-7.5
		c2.2-0.5,5.6-1.6-0.7,2.4c1.8-1,7.4-4,12.6-6.8c2.6-1.4,5.1-2.7,6.9-3.8c1.8-1.1,2.8-1.8,2.8-2.3c1.3-0.1,5.4-2.1,6.4-2.8
		c3.5-1.5,5.9-2.8,7.5-3.9l-2.8-6.5c-3.7,0.7-6.2,1.2-11.7,2.4l2.6-0.3c-3.2,2.8-7.5,2.1-14.8,4l0.2-0.3c-17.1,2.5-7.1,2.4-24,4.9
		l1.2,1c-0.8,3.1-15,2.2-24.2,6.1l3.6-0.3c-4.9,2.4-15.5,0.6-20.8,1.9c-1.2,0.1,1.7-0.9,3.2-1.6c-14.1,2.6-1.3,2.1-11.2,5.7
		c-2.1-0.3,1.7-3-5.2-1c-3.6,0.4-18.7,9.3-28.4,10.9c2.3,0,4.5-0.1,0,2c-7,2.7-20,4.4-25.6,8.9c-1,0.2-1.4,0.1-1.5,0
		c-5.2,2.6-17.1,7.6-19.8,10c-6.7-2.3-32.2,15.6-33.6,11.8l-16.1,7.1l0.3-0.6c-10.4,4.2-13.7,6.6-17,9c-2.5,0.7-0.9-0.3-0.8-0.6
		c-15.5,5.5-16.9,6.3-29,13.1l-1.8-0.7c-1.6,1-7.3,2.6-14.5,4.7c-3.5,1-7.4,2.2-11.3,3.3c-1.9,0.5-3.9,1.1-5.8,1.6l-1.5,0.4
		l-1.5,0.4c-0.8,0.3-1.4,0.4-1.5,0.5c0.1-0.2-0.1-0.4,0.6-0.6l-0.4,0.1l-0.1,0c0,0,0-0.1,0,0.3c-0.1,1.2-0.4,1.6-0.4,1.5l2.7,5.2
		c0.6-1.5,1.6-2.9,2.8-4c0.3-0.3,0.6-0.6,1-0.8l0.5-0.4c0.2-0.1,0.7-0.5,0.9-0.7l2.8-2.2c3.7-2.9,7.4-5.7,10.9-8.3
		c6.8-5.3,12.1-10.1,12.9-13.8l8.1-8.9c-11.8,10,0.3-3.1-5,0.5c4.4-4.3,12.7-9.4,7.3-4.2l-1,0.6c-0.4,3.7,15-12.1,15.8-10.6
		c11.3-10.2,22.8-20,34.1-29.5c11.5-9.3,22.9-18.3,33.8-27.5l-3.8,0.6l7.7-6.3c2.3-1.3,3.7-1.1-1.8,3.4c3.6-1.5,8.5-8.4,8.4-8.8
		c11.1-8.3-2.7,5.3,0.6,2.6l4.3-3.8l-1.1,0.7c0.8-0.9,1.3-1.7,1.8-2.3c0.3-0.3,0.5-0.7,0.8-1c0.4-0.4,0.8-0.9,1.3-1.4
		c0.9-0.9,1.9-1.9,3.3-3.2c1.3-1.3,3.1-2.7,5.7-4.7c6.9-5,5.4-2.7,8-4.7c0.2,0,1.3-0.7,3.8-3c0,0,3.6-2.9,6.4-5.5
		c2.8-2.6,4.7-4.9,4.7-4.9s-1.5,1.2-3.3,2.4c-1.7,1.2-3.6,2.4-3.6,2.4c1.4-1.8,3.3-3.8,3.9-4.7c0.6-0.9,0.4-0.8-3.3,1.8
		c3.2-2.2,6.8-5.5,9.3-9.2c0.6-0.9,1.2-1.9,1.6-3.1c0.2-0.6,0.4-1.2,0.4-2c0-0.3,0-0.9-0.2-1.1c-0.3-0.1-0.5-0.2-0.8-0.3
		c-2-0.6-3.9-0.4-5.8-0.3c-2.1,0.5-4.4,1-6.5,1.4c-2.1,0.5-4.1,0.9-6.1,1.5c-4,1.1-7.5,2.5-8.7,2.7c-5.6,2.6-10.5,4.9-15.6,7.1
		c-2.6,1.1-5.1,2.2-7.8,3.3c-2.2,0.9-4.4,1.8-6.8,2.7c2.3-0.6,4.3,0.5-3.4,3.4c1.4-4.5-14.6,4.2-21.7,4.3c6.2-0.6-21.5,9.2-11.9,7.9
		c-6.5,2.4-0.9-1.1-6.1,0.1C212.8,50,194,56.2,175.9,64.8c-0.1,0.6,3.3-0.1-0.4,2.3l-10.7,2.1c-3.5,1.8-2.3,4-9.6,5.3
		c1.1,0,2.7-0.1,0.3,1.1c-37.3,13.2-74.1,31.8-112.1,46.3c5.3-1.6,2.1,0-1.6,2c2.5-1.1,0.5,1.1,1.2,1.4c0,0-1,0.4-2.5,1
		c-1.5,0.6-3.5,1.3-5.4,2.2c-3.9,1.6-7.8,3.2-7.8,3.2c-1.2,1.9-7.4,5-11.7,7.5c-0.3,0.2-1,0.5-1.6,0.8c-0.6,0.3-1.1,0.6-1.6,0.9
		c-0.9,0.6-1.6,1.1-1.7,1.5c0,0,1.2-0.7,2.5-1.4c1.2-0.6,2.4-1.2,2.4-1.2c-1,0.9-1.4,1.5-1,1.8c0.3,0.3,1.4,0.4,2.5,0.4
		c3.5-0.3,9.2-1.8,9.4-0.1c2.9-2.9,7.9-4.7,13.4-6.8c5.5-2.1,11.5-4.5,16.6-8.8c2.8-0.8-1.8,1.8-0.2,1.7c2.5-2.4,5.9-4.4,12.8-7
		l-0.6,0.6c18.6-8.9,27.2-11.3,48.9-19.6l-2.1-0.5c4.7-1.8,5.8-1.8,8.1-2.4c4.6-4-13,5.3-9,1.3c7.1-0.1,32.6-13.4,37.9-12.4
		c7.1-3-2.7-0.5,4.5-3.5l2.2-0.1l1.4-1.7c4.7-1.8,7.5-1.9,7.9-1.4c-1.2,0.4-3.1,1.5-4.3,2.1c6.4-1.7,16.9-7.7,19.1-8.3l-7,2.6
		c19-9.2,42.6-19.1,60.6-28.2l-1.7,0c13.9-6.8,11.8-4,27.3-10.9l-0.5,0.4c2.9-1.8,7-3.8,11.4-5.5c-3.7,2.3,8-1.8,3.1,1.1
		c0.9-0.5,1.8-0.9,2.6-1.3l0.3-0.1l0.1-0.1l0.2-0.1c0.2-0.1,0.3-0.2,0.4-0.3c0.6-0.4,1.1-0.7,1.5-0.9c0.8-0.5,1.3-0.9,1.7-1.3
		c0.4-0.4,0.8-0.8,1.5-1.4c0.8-0.7,1.9-1.6,4.4-3.2c0.1,0,0.5,0.9,0.5,0.9c3.6-2.4,4.6-3.4,11.6-6.3c-3.6,1.8-3.3,2.2-3.5,2.7
		c-0.1,0.5-0.8,1.3-4.1,3.2c1,0.2,2.2,0.1,3.9-0.6c1.3-0.5,2.9-1.3,4.7-1.9c0.9-0.3,1.8-0.6,2.6-0.8l0.3-0.1c0.1,0,0.1,0.1,0.2,0.1
		c0.1,0.1,0.2,0.2,0.2,0.3c0.1,0.2,0.1,0.4,0.1,0.5c-0.2,1.3-2.4,3.1-7.7,6.1c1.8-0.5,3.1-1,4.6-1.8c1.4-0.8,2.8-1.9,4-3
		c1.2-1.1,2.1-2.2,2.5-3.1c0.4-0.9,0.6-1.4,1-1c2.1-2.4,4.5-2.5,4.7-1.4c0.2,1-1.5,3.1-3.7,4.8c-1.9,1.6-6.4,4.2-10.6,6.4
		c-4.4,2.4-8.1,4.2-10.8,6.2c0.6-0.4,0.3-0.4,0.8-0.8c-1.7,0.8-2.1,1.5-2.9,2.4c-0.8,0.9-1.8,1.9-3.6,2.7c-1.8,3.7-6.6,5.4-6.1,7.8
		c0,0,2.4-2.2,4.9-4.4c0.6-0.6,1.2-1.1,1.8-1.6c0.4-0.4,0.9-0.8,1.2-1.1c0.5-0.5,0.9-0.9,0.9-0.9c-0.4,0.4-0.7,0.8-1.1,1.3
		c-0.1,0.2-0.5,0.6-0.8,0.9l-0.9,1.1c-1.3,1.4-2.6,3-4,4.5c-2.9,3.1-6.4,6.5-11.4,10c0.5-0.9,2.9-3.7,4.6-5.6
		c-3.2,1.8-5,4.8-8.3,6.7c-0.6-2.3,11.9-10.7,17-17.1c-3.5,1.8-10.6,10.9-9,6.6c-2.5,6-11.1,8.8-17,16.8L255,65
		c-1,1.1-3.1,3.7-5.3,5.5l2.8-4.6c-5.1,6.1-12.4,8.9-17.7,14.3c12.1-10.2,3.7-1.1,9.5-4.7c-13.8,13.9-10.9,4.6-26.7,19.6
		c2.1-2.1,8.8-6.8,5.7-3.3c-3.3,2.6-7.7,5.8-10,7c-10.6,9.8,2.5-0.5-1.5,4.2c-4.7,2.1-4.9,5.2-9.3,9.8l-0.9-0.9
		c-12.8,10.3-1.5,4.9-13.2,14l3.5-5.5l-5.5,5.5l0.2-2.2c-5.5,6.4-7.7,7.9-14.1,13.1c2-0.6,0.8,2.5-4.7,7.3c-4.3,2.6,1.3-2.7-6.4,4.1
		c1.2-2.1,2.5-4.5,6.7-6.6c0.1-0.6,1.2-2.1,1.3-2.8c-4.6,2.9-10.3,8.6-13.1,11c1.1-0.9,2.5-2,3.2-2.4l-10.1,11.1
		c-2.1,1.2-0.9-0.4,0.2-1.9c-1.1,1-2,2.1-2.9,3c-0.1,0.1-0.1,0.1-0.2,0.2l-0.5,0.5c-0.4,0.4-0.8,0.7-1.2,1.1
		c-0.8,0.8-1.7,1.7-2.6,2.8c0.1-0.9-0.1-1.5,0.4-2.7c0.3-0.6,0.7-1.3,1.5-2.2c0.2-0.2,0.4-0.5,0.7-0.7c0.2-0.2,0.6-0.6,0.6-0.6
		c0,0,0.2-0.3,0.4-0.5c0.2-0.2,0.5-0.5,0.8-0.8l-1,1.1c-0.2,0.2-0.2,0.2-0.2,0.2c0,0-0.4,0.4-0.7,0.6c-1,0.9-2,1.9-2.9,3
		c-1.8,2.1-3.3,4.6-4.3,7.1l-2.4,5.8l4.6,3.2c1.9,1.3,4.3,1.9,5.9,1.9c0.5,0.2,1.8,0.3,2.9,0.3c1.2,0,2.3-0.1,3-0.1
		c0.4,0,0.6,0,0.9,0c0.3,0,0.6,0,0.8,0c0.4,0,0.5,0.2,0,0.4c4.4-0.6,9.2-2.6,14.1-4.8c4.9-2.2,9.8-4.5,15-5.9c0.4-0.4,1.4-1,3.5-1.9
		c9.4-3.3,18.1-5.4,28.4-11.2l6.9-0.8c8.3-4-9.2,1.3,4.6-5.3c9.7-4.8,4.3-0.1,8-1.1c4.6-3,12.4-8.4,22.1-10.9
		C253.1,139.8,250.6,140.6,247.8,141.9z M352.3,101c-2,0.9-5.8,3.1-7.6,2.9C346.6,101.6,348.7,101.7,352.3,101z M403.3,93.6
		c1.1-1.2,3.4-2.5,6-3.6C407.6,91.3,405.6,92.5,403.3,93.6z M487.7,135.2c0,0-0.1,0-0.2,0c1.5-1.1,2-1.3,1.8-1.2
		C489.2,134.1,488.5,134.5,487.7,135.2z M488,137.5c1-0.3,1.4-0.6,1.8-0.9c-1,0.5-2,0.6-2.7,0.5c-0.1,0-0.2-0.1-0.4-0.1
		c-0.3,0.2-0.5,0.4-0.6,0.6C486.1,137.8,486.6,137.9,488,137.5z M309.3,34.5l-2.9,1.8c2.2-1.9,3-2.6,3.2-2.7
		C310,33.5,309.7,34,309.3,34.5z"/>
	<path class="st0" d="M418.9,81.7c0.6-0.1,0.9,0,1.2,0.1C420.8,81.2,420.6,81,418.9,81.7z"/>
	<path class="st0" d="M182.9,169.3l-0.3,0.1c-0.2,0.1-0.2,0.2-0.2,0.3L182.9,169.3z"/>
	<path class="st0" d="M558.6,79.1c-1.9,0.7-3.1,1-3.9,1.1C554.8,80.5,555.8,80.3,558.6,79.1z"/>
	<path class="st0" d="M521,126.7l-6.1,2.2c3-1,4.1-1,5.7-1.3C520.4,127.4,519,127.3,521,126.7z"/>
	<path class="st0" d="M577.6,119.9c0.9-0.4,1.9-0.5,2.8-0.9l-0.4-0.5C576.2,119.5,573.5,120.6,577.6,119.9z"/>
	<path class="st0" d="M528,129.1c0.8,0.9,4.6-0.6,9-2c-0.3,0.1-0.5,0.1-0.8,0.2C537.1,125.5,532.5,127.3,528,129.1z"/>
	<path class="st0" d="M538,126.8c1.3-0.4,2.7-0.8,4.1-1.1C542.4,124.9,540.3,126,538,126.8z"/>
	<path class="st0" d="M495,135.6c0.4,0.2,2.7-2.1,2.4-1.6c1.3-1.1-0.1-0.3-1.8,0.7C493.8,135.6,492,136.6,495,135.6z"/>
	<polygon class="st0" points="532.5,131.6 530.6,130.7 528.4,132.5 	"/>
	<path class="st0" d="M498.4,140.4l6.5-1.4c-0.2-0.2,0.7-0.6,1.7-1c-2,0.5-4.1,1.1-5.7,1.5C499.5,139.9,498.4,140.2,498.4,140.4z"/>
	<path class="st0" d="M506.7,138c2.2-0.6,4.4-1.3,5.5-1.8C511,136.6,508.4,137.4,506.7,138z"/>
	<polygon class="st0" points="523.1,134.7 521,135.1 516,136.4 	"/>
	<path class="st0" d="M499.1,120.3l6.1-5c0.4-0.9-1.5,0.2-3.8,2.1C500.2,118.8,497.9,120.7,499.1,120.3z"/>
	<path class="st0" d="M474.2,134.4c2.3-1.6,3.1-1.8,5-2.7l-3,0.1c0,0-0.6,0.7-1.1,1.3C474.6,133.8,474.2,134.4,474.2,134.4z"/>
	<path class="st0" d="M496,117.5c0.4-0.8,8.5-7.9,0.5-1.9c-0.2,0.4-1.8,1.9-2.7,2.8c-0.4,0.4-0.8,0.8-0.4,0.7
		C493.8,118.9,494.5,118.6,496,117.5z"/>
	<polygon class="st0" points="545.6,80.2 547.4,79.3 546,76.9 	"/>
	<path class="st0" d="M450,124.5c9-2.7,1.5-2.4,9.7-4.6c1.8-1.4-6.7,1.9-4.8,0.5C449.8,123.1,446.9,123.8,450,124.5z"/>
	<path class="st0" d="M454.8,120.4c0.8-0.4,1.7-0.9,2.5-1.4C455.9,119.7,455.2,120.1,454.8,120.4z"/>
	<path class="st0" d="M16.8,135.8l-2.4,1c-0.1,0-0.1,0-0.4,0.1l-0.8,0.3l-1.7,0.6l1.8-0.4l0.8-0.2c0.3,0,0.3,0,0.5,0
		c0.1,0,0.3-0.1,0.4-0.1L16.8,135.8z"/>
	<path class="st0" d="M7.1,143c0,0-0.6-0.1-1.3-0.2c-0.7,0-1.4,0-1.4,0c-0.4,0.5-0.7,0.9-1.1,1.7c-0.2,0.4-0.4,0.7-0.6,1.2
		c-0.3,0.6-0.5,1.2-0.6,1.9l-2,8.8l6.5-1.8l1.8-0.5c-0.5,0-1.1-0.1-1.7-0.2l-5.8-0.6l1.9-5.6c0.2-0.5,0.4-1.1,0.7-1.6
		c0.3-0.4,0.5-0.6,0.7-1c0.5-0.6,0.8-0.8,1.3-1.2C6.1,143.5,6.7,143.1,7.1,143z"/>
	<path class="st0" d="M369.2,99.2l0.3-0.5c-1-0.2-2.4,0.2-5.1,1L369.2,99.2z"/>
	<polygon class="st0" points="292.2,125.1 293.5,124.6 290.5,124.1 	"/>
	<path class="st0" d="M229.8,153.3c2.6-1,5.5-2.7,8.1-3.7C232.4,152.2,228.3,151.7,229.8,153.3z"/>
</g>
</svg>
