<?xml version="1.0" encoding="utf-8"?>
<!-- Generator: Adobe Illustrator 24.3.0, SVG Export Plug-In . SVG Version: 6.00 Build 0)  -->
<svg version="1.1" id="Layer_1" xmlns="http://www.w3.org/2000/svg" xmlns:xlink="http://www.w3.org/1999/xlink" x="0px" y="0px"
	 viewBox="0 0 293.7 51.2" style="enable-background:new 0 0 293.7 51.2;" xml:space="preserve">
<style type="text/css">
	.st0{fill:#232323;}
</style>
<path class="st0" d="M242.8,1.6c-1.6-0.2-1.1,0.3-1.3,0.4c1.3,0,1.7-0.1,1.6-0.2C243.2,1.7,242.8,1.5,242.8,1.6"/>
<polygon class="st0" points="271.6,10.8 271,10.7 275.4,12.2 "/>
<path class="st0" d="M283.4,14.6c0.7,0.4,1.8,0.9,3.1,1.3c1.3,0.4,2.9,0.7,4.4,0.6l-0.9,2.2c-0.7-0.6-1.8-1.1-2.9-1.6
	c-1.1-0.5-2.2-0.9-3.2-1.3l-0.8-0.5l-2.4-0.4c0.8,0.3,1.5,0.6,2.4,1c0.8,0.3,1.7,0.6,2.5,0.9c0.8,0.3,1.6,0.6,2.4,0.9
	c0.7,0.3,1.4,0.7,1.9,1.1l1-2.6C288.1,16.4,285.4,15.3,283.4,14.6"/>
<path class="st0" d="M268.7,9c0.9,0.5-3.3-0.5,3.5,0.9c-0.3-0.1-0.4-0.2-0.6-0.2C271,9.6,270.1,9.4,268.7,9"/>
<path class="st0" d="M271.6,9.7C274.6,10.4,269.7,9,271.6,9.7"/>
<path class="st0" d="M257.7,6.9l4,0.6c-0.8-0.3-4.3-1.1-3-0.9C254.7,5.9,255.5,6.2,257.7,6.9"/>
<path class="st0" d="M253.9,6.7l2.1,0.3C255.6,6.8,255.1,6.7,253.9,6.7"/>
<path class="st0" d="M260.3,7.6L255.9,7c0.5,0.2,0.6,0.5,2,0.3C257.6,7.4,258.5,7.4,260.3,7.6"/>
<path class="st0" d="M262.8,8.2c2.2,0.6,5,1.3,1,0.7c3.8,0.8,5.4,1,5.2,0.8C268.7,9.6,266.5,9,262.8,8.2"/>
<path class="st0" d="M281.7,14.8c0,0,0.7,0.3,1.4,0.6c0.7,0.3,1.4,0.6,1.4,0.6s0.6,0.1,1.3,0.3c0.6,0.1,1.3,0.2,1.3,0.2
	C285.8,16.3,281.7,14.5,281.7,14.8"/>
<path class="st0" d="M233,2.2c-0.3,0.1,1.3,0.6,1.6,0.8l3,0.3C236.1,3,233.2,2.5,233,2.2"/>
<path class="st0" d="M234.6,3l-4.4-0.4C234.1,3.3,234.8,3.3,234.6,3"/>
<path class="st0" d="M253,7.3l7.3,0.9c0,0-2.2-0.3-4.3-0.6c-2.2-0.3-4.3-0.6-4.3-0.6L253,7.3z"/>
<polygon class="st0" points="216.1,0.1 218.7,0 214.1,0.1 "/>
<path class="st0" d="M214.9,8.3c-2-0.2,2.5,1.1,0.4,0.8c0.4,0.1,0.8,0.2,1.1,0.2c0.3,0.1,0.6,0.1,0.9,0.2c0.7,0.1,1.4,0.3,2,0.4
	c1.3,0.2,2.6,0.4,3.7,0.6c-1.2-0.2-2.5-0.5-3.9-0.9c-0.7-0.2-1.4-0.4-2.1-0.6C216.5,8.8,215.7,8.5,214.9,8.3"/>
<path class="st0" d="M227.1,11.1c-1.2-0.2-2.5-0.4-3.9-0.6C224.5,10.7,225.8,10.9,227.1,11.1"/>
<path class="st0" d="M222.6,1.6c-0.3-0.1-1-0.5-3.4-0.8l1.7,0.6C221.4,1.5,222,1.5,222.6,1.6"/>
<path class="st0" d="M220.9,1.4L220.9,1.4c-2-0.2-3.3-0.4-3.8-0.5C217.6,1,218.7,1.2,220.9,1.4"/>
<path class="st0" d="M223.1,1.7c-0.2,0-0.3,0-0.4-0.1C222.8,1.7,222.9,1.7,223.1,1.7"/>
<path class="st0" d="M241.6,4.9c-2.6-0.2-8-0.8-2.9,0.4C240.6,5.3,237.7,4.6,241.6,4.9"/>
<path class="st0" d="M225.1,2.5l4.7,0.7c-0.1-0.1-0.9-0.4,0.4-0.3L225.1,2.5z"/>
<polygon class="st0" points="222.8,2.3 225.1,2.5 223.4,2.2 "/>
<path class="st0" d="M219.3,8.8c2,0.3,4.2,0.8,6.7,1.4c-2.6-0.7-5.3-1.4-7.9-2.1C217.7,8.1,216.5,8.1,219.3,8.8"/>
<path class="st0" d="M208.5,4.6c0.3,0.4,0.7,0.8,0.9,0.9C209,5.2,208.5,4.4,208.5,4.6"/>
<path class="st0" d="M250.1,16c-0.1-0.1-0.2-0.1-0.4-0.2c0,0-0.1,0-0.1,0.1L250.1,16z"/>
<path class="st0" d="M217.7,7.9c-0.8-0.3-1.7-0.4-2.4-0.6c-0.7-0.1-1.3-0.2-1.9-0.3c1.5,0.4,3.2,0.7,4.7,1.1
	C218.3,8.1,218.3,8,217.7,7.9"/>
<path class="st0" d="M233.9,12.6c-1-0.3-2.2-0.7-3.4-1.1C231.5,11.9,233.5,12.6,233.9,12.6"/>
<path class="st0" d="M210.4,6.2C210.2,6.1,210.1,6,210,6C210.8,6.5,210.7,6.4,210.4,6.2"/>
<path class="st0" d="M210.4,6.2c1.3,0.5,2.1,0.6,3,0.8c-0.6-0.2-1.3-0.3-1.9-0.6c-0.6-0.2-1.2-0.4-2-0.9
	C209.9,5.8,210.2,6,210.4,6.2"/>
<path class="st0" d="M258,14.9c-0.4,0.3-5.7-0.5-10.1-1.9c-4.5-0.7-1.9,1.2,1.8,2.8c0.2-0.1,0.2-0.3,4.8,0.5
	c-1.5-0.6-10-2.7-6.1-2.2c6.1,1.1,4.9,1.2,7.8,2.1c-2.4-1,7.8,1,6.7,0l-5.3-0.9C257.5,15.1,259.5,15.3,258,14.9"/>
<path class="st0" d="M241.1,13.8l-1.9-0.4c2.1,0.6,3.6,1.1,6.3,2.1c3.2,0.5,3.8,0.5,4.1,0.4c0,0-2.3-0.5-4.6-1
	c-2.3-0.6-4.6-1.2-4.6-1.2L241.1,13.8z"/>
<path class="st0" d="M230.9,11.3c1.6-0.1,6.1,0.9,3.5-0.3c-5.5-1.3-3.9-0.6-7.2-1.2C235.9,11.9,224.5,9.4,230.9,11.3
	c-1.8-0.4-3.4-0.8-4.9-1.1c1.6,0.4,3.1,0.9,4.5,1.3c-0.1,0-0.1-0.1-0.2-0.1l0,0l0,0c-0.4-0.1-0.5-0.2-0.1-0.1c0,0,0.1,0,0.2,0
	C230.5,11.3,230.7,11.3,230.9,11.3c2.5,0.7,0.4,0.2-0.4,0.1c0,0-0.1,0-0.1,0c0,0,0,0,0,0l8.9,2C237.4,12.8,235,12.3,230.9,11.3"/>
<path class="st0" d="M233.8,5.4c-0.3-0.1-0.3-0.1-0.3-0.1C232.9,5.3,232.7,5.3,233.8,5.4"/>
<path class="st0" d="M230.1,4.6c0.7,0,1.2-0.1,3.4,0.3c1.8,0.4,0,0.2,0,0.4c1.3,0.1,4.5,0.4,0.5-0.4l-0.6,0
	c-3.6-0.7-8.2-1.8-7.6-1.8C226.9,3.5,227.8,3.9,230.1,4.6"/>
<path class="st0" d="M210.9,4.9c0,0,0.5,0.2,1.2,0.5c0.7,0.2,1.7,0.5,2.6,0.7c1.8,0.4,3.7,0.8,3.7,0.8l-3.6-1.3l0.1,0.3
	c-2.1-0.6-2.9-0.9-3.4-1C211.2,4.9,211.2,5,210.9,4.9"/>
<polygon class="st0" points="250.9,16.4 249.8,16.6 254.2,16.9 "/>
<polygon class="st0" points="260.5,18.4 260.1,18.8 262.7,19.1 "/>
<path class="st0" d="M192.6,22.5l2.2,0.4C193.7,22.7,193.1,22.6,192.6,22.5"/>
<path class="st0" d="M176.7,19.2l-0.4,0.1C177,19.3,177.4,19.3,176.7,19.2"/>
<path class="st0" d="M274.2,25.1c-3.1-1-6.6-2.2-6.3-1.7l0.9,0.6C271.1,24.4,272.8,24.7,274.2,25.1"/>
<path class="st0" d="M255.1,27.9c-0.3-0.1-0.6-0.2-0.9-0.3c-0.8,0-1.6,0-2.2,0C252.9,27.7,254,27.8,255.1,27.9"/>
<path class="st0" d="M257.6,26.5c0,0,1,0.3,2.1,0.5l2.1,0.6C260.9,27.3,259.5,26.9,257.6,26.5"/>
<path class="st0" d="M205.2,34.3l-2.6-0.1C206.5,35.1,204.8,34.5,205.2,34.3"/>
<path class="st0" d="M225.9,7.2c-2.8-0.4-5-0.5-7-0.7C222.3,6.9,225,7.5,225.9,7.2"/>
<path class="st0" d="M185.4,25.7c1.3,0.2,1.9,0.2,1.9,0.1C186,25.6,185.2,25.5,185.4,25.7"/>
<path class="st0" d="M210.9,6.2c0.5,0.1,1,0.1,1.5,0.1c2.1,0,4.1,0.1,6.6,0.2C216.5,6.2,213.6,5.9,210.9,6.2"/>
<path class="st0" d="M118.9,39c-0.2,0-0.5,0-0.7,0C118.1,39.2,118.4,39.1,118.9,39"/>
<path class="st0" d="M26.2,46c0.9-0.2,2.4-0.4,3.8-0.7C29.3,45.4,28.1,45.6,26.2,46"/>
<path class="st0" d="M286.5,18C288.6,18.5,286.8,18,286.5,18"/>
<path class="st0" d="M289.5,23.5c0.4,0,0.8,0.1,0.9,0C290.2,23.5,289.9,23.5,289.5,23.5"/>
<path class="st0" d="M207,12.7c0.1,0,0.1,0,0.2,0.1C206.6,12.5,206.7,12.5,207,12.7"/>
<path class="st0" d="M289.6,19.1c-0.8-0.3-1.7-0.6-2.6-0.9C287.3,18.3,288.1,18.6,289.6,19.1"/>
<path class="st0" d="M289.2,18.8c0.7,0.3,1.3,0.5,1.8,0.7C291.3,19.5,291.1,19.3,289.2,18.8"/>
<path class="st0" d="M283.6,17.2c1.2,0.3,2.3,0.6,3.3,0.9c-0.4-0.1-0.6-0.2-0.5-0.2C285.9,17.8,285,17.6,283.6,17.2"/>
<path class="st0" d="M181.2,32.8c-0.1,0-0.3-0.1-0.4-0.1C178.7,32.6,179.6,32.7,181.2,32.8"/>
<path class="st0" d="M219.9,20.8c0.1,0,0.1,0,0.2,0C220.1,20.8,220,20.8,219.9,20.8L219.9,20.8z"/>
<path class="st0" d="M212.5,20.1c3.2-0.1,5,0.2,7.4,0.6l-2.3-1.6L212.5,20.1z"/>
<path class="st0" d="M230.3,31.1c0,0-1.3-0.4-2.5-0.9c-1.3-0.4-2.5-0.9-2.5-0.9c6.4,1,10.8,2.6,6.1,0.6c-0.5,0.5-5.5-0.8-10.5-2
	c-5-1.2-10-2.2-10.5-1.6l-3.3-1c1,0.2,1.1,0.2,2.1,0.4c-6.5-2.1-5.1-0.1-13.6-2.1c-2.9-0.7-5-1.4-2.9-1.1l-6.7-1.1
	c-1.9-0.4-1.4-0.6,0.5-0.1c0,0-2.5-0.5-5-1c-1.2-0.3-2.6-0.5-3.6-0.7c-1-0.1-1.6-0.2-1.6-0.2l0.1,0c-1.5,0-4.7-0.3-6.1-0.7
	c-1.1-0.5-0.8-0.5-0.3-0.3c0.5,0.2,1.2,0.4,0.9,0.2c-1.2-0.3-2.4-0.8-3.4-1.4l-0.7,2.9c0.5-0.1,0.9-0.2,1.4-0.3
	c1.3,0.1,0.3,0.3-1.3,0.7l0.9-3.6c0.9,0.6,2.3,1.2,3.7,1.6c-1.7-1.1-2.4-1.6-3.4-2.1L167,21c1.8-0.4,4.1-1.2,10.7-0.2
	c0,0-1.3-0.1-2.6-0.1c-1.3,0-2.6,0-2.6,0c3.3,0.8,7.2,1,13.4,2c-0.7-0.2-3.8-0.8-5.8-1.3c-2-0.5-3.1-0.9-0.1-0.8
	c1.7,0.3,4,0.6,7.4,0.6c0,0.5,3.2,0.6,7.3,1l-0.3,0.6c4.4,0.3,4.1-0.1,6.7-0.1c4.8,0.6,5.8,1.3,6.9,1.8c7.7,1.2-5.2-1.5,3.9-0.4
	c6.4,1.2,10.9,1.7,18.6,2.8c4.4,1.1-0.9,0.2,0.7,0.7l4.1,0.3c1,0.2,0.6,0.3,0.4,0.3c3.4,0.5,0.4-0.6,5.7,0.3
	c0.8-0.2,3.4,0.6,6.7,1.5c3.3,0.9,7.3,1.8,10.7,1.9c1.6,0.4-0.8,0.3-0.4,0.6c3.5,0.4,5.5,0.6,7.1,0.7c1.7,0.1,3,0.2,5.2,0.1l0.6-3
	c-0.3,0-1.5-0.4-3.3-0.8c0,0-1.5-0.6-3.1-1.1c-1.6-0.5-3.1-0.9-3.1-0.9c4.6,1.5-1.5,0.6-6.8,0.3c1.6,0.5,3,0.9,3.9,1.2l-8.3-1.1
	c-1-0.3-0.1-0.4,1.3-0.4c-0.6,0-1.1-0.1-1.5-0.1c-2.9-0.7-1.3-0.8,0.9-0.8c1,0.3,2,0.6,2.9,0.9c2.1,0,4.1-0.1,3.7-0.6
	c-0.6,0-1.6-0.1-2.7-0.3c0.6,0,0.9,0,0.7-0.2c-0.3-0.1-1.2-0.1-2.5-0.2l-1.7-1l-0.5,0.2l-10.7-2.2c-7.9-0.6-14.8-0.6-27.1-2.4
	c3.1,0,0.8-0.7,1.1-1.3c3.2,1.2,9.5,1.3,15.9,2.5c-3.3-0.6-2.5-0.8-1.7-0.8L217.1,20c0.3-0.5-2.3-0.8-5.2-1.5
	c2,1.4-8.5-0.9-13.2-1.5c-0.2-0.4,0.9-0.5,6.5,0.7c-6-1.9-8.2-0.5-14.1-2.3c1.4,0.3,2.1,0.5,2.7,0.4c-1.6-0.2-4.4-0.7-6.4-1.3
	c-2-0.6-3.3-1.3-2.4-1.1l0.6,0.2l0.6,0.2c-0.8-0.3-1.7-0.6-2.6-1l-1,3.1c4.9,0.9,11.3,1.4,16.5,1.8c5.2,0.4,9.4,0.7,10.1,0.4
	c0.1,0.1-1.3,0.9-1.9,1l8.4-0.4l8.4-0.3c-1.5,0.5,3.7,3-3.9,2.4c2.2,0.4,4.8,0.9,9.5,1.3c-1.5-0.3-3.5-1.6-1.5-1.4
	c5.4,1.6,3.8,1,10.6,2.7c-2.2-0.5,0.4-1.3,4-0.7c-0.6,0.1,0.1,1.2-1.2,1.1l8.9,0.3c-2.2-0.2-0.5,0.9,1.4,1.5
	c-0.9-0.4,7.5,1.3,9.9,1.6l-3.6-0.9c9.8,1.9,10,0.1,19.7,2.1c-1.2,0-3.2,0.8,1.7,1.9c1.7-0.1,6.5-0.4,12.2,0l-0.1,1.4
	c-2.2,0.4-4.7,0.4-7.2,0.2l-1.6-0.6c0,0-1.7-0.2-3.4-0.4c-1.7-0.2-3.3-0.4-3.3-0.4c1.5,0,4,0,6.8,0c2.8,0,6-0.1,8.7-0.6l-0.2,2.2
	c-2.8-0.3-5.1-0.5-7-0.6c3.6,1,0.9,0.6,6.4,1.7c0.2,0.1,0.3,0.1,0.3,0.1l0.4-4.7c-0.2,0-0.2-0.1,0-0.1l-0.5,4.9
	c-0.7,0-3.7-0.5-4.9-0.8l4.9,1.1l0.5-5.6c-2.4,0-4.9-0.3-7.5-0.7c0.2,0.4-2.2,0.2-4.7-0.2c-2.5-0.3-5-0.6-4.8-0.3c0,0,3.5,0.5,7,0.9
	c1.7,0.2,3.5,0.4,4.7,0.5c1.3,0.1,2.1,0.1,2.1,0.1c0.3,0.3-1.7,0.7-5,0.6c-3.3-0.2-7.8-0.7-12.3-1.6c-2.3-0.7,1.9-0.8,1.8-1.1
	c-1.2,0-8.7-1.2-9.5-1.6l3.9,0.4c-5-1.2-8.4-0.8-14.3-2.7c-2.1-0.5-6-2.3-6.4-2c3.2,1.5,3.3,4,0.9,4c-0.7-0.2-10.7-3.3-13-4.3
	c-3.3-1.4,5.5-0.1,2.7-1.4c-0.2,0.1-2.1-0.1-2.9-0.2c-2.1-0.7,1-0.3-3.7-1.4c-1,0.5-9.6-2.5-2.4,0c-4.7-1-4.9-1.4-10.3-2.8
	c1.6,0.9-5.2,0.2-9.9-1.1c0.3-0.1-0.6-0.6-1.1-0.9c-0.8-0.3-1.6-0.5-2.4-0.8c-0.4-0.1-0.8-0.2-1.1-0.4c-0.4,0-0.8,0-1.1-0.1
	c-1.5-0.2-2.6-1.1-3.1-2.3l-0.2,0.3c5-0.4,9.2-0.3,15.1-0.1c0.8,0.2,5.2,0.6,3.3,0.8c1.3,0,2.5-0.2,5.3-0.1c5.4,0.9-6.3-0.3-2.2,0.7
	c0.4-0.4,7.3-0.1,11.3,0c-1.2-0.7-9.2-0.8-13.2-0.7c0-0.8,7-1.4,16.6-1c7.6,0.5,3.2,0.9,4.5,0.9c7.1,0.9,10.1,1.1,12.9,1.2
	c2.8,0.2,5.2,0.4,11,2c4.5,1.6,0,1.1,0.9,1.7c-6.1-1.2-9.2-2.4-13.3-3l2.5,0.6c1.3,0.3,2.5,0.6,2.5,0.6c-2-0.2-6-0.8-8.2-1.3
	c1.9,0.5,7.8,1.5,14.5,3.1c6.7,1.5,14.2,3.6,19.4,5.3c1.9,0.3,5.2,1,3.7,0.4l-3.4-0.8c-3-1.2,6.5,1.1,2.3-0.2
	c2.6,0.5,5.5,1.1,8.5,2.4l-0.9,2.7c-2.4-0.4-5-0.9-7.7-1.7l-1.1-0.9c0.1,0.2,4.1,1.4,6,1.6c-2.8-0.3-9.6-3.2-12.7-3l4.4,1.5
	c-4.6-0.8-10.4-1.4-16-2.8c2.5,1.2,1.3,0.2,5.2,1.8c-1.7-0.8,2,0,5.3,0.7c3.3,0.7,6.4,1.5,3.7,0.4c3.9,1.8,7,2.1,12.4,3.9
	c-0.1-0.2-1-0.5,0.2-0.3l1.7-5c-0.5-0.2-1.3-0.6-2.7-1.2c-0.2,0-0.8-0.2-1.1-0.2c-0.1-0.1-0.2-0.1-0.3-0.1c0.1,0,0.2,0.1,0.3,0.1
	c-0.2,0-0.2,0,0.1,0c1.1,0.5,2,1,2.4,1.3c-1.3-0.3-3.8-1.1-6.4-1.7c-2.6-0.6-5-1.2-6.3-1.4c-2.8-0.9,1.2,0.1-0.2-0.5l-3.9-0.7
	c-0.3-0.5-7.3-2.7-0.6-1.2l-6-1.6c-3.5-1.1-8.4-2.4-11.4-2.8c-2.9-0.7-7.4-0.8-4.8-0.8c0,0-2.4-0.3-4.8-0.6
	c-2.4-0.3-4.8-0.5-4.8-0.5l-0.1-0.1c-9.5-1.2-19.7-1-30.5-2.3c-3.3,0-6.6,0-12.2,0.4l-1.1-0.3c-0.1,0-0.2,0-0.4,0L194.8,7l1.7,3.4
	c0.4,0.7,0.9,1.6,1.7,2.3c0.8,0.7,1.9,1.2,2.9,1.5c0.5,0.1,1,0.2,1.5,0.3l0.3,0c0,0,0.1,0,0.1,0c0.6,0.2,1.3,0.4,1.9,0.7
	c2.6,0.9,4.9,1.6,5.8,1.7c2,1.1,6.8,2.6,12,3.8c5.2,1.3,10.8,2.5,14.3,3.4l0.4-0.4c4.8,1.2,9.5,2.2,15.6,3.4l-0.3-0.5
	c5.3,0.8,13.3,3.2,21.7,4.7c-0.6,0.1-2.7-0.4-4.2-0.8c3.3,1,6.8,1.6,10.4,2.2c3.6,0.6,7.3,0.9,11,0.7l0.4-4.1
	c-3.1-0.6-6.2-1.2-8.9-2c-2.3-0.3-3.9-0.7-5.4-1.1c0.2,0,0.4,0.1,0.6,0.1c-0.2,0-0.6-0.1-0.9-0.2c-1-0.3-2-0.5-3.1-0.8
	c0.9,0.3,1.8,0.5,2.6,0.7c-1.7-0.3-4.4-0.8-6.9-1.1l-1-0.7c-0.2,0-0.4-0.1-0.6-0.1c-2.5-0.6-2.1-0.1-0.8,0.5
	c-1.3-0.2-2.5-0.3-3.4-0.3c-1.9-1.1-6.8-0.9-9.4-2.2c-1.8,0.1-13-1.8-14.5-1.2c-0.1-0.1-0.8-0.3,0.6-0.1c-2.9-0.6-5.7-1.1-8.3-1.2
	l-1.1-0.8l-6.4-0.1c-3.8-0.9-5.3-1.3-1.5-1.3c-9.3-0.5-7.5-0.8-15.4-1l0.4-0.3c-2.8-0.3-7.3-0.3-9-0.8c-1.3-0.3-3.6-0.6-6.4-0.9
	c-2.8-0.3-6.2-0.7-9.8-1.3l-1,3.1c2.4,1.1,5,1.7,7.6,2.2c1.3,0.3,2.6,0.5,3.9,0.8l3.9,0.8c5.2,1.1,10.4,2.2,14.8,3.2
	c-2.9-1.7,7.3,1.8,8.1,1c0.9,0.4,3.1,0.9,0.5,0.8c8.1,1.1,12.1,2.5,17.8,2.6c0.9,0.4-1.8,0.1-1,0.4c0.7,0,2.6,0.2,3.4,0.5
	c0.8,0.3-1.2,0-2.5-0.1c8.3,1.3,9.3,0.6,10,0c4.1,1.1,6.3,1.4,9.4,1.4c1.4,0.5,3.8,1.2-1.3,0.4c1,0.2,3.2,0.6,5.8,1.2
	c2.6,0.6,5.3,1.5,7.4,2.3l0.7-3.2c-2.2,0-3.9-0.1-4,0.1c-0.9-0.2-4-0.6-4.8-0.7c-6.5-1.1-7-1.2-13.4-2.3l1.7,0.4
	c-2.6,0.3-5.3-0.8-10.4-1.8l0.2,0c-5.8-1.5-7.1-1.7-8.3-1.9c-1.3-0.2-2.5-0.4-8.3-1.8l0.6,0.6c-1.3,0.8-10.2-2.4-17.1-2.9l2.4,0.6
	c-3.7-0.2-10.2-2.7-14-3.2c-0.8-0.2,1.3,0,2.5,0c-9.8-1.6-1.3,0.5-8.7-0.1c-1.3-0.5,1.8-0.7-3.1-1.2c-1.1-0.2-4.1-0.3-7.9-0.4
	c-3.7-0.1-8.2,0-11.9,0.5l-5.1,0.7l4.2,3.2c0.6,0.5,1.2,0.9,1.8,1.2c-0.7-0.5-1.4-1.1-1.4-1.3c0-0.2,0.5,0.1,2.2,0.9
	c2.7,1.3,6.3,2,9.6,2.7c1.6,0.3,3.3,0.8,4.8,1.1c1.5,0.3,3,0.5,4.2,0.6c0.6,0.2,0.9,0.3,0.9,0.4c3.9,0.6,12.7,2.4,15.2,2.4
	c1.6,1.2,7.7,2.3,13.3,3.3c5.6,1.1,10.7,2.2,10.5,2.9c0,0,3,0.8,5.9,1.6c0.4,0.1,0.7,0.2,1.1,0.3c0.5,0.1,0.8,0.2,1.2,0.3
	c0.7,0.2,1.3,0.3,1.8,0.5c1,0.3,1.7,0.5,1.7,0.5l-0.3,0c0.6,0.2,1.2,0.5,1.5,0.7c0.1,0.1,0.1,0.1,0.2,0.2c0,0,0.1,0.1,0.1,0.1
	c0,0,0,0,0,0c0,0,0.1-0.1,0.1-0.1c0.1-0.1,0.2-0.1,0.4-0.2c0.1-0.1,0.2-0.1,0.3-0.1l0.9-2.1c-2.3,0.2-4,0.1-5.3,0
	c-1.4-0.1-2.5-0.1-3.6-0.2c-1.7-0.5-0.4-0.3-0.3-0.4c-2.7-0.6-4.9-1.3-6.7-1.7c-1.8-0.4-3.3-0.8-4.7-1c-2.9-0.6-5.5-0.9-10.3-1.6
	l-0.9-0.7c-1.3-0.1-5.3-1.2-10.4-2.5c-5.1-1.3-11.2-2.7-16.8-3.5c0.1,0,0.4-0.1,1.3,0c-6.3-0.9-13.7-2.6-20.3-3.6
	c-3.3-0.5-6.3-0.9-8.8-1.1c-2.5-0.1-4.5-0.1-5.6,0.2c-1.2-0.1-2.5-0.2-3.7-0.3l-0.5,2.8l4.5,0.7c-10.5-2.4,1.7-0.4-2.5-1.7
	c4.2,0.8,10.6,2.9,5.5,1.9l-0.8-0.3c-2.1,0.5,13,3.3,12.6,3.9c7,1.6,14.1,2.8,20.9,4.1c3.4,0.7,6.8,1.4,10.2,2.2l2.5,0.6l2.5,0.6
	c1.6,0.4,3.2,0.8,4.4,1.5l1.1-3.7c-6.6-0.9-13.1-1.8-19.5-2.6l2.2,1l-6.9-0.9c-1.8-0.4-2.4-0.9,2.6-0.2c-2.5-0.7-8.3-0.7-8.5-0.5
	c-9.6-1.4,3.9-0.4,0.9-0.8l-4-0.4l0.9,0.2c-3.3-0.1-3.6,0.2-9.6-0.5c-3.7-0.5-1.9-0.6-3.4-0.8c0-0.1-0.5-0.1-2.3-0.2l-8.7-0.8
	l3.4,0.8c-3.9,0-8.2-0.6-4.2,0.3c-2.9-0.7-11.1-1.4-18.9-1.8c-3.9-0.2-7.8-0.4-10.9-0.5c-3.1-0.1-5.4-0.3-6.3-0.5
	c-4.9,0.1-9.8-0.4-15.8,0.1l-1.8,0.1l0.8,1.7c0.5,1,1.4,1.5,2.1,1.9c-0.9-0.4-1.5-1.4-1.1-1.2c0.2,0.1,0.6,0.4,1.3,0.6
	c0.7,0.3,1.8,0.5,3.2,0.8c-0.6,0.2-0.2,0.5,0.7,0.8c0.4,0.1,1,0.3,1.7,0.5c0.7,0.2,1.5,0.4,2.3,0.6c3.4,0.8,7.7,1.5,9.9,2.3
	c-2-0.6,2,0,5.9,0.3c3.8,0.3,7.4,0.3,4.1-0.3c4.8,0.4,0.3,0.5,3.9,1c3.1,0,6.4-0.1,9.8-0.1c1.7,0,3.5,0,5.1,0.1c1.7,0,3.7,0.4,6-0.4
	l-1.1-3.6c-5.9,1.2-12.1,2.2-18.3,3.3c-0.2,0.2,2.2,0.1-0.8,0.8l-3.7,0.1c-1.9,0-3.7,0.1-3.7,0.1c-2.7,0.4-2.4,1.3-7.5,1.3
	c0.7,0.1,1.8,0.2,0,0.4c-13.7,1.1-27.7,2.4-41.7,3.9c-14.1,1.6-28.1,3.7-42.1,5.2c3.8-0.3,1.3,0.2-1.5,0.7c1.9-0.2,0,0.4,0.4,0.6
	l-11.7,1.4c-1,0.5-4.1,1.1-7.1,1.7c-2.9,0.6-5.7,0.9-6.3,1.3c0,0,0.9-0.1,1.8-0.3L9,49.7c-2.3,0.7-0.6,0.9,1.7,1
	c2.3,0,5.1-0.1,4.8,0.5c5.2-1.9,14.5-1.3,23.2-4c2-0.1-1.6,0.6-0.5,0.6c2.2-0.8,4.9-1.3,10-1.9l-0.6,0.2c7.1-1.1,12.2-1.7,17.6-2.3
	c5.3-0.5,10.9-1,19-1.6l-1.2-0.4c3.5-0.3,4.2-0.2,5.8-0.2c3.9-1.1-9.7,0.9-6.2-0.3c4.7,0.5,24.5-2.2,27.7-1.5
	c5.3-0.6-1.6-0.4,3.7-0.9l1.4,0.1l1.3-0.5c3.5-0.3,5.3-0.2,5.5,0c-0.9,0.1-2.4,0.4-3.3,0.5c4.6-0.2,12.8-1.8,14.4-2
	c0,0-1.3,0.2-2.6,0.3c-1.3,0.1-2.6,0.3-2.6,0.3c6.9-1.1,14.6-2.4,22.1-4.2l-1.2-4.1c-0.6,0.2-1.4,0.3-2.3,0.3c-0.9,0-2-0.1-3.2-0.1
	c-2.1,0-4.2,0.1-6.2,0.1c-4.1,0.1-8,0.1-11.6,0l1,0.3c-2.7,0-4.5-0.2-6-0.4c-1.5-0.2-2.6-0.4-3.7-0.6c-2.2-0.4-4.6-0.8-10.4-1.8
	l0.4,0c-1.2-0.1-2.5-0.3-4-0.6c-0.8-0.1-1.5-0.2-2.3-0.4c-0.7-0.1-1.5-0.3-2.1-0.5c0.7,0.2,0.6,0,0.2-0.2c-0.2-0.1-0.4-0.3-0.6-0.4
	c0-0.1-0.1-0.1-0.1-0.2c0,0,0,0,0,0c-0.1,0.1-0.1,0.1-0.1,0.1c-0.1,0-0.1,0.1-0.2,0.1l-1.1,2.4c0.7,0,1,0.1,0,0.3l1.1-2.7
	c0,0,0.1,0,0.3-0.2c-0.1,0.1-0.2,0.1-0.3,0.2l-1.1,2.7c2.7-0.3,4.4-0.4,5.5-0.4c1.1-0.1,1.7-0.1,2.2-0.1c0.9-0.1,1.4-0.3,5.2-0.5
	l1.7,0.5c2.6-0.2,2.9-0.3,8.8-0.1c-4.9,0.1,3.7,0.7-1.7,0.9c12.3,1.4,18.4,0.2,24,1.7c5.8-0.6-10.7-1.3-7.5-1.3
	c-2.6-0.5,4.7-0.5,8.6-0.1c3.9,0.3,6.6,1.8,16.5,2.6c-1-0.1-1.1,0-2-0.1c3.7,0.6,7.3,0.3,11.8,1.3c2.6-0.3,5.9,0.7,6.7,0l-4.5-0.5
	c-2.3-0.2-4.5-0.4-4.5-0.4c5.2,0.4,10.1,0,18.5,1.6c-0.7,0.1-3.2,0-5-0.1c2.4,0.5,4.8,0.5,7.3,1c-0.8,0.7-11-1.3-16.6-1.3
	c2.6,0.6,10.5,0.7,7.6,1.2c4.1-0.6,9.7,1.4,16.5,1.4l-0.5,0.4c1.1,0.1,3.3,0.1,5.3,0.4l-3.6,0.2c2.7,0.1,5.2,0.5,7.8,0.9l1.5-4.8
	c-2.9-1.6-5.7-2.1-8.2-2.6c2.5,0.6,4.2,1,5.1,1.3c0.9,0.3,1,0.5,0.8,0.5c-0.1,0.1-0.5,0.1-0.5,0.2c0,0.1,0.3,0.3,1.5,0.9
	c-1.8-0.7-3.3-0.9-4.4-1.2c-1.2-0.2-2.1-0.5-2.8-0.7c-1.6-0.5-2.5-0.8-3.6-1.2c-2-0.8-4.3-1.7-11.8-3c2,0.3,7.6,1.7,4.3,1.3
	c-2.8-0.6-6.6-1.5-8.3-2.1c-9.9-1.7,1.4,0.8-2.8,0.3c-3.3-1.2-4.8-0.6-9.2-1.4l0.1-0.5c-11.1-2.8-3.2,0.3-13.1-2.3l4.4,0.3l-5.3-1
	l1.2-0.3c-3.9-0.6-6-1-8.6-1.6l-0.8,4.5c1.3,0.2,2.8,0.5,4.7,0.7c-1.3-0.5,0.9-0.8,5.9-0.3c3.4,0.6-2,0.2,5.1,1
	c-1.6,0.1-3.4,0.3-6.5-0.5c-0.3,0.1-1.6,0.2-2,0.3c1.9,0.3,4.1,0.6,6.3,0.8c2.2,0.2,4.2,0.4,5.5,0.6c-1-0.1-2.2-0.3-2.7-0.5
	c0,0,2.6,0.1,5.2,0.4l5.2,0.5c1.6,0.4,0.3,0.4-1,0.3c2.1,0.3,3.5,0.3,6.6,0.8c-0.9,0.2-0.7,0.7-5.1,0.1l4.9,0.6
	c2.4,0.3,4.9,0.7,4.9,0.7c0.6,0.3,4.9,1.4,3.6,1.3c5.3,1.3,13.3,2.1,20.4,3.9c0.4,0,1.1,0.1,2.7,0.4c6.7,1.6,12.5,3.3,20.5,4.6
	c0,0,1.1,0.4,2.2,0.9c1.1,0.4,2.3,0.8,2.3,0.8c3.4,0.4,1.8,0,0.7-0.4c-0.5-0.2-0.9-0.4-0.5-0.4c0.4-0.1,1.7,0.1,4.5,0.2
	c1.7,0,2.9,0,3.6,0l2.3,0l-0.3-2.3c-0.1-0.4-0.2-0.9-0.3-1.1c-0.1-0.2-0.2-0.5-0.4-0.6c-0.2-0.4-0.3-0.5-0.4-0.6
	c-0.2-0.3-0.1-0.3,0-0.3c0.2,0,0.4-0.3-0.9-1.2c-1.2-0.6-2.4-0.9-3.8-1.2c-0.7-0.1-1.4-0.3-2.1-0.4c-0.3-0.1-0.7-0.1-1-0.2
	c0,0-0.3,0-0.4-0.1l-0.5-0.1c-2.9-0.7-6.2-1.5-9.5-2.7C226.5,30,228.2,30.5,230.3,31.1 M179.9,20.6c-1.5-0.1-4.5,0-5.5-0.3
	C176.1,19.9,177.4,20.2,179.9,20.6 M243.8,25c1.1,0,2.9,0.4,4.8,0.9C247.2,25.7,245.6,25.5,243.8,25 M264.2,12.6c-0.1,0-0.1,0-0.2,0
	C260.7,11.6,261.9,12,264.2,12.6 M271,14.5c0.7,0.1,0.7,0,0.4-0.1c-0.5,0-2.1-0.4-3.8-0.9C268.1,13.7,268.9,14,271,14.5 M159.4,27.1
	l1.4,0.3C157.7,27.2,158.5,27.2,159.4,27.1"/>
<path class="st0" d="M257.3,26.6c0.4,0.2,0.5,0.3,0.6,0.4C258.5,27,258.5,26.9,257.3,26.6"/>
<path class="st0" d="M205.7,34.4l-0.2-0.1c-0.1,0-0.2,0-0.3,0L205.7,34.4z"/>
<path class="st0" d="M234.5,18.2c1.4,0.4,2.2,0.7,2.7,0.9C237.3,19,236.7,18.7,234.5,18.2"/>
<path class="st0" d="M277.9,22.7l4.4,0.9c-2.1-0.5-2.9-0.8-3.9-1.1C278.5,22.7,279.3,23,277.9,22.7"/>
<path class="st0" d="M240.4,11.2c-0.7-0.1-1.4-0.3-2-0.4l0.1,0.3C241.2,11.7,243.2,12,240.4,11.2"/>
<path class="st0" d="M274.2,20.2c-0.3-0.5-3.1-0.9-6.2-1.6c0.2,0,0.4,0.1,0.5,0.1C267.6,19.2,270.9,19.7,274.2,20.2"/>
<path class="st0" d="M267.4,18.5c-1-0.2-1.9-0.4-2.9-0.6C264.1,18.1,265.7,18.2,267.4,18.5"/>
<path class="st0" d="M279.8,16.5c1.4,0.5,1-0.3,1.8,0.1C283.3,16.6,271.7,14.6,279.8,16.5"/>
<polygon class="st0" points="272,18.4 273,19.1 274.9,19.1 "/>
<path class="st0" d="M289,21.2c1.2,0.5,2.5,1,3.6,1.6l-0.2,0.5l-1.1-0.2c0.1,0.1-0.6,0-1.4-0.1c0.8,0.2,1.6,0.4,2.4,0.5l0.3-0.8
	C290.7,21.6,289,21.1,289,21.2"/>
<path class="st0" d="M290,23c-1.6-0.3-3.1-0.7-4-0.8C286.9,22.3,288.8,22.7,290,23"/>
<polygon class="st0" points="278.8,19.7 280.2,20.2 283.7,21.1 "/>
<path class="st0" d="M235.9,9.9l-5.5-0.3c-0.6,0.1,0.9,0.3,3,0.5C234.7,10,236.7,10.1,235.9,9.9"/>
<path class="st0" d="M252.2,13.4c-1.4-0.4-1.5-0.5-2.3-0.8l-0.3,0.6L252.2,13.4z"/>
<path class="st0" d="M236.3,11.5c-0.6,0.1-8-0.2-1,0.4C235.9,11.7,241.4,12.1,236.3,11.5"/>
<polygon class="st0" points="242.4,21.8 241,21.5 241,22.6 "/>
<path class="st0" d="M268.3,29.3c6.4,1.4,1.6-0.3,7.4,1.1c1.6,0.1-4.7-1.2-3.1-1.1C268.7,28.8,266.6,28.3,268.3,29.3"/>
<path class="st0" d="M272.6,29.3c0.6,0.1,1.3,0.2,2,0.2C273.4,29.3,272.9,29.3,272.6,29.3"/>
<path class="st0" d="M10.9,48.3c0,0-1,0.1-2,0.2c-1,0.1-2,0.2-2,0.2s0.7,0,1.3,0c0.7,0,1.3,0,1.3,0L10.9,48.3z"/>
<path class="st0" d="M3.3,50l-1-0.6c0,0-0.6,0.1-1.2,0.3C0.6,49.8,0,49.9,0,49.9C0.9,49.9,2.6,49.9,3.3,50"/>
<path class="st0" d="M191.4,23l0.3-0.1c-0.6-0.2-1.6-0.3-3.5-0.5L191.4,23z"/>
<polygon class="st0" points="197.9,23 196.9,22.8 198.6,23.7 "/>
<path class="st0" d="M239.8,42c0.6,0,1.2,0,1.8-0.1l3.9-0.2l-0.4-3.8c-0.1-0.8-0.4-1.7-0.7-2.2c-0.2-0.3-0.4-0.6-0.5-0.7
	c-0.2-0.2-0.3-0.3-0.5-0.5c-0.7-0.6-1.2-0.9-1.7-1.2c-1-0.5-1.9-0.8-2.7-1.1c1.1,0.3,2.1,0.8,3.2,1.4c0.2,0.1,0.6,0.4,0.8,0.6
	c0.2,0.2,0.6,0.5,0.8,0.8c0.1,0.1,0.3,0.4,0.4,0.6c0.1,0.2,0.3,0.4,0.4,0.6c0.2,0.5,0.4,1.1,0.4,1.7l0.4,3.8l-3.6,0
	C240.1,41.7,239.5,41.6,239.8,42"/>
</svg>
