<?xml version="1.0" encoding="utf-8"?>
<!-- Generator: Adobe Illustrator 24.3.0, SVG Export Plug-In . SVG Version: 6.00 Build 0)  -->
<svg version="1.1" id="Objects" xmlns="http://www.w3.org/2000/svg" xmlns:xlink="http://www.w3.org/1999/xlink" x="0px" y="0px"
	 viewBox="0 0 800 360" style="enable-background:new 0 0 800 360;" xml:space="preserve">
<style type="text/css">
	.st0{fill:#E9E7E7;}
</style>
<g>
	<path class="st0" d="M70.9,75.4c2.6,0.6,4.7,0.3,5.1-0.1c0.6-0.4,0.1-0.9,0.9-1c-4.2-0.3-5.2-0.3-5.8-0.2c-0.6,0.1-0.7,0.3-0.8,0.5
		C70.1,75,71,75.6,70.9,75.4z"/>
	<polygon class="st0" points="204.6,79.1 202.1,80 223.5,76.4 	"/>
	<path class="st0" d="M340.4,64.9c-6.5-0.8-18.8,0.4-32.5,2.1c-13.6,1.8-28.7,4.1-40.8,5l-4.1-0.2l-10.7,3.5
		C281.8,71.6,319.6,65.8,340.4,64.9z"/>
	<path class="st0" d="M413.2,65.5c-4.5-0.8,15.6-2-16.9,0.8c1.6,0,2.1,0,3.1,0.1C402.3,66.2,406.3,66,413.2,65.5z"/>
	<path class="st0" d="M399.4,66.4C385.1,67.5,408.8,66.7,399.4,66.4L399.4,66.4z"/>
	<path class="st0" d="M465.6,61.2l-18.9,2.4c4,0.4,20.9-0.8,14.7,0.2C480.9,61.6,476.8,61.3,465.6,61.2z"/>
	<path class="st0" d="M483.5,57.6l-9.8,1.2C475.4,59,478,58.9,483.5,57.6z"/>
	<path class="st0" d="M452.9,61.3l20.8-2.5c-2.8-0.2-3.1-1.1-9.5,1.1C465.8,59,461.7,60.1,452.9,61.3z"/>
	<path class="st0" d="M441.1,61.8c-10.6,0.1-24.4,0.7-5.5-1.6C399.5,63,404.9,64.6,441.1,61.8z"/>
	<path class="st0" d="M347,61.5l-14.2,0.4L320.7,64C326.8,62.9,348,62.3,347,61.5z"/>
	<path class="st0" d="M583.5,50.6c1.1-0.7-6.5-0.8-8-1.4l-13.8,2.3C568.9,51,582.5,49.8,583.5,50.6z"/>
	<path class="st0" d="M575.5,49.2l20.7-3.4C577.6,47.8,574.3,48.7,575.5,49.2z"/>
	<path class="st0" d="M486.6,54.3c0,0-8.5,1.3-17.1,2.5c-8.6,1.2-17.1,2.4-17.1,2.4s10.2-1.3,20.4-2.7c10.2-1.4,20.4-2.9,20.4-2.9
		L486.6,54.3z"/>
	<polygon class="st0" points="662.9,41.6 651.2,44.2 672,39.9 	"/>
	<path class="st0" d="M715.4,36c-8.7,2,12.3,0.7,3,2.3c14.4-1.7,26.4-3.9,37.3-5.8C744.2,34,731.8,35.3,715.4,36z"/>
	<path class="st0" d="M773.8,29.8c-5.7,0.6-11.6,1.6-18.1,2.7C761.8,31.7,767.8,30.8,773.8,29.8z"/>
	<path class="st0" d="M631.6,41.9c1.6,0.2,4.8,0.7,16.5-0.2l-8.3-0.7C637.3,41.3,634.5,41.6,631.6,41.9z"/>
	<path class="st0" d="M639.5,41l0.3,0c8.9-0.9,15-1.6,17.6-1.9C655.2,39.4,649.8,39.9,639.5,41z"/>
	<path class="st0" d="M629.6,42.2c0.8-0.1,1.3-0.1,2.1-0.2C630.8,41.9,630.3,41.9,629.6,42.2z"/>
	<path class="st0" d="M541.4,50.3c12.1-2.2,37.5-6.1,12.7-4.8C545.4,47.6,559.7,46.9,541.4,50.3z"/>
	<path class="st0" d="M619.2,41.3l-22.1,2.2c0.5,0.4,4.5,0.6-1.5,1.7L619.2,41.3z"/>
	<polygon class="st0" points="629.9,39.5 619.2,41.3 627.4,40.5 	"/>
	<path class="st0" d="M736.2,31.6c9.5-1.7,19.8-2.8,31.5-3.8c-12.5,0.6-25.5,1.8-38,3.1C728,31.5,722.6,33,736.2,31.6z"/>
	<path class="st0" d="M689.1,35.8c0.7-0.1,1.5-0.2,2.1-0.3C689.9,35.5,688.8,35.6,689.1,35.8z"/>
	<path class="st0" d="M715.6,22c0.7,0,1.2-0.1,1.9-0.1c0.1-0.1,0.2-0.2,0.4-0.4L715.6,22z"/>
	<path class="st0" d="M727.5,30.8c-9.5,0.7-15.3,1.6-20.6,2.7c7.1-0.8,14.7-1.7,22.8-2.6C730.5,30.5,730.6,30.4,727.5,30.8z"/>
	<path class="st0" d="M792.5,7.7c1.5-0.2,3.1-0.4,4.9-0.7l2.6,20.8c-3.1-0.2-6.8-0.4-10.6-0.4c2.8,0.2,7.1,0.6,10.6,0.8l-2.6-21.5
		C795.1,7.1,793.1,7.4,792.5,7.7z"/>
	<path class="st0" d="M694.5,35.6c-0.5,0.1-0.9,0.1-1.4,0.2C696.2,35.9,695.8,35.8,694.5,35.6z"/>
	<path class="st0" d="M694.5,35.6c4.9-0.7,8.6-1.5,12.5-2.2c-5.8,0.7-11.1,1.4-15.7,2.1C692.4,35.5,693.6,35.6,694.5,35.6z"/>
	<path class="st0" d="M683.3,40.2c1.3-1.9,25.5-9,47.1-11.6c20.8-5.1,6.1-7.7-12.9-6.6c-0.5,0.8-0.4,1.3-21.7,7
		c3.9-0.4,15.9-2.6,24.8-3.9c8.9-1.3,14.5-1.7,5.6,0.8c-28.4,6.7-23.5,4.5-37.5,6.8c6.1-0.4-2.8,2.4-12.3,5.4
		c-9.5,3.1-19.7,6.5-16.3,7.2l24.6-6.9C685.2,38.6,676.3,41.4,683.3,40.2z"/>
	<path class="st0" d="M759.2,14.4l9.1-1.5c-10.4,1.2-17.9,1.7-31.7,3.1c-14.8,3.6-17.7,4.9-18.7,5.6c0,0,11-2.3,22.1-4.2
		c11.1-2,22.3-3.6,22.3-3.6L759.2,14.4z"/>
	<path class="st0" d="M790.6,26.3c2.2-0.6,5.9-1.1,9.4-1.5l-1.8-15c-6.6,2.5-13.6,4.1-4.7,3.9c2.2-0.4,4-0.9,5.4-1.2l1.2,9.5
		c-9.6,0.2-13.1,0.7-15.9,1.2c-2.8,0.5-5.1,1.1-12.2,1.8c42.1-2.4-12,1.3,18.4,1c-8.2,0.5-15.6,1-22.6,1.6
		c7.6-0.4,14.9-0.5,21.7-0.4c-0.4,0-0.6-0.1-1-0.1l-0.2,0l0,0c-1.8-0.1-2.4-0.2-0.4-0.2c0.1,0,0.6,0,0.9-0.1
		C789,26.8,789.8,26.6,790.6,26.3c12.1,0.2,1.9,0.4-1.9,0.7c-0.1,0.1-0.5,0.2-0.5,0.3c0,0,0.1,0,0.2,0c3.9-0.2,7.7-0.3,11.6-0.4
		l-2.3-19c-8.7,2.4-18.9,3.3-29.4,5c3.7-0.4,7.7-0.9,12.7-1.4c4.8-0.6,10.5-1.3,16.9-2.9l2.1,17.5C798,26.2,794.5,26.2,790.6,26.3z"
		/>
	<path class="st0" d="M576.4,39.3c1.3,0,1.3,0.1,1.4,0.2C580.6,39,581.6,38.8,576.4,39.3z"/>
	<path class="st0" d="M594.1,38.3c-3.1,0.6-5.6,1.6-15.7,2.6c-8.8,0.5-0.1-0.8-0.6-1.3c-6,1.1-21.1,3.6-2,2.3l3-0.6
		c17.2-1.4,39.5-1.9,36.5-1.3C610.2,39,605.6,38.5,594.1,38.3z"/>
	<path class="st0" d="M693.7,30.5l35.5-4.3l-18.3,0.4l1,0.8C691.7,28.9,696.2,29.6,693.7,30.5z"/>
	<polygon class="st0" points="711.4,22.1 715.7,19.3 696,26.2 	"/>
	<polygon class="st0" points="666,32.7 667.3,30.8 655.6,34.6 	"/>
	<path class="st0" d="M608.5,157.8l10.4-1.6C614,156.9,610.8,157.4,608.5,157.8z"/>
	<path class="st0" d="M533,165.8l-1.8,0.9C534.7,165.9,536.1,165.5,533,165.8z"/>
	<path class="st0" d="M483.5,147.5c15.3,0.2,32.5,1.2,30.5-0.4l-4.8-1.3C498.6,146.9,490.4,147.3,483.5,147.5z"/>
	<path class="st0" d="M115.5,229.3c1.5-0.1,3-0.2,4.5-0.2c3.6-1.2,6.9-2.3,9.9-3.3C125.6,226.8,120.7,228,115.5,229.3z"/>
	<path class="st0" d="M106.1,238l-20,2.3C90.6,239.9,97,239.2,106.1,238z"/>
	<path class="st0" d="M359,234.7l-11.6,4.1C366.1,235.1,357.7,235.9,359,234.7z"/>
	<path class="st0" d="M204.1,140.6c-13.1,1.6-23.5,3.1-32.6,4.7C187.3,143.4,200.2,142.7,204.1,140.6z"/>
	<path class="st0" d="M580.8,178.8c6.4-1,9-1.6,8.8-2C583,177.8,579.4,178.5,580.8,178.8z"/>
	<path class="st0" d="M133.9,152.3c2.3-0.3,4.6-0.6,7-1c9.5-2.1,19-4.1,30.7-6.1C159.8,146.6,146.4,148.6,133.9,152.3z"/>
	<path class="st0" d="M177.5,340.2c-1.1,0.2-2.4,0.5-3.4,0.7C173.9,341.2,175.3,340.8,177.5,340.2z"/>
	<path class="st0" d="M502.1,329.6c-4.3,0.4-11.2,1.1-17.8,1.8C487.6,331.1,492.9,330.6,502.1,329.6z"/>
	<path class="st0" d="M485.1,79.4C494.5,76.8,486.5,78.8,485.1,79.4L485.1,79.4z"/>
	<path class="st0" d="M533,73.6c-2,0.7-3.4,1.4-3.6,1.8C530.1,74.8,531.3,74.2,533,73.6z"/>
	<path class="st0" d="M41,186.7c-0.3,0.1-0.5,0.2-0.8,0.2C43.1,186.5,42.6,186.5,41,186.7z"/>
	<path class="st0" d="M499.6,76.4c-3.6,0.8-7.8,1.6-12.3,2.7C489.3,78.7,493,77.9,499.6,76.4z"/>
	<path class="st0" d="M497.4,76.1c3.3-0.8,5.9-1.4,8.3-2C506.9,73.5,505.8,73.6,497.4,76.1z"/>
	<path class="st0" d="M471.9,82.9c5.4-1.4,10.5-2.6,15.4-3.8c-1.9,0.4-2.7,0.5-2.2,0.3C482.3,80.1,478.4,81.1,471.9,82.9z"/>
	<path class="st0" d="M332,233.4c0.6-0.1,1.4-0.2,2.1-0.2C343.7,230.6,339.5,231.6,332,233.4z"/>
	<path class="st0" d="M633.2,145.7c0.4-0.1,0.7-0.2,1.1-0.3c-0.5,0.1-1,0.2-1.4,0.2L633.2,145.7z"/>
	<path class="st0" d="M598.5,153.7c14.5-4.8,23-6.1,34.4-8.1l-12.5-2.4c0,0-5.4,2.6-10.9,5.3C604,151.1,598.5,153.7,598.5,153.7z"/>
	<path class="st0" d="M588.4,192.2c0,0,1.6-0.3,3.9-0.7c2.3-0.4,5.6-1.1,8.9-1.9c6.5-1.7,12.5-3.6,12.5-3.6
		c-3.4,1.6-6.9,3.1-10.3,4.5c-3.4,1.3-7,2.5-9.8,3.4c-5.8,1.8-10.6,3.1-13.7,4c-6.2,1.7-5.7,2,6.2,0.4c0.3-0.8,2-1.7,4.8-2.8
		c1.4-0.6,3.1-1.2,5-1.8c2-0.7,4.3-1.5,6.7-2.3c9.5-3.4,20.6-8.4,30.5-10.9c5-1.2,11-2,17.2-3.5c1.6-0.4,3.1-0.8,4.7-1.2
		c0.8-0.2,1.5-0.5,2.3-0.7c0.6-0.2,1.3-0.4,1.9-0.6c2.4-0.8,4.7-1.6,6.9-2.4c8.4-3,13.7-4.6,14.3-6c2.3-0.2,4.6-0.4,6.8-0.4
		l-2.1-19.3c-3.1,0.2-6.2,0.5-9.2,0.8c4.3-0.7,5.4-1.1,9.1-1.6l2.2,20.9c-0.3,0-0.7,0.1-1.2,0.1c0.4,0,0.9,0,1.2,0l-2.2-21.1
		c-8.2,0.5-13.5,1.7-17.6,2.7c-4.1,1.1-7,2.3-10.3,3.5c-3.2,1.2-6.7,2.5-11.7,3.5c-5.4,1-12.4,2-22.5,2.9
		c-14.2,1.1-24.2,1.4-14.6-0.2l-31.5,4.7c-9.2,0.9-7.1-0.3,2.1-1.2l-48.2,5.6l0.3-0.2c-6.8,1.6-22.2,4.4-29.8,5.7
		c-12.3,0.5,6.1-1.2,2.9-1.5l-26.6,3.9c-11-0.3,11-3.8,29.5-5.4c-25.5-2.7-22,3.6-76.3,5.7l25.2-3.1c-16.6-1.4-36.2,1.5-65,2.5
		c6.9,0.3,57.7-0.9,28.8,3.2c-8.2,0.4-19,1.3-34.6,3.9c-0.3-1.9-15.6,0.1-34.8,2.3l1-2.6c-20.7,3-18.9,4.1-30.9,6.6
		c-23.1,2.5-28.1,1.3-33.8,0.4c-37,4.6,25.9-0.4-17.7,6c-30.8,3.5-52.3,7.7-88.4,16.3c-21.5,3.5,3.4-2.3-4.4-1.4l-18.5,5.9
		c-4.6,1-3.3,0-2.6-0.4c-15.7,4.4-0.8,2.6-25.4,9.3c-1.5,1.1-5.4,2.2-11.1,3.5c-5.6,1.3-12.7,3-20.5,4.9c-7.8,1.8-16,3.5-24.3,4.5
		c-8.3,1.1-16.9,1.8-24.6,3.2c-7.8-0.1,3.6-1.8,1.2-2.6c-4.7,0.6-8.8,1.1-12.3,1.5c-4.1,0.6-6.8,1.1-9.3,1.5
		c-2.4,0.3-4.4,0.5-5.8,0.5c-0.7,0-1.3,0-1.7,0c-0.2,0-0.3,0-0.5,0c0,0,0,0-0.1,0l0,0c0,0,0,0,0,0l-0.2,0.3l-0.8,13.1
		c10.6-3.7,16.9-5.4,36.4-10.6c0,0,1.9-0.3,4.7-0.6c2.8-0.3,6.6-0.7,10.3-1.2c7.5-0.9,15-1.7,15-1.7c-22.1,1.9,5.3-5,29.4-11
		c-7.9,0.4-14.6,0.8-19.2,1.2l38.8-7.9c4.8-0.4,1,1.1-5.2,3.2c2.6-0.7,5.1-1.3,7.1-1.8c14.1-1.5,7.1,1.2-2.7,4.3
		c-4.8,0.3-9.6,0.6-14.3,0.9c-9.4,3.1-18.1,6.3-15.8,7.4c2.5-0.7,7.3-1.8,12.6-2.8c-2.4,0.8-4,1.5-2.8,1.5c1.4,0,5.3-1.2,11.6-2.9
		l9.3,1.2l2-1.5c0,0,12.8-1.7,25.6-3.4c12.9-1.6,25.8-3.2,25.8-3.2c36.2-8.8,67.2-18.4,124.6-31c-13.9,4.9-2.4,3.9-2.7,6.4
		c-16.2,0.7-44.5,9.9-74.6,14.8c15.7-2.6,12.5-0.8,8.6,0.3c0,0,13.3-3.1,26.5-6.1c13.2-3.2,26.5-6.3,26.5-6.3
		c-0.8,2.2,11.6-0.8,25.7-2.8c-11.3-1.5,39.2-10.9,60.5-16.8c1.6,1-3.3,3.4-29.7,8.8c29.7-3.4,36.6-12.7,65.6-15.9
		c-6.4,1.3-9.9,1.8-12.4,3c7.4-2.1,20.3-4.7,30.4-6.2c10-1.5,17.2-2.1,12.9-0.9l-6.4,1.1c21.3-3.6,54.3-7.4,82.7-11.9
		c28.3-4.3,51.9-9.1,54.9-11.3c0.5,0.4-5,4.9-7.5,5.9c0,0,18.9-5.8,37.6-12.2c9.3-3.2,18.6-6.5,25.5-9.1c3.5-1.3,6.4-2.4,8.4-3.1
		c2.1-0.7,3.3-1.1,3.3-1.1c-3.2,2,2.1,3.5,3.7,5.5c0.8,1,0.6,2.1-1.8,3.5c-1.3,0.7-2.9,1.4-5.5,2.3c-2.6,0.9-6.1,2-10.5,3.1
		c5-0.9,10.7-2,17.7-3.2c6.9-1.3,15.7-2,27.4-6.3c-7.9,2.3-19.1,0.3-9.5-1.9c9.4-0.9,14.9-3.3,16.8-4l-2.6-9.8
		c-10-0.6-13.9-0.7-35.8-1.4c10.7,0.1-1,5-17.7,6c2.6-0.8-1.7-4.3,4.4-5.2l-41.5,7.2c10.3-1.5,1.6-3.8-7.8-4.5
		c4.4,0.6-36.1,2.3-47.2,3.5l17.8-0.2c-47.2,2.6-46.2,9.3-92.9,12.8c5.6-1.4,13.5-6.7-10.3-5.3c-10.7,3.1-47.3,14.9-88.2,21l-8-0.4
		l-31.4,5.1c19.2-5.9,73.7-18.9,103.8-24.2c-17.7,0.6-5.1-1.1-31.5,1.6c-9.4-0.3,14.2-3.2,22-4c0,0-15.4,1.3-30.8,2.6
		c-15.4,1.4-30.8,2.9-30.8,2.9c3,2.2-46.7,8-44.1,10c0,0,16.6-2.8,33.2-5.3c16.6-2.5,33.2-5,33.2-5c3,2.4-37.8,11.2-81.2,16.5
		c-11.2,0.4,7.6-5.7,6.6-6.4c-5.5,1.6-41,7.3-45,7.3l18.2-4c-24.3,2.4-38.9,9.2-68.1,11c-10,1.3-30.2,1.1-31.7,2.8
		c16.7,0.6,21.2,9.3,10.7,13.1c-1.8,0.2-15,1.4-29.2,2.4c-14.3,1-29.5,1.9-35.3,1.8c-16.7-0.4,24.1-8.4,9.8-8.8
		c-0.5,0.8-9.5,2.7-13.2,3.4c-10.6,0.5,4.1-2.6-18.6,0c-3.6,3.2-46.4,3.6-10.6,3.2c-22.3,2.6-23.7,1.2-50.1,2.5
		c6.3,1-9.3,4-26.8,7.1l0-1c6.4-0.3,12.9-1.3,18.8-2.5c-1.2,0.9,3.9,1,6.4,0.7c13.9-4.2,25.9-7.8,36.7-10.9
		c12.3-2.6,23.6-5.1,35.4-7.5c11.8-2.3,24.2-4.6,38.6-7.4c4-0.1,24.6-3,16.1-0.3c6-1.6,11.4-3.4,24.5-5.8c25.7-2.2-29.1,5.4-9.3,4.8
		c1.4-1.8,33.4-7.9,51.9-12.2c-6.1-1.3-43.1,7-61.6,11.3c-0.7-3.3,31.3-12.2,75.2-21.6c34.9-7.3,15.6-0.7,21.6-2.3
		c33-6,46.7-10.4,59-14.1c12.3-3.8,23.3-7.1,50.7-12c22-2.8,1.9,3.8,7,4.2c-28.2,7.1-43.9,8.3-63.2,12.3l24-4
		c-8.9,2.6-27.8,7.1-38.3,8.6c9.3-0.9,37.1-6.5,68.8-13.5c31.7-7.2,67.5-15.2,92.8-20.9c8.8-2.9,23.9-7.7,16.5-6.6l-15.8,4.4
		c-15,2.1,29.3-9.9,9-5.5c21-6.6,44.3-14.8,74.4-22l6.2,0.8c-0.8-0.5-19.9,3.9-28.1,6.9c12.2-4.4,46.7-9.2,59.5-15.9l-21.4,4
		c21-6.9,46.8-16.4,73.7-22.3c-12.7,0.8-6.1,1.8-25.7,4c17.2-1.1-68,17.8-40.8,14.4c-20.2,2.1-33.8,7.7-59.7,11.8
		c1,0.5,9.3-0.9-13,4.6c-0.9,0.5-3.2,1.4-4.7,2c-0.7,0.2-0.9,0.2-1.5,0.3c0.5-0.1,0.8-0.1,1.2-0.2c-0.9,0.4-1,0.4,0.5-0.1
		c5.4-1.1,9.8-1.8,11.6-1.8c-10.6,4.7-45.9,13.9-57.7,17.7c-13.3,2.9,5.3-2.3-2.1-1.3l-17.6,5.7c-2.2-1.2-35.9,5.5-4.9-2.9
		l-28.2,6.5c-16.8,2.9-39.7,7.5-53.7,11.3c-13.4,2.5-33.3,8.9-21.9,5.2c0,0-11,2.5-22.1,5.1c-11.1,2.5-22.1,4.9-22.1,4.9l-0.5-0.3
		c-43.9,8.5-90.1,18.7-141.3,25.2c-14.8,3.3-30.1,6.7-54.9,12.3l-5.1-0.4c-1.8,0.4-3.8,0.9-6,1.5c-2.6,0.8-5.3,1.6-8.2,2.5
		c-2.7,0.8-5.6,1.6-8.5,2.5c-5.8,1.7-11.7,3.4-17.3,5c-0.7,0.2-1.4,0.4-2.1,0.6l-0.9,0.3c-0.2,0.1-0.2,0-0.3,0.1
		c-1.2,0.2-2.4,0.5-3.6,0.7c-2.3,0.4-4.5,0.7-6.5,0.9c-3.9,0.5-6.9,0.7-8.6,1c-0.7-0.2-1.6-0.3-2.6-0.5l0.6,22.5
		c5.8,0.3,14.4,0.2,24.6-0.1c10.2-0.3,22.1-0.7,34.4-1.6c24.6-1.8,49.9-5.3,66.3-7l1-2.1c23.4-2.8,45.7-6.6,74.4-11.8l-2-1.5
		c24.7-5.1,63.9-8.6,103.2-13.6c-2.6,1-12.6,2.1-19.7,2.6c47.3-2.3,98.8-14.5,141.9-15.4c10.6-1.5,18.3-2,25.9-2.2
		c-1,0.1-1.9,0.2-2.6,0.3c1.1-0.1,2.7-0.2,4.4-0.3c4.7-0.1,9.6-0.2,14.9-0.3c-4.5-0.1-8.8-0.1-12.5,0.1c8.2-0.7,20.7-1.9,32.9-3.3
		l5.4,1.5c1-0.1,1.8-0.2,2.8-0.3c12.1-0.2,9.6-1.6,3.1-2.5c6.1-0.8,11.8-1.5,16.1-2.3c10,2.3,32.1-3.2,45.6-0.9
		c4.1-1.1,19.5-2.3,34.7-3.9c15.2-1.6,30-3.3,33.2-5.1c0.4,0.4,4.1,0.4-2.5,0.8c13.7-0.4,27.2-0.6,39.4-1.6l2.5,1l-2.8-10.7
		c-1.1,0-2,0.1-3,0c0,0-1.3,0.8-3.5,1.9c-2.2,1.1-5.5,2.4-8.9,3.5c-3.4,1.1-7,2.1-9.7,2.8c-2.7,0.7-4.6,1.2-4.6,1.2
		c-9.4,0.9-15.7,2-17.6,1.7c-2-0.2,0.4-1.4,9-4.2c-20.9,6.1-29.4,7.9-37.3,9.6c-7.8,1.7-14.8,3.3-32.8,7.6l1.5-1.8
		c-13,2.2-33.6,7.3-41.7,7.1c-7.4,0.3-20.2,1.7-36.4,3.6c-8.1,1-17.1,2.1-26.6,3.4c-9.6,1.3-19.9,2.8-30.4,4.6
		c-42.2,7.2-89.2,18.4-126.6,24.5c15.3,1.6-35,4.9-37.3,8.9c-4.5-0.2-15.1,1.2-3.2-2.1c-37.9,8.3-57.5,8.8-83.4,16.1
		c-4.5-0.3,7.9-2.9,3.9-2.9c-3,0.7-12,2.9-16.1,2.9c-4,0,5.5-1.8,11.4-3.2c-38.9,6.3-42.5,10.4-44.9,13.9c-20.1,1.9-30,3.8-44,8.3
		c-7.1,0.2-18.8,1.1,5.5-3.4c-6.9,1.1-27.9,4.3-47.3,7.5c-9.5,1.8-18.9,3.5-25.9,5.3c-7,1.8-11.6,3.5-11.8,4.2
		c-0.9,0.1-2.1,0.4-3.7,0.8l-14.6,3.9l13.8,6.2c4.9,2.2,9.4,1.7,13.4,1.4c4-0.4,7.2-1,8.6-1.3c15.1-1.3,23.9-1.6,32.3-2.6
		c8.5-0.9,17.3-2.4,32.1-6.9c0,0-2.1,0.5-4.2,1c-2.1,0.5-4.2,0.9-4.2,0.9c11.2-6,24.1-8.3,47.9-14.3l-0.6,0.5
		c27.6-5.4,33.5-6.6,39.3-8.1c5.8-1.3,11.5-2.9,39.1-6.3l-3.3-1.3c4.5-4.9,49-5.7,80.8-11.2l-11.7,0.5c17.3-3.7,49.6-0.7,67.2-2.1
		c3.9-0.1-6,1.2-11.3,2.1c46.3-2.6,5.7-3.1,40-7.3c6.5,0.7-7.8,4.2,15.3,2.1c11.6-0.1,66.8-10.7,98.7-11.4c-7.1-0.3-14.1-0.7,1.8-3
		c24.5-2.7,66.7-3.1,88.5-8.7c3.1-0.1,4.4,0.1,4.5,0.3c9.3-1.3,24.5-3.4,38.7-5.4c7.1-1,14-2,19.8-2.9c6.1-1.1,10.7-2.4,13.5-3.3
		c4.7,0.8,14.4-1,25.7-2.4l-1.5-13.6c-9.6,0.7-20,3.8-29.6,7.1c-2.4,0.8-4.8,1.7-6.9,2.3c-2.2,0.7-4.5,1.2-6.9,1.7
		c-4.7,1-9.6,1.9-14.4,3.2c-9.4,2.7-16.8,5.8-22.2,7.5c-5.4,1.7-8.7,2.2-8.9,1.1c0,0-0.8,0.3-2.2,0.7c-1.4,0.5-3.4,1-6,1.7
		c-5.1,1.4-12.1,3-19,4.6c-13.9,3-28.1,5.4-28.1,5.4l1.4-0.8c-36.4,5.5-49.3,8.6-61.9,12.3c-8.5,1-2.4-0.6-1.8-1
		c-53.6,7.9-58.9,9.3-102.9,20.7l-5-1c-5.9,1.7-25.3,4.7-49.6,9c-12.2,2.1-25.6,4.7-39,7.2c-13.5,2.5-27.3,5.1-40.2,7.8
		c0.5-0.3,1.5-0.8,5.6-1.8c-29.1,6.1-64.7,10-95.5,14.4c-30.8,4.3-56.9,9.5-66.9,15.3l-38.2,9.3c50.1-9.3-6.8,4.5,14,1.5
		c-9.8,2.1-22.6,4.1-30,4.9c-3.7,0.4-6.1,0.7-5.9,0.4c0-0.3,2.8-1.2,8.7-2.5l3.8-0.4c2.4-1.6-2.2-1.3-10,0
		c-8.1,1.4-18.5,5.1-27.3,5.6l1.1,9.8c12.5-1.6,23.7-1.8,23.2-0.9c6.2-0.5,12.6-0.9,19-1.6c6.5-0.7,12.7-1.8,18.9-2.9
		c12.4-2.3,24.7-5.1,36.7-7.8c23.8-5.3,48-8.4,72.2-11.9c48-7.3,95.7-12,142.3-19.8l-11.2-1.1c0,0,8.1-1.3,16.2-2.6
		c8.1-1.5,16.1-3,16.1-3c8.6-1,11.7,0-11.3,4.3c12.4-0.7,38.3-8.6,38.9-9.4c45.2-7.4-17,6.6-3.2,4.1l18.7-3.8l-4.3,0.5
		c15-4,16.1-5.5,43.8-10.6c17.6-2.8,9.3,0,16.2-1.2c0,0.1,0.6,0.1,2.2-0.2c1.6-0.3,4.3-0.8,8.4-1.7l40.6-7.5l-16.6,0.9
		c17.7-4.6,38.1-7.1,18.9-6.1c12.2-0.6,42.1-5.7,73.7-9.6c15.8-2,32-3.6,46.6-4.6c14.6-1,27.4-1.4,36.5-1.4l-2.9-11.6
		c-4.2,2.1-7.9,2.6-10,2.8c-5.6,1.4-11.9,1.7-18.6,2.6c-3.4,0.5-6.9,1.1-10.5,2.1c-3.2,1-6.4,2-9.6,3c-12.9,4.1-26.2,8.3-41.3,11.8
		c7.6-1.4,12.8-0.1-13.5,6.1c4.2-3.7-8-1.3-24,2.3c-16,3.7-35.7,8.1-46.9,9.4c9.8-1.5-8.9,3.8-25.9,9.6c-17,5.8-32.4,11.8-17.3,8.4
		c-21.5,7.1-2-1.4-18.6,3.2c-12.5,5.1-25.7,10.2-39.4,15.5c-13.6,5.2-27.8,10.1-42.6,14.9c-29.5,9.5-60.9,18.4-92.6,28.5
		c-0.8,1,10.1-1.3-3.2,3.9c0,0-8.6,1.7-17.2,3.5c-8.6,1.6-17.2,3.3-17.2,3.3c-12.4,3.9-10.5,7.2-34.1,11c3.4-0.3,8.5-0.7,0.1,1.7
		c-13.2,3.1-26.4,6-39.8,8.8l1.8,12.4c13.8-0.8,28.1,1.4,43.3,2.3c3.8,0.2,7.7,0.3,11.5,0.3l11.1,0c7.4,0,14.8,0,22.2,0.1
		c29.7,0.1,59.7,0.3,89.8-1.4c60.2-3.7,119.3-14.6,178-18.2c-17.8,0.7-6.1-0.8,7.4-2.3c-8.8,0.6,0-1.7-1.8-2.4
		c0,0,13.7-0.9,27.5-1.2c6.9-0.2,13.7-0.2,18.8-0.3c5.1,0,8.5,0.1,8.5,0.1c4.9-1.5,19.8-2,33.8-2c14.1-0.1,27.4,1.2,30.3,0.4
		c0,0-4.3-0.4-8.5-0.6c-4.3-0.2-8.6-0.3-8.6-0.3c11.5-0.8,3.7-3-6.9-5c-10.6-2-23.8-3.4-22.1-5.3c-13,1.9-30.3,1.2-49.7,1.7
		c-19.4,0.5-40.9,2-61.9,7.2c-9.5,0.5,7.8-2.2,2.7-2.4c-10.6,3-23.5,5.1-47.6,7.7l2.7-0.8c-33.7,4.9-57.8,7.6-82.9,9.4
		c-25.1,1.7-51.2,1.8-89.4,0.9l5.6,1.9c-16.4-0.3-19.9-1-27.6-1.5c-18.9,2.7,46.2,0.5,29,3.5c-8.9-1.5-29.9-2.1-52.7-2.3
		c-2.9,0-5.7,0-8.6,0c-2.8,0-5.5-0.1-8.3-0.2c-5.5-0.3-11.1-0.8-16.6-1.3c-10.9-1-21.4-1.8-29.9-1.5l2.1,14.7c7-1.2,12.4-2,15.2-1.8
		c24.8-6-7.7-0.2,17-6.3l6.8-0.6l5.8-3.1c16.2-4,24.6-5,25.5-4.2c-3.9,1-11,3.4-15.2,4.6c21.3-4.2,58.5-17.6,65.6-19.4l-23.5,6.5
		c32.9-10.8,69.6-21.6,105.9-33.9c18.1-6.1,36.2-12.8,53.2-19.6c17-6.6,33.5-13.1,49-19.1l-5,0.8c23.7-9,33.5-11.6,43.9-14.4
		c10.4-2.8,21.5-5,48.6-12.1l-1.9,0.7c10.6-3.5,25-7.6,39.9-11.2c-6.7,2.2-0.2,1.1,5.9,0.1c6.2-1,11.8-2,2.7,0.9
		c13.6-4,21.7-7,27.1-8.9c5.4-1.9,8-2.9,10.1-3.8c2-0.9,3.5-1.6,6.6-3c2.7-1.2,7.1-2.6,16.2-3.9c0,0,2.2,0.2,4.3,0.4
		c2.2,0.2,4.5,0.3,4.5,0.3c6.6-1.6,10.3-3,15.7-6.1l-1.8-7c-5.2,0.5-12.5,0.7-26.2,1.6c23-2.3-18.1-1.4,7.7-4.2
		c-29.7-0.4-51.6,3-69.2,5.8c-17.7,3-31.3,5.6-45,5.6c-13,4.3-0.3,2.6,13.7,0.5c14.1-2.1,29.6-4.4,22.2-3c12.7-0.5-21.7,6-39.8,9
		c-18.5,3.1-32.4,0.9-78.6,9.7c4.6-0.9,4.9-1.2,9.5-2.1c-17.5,2.3-33.6,7.8-55.2,10.2c-11.5,4.6-27.6,5.1-30.5,8.8l42.3-8.8
		c-23.9,5.3-45.8,13.4-85.8,18.8c1.5-0.6,5.2-1.5,9.5-2.6c4.3-1.1,9.2-2.4,13.2-3.4c-11.7,1.4-22.2,4.7-34.4,5.7
		c1.5-1.9,14.3-3.8,30-7c15.7-3.1,34.1-6.5,46.8-10.1c-12.7,1.1-48.3,11.4-36,5.7c-17.9,8-45.5,7.7-76.6,15.2l1.8-2.1
		c-4.9,1-15.2,3.3-24.4,4.5l16.3-4.7c-25.3,5.6-49.6,4.9-74.1,9.9c51.6-7.7,11.9,0.4,33.9-1.4c-31.6,5.7-40.9,6.2-51.1,6.3
		c-5.1,0.1-10.5,0.1-19,0.9c-8.5,0.9-20.3,2.3-38.2,6.1c9.7-2.4,36.5-5.4,21.6-2c-6.8,1-14.8,2.2-22.1,3.3c-7.3,1.1-14,2.3-18.1,2.8
		c-45.7,10.6,7.4,0.4-11.8,5.8c-8,0.6-13.6,2-19.6,3.7c-6.1,1.7-12.5,3.8-22.6,4.9l-0.3-1.9c-13.8,0.7-21.8,1.4-26.5,2.2
		c-4.7,0.8-6.1,1.6-7.6,2.3l1.5,13.7c1.5-0.6,3.2-1.1,7.4-2.1c2-0.5,4.7-1.2,8.4-2.1c3.6-0.9,8-2.2,13.4-3.2c0,0-4.5,1.7-9.3,3.7
		c-2.4,1-4.9,2-6.8,2.7c-2,0.7-3.3,1.2-3.3,1.2s1.6-0.4,4.1-1.1c2.3-0.7,5.4-1.6,8.5-2.5c3-0.9,5.9-1.7,7.9-2.2
		c2.3-0.5,3.9-0.9,3.9-0.9s-1.2,0.8-2.4,1.6c-1.3,0.8-2.2,1.5-2.2,1.5C57.6,287,66.5,285.8,93,281c-6.4,0.1,2.7-4.2,26.1-8.8
		c16.2-1.8-8.7,3.3,24.6-2.9c-7.3,2.5-15.3,5.3-30,6.4c-1.4,0.9-7.1,2.6-8.5,3.5c17.3-2.2,43.2-7.7,55.3-9.7
		c-4.7,0.7-10.2,1.5-13.1,1.8c0,0,12-2.6,24-5.3c12-2.6,24.1-5.1,24.1-5.1c7.8-0.5,1.8,1-4.1,2.5c9.8-1.8,16.5-3.7,31-6.1
		c-3.5,2.1-2.4,3.5-22.8,7.5l46.1-9.1c3.2,0.2,24.2-2.3,18.2-0.7c12.9-1.8,28.8-5.6,45.3-9.7c16.5-4.1,34-8.3,51-11.1
		c1.7-0.6,5.2-1.6,12.3-3.2c31.8-5.8,60.3-9.3,97.7-17.8l21.8-0.9c29.4-5.3-29.5,1.1,19.5-7.6c35-6.2,13.5,0.3,25.9-0.9
		c8.7-2.2,20.6-5.1,34.3-8.6c6.9-1.8,14.2-3.6,21.9-5.6c8-1.9,16.1-4.8,23.7-7c-4.9,2.1-9.5,3.8-14.2,5.4c-2.4,0.8-4.8,1.5-7.3,2.2
		C593.3,190.9,590.9,191.5,588.4,192.2z M420.7,177.7c7.1-1.1,21.3-3.7,26.6-3.1C439.3,177.6,432.9,177.2,420.7,177.7z M169.9,223.9
		c-5.2,1.4-13.4,2.4-22.7,3.3C153.8,225.9,161.4,224.7,169.9,223.9z M380.9,106c-0.3,0.1-0.5,0.2-0.7,0.3
		C364.4,109,370,108,380.9,106z M413.5,99.4c3.2-1,2.9-1.2,1.5-1.1c-2.2,1-9.4,2.7-17.7,4.5C399.6,102.7,403.9,102.1,413.5,99.4z
		 M437.5,226.2l-6.5,0.7C445.4,223.7,441.4,224.9,437.5,226.2z"/>
	<path class="st0" d="M107.4,237c-2.1,0-2.7-0.2-3.2-0.5C101.4,237.2,101.5,237.6,107.4,237z"/>
	<path class="st0" d="M361.2,234l-1.1,0.2c-0.6,0.2-0.9,0.4-1,0.6L361.2,234z"/>
	<path class="st0" d="M122.1,173.8c6.8-0.5,10.6-0.6,13.2-0.6C135.6,172.7,132.5,172.7,122.1,173.8z"/>
	<path class="st0" d="M583.2,52.3l-20.5,6c9.9-2.8,13.6-3.3,18.7-4.4C580.8,53.6,576.7,54,583.2,52.3z"/>
	<path class="st0" d="M766.5,22.4c3.1-0.7,6.5-0.9,9.6-1.5l-1-0.8C761.9,21.8,752.9,24.1,766.5,22.4z"/>
	<path class="st0" d="M603.9,53.2c2,1.1,14.8-2.9,29.3-6.8c-0.9,0.2-1.7,0.4-2.6,0.7C634.3,43.8,619,48.5,603.9,53.2z"/>
	<path class="st0" d="M636.5,45.5c4.4-1.2,9-2.4,13.4-3.4C651.4,40.8,644.4,43.3,636.5,45.5z"/>
	<path class="st0" d="M454.2,88.6c6.9-1.3,3.8-3,7.8-3.4C469.2,81.4,416.9,98.8,454.2,88.6z"/>
	<polygon class="st0" points="616.9,55.2 611.2,54.7 603.5,58.3 	"/>
	<path class="st0" d="M502.6,84.2l23.2-5.6c-0.4-0.2,2.4-1.2,6-2.3C517.6,80.1,501.9,83.8,502.6,84.2z"/>
	<path class="st0" d="M531.8,76.3c7.4-1.9,14.4-3.9,18.5-5.3C546.3,72.1,537.7,74.5,531.8,76.3z"/>
	<polygon class="st0" points="585.5,64.1 578.6,65.5 562.3,69.8 	"/>
	<path class="st0" d="M252.3,139.6l-25.5,5.1c-2.5,1.1,4.6,0.3,14.1-1.7C246.9,141.5,256.3,139.5,252.3,139.6z"/>
	<path class="st0" d="M330.6,129.7c-7,1-7.5,0.7-11.6,0.9l-0.3,2.5L330.6,129.7z"/>
	<path class="st0" d="M256.1,144.9c-2.4,1.1-36.9,8.6-4.4,2.6C254.2,146.4,279.8,141,256.1,144.9z"/>
	<polygon class="st0" points="162.8,175.4 156.2,176.3 157.7,180.1 	"/>
	<path class="st0" d="M505.6,125.6c-30.9,1.4-7.1,3-35.1,4c-7.2,1.5,22.8-0.9,15.5,0.6C504.5,127.7,514.3,127.5,505.6,125.6z"/>
	<path class="st0" d="M486,130.1c-3,0.4-6.1,0.8-9.4,1.3C481.9,130.8,484.4,130.4,486,130.1z"/>
	<path class="st0" d="M574,329c0,0,4.8,0.3,9.6,0.7c4.8,0.4,9.5,1,9.5,1s-3-0.5-6.1-1.1c-3.1-0.5-6.2-0.9-6.2-0.9L574,329z"/>
	<path class="st0" d="M610.8,329.2l4.1,3.4c0,0,3.1,0.1,6.4,0c3.3,0,6.7-0.4,6.7-0.4C622.8,332.1,613.8,330.4,610.8,329.2z"/>
	<path class="st0" d="M365.2,178.2l-1.4,0.8c3.1,0.3,7.8-0.1,17.1-1L365.2,178.2z"/>
	<polygon class="st0" points="633.1,152.7 628.5,153.1 637.3,154.4 	"/>
	<path class="st0" d="M520.4,209.8c9.1-1.3,19.9-3.5,29.2-5C529.5,208.6,517.5,207.3,520.4,209.8z"/>
</g>
</svg>
