<?xml version="1.0" encoding="utf-8"?>
<!-- Generator: Adobe Illustrator 24.3.0, SVG Export Plug-In . SVG Version: 6.00 Build 0)  -->
<svg version="1.1" id="Objects" xmlns="http://www.w3.org/2000/svg" xmlns:xlink="http://www.w3.org/1999/xlink" x="0px" y="0px"
	 viewBox="0 0 100 294" style="enable-background:new 0 0 100 294;" xml:space="preserve">
<style type="text/css">
	.st0{fill:#232323;}
</style>
<g>
	<path class="st0" d="M54.2,1.9c0.1,0.8,0.3,1.1,0.4,1.2c0.1,0.1,0.2,0,0.3,0.1c-0.1-0.8-0.2-1.2-0.3-1.4c-0.1-0.2-0.2-0.3-0.2-0.2
		C54.2,1.6,54.2,1.9,54.2,1.9z"/>
	<polygon class="st0" points="54.8,14.9 54.5,14.5 55.8,17.9 	"/>
	<path class="st0" d="M60.2,37.2c0.2-2.3-2-8.1-2.8-12.1l0-0.7l-1-1.7C57.7,27.5,59.6,33.7,60.2,37.2z"/>
	<path class="st0" d="M61.6,49.5c0.1-0.8,0.9,2.5-0.6-2.8c0,0.3,0,0.4,0.1,0.5C61.2,47.7,61.3,48.4,61.6,49.5z"/>
	<path class="st0" d="M61.1,47.2C60.5,44.9,61.2,48.8,61.1,47.2L61.1,47.2z"/>
	<path class="st0" d="M63.9,58.1l-1-3c0,0.7,0.7,3.5,0.3,2.5C64.1,60.6,64.1,59.9,63.9,58.1z"/>
	<path class="st0" d="M65.2,60.9l-0.5-1.6C64.7,59.6,64.8,60,65.2,60.9z"/>
	<path class="st0" d="M63.6,55.9l1.1,3.3c0-0.5,0.2-0.6-0.5-1.5C64.5,58,64.1,57.3,63.6,55.9z"/>
	<path class="st0" d="M63.2,54c-0.3-1.8-0.8-4,0.3-1C61.9,47.1,61.6,48.1,63.2,54z"/>
	<path class="st0" d="M61.2,38.2l-0.4-2.4l-0.7-2C60.5,34.8,61,38.4,61.2,38.2z"/>
	<path class="st0" d="M68.6,77.4c0.2,0.2,0.1-1.1,0.3-1.4l-0.8-2.2C68.3,74.9,68.7,77.2,68.6,77.4z"/>
	<path class="st0" d="M68.8,75.9l1.1,3.3C69.2,76.2,68.9,75.7,68.8,75.9z"/>
	<polygon class="st0" points="66.1,61.2 64.1,55.7 66.4,62.3 	"/>
	<polygon class="st0" points="71.7,90.4 70.9,88.5 72.2,91.8 	"/>
	<path class="st0" d="M73.6,99c-0.6-1.4-0.1,2.1-0.6,0.6c0.5,2.3,1.1,4.3,1.7,6.1C74.3,103.7,73.9,101.7,73.6,99z"/>
	<path class="st0" d="M75.7,108.7c-0.3-1-0.6-1.9-0.9-3C75,106.7,75.3,107.7,75.7,108.7z"/>
	<path class="st0" d="M71.3,85.1c0,0.3-0.1,0.8,0.2,2.8l0.1-1.4C71.5,86,71.4,85.6,71.3,85.1z"/>
	<path class="st0" d="M71.6,86.4L71.6,86.4c0.3,1.5,0.6,2.5,0.7,3C72.2,89,72,88.1,71.6,86.4z"/>
	<path class="st0" d="M71.2,84.8c0,0.1,0.1,0.2,0.1,0.3C71.3,85,71.3,84.9,71.2,84.8z"/>
	<path class="st0" d="M68.1,70.2c0.8,1.9,2.1,6.1,1.4,1.9C68.8,70.8,69.2,73.2,68.1,70.2z"/>
	<path class="st0" d="M71.3,83l-0.8-3.6c-0.1,0.1-0.1,0.8-0.5-0.2L71.3,83z"/>
	<polygon class="st0" points="71.9,84.7 71.3,83 71.6,84.3 	"/>
	<path class="st0" d="M74.9,102.3c0.5,1.5,0.8,3.3,1.2,5.2c-0.3-2.1-0.7-4.3-1.1-6.4C74.8,100.9,74.4,100.1,74.9,102.3z"/>
	<path class="st0" d="M73.4,94.6c0,0.1,0.1,0.2,0.1,0.3C73.5,94.7,73.5,94.5,73.4,94.6z"/>
	<path class="st0" d="M78.1,126.1c0-0.1,0.1-0.2,0.1-0.2c0,0,0,0-0.1-0.1L78.1,126.1z"/>
	<path class="st0" d="M75,100.8c-0.2-1.6-0.5-2.5-0.8-3.4c0.3,1.2,0.6,2.4,0.8,3.7C75.1,101.3,75.2,101.3,75,100.8z"/>
	<path class="st0" d="M76.8,114c0-0.8-0.1-1.8-0.2-2.7C76.6,112.1,76.7,113.7,76.8,114z"/>
	<path class="st0" d="M73.5,95.5c0-0.1,0-0.1-0.1-0.2C73.5,95.8,73.5,95.7,73.5,95.5z"/>
	<path class="st0" d="M73.5,95.5c0.2,0.8,0.5,1.4,0.7,2c-0.2-0.9-0.5-1.8-0.7-2.6C73.5,95.1,73.5,95.3,73.5,95.5z"/>
	<path class="st0" d="M77.2,125.4c0.1,0,0.4,0.3,0.8,0.9c0.2,0.7,0.8,1.6,1.9,2l-0.2,0.1c0.5-1.2,0.8-2.6,1-3.9
		c-0.1-1.8-0.6-2.1-1-1.6c-0.4,0.5-0.9,1.8-1.5,3c0.1,0,0.1,0.1,0.1,0.3c0,0.2,0,0.7-0.2,1.5l2.3-1.1c-0.2,0-0.3,0-0.5-0.2
		c0,0.1,0.1,0.3,0.4,0.5l-1.9,0.9c1-1.7,1.2-5.1,1.4-2.8c-0.1,1.7-0.4,2.6-0.7,3.1l1-0.5c-0.4-0.2-0.6-0.4-0.7-0.6
		c-0.1-0.1-0.1-0.2-0.1-0.4c0-0.1,0-0.2-0.1-0.3c0-0.1-0.1-0.3-0.1-0.5c0,0.1,0,0.3,0,0.3c0,0,0,0.1-0.1,0.1c0,0-0.1,0-0.1,0
		c0-0.1-0.1-0.2-0.1-0.3c-0.1-0.1-0.2-0.3-0.4-0.6c-0.1-0.2-0.3-0.4-0.5-0.7c-0.3-0.5-0.7-1.1-1.1-1.6c-0.7-1-1.3-1.8-1.4-1.3
		l2.2,3.7C77.6,125.6,76.7,124.3,77.2,125.4z"/>
	<path class="st0" d="M78.2,119.5l-0.2-1.5c0.1,1.7,0.2,3-0.1,5c0.2,2.2,0.1,2.6,0.3,2.7c0,0,0.1-0.4,0.1-1c0.1-0.6,0.1-1.4,0.1-2.3
		c0-1.7-0.3-3.5-0.3-3.5L78.2,119.5z"/>
	<path class="st0" d="M76.9,111.4c0.6,1.1,1.4,4.6,1.5,2.4c-0.8-4.4-0.9-3-1.6-5.6C78.2,115.2,76.2,106.2,76.9,111.4
		c-0.3-1.4-0.5-2.7-0.8-3.8c0.2,1.3,0.4,2.5,0.5,3.7c0-0.1,0-0.1,0-0.2l0,0l0,0c0-0.3,0-0.4,0-0.1c0,0,0,0.1,0,0.1
		C76.7,111.2,76.8,111.3,76.9,111.4c0.3,2-0.1,0.3-0.2-0.3c0,0-0.1-0.1-0.1-0.1c0,0,0,0,0,0c0,0,0.4,1.7,0.7,3.5
		c0.3,1.7,0.6,3.5,0.6,3.5C77.8,116.6,77.5,114.7,76.9,111.4z"/>
	<path class="st0" d="M71.3,75.7c0,0.2,0,0.2,0,0.2C71.4,76.3,71.5,76.5,71.3,75.7z"/>
	<path class="st0" d="M71.8,78.6c-0.2-0.5-0.5-0.9-0.8-2.5c-0.2-1.5,0.2,0,0.3-0.2c-0.4-1-1.2-3.4-0.6-0.2l0.2,0.5
		c0.6,2.9,0.9,6.6,0.8,6.1C71.8,81.4,71.9,80.6,71.8,78.6z"/>
	<path class="st0" d="M74.8,95.2c0,0,0.4,1.5,0.7,2.9c0.3,1.5,0.7,2.9,0.7,2.9L76,97.9l-0.2,0.2C75.2,94.8,75.1,95.5,74.8,95.2z"/>
	<path class="st0" d="M77.7,126.6c0,0-0.1-0.2-0.1-0.4c-0.1-0.2-0.2-0.3-0.2-0.3c0,0.5,0,1-0.1,1.5l3.3-1.5
		c-0.1,0.1-0.1,0.1-0.2,0.2c0,0,0,0,0.2,0l-3.1,1.4C77.6,127.1,77.7,126.8,77.7,126.6z"/>
	<polygon class="st0" points="78.6,121.8 79.1,121.9 78,120.2 	"/>
	<path class="st0" d="M36,149.3l-0.4-0.5C35.8,149,35.9,149.2,36,149.3z"/>
	<path class="st0" d="M41.3,159.8l0.3,0.2C41.3,159.5,41.1,159.4,41.3,159.8z"/>
	<path class="st0" d="M65.6,144.5c0.3,2.5,0.3,5.3,0.6,4.9l0.3-0.8C66.1,147,65.9,145.7,65.6,144.5z"/>
	<path class="st0" d="M41.9,116.5c0-0.2,0-0.5-0.1-0.8c-0.3-0.6-0.6-1.1-0.9-1.6C41.3,114.9,41.6,115.7,41.9,116.5z"/>
	<path class="st0" d="M44.2,117.8l0.6,3.4C44.7,120.4,44.5,119.3,44.2,117.8z"/>
	<path class="st0" d="M33.4,148.8c0,0,0.2,0.3,0.4,0.6c0.2,0.3,0.4,0.5,0.4,0.5C34,149.4,33.7,149.2,33.4,148.8z"/>
	<path class="st0" d="M47.7,48.2c-0.8-2.2-1.7-3.9-2.6-5.3C46.5,45.5,47.1,47.7,47.7,48.2z"/>
	<path class="st0" d="M41.9,150.8c-0.6-0.9-0.8-1.3-0.9-1.2C41.5,150.5,41.9,151,41.9,150.8z"/>
	<path class="st0" d="M40.4,47.8c0-0.2,0-0.3,0-0.3l0-0.1c0,0-0.1-0.2-0.1-0.3c-0.6-1.2-1-2.6-1.1-4.1l-0.7-9.3l5.4,7.6
		c0.4,0.5,0.8,1,1.1,1.7c-0.3-0.6-0.7-1.1-1-1.7L38.9,33l0.2,10c0,0.9,0.2,1.9,0.5,2.9c0.1,0.5,0.3,0.9,0.5,1.4l0.1,0.2
		c0,0.1,0.1,0.1,0.1,0.1l0.1,0.1C40.3,47.6,40.4,47.6,40.4,47.8z"/>
	<path class="st0" d="M25.2,200.6c0,0.2,0,0.4,0.1,0.6C25.3,201.2,25.3,200.9,25.2,200.6z"/>
	<path class="st0" d="M38.5,273.3c-0.2-0.7-0.6-1.8-0.9-2.9C37.7,270.9,37.9,271.8,38.5,273.3z"/>
	<path class="st0" d="M65.6,93.4C66.2,94.9,65.7,93.6,65.6,93.4L65.6,93.4z"/>
	<path class="st0" d="M67.2,101.4c-0.2-0.3-0.4-0.5-0.5-0.5C66.9,101,67.1,101.2,67.2,101.4z"/>
	<path class="st0" d="M46.5,63.3c0,0,0,0.1,0,0.1C46.5,63,46.5,63,46.5,63.3z"/>
	<path class="st0" d="M66.4,95.7c-0.2-0.6-0.4-1.3-0.7-2C65.8,94.1,66,94.7,66.4,95.7z"/>
	<path class="st0" d="M66.4,95.4c0.2,0.5,0.4,0.9,0.5,1.3C67.1,96.9,67.1,96.7,66.4,95.4z"/>
	<path class="st0" d="M64.6,91.3c0.4,0.9,0.7,1.7,1,2.5c-0.1-0.3-0.1-0.4-0.1-0.4C65.4,92.9,65.1,92.3,64.6,91.3z"/>
	<path class="st0" d="M59.3,241c-0.1-0.1-0.1-0.3-0.2-0.4C58.7,240.2,59,240.6,59.3,241z"/>
	<path class="st0" d="M53.7,133.3c0,0.1,0.1,0.1,0.1,0.2C53.8,133.4,53.8,133.3,53.7,133.3L53.7,133.3z"/>
	<path class="st0" d="M50.8,128.1c1.6,2,2.2,3.4,3,5.1l0.2-2.3L50.8,128.1z"/>
	<path class="st0" d="M31.1,139.7c0,0,0.4,1.1,0.8,2.1c0.4,1,0.7,1.9,0.7,1.9c0.4,1.3,0.8,2.4,0.9,3c0.2,0.6,0.5,1.5,1.3,3.7
		c-1-2.8-1.4-4.1-1.6-4.6c-0.1-0.5,0-0.2,0.1,0c0.3,0.5,0.6,1,0-1.6l0.7,2c-0.1-0.3-0.1,0-0.2-0.3c0.3,1,0.4,1.2,0.5,1.2
		c0.1,0,0.1-0.3,0.1-0.5c0.1-0.2,0.1-0.4,0.3-0.3c0.2,0.1,0.5,0.6,0.9,1.4c0.5,1.3,0.7,1.9,0.2,1.5c0,0,0.1,0.1,0.2,0.3
		c0,0,0.1,0.1,0.1,0.1l0.1,0.1l0,0l0.1,0.1c0.2,0.3,0.3,0.6,0.5,0.9c0.7,1.2,1.4,2.3,1.4,2.3c0.7,1.4,0.3,1.2-0.4-0.2
		c0,0,1,1.8,1.9,3.6c0.5,0.9,1,1.8,1.3,2.5c0.4,0.7,0.6,1.1,0.6,1.1l-0.1,0c0.7,0.9,2.3,3.1,3,4.2c0.8,1.9-0.6-0.9-0.5-0.3l2.4,3.8
		c0.6,1.8-1.5-1.4-2.9-4.1c0.8,4.4,2.1,3.2,5.7,11.6l-2.2-3.7c0.6,2.8,2.5,5.6,4.3,10.1c-0.3-1.1-3.5-9.1-0.9-5
		c0.6,1.2,1.4,3,2.9,5.1c-0.2,0.1,0,0.7,0.5,1.7c0.5,1,1.2,2.4,2.4,3.9l-0.7,0.2c0.6,0.7,1.1,1.2,1.5,1.5l4.7,3.8l0.2-5.5
		c0-1.2-0.1-1.8-0.2-2.4c-0.2-0.6-0.3-1.1-0.7-2.1c-0.1-0.6-0.3-1.1-0.4-1.5c0-0.1,0-0.1,0-0.2c0,0,0-0.1,0,0c0,0,0-0.1,0-0.1
		c0-0.2-0.1-0.3-0.1-0.5c-0.1-0.6-0.1-1.1-0.2-1.5c0-0.8,0.1-1.3,0.2-1.8c-1.5-6.1,0.3,4.4-1.7-2.8c-1-5.1-2.2-8.6-4.1-14.5
		c-0.7-3.6,0.5,0.5,0.4-0.8l-1.3-3c-0.2-0.8,0-0.6,0.1-0.5c-0.9-2.6-0.7-0.1-1.9-4.1c-1-0.9-1.1-8.8-3.2-13.7
		c-0.1-1.3,0.5,0.5,0.7,0.1c-2.3-6.9-1.9-5.9-4-11.5l-0.9-5c0.5,3.7-1.3-0.7-2.8-4.6c0.1,1.3,0.2,2.5,0.3,3.2l-2.1-6.3
		c-0.1-0.8,0.3-0.2,0.8,0.8c-0.2-0.4-0.3-0.8-0.5-1.1c-0.4-2.4,0.3-1.3,1.1,0.3c0.1,0.8,0.2,1.6,0.3,2.4c0.8,1.5,1.6,2.9,1.9,2.4
		c-0.2-0.4-0.5-1.2-0.7-2.1c0.2,0.4,0.4,0.6,0.4,0.4c0-0.2-0.3-0.9-0.8-1.9l0.3-1.6l-0.4-0.3l-1.8-8.5c-1.1-2.9-2.3-5.6-3.5-8.8
		c-0.6-1.6-1.3-3.3-2-5.2c-0.6-1.9-1.3-4-1.4-6.4c0.3,1.2,0.5,1.3,0.7,1.1c0.2-0.2,0.4-0.6,0.7-0.5c-0.3,1.2,0.1,3,0.8,5.1
		c0.4,1,0.7,2.1,1.1,3.3c0.4,1.1,0.8,2.5,1,3.7c-0.3-1.3-0.3-1.8-0.3-2c0.1-0.1,0.2,0.2,0.4,0.5c0,0-0.2-0.6-0.5-1.4
		c-0.3-0.8-0.7-1.9-1.1-3c-0.4-1.1-0.7-2.1-0.9-2.9c-0.2-0.8-0.3-1.3-0.3-1.3c0.2,0,0.3-0.3,0.3-0.9c0-0.6-0.1-1.4,0.1-2.2l-4.1,0.5
		c0.1,0.2,0.1,0.5,0.2,0.7c0.2-1,0.9,0.5,1.8,2.7c0.9,2.2,1.9,5.1,2.6,6.9c-0.2,0.3-0.9-0.4-2.3-4.7c0.9,5,3.2,5.8,4.5,10.6
		c-0.4-1-0.6-1.6-1-1.9c1.2,2.3,3.6,8.2,2.8,7l-0.5-1c2.8,6.9,9.7,20.3,10.9,20.9c-0.1,0.1-1.3-0.4-1.7-0.7c0,0,2.1,2.6,4.2,5.3
		c2.1,2.6,4.2,5.2,4.2,5.2c-1.2-0.7-0.7,4.1-3.9-1.2c0.7,1.6,1.6,3.6,3.5,6.8c-0.5-1.1-0.4-3.1,0.4-1.7c1.4,4.4,1.1,3,3.1,8.2
		c-0.7-1.7,1.2-0.4,2.6,2.1c-0.4-0.3-0.9,0.8-1.5-0.1c0,0,0.3,0.4,0.7,0.9c0.2,0.3,0.4,0.6,0.7,0.9c0.2,0.2,0.5,0.6,0.7,1
		c0.5,0.7,1,1.5,1.4,2c0.4,0.5,0.7,0.9,0.7,0.9c-1-1.5-1,0.1-0.4,1.8c-0.1-0.2,0.2,0.1,0.6,0.8c0.2,0.3,0.5,0.8,1,1.2
		c0.2,0.2,0.5,0.5,1,0.8c0.2,0.1,0.5,0.3,0.9,0.4c0.4,0.1,0.9,0.2,1.4,0l1.5-0.4l0-1.6c0-1.8-0.1-3.6-0.2-4.5c0,0,0,0.8,0,1.6
		c0,0.4,0,0.8,0,1.1c0,0.3,0,0.5,0,0.5c-0.1-4.2-0.9-6.1-1.7-8c-0.8-1.9-1.7-3.7-2.7-7.5c0.5,0.9,2,1.9,1-2
		c-0.5-0.8-1.8-2.5-3.2-4.9c-1.4-2.4-3-5.4-4.1-8.7l-0.1-1.4l-1.8-5.1c1.7,3,6.1,11.5,8.2,16.2c-0.6-2.9,0.1-0.9-1.2-5.1
		c-0.1-1.6,1.1,2.2,1.5,3.4l-2.7-10c-0.5,0.6-2.8-7.4-3.2-6.9l3.7,10.6c-0.5,0.6-3.6-5.7-5.5-12.8c-0.2-1.9,1.5,1,1.7,0.8
		c-0.5-0.9-2.3-6.6-2.3-7.3l1.2,2.9c-0.8-4-2.6-6.2-3.2-11.1C57,97.6,57,94.1,56.5,94c-0.1,2.9-2.2,4-3.2,2.3
		c-0.1-0.6-1.5-8.8-1.6-10.8c-0.1-2.9,2.4,3.7,2.3,1.3c-0.2-0.1-0.8-1.5-1-2.1c-0.3-1.8,0.7,0.6-0.3-3.2c-0.8-0.5-1.9-7.7-1-1.6
		c-1.1-3.6-0.9-3.9-1.9-8.2c-0.1,1.5-2.4-3.5-3.5-7.2c0.2,0.2,0.2-0.7,0.3-1.1c-0.8-3.8-1.4-6.7-1.9-9.6c-0.3-1.4-0.5-2.9-0.8-4.4
		c-0.1-0.8-0.3-1.5-0.5-2.3c0-0.4-0.3-0.9-0.4-1.2c-0.1-0.4-0.3-0.8-0.4-1.2c0-0.3-0.1-1.1,0-1.8l-1.2,0.5c0.4,0.8,0.7,1.4,0.1,0.9
		c0.7,0.7,1.4,1.4,2.4,3.3c0.7,2,0.1,0.9-0.5-0.2c-0.7-1.2-1.5-2.4-1-0.8c0.2,0,1.1,1.1,1.9,2.7c0.9,1.5,1.7,3.5,2.4,4.9
		c0.1-0.6-0.5-2.3-1.4-4.2c-0.9-1.9-2.2-3.9-3.2-5.1c0.3-0.2,1.5,0.6,2.9,2.6c1.4,1.9,3,4.9,4.4,8.4c2.2,5.6,0.3,2.6,0.8,3.6
		c3.8,10.6,4.7,8.5,7.5,17.5c0.8,3.7-0.9,0.5-1,1.4c-1.9-4.5-2.4-7.2-3.5-10.3l1.2,3.9c-0.7-1.4-2-4.4-2.5-6.1
		c0.6,3.1,6.6,17.9,9.6,26.1c0.8,1.4,2,3.7,1.7,2.5l-1.2-2.5c-0.6-2.5,2.6,4.5,1.4,1.2c1.7,3.3,3.8,6.9,5.8,11.7l-0.2,1.1
		c0.1-0.2-1.1-3.2-1.8-4.5c1.1,1.9,2.6,7.6,4.3,9.4l-1.2-3.5c1.8,3.2,4.4,7.1,6.2,11.3c-0.4-2.1-0.5-0.9-1.3-4.2
		c0.4,2.9-5-10.7-3.9-6.1c-0.7-3.4-2.1-5.4-3.3-9.7c-0.1,0.2,0.3,1.6-1.2-2c-0.1-0.1-0.4-0.5-0.5-0.7c0-0.1-0.1-0.1-0.1-0.2
		c0,0.1,0,0.1,0.1,0.2c-0.1-0.1-0.1-0.2,0,0.1c0.3,0.9,0.5,1.6,0.5,1.9c-1.2-1.6-3.6-7.2-4.6-9c-0.8-2.2,0.6,0.8,0.3-0.4l-1.5-2.7
		c0.3-0.5-1.6-5.9,0.7-1L60,80.2c-0.8-2.8-2.1-6.5-3.1-8.7c-0.7-2.2-2.5-5.3-1.5-3.5L52.5,61l0.1-0.1c-1.1-3-2.2-6.2-3.6-9.5
		c-1.4-3.3-3-6.7-5.2-10l-4.3-6.3l0.1,7.8c0,1.4,0.3,2.8,0.7,4.1l0.1,0.3l0,0.1c0,0,0,0.1,0.1,0.2c0.1,0.3,0.2,0.6,0.2,0.9
		c0.2,0.6,0.3,1.3,0.5,2c0.3,1.5,0.7,3.1,1.1,5.2l-0.2,0.9c0.8,3.2,1.8,9.7,2.5,11c-0.2,3.7,3.6,15.5,4.8,21.1l0.5,0.1
		c0.9,3.8,2,7.5,3.4,12.2l0.4-0.4c1.4,4,2.5,10.6,4.3,17.1c-0.3-0.4-0.7-2-0.9-3.2c1.2,8,5.3,16,6.7,23.2c0.7,1.7,1,2.9,1.2,4.2
		c0-0.2-0.1-0.3-0.1-0.4c0.1,0.2,0.1,0.4,0.2,0.7c0.1,0.8,0.3,1.6,0.4,2.4c-0.1-0.7-0.2-1.4-0.3-2.1c0.4,1.3,1,3.3,1.5,5.2l-0.3,0.9
		c0,0.2,0.1,0.3,0.1,0.4c0.2,1.9,0.5,1.5,0.7,0.4c0.3,1,0.5,1.9,0.7,2.6c-0.4,1.2,0.2,3.4,0.1,5.4l1.7-0.6c0,0,0,0,0-0.2
		c0,0,0,0,0-0.1c0,0,0-0.1,0-0.1c0-0.1,0.1-0.1,0.1-0.2c0.1-0.2,0.2-0.4,0.3-0.6c0,0,0,0,0-0.1c0-0.1-0.1-0.3-0.2-0.5
		c-0.2-0.1-0.7-0.6-1.2-1.5c-0.5-0.8-1.2-1.9-1.8-3c-0.3-0.6-0.6-1.1-1-1.7c-0.3-0.5-0.7-1-1-1.4c-0.6-0.8-1.1-1.4-1.4-1.6
		c0.1-0.1-0.2-0.7,0.4,0.3c-1-2.1-2-4.1-3.2-5.8l0.1-1.1l-3.1-4.1c-1.1-2.9-1.4-4.1,0.4-1.6c-4-6.2-2.9-5.2-6.3-10.4l0.5,0.1
		c-1-2-3-5-3.3-6.3c-0.7-2.4-3.4-7.8-6.2-14.2c-0.7-1.6-1.4-3.3-2.1-5c-0.7-1.7-1.3-3.4-1.9-5.1c-1.2-3.5-2.2-6.9-3.3-10l-3.9,0.5
		c0,0.2,0,0.4-0.1,0.5c0.2-0.4,0.3-0.5,0.3-0.5l3.3-0.4c0,0,0,0,0,0l-3.3,0.4c0.1,0,0,0.6,0,1.3c0,0.7,0,1.6,0,2.5
		c0.1,1.8,0.5,3.5,0.9,3.6C33,91.2,33.4,93,32.6,91c0.5,1.6,0.9,3,1.3,4.2c0.3,1.1,0.5,2.4,0.8,3.4c0.5,2.2,1,4.1,2,6.1
		c-0.1,0.8-0.8-1.3-0.7-0.6c0.2,0.5,0.8,2,0.8,2.7c0,0.7-0.5-0.9-0.9-1.8c1.8,6.5,2.8,6.9,3.7,7.1c0.5,3.4,1,5,2.2,7.2
		c0.1,1.2,0.3,3.2-0.9-0.8c0.3,1.1,1.2,4.6,2,7.8c0.8,3.2,1.6,6.1,2,6.2c0,0.8,0.7,3.2,1,3.8c1.2,5.1,1.3,5.6,2.6,10.5l-0.2-1.4
		c1.2,1.8,1.2,4.1,2.3,8.1l-0.1-0.1c1.8,9.4,1.2,3.9,2.9,13.2l0.3-0.6c1.2,0.6,1.5,8.2,3.2,13.4l-0.2-2c0.2,0.6,0.4,1.3,0.5,2.1
		c0.1,0.4,0.1,0.8,0.2,1.3c0,0.2,0,0.4,0.1,0.7l0,0.3l0,0.1l0,0.1c0,0.1,0,0.2,0,0.2c0.3,1.7,0,3.2-0.4,4.4l3.8-1.4
		c-0.2-0.3-0.4-0.6-0.6-0.8c-0.2-0.4,0.3,0.2,0.8,0.6l-4.3,1.5c0-0.2,0-0.3,0-0.5c0,0.2-0.1,0.3-0.1,0.5l4.5-1.6
		c-0.7-0.9-1.1-1.6-1.4-1.9c-0.2-0.3-0.4-0.3-0.5-0.2c-0.2,0.1-0.4,0.5-1.8-1.9c-0.1-0.6,0.3-0.3,0.4-0.4c0.2-0.1,0.1-0.5-0.8-2.3
		c-0.7-1.8-6.3-9.5-8.3-14.5c0.3,1.2,0.7,2.3-0.8,0c-1-1.8-2.1-4.4-3.3-6.9c-1.1-2.5-2.3-5-3.5-6.4c-0.2-0.5-0.2-0.7-0.2-0.8
		c-0.2-0.3-0.4-0.7-0.7-1.2c-0.3-0.6-0.7-1.2-1-1.8c-0.8-1.4-1.6-3-2.4-4.5c-1.6-2.9-3-5.3-3.5-5.8c-0.3-1-0.7-2.1-1.2-3.4
		c-0.5-1.2-1.2-2.6-1.9-4.3c-0.7-1.6-1.5-3-2.1-4c-0.6-1-1.2-1.8-1.6-2.3c-0.5-0.6-0.9-1.1-1.3-1.7c-0.4-0.6-0.8-1.2-1-1.7
		c-0.6-1.1-1.1-2.3-1.6-3.7c0,0-0.2-0.3-0.5-0.8c-0.3-0.5-0.7-1.2-1.2-2c-0.5-0.7-1.1-1.5-1.7-2.2c-0.3-0.3-0.5-0.6-0.8-0.8
		c-0.1-0.1-0.2-0.2-0.2-0.2c0,0,0,0,0,0c0,0-0.1-0.2,0-0.2c0,0,0-0.1,0-0.1l-0.1-0.1c0,0,0,0,0,0l-0.1,0c0,0-0.1,0.1-0.1,0.1
		c-0.1,0.1-0.1,0.1-0.2,0.2c-0.1,0.1-0.1,0.3-0.2,0.5c0.4,1.7,0.8,3,1.2,4.3c0.4,1.3,0.9,2.6,1.4,3.9c0.1,0.7-0.4-0.8-0.6-1.3
		c0.2,0.7,0.3,1.4,0.5,2.1c0.2,0.8,0.3,1.5,0.4,2.1c0.2,0.7,0.3,1.4,0.4,2c0.2,0.7,0.3,1.3,0.5,2c0.2,0.8,0.5,1.6,0.8,2.5
		c0.3,0.9,0.5,1.7,1,3c0.8,2.2,1.7,4.8,2.9,8c0,0-0.6-0.2-0.6-0.1c0.7,1.8,1.6,5.7,3.1,11.6c0.3,1.3,0.7,2.6,1,4
		c0.3,1.1,0.6,2.2,0.9,3.3c0.6,2.2,1.3,4.5,2.1,6.6c-0.1-0.1-0.2-0.2-0.5-0.9c1.7,4.7,3.1,10.6,4.6,15.7c1.5,5,2.9,9.2,4.4,10.7
		l2.7,6.1c-2.9-8.1,1.2,0.9,0.2-2.5c1.3,3.1,2.6,8.4,1,4.5l-0.1-0.6c-1.4-1.1,3.5,10.1,2.8,10.1c0.5,1.4,1.1,2.8,1.6,4.2
		c0.4,1.1,0.8,2.1,1.2,3.2c0.8,2,1.4,3.9,1.9,5.5c0.6,1.6,0.9,3.1,1.4,4.4c0.2,0.6,0.2,1.4,0,2c-0.7-0.9-1.2-1.7-1.6-2.5
		c-0.2-0.3-0.3-0.6-0.5-0.9l2.8,6.5c0,0-0.5-0.8-0.9-1.7c-0.4-0.8-0.8-1.7-0.8-1.7c-0.9-2-1.9-4.6-1-2.7c-0.8-1.9-0.9-1.9-0.8-1.5
		c0.1,0.4,0.2,1.1,0.3,1.5c-1.5-2.9-1.5-3.3-1.5-3.7c0-0.3,0.1-0.5-0.2-0.9l-0.5-0.8l0.3,0.7c0,0.6,0.3,1.7-1.1-0.8
		c-0.5-1-0.7-1.5-0.8-1.9c-0.1-0.4-0.1-0.6-0.3-0.9c0-0.2-0.1-0.4-0.4-0.8l-1.5-2.7c0,0,0.1,0.4,0.2,0.9c0.1,0.5,0.3,1,0.3,1
		c-0.5-0.6-1-1.5-1.3-1.9c-0.1-0.1-0.1-0.2-0.2-0.2c-0.1-0.1-0.1-0.1-0.1,0c0,0.2,0,0.4,0.2,1c-0.1-0.2-0.1-0.5-0.3-0.8
		c-0.1-0.3-0.4-0.8-0.6-1.3c-0.5-0.9-1-2-1.7-3.2c-1.3-2.4-2.9-5.1-4.4-7.9c-3.1-5.4-6.1-10.6-6.7-12c-2.5-3.5-4.6-7.3-7.1-11.9
		c0.5,1.2,0.4,2.2-1.8-1.8c2,0.8-3.7-7.5-4.4-11.2c0.5,1.9-1.9-2.8-3-5.6l-1.9-4.6l-1.2,4.7c-0.1,0.3-0.1,0.6-0.1,0.8
		c0,0.2,0,0.4,0,0.5c0,0.3,0.1,0.6,0.1,0.8c0.1,0.4,0.2,0.7,0.3,0.9c0.2,0.3,0.2,0.1,0.2-1c0.3,2.1,0.3,2.1,0.1,2.1
		c-0.2,0-0.4-0.1-0.1,1.4c0.4,1,0.7,2,1.1,3.1c1.9,8,3.4,17.5,5.6,27.2c0.2,0.1,0.1-1.8,0.8,0.5l0.4,6c0.5,2.1,1.4,1.8,1.7,5.8
		c0-0.6,0.1-1.5,0.4,0c1.9,10.8,4.4,21.7,6.9,32.7c1.3,5.5,2.7,11,4.1,16.4c1.4,5.5,2.8,10.9,4,16.3c-0.5-3,0.1-1.1,0.7,1.1
		c-0.3-1.5,0.4-0.1,0.6-0.4c0,0,0.5,2.3,1,4.6c0.5,2.3,1.1,4.6,1.1,4.6c0.6,0.7,1.4,3.1,2.3,5.3c0.8,2.3,1.9,4.5,2.5,4.8
		c0,0-0.4-0.7-0.8-1.4c-0.4-0.7-0.7-1.4-0.7-1.4c1.2,1.7,0.9,0.2,0.7-1.6c-0.2-1.8-0.6-4,0-4c-1.2-1.9-1.8-4.7-2.5-7.9
		c-0.7-3.2-1.4-6.7-3-10c-0.3-1.6,0.7,1.2,0.7,0.3c-0.9-1.6-1.6-3.7-2.6-7.7l0.2,0.4c-1.6-5.5-2.6-9.5-3.5-13.6
		c-0.9-4.2-1.7-8.5-2.9-14.8l-0.3,1c-0.5-2.7-0.5-3.3-0.7-4.6c-1.4-3,1.6,7.6,0.2,5c0.2-3.8-4.1-19.1-3.5-21.8
		c-0.9-4.2-0.3,1.3-1.2-2.8l0.1-1.2l-0.6-1c-0.5-2.7-0.5-4.2-0.2-4.4c0.1,0.7,0.5,1.9,0.6,2.6c-0.4-3.6-2.3-10-2.4-11.2l0.7,4
		c-1.1-4.6-2.2-9.7-3.3-14.8c-1.1-5.2-2.2-10.3-3.4-15.2c-0.4-1.1-0.7-2.1-1.1-3.2c-0.3-1-0.6-1.9-0.8-2.7c0,0,0,0.2-0.1,0.4
		c0,0.2,0,0.4,0,0.4c-0.1-0.3-0.2-0.7-0.2-0.9c0-0.1,0-0.2,0-0.3c0,0,0-0.1,0-0.1c0,0,0,0,0,0l-0.2,0c-0.1,0-0.3-0.1-0.4-0.1
		l-2.2,0.3c1.3,3,1.9,4.3,2.6,5.9c0.7,1.6,1.5,3.4,3.7,7.1l-0.2-0.3c1.1,1.5,2.5,3.7,3.7,5.9c-1.4-1.9,1.8,4.1,0,1.6
		c5,7.9,2.6,3.8,6.3,8.8l0.4,1.4c1.3,1.7,1.6,1.7,4,5.8c-2.2-3.2,1,2.9-1.5-0.7c2.1,4.5,4.1,7.6,5.7,10.1c1.6,2.5,2.9,4.5,3.5,6.7
		c3.2,3.4-3.8-7.7-2.3-5.6c-0.8-2,2.5,2.9,4,5.6c0.4,0.7,0.7,1.4,1,2.1c0.3,0.8,0.8,1.9,1.3,3.1c0.6,1.3,1.3,2.9,2.3,4.8
		c1,1.9,2.2,4.3,3.7,6.8c-0.6-1-0.6-0.9-1.2-1.9c1.2,2.3,2.3,3.9,3.5,6.2c1.2,2.2,2.5,4.4,4,7c0.2-0.6,0.8,0.4,1.4,1.2
		c0.3,0.4,0.5,0.7,0.6,0.7c0.1,0,0-0.3-0.3-1.1c0,0-0.2-0.3-0.5-0.8c-0.3-0.5-0.8-1.2-1.3-1.8c-0.5-0.6-1-1.3-1.4-2
		c-0.4-0.6-0.7-1.1-0.7-1.1c1.3,1.8,1.8,1.9,2.7,2.9c0.8,0.9,1.7,2.6,3.5,6.2c0,0.2-0.5-0.5-0.8-0.9c0.6,1.1,0.9,1.6,1.2,2.1
		c0.3,0.5,0.6,1,1.2,2c0.1,0.1,0.1,0.2,0.2,0.3c0.1,0.2,0.1,0.4,0.2,0.5c0,0.3-0.9-1-1.8-2.6c-0.5-0.8-1-1.6-1.6-2.4
		c-0.6-0.8-1.2-1.5-1.5-1.6c0.9,1.7,2,2.8,2.5,3.5c0.5,0.7,0.9,1.2,1.2,2.5c-0.2-0.9,0-0.8,0.3-0.2c0.4,0.6,0.9,1.5,1.5,2.5
		c0.3,0.3,0.6,0.6,0.9,0.6c0.1,0,0.3,0,0.4,0l0.2-0.1c0.1,0.1,0-0.2,0-0.4l0-0.6l0.3,1.2c0.1-1.1,0-3.2-0.2-4.3c0,0,0.2,0.8,0.4,1.7
		c0.1,0.9,0.2,1.8,0.2,1.8c0-1.3-0.1-2.2-0.2-2.8c0-0.3-0.1-0.5-0.1-0.7c0-0.1,0-0.1-0.1-0.2l-0.1-0.5c-0.3-1.5-0.4-2.8-1.1-5.1
		c1,3.9,0.9,4,0.6,3.4c-0.3-0.6-0.8-1.9-0.6-0.6c-1.9-5.7-1.9-6.3-1.6-6.9c0.1-0.3,0.2-0.6,0.2-1.5c0-0.5-0.1-1.1-0.3-1.9
		c-0.1-0.4-0.2-0.9-0.3-1.5c0-0.2-0.3-0.8-0.5-1.3c-0.2-0.5-0.4-1.1-0.6-1.7c0.3,0.7,0.6,1.5,0.9,2.4c0.1,0.3,0.1,0.3,0.1,0.4l0,0.3
		c0,0.2,0,0.4,0,0.5c0,0.6-0.2,0.6-0.7-0.8c-0.1-0.4-0.2-0.9-0.3-1.4c-0.3-0.8-0.5-1.6-0.8-2.4c-0.5-1.5-0.9-3-1.1-3.9
		c-1.2-3.1-1.9-4.7-2.1-5.3c-0.3-0.6-0.2-0.1,0,0.4c0.3,1.2,0.8,3-0.4,0.4c-0.6-3.3-2.7-6.3-4.4-10.2l0.4-0.2
		c-3-8.6-1.8-1.9-4.4-9.7l1.9,3l-1.7-3.9l0.8,0.6c-2-4.2-2.4-5.6-3.8-9.9c0,1.1-1-0.3-2.4-4c-0.6-2.7,0.9,1.3-1-4.1
		c0.7,1.1,1.5,2.3,1.9,4.8c0.2,0.2,0.7,1.1,0.9,1.3c-0.7-2.9-2.4-7-3-9c0.2,0.8,0.5,1.7,0.6,2.1c0,0-0.8-1.9-1.6-3.8
		c-0.8-1.9-1.6-3.8-1.6-3.8c-0.2-1.3,0.2-0.4,0.7,0.6c-0.5-1.6-1.1-2.6-1.9-5c0.6,0.5,0.9,0.2,2.1,3.5l-2.7-7.4c0-0.6-0.7-4-0.3-3.1
		c-0.5-2.1-1.4-4.6-2.4-7.3c-0.1-0.3-0.2-0.6-0.3-0.9l-0.1-0.3c-0.1-0.2-0.2-0.4-0.3-0.6c-0.2-0.4-0.3-0.9-0.3-1.2
		c-0.1-0.2-0.3-0.5-0.5-1c-0.2-0.8-0.1-1.1-0.2-1.6c-0.1-0.5-0.2-1-1.3-3.7c0,0,0.4,0.9,0.9,1.8c0.5,1.1,1,2.1,1,2.1
		c-0.4-0.9-1.1-2.5-1.8-4c-0.7-1.5-1.4-2.9-2.4-5.8c-0.2-0.6-0.3-1-0.4-1.1c-0.1-0.6,0.5,0.8,1.2,2.5c0.7,1.7,1.5,3.5,1.7,4.1
		c-0.2-0.5-0.4-1.1-0.6-1.7c-0.2-0.5-0.2-0.9-0.3-1.2c-0.2-0.8-0.3-1.4-0.4-1.6c0-0.5,0.5,0.5,1.5,3.4
		C31.7,141,31.2,139.9,31.1,139.7z M50.5,176.5c-0.7-1-2.1-3-2.2-3.9C49.4,173.6,49.7,174.6,50.5,176.5z M40.4,107.4
		c0.4,0.8,0.7,2.2,0.9,3.8C41,110.1,40.7,108.8,40.4,107.4z M58.4,76.8c0,0,0-0.1-0.1-0.1C57.6,74.1,57.8,75,58.4,76.8z M60.3,82.1
		c0.3,0.5,0.3,0.4,0.3,0.2c-0.3-0.3-0.7-1.5-1.2-2.8C59.4,79.9,59.5,80.6,60.3,82.1z M47.5,214.6l0.3,0.8
		C47.2,214.6,47.3,214.6,47.5,214.6z"/>
	<path class="st0" d="M43.9,117.6c0,0.4-0.1,0.5-0.1,0.6C44,118.6,44.1,118.6,43.9,117.6z"/>
	<path class="st0" d="M33.2,148.6C33.2,148.6,33.2,148.6,33.2,148.6c0.1,0.1,0.1,0.2,0.2,0.2L33.2,148.6z"/>
	<path class="st0" d="M53.7,84.6c0.2,1.1,0.3,1.8,0.3,2.2C54.2,86.8,54.1,86.3,53.7,84.6z"/>
	<path class="st0" d="M72.8,108.9l-1.6-3.2c0.7,1.6,0.9,2.2,1.2,3C72.4,108.5,72.3,107.9,72.8,108.9z"/>
	<path class="st0" d="M80.3,118.2c-0.1-0.5-0.1-1.1-0.3-1.6l-0.2,0.2C80.2,119,80.5,120.6,80.3,118.2z"/>
	<path class="st0" d="M72.7,112.5c-0.2,0.4,0.8,2.4,2,4.6c-0.1-0.1-0.1-0.3-0.2-0.4C75.4,117.2,74,114.9,72.7,112.5z"/>
	<path class="st0" d="M75,117.7c0.4,0.7,0.7,1.4,1,2.1C76.4,119.9,75.7,118.9,75,117.7z"/>
	<path class="st0" d="M63.1,88.5c0.4,1.1,0.8,0.5,0.9,1.2C65,90.7,60.4,82.6,63.1,88.5z"/>
	<polygon class="st0" points="72.4,115 72.5,113.9 71.5,112.8 	"/>
	<path class="st0" d="M64.5,96.8l1.5,3.7c0.1-0.1,0.3,0.4,0.6,0.9C65.5,99.1,64.6,96.6,64.5,96.8z"/>
	<path class="st0" d="M66.5,101.4c0.5,1.2,1,2.3,1.4,2.9C67.7,103.7,67,102.3,66.5,101.4z"/>
	<polygon class="st0" points="69.9,110 69.5,108.9 68.3,106.3 	"/>
	<path class="st0" d="M48.9,56.5c0,0-0.4-1-0.8-2c-0.4-1-0.8-2-0.8-2c-0.3-0.4,0,0.8,0.6,2.3C48.4,55.7,49,57.2,48.9,56.5z"/>
	<path class="st0" d="M52.2,69.4c-0.3-1.1-0.2-1.3-0.3-1.9l-0.6,0.1L52.2,69.4z"/>
	<path class="st0" d="M47.6,57.4c-0.3-0.4-2.6-5.8-0.7-0.6C47.2,57.2,48.8,61.3,47.6,57.4z"/>
	<polygon class="st0" points="53.7,91.5 53.5,90.5 52.5,90.9 	"/>
	<path class="st0" d="M71.6,147.2c-0.5-2.7-0.7-2.9-0.9-3.1c-0.2-0.2-0.4-0.4-0.9-2.7c-0.6-1.1,0.8,3.8,0.3,2.7
		C71.1,147.1,71.3,148.8,71.6,147.2z"/>
	<path class="st0" d="M70.1,144c-0.2-0.5-0.4-1-0.6-1.5C69.8,143.4,70,143.8,70.1,144z"/>
	<path class="st0" d="M42,285.2c0,0,0.2,0.8,0.5,1.7c0.3,0.8,0.6,1.7,0.6,1.7s-0.2-0.6-0.3-1.1c-0.1-0.6-0.3-1.1-0.3-1.1L42,285.2z"
		/>
	<path class="st0" d="M45.8,291.1c0,0,0,0.3,0.1,0.6c0.1,0.3,0.2,0.6,0.2,0.6c0.7,0.4,1.6,0.9,2.8,0.8l1.7-0.1l0.1-1.1l0.1-0.6
		c-0.1,0.1-0.1,0.3-0.2,0.5l-0.4,1.1l-1.2,0c-0.9,0-1.8-0.4-2.2-0.8c-0.3-0.2-0.4-0.4-0.6-0.6C46,291.4,45.9,291.2,45.8,291.1z"/>
	<path class="st0" d="M53.8,185.4l0.3,0.2c-0.1-0.6-0.6-1.4-1.2-2.8c0,0,0.2,0.6,0.4,1.3C53.5,184.7,53.8,185.4,53.8,185.4z"/>
	<path class="st0" d="M35.1,149l0.1,0.2c0,0,0-0.3,0-0.7c0-0.4-0.1-0.8-0.1-0.8C35.1,147.7,35.1,149,35.1,149z"/>
	<path class="st0" d="M34.6,149.6C34.6,149.6,34.6,149.6,34.6,149.6c-0.1-0.2-0.1-0.3-0.2-0.5c-0.1-0.2-0.2-0.5-0.1-0.3
		c0.2,0.6-0.7-1.6-0.8-1.9C33.3,146.7,33.5,147.2,34.6,149.6z"/>
</g>
</svg>
