<?xml version="1.0" encoding="utf-8"?>
<!-- Generator: Adobe Illustrator 24.3.0, SVG Export Plug-In . SVG Version: 6.00 Build 0)  -->
<svg version="1.1" id="Objects" xmlns="http://www.w3.org/2000/svg" xmlns:xlink="http://www.w3.org/1999/xlink" x="0px" y="0px"
	 viewBox="0 0 205.6 89.1" style="enable-background:new 0 0 205.6 89.1;" xml:space="preserve">
<style type="text/css">
	.st0{fill:#232323;}
</style>
<g>
	<path class="st0" d="M18.2,17.7c0.7,0.1,1.2,0.1,1.3,0c0.1-0.1,0-0.2,0.2-0.2c-1.1-0.1-1.3-0.1-1.5-0.1c-0.2,0-0.2,0.1-0.2,0.1
		C18,17.6,18.2,17.7,18.2,17.7z"/>
	<polygon class="st0" points="52.6,18.6 51.9,18.8 57.4,17.9 	"/>
	<path class="st0" d="M87.5,15c-1.7-0.2-4.8,0.1-8.3,0.6c-3.5,0.5-7.4,1-10.5,1.3l-1,0l-2.7,0.9C72.4,16.7,82.1,15.2,87.5,15z"/>
	<path class="st0" d="M106.2,15.1c-1.2-0.2,4-0.5-4.4,0.2c0.4,0,0.5,0,0.8,0C103.4,15.3,104.4,15.2,106.2,15.1z"/>
	<path class="st0" d="M102.6,15.4C98.9,15.6,105.1,15.4,102.6,15.4L102.6,15.4z"/>
	<path class="st0" d="M119.7,14l-4.9,0.6c1,0.1,5.4-0.2,3.8,0C123.6,14.1,122.5,14,119.7,14z"/>
	<path class="st0" d="M124.2,13.1l-2.5,0.3C122.2,13.4,122.8,13.4,124.2,13.1z"/>
	<path class="st0" d="M116.4,14.1l5.3-0.6c-0.7-0.1-0.8-0.3-2.5,0.3C119.7,13.5,118.6,13.7,116.4,14.1z"/>
	<path class="st0" d="M113.3,14.2c-2.7,0-6.3,0.2-1.4-0.4C102.7,14.5,104.1,14.9,113.3,14.2z"/>
	<path class="st0" d="M89.2,14.1l-3.6,0.1l-3.1,0.5C84,14.4,89.4,14.3,89.2,14.1z"/>
	<path class="st0" d="M150,11.3c0.3-0.2-1.7-0.2-2.1-0.4l-3.6,0.6C146.2,11.4,149.7,11.1,150,11.3z"/>
	<path class="st0" d="M147.9,10.9l5.3-0.9C148.4,10.6,147.6,10.8,147.9,10.9z"/>
	<path class="st0" d="M125,12.2c0,0-2.2,0.3-4.4,0.7c-2.2,0.3-4.4,0.6-4.4,0.6s2.6-0.3,5.3-0.7c2.6-0.4,5.2-0.7,5.2-0.7L125,12.2z"
		/>
	<polygon class="st0" points="170.3,9 167.4,9.7 172.7,8.5 	"/>
	<path class="st0" d="M183.8,7.5c-2.2,0.5,3.2,0.2,0.8,0.6c3.7-0.4,6.8-1,9.6-1.5C191.2,7,188.1,7.4,183.8,7.5z"/>
	<path class="st0" d="M198.8,6c-1.5,0.2-3,0.4-4.7,0.7C195.8,6.4,197.3,6.2,198.8,6z"/>
	<path class="st0" d="M162.3,9.1c0.4,0,1.2,0.2,4.2,0l-2.1-0.2C163.8,8.9,163.1,9,162.3,9.1z"/>
	<path class="st0" d="M164.3,8.8L164.3,8.8c2.4-0.2,3.9-0.4,4.6-0.5C168.4,8.4,167,8.6,164.3,8.8z"/>
	<path class="st0" d="M161.8,9.1c0.2,0,0.3,0,0.5-0.1C162.1,9.1,162,9.1,161.8,9.1z"/>
	<path class="st0" d="M139.1,11.2c3.1-0.6,9.6-1.6,3.3-1.2C140.2,10.5,143.8,10.3,139.1,11.2z"/>
	<path class="st0" d="M159.1,8.9l-5.7,0.6c0.1,0.1,1.2,0.1-0.4,0.4L159.1,8.9z"/>
	<polygon class="st0" points="161.9,8.4 159.1,8.9 161.2,8.7 	"/>
	<path class="st0" d="M189.2,6.4c2.4-0.4,5.1-0.7,8.1-1c-3.2,0.2-6.6,0.5-9.8,0.8C187.1,6.4,185.7,6.8,189.2,6.4z"/>
	<path class="st0" d="M177.1,7.5c0.2,0,0.4-0.1,0.5-0.1C177.3,7.4,177,7.4,177.1,7.5z"/>
	<path class="st0" d="M183.9,4c0.2,0,0.3,0,0.5,0c0,0,0.1-0.1,0.1-0.1L183.9,4z"/>
	<path class="st0" d="M187,6.2c-2.5,0.2-3.9,0.4-5.3,0.7c1.8-0.2,3.8-0.4,5.9-0.7C187.7,6.1,187.7,6.1,187,6.2z"/>
	<path class="st0" d="M203.7,0.3c0.4,0,0.8-0.1,1.3-0.2l0.7,5.4c-0.8-0.1-1.8-0.1-2.7-0.1c0.7,0.1,1.8,0.1,2.7,0.2L204.9,0
		C204.3,0.1,203.8,0.2,203.7,0.3z"/>
	<path class="st0" d="M178.5,7.5c-0.1,0-0.2,0-0.4,0.1C178.9,7.5,178.8,7.5,178.5,7.5z"/>
	<path class="st0" d="M178.5,7.5c1.2-0.2,2.2-0.4,3.2-0.6c-1.5,0.2-2.8,0.4-4,0.5C177.9,7.4,178.2,7.4,178.5,7.5z"/>
	<path class="st0" d="M175.6,8.6c0.3-0.5,6.5-2.3,12.1-3c5.3-1.3,1.6-2-3.3-1.7c-0.1,0.2-0.1,0.3-5.6,1.8c1-0.1,4.1-0.7,6.4-1
		c2.3-0.3,3.7-0.4,1.4,0.2c-7.3,1.7-6,1.2-9.6,1.7c1.6-0.1-0.7,0.6-3.2,1.4c-2.4,0.8-5.1,1.7-4.2,1.8l6.3-1.8
		C176.1,8.2,173.8,8.9,175.6,8.6z"/>
	<path class="st0" d="M195.1,2l2.3-0.4c-2.7,0.3-4.6,0.4-8.1,0.8c-3.8,0.9-4.6,1.3-4.8,1.4c0,0,2.8-0.6,5.7-1.1
		c2.8-0.5,5.7-0.9,5.7-0.9L195.1,2z"/>
	<path class="st0" d="M203.2,5.1c0.6-0.2,1.5-0.3,2.4-0.4l-0.5-3.8c-1.7,0.6-3.5,1-1.2,1c0.6-0.1,1-0.2,1.4-0.3l0.3,2.4
		c-2.5,0-3.4,0.2-4.1,0.3c-0.7,0.1-1.3,0.3-3.1,0.5C209.2,4.1,195.3,5.1,203.2,5.1c-2.2,0.1-4.1,0.2-5.9,0.4c2-0.1,3.8-0.1,5.6-0.1
		c-0.1,0-0.2,0-0.2,0l-0.1,0l0,0c-0.5,0-0.6-0.1-0.1-0.1c0,0,0.2,0,0.2,0C202.8,5.2,203,5.1,203.2,5.1c3.1,0,0.5,0.1-0.5,0.2
		c0,0-0.1,0-0.1,0.1c0,0,0,0,0,0c1-0.1,2-0.1,3-0.1L205,0.3c-2.2,0.6-4.9,0.9-7.6,1.3c0.9-0.1,2-0.2,3.3-0.4
		c1.2-0.2,2.7-0.3,4.4-0.7l0.6,4.5C205.1,5,204.2,5,203.2,5.1z"/>
	<path class="st0" d="M148.1,8.4c0.3,0,0.3,0,0.4,0.1C149.2,8.3,149.5,8.3,148.1,8.4z"/>
	<path class="st0" d="M152.7,8.1c-0.8,0.2-1.4,0.4-4,0.7c-2.3,0.1,0-0.2-0.1-0.3c-1.5,0.3-5.4,0.9-0.5,0.6l0.8-0.1
		c4.4-0.4,10.1-0.5,9.4-0.3C156.8,8.3,155.6,8.2,152.7,8.1z"/>
	<path class="st0" d="M178.3,6.1l9.1-1.1l-4.7,0.1l0.3,0.2C177.7,5.7,178.9,5.9,178.3,6.1z"/>
	<polygon class="st0" points="182.8,4 183.9,3.3 178.8,5 	"/>
	<polygon class="st0" points="171.1,6.7 171.5,6.2 168.5,7.2 	"/>
	<path class="st0" d="M156.4,38.8l2.7-0.4C157.8,38.6,157,38.7,156.4,38.8z"/>
	<path class="st0" d="M137,40.9l-0.5,0.2C137.4,40.9,137.8,40.8,137,40.9z"/>
	<path class="st0" d="M124.2,36.2c3.9,0.1,8.3,0.3,7.8-0.1l-1.2-0.3C128.1,36,126,36.2,124.2,36.2z"/>
	<path class="st0" d="M29.7,57.2c0.4,0,0.8,0,1.2-0.1c0.9-0.3,1.8-0.6,2.5-0.9C32.3,56.6,31,56.9,29.7,57.2z"/>
	<path class="st0" d="M27.3,59.5L22.1,60C23.3,59.9,24.9,59.8,27.3,59.5z"/>
	<path class="st0" d="M92.3,58.6l-3,1C94.1,58.7,91.9,58.9,92.3,58.6z"/>
	<path class="st0" d="M52.4,34.4c-3.4,0.4-6,0.8-8.4,1.2C48.1,35.1,51.4,35,52.4,34.4z"/>
	<path class="st0" d="M149.2,44.2c1.6-0.3,2.3-0.4,2.3-0.5C149.8,44,148.9,44.2,149.2,44.2z"/>
	<path class="st0" d="M34.4,37.4c0.6-0.1,1.2-0.2,1.8-0.2c2.4-0.5,4.9-1.1,7.9-1.6C41.1,36,37.6,36.5,34.4,37.4z"/>
	<path class="st0" d="M45.6,85.7c-0.3,0.1-0.6,0.1-0.9,0.2C44.7,86,45.1,85.9,45.6,85.7z"/>
	<path class="st0" d="M129,83c-1.1,0.1-2.9,0.3-4.6,0.5C125.3,83.4,126.7,83.3,129,83z"/>
	<path class="st0" d="M124.7,18.7C127.1,18,125,18.5,124.7,18.7L124.7,18.7z"/>
	<path class="st0" d="M137,17.2c-0.5,0.2-0.9,0.4-0.9,0.5C136.2,17.5,136.5,17.4,137,17.2z"/>
	<path class="st0" d="M10.5,46.3c-0.1,0-0.1,0-0.2,0.1C11.1,46.2,10.9,46.2,10.5,46.3z"/>
	<path class="st0" d="M128.4,17.9c-0.9,0.2-2,0.4-3.2,0.7C125.7,18.5,126.7,18.3,128.4,17.9z"/>
	<path class="st0" d="M127.8,17.8c0.8-0.2,1.5-0.4,2.1-0.5C130.3,17.2,130,17.2,127.8,17.8z"/>
	<path class="st0" d="M121.3,19.6c1.4-0.4,2.7-0.7,4-1c-0.5,0.1-0.7,0.1-0.6,0.1C123.9,18.9,122.9,19.1,121.3,19.6z"/>
	<path class="st0" d="M85.3,58.3c0.2,0,0.4,0,0.5-0.1C88.3,57.6,87.2,57.8,85.3,58.3z"/>
	<path class="st0" d="M162.7,35.7c0.1,0,0.2,0,0.3-0.1C162.9,35.7,162.7,35.7,162.7,35.7L162.7,35.7z"/>
	<path class="st0" d="M153.8,37.8c3.7-1.2,5.9-1.6,8.8-2.1l-3.2-0.6c0,0-1.4,0.7-2.8,1.4C155.2,37.1,153.8,37.8,153.8,37.8z"/>
	<path class="st0" d="M151.2,47.7c0,0,0.4-0.1,1-0.2c0.6-0.1,1.4-0.3,2.3-0.5c1.7-0.4,3.2-0.9,3.2-0.9c-0.9,0.4-1.8,0.8-2.6,1.2
		c-0.9,0.3-1.8,0.7-2.5,0.9c-1.5,0.5-2.7,0.8-3.5,1c-1.6,0.4-1.5,0.5,1.6,0.1c0.1-0.2,0.5-0.4,1.2-0.7c0.4-0.1,0.8-0.3,1.3-0.5
		c0.5-0.2,1.1-0.4,1.7-0.6c2.4-0.9,5.3-2.2,7.8-2.8c1.3-0.3,2.8-0.5,4.4-0.9c0.4-0.1,0.8-0.2,1.2-0.3c0.2-0.1,0.4-0.1,0.6-0.2
		c0.2-0.1,0.3-0.1,0.5-0.2c0.6-0.2,1.2-0.4,1.8-0.6c2.2-0.8,3.5-1.2,3.7-1.6c0.6-0.1,1.2-0.1,1.8-0.1l-0.5-5
		c-0.8,0.1-1.6,0.1-2.4,0.2c1.1-0.2,1.4-0.3,2.3-0.4l0.6,5.4c-0.1,0-0.2,0-0.3,0c0.1,0,0.2,0,0.3,0l-0.6-5.4
		c-2.1,0.1-3.5,0.4-4.5,0.7c-1.1,0.3-1.8,0.6-2.6,0.9c-0.8,0.3-1.7,0.6-3,0.9c-1.4,0.3-3.2,0.5-5.8,0.7c-3.7,0.3-6.2,0.4-3.8-0.1
		l-8.1,1.2c-2.4,0.2-1.8-0.1,0.5-0.3l-12.4,1.4l0.1,0c-1.7,0.4-5.7,1.1-7.7,1.5c-3.2,0.1,1.6-0.3,0.7-0.4l-6.8,1
		c-2.8-0.1,2.8-1,7.6-1.4c-6.5-0.7-5.7,0.9-19.6,1.5l6.5-0.8c-4.3-0.4-9.3,0.4-16.7,0.6c1.8,0.1,14.8-0.2,7.4,0.8
		c-2.1,0.1-4.9,0.3-8.9,1c-0.1-0.5-4,0-8.9,0.6l0.3-0.7c-5.3,0.8-4.9,1-7.9,1.7c-5.9,0.6-7.2,0.3-8.7,0.1c-9.5,1.2,6.7-0.1-4.6,1.5
		c-7.9,0.9-13.4,2-22.7,4.2c-5.5,0.9,0.9-0.6-1.1-0.4l-4.7,1.5c-1.2,0.3-0.8,0-0.7-0.1c-4,1.1-0.2,0.7-6.5,2.4
		c-0.4,0.3-1.4,0.6-2.9,0.9c-1.4,0.3-3.3,0.8-5.3,1.2c-2,0.5-4.1,0.9-6.2,1.1c-2.1,0.3-4.3,0.5-6.3,0.8c-2,0,0.9-0.5,0.3-0.7
		c-1.2,0.1-2.2,0.3-3.2,0.4C8.7,59.9,8,60,7.4,60.1c-0.6,0.1-1.1,0.1-1.5,0.1c-0.2,0-0.3,0-0.4,0c0,0-0.1,0-0.1,0c0,0,0,0,0,0l0,0
		c0,0,0,0,0,0l0,0.1l-0.2,3.4c2.7-0.9,4.3-1.4,9.3-2.7c0,0,0.5-0.1,1.2-0.2c0.7-0.1,1.7-0.2,2.6-0.3c1.9-0.2,3.8-0.4,3.8-0.4
		c-5.7,0.5,1.4-1.3,7.6-2.8c-2,0.1-3.8,0.2-4.9,0.3l10-2c1.2-0.1,0.3,0.3-1.3,0.8c0.7-0.2,1.3-0.3,1.8-0.5c3.6-0.4,1.8,0.3-0.7,1.1
		c-1.2,0.1-2.5,0.2-3.7,0.2c-2.4,0.8-4.6,1.6-4.1,1.9c0.6-0.2,1.9-0.5,3.2-0.7c-0.6,0.2-1,0.4-0.7,0.4c0.4,0,1.4-0.3,3-0.7l2.4,0.3
		l0.5-0.4c0,0,3.3-0.4,6.6-0.9c3.3-0.4,6.6-0.8,6.6-0.8c9.3-2.3,17.3-4.7,32-8c-3.6,1.2-0.6,1-0.7,1.6c-4.2,0.2-11.4,2.6-19.2,3.8
		c4-0.7,3.2-0.2,2.2,0.1c0,0,3.4-0.8,6.8-1.6c3.4-0.8,6.8-1.6,6.8-1.6c-0.2,0.6,3-0.2,6.6-0.7C80,49.5,93,47,98.5,45.5
		c0.4,0.3-0.8,0.9-7.6,2.3c7.6-0.9,9.4-3.3,16.9-4.1c-1.7,0.3-2.6,0.5-3.2,0.8c1.9-0.5,5.2-1.2,7.8-1.6c2.6-0.4,4.4-0.6,3.3-0.2
		l-1.7,0.3c5.5-0.9,14-1.9,21.2-3.1c7.3-1.1,13.3-2.3,14.1-2.9c0.1,0.1-1.3,1.2-1.9,1.5c0,0,4.9-1.5,9.7-3.1
		c2.4-0.8,4.8-1.7,6.6-2.3c0.9-0.3,1.6-0.6,2.2-0.8c0.5-0.2,0.8-0.3,0.8-0.3c-0.8,0.5,0.6,0.9,0.9,1.4c0.2,0.3,0.2,0.5-0.5,0.9
		c-0.3,0.2-0.7,0.4-1.4,0.6c-0.7,0.2-1.6,0.5-2.7,0.8c1.3-0.2,2.7-0.5,4.5-0.8c1.8-0.3,4-0.5,7-1.6c-2,0.6-4.9,0.1-2.4-0.5
		c2.4-0.2,3.8-0.8,4.3-1l-0.7-2.5c-2.6-0.2-3.6-0.2-9.2-0.4c2.8,0-0.2,1.3-4.6,1.5c0.7-0.2-0.4-1.1,1.1-1.3l-10.7,1.9
		c2.7-0.4,0.4-1-2-1.1c1.1,0.1-9.3,0.6-12.1,0.9l4.6-0.1c-12.1,0.7-11.9,2.4-23.9,3.3c1.4-0.3,3.5-1.7-2.6-1.4
		c-2.8,0.8-12.2,3.8-22.7,5.4l-2.1-0.1l-8.1,1.3c4.9-1.5,18.9-4.9,26.7-6.2c-4.6,0.2-1.3-0.3-8.1,0.4c-2.4-0.1,3.7-0.8,5.7-1
		c0,0-4,0.3-7.9,0.7c-4,0.4-7.9,0.7-7.9,0.7c0.8,0.6-12,2.1-11.3,2.6c0,0,4.3-0.7,8.5-1.4c4.3-0.6,8.5-1.3,8.5-1.3
		c0.8,0.6-9.7,2.9-20.9,4.2c-2.9,0.1,2-1.5,1.7-1.7c-1.4,0.4-10.5,1.9-11.6,1.9l4.7-1c-6.2,0.6-10,2.4-17.5,2.8
		c-2.6,0.3-7.8,0.3-8.2,0.7c4.3,0.2,5.5,2.4,2.7,3.4c-0.5,0-3.9,0.4-7.5,0.6c-3.7,0.3-7.6,0.5-9.1,0.5c-4.3-0.1,6.2-2.2,2.5-2.3
		c-0.1,0.2-2.4,0.7-3.4,0.9c-2.7,0.1,1.1-0.7-4.8,0c-0.9,0.8-11.9,0.9-2.7,0.8c-5.7,0.7-6.1,0.3-12.9,0.6c1.6,0.3-2.4,1-6.9,1.8
		l0-0.2c1.6-0.1,3.3-0.3,4.8-0.6c-0.3,0.2,1,0.2,1.6,0.2c3.6-1.1,6.7-2,9.4-2.8c3.2-0.7,6.1-1.3,9.1-1.9c3-0.6,6.2-1.2,9.9-1.9
		c1,0,6.3-0.8,4.1-0.1c1.5-0.4,2.9-0.9,6.3-1.5c6.6-0.6-7.5,1.4-2.4,1.2c0.4-0.5,8.6-2,13.3-3.1c-1.6-0.3-11.1,1.8-15.8,2.9
		c-0.2-0.9,8-3.1,19.3-5.5c9-1.9,4-0.2,5.6-0.6c8.5-1.5,12-2.7,15.2-3.6c3.2-1,6-1.8,13-3.1c5.7-0.7,0.5,1,1.8,1.1
		c-7.3,1.8-11.3,2.1-16.2,3.2l6.2-1c-2.3,0.7-7.2,1.8-9.9,2.2c2.4-0.2,9.5-1.7,17.7-3.5c8.2-1.8,17.3-3.9,23.8-5.4
		c2.3-0.8,6.2-2,4.2-1.7l-4.1,1.1c-3.9,0.5,7.5-2.6,2.3-1.4c5.4-1.7,11.4-3.8,19.1-5.6l1.6,0.2c-0.2-0.1-5.1,1-7.2,1.8
		c3.1-1.1,12-2.4,15.3-4.1l-5.5,1c5.4-1.8,12-4.2,18.9-5.7c-3.3,0.2-1.6,0.5-6.6,1c4.4-0.3-17.5,4.6-10.5,3.7c-5.2,0.5-8.7,2-15.3,3
		c0.3,0.1,2.4-0.2-3.3,1.2c-0.2,0.1-0.8,0.4-1.2,0.5c-0.2,0-0.2,0.1-0.4,0.1c0.1,0,0.2,0,0.3-0.1c-0.2,0.1-0.3,0.1,0.1,0
		c1.4-0.3,2.5-0.5,3-0.5c-2.7,1.2-11.8,3.6-14.8,4.5c-3.4,0.8,1.4-0.6-0.5-0.3l-4.5,1.5c-0.6-0.3-9.2,1.4-1.3-0.7l-7.2,1.7
		c-4.3,0.7-10.2,1.9-13.8,2.9c-3.4,0.6-8.6,2.3-5.6,1.3c0,0-2.8,0.6-5.7,1.3c-2.8,0.6-5.7,1.3-5.7,1.3l-0.1-0.1
		c-11.3,2.2-23.1,4.8-36.3,6.5c-3.8,0.9-7.7,1.7-14.1,3.2l-1.3-0.1c-0.5,0.1-1,0.2-1.5,0.4c-0.7,0.2-1.4,0.4-2.1,0.6
		c-0.7,0.2-1.4,0.4-2.2,0.6c-1.5,0.4-3,0.9-4.5,1.3c-0.2,0.1-0.4,0.1-0.5,0.2l-0.2,0.1c0,0,0,0-0.1,0c-0.3,0.1-0.6,0.1-0.9,0.2
		c-0.6,0.1-1.2,0.2-1.7,0.2C6,44,5.3,44,4.8,44.1c-0.2,0-0.4-0.1-0.7-0.1l0.2,5.8c1.5,0.1,3.7,0,6.3,0c2.6-0.1,5.7-0.2,8.8-0.4
		c6.3-0.5,12.8-1.4,17-1.8l0.3-0.5c6-0.7,11.7-1.7,19.1-3l-0.5-0.4c6.3-1.3,16.4-2.2,26.5-3.5c-0.7,0.3-3.2,0.5-5.1,0.7
		c12.2-0.6,25.4-3.7,36.5-3.9c2.7-0.4,4.7-0.5,6.6-0.6c-0.3,0-0.5,0-0.7,0.1c0.3,0,0.7-0.1,1.1-0.1c1.2,0,2.5,0,3.8-0.1
		c-1.2,0-2.3,0-3.2,0c2.1-0.2,5.3-0.5,8.5-0.8l1.4,0.4c0.3,0,0.5,0,0.7-0.1c3.1-0.1,2.5-0.4,0.8-0.7c1.6-0.2,3-0.4,4.1-0.6
		c2.6,0.6,8.2-0.8,11.7-0.2c1-0.3,5-0.6,8.9-1c3.9-0.4,7.7-0.8,8.5-1.3c0.1,0.1,1,0.1-0.7,0.2c3.5-0.1,7-0.2,10.1-0.4l0.7,0.3
		l-0.7-2.7c-0.3,0-0.5,0-0.8,0c0,0-0.3,0.2-0.9,0.5c-0.6,0.3-1.4,0.6-2.3,0.9c-0.9,0.3-1.8,0.5-2.5,0.7c-0.7,0.2-1.2,0.3-1.2,0.3
		c-2.4,0.2-4,0.5-4.5,0.4c-0.5-0.1,0.1-0.4,2.3-1.1c-5.4,1.6-7.6,2-9.6,2.5c-2,0.4-3.8,0.8-8.4,2l0.4-0.5c-3.3,0.6-8.6,1.9-10.7,1.8
		c-1.9,0.1-5.2,0.4-9.4,0.9c-2.1,0.3-4.4,0.6-6.8,0.9c-2.5,0.3-5.1,0.7-7.8,1.2c-10.8,1.9-22.9,4.7-32.5,6.3c3.9,0.4-9,1.3-9.6,2.3
		c-1.2-0.1-3.9,0.3-0.8-0.5C60.2,50,55.2,50.1,48.5,52c-1.2-0.1,2-0.7,1-0.7c-0.8,0.2-3.1,0.7-4.1,0.7c-1,0,1.4-0.5,2.9-0.8
		c-10,1.6-10.9,2.7-11.5,3.6c-5.2,0.5-7.7,1-11.3,2.1c-1.8,0-4.8,0.3,1.4-0.9c-1.8,0.3-7.2,1.1-12.1,1.9c-2.4,0.5-4.9,0.9-6.7,1.4
		c-1.8,0.5-3,0.9-3,1.1c-0.2,0-0.5,0.1-1,0.2l-3.7,1l3.6,1.6c1.3,0.6,2.4,0.4,3.5,0.4c1-0.1,1.9-0.3,2.2-0.3
		c3.9-0.3,6.1-0.4,8.3-0.7c2.2-0.2,4.5-0.6,8.2-1.8c0,0-0.5,0.1-1.1,0.3c-0.5,0.1-1.1,0.2-1.1,0.2c2.9-1.5,6.2-2.1,12.3-3.7
		l-0.2,0.1c7.1-1.4,8.6-1.7,10.1-2.1c1.5-0.3,3-0.7,10.1-1.6l-0.8-0.3c1.1-1.3,12.6-1.5,20.8-2.9l-3,0.1c4.5-1,12.7-0.2,17.3-0.5
		c1,0-1.5,0.3-2.9,0.5c11.9-0.7,1.5-0.8,10.3-1.9c1.7,0.2-2,1.1,3.9,0.5c3,0,17.2-2.8,25.4-2.9c-1.8-0.1-3.6-0.2,0.5-0.8
		c6.3-0.7,17.1-0.8,22.7-2.2c0.8,0,1.1,0,1.2,0.1c2.4-0.3,6.3-0.9,10-1.4c1.8-0.3,3.6-0.5,5.1-0.8c1.6-0.3,2.8-0.6,3.5-0.9
		c1.2,0.2,3.7-0.2,6.6-0.6l-0.4-3.5c-2.5,0.2-5.1,1-7.6,1.8c-0.6,0.2-1.2,0.4-1.8,0.6c-0.6,0.2-1.2,0.3-1.8,0.4
		c-1.2,0.3-2.5,0.5-3.7,0.8c-2.4,0.7-4.3,1.5-5.7,1.9c-1.4,0.4-2.2,0.6-2.3,0.3c0,0-0.2,0.1-0.6,0.2c-0.4,0.1-0.9,0.3-1.5,0.4
		c-1.3,0.4-3.1,0.8-4.9,1.2c-3.6,0.8-7.2,1.4-7.2,1.4l0.4-0.2c-9.3,1.4-12.7,2.2-15.9,3.1c-2.2,0.3-0.6-0.1-0.5-0.3
		c-13.8,2-15.1,2.4-26.4,5.3l-1.3-0.3c-1.5,0.4-6.5,1.2-12.7,2.3c-3.1,0.5-6.6,1.2-10,1.9c-3.5,0.7-7,1.3-10.3,2
		c0.1-0.1,0.4-0.2,1.4-0.5c-7.5,1.6-16.6,2.6-24.5,3.7C31.3,64,24.6,65.3,22,66.8l-9.8,2.4c12.9-2.4-1.8,1.1,3.6,0.4
		c-2.5,0.6-5.8,1.1-7.7,1.3c-1,0.1-1.6,0.2-1.5,0.1c0-0.1,0.7-0.3,2.2-0.6l1-0.1c0.6-0.4-0.6-0.3-2.6,0c-2.1,0.4-4.8,1.3-7,1.4
		l0.3,2.5c3.2-0.4,6.1-0.5,6-0.2c1.6-0.1,3.2-0.2,4.9-0.4c1.7-0.2,3.3-0.5,4.9-0.8c3.2-0.6,6.3-1.3,9.4-2c6.1-1.4,12.3-2.2,18.6-3.1
		c12.3-1.9,24.6-3.1,36.6-5.1l-2.9-0.3c0,0,2.1-0.3,4.2-0.7c2.1-0.4,4.1-0.8,4.1-0.8c2.2-0.2,3,0-2.9,1.1c3.2-0.2,9.8-2.2,10-2.4
		c11.6-1.9-4.4,1.7-0.8,1l4.8-1l-1.1,0.1c3.9-1,4.1-1.4,11.2-2.7c4.5-0.7,2.4,0,4.2-0.3c0,0,0.2,0,0.6-0.1c0.4-0.1,1.1-0.2,2.2-0.4
		l10.4-1.9l-4.3,0.2c4.6-1.2,9.8-1.8,4.9-1.6c3.1-0.1,10.8-1.5,19-2.5c4.1-0.5,8.2-0.9,12-1.2c3.7-0.3,7-0.3,9.4-0.4l-0.8-3
		c-1.1,0.5-2,0.7-2.6,0.7c-1.4,0.4-3.1,0.4-4.8,0.7c-0.9,0.1-1.8,0.3-2.7,0.5c-0.8,0.3-1.6,0.5-2.5,0.8c-3.3,1-6.7,2.1-10.6,3
		c2-0.4,3.3,0-3.5,1.6c1.1-1-2.1-0.3-6.2,0.6c-4.1,0.9-9.2,2.1-12.1,2.4c2.5-0.4-2.3,1-6.6,2.5c-4.4,1.5-8.3,3-4.4,2.1
		c-5.5,1.8-0.5-0.4-4.8,0.8c-3.2,1.3-6.6,2.6-10.1,4c-3.5,1.3-7.2,2.6-10.9,3.8c-7.6,2.4-15.7,4.7-23.8,7.3c-0.2,0.2,2.6-0.3-0.8,1
		c0,0-2.2,0.4-4.4,0.9c-2.2,0.4-4.4,0.8-4.4,0.8c-3.2,1-2.7,1.8-8.8,2.8c0.9-0.1,2.2-0.2,0,0.4c-3.4,0.8-6.8,1.5-10.2,2.3l0.5,3.2
		c3.5-0.2,7.2,0.4,11.1,0.6c1,0.1,2,0.1,2.9,0.1l2.8,0c1.9,0,3.8,0,5.7,0c7.6,0,15.3,0.1,23.1-0.4c15.5-1,30.7-3.7,45.7-4.7
		c-4.6,0.2-1.6-0.2,1.9-0.6c-2.3,0.2,0-0.4-0.5-0.6c0,0,3.5-0.2,7.1-0.3c1.8-0.1,3.5-0.1,4.8-0.1c1.3,0,2.2,0,2.2,0
		c1.3-0.4,5.1-0.5,8.7-0.5c3.6,0,7,0.3,7.8,0.1c0,0-1.1-0.1-2.2-0.2c-1.1-0.1-2.2-0.1-2.2-0.1c2.9-0.2,0.9-0.8-1.8-1.3
		c-2.7-0.5-6.1-0.9-5.7-1.4c-3.3,0.5-7.8,0.3-12.8,0.4c-5,0.1-10.5,0.5-15.9,1.8c-2.4,0.1,2-0.6,0.7-0.6c-2.7,0.8-6,1.3-12.2,2
		l0.7-0.2c-8.7,1.3-14.8,2-21.3,2.4c-6.4,0.4-13.2,0.5-23,0.2l1.5,0.5c-4.2-0.1-5.1-0.3-7.1-0.4c-4.9,0.7,11.9,0.1,7.4,0.9
		c-2.3-0.4-7.7-0.5-13.5-0.6c-0.7,0-1.5,0-2.2,0c-0.7,0-1.4,0-2.1-0.1c-1.4-0.1-2.9-0.2-4.3-0.3c-2.8-0.3-5.5-0.5-7.7-0.4l0.5,3.8
		c1.8-0.3,3.2-0.5,3.9-0.5c6.4-1.5-2-0.1,4.4-1.6l1.8-0.1l1.5-0.8c4.2-1,6.3-1.3,6.6-1.1c-1,0.3-2.8,0.9-3.9,1.2
		c5.5-1.1,15-4.5,16.9-5l-6,1.7c8.5-2.8,17.9-5.6,27.2-8.7c4.6-1.6,9.3-3.3,13.7-5c4.4-1.7,8.6-3.4,12.6-4.9l-1.3,0.2
		c6.1-2.3,8.6-3,11.3-3.7c2.7-0.7,5.5-1.3,12.5-3.1l-0.5,0.2c2.7-0.9,6.4-1.9,10.2-2.9c-1.7,0.6-0.1,0.3,1.5,0
		c1.6-0.3,3-0.5,0.7,0.2c3.5-1,5.6-1.8,7-2.3c1.4-0.5,2.1-0.8,2.6-1c0.5-0.2,0.9-0.4,1.7-0.8c0.7-0.3,1.8-0.7,4.2-1
		c0,0,0.6,0.1,1.1,0.1c0.6,0,1.1,0.1,1.1,0.1c1.7-0.4,2.6-0.8,4-1.6l-0.5-1.8c-1.3,0.1-3.2,0.2-6.7,0.4c5.9-0.6-4.6-0.4,2-1.1
		c-7.6-0.1-13.2,0.8-17.8,1.5c-4.5,0.8-8,1.4-11.6,1.4c-3.3,1.1-0.1,0.7,3.5,0.1c3.6-0.6,7.6-1.1,5.7-0.8c3.3-0.1-5.6,1.5-10.2,2.3
		c-4.7,0.8-8.3,0.2-20.2,2.5c1.2-0.2,1.2-0.3,2.4-0.5c-4.5,0.6-8.6,2-14.2,2.6c-2.9,1.2-7.1,1.3-7.8,2.3l10.9-2.2
		c-6.1,1.4-11.8,3.4-22,4.8c0.4-0.1,1.3-0.4,2.4-0.7c1.1-0.3,2.4-0.6,3.4-0.9c-3,0.4-5.7,1.2-8.8,1.5c0.4-0.5,3.7-1,7.7-1.8
		c4-0.8,8.8-1.7,12-2.6c-3.3,0.3-12.4,2.9-9.2,1.5c-4.6,2-11.7,2-19.7,3.9l0.5-0.5c-1.3,0.3-3.9,0.8-6.3,1.2l4.2-1.2
		c-6.5,1.4-12.7,1.3-19,2.5c13.2-2,3.1,0.1,8.7-0.4c-8.1,1.5-10.5,1.6-13.1,1.6c-1.3,0-2.7,0-4.9,0.2c-2.2,0.2-5.2,0.6-9.8,1.6
		c2.5-0.6,9.4-1.4,5.5-0.5c-1.8,0.3-3.8,0.6-5.7,0.8c-1.9,0.3-3.6,0.6-4.7,0.7c-11.7,2.7,1.9,0.1-3,1.5c-2.1,0.2-3.5,0.5-5,0.9
		c-1.6,0.4-3.2,1-5.8,1.3L8.8,70c-3.5,0.2-5.6,0.4-6.8,0.6c-1.2,0.2-1.6,0.4-2,0.6l0.4,3.5c0.4-0.2,0.8-0.3,1.9-0.5
		c0.5-0.1,1.2-0.3,2.2-0.5c0.9-0.2,2.1-0.6,3.4-0.8c0,0-1.2,0.4-2.4,0.9c-0.6,0.3-1.3,0.5-1.8,0.7c-0.5,0.2-0.8,0.3-0.8,0.3
		s0.4-0.1,1.1-0.3c0.6-0.2,1.4-0.4,2.2-0.6c0.8-0.2,1.5-0.4,2-0.6c0.6-0.1,1-0.2,1-0.2s-0.3,0.2-0.6,0.4C8.2,73.6,8,73.8,8,73.8
		c6.8-1.8,9.1-2.1,15.9-3.3c-1.6,0,0.7-1.1,6.7-2.2c4.2-0.5-2.2,0.8,6.3-0.7c-1.9,0.6-3.9,1.4-7.7,1.6c-0.3,0.2-1.8,0.7-2.2,0.9
		c4.5-0.6,11.1-2,14.2-2.5C40,67.7,38.6,68,37.9,68c0,0,3.1-0.7,6.2-1.4c3.1-0.7,6.2-1.3,6.2-1.3c2-0.1,0.5,0.3-1.1,0.6
		c2.5-0.5,4.2-0.9,8-1.6c-0.9,0.5-0.6,0.9-5.9,1.9L63.1,64c0.8,0,6.2-0.6,4.7-0.2c3.3-0.5,7.4-1.4,11.6-2.5
		c4.2-1.1,8.7-2.1,13.1-2.8c0.4-0.2,1.3-0.4,3.2-0.8c8.2-1.5,15.5-2.4,25.1-4.6l5.6-0.2c7.6-1.4-7.6,0.3,5-1.9
		c9-1.6,3.5,0.1,6.7-0.2c2.2-0.6,5.3-1.3,8.8-2.2c1.8-0.4,3.7-0.9,5.6-1.4c2.1-0.5,4.1-1.2,6.1-1.8c-1.3,0.5-2.4,1-3.7,1.4
		c-0.6,0.2-1.2,0.4-1.9,0.6C152.5,47.3,151.9,47.5,151.2,47.7z M108.1,44c1.8-0.3,5.5-0.9,6.8-0.8C112.9,43.9,111.2,43.8,108.1,44z
		 M43.7,55.8c-1.3,0.4-3.4,0.6-5.8,0.8C39.5,56.3,41.5,56,43.7,55.8z M97.9,25.5c-0.1,0-0.1,0-0.2,0.1
		C93.6,26.3,95.1,26.1,97.9,25.5z M106.3,23.8c0.8-0.3,0.7-0.3,0.4-0.3c-0.6,0.3-2.4,0.7-4.6,1.1C102.7,24.7,103.8,24.5,106.3,23.8z
		 M112.4,56.4l-1.7,0.2C114.4,55.8,113.4,56.1,112.4,56.4z"/>
	<path class="st0" d="M27.6,59.2c-0.5,0-0.7-0.1-0.8-0.1C26.1,59.3,26.1,59.4,27.6,59.2z"/>
	<path class="st0" d="M92.8,58.4l-0.3,0.1c-0.2,0.1-0.2,0.1-0.3,0.1L92.8,58.4z"/>
	<path class="st0" d="M31.4,42.9c1.7-0.1,2.7-0.2,3.4-0.1C34.8,42.7,34,42.7,31.4,42.9z"/>
	<path class="st0" d="M149.9,11.7l-5.3,1.5c2.6-0.7,3.5-0.9,4.8-1.1C149.3,12.1,148.2,12.2,149.9,11.7z"/>
	<path class="st0" d="M197,4c0.8-0.2,1.7-0.2,2.5-0.4l-0.2-0.2C195.8,3.9,193.5,4.5,197,4z"/>
	<path class="st0" d="M155.2,12c0.5,0.3,3.8-0.7,7.5-1.8c-0.2,0.1-0.4,0.1-0.7,0.2C163,9.6,159.1,10.7,155.2,12z"/>
	<path class="st0" d="M163.6,10c1.1-0.3,2.3-0.6,3.4-0.9C167.4,8.8,165.6,9.4,163.6,10z"/>
	<path class="st0" d="M116.7,21.1c1.8-0.3,1-0.8,2-0.9C120.6,19.2,107.1,23.7,116.7,21.1z"/>
	<polygon class="st0" points="158.5,12.5 157.1,12.3 155.1,13.3 	"/>
	<path class="st0" d="M129.2,19.9l6-1.4c-0.1-0.1,0.6-0.3,1.5-0.6C133,18.9,129,19.8,129.2,19.9z"/>
	<path class="st0" d="M136.7,17.9c1.9-0.5,3.7-1,4.7-1.4C140.4,16.8,138.2,17.4,136.7,17.9z"/>
	<polygon class="st0" points="150.5,14.8 148.7,15.1 144.5,16.2 	"/>
	<path class="st0" d="M64.8,34.2l-6.6,1.3c-0.6,0.3,1.2,0.1,3.6-0.4C63.4,34.7,65.9,34.1,64.8,34.2z"/>
	<path class="st0" d="M85,31.6c-1.8,0.3-1.9,0.2-3,0.2l-0.1,0.6L85,31.6z"/>
	<path class="st0" d="M65.8,35.5c-0.6,0.3-9.5,2.2-1.1,0.7C65.3,35.9,71.9,34.5,65.8,35.5z"/>
	<polygon class="st0" points="41.8,43.4 40.1,43.6 40.5,44.6 	"/>
	<path class="st0" d="M129.9,30.6c-7.9,0.4-1.8,0.8-9,1c-1.8,0.4,5.9-0.2,4,0.1C129.6,31.1,132.2,31.1,129.9,30.6z"/>
	<path class="st0" d="M124.9,31.7c-0.8,0.1-1.6,0.2-2.4,0.3C123.8,31.9,124.5,31.8,124.9,31.7z"/>
	<path class="st0" d="M147.5,82.8c0,0,1.2,0.1,2.5,0.2c1.2,0.1,2.4,0.3,2.4,0.3s-0.8-0.1-1.6-0.3c-0.8-0.1-1.6-0.2-1.6-0.2
		L147.5,82.8z"/>
	<path class="st0" d="M157,82.9l1.1,0.9c0,0,0.8,0,1.6,0c0.8,0,1.7-0.1,1.7-0.1C160,83.6,157.7,83.2,157,82.9z"/>
	<path class="st0" d="M93.8,44.1l-0.4,0.2c0.8,0.1,2,0,4.4-0.2L93.8,44.1z"/>
	<polygon class="st0" points="162.7,37.5 161.5,37.6 163.8,38 	"/>
	<path class="st0" d="M133.7,52.2c2.4-0.3,5.1-0.9,7.5-1.3C136.1,51.9,133,51.6,133.7,52.2z"/>
</g>
</svg>
