<svg width="628" height="628" viewBox="0 0 628 628" fill="none" xmlns="http://www.w3.org/2000/svg">
<g opacity="0.7" clip-path="url(#clip0_13_2080)">
<path d="M249.768 336.139C247.58 334.981 246.005 333.423 245.236 331.529C243.835 328.082 245.421 324.094 249.587 320.589L294.75 282.584C300.935 277.379 311.596 274.338 320.675 275.187C325.829 275.672 329.854 277.388 332.007 280.029L358.741 312.781C360.571 315.02 360.911 317.654 359.732 320.397C356.964 326.827 346.536 332.287 335.477 333.095L263.58 338.349C257.996 338.755 253.149 337.929 249.768 336.139ZM327.953 278.588C326 277.554 323.48 276.866 320.541 276.592C311.812 275.776 301.58 278.681 295.659 283.664L250.497 321.669C246.775 324.8 245.374 328.114 246.543 330.997C248.264 335.228 254.908 337.562 263.471 336.936L335.368 331.682C347.412 330.802 356.24 324.921 358.433 319.835C359.407 317.577 359.139 315.502 357.649 313.673L330.915 280.922C330.173 280.02 329.176 279.235 327.953 278.588Z" fill="#DDDDDD"/>
<path d="M245.427 341.412C243.367 340.321 241.831 338.867 240.966 337.086C239.241 333.546 240.525 329.424 244.577 325.491L289.345 281.966C299.693 271.904 321.897 268.979 329.609 276.659L362.731 309.65C365.011 311.923 365.679 314.729 364.655 317.765C362.313 324.731 351.607 331.194 339.754 332.795L261.87 343.327C255.186 344.234 249.354 343.49 245.427 341.412ZM326.099 275.847C317.359 271.221 299.064 274.482 290.329 282.976L245.561 326.5C241.98 329.979 240.802 333.516 242.235 336.465C244.444 341.007 252.254 343.202 261.669 341.929L339.554 331.397C352.494 329.646 361.445 322.837 363.305 317.318C364.155 314.79 363.623 312.549 361.721 310.654L328.599 277.664C327.905 276.96 327.06 276.355 326.099 275.847Z" fill="#DDDDDD"/>
<path d="M241.259 347.232C239.347 346.22 237.867 344.896 236.943 343.288C234.891 339.712 235.868 335.365 239.69 331.042L283.362 281.678C293.443 270.283 317.276 265.64 326.591 273.25L366.712 306.057C369.513 308.349 370.547 311.338 369.705 314.706C367.8 322.314 357.15 329.663 344.383 332.188L260.587 348.747C252.826 350.281 245.818 349.645 241.259 347.232ZM323.775 273.083C314.008 267.913 293.263 272.619 284.42 282.617L240.748 331.98C237.359 335.812 236.443 339.577 238.17 342.587C240.518 346.677 248.273 349.742 260.312 347.362L344.101 330.804C357.847 328.088 366.84 320.308 368.325 314.365C369.025 311.563 368.155 309.069 365.809 307.15L325.688 274.342C325.117 273.872 324.472 273.452 323.775 273.083Z" fill="#DDDDDD"/>
<path d="M237.45 353.784C235.677 352.846 234.257 351.638 233.27 350.169C230.856 346.57 231.477 341.992 235.02 337.285L276.794 281.78C286.424 268.984 311.843 262.397 322.892 269.837L370.637 301.967C374.034 304.254 375.493 307.442 374.858 311.183C373.478 319.299 362.755 327.728 349.359 331.223L259.839 354.597C250.875 356.934 242.657 356.54 237.45 353.784ZM320.937 270.315C310.018 264.535 286.677 271.009 277.923 282.634L236.148 338.14C232.996 342.329 232.391 346.321 234.443 349.382C237.39 353.779 246.274 356.674 259.476 353.229L348.994 329.858C363.435 326.086 372.376 317.302 373.457 310.951C373.994 307.794 372.743 305.094 369.841 303.143L322.103 271.011C321.735 270.763 321.344 270.53 320.937 270.315Z" fill="#DDDDDD"/>
<path d="M234.051 361C232.434 360.144 231.087 359.058 230.066 357.751C227.246 354.136 227.463 349.339 230.669 344.244L269.639 282.347C278.613 268.091 305.52 259.266 318.461 266.467L374.449 297.355C378.528 299.604 380.477 302.999 380.079 307.164C379.263 315.773 368.58 325.316 354.672 329.859L259.715 360.867C249.525 364.199 239.981 364.138 234.051 361ZM317.559 267.586C305.322 261.11 279.265 269.718 270.838 283.098L231.869 344.994C229.001 349.549 228.758 353.77 231.185 356.877C235.509 362.423 247.063 363.511 259.283 359.519L354.24 328.511C369.419 323.554 378.022 313.95 378.676 307.026C379.012 303.463 377.316 300.543 373.77 298.588L317.783 267.7C317.705 267.669 317.633 267.626 317.559 267.586Z" fill="#DDDDDD"/>
<path d="M231.166 368.892C229.726 368.129 228.481 367.187 227.462 366.065C224.189 362.452 223.934 357.436 226.75 351.946L261.891 283.437C269.978 267.671 298.28 256.51 313.224 263.191L378.064 292.193C382.848 294.33 385.429 298.029 385.331 302.611C385.126 311.842 374.842 322.3 360.32 328.041L260.337 367.552C248.894 372.071 237.913 372.462 231.166 368.892ZM378.429 293.946C378.125 293.785 377.811 293.634 377.484 293.488L312.644 264.486C298.55 258.182 270.795 269.175 263.15 284.087L228.009 352.596C225.444 357.6 225.616 361.93 228.51 365.117C233.814 370.966 246.687 371.428 259.815 366.236L359.796 326.729C375.418 320.556 383.754 309.908 383.913 302.58C383.997 298.858 382.105 295.892 378.429 293.946Z" fill="#DDDDDD"/>
<path d="M228.785 377.361C227.599 376.733 226.539 375.988 225.622 375.119C221.828 371.529 221.037 366.304 223.402 360.406L253.567 285.13C260.502 267.819 290.036 254.002 307.126 260.074L381.406 286.455C387.056 288.463 390.31 292.381 390.555 297.485C391.024 307.189 381.033 318.801 366.257 325.715L261.81 374.615C249.29 380.475 236.447 381.416 228.785 377.361ZM381.166 287.126L380.928 287.794L306.648 261.413C290.477 255.669 261.447 269.27 254.876 285.665L224.71 360.941C222.546 366.341 223.194 370.892 226.593 374.099C233.028 380.184 247.262 379.869 261.208 373.34L365.656 324.441C379.923 317.761 389.583 306.705 389.141 297.556C388.922 292.996 386.078 289.616 380.93 287.789L381.166 287.126Z" fill="#DDDDDD"/>
<path d="M227.259 386.586C226.344 386.102 225.493 385.546 224.718 384.926C220.318 381.389 218.909 375.963 220.748 369.639L244.673 287.514C250.171 268.639 280.734 251.915 300.096 257.188L384.373 280.134C391.002 281.941 395.021 286.07 395.693 291.768C396.89 301.931 387.336 314.714 372.461 322.847L264.26 382.026C250.582 389.506 235.967 391.195 227.259 386.586ZM384.187 280.813L383.998 281.497L299.722 258.55C281.35 253.549 251.242 270.01 246.026 287.905L222.101 370.03C220.407 375.852 221.613 380.619 225.597 383.821C233.331 390.031 248.948 388.783 263.578 380.783L371.78 321.604C386.162 313.735 395.419 301.535 394.283 291.93C393.673 286.77 390.114 283.163 383.994 281.494L384.187 280.813Z" fill="#DDDDDD"/>
<path d="M226.599 396.449C226.028 396.147 225.482 395.821 224.96 395.466C219.854 392.023 217.724 386.399 218.963 379.632L235.25 290.648C236.914 281.569 244.147 272.081 255.103 264.62C267.254 256.343 281.427 252.502 292.085 254.597L386.867 273.208C394.586 274.724 399.495 279.056 400.685 285.412C402.706 296.184 393.954 309.832 378.899 319.368L267.826 389.739C253.079 399.081 236.513 401.696 226.599 396.449ZM392.362 276.562C390.696 275.681 388.767 275.017 386.592 274.591L291.81 255.981C281.507 253.958 267.746 257.716 255.899 265.787C245.409 272.932 238.207 282.322 236.639 290.901L220.353 379.884C219.204 386.153 221.068 391.137 225.749 394.292C234.952 400.497 251.938 398.13 267.073 388.542L378.14 318.162C392.48 309.073 401.18 295.712 399.294 285.658C398.539 281.675 396.137 278.56 392.362 276.562Z" fill="#DDDDDD"/>
<path d="M226.928 406.924C226.809 406.861 226.69 406.798 226.569 406.729C220.632 403.435 217.664 397.63 218.205 390.383L225.327 294.626C226.024 285.24 232.395 274.97 242.809 266.45C255.3 256.23 270.706 250.842 283.026 252.388L388.762 265.658C397.683 266.776 403.604 271.292 405.436 278.371C408.336 289.576 400.323 304.378 385.5 315.213L272.643 397.7C256.965 409.159 238.25 412.917 226.928 406.924ZM388.673 266.362L388.586 267.062L282.851 253.792C270.906 252.292 255.902 257.563 243.706 267.545C233.593 275.824 227.409 285.731 226.737 294.732L219.615 390.488C219.11 397.25 221.754 402.437 227.256 405.491C238.098 411.486 256.391 407.82 271.805 396.552L384.661 314.07C399.019 303.577 406.816 289.371 404.061 278.725C402.384 272.248 396.886 268.104 388.582 267.06L388.673 266.362Z" fill="#DDDDDD"/>
<path d="M228.474 418.007C222.396 414.791 218.928 409.115 218.666 401.869L214.976 299.544C214.624 289.838 220.043 278.775 229.844 269.191C242.367 256.944 258.858 249.845 272.885 250.666L389.939 257.508C400.177 258.105 407.253 262.769 409.871 270.637C413.789 282.429 406.859 298.014 392.22 310.349L278.856 405.831C263.026 419.164 242.861 424.44 229.825 418.66C229.361 418.456 228.909 418.238 228.474 418.007ZM400.438 261.631C397.516 260.085 393.955 259.161 389.852 258.923L272.798 252.08C259.157 251.285 243.078 258.23 230.83 270.206C221.314 279.511 216.051 290.189 216.388 299.498L220.084 401.821C220.345 409.119 223.913 414.485 230.397 417.371C242.961 422.943 262.513 417.753 277.944 404.755L391.302 309.274C405.282 297.5 412.2 282.156 408.523 271.09C407.137 266.91 404.365 263.71 400.438 261.631Z" fill="#DDDDDD"/>
<path d="M231.374 429.629C225.395 426.464 221.602 421.047 220.549 414.044L204.255 305.479C202.749 295.431 207.122 283.546 216.263 272.866C228.315 258.789 246.112 249.629 261.6 249.536L390.245 248.761C401.739 248.693 410.347 253.58 413.864 262.17C418.855 274.347 413.004 291.049 398.957 304.716L286.61 414.059C271.099 429.152 249.877 436.196 235.002 431.181C233.718 430.748 232.507 430.228 231.374 429.629ZM390.254 249.47L390.258 250.176L261.613 250.951C246.516 251.04 229.136 260.007 217.34 273.788C208.464 284.157 204.209 295.631 205.651 305.272L221.945 413.837C223.131 421.73 227.803 427.266 235.453 429.844C249.844 434.692 270.476 427.788 285.622 413.048L397.973 303.707C411.602 290.443 417.328 274.353 412.559 262.709C409.223 254.561 401.299 250.109 390.256 250.18L390.254 249.47Z" fill="#DDDDDD"/>
<path d="M235.755 441.708C229.916 438.617 225.855 433.515 224.061 426.861L193.265 312.527C190.457 302.11 193.691 289.339 202.14 277.495C213.595 261.431 232.053 250.288 249.161 249.109L389.554 239.438C402.534 238.544 412.66 243.462 417.328 252.935C423.503 265.465 418.925 283.256 405.661 298.263L296.069 422.27C281.208 439.084 259.152 448.092 242.432 444.17C240.005 443.605 237.774 442.776 235.755 441.708ZM389.648 240.849L249.255 250.52C232.55 251.67 214.509 262.582 203.286 278.317C195.088 289.816 191.93 302.155 194.625 312.159L225.426 426.496C227.696 434.921 233.847 440.708 242.748 442.798C258.983 446.605 280.474 437.781 295.002 421.338L404.594 297.33C417.472 282.755 421.972 265.579 416.055 253.564C411.655 244.627 402.029 239.995 389.648 240.849Z" fill="#DDDDDD"/>
<path d="M241.779 454.157C236.132 451.169 231.885 446.43 229.432 440.247L182.099 320.769C177.814 309.949 179.776 296.216 187.493 283.096C198.056 265.132 216.907 251.948 235.516 249.51L387.67 229.569C402.215 227.664 414.03 232.526 420.09 242.903C427.695 255.938 424.671 274.346 412.197 290.937L307.378 430.351C293.286 449.096 271.199 459.989 252.422 457.463C248.488 456.936 244.916 455.813 241.779 454.157ZM408.896 234.058C403.151 231.017 395.951 229.912 387.858 230.971L235.704 250.912C217.511 253.297 199.066 266.212 188.714 283.816C181.22 296.555 179.291 309.838 183.413 320.251L230.746 439.729C234.362 448.856 242.127 454.662 252.612 456.072C270.898 458.532 292.455 447.857 306.247 429.511L411.065 290.097C423.19 273.967 426.18 256.16 418.868 243.623C416.451 239.475 413.053 236.258 408.896 234.058Z" fill="#DDDDDD"/>
<path d="M249.604 466.866C244.22 464.017 239.889 459.703 236.9 454.096L170.892 330.292C164.892 319.038 165.426 304.243 172.359 289.705C181.769 269.97 200.738 254.726 220.676 250.87L384.443 219.199C400.589 216.077 414.276 220.757 422.001 232.037C431.106 245.335 429.747 264.746 418.46 282.695L320.697 438.168C307.951 458.439 285.694 471.569 265.309 470.84C259.444 470.635 254.15 469.273 249.604 466.866ZM384.579 219.895L384.71 220.59L220.945 252.257C201.435 256.03 182.864 270.969 173.634 290.312C166.896 304.444 166.352 318.77 172.137 329.627L238.138 453.433C243.401 463.31 253.069 468.995 265.354 469.435C285.249 470.147 307.008 457.283 319.493 437.426L417.256 281.953C428.238 264.489 429.609 245.672 420.827 232.845C413.44 222.048 400.274 217.586 384.708 220.594L384.579 219.895Z" fill="#DDDDDD"/>
<path d="M259.387 479.725C254.356 477.062 250.061 473.228 246.7 468.313L159.79 341.184C151.79 329.48 150.685 313.514 156.758 297.376C164.789 276.028 183.587 258.745 204.639 253.34L379.68 208.398C397.425 203.843 413.159 208.189 422.856 220.318C433.642 233.813 434.201 254.196 424.31 273.509L336.175 445.577C324.919 467.551 303.411 482.648 281.378 484.041C273.156 484.559 265.695 483.063 259.387 479.725ZM379.859 209.082L380.036 209.769L204.992 254.708C184.372 260.001 165.958 276.946 158.082 297.872C152.173 313.572 153.222 329.067 160.959 340.385L247.871 467.51C255.154 478.156 267.019 483.528 281.292 482.625C302.837 481.262 323.891 466.465 334.924 444.925L423.058 272.857C432.694 254.045 432.197 234.251 421.761 221.194C412.424 209.518 397.219 205.352 380.041 209.761L379.859 209.082Z" fill="#DDDDDD"/>
<path d="M271.159 492.422C266.612 490.015 262.539 486.772 259.108 482.744L148.966 353.526C138.619 341.384 135.602 324.127 140.701 306.176C147.265 283.054 165.168 264.235 187.42 257.07L373.19 197.236C392.188 191.117 410.599 195.03 422.427 207.71C435.322 221.527 438.002 242.319 429.599 263.328L353.971 452.38C344.699 475.556 323.863 492.969 300.882 496.738C290.009 498.522 279.735 496.961 271.159 492.422ZM373.407 197.908L373.624 198.579L187.854 258.413C166.046 265.436 148.501 283.886 142.063 306.561C137.099 324.048 140.005 340.83 150.04 352.608L260.182 481.826C269.763 493.064 284.511 497.992 300.654 495.341C323.154 491.648 343.567 474.578 352.66 451.849L428.288 262.797C436.484 242.309 433.908 222.076 421.395 208.666C409.946 196.402 392.087 192.629 373.622 198.573L373.407 197.908Z" fill="#DDDDDD"/>
<path d="M285.146 505.02C281.264 502.966 277.646 500.362 274.374 497.234L138.615 367.385C125.505 354.846 120.259 336.184 124.215 316.183C129.041 291.81 146.227 271.131 169.07 262.214L364.767 185.807C385.166 177.845 405.975 180.979 420.428 194.196C435.548 208.019 440.681 229.685 434.155 252.139L374.217 458.394C367.075 482.965 347.827 502.211 323.98 508.617C310.055 512.357 296.468 511.013 285.146 505.02ZM365.021 186.467L365.278 187.123L169.585 263.532C147.191 272.277 130.336 292.558 125.602 316.46C121.74 335.975 126.838 354.165 139.592 366.363L275.351 496.212C287.805 508.124 305.397 512.146 323.618 507.248C346.987 500.968 365.857 482.1 372.862 457.997L432.8 251.742C439.172 229.816 434.189 208.692 419.477 195.238C405.427 182.391 385.168 179.359 365.282 187.125L365.021 186.467Z" fill="#DDDDDD"/>
<path d="M301.376 517.183C298.385 515.599 295.512 513.732 292.774 511.579L128.965 382.828C112.616 369.978 104.734 349.815 107.339 327.513C110.306 302.097 126.52 279.66 149.652 268.946L354.203 174.233C375.809 164.23 399.104 166.3 416.52 179.783C434.211 193.475 442.162 215.959 437.794 239.924L397.054 463.394C392.412 488.848 374.688 510.287 350.791 519.34C333.624 525.84 316.116 524.984 301.376 517.183ZM407.695 175.764C391.917 167.413 372.768 167.196 354.795 175.517L150.244 270.231C127.557 280.739 111.653 302.748 108.744 327.678C106.197 349.481 113.885 369.178 129.839 381.714L293.648 510.465C309.472 522.907 330.114 525.653 350.286 518.011C373.718 509.133 391.109 488.105 395.658 463.134L436.398 239.663C440.671 216.226 432.913 194.259 415.649 180.893C413.121 178.94 410.457 177.225 407.695 175.764Z" fill="#DDDDDD"/>
<path d="M319.543 528.484C317.857 527.591 316.201 526.621 314.58 525.574L120.271 399.911C100.44 387.088 89.1689 364.801 90.1245 340.297C91.1651 313.647 105.791 290.152 129.251 277.448L341.279 162.654C363.824 150.448 389.624 151.139 410.296 164.507C430.968 177.875 442.183 201.12 440.302 226.689L422.584 467.146C420.624 493.757 405.196 516.732 381.321 528.612C361.155 538.636 338.471 538.497 319.543 528.484ZM404.601 162.8C385.294 152.582 362.276 152.886 341.952 163.892L129.922 278.691C106.906 291.152 92.5521 314.202 91.5356 340.35C90.6 364.35 101.628 386.173 121.035 398.724L315.345 524.387C334.75 536.932 359.176 538.046 380.684 527.345C404.109 515.689 419.245 493.147 421.168 467.043L438.886 226.586C440.732 201.539 429.755 178.777 409.525 165.695C407.915 164.649 406.271 163.684 404.601 162.8Z" fill="#DDDDDD"/>
<path d="M340.058 538.943L112.808 418.666C88.6665 405.888 73.6516 381.961 72.6447 354.663C71.6379 327.366 84.8519 302.399 107.991 287.881L325.777 151.218C348.912 136.698 377.145 135.661 401.287 148.439C425.428 161.216 440.443 185.143 441.446 212.439L450.909 469.379C451.916 496.676 438.702 521.643 415.563 536.161C392.429 550.681 364.2 551.72 340.058 538.943ZM326.53 152.416L108.742 289.082C86.035 303.33 73.0707 327.825 74.0582 354.613C75.0457 381.401 89.7782 404.88 113.468 417.418L340.714 537.693C364.405 550.232 392.103 549.211 414.81 534.964C437.517 520.716 450.483 496.217 449.494 469.433L440.037 212.491C439.049 185.703 424.317 162.225 400.626 149.686C376.936 137.147 349.237 138.168 326.53 152.416Z" fill="#DDDDDD"/>
</g>
<defs>
<clipPath id="clip0_13_2080">
<rect width="464.295" height="464.295" fill="white" transform="translate(217.193) rotate(27.891)"/>
</clipPath>
</defs>
</svg>
