<svg width="51" height="50" viewBox="0 0 51 50" fill="none" xmlns="http://www.w3.org/2000/svg">
<g clip-path="url(#clip0_33_432)">
<path d="M41.64 48.68C31.08 48.68 20.52 48.68 9.97003 48.68C9.86003 48.64 9.75003 48.64 9.64003 48.68C9.51003 48.68 9.39003 48.68 9.26003 48.68C8.74003 48.61 8.21003 48.59 7.70003 48.43C4.35003 47.32 2.29003 45.06 1.58003 41.59C1.51003 41.24 1.51003 40.88 1.51003 40.53C1.51003 30.19 1.50003 19.85 1.51003 9.50001C1.51003 7.41001 2.33003 5.63001 3.72003 4.10001C4.85003 2.85001 6.24003 2.01001 7.87003 1.56001C8.46003 1.40001 9.06003 1.33001 9.67003 1.33001C20.42 1.33001 31.18 1.32001 41.93 1.33001C44.02 1.33001 45.8 2.15001 47.33 3.53001C48.59 4.67001 49.42 6.06001 49.88 7.70001C50.01 8.17001 50.02 8.65001 50.08 9.12001C50.08 9.21001 50.08 9.31001 50.08 9.40001C50.04 9.53001 50.04 9.65001 50.08 9.78001C50.08 19.96 50.08 30.14 50.08 40.31C50.04 40.42 50.04 40.53 50.08 40.64C50.08 40.73 50.08 40.83 50.08 40.92C50.03 41.61 49.9 42.28 49.67 42.93C49.2 44.23 48.48 45.36 47.48 46.32C46.3 47.46 44.91 48.18 43.31 48.54C42.96 48.62 42.61 48.6 42.26 48.66C42.15 48.66 42.04 48.66 41.93 48.66C41.83 48.65 41.74 48.65 41.64 48.68Z" fill="#331212"/>
<path d="M50.08 9.14006C49.97 8.91006 49.99 8.66006 49.95 8.41006C49.38 5.06006 46.65 2.23006 43.32 1.55006C42.7 1.42006 42.07 1.36006 41.44 1.36006C31.02 1.36006 20.59 1.36006 10.17 1.36006C6.19003 1.36006 2.83003 3.95006 1.80003 7.80006C1.62003 8.48006 1.53003 9.18006 1.53003 9.88006C1.53003 19.9701 1.52003 30.0601 1.53003 40.1501C1.53003 44.1701 4.35003 47.6201 8.30003 48.4901C8.62003 48.5601 8.95003 48.5501 9.26003 48.6801C6.67003 48.6801 4.08003 48.6801 1.48003 48.6801C1.48003 46.7501 1.48003 44.8301 1.48003 42.9001C1.48003 29.1101 1.48003 15.3301 1.47003 1.54006C1.47003 1.35006 1.51003 1.31006 1.70003 1.31006C17.75 1.32006 33.81 1.32006 49.86 1.31006C50.04 1.31006 50.08 1.36006 50.08 1.53006C50.08 4.07006 50.08 6.60006 50.08 9.14006Z" fill="white"/>
<path d="M42.26 48.68C42.61 48.62 42.96 48.56 43.31 48.49C46.64 47.82 49.38 44.98 49.95 41.63C49.99 41.4 49.97 41.16 50.08 40.95C50.08 43.46 50.08 45.98 50.08 48.49C50.08 48.65 50.05 48.68 49.89 48.68C47.35 48.68 44.8 48.68 42.26 48.68Z" fill="white"/>
<path d="M50.08 9.80004C50.01 9.67004 50 9.55004 50.08 9.42004C50.08 9.55004 50.08 9.68004 50.08 9.80004Z" fill="#492D2B"/>
<path d="M50.08 40.67C50 40.56 50.01 40.45 50.08 40.34C50.08 40.45 50.08 40.56 50.08 40.67Z" fill="#5A3F3C"/>
<path d="M9.64001 48.68C9.75001 48.6 9.86001 48.61 9.97001 48.68C9.86001 48.68 9.75001 48.68 9.64001 48.68Z" fill="#482B29"/>
<path d="M41.64 48.6799C41.73 48.6099 41.83 48.6099 41.92 48.6799C41.83 48.6799 41.74 48.6799 41.64 48.6799Z" fill="#482B29"/>
<path d="M29.07 34.7C28.4 34.7 27.73 34.69 27.06 34.71C26.81 34.72 26.69 34.61 26.61 34.39C26.1 32.9 25.59 31.41 25.08 29.92C25.02 29.73 24.93 29.67 24.73 29.67C22.38 29.68 20.04 29.68 17.69 29.67C17.52 29.67 17.45 29.71 17.39 29.88C16.91 31.37 16.43 32.86 15.94 34.35C15.84 34.66 15.78 34.7 15.45 34.7C14.27 34.7 13.1 34.7 11.92 34.7C11.46 34.7 11.41 34.63 11.57 34.18C12.16 32.48 12.75 30.77 13.34 29.07C14.88 24.64 16.42 20.22 17.96 15.8C18.2 15.11 18.36 14.41 18.35 13.67C18.35 13.48 18.42 13.4 18.61 13.4C20.31 13.4 22.01 13.4 23.71 13.4C23.91 13.4 23.99 13.49 24.06 13.67C25.43 17.54 26.8 21.4 28.17 25.27C29.22 28.23 30.27 31.19 31.32 34.15C31.34 34.19 31.35 34.24 31.37 34.28C31.49 34.63 31.44 34.69 31.09 34.69C30.42 34.7 29.75 34.7 29.07 34.7Z" fill="#F7921E"/>
<path d="M38.18 26.73C38.18 29.27 38.18 31.82 38.18 34.36C38.18 34.78 38.16 34.8 37.74 34.8C36.52 34.8 35.31 34.8 34.09 34.8C33.7 34.8 33.66 34.75 33.66 34.36C33.66 29.25 33.66 24.14 33.66 19.03C33.66 18.66 33.7 18.62 34.07 18.62C35.3 18.62 36.53 18.62 37.77 18.62C38.14 18.62 38.19 18.67 38.19 19.05C38.18 21.61 38.18 24.17 38.18 26.73Z" fill="#F7921E"/>
<path d="M35.95 16.93C34.49 16.98 33.38 15.86 33.43 14.28C33.47 12.9 34.57 11.83 35.99 11.85C37.54 11.87 38.48 12.88 38.47 14.51C38.45 15.74 37.49 16.99 35.95 16.93Z" fill="#F7921E"/>
<path d="M21.19 17.16C21.39 17.86 21.58 18.57 21.8 19.27C22.43 21.28 23.07 23.29 23.7 25.3C23.79 25.57 23.78 25.57 23.49 25.57C21.96 25.57 20.43 25.57 18.89 25.57C18.68 25.57 18.65 25.54 18.71 25.33C19.5 22.85 20.31 20.37 20.98 17.85C21.04 17.62 21.09 17.39 21.14 17.16C21.16 17.17 21.18 17.17 21.19 17.16Z" fill="#331212"/>
</g>
<defs>
<clipPath id="clip0_33_432">
<rect width="50" height="50" fill="white" transform="translate(0.780029)"/>
</clipPath>
</defs>
</svg>
