<svg width="75" height="75" viewBox="0 0 75 75" fill="none" xmlns="http://www.w3.org/2000/svg">
<g clip-path="url(#clip0_124_380)">
<rect width="75" height="75" fill="white"/>
<g clip-path="url(#clip1_124_380)">
<path d="M76.2417 75.1452C76.2871 76.0155 75.6511 75.9697 75.0909 75.985C74.2277 76.0002 73.3495 75.985 72.4864 75.985C48.8038 75.985 25.106 75.985 1.42338 75.9697C-0.787405 75.9697 -0.787405 75.9697 -0.787405 73.7557C-0.787405 49.4021 -0.802547 25.0485 -0.787405 0.694863C-0.787405 -0.00749839 -0.984255 -0.755666 -0.575412 -1.42749C0.121136 -0.694591 -0.136284 0.236801 -0.121142 1.07658C-0.106 24.1782 -0.106 47.295 -0.106 70.3966C-0.106 71.5265 -0.211996 72.6717 0.0454238 73.7863C0.0757084 75.0078 0.969107 74.962 1.80194 74.962C6.55663 74.9467 11.3113 74.9772 16.066 74.962C25.8783 74.9467 35.6905 74.9772 45.5179 74.962C54.0581 74.9467 62.5984 74.9314 71.1236 74.9467C72.6529 74.9467 74.1672 75.2673 75.6965 74.962C75.8783 74.9772 76.0751 75.023 76.2417 75.1452Z" fill="#F4DE1D"/>
<path d="M0.0453853 -1.70239C0.0453853 -1.58024 0.0605276 -1.45809 0.0605276 -1.35121C0.741933 -0.496163 0.545082 0.511573 0.545082 1.4735C0.560225 23.3536 0.545082 45.2184 0.560225 67.0985C0.560225 68.6406 0.499655 70.1981 0.651079 71.7402C0.741933 72.6258 0.484513 73.374 -0.257462 73.8931C-0.802586 73.3281 -0.545166 72.6105 -0.545166 71.9845C-0.545166 48.1805 -0.545166 24.3919 -0.545166 0.587917C-0.545166 -0.0839075 -0.560308 -0.755732 -0.575451 -1.42756C-0.484597 -1.7482 -0.242319 -1.76347 0.0453853 -1.70239Z" fill="#EEDE12"/>
<path d="M75.6057 -1.35134C75.6057 -1.45822 75.6057 -1.58037 75.6057 -1.68726C76.7414 -1.61091 76.3174 -0.725326 76.3174 -0.160383C76.3477 5.26002 76.3477 10.6651 76.3477 16.0855C76.3477 35.37 76.3477 54.6544 76.3477 73.9235C76.3477 74.3358 76.2871 74.748 76.2568 75.145C76.1508 75.145 76.0297 75.145 75.9237 75.145C75.1211 74.7175 75.1514 73.9693 75.2877 73.2669C75.6057 71.5721 75.5754 69.9078 75.2574 68.213C74.9394 66.5182 75.5451 64.8386 75.4846 63.1438C75.318 58.9907 75.4997 54.8223 75.424 50.6692C75.3786 47.9972 75.4997 45.3404 75.4543 42.6837C75.3937 38.8818 75.4391 35.0951 75.4391 31.2932C75.4391 28.5754 75.212 25.8728 75.4694 23.155C75.6057 21.6281 75.5451 20.086 75.2726 18.5438C75.0757 17.4445 75.1969 16.2993 75.3634 15.1694C75.636 13.2303 75.636 11.2606 75.3483 9.3215C75.1666 8.13054 75.0909 6.93958 75.2877 5.77915C75.53 4.32862 75.5451 2.93917 75.2877 1.48864C75.106 0.541979 74.9394 -0.481026 75.6057 -1.35134Z" fill="#EBDC16"/>
<path d="M75.6057 -1.35119C75.5906 1.50407 76.1054 4.34405 75.6511 7.24511C75.3786 9.00101 76.1205 10.8027 75.9085 12.6044C75.5148 15.933 76.0297 19.2616 75.848 22.5749C75.6663 25.873 76.0297 29.1405 75.8631 32.3927C75.6965 35.7366 76.0448 39.0651 75.848 42.3632C75.636 45.7528 76.0903 49.1425 75.848 52.4864C75.5906 55.8913 76.1054 59.2504 75.8631 62.6095C75.6511 65.648 75.7571 68.6407 75.9237 71.6639C75.9843 72.8243 75.1666 73.9695 75.9085 75.1299C75.2726 75.6185 74.6063 75.8017 73.7886 75.5269C73.2738 75.3589 72.6832 75.4353 72.123 75.4353C48.7583 75.4353 25.3937 75.4353 2.02908 75.4353C1.51424 75.4353 0.999396 75.4811 0.499699 75.3895C-0.378556 75.2368 -0.7874 74.7787 -0.242275 73.8779C0.43913 72.7174 0.0605714 71.4501 0.0605714 70.2286C0.0605714 46.3636 0.0605714 22.4986 0.0605714 -1.36646C24.7274 -1.36646 49.3943 -1.36646 74.0612 -1.36646C74.47 -1.06108 74.8789 -0.847318 75.2877 -1.36646C75.3937 -1.35119 75.4997 -1.35119 75.6057 -1.35119Z" fill="#F5DD09"/>
<path d="M51.6656 68.5949C49.2429 67.3123 47.1381 65.6786 45.6693 63.2814C45.2301 62.5637 45.215 62.182 46.0327 61.7545C47.3804 61.0521 48.7129 60.2582 50 59.4337C50.7571 58.9451 51.1811 59.0061 51.7262 59.7848C53.0284 61.6324 54.6487 63.0371 57.0714 63.0982C57.8286 63.2814 58.6008 63.3119 59.3579 63.0829C59.5851 62.7622 59.9485 62.7164 60.2816 62.579C62.2804 61.7392 62.7498 60.9758 62.553 58.7771C62.4924 58.655 62.447 58.5175 62.4016 58.3954C62.0079 57.6625 61.4779 57.067 60.8873 56.5021C59.5699 55.5249 58.0406 55.0057 56.5718 54.3644C54.4973 53.433 52.4833 52.3948 50.6511 51.0206C50.3937 50.8068 49.894 50.8526 49.9091 50.3335C47.1986 47.0049 46.7595 43.2641 47.986 39.2331C49.1974 36.0572 51.5445 34.3013 54.8001 33.6753C57.238 33.3852 59.6759 33.2325 62.0836 33.996C64.4761 34.7594 66.2931 36.2405 67.6711 38.3475C68.1405 39.0652 68.1102 39.4927 67.338 39.9355C66.1417 40.6226 64.9757 41.3707 63.8552 42.18C62.9921 42.806 62.4773 42.9129 61.8261 41.8593C60.857 40.2714 59.2519 39.6912 57.45 39.905C56.1023 40.0729 55.0424 40.6989 54.6487 42.1495C54.2398 43.6305 54.7698 44.7909 55.8903 45.6918C57.0563 46.6232 58.4797 47.1271 59.8274 47.7531C61.4022 48.486 62.977 49.2189 64.5215 50.0128C72.1532 53.8758 71.9715 63.7852 66.4294 67.7093C64.6275 69.1446 62.4924 69.4347 60.2968 69.8011C57.2229 70.2745 54.4367 69.6637 51.6656 68.5949Z" fill="#020202"/>
<path d="M33.8583 59.0366C33.8886 56.2577 33.9491 53.4788 33.9643 50.6999C33.9794 45.5543 33.9946 40.3935 33.9491 35.248C33.934 34.1944 34.2671 33.7669 35.3422 33.828C36.917 33.9043 38.507 33.8585 40.0969 33.828C40.9146 33.8127 41.3083 34.0417 41.2932 34.9578C41.2477 43.3556 41.2326 51.7534 41.2326 60.1512C41.2326 61.0368 40.7178 61.8308 40.8843 62.7317C40.6875 64.5486 40.0212 66.0908 38.4313 67.0985C38.1284 67.7856 37.5984 68.1826 36.8716 68.32C36.0539 69.2056 34.888 69.3736 33.8431 69.6026C31.2689 70.1675 28.6796 70.2133 26.1508 69.2514C23.5918 68.1826 21.4567 66.5947 20.0485 64.1211C19.6245 63.3882 19.6548 62.9912 20.4422 62.5484C21.7898 61.8155 23.1072 61.0216 24.364 60.1512C25.1969 59.571 25.5906 59.7085 26.1357 60.5788C27.8316 63.3119 29.7396 63.9226 32.2835 62.7317C33.2374 61.6476 33.2223 60.2123 33.8583 59.0366Z" fill="#020302"/>
<path d="M74.682 72.9616C73.5312 73.1754 73.6523 73.8625 74.1066 74.7328C72.9709 75.0687 71.8504 74.6412 70.8359 74.4427C68.2162 73.9388 65.642 74.7175 63.083 74.458C59.2974 74.061 55.527 74.855 51.7262 74.3206C50.1514 74.0915 48.3949 74.5496 46.7141 74.5191C41.5203 74.3969 36.2962 74.9313 31.1326 74.6107C27.0291 74.3511 22.9255 74.9771 18.8371 74.2595C16.9746 73.9388 15.0969 74.8092 13.2041 74.5191C9.64567 73.9694 6.08722 74.5496 2.54391 74.5343C1.77165 74.5343 0.484552 74.7634 0.529979 73.7862C0.560264 72.9464 1.92307 72.9158 2.72562 73.038C4.99697 73.3892 7.28346 73.4197 9.53967 73.2518C12.8256 73.0227 16.1114 73.4808 19.3822 73.2823C23.9249 73.0075 28.4827 73.6029 32.9952 73.2212C35.5239 73.0075 38.0678 73.1296 40.5512 73.1449C43.0951 73.1601 45.6844 73.0838 48.2586 73.2059C50.4543 73.2976 52.6802 73.4197 54.9213 73.1143C57.026 72.8242 59.2368 73.3128 61.4173 73.267C65.2786 73.2059 69.1248 73.4044 72.9861 72.9922C73.8492 72.9006 73.7583 72.3204 73.7432 71.7707C73.728 70.0911 73.7886 68.4116 74.364 66.8083C74.8486 67.2969 74.8486 67.923 74.7426 68.5032C74.4549 69.969 74.5306 71.4653 74.682 72.9616Z" fill="#F9DB05"/>
<path d="M33.8582 59.0366C33.934 60.5024 33.7674 61.8766 32.2986 62.6859C32.238 62.0446 31.8292 61.7545 31.2538 61.8308C30.2998 61.9682 29.7244 61.5102 29.4064 60.7315C28.7099 60.6399 29.043 62.0904 28.195 61.4644C27.8316 61.2048 27.0593 60.991 27.2713 60.4108C27.4985 59.8001 28.3767 59.5558 28.831 59.8459C30.0121 60.6399 30.8903 59.4642 31.9503 59.4794C32.556 59.4794 32.45 58.3801 32.132 57.9068C31.4658 56.8838 31.5718 55.7844 31.7837 54.7614C32.1623 53.0055 32.1169 51.2496 31.9352 49.5395C31.7383 47.5851 31.6626 45.6765 31.9503 43.7221C32.1472 42.3174 31.9957 40.8669 31.9957 39.4621C32.556 39.3705 32.6166 39.6454 32.6014 39.8897C32.4349 43.3251 33.2828 46.7148 32.6923 50.1961C32.3137 52.3795 32.5257 54.6851 33.4645 56.8227C33.7674 57.525 33.2071 58.3954 33.8582 59.0366Z" fill="#F8DB06"/>
<path d="M74.3791 65.5411C73.2586 63.6173 73.728 61.5102 73.8492 59.51C73.9551 57.7999 74.3791 56.1203 74.0611 54.3949C74.894 54.0438 74.894 53.3109 74.8788 52.578C74.8637 51.8145 74.9697 51.0511 74.7577 50.1655C74.2428 50.8526 74.5457 51.555 74.47 52.181C74.3791 52.9291 74.6517 53.7384 74.0611 54.3797C73.1526 53.8605 72.9709 53.2651 73.4857 52.2268C74.1066 50.99 73.6826 49.5242 74.0309 48.1653C74.682 45.6918 73.3495 43.2488 73.728 40.7447C73.9097 39.5079 73.9249 38.2254 74.364 37.0344C74.576 36.8512 74.7728 36.8512 74.9848 37.0344C75.8025 39.5079 75.9085 42.1036 75.4088 44.5771C75.1211 45.9971 75.1665 47.3102 75.3482 48.6234C75.6511 51.0205 75.7571 53.3719 75.1514 55.7691C74.894 56.7769 75.3937 57.9678 75.4542 59.0672C75.5602 61.2353 76.0902 63.434 74.9848 65.5258C74.788 65.7243 74.576 65.7243 74.3791 65.5411Z" fill="#FADB02"/>
<path d="M74.9848 37.0496C74.7728 37.0496 74.576 37.0496 74.364 37.0496C74.4548 35.6907 73.6069 34.515 73.7129 33.1103C73.8491 31.5223 73.7129 29.9344 74.046 28.3464C74.5911 25.7966 73.3343 23.2925 73.7431 20.7426C73.8189 20.2387 73.5009 19.5364 74.3791 19.4448C74.6517 20.9411 74.258 22.529 74.6668 24.0712C74.8788 22.4985 75.1362 20.9106 74.3791 19.4448C74.5305 18.7119 73.9097 17.4751 74.8031 17.414C75.7117 17.3377 75.212 18.5744 75.318 19.1852C75.7268 21.3992 75.9085 23.6589 75.1211 25.8424C74.8183 26.6669 75.1968 27.3692 75.3028 28.0869C75.8025 31.1101 75.7117 34.0875 74.9848 37.0496Z" fill="#FBDB02"/>
<path d="M62.7044 58.4107C63.5978 60.8842 62.235 62.7928 59.3428 63.0829C58.6765 62.5638 58.4342 62.1973 58.7977 61.1285C59.0551 60.3651 59.4639 58.9756 58.3282 57.8457C59.5699 57.9373 60.857 57.1281 60.9327 59.0825C62.0078 58.1358 61.1144 57.3266 60.8873 56.4868C61.7807 56.8533 62.4621 57.4182 62.7044 58.4107C62.3864 58.5328 62.2653 58.7771 62.2804 59.113C62.3713 58.8229 62.3864 58.5176 62.7044 58.4107Z" fill="#F5DA0D"/>
<path d="M74.9849 7.32143C75.8025 9.81023 75.6814 12.3601 75.4694 14.8947C75.4391 15.2306 75.4088 15.7956 74.9092 15.8872C74.3186 16.0093 74.2883 15.3833 74.152 15.0779C73.3192 13.3831 73.7583 11.5509 73.8946 9.79496C73.9552 9.00099 73.7583 8.02379 74.3792 7.29089C74.576 7.1382 74.788 7.1382 74.9849 7.32143Z" fill="#FBDB02"/>
<path d="M49.894 50.3335C50.2423 50.4556 50.4846 50.6847 50.636 51.0206C49.9849 52.8223 47.3047 53.8148 45.8056 52.7307C45.2302 52.3032 45.5482 51.6008 45.5179 51.0053C45.5027 50.6541 45.6996 50.4556 46.063 50.4098C46.8353 50.3182 46.5627 51.1733 47.0624 51.4787C47.6227 51.0359 47.0321 50.1045 47.8801 49.7686C48.2889 50.532 49.1066 50.3793 49.894 50.3335Z" fill="#F8DB06"/>
<path d="M74.9848 7.32131C74.7728 7.32131 74.576 7.32131 74.364 7.32131C74.3034 6.86325 74.3034 6.38992 74.152 5.97766C73.4403 4.14541 73.728 2.37424 74.3488 0.587799C74.4548 0.297693 74.47 -0.0687563 74.8637 -0.0229501C75.2574 0.0228561 75.212 0.389306 75.2877 0.69468C75.8328 2.92391 75.53 5.12261 74.9848 7.32131Z" fill="#FADC02"/>
<path d="M74.3791 65.541C74.5911 65.541 74.788 65.541 75 65.541C75.1514 67.526 75.7268 69.4803 75.6208 71.4958C75.5754 72.1829 75.6511 72.8853 74.6971 72.9769C73.6069 72.0302 74.046 70.7629 74.1823 69.6788C74.3034 68.7169 74.3791 67.755 74.3943 66.7931C74.3791 66.3655 74.3791 65.9533 74.3791 65.541Z" fill="#FADB02"/>
<path d="M51.6656 68.5947C55.209 69.7093 58.7826 70.2132 62.447 69.2971C63.8401 68.9459 65.0818 68.2741 66.384 67.6938C65.7026 69.1596 64.2187 69.2207 62.9618 69.5566C59.7819 70.3811 56.5566 70.427 53.3767 69.465C52.771 69.2818 52.0442 69.2513 51.6656 68.5947Z" fill="#DBD022"/>
<path d="M26.166 69.2056C29.8304 70.0148 33.4343 69.9995 36.8716 68.2742C36.1599 69.8316 34.5397 69.5415 33.3434 69.8774C31.3446 70.4423 29.2247 70.1522 27.1805 69.8316C26.7868 69.7705 26.3931 69.6178 26.166 69.2056Z" fill="#E2D41E"/>
<path d="M54.785 33.6599C51.7868 34.6065 49.4246 36.3472 47.9709 39.2177C47.6378 38.2252 48.3798 37.4313 48.834 36.9121C50.3937 35.1409 52.0442 33.3392 54.785 33.6599Z" fill="#E8D619"/>
<path d="M38.4312 67.068C39.5215 65.7702 40.2937 64.2891 40.8843 62.7012C40.9297 65.6938 40.6571 66.1977 38.4312 67.068Z" fill="#E4D51D"/>
<path d="M36.8867 68.2894C37.4016 67.8771 37.9164 67.4801 38.4464 67.0679C38.1587 68.7016 37.8104 68.9765 36.8867 68.2894Z" fill="#E2D41E"/>
<path d="M59.3428 63.0828C58.5857 63.4187 57.8286 63.4339 57.0563 63.098C57.8286 63.0828 58.5857 63.0828 59.3428 63.0828Z" fill="#F5DA0D"/>
<path d="M74.0612 54.395C74.0612 53.0208 74.0612 51.6466 74.0612 50.2572C74.0612 49.7991 74.0914 49.2342 74.7274 49.28C75.2271 49.3105 75.2725 49.7991 75.2877 50.2114C75.2877 51.387 75.318 52.5627 75.2725 53.7232C75.2574 54.5782 74.8031 54.792 74.0612 54.395Z" fill="#FBDB02"/>
<path d="M74.0763 61.7697C74.0763 61.159 74.0612 60.5482 74.0763 59.9375C74.0914 59.571 74.2126 59.1893 74.6517 59.174C75.106 59.1588 75.2574 59.5252 75.2574 59.8917C75.2877 61.1132 75.2725 62.3347 75.2725 63.5562C75.2725 64.0448 75.0303 64.3654 74.5609 64.3807C74.0914 64.3807 74.0612 63.9532 74.046 63.602C74.0612 62.9912 74.0763 62.3805 74.0763 61.7697Z" fill="#FBDB02"/>
<path d="M74.3186 19.3684C74.9243 19.6738 75.3028 19.9028 75.3028 20.4678C75.2725 21.7045 75.318 22.926 75.2574 24.1628C75.2422 24.5292 75.1665 25.0789 74.6517 25.0789C74.2428 25.0789 74.1066 24.575 74.1066 24.2697C74.1066 22.6359 73.8491 20.9869 74.3186 19.3684Z" fill="#FBDB02"/>
<path d="M62.7044 58.4106C62.2653 58.884 63.0375 59.6169 62.3561 60.0444C61.9321 58.6855 61.9321 58.6855 62.7044 58.4106Z" fill="#F5DD09"/>
</g>
</g>
<defs>
<clipPath id="clip0_124_380">
<rect width="75" height="75" fill="white"/>
</clipPath>
<clipPath id="clip1_124_380">
<rect width="75" height="75" fill="white" transform="translate(0 -1)"/>
</clipPath>
</defs>
</svg>
