<svg width="475" height="486" viewBox="0 0 475 486" fill="none" xmlns="http://www.w3.org/2000/svg">
<path d="M178.001 229.735C176.891 227.814 176.438 225.88 176.757 224.077C177.335 220.792 180.439 218.519 185.273 217.843L237.67 210.505C244.846 209.5 254.389 212.27 260.878 217.241C264.56 220.065 266.799 223.285 267.175 226.316L271.869 263.921C272.191 266.493 271.194 268.654 268.992 270.175C263.827 273.739 253.308 272.916 244.526 268.26L187.435 237.994C183.002 235.642 179.715 232.705 178.001 229.735ZM264.783 223.29C263.793 221.575 262.207 219.852 260.106 218.244C253.868 213.465 244.715 210.796 237.846 211.758L185.449 219.097C181.131 219.701 178.488 221.549 178.002 224.295C177.293 228.327 181.226 233.265 188.026 236.87L245.117 267.135C254.681 272.205 264.185 271.946 268.273 269.13C270.089 267.88 270.874 266.177 270.614 264.078L265.92 226.474C265.787 225.436 265.404 224.364 264.783 223.29Z" fill="#DDDDDD"/>
<path d="M172.193 231.671C171.148 229.862 170.675 228.026 170.867 226.261C171.244 222.752 174.182 220.234 179.133 219.178L233.861 207.461C246.511 204.752 264.763 213.109 266.96 222.615L276.39 263.444C277.038 266.256 276.208 268.706 273.984 270.523C268.887 274.696 257.679 274.502 247.916 270.07L183.764 240.959C178.258 238.463 174.184 235.12 172.193 231.671ZM264.682 220.326C260.25 212.649 244.806 206.409 234.127 208.696L179.399 220.413C175.023 221.349 172.443 223.473 172.126 226.395C171.639 230.895 176.523 236.283 184.279 239.802L248.431 268.913C259.09 273.75 269.13 272.845 273.172 269.541C275.022 268.026 275.686 266.071 275.144 263.726L265.714 222.897C265.523 222.032 265.169 221.17 264.682 220.326Z" fill="#DDDDDD"/>
<path d="M166.255 234.105C165.285 232.425 164.793 230.715 164.857 229.054C165.003 225.361 167.816 222.525 172.778 221.064L229.455 204.392C242.539 200.543 262.846 208.373 266.293 218.589L281.124 262.614C282.159 265.688 281.519 268.451 279.275 270.606C274.205 275.475 262.617 275.981 251.72 271.815L180.208 244.464C173.584 241.93 168.567 238.109 166.255 234.105ZM264.234 217.12C259.282 208.542 241.288 202.231 229.811 205.609L173.134 222.281C168.735 223.576 166.246 225.998 166.123 229.106C165.957 233.33 170.385 239.352 180.659 243.281L252.166 270.63C263.897 275.117 274.431 273.495 278.39 269.69C280.257 267.896 280.784 265.588 279.917 263.013L265.086 218.988C264.877 218.359 264.588 217.733 264.234 217.12Z" fill="#DDDDDD"/>
<path d="M160.241 237.264C159.342 235.707 158.84 234.113 158.79 232.528C158.672 228.646 161.325 225.466 166.257 223.579L224.42 201.34C237.828 196.213 260.266 203.322 265.111 214.235L286.053 261.379C287.542 264.733 287.131 267.849 284.867 270.386C279.952 275.891 267.794 277.182 255.958 273.453L176.853 248.549C168.934 246.052 162.882 241.838 160.241 237.264ZM263.398 213.667C257.861 204.076 237.055 197.871 224.87 202.527L166.707 224.766C162.318 226.445 159.956 229.187 160.055 232.489C160.198 237.232 165.565 243.663 177.23 247.337L256.331 272.243C269.093 276.259 280.066 273.85 283.914 269.543C285.825 267.402 286.162 264.756 284.888 261.892L263.952 214.751C263.79 214.387 263.604 214.024 263.398 213.667Z" fill="#DDDDDD"/>
<path d="M154.223 241.123C153.403 239.703 152.897 238.236 152.745 236.758C152.327 232.67 154.777 229.131 159.639 226.79L218.717 198.361C232.323 191.813 256.957 197.933 263.352 209.566L291.144 259.693C293.17 263.343 293.032 266.85 290.745 269.823C286.024 275.97 273.366 278.127 260.642 274.949L173.772 253.25C164.447 250.925 157.23 246.331 154.223 241.123ZM262.133 209.986C255.928 199.238 232.043 193.359 219.27 199.503L160.192 227.931C155.845 230.023 153.649 233.112 154.011 236.628C154.652 242.899 162.906 249.229 174.086 252.021L260.956 273.72C274.843 277.188 285.95 273.994 289.746 269.049C291.698 266.504 291.802 263.48 290.042 260.305L262.249 210.178C262.205 210.118 262.171 210.051 262.133 209.986Z" fill="#DDDDDD"/>
<path d="M148.273 245.741C147.542 244.476 147.046 243.167 146.807 241.83C146.044 237.527 148.239 233.598 152.994 230.771L212.315 195.498C225.967 187.38 252.773 192.391 260.936 204.583L296.349 257.496C298.962 261.398 299.16 265.436 296.903 268.868C292.348 275.779 279.557 278.82 265.796 276.26L171.059 258.622C160.218 256.601 151.694 251.666 148.273 245.741ZM295.79 259C295.636 258.734 295.469 258.47 295.291 258.202L259.879 205.29C252.181 193.789 225.871 188.911 212.961 196.591L153.639 231.864C149.308 234.441 147.375 237.811 148.054 241.609C149.295 248.577 158.848 255.061 171.29 257.374L266.023 275.014C280.826 277.77 292.228 273.657 295.841 268.169C297.678 265.383 297.655 262.23 295.79 259Z" fill="#DDDDDD"/>
<path d="M142.43 251.037C141.829 249.995 141.378 248.924 141.096 247.828C139.925 243.294 141.814 238.95 146.42 235.599L205.189 192.817C218.701 182.978 247.709 186.558 257.791 199.311L301.62 254.731C304.953 258.948 305.557 263.473 303.311 267.465C299.043 275.056 285.926 279.112 271.413 277.323L168.812 264.686C156.514 263.17 146.315 257.766 142.43 251.037ZM301.118 255.127L300.619 255.52L256.791 200.1C247.249 188.035 218.727 184.53 205.927 193.847L147.159 236.629C142.943 239.697 141.267 243.462 142.319 247.515C144.306 255.201 155.263 261.744 168.963 263.432L271.563 276.068C285.578 277.794 298.18 274.003 302.203 266.845C304.21 263.279 303.661 259.358 300.623 255.518L301.118 255.127Z" fill="#DDDDDD"/>
<path d="M136.876 257.314C136.412 256.51 136.03 255.683 135.737 254.843C134.082 250.061 135.597 245.269 140.006 241.345L197.299 190.39C210.467 178.678 241.64 180.542 253.829 193.77L306.883 251.346C311.056 255.876 312.14 260.926 309.936 265.572C306.003 273.859 292.658 279.012 277.489 278.101L167.141 271.48C153.192 270.643 141.291 264.962 136.876 257.314ZM306.419 251.773L305.95 252.202L252.895 194.626C241.33 182.077 210.627 180.229 198.141 191.331L140.848 242.286C136.787 245.899 135.432 250.094 136.931 254.423C139.845 262.823 152.296 269.316 167.216 270.212L277.564 276.832C292.233 277.71 305.074 272.858 308.788 265.024C310.784 260.815 309.8 256.381 305.948 252.198L306.419 251.773Z" fill="#DDDDDD"/>
<path d="M131.675 264.488C131.386 263.987 131.126 263.478 130.899 262.96C128.663 257.913 129.725 252.629 133.89 248.081L188.652 188.279C194.241 182.179 204.254 178.421 216.127 177.977C229.296 177.481 241.886 181.318 248.98 187.986L312.078 247.275C317.216 252.103 318.879 257.731 316.755 263.124C313.157 272.266 300.008 278.459 284.035 278.526L166.174 279.036C150.527 279.102 136.703 273.195 131.675 264.488ZM314.652 252.44C313.807 250.977 312.659 249.554 311.21 248.194L248.113 188.905C241.254 182.461 229.015 178.758 216.175 179.242C204.806 179.669 194.864 183.366 189.587 189.133L134.825 248.935C130.967 253.147 130.007 257.819 132.058 262.445C136.089 271.541 150.113 277.837 166.172 277.768L284.033 277.249C299.251 277.18 312.223 271.181 315.581 262.649C316.905 259.265 316.566 255.756 314.652 252.44Z" fill="#DDDDDD"/>
<path d="M126.934 272.598C126.873 272.493 126.813 272.389 126.754 272.278C123.817 266.949 124.329 261.127 128.192 255.883L179.223 186.572C184.224 179.778 193.955 175.015 205.92 173.508C220.273 171.7 234.538 174.949 243.156 181.993L317.113 242.446C323.354 247.545 325.698 253.795 323.717 260.042C320.579 269.932 307.443 277.352 291.027 278.517L166.039 287.375C148.675 288.605 132.675 282.542 126.934 272.598ZM316.71 242.938L316.311 243.428L242.353 182.975C233.998 176.145 220.096 172.999 206.08 174.767C194.457 176.235 185.041 180.81 180.243 187.324L129.213 256.635C125.607 261.527 125.144 266.726 127.866 271.665C133.241 281.383 148.877 287.316 165.949 286.105L290.934 277.249C306.834 276.123 319.523 269.052 322.504 259.656C324.316 253.939 322.117 248.173 316.309 243.424L316.71 242.938Z" fill="#DDDDDD"/>
<path d="M122.827 281.749C119.746 276.411 119.817 270.45 123.07 264.823L169.021 185.374C173.377 177.837 182.763 172.02 194.771 169.412C210.113 166.08 226.017 168.547 236.276 175.854L321.89 236.819C329.379 242.149 332.529 249.062 330.768 256.283C328.125 267.103 315.438 275.634 298.446 278.025L166.881 296.509C148.51 299.09 130.686 293.488 123.543 282.888C123.287 282.512 123.048 282.131 122.827 281.749ZM327.897 244.951C326.416 242.385 324.152 239.987 321.15 237.851L235.536 176.886C225.558 169.783 210.041 167.395 195.035 170.653C183.377 173.183 174.293 178.783 170.114 186.011L124.169 265.462C120.89 271.128 121.043 276.902 124.591 282.182C131.475 292.399 148.793 297.773 166.702 295.257L298.261 276.772C314.485 274.493 327.049 266.139 329.529 255.985C330.468 252.151 329.889 248.4 327.897 244.951Z" fill="#DDDDDD"/>
<path d="M119.493 291.955C116.461 286.704 116.161 280.783 118.698 274.964L158.053 184.772C161.697 176.426 170.679 169.486 182.708 165.732C198.566 160.786 216.443 162.311 228.246 169.62L326.29 230.324C335.049 235.748 339.256 243.559 337.834 251.757C335.822 263.381 323.422 273.274 306.245 276.959L168.849 306.45C149.88 310.52 130.412 305.757 121.508 294.862C120.739 293.922 120.067 292.95 119.493 291.955ZM325.959 230.866L325.626 231.404L227.582 170.7C216.077 163.575 198.609 162.102 183.087 166.946C171.407 170.589 162.71 177.273 159.211 185.281L119.857 275.473C116.997 282.031 117.907 288.459 122.487 294.061C131.103 304.599 150.058 309.187 168.58 305.211L305.979 275.723C322.646 272.146 334.66 262.658 336.587 251.545C337.936 243.769 334.04 236.614 325.622 231.406L325.959 230.866Z" fill="#DDDDDD"/>
<path d="M117.064 303.213C114.103 298.085 113.45 292.276 115.259 286.369L146.35 184.887C149.181 175.641 157.722 167.485 169.78 162.518C186.13 155.779 205.454 156.112 219.005 163.369L330.207 222.916C340.488 228.422 345.833 236.98 344.864 246.396C343.583 258.852 331.63 270.179 314.41 275.253L172.119 317.191C152.824 322.877 131.786 319.208 120.96 308.264C119.386 306.678 118.088 304.987 117.064 303.213ZM329.606 224.031L218.404 164.484C205.173 157.399 186.276 157.088 170.259 163.688C158.555 168.513 150.279 176.377 147.558 185.257L116.469 286.742C114.179 294.22 116.091 301.545 121.854 307.373C132.366 317.998 152.887 321.538 171.753 315.975L314.044 274.037C330.766 269.106 342.366 258.209 343.597 246.267C344.515 237.385 339.414 229.282 329.606 224.031Z" fill="#DDDDDD"/>
<path d="M115.706 315.536C112.843 310.576 111.875 304.955 112.959 299.091L133.946 185.826C135.847 175.569 143.881 166.077 155.99 159.792C172.57 151.186 193.163 150.156 208.454 157.172L333.479 214.525C345.43 220.009 352.084 229.329 351.74 240.095C351.305 253.615 340.238 266.151 322.862 272.804L176.854 328.715C157.224 336.233 135.265 333.981 122.211 323.116C119.476 320.842 117.299 318.287 115.706 315.536ZM347.456 228.046C344.543 223 339.603 218.731 332.953 215.679L207.929 158.326C192.979 151.469 172.821 152.487 156.574 160.92C144.816 167.022 137.022 176.188 135.19 186.059L114.203 299.324C112.601 307.977 115.73 316.084 123.019 322.15C135.73 332.731 157.183 334.897 176.396 327.538L322.404 271.627C339.294 265.158 350.048 253.062 350.47 240.06C350.611 235.759 349.564 231.697 347.456 228.046Z" fill="#DDDDDD"/>
<path d="M115.592 328.913C112.861 324.184 111.629 318.846 112.03 313.164L120.899 187.716C121.706 176.313 129.16 165.334 141.351 157.599C157.898 147.099 179.563 144.562 196.539 151.134L335.97 205.114C349.716 210.436 357.878 220.511 358.368 232.755C358.946 247.19 348.666 261.28 331.545 269.531L183.243 340.996C163.908 350.314 140.753 349.679 125.623 339.412C121.267 336.463 117.897 332.907 115.592 328.913ZM335.741 205.707L335.51 206.297L196.082 152.315C179.471 145.884 158.253 148.379 142.03 158.668C130.181 166.187 122.942 176.805 122.161 187.805L113.287 313.251C112.577 323.258 117.208 332.18 126.326 338.367C141.093 348.387 163.742 348.987 182.683 339.858L330.984 268.394C347.643 260.366 357.649 246.732 357.093 232.81C356.628 221.093 348.758 211.431 335.506 206.299L335.741 205.707Z" fill="#DDDDDD"/>
<path d="M116.894 343.337C114.342 338.919 112.908 333.961 112.697 328.628L107.28 190.697C106.783 177.999 113.551 165.35 125.851 155.99C142.12 143.608 164.627 139.442 183.186 145.369L337.499 194.644C353.142 199.64 363.018 210.436 364.601 224.265C366.362 239.65 357.074 255.393 340.363 265.344L191.465 353.996C172.449 365.316 148.926 366.532 131.534 357.092C125.044 353.568 120.092 348.877 116.894 343.337ZM337.309 195.248L337.116 195.854L182.802 146.576C164.624 140.77 142.57 144.862 126.62 156.998C114.653 166.103 108.068 178.368 108.549 190.647L113.97 328.576C114.426 340.129 120.876 349.861 132.144 355.976C149.15 365.206 172.186 364.002 190.825 352.905L339.723 264.252C356.002 254.56 365.056 239.294 363.353 224.409C361.827 211.094 352.267 200.688 337.124 195.85L337.309 195.248Z" fill="#DDDDDD"/>
<path d="M119.782 358.586C117.476 354.592 115.929 350.19 115.243 345.497L93.182 194.91C91.1115 180.761 97.0425 166.222 109.467 155.022C125.468 140.593 148.026 134.835 168.335 139.997L337.89 183.077C355.23 187.482 367.344 199.225 370.283 214.488C373.491 231.123 365.619 248.186 349.229 260.133L201.735 367.64C183.653 380.819 159.537 384.112 140.292 376.024C131.188 372.199 124.131 366.119 119.782 358.586ZM337.734 183.69L337.579 184.304L168.025 141.224C148.121 136.165 126.009 141.814 110.318 155.962C98.2172 166.875 92.4273 181.001 94.435 194.725L116.496 345.312C118.415 358.409 127.266 369.177 140.785 374.856C159.628 382.771 183.259 379.537 200.993 366.612L348.487 259.106C364.472 247.455 372.155 230.865 369.044 214.722C366.194 199.956 354.432 188.582 337.581 184.298L337.734 183.69Z" fill="#DDDDDD"/>
<path d="M124.399 374.816C122.431 371.406 120.924 367.706 119.931 363.772L78.7204 200.501C74.7404 184.735 79.6487 168.066 92.1819 154.765C107.459 138.559 130.359 131.046 151.952 135.159L336.94 170.386C356.221 174.06 370.528 186.354 375.203 203.275C380.097 220.974 373.673 239.87 358.019 253.809L214.242 381.852C197.112 397.105 173.328 402.547 152.171 396.049C139.816 392.254 130.14 384.76 124.399 374.816ZM336.818 171.009L336.701 171.629L151.715 136.406C130.546 132.376 108.086 139.744 93.1031 155.637C80.873 168.613 76.0769 184.852 79.9492 200.191L121.159 363.461C124.939 378.44 136.38 389.874 152.547 394.837C173.283 401.203 196.6 395.868 213.402 380.905L357.179 252.862C372.465 239.25 378.745 220.838 373.986 203.613C369.439 187.165 355.502 175.21 336.703 171.633L336.818 171.009Z" fill="#DDDDDD"/>
<path d="M130.927 391.783C129.41 389.155 128.119 386.369 127.066 383.43L64.0361 207.629C57.7453 190.083 61.3668 171.018 73.971 155.327C88.3323 137.443 111.334 128.133 134.001 131.019L334.434 156.565C355.604 159.264 372.304 171.935 379.104 190.47C386.012 209.294 381.337 230.154 366.602 246.268L229.198 396.529C213.547 413.643 189.875 421.476 167.418 416.964C151.287 413.72 138.402 404.729 130.927 391.783ZM374.318 183.214C366.317 169.355 351.882 160.067 334.271 157.822L133.838 132.277C111.607 129.446 89.0456 138.579 74.9584 156.121C62.6372 171.462 59.0895 190.08 65.2297 207.199L128.26 383C134.347 399.987 148.711 411.906 167.667 415.715C189.688 420.138 212.911 412.458 228.263 395.666L365.667 245.405C380.077 229.646 384.653 209.271 377.914 190.898C376.925 188.211 375.719 185.639 374.318 183.214Z" fill="#DDDDDD"/>
<path d="M139.336 409.019C138.481 407.538 137.686 406.012 136.955 404.445L49.2952 216.457C40.348 197.273 42.4091 174.981 54.8097 156.831C68.2971 137.093 90.5955 126.223 114.46 127.755L330.137 141.616C353.07 143.09 372.33 155.907 381.657 175.906C390.983 195.905 388.423 218.897 374.812 237.415L246.794 411.542C232.628 430.812 209.968 440.905 186.181 438.55C166.093 436.552 148.937 425.64 139.336 409.019ZM378.146 171.897C368.355 154.94 350.734 144.204 330.058 142.877L114.378 129.018C90.9657 127.513 69.0856 138.175 55.8557 157.544C43.7104 175.321 41.6865 197.144 50.4414 215.92L138.101 403.908C146.857 422.679 164.872 435.162 186.3 437.284C209.64 439.596 231.871 429.692 245.768 410.788L373.786 236.661C387.121 218.524 389.632 196.012 380.505 176.441C379.781 174.879 378.992 173.364 378.146 171.897Z" fill="#DDDDDD"/>
<path d="M149.929 426.734L34.6938 227.141C22.4519 205.937 22.4517 180.617 34.6932 159.411C46.9346 138.205 68.8626 125.545 93.348 125.547L323.816 125.548C348.299 125.546 370.23 138.21 382.472 159.414C394.713 180.617 394.714 205.938 382.47 227.14L267.237 426.732C254.996 447.938 233.068 460.598 208.583 460.596C184.099 460.598 162.171 447.938 149.929 426.734ZM323.818 126.816L93.3459 126.816C69.3174 126.816 47.8039 139.236 35.7904 160.046C23.7769 180.856 23.7765 205.701 35.7895 226.508L151.023 426.098C163.036 446.905 184.553 459.328 208.581 459.328C232.61 459.329 254.127 446.906 266.137 426.099L381.375 226.508C393.388 205.698 393.389 180.853 381.376 160.046C369.363 139.239 347.846 126.817 323.818 126.816Z" fill="#DDDDDD"/>
</svg>
