<svg width="75" height="75" viewBox="0 0 75 75" fill="none" xmlns="http://www.w3.org/2000/svg">
<g clip-path="url(#clip0_124_380)">
<rect width="75" height="75" fill="white"/>
<path d="M37.5 73.005C29.685 73.005 21.87 73.005 14.07 73.005C10.62 73.005 7.63502 71.835 5.11502 69.48C3.04502 67.545 1.77002 65.16 1.27502 62.37C1.12502 61.575 1.08002 60.765 1.08002 59.955C1.08002 44.91 1.08002 29.88 1.08002 14.835C1.08002 11.475 2.25002 8.53498 4.54502 6.07498C6.45002 4.01998 8.79002 2.74498 11.535 2.20498C12.3 2.05498 13.095 1.97998 13.875 1.97998C29.61 1.97998 45.345 1.97998 61.095 1.97998C64.635 1.97998 67.665 3.28498 70.185 5.75998C72.075 7.63498 73.245 9.92998 73.74 12.555C73.875 13.305 73.95 14.07 73.95 14.835C73.95 29.94 73.965 45.045 73.95 60.15C73.95 63.465 72.795 66.36 70.56 68.82C68.655 70.905 66.3 72.21 63.54 72.765C62.73 72.93 61.92 73.005 61.095 73.005C53.205 73.005 45.36 73.005 37.5 73.005Z" fill="#031C35"/>
<path d="M17.46 36.1799C17.46 31.0799 17.46 25.9649 17.46 20.8649C17.46 20.2499 17.46 20.2499 18.06 20.2499C19.125 20.2349 20.205 20.2349 21.27 20.1749C22.14 20.1299 23.025 20.1599 23.895 20.1149C25.305 20.0399 26.715 20.0399 28.14 20.0849C30.15 20.1449 32.115 20.4449 34.005 21.2249C35.325 21.7649 36.51 22.5149 37.53 23.5349C38.82 24.8249 39.66 26.3999 40.08 28.1699C40.38 29.4299 40.47 30.7049 40.365 31.9949C40.275 33.2849 40.02 34.5449 39.51 35.7299C38.97 36.9899 38.16 38.0549 37.17 38.9699C35.715 40.3049 33.99 41.0999 32.085 41.5499C31.215 41.7599 30.33 41.8949 29.43 41.9849C28.17 42.1049 26.91 42.1199 25.635 42.0899C25.2 42.0749 24.765 42.0299 24.345 42.0449C24.06 42.0449 24.06 42.0449 24.06 42.3449C24.06 43.2749 24.06 44.2199 24.06 45.1499C24.06 47.2799 24.06 49.4099 24.06 51.5399C24.06 51.6299 24.06 51.7199 24.06 51.8099C24.045 52.0349 23.94 52.1699 23.715 52.1999C23.625 52.2149 23.535 52.2149 23.445 52.2149C21.66 52.2149 19.89 52.2149 18.105 52.2149C17.55 52.2149 17.475 52.1399 17.475 51.5849C17.46 46.4399 17.46 41.3099 17.46 36.1799Z" fill="#00A4DE"/>
<path d="M43.65 48.2999C43.65 47.4749 43.65 46.6649 43.65 45.8399C43.65 45.7649 43.65 45.6749 43.65 45.5999C43.68 45.3149 43.83 45.2399 44.085 45.3899C45.135 45.9899 46.245 46.4399 47.415 46.7549C48.975 47.1749 50.565 47.3699 52.185 47.2799C52.74 47.2499 53.265 47.1449 53.775 46.9499C54.12 46.8149 54.405 46.5899 54.57 46.2449C54.84 45.7049 54.75 45.1649 54.315 44.6999C53.94 44.2949 53.475 44.0399 52.995 43.8149C52.185 43.4249 51.345 43.1099 50.505 42.7799C49.035 42.2099 47.625 41.5049 46.38 40.5299C45.015 39.4649 44.07 38.1149 43.785 36.3749C43.545 34.9049 43.725 33.4649 44.37 32.1149C45.105 30.5549 46.305 29.4449 47.85 28.6799C48.915 28.1549 50.055 27.8549 51.24 27.7049C52.215 27.5849 53.19 27.5549 54.18 27.5999C55.605 27.6599 57.015 27.7649 58.395 28.1399C58.8 28.2449 59.19 28.3949 59.595 28.5299C59.85 28.6199 59.97 28.7999 60.015 29.0549C60.03 29.1449 60.015 29.2349 60.015 29.3249C60.015 30.8699 60.015 32.3999 60.015 33.9449C60.015 34.4699 59.745 34.6349 59.265 34.4099C58.59 34.0799 57.9 33.7949 57.165 33.5999C56.1 33.3149 55.005 33.1349 53.91 33.0599C53.28 33.0149 52.665 32.9849 52.035 33.0749C51.675 33.1199 51.315 33.1949 50.97 33.3149C50.01 33.6299 49.665 34.8449 50.43 35.6099C50.76 35.9399 51.135 36.1799 51.54 36.3899C52.56 36.9149 53.61 37.3199 54.675 37.7249C55.905 38.2049 57.09 38.8049 58.2 39.5249C59.76 40.5449 60.87 41.9249 61.155 43.7999C61.575 46.4549 60.87 48.7649 58.815 50.5799C57.63 51.6299 56.205 52.1699 54.69 52.4999C53.22 52.8299 51.735 52.8899 50.235 52.8299C48.9 52.7699 47.58 52.6049 46.29 52.2899C45.54 52.1099 44.805 51.8699 44.1 51.5399C43.77 51.3899 43.62 51.1649 43.635 50.7899C43.665 49.9499 43.65 49.1249 43.65 48.2999Z" fill="#00A4DE"/>
<path d="M24.075 31.17C24.075 29.61 24.075 28.05 24.075 26.49C24.075 26.415 24.075 26.325 24.075 26.25C24.075 26.145 24.12 26.085 24.24 26.085C24.405 26.085 24.585 26.07 24.75 26.07C25.755 26.055 26.76 26.025 27.75 26.04C28.995 26.055 30.195 26.265 31.32 26.82C32.685 27.48 33.45 28.59 33.705 30.06C33.87 31.005 33.81 31.95 33.555 32.865C33.285 33.81 32.67 34.515 31.875 35.085C31.14 35.61 30.285 35.865 29.43 36.075C28.5 36.285 27.57 36.375 26.625 36.36C25.935 36.345 25.23 36.345 24.54 36.345C24.495 36.345 24.45 36.345 24.405 36.345C24.075 36.315 24.075 36.315 24.075 35.985C24.075 34.35 24.075 32.76 24.075 31.17Z" fill="#021C35"/>
</g>
<defs>
<clipPath id="clip0_124_380">
<rect width="75" height="75" fill="white"/>
</clipPath>
</defs>
</svg>
