<svg width="71" height="69" viewBox="0 0 71 69" fill="none" xmlns="http://www.w3.org/2000/svg">
<rect y="0.899902" width="71" height="68" rx="10" fill="#1D1F21"/>
<path d="M36.76 44.09C41.8355 44.09 45.95 39.9755 45.95 34.9C45.95 29.8245 41.8355 25.71 36.76 25.71C31.6845 25.71 27.57 29.8245 27.57 34.9C27.57 39.9755 31.6845 44.09 36.76 44.09Z" fill="#909090"/>
<path d="M36.76 31.05C31.38 31.05 28.72 34.9 28.72 34.9C28.72 34.9 31.38 38.75 36.76 38.75C42.14 38.75 44.8 34.9 44.8 34.9C44.8 34.9 42.14 31.05 36.76 31.05Z" fill="white"/>
<path d="M36.76 38.75C38.8863 38.75 40.61 37.0263 40.61 34.9C40.61 32.7738 38.8863 31.05 36.76 31.05C34.6337 31.05 32.91 32.7738 32.91 34.9C32.91 37.0263 34.6337 38.75 36.76 38.75Z" fill="#909090"/>
<path d="M36.76 36.77C37.7928 36.77 38.63 35.9328 38.63 34.9C38.63 33.8673 37.7928 33.03 36.76 33.03C35.7272 33.03 34.89 33.8673 34.89 34.9C34.89 35.9328 35.7272 36.77 36.76 36.77Z" fill="#1D1F21"/>
<path d="M35.73 34.31C35.9675 34.31 36.16 34.1174 36.16 33.88C36.16 33.6425 35.9675 33.45 35.73 33.45C35.4925 33.45 35.3 33.6425 35.3 33.88C35.3 34.1174 35.4925 34.31 35.73 34.31Z" fill="#F8F8F8"/>
<path d="M36.75 13.4399C24.9 13.4399 15.29 23.0499 15.29 34.8999C15.29 35.1799 15.3 35.4499 15.31 35.7299H12.79L15.61 38.5499L19.3 42.2399L23.08 38.4599L25.82 35.7299H22.66C22.64 35.4499 22.63 35.1799 22.63 34.8999C22.63 27.1199 28.97 20.7899 36.75 20.7899C44.53 20.7899 50.87 27.1199 50.87 34.8999C50.87 42.6899 44.53 49.0199 36.75 49.0199C33.16 49.0199 29.88 47.6699 27.38 45.4499L22.18 50.6499C26.01 54.1999 31.13 56.3599 36.75 56.3599C48.6 56.3599 58.21 46.7499 58.21 34.8999C58.21 23.0499 48.6 13.4399 36.75 13.4399Z" fill="#909090"/>
</svg>
