<?xml version="1.0" encoding="utf-8"?>
<!-- Generator: Adobe Illustrator 24.3.0, SVG Export Plug-In . SVG Version: 6.00 Build 0)  -->
<svg version="1.1" id="Layer_1" xmlns="http://www.w3.org/2000/svg" xmlns:xlink="http://www.w3.org/1999/xlink" x="0px" y="0px"
	 viewBox="0 0 100 100" style="enable-background:new 0 0 100 100;" xml:space="preserve">
<style type="text/css">
	.st0{fill:#78C36C;}
	.st1{fill:#F8FBF8;}
</style>
<g>
	<path class="st0" d="M67.3,90.3c-7.8,0-14.1-6.2-14.2-14c-0.1-7.7,6.3-14.1,14-14.1c7.9-0.1,14.3,6.3,14.3,14.1
		C81.5,84,75.1,90.3,67.3,90.3z M66.1,81.8c2.8-2.8,5.2-5.3,7.7-7.8c0.6-0.6,1.2-1,0.3-2c-1-1.1-1.5-0.5-2.2,0.2
		c-1,1.1-2.2,2-3.1,3.1c-1.6,2.1-3.2,2.9-4.9,0.1c-0.6-0.9-1.2-0.9-2.1-0.1c-0.8,0.8-0.4,1.3,0.2,1.9C63.3,78.7,64.6,80.2,66.1,81.8
		z"/>
	<path class="st0" d="M30.4,50.7c-0.4,4.1,0.7,9.1-0.5,14c-1.4,5.6-5.1,9.2-10.5,11c-0.9,0.3-2.3,0.7-2.7-0.6
		c-0.4-1.3,0.7-1.6,1.8-1.9c5.9-1.8,9.3-6.5,9.3-12.7c0-7.2,0-14.5,0-21.7c0-10.9,8.6-20.8,19-21.9c12.3-1.3,22.7,6.1,24.9,17.6
		c0.3,1.4,1.6,3.5-0.7,3.9c-2.2,0.4-1.5-2.1-1.8-3.3C67,24.8,57.9,18.3,47.2,19.5c-9.3,1-16.8,9.8-16.8,19.7
		C30.4,42.8,30.4,46.3,30.4,50.7z"/>
	<path class="st0" d="M55.7,63.8c0-8.1,0-16,0-24c0-4-2.2-6.4-5.7-6.4c-3.5,0-5.6,2.5-5.6,6.5c0,7.1,0.2,14.3,0,21.4
		C43.9,73.1,38.4,81.7,28,87.2c-0.9,0.5-2.1,1.3-2.8-0.1c-0.6-1.3,0.6-1.7,1.6-2.1c9.9-5.3,14.9-13.6,15-24.8c0-6.9,0-13.8,0-20.7
		c0-5.2,3.5-8.7,8.4-8.7c4.8,0,8.1,3.6,8.1,8.7c0,6.6-0.1,13.3,0.1,19.9C58.4,61.4,57.8,62.8,55.7,63.8z"/>
	<path class="st0" d="M13.9,35.4C15.5,21.5,24.4,9.6,37.9,4.8c14.3-5.1,30.9-0.4,40.2,11.3c0.7,0.9,2.1,1.8,0.5,3
		c-1.4,1-1.9-0.6-2.5-1.3c-8.2-9.6-18.8-14-31.2-11.9C31.2,8.1,22.1,16.4,17.8,29.6c-0.6,1.9-0.9,4-1.3,6c-0.2,0.9-0.4,1.5-1.4,1.5
		C14,37,13.8,36.2,13.9,35.4z"/>
	<path class="st0" d="M62.5,48.2c0-3.5,0.2-7.1,0-10.6c-0.5-6.4-6.2-11.4-12.5-11.4c-6.4,0-12,5-12.4,11.4
		c-0.3,5.1-0.1,10.3-0.2,15.5c0,1,0.4,2.5-1.3,2.6c-1.9,0.1-1.4-1.6-1.4-2.7c0-4.6-0.1-9.1,0-13.7c0.1-9,6.7-15.8,15.3-15.8
		c8.4,0,15.1,6.6,15.4,15.4c0.2,6.3,0,12.6,0.1,18.8c0,1.3-0.4,1.9-1.7,2c-1.5,0.1-1-1.1-1-1.8c0-3.3,0-6.5,0-9.8
		C62.6,48.2,62.5,48.2,62.5,48.2z"/>
	<path class="st0" d="M79.3,64c-2-0.9-2.7-2-2.7-4.1c0-7.9,0.4-15.8-0.2-23.7c-0.8-11.3-10.7-21.8-21.9-23.4
		c-3.4-0.5-6.7-0.4-10,0.2c-1.1,0.2-2.3,1-2.7-0.7c-0.4-1.7,1.2-1.7,2.2-1.9c11.2-2.1,20.7,1.1,28.3,9.6c4.1,4.7,6.5,10.2,6.9,16.5
		C79.6,45.6,79.2,54.7,79.3,64z"/>
	<path class="st0" d="M16.8,69.1c-1.3,0.1-1.9,0-2.1-0.9c-0.1-0.8,0.3-1.4,1-1.6c4.4-0.8,5-3.9,5-7.7c0-7.7-0.5-15.5,0.3-23.2
		c0.9-9.1,5.5-16.1,13-21.2c0.8-0.5,1.7-1.3,2.5-0.2c0.9,1.2-0.1,1.8-1,2.4c-6.2,4.1-10.1,9.8-11.5,17c-0.4,2.2-0.5,4.4-0.6,6.7
		c-0.1,6.6,0,13.3,0,19.9c0,4.3-1.8,7.1-5.4,8.5C17.4,69,16.8,69.1,16.8,69.1z"/>
	<path class="st0" d="M51.3,59.2c0.1,13.7-5.2,24.6-16.7,32.2c-0.5,0.3-1,0.7-1.5,0.9c-0.7,0.2-1.4,0.3-1.7-0.6
		c-0.3-0.6-0.1-1.2,0.4-1.6c0.3-0.2,0.6-0.4,0.9-0.5c10.8-7.1,16.1-17.2,16-30.1c0-1.5,0-3.1,0-4.6c0-0.9,0.4-1.6,1.3-1.6
		c0.9,0,1.3,0.7,1.4,1.5C51.4,56.3,51.3,57.8,51.3,59.2z"/>
	<path class="st0" d="M83.6,49.5c-0.3-5.6,0.8-12.2-1-18.7c-0.5-1.6-1-3.2-1.6-4.8c-0.4-1-0.2-1.7,0.7-2.1c1-0.4,1.4,0.5,1.7,1.2
		c1.6,3.8,2.7,7.8,2.7,11.9c0.1,8.7,0.1,17.4,0,26c0,1.3,0.4,3.4-1.3,3.4c-2.2,0.1-1.2-2.1-1.2-3.2C83.5,58.9,83.6,54.7,83.6,49.5z"
		/>
	<path class="st0" d="M37.1,63.6c-0.3,7.5-7.5,16.6-14.7,18.5c-0.9,0.2-1.8,0.4-2.2-0.6c-0.5-1.3,0.6-1.6,1.5-1.9
		c6.7-2.5,10.8-7.3,12.6-14.1c0.2-0.7,0.2-1.4,0.3-2c0.1-1,0.2-2,1.5-2C36.9,61.4,37.2,61.9,37.1,63.6z"/>
	<path class="st0" d="M0,5.7C0,0,0,0,5.6,0c1.4,0,2.8,0,4.1,0c1,0,1.6,0,1.6,1.3c0,1.3-0.4,1.6-1.7,1.5c-2.2,0-5.1-1-6.5,0.4
		C1.9,4.6,2.9,7.5,2.9,9.7c0,1.1-0.1,1.7-1.5,1.7c-1.5,0-1.4-0.9-1.3-1.8C0.1,8.3,0,7,0,5.7z"/>
	<path class="st0" d="M94.3,0c5.6,0,5.6,0,5.6,5.6c0,1.4,0,2.8,0,4.1c0,1-0.1,1.6-1.3,1.6c-1.3,0-1.6-0.5-1.5-1.7
		c0.1-1.8,0-3.6,0-5.4c0-1.1-0.3-1.5-1.5-1.5c-1.9,0.1-3.8-0.1-5.7,0.1c-1.2,0.1-1.4-0.5-1.4-1.5c0-1,0.3-1.4,1.3-1.3
		C91.4,0.1,92.9,0,94.3,0z"/>
	<path class="st0" d="M5.9,100C0,100,0,100,0,94.1c0-1.3,0-2.6,0-3.9c-0.1-1,0.1-1.6,1.3-1.6c1.3,0,1.6,0.5,1.5,1.7
		c-0.1,1.8,0,3.6,0,5.4c-0.1,1.1,0.4,1.5,1.5,1.5c1.9-0.1,3.8,0.1,5.7-0.1c1.2-0.1,1.4,0.5,1.4,1.5c0,1-0.3,1.4-1.3,1.3
		C8.7,99.9,7.3,100,5.9,100z"/>
	<path class="st0" d="M100,94.2c0,5.8,0,5.8-5.7,5.8c-1.4,0-2.8-0.1-4.1,0c-1.1,0.1-1.5-0.2-1.5-1.4c0-1.1,0.4-1.6,1.5-1.4
		c0.2,0,0.3,0,0.5,0c2.1-0.2,5,1,6.1-0.5c1.1-1.3,0.4-4.1,0.4-6.2c0-0.9-0.3-1.8,1.3-1.9c1.6,0,1.5,0.8,1.5,1.9
		C99.9,91.7,100,93,100,94.2z"/>
	<path class="st0" d="M50.7,80.5c1.3,1.8,1.3,3.3-0.1,5.2c-2.6,3.4-5.5,6.6-8.8,9.3c-0.9,0.7-1.9,1.5-2.8,0.2
		c-0.8-1.2,0.4-1.6,1.1-2.2C44.4,89.5,48,85.4,50.7,80.5z"/>
	<path class="st0" d="M13.8,52c0-2.5,0-5,0-7.5c0-1,0.1-1.8,1.3-1.8c1.2,0,1.3,0.9,1.3,1.8c0,5,0,10,0,15c0,0.9-0.1,1.8-1.2,1.9
		c-1.4,0.1-1.4-0.9-1.4-1.9C13.8,57,13.8,54.5,13.8,52z"/>
	<path class="st0" d="M72.2,52.3c0,2.1,0,4.1,0,6.2c0,0.5,0.4,1.5-0.8,1.3c-0.7-0.1-1.7,0.1-1.7-1.1c0-4.5,0-9,0-13.4
		c0-0.9,0.6-1.4,1.3-1.3c0.8,0,1.3,0.6,1.3,1.6C72.2,47.8,72.2,50.1,72.2,52.3z"/>
	<path class="st0" d="M48.7,42.5c0-1.3,0-2.6,0-3.8c0-0.8,0.3-1.6,1.3-1.6c1,0,1.4,0.7,1.4,1.5c0.1,2.6,0.1,5.1,0,7.7
		c0,0.8-0.4,1.6-1.3,1.6c-1.1,0-1.4-0.9-1.4-1.8C48.6,44.9,48.6,43.7,48.7,42.5C48.6,42.5,48.6,42.5,48.7,42.5z"/>
	<path class="st0" d="M49.4,97.1c-0.6,0-1.1-0.2-1.4-0.7c-0.3-0.5-0.1-1,0.3-1.4c2-2.2,4.1-4.3,5.8-6.9c0.3-0.4,0.6-0.7,1-0.2
		c0.4,0.6,1.6,0.9,1.1,1.8c-1.7,2.7-3.8,5.1-6.1,7.2C49.9,97.1,49.6,97.1,49.4,97.1z"/>
	<path class="st0" d="M62.7,92.8c-1.3,1-1.3,3.4-3.5,2.8c-0.8-0.2-0.9-1.1-0.5-1.9C59.7,91.9,60.8,91.2,62.7,92.8z"/>
	<path class="st1" d="M66.1,81.8c-1.5-1.6-2.8-3.1-4.1-4.5c-0.6-0.6-1-1.1-0.2-1.9c0.8-0.8,1.5-0.8,2.1,0.1c1.7,2.7,3.3,1.9,4.9-0.1
		c0.9-1.1,2.1-2.1,3.1-3.1c0.7-0.7,1.2-1.3,2.2-0.2c1,1,0.3,1.4-0.3,2C71.3,76.5,68.8,79,66.1,81.8z"/>
</g>
</svg>
