<?xml version="1.0" encoding="utf-8"?>
<!-- Generator: Adobe Illustrator 24.3.0, SVG Export Plug-In . SVG Version: 6.00 Build 0)  -->
<svg version="1.1" id="Layer_1" xmlns="http://www.w3.org/2000/svg" xmlns:xlink="http://www.w3.org/1999/xlink" x="0px" y="0px"
	 viewBox="0 0 100 100" style="enable-background:new 0 0 100 100;" xml:space="preserve">
<style type="text/css">
	.st0{fill:#78C36C;}
</style>
<g>
	<path class="st0" d="M100,45.2c-0.4,0.6-0.6,1.3-1.1,1.9c-0.9,1-2,1.3-3.2,1.4c-3.8,0.6-7.6,1.1-11.3,1.7c-2.5,0.4-4.4-1.3-4.7-3.2
		c-0.4-2.4,1-4.5,3.3-4.9c3.8-0.6,7.6-1.2,11.4-1.8c1.3-0.2,2.6-0.2,3.7,0.6c1,0.6,1.3,1.7,1.8,2.6C100,44.1,100,44.7,100,45.2z"/>
	<path class="st0" d="M50,87c-8.3,0-16.6,0-24.8,0c-0.5,0-0.8-0.1-0.8-0.7c0-10.6,0-21.1,0.1-31.7c0-3.5,1-6.7,2.4-9.9
		c1.6-3.4,3.8-6.2,6.6-8.6c2.7-2.3,5.7-3.9,9.1-4.9c4.2-1.2,8.4-1.3,12.6-0.6c2.7,0.5,5.2,1.5,7.6,2.8c2.7,1.6,5.1,3.5,7.1,6
		c1.7,2.1,3,4.3,4,6.8c1.4,3.6,1.8,7.3,1.8,11.1c-0.1,9.6,0,19.1,0,28.7c0,0.7-0.2,0.9-0.9,0.9C66.5,86.9,58.2,87,50,87z M70.8,55.4
		c-0.3-4.1-1.5-7.8-4-11.1c-4.1-5.5-9.6-8.2-16.5-8.4c-0.5,0-0.9,0.1-1.4,0.3c-0.9,0.5-1.3,1.5-1.1,2.4c0.3,1.1,1.1,1.7,2.4,1.7
		c4.1,0.1,7.8,1.4,10.8,4.2c2.5,2.4,4.2,5.2,4.9,8.7c0.2,1.2,0.2,2.4,0.4,3.6c0.2,1,1,1.7,2,1.8c0.8,0.1,1.8-0.5,2.2-1.4
		C70.8,56.7,70.8,56,70.8,55.4z"/>
	<path class="st0" d="M50,99.3c-10.3,0-20.5,0-30.8,0c-1,0-1.1,0-0.8-0.9c0.9-2.8,1.8-5.6,2.7-8.4c0.2-0.5,0.5-0.5,0.9-0.5
		c4.1,0,8.2,0,12.3,0c14.6,0,29.1,0,43.7,0c0.6,0,0.8,0.2,1,0.8c0.8,2.7,1.8,5.4,2.6,8.1c0.3,0.9,0.3,0.9-0.7,0.9
		c-9.3,0-18.6,0-27.9,0C52,99.3,51,99.3,50,99.3z M30.1,91.3c-2.2,0-4.5,0-6.7,0c-0.4,0-0.6,0.1-0.8,0.6c-0.5,1.7-1.1,3.3-1.6,5
		c-0.2,0.6-0.1,0.8,0.5,0.8c3,0,6.1,0,9.1,0c0.5,0,0.8-0.2,1.2-0.5c1.7-1.7,3.4-3.5,5.2-5.2c0.1-0.1,0.4-0.2,0.3-0.5
		c-0.1-0.2-0.3-0.1-0.5-0.1C34.5,91.3,32.3,91.3,30.1,91.3z"/>
	<path class="st0" d="M20.3,44.6c0,2.5-2.2,4.5-4.6,4.1c-3.2-0.6-6.5-1.2-9.7-1.9c-0.9-0.2-1.8-0.4-2.7-0.6
		c-2.4-0.5-3.5-3.1-3.2-4.7c0.5-2.4,2.6-3.8,5-3.3c3.8,0.7,7.6,1.5,11.5,2.3C18.9,40.9,20.3,42.5,20.3,44.6z"/>
	<path class="st0" d="M80.9,12.2c1.4,0.1,2.7,0.8,3.4,2.3c0.8,1.7,0.5,3.3-0.7,4.7c-2.6,3-5.3,6-8,9c-1.6,1.8-4.2,2-5.8,0.4
		c-1.8-1.7-1.9-4.2-0.2-6c2.6-2.9,5-5.8,7.6-8.6C78.1,12.9,79.2,12.2,80.9,12.2z"/>
	<path class="st0" d="M32.5,24.4c0,1.8-1,3.3-2.5,3.9c-1.7,0.7-3.5,0.4-4.6-1c-1.5-1.8-3-3.7-4.5-5.5c-1.2-1.6-2.6-3.1-3.7-4.8
		c-1.2-1.9-0.7-4.1,1.2-5.5c1.5-1.2,4.1-0.9,5.4,0.7c1.5,1.8,3,3.7,4.4,5.5c1.2,1.5,2.5,3,3.6,4.6C32.3,23,32.5,23.7,32.5,24.4z"/>
	<path class="st0" d="M54.7,10.9c0,2.1,0,4.2,0,6.2c0,1.8-1.1,3.2-2.7,3.7c-2.6,0.9-5.5-1.1-5.5-3.8c0-4.1,0-8.3,0-12.4
		c0-2.2,1.8-3.9,4-4c2.2-0.1,4.1,1.6,4.1,3.8C54.7,6.6,54.7,8.8,54.7,10.9C54.7,10.9,54.7,10.9,54.7,10.9z"/>
</g>
</svg>
