<?xml version="1.0" encoding="utf-8"?>
<!-- Generator: Adobe Illustrator 24.3.0, SVG Export Plug-In . SVG Version: 6.00 Build 0)  -->
<svg version="1.1" id="Layer_1" xmlns="http://www.w3.org/2000/svg" xmlns:xlink="http://www.w3.org/1999/xlink" x="0px" y="0px"
	 viewBox="0 0 100 100" style="enable-background:new 0 0 100 100;" xml:space="preserve">
<style type="text/css">
	.st0{fill:#78C36C;}
</style>
<g>
	<path class="st0" d="M46.6,33.2c-0.7,4.1-1.4,7.8-2,11.6c-0.3,2.1-0.4,4.3-0.4,6.4c0,0.5,1,1.3,1.6,1.4c5,1.4,9.2,4,12.3,8.2
		c2.5,3.4,2.4,4-1.1,6.3c-5.3,3.5-10.9,6.5-17.3,7.5c-4.1,0.6-8.1,0.3-12-0.7c-0.5-0.1-1.1-0.8-1.2-1.3c-1.8-8.1,2.1-17.6,10.6-20
		c0.5-0.2,1.1-1.2,1.2-1.8c0.7-4.7,1.2-9.5,1.8-14.2c0.2-1.5,0.9-2.2,2.3-2.5C43.7,33.9,45.1,33.5,46.6,33.2z"/>
	<path class="st0" d="M62.6,97.4c-11.1,5.2-30.1,3-41.5-11.1c-12-14.8-10.3-34.7,0.9-47.6c13.5-15.6,35.5-16.7,49.9-6
		C87.6,44.4,90,63.8,84.7,75.4c3.2-11.5,1.9-22.3-5.3-31.9C72.1,33.7,62,29.2,50,29.8c-19.4,0.9-33,16.3-32.9,34.9
		c0.1,11.6,5.1,21,14.5,27.8C41,99.3,51.5,100.6,62.6,97.4z"/>
	<path class="st0" d="M44.1,23c0.9-1.9,1.5-3.7,2.5-5.3c3.2-5.1,6.5-10.1,9.9-15c0.7-1.1,2-1.9,3.2-2.4c2-0.8,3.6,0.6,3.1,2.7
		c-0.3,1-1,2-1.5,2.9c-3.2,5-6.5,10.1-9.7,15.1c-0.7,1.1-1.2,1.8-2.7,1.7C47.4,22.6,45.9,22.9,44.1,23z"/>
	<path class="st0" d="M73.6,91.1c-0.4,0.2-0.5,0.3-0.7,0.3c-3.1,1.1-5.3,0.3-7.2-2.5c-3.4-5-6.5-10.1-8.8-15.7
		c-0.7-1.7-0.7-2.8,1-3.6c0.6-0.3,1.2-0.8,2.1-1.4C63,76.7,67.5,84.3,73.6,91.1z"/>
	<path class="st0" d="M49.5,74.8c1.8-1,3-1.7,3.9-2.2c3.7,6.6,7.4,13.1,11.1,19.6c-3.2,1-4.8,0.6-6.5-2.3
		C55.1,85,52.4,79.9,49.5,74.8z"/>
	<path class="st0" d="M55.9,92.3c-1.4-0.1-2.8-0.2-4.1-0.5c-0.6-0.1-1.4-0.6-1.6-1.1c-2.4-4.4-4.6-8.8-7-13.4c1.7-0.7,3-1.2,4.3-1.6
		C50.1,81.2,52.9,86.6,55.9,92.3z"/>
	<path class="st0" d="M47.1,91c-3.3-0.2-6.1-0.6-7.2-4.3c-0.9-2.8-2.3-5.5-3.5-8.1c0.3-0.2,0.4-0.3,0.4-0.3c4-0.7,3.9-0.7,5.6,2.9
		C43.9,84.4,45.5,87.6,47.1,91z"/>
	<path class="st0" d="M37.8,88.7c-3.3-0.7-6.2-1.3-7-5.1c-0.4-1.9-1.2-3.7-2-5.8c1.7,0.2,3,0.3,4.3,0.5c0.3,0,0.7,0.4,0.8,0.7
		C35.3,82,36.5,85.2,37.8,88.7z"/>
	<path class="st0" d="M75.1,81c1.4,0,2.5-0.8,2.5-2.3c1,1,1.9,1.9,2.7,2.7c-0.7,0.6-1.7,1.5-2.6,2.2C77.1,82.9,76.1,81.9,75.1,81z"
		/>
	<path class="st0" d="M69.3,74c0.5,0.6,1.1,1.2,1.6,1.8c-0.5,0.4-1,0.8-1.3,1.1c-0.2-0.6-0.5-1.4-0.7-2.2c-0.2,0.6-0.3,1.2-0.5,1.8
		c0.6-0.6,1.1-1.1,1.7-1.7C69.9,74.4,69.6,74.2,69.3,74z"/>
	<path class="st0" d="M76.6,73.7c-0.5-0.5-0.9-1-1-1.1c0.5-0.3,1.2-0.6,1.8-1c-0.3-0.3-0.6-0.6-0.9-0.9c0.5,0.5,1,1,1.5,1.6
		c-0.1-0.2-0.2-0.4-0.4-0.5c-0.5,0.5-1,1.1-1.5,1.6C76.3,73.4,76.4,73.6,76.6,73.7z"/>
</g>
</svg>
