<?xml version="1.0" encoding="utf-8"?>
<!-- Generator: Adobe Illustrator 24.3.0, SVG Export Plug-In . SVG Version: 6.00 Build 0)  -->
<svg version="1.1" id="Layer_1" xmlns="http://www.w3.org/2000/svg" xmlns:xlink="http://www.w3.org/1999/xlink" x="0px" y="0px"
	 viewBox="0 0 100 100" style="enable-background:new 0 0 100 100;" xml:space="preserve">
<style type="text/css">
	.st0{fill:#78C36C;}
	.st1{fill:#3FA9DF;}
	.st2{fill:#F8FBF8;}
</style>
<g>
	<path class="st0" d="M92.1,18C89.2,9.4,79.4,4.9,70.6,8c-8.6,3.1-13,12.2-9.8,20.4c1,2.5,2.8,4.5,4.5,6.5c2.3,2.7,4.6,5.3,6.5,8.2
		c2.3,3.6,3.8,7.6,4.5,12c0.1-0.3,0.2-0.5,0.3-0.7c1.6-5.7,4.3-10.8,7.9-15.5c2-2.6,4.2-5.2,6-8C93.2,27,93.7,22.6,92.1,18z
		 M76.4,29.7c-4.1,0-7.5-3.3-7.6-7.5c0-4.2,3.3-7.6,7.5-7.6c4.2,0,7.5,3.3,7.5,7.5C83.9,26.3,80.5,29.7,76.4,29.7z"/>
	<path class="st0" d="M84.2,43.5c0.6,2.1,1,4.1,1.2,6.1c1,11-2,20.9-9.1,29.4c-6.5,7.9-15,12.4-25.2,13.6c-11.3,1.4-21.5-1.6-30.2-9
		C13.5,77.4,9,69.3,7.5,59.6c-2.9-18.1,7.6-36,24.7-42.5c8.4-3.2,16.8-3.5,25.4-1c0.8,0.2,1,0.4,0.7,1.2c-0.5,1.2-0.4,1.2-1.6,0.9
		C35.8,12.1,14.1,25.4,10,46.6C6.1,66.5,19,85.9,38.9,90c19.6,4.1,39.1-8.5,43.5-28.1c1.1-5,1.3-9.9,0.3-14.9
		c-0.1-0.8,0.3-1.3,0.6-1.9C83.5,44.6,83.8,44.2,84.2,43.5z"/>
	<path class="st0" d="M18.9,55c2.1,0,4.2,0,6.4,0c0.5,0,0.7,0.1,0.7,0.7c0.4,5.2,1.6,10.3,3.8,15.1c0.2,0.4,0.1,0.6-0.3,0.7
		c-3.2,1.1-6.3,2.5-9.2,4.1c-0.4,0.2-0.6,0.1-0.8-0.2c-3.9-4.9-6.3-10.5-7.2-16.7c-0.1-0.9-0.2-1.9-0.3-2.8
		c-0.1-0.6,0.1-0.8,0.7-0.8C14.7,55,16.8,55,18.9,55z"/>
	<path class="st0" d="M18.8,52.5c-2.1,0-4.2,0-6.3,0c-0.6,0-0.7-0.2-0.7-0.7c0.5-7.3,3-13.8,7.4-19.5c0.3-0.4,0.6-0.5,1.1-0.2
		c2.8,1.5,5.7,2.8,8.7,3.8c0.7,0.2,0.7,0.5,0.4,1c-2.1,4.8-3.3,9.7-3.6,14.9c0,0.5-0.2,0.7-0.7,0.7C23.1,52.5,20.9,52.5,18.8,52.5z"
		/>
	<path class="st0" d="M56.7,52.5c-2.8,0-5.6,0-8.3,0c-0.7,0-0.8-0.2-0.8-0.8c0-4,0-8,0-12c0-0.5,0.1-0.7,0.7-0.8
		c4.4-0.2,8.6-1,12.8-2.3c0.4-0.1,0.6,0,0.7,0.3c2.1,4.2,3.5,8.6,3.9,13.3c0,0.3,0,0.6,0.1,0.9c0.1,1.4,0.1,1.4-1.4,1.4
		C61.8,52.5,59.2,52.5,56.7,52.5z"/>
	<path class="st0" d="M56.6,55c2.8,0,5.6,0,8.4,0c0.5,0,0.7,0.1,0.7,0.7c-0.3,5.2-1.9,10-4.2,14.7c-0.2,0.5-0.5,0.5-0.9,0.3
		c-4-1.2-8.2-2-12.4-2.1c-0.6,0-0.7-0.3-0.7-0.8c0-4,0-8.1,0-12.1c0-0.6,0.2-0.7,0.7-0.7C51,55,53.8,55,56.6,55z"/>
	<path class="st0" d="M36.6,52.5c-2.5,0-5,0-7.5,0c-0.6,0-0.8-0.1-0.8-0.8c0.3-4.9,1.5-9.6,3.4-14.1c0.3-0.6,0.6-0.7,1.1-0.5
		c3.7,1.1,7.5,1.7,11.4,1.8c0.5,0,0.7,0.1,0.7,0.7c0,4,0,8.1,0,12.1c0,0.6-0.2,0.8-0.8,0.8C41.7,52.5,39.2,52.5,36.6,52.5z"/>
	<path class="st0" d="M36.6,55c2.5,0,5.1,0,7.6,0c0.6,0,0.8,0.2,0.8,0.8c0,4,0,8,0,12c0,0.6-0.2,0.8-0.8,0.8
		c-3.8,0.1-7.6,0.7-11.2,1.8c-0.5,0.1-0.7,0.1-1-0.4c-2-4.5-3.3-9.2-3.6-14.2c0-0.6,0.1-0.7,0.7-0.7C31.6,55,34.1,55,36.6,55z"/>
	<path class="st0" d="M76,64.3c0.8-3,1.7-5.9,2.7-8.8c0.2-0.5,1.5-0.9,1.9-0.5c0.2,0.2,0.1,0.4,0.1,0.6c-0.4,7.3-2.9,13.9-7.5,19.6
		c-0.3,0.4-0.6,0.4-1,0.2c-2.6-1.3-5.3-2.5-8.1-3.6c-0.5-0.2-0.5-0.4-0.3-0.8c1.8-3.8,3.2-7.7,3.9-11.9c0.2-1.1,0.3-2.2,0.4-3.3
		c0-0.6,0.2-0.9,0.9-0.8c1.3,0.1,2.7,0.1,4,0c0.7,0,0.9,0.2,1,0.8c0.5,2.7,1,5.3,1.7,8C75.8,63.9,75.8,64.1,76,64.3z"/>
	<path class="st0" d="M60.3,34.3c-3.1,1-6.3,1.6-9.5,2c-0.9,0.1-1.8,0.1-2.7,0.2c-0.4,0-0.6,0-0.6-0.5c0-5.4,0-10.9,0-16.5
		C52.8,23.6,56.9,28.6,60.3,34.3z"/>
	<path class="st0" d="M47.5,88.3c0-1.9,0-3.5,0-5.1c0-3.8,0-7.6,0-11.3c0-0.6,0.1-0.9,0.8-0.8c3.7,0.3,7.4,0.8,11,1.9
		c0.4,0.1,0.7,0.1,0.4,0.7C56.5,79.1,52.3,83.7,47.5,88.3z"/>
	<path class="st0" d="M41.1,87.8c-2.3-0.3-4.5-0.9-6.6-1.7c-4.7-1.7-8.9-4.4-12.5-7.9c-0.4-0.4-0.6-0.6,0.1-0.9
		c2.7-1.4,5.5-2.6,8.3-3.6c0.4-0.1,0.6-0.2,0.9,0.2c2.6,4.9,5.9,9.4,9.6,13.5C41.1,87.5,41.2,87.6,41.1,87.8z"/>
	<path class="st0" d="M45,19.6c0,3.8,0,7.5,0,11.3c0,1.7,0,3.3,0,5c0,0.6-0.1,0.7-0.7,0.7c-3.5-0.1-6.9-0.7-10.3-1.6
		c-0.6-0.2-0.8-0.3-0.4-0.9c2.3-4.2,5.2-8,8.5-11.5c0.9-1,1.9-2,2.8-3C44.9,19.5,45,19.5,45,19.6z"/>
	<path class="st0" d="M41,19.8c-1,1.1-2,2.3-3,3.4c-2.6,3.1-5,6.5-6.9,10.1c-0.2,0.3-0.2,0.6-0.7,0.5c-3.1-1.1-6.1-2.4-9.1-4
		C26.9,24.3,33.3,20.9,41,19.8z"/>
	<path class="st0" d="M45,88.1c-3.3-3.4-6.2-6.9-8.8-10.7c-0.9-1.3-1.7-2.7-2.5-4.1c-0.2-0.4-0.2-0.6,0.3-0.7
		c3.4-0.9,6.7-1.5,10.2-1.6c0.5,0,0.8,0,0.8,0.6c0,5.4,0,10.7,0,16.1C45,87.7,45,87.8,45,88.1z"/>
	<path class="st0" d="M51.7,87.8c1.5-1.7,2.9-3.2,4.3-4.8c2.3-2.7,4.4-5.5,6.1-8.6c0.3-0.5,0.6-0.6,1.1-0.4c2.5,0.9,4.9,2,7.2,3.2
		c0.7,0.3,0.7,0.5,0.1,1C65.3,83.4,59,86.5,51.7,87.8z"/>
	<path class="st0" d="M65.3,39c0.2,0,0.3,0.1,0.4,0.2c3,3.6,5.7,7.3,7.1,11.8c0.5,1.5,0.5,1.5-1.1,1.5c-0.9,0-1.9,0-2.8,0
		c-0.6,0-0.7-0.2-0.8-0.8c-0.2-4.1-1-8.2-2.5-12C65.6,39.5,65.4,39.3,65.3,39z"/>
	<path class="st0" d="M57.5,25.8c-1.8-2.1-3.6-4.1-5.8-6.1c2,0.3,3.7,0.7,5.4,1.3c0.2,0.1,0.3,0.3,0.3,0.5
		C57.3,22.9,57.3,24.4,57.5,25.8z"/>
	<path class="st1" d="M80.5,50.8c0.2,0.5,0.2,0.9,0.2,1.3c0,0.2,0,0.4-0.3,0.4c-0.2,0-0.4,0-0.5-0.1c-0.2-0.1,0-0.3,0-0.5
		C80.1,51.6,80.3,51.2,80.5,50.8z"/>
</g>
</svg>
