<?xml version="1.0" encoding="utf-8"?>
<!-- Generator: Adobe Illustrator 24.3.0, SVG Export Plug-In . SVG Version: 6.00 Build 0)  -->
<svg version="1.1" id="Layer_1" xmlns="http://www.w3.org/2000/svg" xmlns:xlink="http://www.w3.org/1999/xlink" x="0px" y="0px"
	 viewBox="0 0 200 200" style="enable-background:new 0 0 200 200;" xml:space="preserve">
<style type="text/css">
	.st0{fill:#F2F2F2;}
</style>
<g>
	<path class="st0" d="M78,100.4c-9.2-11.3-17.7-22.5-32.6-27.2c7.5,8.3,14.4,16.3,21.6,23.9c2.9,3.1,6.5,5.7,11,6.5
		c0.4,0.1,0.9,0.8,1,1.3c1.2,4.2,2.3,8.5,3.6,13.3c-8.6-10.4-16.9-20.6-30.4-24.7c0.6,0.7,0.9,1.1,1.3,1.6
		c3.9,4.6,7.7,9.4,11.8,13.9c3.3,3.7,7,7,10.6,10.4c1.2,1.2,2.7,2.5,4.3,2.8c4.8,1,6.4,4.6,8.1,8.4c0.4,0.9,0.9,1.8,1.3,2.8
		c-10.3-8.5-21.3-15.3-35.7-15.3c0.7,0.5,1.1,0.8,1.5,1.1c4,2.8,8.1,5.4,12,8.4c5.9,4.4,12.2,7.8,19.3,9.6c0.8,0.2,1.6,0.5,2.3,0.3
		c2.9-0.7,4.2,1,5.5,3.1c1.5,2.4,3.2,4.6,5.3,7.4c-9.6-4.8-18.8-8.3-29.7-6.5c8.6,3,15.8,8.1,24.7,8.9c1.5,0.1,3.1,0.4,4.4,0
		c1.7-0.5,2.6,0,3.8,1.3c4.1,4.8,8.4,9.4,12.7,14c0.5,0.5,1.5,0.6,2.3,0.9c0.1-0.2,0.2-0.5,0.4-0.7c-4.7-5.1-9.4-10.1-14.2-15.3
		c9.3-7.9,12.5-18.7,15.4-29.7c-6.1,8.9-13.3,17.1-16.4,28.4c-1.8-2.3-3.4-4.2-4.7-6.3c-0.3-0.4,0-1.4,0.3-2
		c6.7-11.9,10.8-24.5,11.8-37.9c-3.6,5.8-7.5,11.7-11.1,17.8c-3.1,5.3-4.3,11.2-4.4,17.7c-2.5-4.5-5.1-9.1-7.6-13.7
		c8.7-3.8,12-11.5,14.8-19.4c1.8-4.9,2.7-10.2,3.7-15.5c-3,6.7-8.8,11.1-13.1,16.7c-3.3,4.2-5.1,9.2-6.5,14.9
		c-0.7-1.8-1.2-3.1-1.7-4.5c-0.6-1.8-1.2-3.6-1.7-5.4c-1.4-4.7-1.2-4.5,2.6-7.6c3-2.4,5.7-5.2,8.1-8.2c4.8-6.2,7.7-13.4,9.7-21.1
		C97.4,80.6,91.4,86.1,86,92.1c-2.5,2.9-3.8,6.9-5.7,10.4c-0.9-5-1.8-10.2-2.8-15.4c12.2-6.2,21.6-14.8,25.8-28.1
		c-3.7,5.1-9.3,7.9-13.9,11.9c-4.4,3.8-8.2,8.2-12.3,12.4c-0.3-3.1-0.6-6.6-0.8-10c0-0.4,0.5-0.9,0.9-1.2c6.4-3.1,11-8,14.1-14.4
		c2.4-5.1,4.8-10.3,6.9-15.6c-7,8.7-16.7,15.1-21.7,25.4c0.5-5.9,0.8-11.6,4.2-17c1.8-2.9,2.6-6.6,3.1-10c1.6-9.2-0.6-18.1-2.5-25.9
		C80,20,78.6,26.2,77,32.4c-1.5,5.7-1.6,11.4-0.4,17.1c0.5,2.3,0.5,4.3-0.3,6.4c-0.6,1.5-0.8,3.2-1.3,4.8
		c-2.3-10.9-4.5-21.8-14.1-29.3c2.3,8.7,4.4,17.5,7,26.2c1,3.3,2.7,6.6,6.2,8.3c0.3,0.2,0.5,0.8,0.5,1.2c0,4.4,0,8.9,0,13.2
		C69.1,70.8,63.9,60.8,55,53.5c-2.1-1.7-4.3-3.2-6.8-4.4c0.2,0.4,0.3,0.9,0.6,1.3c4,6.8,7.9,13.6,12,20.3c2,3.2,4.6,6.2,7.1,9.1
		c1.2,1.4,2.6,3.1,4.2,3.7c3.7,1.3,4.1,4.1,4.4,7.3C76.8,93.9,77.4,96.8,78,100.4z"/>
	<g>
		<path class="st0" d="M34.2,179.4c-14.4,0-31.9-1.9-34-11c-3.2-13.2,29.2-28,60.4-38.5c0.3-0.1,0.6,0.1,0.7,0.3l0,0
			c0.1,0.3-0.1,0.6-0.3,0.7c-42.6,16.8-59,29.3-57.3,36.6c1.2,5.2,12.7,8.2,30.6,8.2c0.1,0,0.2,0,0.4,0c19.4,0,44.5-3.5,70.6-9.8
			c26.1-6.3,50-14.6,67.3-23.4c16.2-8.2,25.1-16.2,23.8-21.4c-1.1-4.5-10-7.5-24.4-8.1c-15-0.7-34.9,1-57.3,4.2
			c-0.2,0-0.5-0.1-0.5-0.3l0,0c0-0.2,0.1-0.5,0.4-0.5c22.1-4.2,42-6.4,57.3-5.7c16.8,0.7,26.4,3.2,28,9.6
			c2.2,9.1-12.8,18.8-25.7,25.4c-17.6,8.9-41.8,17.3-68.1,23.7c-26.3,6.3-51.7,9.8-71.4,9.9C34.5,179.4,34.4,179.4,34.2,179.4z"/>
	</g>
	<path class="st0" d="M18.4,149.2l3.7,5.3c0.4,0.6,0,1.4-0.7,1.4l-5.1-0.2l-5.7-0.2c-0.6,0-1-0.6-0.8-1.2l1.8-5.4l1.6-4.9
		c0.2-0.7,1.1-0.8,1.6-0.2L18.4,149.2z"/>
	<path class="st0" d="M76.2,173.7l-1.8-10.5c-0.2-1.2,1-2.1,2.1-1.5l7.4,3.8l8.3,4.3c0.9,0.4,1,1.6,0.4,2.3l-6.4,6.8l-5.8,6.1
		c-0.8,0.9-2.3,0.4-2.5-0.8L76.2,173.7z"/>
	<path class="st0" d="M188.4,135.2l-5.1-5.5c-0.6-0.6-0.2-1.6,0.6-1.7l5.8-0.6l6.5-0.7c0.7-0.1,1.2,0.5,1.1,1.2l-1.2,6.5l-1,5.8
		c-0.1,0.8-1.2,1.1-1.7,0.5L188.4,135.2z"/>
</g>
</svg>
