<?xml version="1.0" encoding="utf-8"?>
<!-- Generator: Adobe Illustrator 24.3.0, SVG Export Plug-In . SVG Version: 6.00 Build 0)  -->
<svg version="1.1" id="Layer_1" xmlns="http://www.w3.org/2000/svg" xmlns:xlink="http://www.w3.org/1999/xlink" x="0px" y="0px"
	 viewBox="0 0 100 100" style="enable-background:new 0 0 100 100;" xml:space="preserve">
<style type="text/css">
	.st0{fill:#78C36C;}
	.st1{fill:#F8FBF8;}
</style>
<g>
	<path class="st0" d="M99.5,28.8c-1.1,1.7-1.5,3.8-2.4,5.7c-3.8,7.3-11.8,11.3-20.4,9.7c-7.7-1.4-14.3-8.4-15.1-16
		c-1-9.8,4.4-18.5,13.2-20.9c10.8-3,21.2,2.9,24,13.5c0.1,0.5-0.1,1.2,0.6,1.5C99.5,24.4,99.5,26.6,99.5,28.8z M77.8,35.8
		c4-7.4,8.2-14.2,13.6-20.4c-3.6-1.1-6,0.1-7.9,3.1c-1.4,2.2-3.3,4.1-4.7,6.3c-0.9,1.4-1.5,1.6-2.7,0.3c-1.2-1.2-2.8-1.8-4.5-1.9
		c-0.8,0-1.6,0.3-2.1,1.1c-0.3,0.5,0,0.8,0.3,1.1C73.5,28,75.8,31.7,77.8,35.8z"/>
	<path class="st0" d="M82.5,52c-0.2,0-0.4,0.1-0.7,0c-1.7-0.3-2.2,0.6-2.6,2c-5.1,17.1-15.6,29.5-32.1,36.6c-1.4,0.6-2.5,0.7-4,0.1
		c-10.5-4.4-19-11.1-25-20.9C9.1,55.1,7.2,38.6,7.3,21.7c0-1.2,0.7-1.2,1.5-1.2c13,0.5,24.6-3.6,34.9-11.3c0.9-0.7,1.6-0.7,2.5-0.1
		c2.3,1.4,4.6,2.8,7,4.1c2.8,1.5,2.8,1.5,4.4-1.3c0.3-0.6,0.6-1.2,1.1-1.7c1.1-1.1,0.6-1.6-0.6-2.1C53.7,6.1,49.4,3.8,45.4,1
		c-0.7-0.1-1.2,0.5-1.7,0.8C31.4,11,17.7,15.1,2.5,14.7c-0.7,0-1.3,0-2,0.1c0,3.4,0,6.7,0,10.1c0,1.2,0,2.3,0,3.5c0,1,0,2.1,0,3.1
		c1.2,2.5,0.9,5.4,1.3,8c1.7,11.9,4.8,23.3,11.1,33.6C20.4,85.6,31.3,94,44.9,99c0.5-0.2,1-0.3,1.4-0.5c20-8,32.7-22.6,39-43.1
		C86.5,51.7,86.5,51.7,82.5,52z"/>
	<path class="st0" d="M45.1,66.2c-3.7,0-7.5,0-11.2,0c-1.9,0-2.7-0.7-2.7-2.8c0.1-5.7,0.1-11.4,0-17.1c0-1.4,0.2-2.6,2-2.5
		c1.4,0,1.1-0.9,1.1-1.7c-0.1-2.7,0.3-5.2,1.9-7.5c2.7-4.1,7.2-5.8,11.8-4.5c4.2,1.1,7.7,5.5,8,10c0,0.7,0.1,1.5,0,2.2
		c0,0.9,0,1.5,1.2,1.5c1.4,0,1.8,1,1.8,2.2c0,5.9,0,11.9,0,17.8c0,1.8-1,2.4-2.7,2.4C52.6,66.2,48.9,66.2,45.1,66.2z M45.1,43.8
		c2.1,0,4.2,0,6.3,0c0.8,0,1.2-0.1,1.2-1.1c0.1-3.5-0.6-6.6-3.8-8.5c-2.6-1.6-5.3-1.6-7.8,0.1c-3.1,2-3.8,5.1-3.7,8.6
		c0.1,1,0.6,0.9,1.3,0.9C40.9,43.8,43,43.8,45.1,43.8z M48.5,60.9c-0.4-1.1-0.6-1.9-0.9-2.7c-0.5-1.3-1-2.5,0.4-3.8
		c1.2-1.2,0.7-3.3-0.7-4.5c-1.4-1.2-3.2-1.1-4.6,0.1c-1.4,1.3-1.8,3.4-0.3,4.7c1.2,1.1,1,2,0.4,3.1c-0.3,0.5-0.3,1.1-0.6,1.6
		c-0.6,1.1-0.4,1.5,1,1.5C44.8,60.8,46.5,60.9,48.5,60.9z"/>
</g>
</svg>
