<?xml version="1.0" encoding="utf-8"?>
<!-- Generator: Adobe Illustrator 24.3.0, SVG Export Plug-In . SVG Version: 6.00 Build 0)  -->
<svg version="1.1" id="Layer_1" xmlns="http://www.w3.org/2000/svg" xmlns:xlink="http://www.w3.org/1999/xlink" x="0px" y="0px"
	 viewBox="0 0 100 100" style="enable-background:new 0 0 100 100;" xml:space="preserve">
<style type="text/css">
	.st0{fill:#78C36C;}
</style>
<g>
	<path class="st0" d="M41.3,55.2c0.9-4.7,1.8-9.4,2.7-14c0.4-1.9,0.7-3.7,1.1-5.6c0.7-3.4,2.2-4.6,5.6-4.9c10-0.9,20-1,30-0.5
		c1.1,0.1,2.2,0.1,3.4,0.2c-0.2-0.2-0.4-0.3-0.6-0.4c-11.7-5-23.5-9.8-35.3-14.6c-1.4-0.6-2.9-0.5-4.3-0.6
		c-8.2-0.7-16.4-0.5-24.6-0.3c-1.1,0-2,0.5-2.7,1.4c-0.5,0.7-0.8,1.4-1,2.2c-0.3,1.2-0.5,2.4-0.8,3.6c-0.2,0.8,0,1.5,0.5,2.1
		c1.5,1.6,3.1,3.2,4.7,4.8c0.9,0.8,1.4,1.7,1.5,3c0.1,1.3,0.3,2.6,0.4,3.9c0.1,0.9,0.5,1.6,1.1,2.2c5.9,5.6,11.8,11.2,17.7,16.8
		C40.8,54.7,41,54.9,41.3,55.2z"/>
	<path class="st0" d="M1.3,52.1c2.6-0.4,5.3-0.9,7.9-1.3c1.9-0.3,3.3,0.6,4,2.4c1.1,2.9,1.5,5.9,1.7,8.9c0,0.5,0.1,0.8,0.7,0.8
		c0.3,0,0.4,0.1,0.4,0.4c0.2,2,1.5,3.3,3.5,3.5c5.1,0.5,10.3,0.9,15.4,1.3c0.5,0,0.7,0.2,0.7,0.7c0.2,2,0.4,4,0.4,6
		c0,0.3-0.1,0.4-0.4,0.4c-1.3-0.1-2.6-0.1-3.9-0.2c-5.6-0.4-11.1-0.8-16.7-1.2c-0.5,0-0.6,0.1-0.7,0.6c-0.4,2.1-1.1,4.2-1.9,6.3
		c-0.3,0.8-0.8,1.4-1.7,1.7c-3.1,1.1-6.3,2.2-9.5,3c-0.4,0.1-0.9,0.3-1.4,0.1c0-0.2,0.1-0.2,0.2-0.2c1.8-0.8,2.8-2.2,3.2-4.1
		C4.3,77.8,4.8,74.5,5,71c0.3-5.2-0.1-10.4-1.6-15.5C3,54.3,2.2,53.5,1,52.9c-0.2-0.1-0.4-0.2-0.8-0.3C0.6,52.3,1,52.2,1.3,52.1z
		 M11,61.7c-1.4,0.1-2.5,0.9-3.3,2c-1.6,2.2-1.5,6.4,0.1,8.7c0.4,0.5,0.9,1,1.4,1.3c0.7,0.4,1.3,0.3,1.9-0.2c-2-0.1-2.5-1.6-3-3.1
		c-0.5-1.8-0.3-3.6,0.4-5.3c0.6-1.3,1.5-2.3,3-2.5c0.5-0.1,1,0.1,1.5,0C12.6,61.8,11.8,61.6,11,61.7z"/>
	<path class="st0" d="M95.2,35.2c-0.5-0.2-0.9-0.4-1.3-0.6c-1.7-0.8-3.5-1.5-5.2-2.3c-1.6-0.7-3.2-0.7-4.9-0.9
		C77.4,31,71,30.8,64.5,31c-4.5,0.1-9,0.3-13.5,0.7c-0.4,0-0.8,0.1-1.2,0.1c-1.8,0.3-3,1.2-3.4,3c-0.6,2.4-1,4.8-1.5,7.2
		c-0.9,4.5-1.7,9-2.6,13.4c-0.1,0.4,0,0.7,0.3,1c0.8,0.8,1.7,1.5,2.5,2.3c0.4,0.4,0.5,0.4,0.7-0.1c1.8-4.9,3.6-9.8,5.4-14.7
		c0.4-1.1,0.8-2.2,1.3-3.3c1.3-3.2,3.6-4.9,7.2-5.1c7.5-0.4,15.1-0.8,22.6-0.7c4.1,0,8.3,0.2,12.4,0.4
		C94.8,35.2,94.9,35.2,95.2,35.2z"/>
	<path class="st0" d="M43.6,79.5c1.1,0,2.5-0.1,3.4-1c0.6-0.6,1.2-1,1.9-1.3c1-0.4,1.5-1.3,1.7-2.4c0.3-2.5,0.6-5,0.9-7.5
		c0-0.4,0-0.5-0.4-0.5c-1.4,0.1-2.7-0.2-3.9-1c-0.3-0.2-0.6-0.1-0.9-0.1c-3.1,0.1-6.2,0.1-9.3-0.5c-1.1-0.2-2.2-0.1-3.4-0.3
		c-5-0.6-9.9-1.2-14.9-1.7c-0.4,0-0.8-0.1-1.2-0.1c-0.4-0.1-0.5,0-0.4,0.4c0.4,1.3,1.4,2.2,2.7,2.3c3.2,0.3,6.4,0.6,9.6,0.9
		c2.2,0.2,4.4,0.4,6.5,0.5c0.4,0,0.6,0.2,0.7,0.6c0.2,2.2,0.5,4.4,0.5,6.7c0,1.4,0.6,2.6,2.1,3.1c0.1,0,0.2,0.1,0.2,0.2
		C40.5,79,41.9,79.4,43.6,79.5z"/>
	<path class="st0" d="M65,57.4c-3,0.1-6,0.1-9,0.2c-0.5,0-0.6-0.2-0.5-0.6c0.5-4.3,1.1-8.5,1.6-12.8c0.2-1.5,1-2.2,2.4-2.2
		c6,0,11.9,0,17.9,0c0.5,0,0.6,0.2,0.5,0.6c-0.6,4.1-1.1,8.3-1.7,12.4c-0.2,1.6-0.9,2.2-2.5,2.2c-2.9,0-5.8,0-8.8,0
		C65,57.3,65,57.3,65,57.4z M72.8,49.8c0-3.7-3-6.6-6.7-6.6c-3.7,0-6.6,3-6.6,6.6c0,3.7,3,6.7,6.7,6.7
		C69.8,56.5,72.8,53.5,72.8,49.8z"/>
	<path class="st0" d="M15.7,26c-0.2,2.1-0.2,4.1-0.1,6.1c0.1,1.7,0.9,3.1,2.1,4.3c1,1,2,2,3,3c0.3,0.3,0.4,0.5,0.4,0.9
		c-0.3,1.6,0.4,2.7,1.5,3.8c4.1,4.3,8.6,8.2,13.1,12.1c1.2,1,2.4,2,3.5,3.1c1,1,2.2,1.5,3.6,1.6c0.4,0,0.7,0.2,1,0.5
		c0.5,0.5,1,0.9,1.6,1.5c0-0.7,0-1.3,0.2-1.9c0.1-0.3-0.2-0.4-0.3-0.6c-2.5-2.4-5-4.7-7.5-7.1c-5.3-5-10.5-9.9-15.8-14.9
		c-0.8-0.7-1.1-1.6-1.2-2.6c-0.1-1.5-0.3-3-0.5-4.5c-0.1-0.5-0.3-1-0.6-1.3C18.4,28.6,17.1,27.3,15.7,26z"/>
	<path class="st0" d="M46.4,59.9c0.5,0,1,0,1.4,0c0.4,0,0.4-0.3,0.5-0.5c1.5-4.2,3.1-8.4,4.6-12.7c0.7-1.8,1.3-3.6,2-5.4
		c0.8-2,2.3-3.2,4.6-3.3c7.3-0.4,14.6-0.7,21.9-0.7c5.3,0,10.6,0.3,15.9,0.6c1,0.1,1.3,0.6,0.9,1.6c-0.8,2.1-1.6,4.2-2.5,6.3
		c-1.6,4-3.1,8-4.7,12c-0.2,0.5-0.1,0.6,0.4,0.6c1.1,0,1.1,0,1.5-1c2.2-5.7,4.5-11.5,6.7-17.2c0.1-0.3,0.2-0.5,0.3-0.8
		c0.4-1.8-0.6-3.1-2.6-3.2c-4.2-0.2-8.5-0.5-12.7-0.6c-8.1-0.2-16.1,0.2-24.2,0.6c-0.5,0-1.1,0-1.6,0.1c-2.6,0.3-4.5,1.8-5.4,4.2
		c-2.5,6.3-4.7,12.6-7,18.9C46.4,59.7,46.4,59.8,46.4,59.9z"/>
	<path class="st0" d="M65.7,65.1c4.9-0.2,9.9-0.3,14.8-0.5c3-0.1,5.1-2,5.6-4.9c0.9-5.3,1.8-10.6,2.6-16c0.2-1.5,0.4-3.1,0.4-4.6
		c0-0.6-0.2-0.9-0.9-0.8c-1,0.1-1.9,0-2.9,0c-0.4,0-0.4,0.1-0.4,0.4c0,1.5-0.2,3-0.2,4.5c-0.1,5.4-0.1,10.8,0,16.3
		c0,0.8-0.2,1.4-0.6,2.1c-0.6,1-1.5,1.6-2.7,1.7c-2.5,0.2-5,0.3-7.6,0.3c-7.6,0.2-15.2,0.4-22.8,0.6c-0.3,0-0.5,0-0.8,0
		c-1.7-0.1-2.7-1.2-2.6-2.9c0-0.2,0.2-0.5-0.2-0.5c-0.3,0-0.8-0.3-1,0.4c-0.4,1.5,0.1,2.7,1.3,3.5c0.9,0.6,1.9,0.9,2.9,0.9
		C55.7,65.4,60.7,65.3,65.7,65.1C65.7,65.1,65.7,65.1,65.7,65.1z"/>
	<path class="st0" d="M0,84c1.4-0.4,2.1-1.3,2.4-2.6c0.8-3.1,1.2-6.3,1.5-9.5c0.4-5.1,0.1-10.1-1.2-15c-0.1-0.4-0.2-0.7-0.3-1.1
		c-0.2-1.1-1.1-1.5-2-1.9c-0.2-0.1-0.3,0-0.3,0.2c0,0.1,0,0.3,0,0.4c0,9.7,0,19.4,0,29C0,83.7,0,83.8,0,84z"/>
	<path class="st0" d="M97.4,39c-2.4-0.1-4.6-0.3-6.9-0.4c-0.2,0-0.4-0.1-0.4,0.3c0.2,2.1-0.2,4.2-0.5,6.2c-0.5,3.6-1.1,7.1-1.7,10.7
		c-0.1,0.4,0,0.7,0.4,0.9c0.4,0.3,0.8,0.6,1.2,0.9c0.4,0.4,0.6,0.2,0.8-0.2c1.8-4.6,3.5-9.2,5.3-13.7C96.2,42.1,96.8,40.6,97.4,39z"
		/>
	<path class="st0" d="M66.4,59.6c3.2,0,6.5,0,9.7,0c1.5,0,2.3-0.7,2.5-2.2C79.3,53,80,48.5,80.6,44c0.2-1-0.2-1.7-0.9-1.9
		c-0.3-0.1-0.5-0.1-0.6,0.3c-0.5,3.8-1.1,7.7-1.6,11.5c-0.1,0.8-0.2,1.6-0.3,2.3c-0.1,1-0.8,1.6-1.7,1.7c-0.6,0.1-1.2,0.1-1.8,0.1
		c-5.9,0.1-11.9,0.2-17.8,0.3c-0.2,0-0.6-0.1-0.7,0.2c-0.1,0.3,0.1,0.5,0.2,0.8c0.3,0.5,0.8,0.6,1.3,0.6c3.2,0,6.5,0,9.7,0
		C66.4,59.8,66.4,59.7,66.4,59.6z"/>
	<path class="st0" d="M45.9,64.7c-1-0.9-2-1.8-2.9-2.6c-0.2-0.1-0.3-0.2-0.5-0.2c-1.6-0.2-3-0.9-4.2-2c-2.6-2.4-5.4-4.8-8.1-7.2
		c-0.2-0.1-0.3-0.3-0.5-0.4c-0.1,0.2,0,0.3,0.1,0.4c0.2,0.4,0.5,0.8,0.8,1.1c2.2,2.9,4,5.9,5.2,9.3c0.2,0.5,0.5,0.7,0.9,0.8
		c1.7,0.5,3.5,0.6,5.2,0.7C43.2,64.7,44.5,64.7,45.9,64.7z"/>
	<path class="st0" d="M81.5,59.2c0.7,0,1.3-0.6,1.3-1.3c0-0.7-0.6-1.3-1.3-1.3c-0.7,0-1.4,0.6-1.4,1.3
		C80.2,58.7,80.8,59.2,81.5,59.2z"/>
	<path class="st0" d="M52,60.1c0.7,0,1.3-0.5,1.3-1.3c0-0.7-0.6-1.4-1.3-1.4c-0.7,0-1.3,0.6-1.3,1.3C50.7,59.5,51.3,60.1,52,60.1z"
		/>
	<path class="st0" d="M64.3,44.6c1.2,0.6,1.8,1.5,1.7,2.9c-0.2,1.2-0.8,1.9-2,2.2c-1.4,0.3-2.4-0.3-3.1-1.5c-0.9,2,0.1,4.9,2.2,6.3
		c2.3,1.5,5.3,1.2,7.1-0.8c1.9-2,2.1-5,0.5-7.2C69.1,44.5,66.2,43.7,64.3,44.6z"/>
</g>
</svg>
